<?xml version="1.0" encoding="utf-8"?>
<!-- Generator: Adobe Illustrator 22.1.0, SVG Export Plug-In . SVG Version: 6.00 Build 0)  -->
<svg version="1.1" id="Layer_1" xmlns="http://www.w3.org/2000/svg" xmlns:xlink="http://www.w3.org/1999/xlink" x="0px" y="0px"
	 viewBox="0 0 3039.8 4000" style="enable-background:new 0 0 3039.8 4000;" xml:space="preserve">
<style type="text/css">
	.st0{fill:none;stroke:#000000;stroke-width:11.3386;stroke-linecap:round;stroke-linejoin:round;stroke-miterlimit:10;}
</style>
<g>
	<path d="M93.647,3952.671H57.789v-277.898H42.165v-1.28l22.539-121.66h28.942V3952.671z"/>
	<path d="M309.306,3952.671H150.25v-18.953l122.685-254.847v-95.535h-81.705v90.157h-35.857v-93.231
		c0-8.364,2.645-15.195,7.94-20.49c5.29-5.291,12.122-7.94,20.49-7.94h96.56c8.364,0,15.196,2.649,20.49,7.94
		c5.291,5.294,7.94,12.125,7.94,20.49v85.035c0,10.245-3.161,21.942-9.477,35.089L193.28,3921.167h116.026V3952.671z"/>
	<path d="M526.502,3924.242c0,8.367-2.733,15.199-8.196,20.49c-5.467,5.294-12.382,7.94-20.747,7.94H392.035
		c-8.369,0-15.156-2.646-20.362-7.94c-5.211-5.29-7.812-12.122-7.812-20.49v-130.626c0-11.438,4.354-19.978,13.062-25.613
		l38.931-25.101l-37.907-23.564c-8.708-5.463-13.062-14.086-13.062-25.869v-113.208c0-8.364,2.645-15.195,7.94-20.49
		c5.291-5.291,12.122-7.94,20.49-7.94h103.731c8.364,0,15.196,2.649,20.49,7.94c5.291,5.294,7.94,12.125,7.94,20.49v113.208
		c0,11.782-4.442,20.406-13.318,25.869l-37.651,23.564l38.163,25.101c9.22,5.979,13.831,14.516,13.831,25.613V3924.242z
		 M490.644,3921.167v-132.674l-45.59-29.967l-45.591,29.967v132.674H490.644z M489.62,3698.337v-115.001h-89.132v115.001
		l44.566,29.71L489.62,3698.337z"/>
	<path d="M749.844,3924.242c0,8.367-2.605,15.199-7.812,20.49c-5.211,5.294-11.998,7.94-20.362,7.94H619.475
		c-8.368,0-15.199-2.646-20.49-7.94c-5.295-5.29-7.94-12.122-7.94-20.49v-343.979c0-8.364,2.645-15.195,7.94-20.49
		c5.291-5.291,12.122-7.94,20.49-7.94h101.17c8.364,0,15.151,2.649,20.362,7.94c5.207,5.294,7.812,12.125,7.812,20.49v88.62h-35.602
		v-85.546h-86.571v148.553h95.023c8.364,0,15.151,2.605,20.362,7.812c5.207,5.211,7.812,11.998,7.812,20.362V3924.242z
		 M714.242,3921.167v-158.286h-87.595v158.286H714.242z"/>
	<path d="M969.601,3848.171h-30.479v104.5H905.57v-104.5H792.361v-18.185l97.072-278.154h33.552v1.536l-92.206,264.579h74.789
		v-145.479h33.552v145.479h30.479V3848.171z"/>
	<path d="M1301.029,3916.044c0,24.421-12.126,36.627-36.37,36.627h-120.635c-24.076,0-36.114-12.206-36.114-36.627v-95.534h59.933
		v81.704h73.252v-78.631l-120.123-113.72c-8.708-8.364-13.062-19.038-13.062-32.016v-89.132c0-24.588,12.038-36.882,36.114-36.882
		h120.635c24.244,0,36.37,12.125,36.37,36.369v89.645h-59.934v-75.557h-73.252v72.484l120.124,113.208
		c8.708,8.196,13.062,19.041,13.062,32.528V3916.044z"/>
	<path d="M1590.966,3952.671h-57.629v-197.73c0-10.413,1.193-24.929,3.585-43.542l-51.737,204.645h-30.479l-51.993-204.645
		c2.389,18.954,3.585,33.469,3.585,43.542v197.73h-57.628v-400.838h56.604l63.007,221.55c0.68,2.394,1.193,8.452,1.537,18.185
		c0-4.266,0.512-10.329,1.536-18.185l63.008-221.55h56.604V3952.671z"/>
	<path d="M1841.97,3952.671h-59.421l-12.038-76.069h-75.045l-12.038,76.069h-59.165v-1.024l77.607-400.326h63.006L1841.97,3952.671z
		 M1762.058,3825.12l-29.198-180.825l-29.455,180.825H1762.058z"/>
	<path d="M2080.68,3952.671h-62.495l-66.081-186.204v-36.114h58.91v-127.039h-75.558v349.357h-59.933v-400.838h159.055
		c24.075,0,36.114,12.293,36.114,36.882v145.736c0,16.904-5.723,27.834-17.16,32.784c-6.147,2.562-19.125,3.842-38.932,3.842
		L2080.68,3952.671z"/>
	<path d="M2291.472,3604.85h-66.081v347.821h-59.677V3604.85h-66.081v-53.018h191.838V3604.85z"/>
	<path d="M2560.663,3952.671h-128.064v-400.838h35.601v369.335h92.463V3952.671z"/>
	<path d="M2769.919,3924.242c0,8.367-2.733,15.199-8.196,20.49c-5.467,5.294-12.382,7.94-20.747,7.94h-103.219
		c-8.368,0-15.199-2.646-20.49-7.94c-5.294-5.29-7.94-12.122-7.94-20.49v-343.979c0-8.364,2.646-15.195,7.94-20.49
		c5.29-5.291,12.122-7.94,20.49-7.94h103.219c8.364,0,15.28,2.649,20.747,7.94c5.463,5.294,8.196,12.125,8.196,20.49v93.231h-35.858
		v-90.157h-89.132v337.831h89.132v-98.609h35.858V3924.242z"/>
	<path d="M2997.359,3880.187c0,21.174-6.959,38.547-20.874,52.121c-13.919,13.575-31.463,20.363-52.635,20.363h-91.693v-400.838
		h91.693c21.343,0,38.932,6.787,52.763,20.362c13.83,13.575,20.746,30.951,20.746,52.122V3880.187z M2961.757,3876.602V3627.39
		c0-13.146-4.142-23.776-12.423-31.888c-8.284-8.108-18.998-12.166-32.144-12.166h-49.432v337.831h47.384
		c13.831,0,25.057-3.969,33.681-11.909C2957.443,3901.318,2961.757,3890.432,2961.757,3876.602z"/>
</g>
<g>
	<line class="st0" x1="694.79" y1="346.751" x2="694.79" y2="358.061"/>
	<polyline class="st0" points="694.79,1410 694.79,1500.478 851.529,1410 851.529,256.246 694.79,346.751 	"/>
	<polyline class="st0" points="694.79,1500.478 2222.954,2382.744 2379.694,2292.266 851.529,1410 	"/>
	<polyline class="st0" points="2379.694,2292.266 2379.694,1138.513 851.529,256.246 	"/>
	<polyline class="st0" points="2320.927,1155.504 910.297,341.096 910.297,363.716 2320.927,1178.124 2320.927,1155.504 	"/>
	<polyline class="st0" points="910.297,1393.035 2320.927,2207.416 2320.927,2184.797 910.297,1370.389 910.297,1393.035 	"/>
	<polyline class="st0" points="2320.927,1229.017 910.297,414.609 910.297,1319.495 2320.927,2133.903 2320.927,1229.017 	"/>
	<polyline class="st0" points="2320.927,1229.017 2301.311,1240.327 910.297,437.229 	"/>
	<line class="st0" x1="2301.311" y1="2122.594" x2="2301.311" y2="1240.327"/>
	<polyline class="st0" points="763.378,397.645 763.378,1370.389 694.79,1410 	"/>
	<polyline class="st0" points="763.378,397.645 665.406,341.096 596.844,380.68 596.844,1353.424 665.406,1313.84 665.406,341.096 	
		"/>
	<line class="st0" x1="694.79" y1="1410" x2="596.844" y2="1353.424"/>
	<line class="st0" x1="763.378" y1="1370.389" x2="665.406" y2="1313.84"/>
	<path class="st0" d="M557.677,1590.955c0.005,18.744,13.165,41.54,29.395,50.917c16.229,9.377,29.382,1.784,29.377-16.959
		s-13.165-41.54-29.395-50.917C570.825,1564.618,557.672,1572.211,557.677,1590.955"/>
	<path class="st0" d="M557.677,120.502c0.005,18.744,13.165,41.54,29.395,50.917c16.229,9.377,29.382,1.784,29.377-16.959
		s-13.165-41.54-29.395-50.917C570.825,94.165,557.672,101.758,557.677,120.502"/>
	<path class="st0" d="M2336.26,2600.264c-6.32-15.715-18.44-29.014-30.448-33.41c-12.007-4.396-21.401,1.027-23.599,13.624
		c-2.198,12.597,3.259,29.743,13.707,43.075"/>
	<line class="st0" x1="2085.804" y1="2563.727" x2="2044.975" y2="2540.16"/>
	<line class="st0" x1="1782.417" y1="2388.561" x2="776.257" y2="1807.68"/>
	<polyline class="st0" points="711.294,1770.152 508.666,1653.186 508.666,69.636 	"/>
	<line class="st0" x1="2360.105" y1="1104.583" x2="2360.105" y2="1127.203"/>
	<line class="st0" x1="2360.105" y1="2303.576" x2="2360.105" y2="2586.508"/>
	<polyline class="st0" points="538.05,1636.221 538.05,52.671 2360.105,1104.583 	"/>
	<line class="st0" x1="2115.188" y1="2546.762" x2="2035.938" y2="2501.009"/>
	<polyline class="st0" points="1811.827,2371.597 538.05,1636.221 508.666,1653.186 	"/>
	<line class="st0" x1="508.666" y1="69.636" x2="538.05" y2="52.671"/>
	<path class="st0" d="M508.671,148.781c-16.229-9.377-29.382-1.784-29.377,16.959c0.005,18.744,13.165,41.54,29.395,50.917"/>
	<path class="st0" d="M508.671,1619.234c-16.229-9.377-29.382-1.784-29.377,16.959c0.005,18.744,13.165,41.54,29.395,50.917
		c16.229,9.377,29.382,1.784,29.377-16.959"/>
	<polyline class="st0" points="2252.338,3134.921 430.31,2083.009 430.31,114.875 	"/>
	<line class="st0" x1="2281.722" y1="3004.86" x2="2281.722" y2="3117.957"/>
	<polyline class="st0" points="2252.338,3134.921 2281.722,3117.957 459.693,2066.045 459.693,97.91 508.666,126.184 	"/>
	<line class="st0" x1="430.31" y1="2083.009" x2="459.693" y2="2066.045"/>
	<line class="st0" x1="430.31" y1="114.875" x2="459.693" y2="97.91"/>
	<line class="st0" x1="430.31" y1="669.105" x2="376.44" y2="638.017"/>
	<path class="st0" d="M376.44,638.017"/>
	<polyline class="st0" points="430.31,1200.743 430.31,1195.088 376.44,1226.176 	"/>
	<line class="st0" x1="430.31" y1="1268.601" x2="371.543" y2="1234.672"/>
	<line class="st0" x1="371.543" y1="635.176" x2="371.543" y2="1234.672"/>
	<line class="st0" x1="430.31" y1="601.247" x2="371.543" y2="635.176"/>
	<polyline class="st0" points="557.666,1805.867 557.666,1941.611 636.022,1896.372 636.022,1760.628 557.666,1805.867 	"/>
	<polyline class="st0" points="557.666,1941.611 694.79,2020.779 773.173,1975.54 636.022,1896.372 	"/>
	<line class="st0" x1="773.173" y1="1975.54" x2="773.173" y2="1924.484"/>
	<line class="st0" x1="680.233" y1="1786.17" x2="636.022" y2="1760.628"/>
	<polyline class="st0" points="1978.064,2659.534 1978.064,2886.081 2056.42,2840.842 2056.42,2580.691 2044.623,2587.509 	"/>
	<polyline class="st0" points="1978.064,2886.081 2232.749,3033.134 2311.105,2987.895 2056.42,2840.842 	"/>
	<polyline class="st0" points="2311.105,2987.895 2369.9,2953.966 2369.9,2772.821 	"/>
	<polyline class="st0" points="2272.09,2637.321 2115.188,2546.762 2056.42,2580.691 2056.42,2840.842 2115.188,2806.913 
		2115.188,2546.762 	"/>
	<line class="st0" x1="2056.42" y1="2840.842" x2="2311.105" y2="2987.895"/>
	<line class="st0" x1="2115.188" y1="2806.913" x2="2369.9" y2="2953.966"/>
	<path class="st0" d="M2667.974,2487.824c-24.442-33.767-57.748-48.438-77.525-34.149c-19.777,14.288-19.775,53.02,0.006,90.154
		c19.781,37.134,53.087,60.933,77.526,55.397"/>
	<path class="st0" d="M2491.652,2701.013c5.712-1.294,10.672-4.157,14.649-8.457"/>
	<line class="st0" x1="2491.655" y1="2701.012" x2="2667.957" y2="2599.225"/>
	<path class="st0" d="M2200.993,2678.355c-22.951,13.25-22.948,56.224,0.006,95.987c22.955,39.762,60.169,61.254,83.121,48.004"/>
	<line class="st0" x1="2667.957" y1="2487.833" x2="2667.957" y2="2599.225"/>
	<line class="st0" x1="2499.609" y1="2697.928" x2="2284.103" y2="2822.335"/>
	<line class="st0" x1="2592.82" y1="2452.145" x2="2200.984" y2="2678.366"/>
	<path class="st0" d="M2046.658,2563.73c0.002-74.968-52.627-166.131-117.55-203.617c-64.923-37.486-117.555-7.102-117.558,67.867
		c-0.002,74.968,52.627,166.131,117.55,203.617C1994.024,2669.083,2046.656,2638.698,2046.658,2563.73"/>
	<path class="st0" d="M1659.861,2459.318c-45.909,26.504-45.912,112.451-0.006,191.969c45.906,79.517,120.337,122.494,166.246,95.99
		"/>
	<line class="st0" x1="2012.209" y1="2639.837" x2="1826.086" y2="2747.28"/>
	<line class="st0" x1="1845.946" y1="2351.899" x2="1659.822" y2="2459.342"/>
	<path class="st0" d="M802.551,1879.409c-0.003-37.485-26.319-83.07-58.78-101.817c-32.461-18.747-58.773-3.557-58.77,33.928
		c0.002,37.485,26.319,83.07,58.78,101.817C776.241,1932.084,802.553,1916.894,802.551,1879.409"/>
	<path class="st0" d="M663.034,1796.089c-22.951,13.25-22.948,56.225,0.006,95.987c22.955,39.762,60.169,61.254,83.12,48.004"/>
	<polyline class="st0" points="694.79,1828.514 733.968,1851.133 733.968,1896.372 753.584,1907.682 753.584,1862.443 
		792.762,1885.062 792.762,1862.443 753.584,1839.823 753.584,1794.557 733.968,1783.248 733.968,1828.514 694.79,1805.867 
		694.79,1828.514 	"/>
	<line class="st0" x1="733.968" y1="1828.514" x2="714.379" y2="1839.823"/>
	<line class="st0" x1="753.584" y1="1862.443" x2="733.968" y2="1873.753"/>
	<line class="st0" x1="792.762" y1="1862.443" x2="773.173" y2="1873.753"/>
	<line class="st0" x1="753.584" y1="1839.823" x2="733.968" y2="1851.133"/>
	<line class="st0" x1="753.584" y1="1794.557" x2="733.968" y2="1805.867"/>
	<line class="st0" x1="785.348" y1="1917.449" x2="746.143" y2="1940.068"/>
	<line class="st0" x1="702.203" y1="1773.48" x2="663.025" y2="1796.1"/>
	<polyline class="st0" points="1370.721,2343.16 1370.721,2478.904 1435.36,2441.565 1435.36,2305.822 1370.721,2343.16 	"/>
	<polyline class="st0" points="1370.721,2478.904 1488.256,2546.762 1552.921,2509.424 1435.36,2441.565 	"/>
	<line class="st0" x1="1552.921" y1="2509.424" x2="1552.921" y2="2423.194"/>
	<polyline class="st0" points="1552.921,2392.078 1552.921,2373.707 1536.985,2364.508 	"/>
	<line class="st0" x1="1510.063" y1="2348.95" x2="1435.36" y2="2305.822"/>
	<path class="st0" d="M1555.875,2409.321c0.001-20.614-14.47-45.68-32.322-55.987c-17.852-10.307-32.325-1.952-32.326,18.662
		c-0.001,20.614,14.469,45.68,32.321,55.987C1541.401,2438.29,1555.874,2429.934,1555.875,2409.321"/>
	<path class="st0" d="M1471.313,2368.034c-12.624,7.288-12.626,30.921-0.003,52.785c12.622,21.864,33.089,33.68,45.713,26.393"/>
	<line class="st0" x1="1546.373" y1="2430.256" x2="1516.99" y2="2447.22"/>
	<line class="st0" x1="1500.675" y1="2351.061" x2="1471.291" y2="2368.052"/>
</g>
</svg>
