<?xml version="1.0" encoding="utf-8"?>
<!-- Generator: Adobe Illustrator 22.1.0, SVG Export Plug-In . SVG Version: 6.00 Build 0)  -->
<svg version="1.1" id="Layer_1" xmlns="http://www.w3.org/2000/svg" xmlns:xlink="http://www.w3.org/1999/xlink" x="0px" y="0px"
	 viewBox="0 0 3514.097 4000" style="enable-background:new 0 0 3514.097 4000;" xml:space="preserve">
<style type="text/css">
	.st0{fill:none;stroke:#000000;stroke-width:11.3386;stroke-linecap:round;stroke-linejoin:round;stroke-miterlimit:10;}
</style>
<g>
	<path class="st0" d="M2883.871,2638.734c-14.833,8.619-16.511,33.479-3.751,55.526c12.761,22.047,35.13,32.932,49.963,24.313
		s16.511-33.479,3.751-55.526C2921.072,2641,2898.703,2630.115,2883.871,2638.734"/>
	<path class="st0" d="M2990.898,2683.492c10.432-6.018,14.758-20.449,11.1-37.029"/>
	<path class="st0" d="M2982.412,2612.514c-12.522-11.466-27.18-14.945-37.613-8.926"/>
	<path class="st0" d="M3000.215,2703.358c-6.741,3.917-7.503,15.219-1.701,25.242c5.802,10.023,15.97,14.973,22.711,11.056
		c6.741-3.917,7.503-15.219,1.701-25.242C3017.124,2704.391,3006.956,2699.441,3000.215,2703.358"/>
	<path class="st0" d="M3007.262,2596.18c-6.741,3.917-7.503,15.219-1.701,25.242c5.802,10.023,15.969,14.973,22.711,11.056
		c6.741-3.917,7.503-15.219,1.701-25.242C3024.172,2597.213,3014.004,2592.263,3007.262,2596.18"/>
	<path class="st0" d="M2910.886,2549.492c-6.741,3.917-7.503,15.219-1.701,25.242s15.97,14.973,22.711,11.056
		c6.741-3.917,7.503-15.219,1.701-25.242C2927.796,2550.525,2917.628,2545.575,2910.886,2549.492"/>
	<path class="st0" d="M2979.597,2690.016c15.405-0.617,25.118-14.2,23.937-33.476c-1.18-19.276-12.978-39.725-29.074-50.396
		c-16.096-10.671-32.717-9.062-40.962,3.966"/>
	<path class="st0" d="M2942.52,2601.703c-2.858,1.831-5.296,4.317-7.228,7.369"/>
	<path class="st0" d="M2981.39,2688.978c3.61-0.145,6.982-1.011,9.998-2.569"/>
	<path class="st0" d="M2668.73,2616.747c56.187-32.65,62.547-126.824,14.205-210.343c-48.342-83.519-133.079-124.756-189.266-92.105
		s-62.547,126.824-14.205,210.343C2527.806,2608.16,2612.543,2649.397,2668.73,2616.747"/>
	<path class="st0" d="M2963.892,2446.46c56.289-32.474,62.828-126.561,14.605-210.148
		c-48.223-83.588-132.947-125.023-189.236-92.549"/>
	<path class="st0" d="M2822.63,1689.409c-53.937,31.343-60.041,121.746-13.634,201.921c46.407,80.176,127.751,119.762,181.687,88.42
		c53.937-31.343,60.041-121.746,13.635-201.921C2957.911,1697.653,2876.567,1658.066,2822.63,1689.409"/>
	<path class="st0" d="M3165.912,1878.656c54.034-31.173,60.31-121.493,14.017-201.734
		c-46.293-80.242-127.624-120.019-181.658-88.846"/>
	<path class="st0" d="M1374.899,911.845c3.603-2.079,4.022-8.099,0.937-13.447c-3.085-5.348-8.507-7.998-12.11-5.92"/>
	<path class="st0" d="M1320.498,885.493c3.603-2.079,4.022-8.099,0.937-13.447c-3.085-5.348-8.507-7.998-12.11-5.92"/>
	<path class="st0" d="M1266.105,859.14c3.603-2.078,4.022-8.099,0.937-13.447c-3.085-5.348-8.507-7.998-12.11-5.92"/>
	<path class="st0" d="M1211.713,832.787c3.603-2.078,4.022-8.099,0.937-13.447c-3.085-5.348-8.507-7.998-12.11-5.92"/>
	<path class="st0" d="M1157.312,806.434c3.603-2.078,4.023-8.099,0.937-13.447c-3.085-5.348-8.507-7.998-12.11-5.92"/>
	<path class="st0" d="M1102.92,780.081c3.603-2.079,4.022-8.099,0.937-13.447c-3.085-5.348-8.507-7.998-12.11-5.92"/>
	<path class="st0" d="M1048.518,753.737c3.603-2.078,4.022-8.099,0.937-13.447c-3.085-5.348-8.507-7.998-12.11-5.92"/>
	<path class="st0" d="M994.126,727.384c3.603-2.078,4.022-8.099,0.937-13.447c-3.085-5.348-8.507-7.998-12.11-5.92"/>
	<path class="st0" d="M939.734,701.031c3.603-2.078,4.023-8.099,0.937-13.447c-3.085-5.348-8.507-7.998-12.11-5.92"/>
	<path class="st0" d="M885.333,674.678c3.603-2.079,4.023-8.099,0.937-13.447c-3.085-5.348-8.507-7.998-12.11-5.92"/>
	<path class="st0" d="M830.941,648.325c3.603-2.079,4.022-8.099,0.937-13.447c-3.085-5.348-8.507-7.998-12.11-5.92"/>
	<path class="st0" d="M776.548,621.972c3.603-2.078,4.022-8.099,0.937-13.447c-3.085-5.348-8.507-7.998-12.11-5.92"/>
	<path class="st0" d="M722.147,595.619c3.603-2.078,4.022-8.099,0.937-13.447c-3.085-5.348-8.507-7.998-12.11-5.92"/>
	<path class="st0" d="M667.755,569.267c3.603-2.078,4.022-8.099,0.937-13.447c-3.085-5.348-8.507-7.998-12.11-5.92"/>
	<path class="st0" d="M613.363,542.914c3.603-2.079,4.022-8.099,0.937-13.447c-3.085-5.348-8.507-7.998-12.11-5.92"/>
	<path class="st0" d="M1301.056,928.639c-3.596,2.09-4.005,8.116-0.911,13.459c3.093,5.344,8.516,7.981,12.112,5.891
		c3.596-2.09,4.004-8.116,0.911-13.459C1310.075,929.187,1304.652,926.549,1301.056,928.639"/>
	<path class="st0" d="M1246.655,902.286c-3.596,2.09-4.005,8.116-0.911,13.459c3.093,5.344,8.516,7.982,12.112,5.892
		c3.596-2.09,4.004-8.116,0.911-13.459C1255.674,902.833,1250.251,900.196,1246.655,902.286"/>
	<path class="st0" d="M1192.263,875.933c-3.596,2.09-4.004,8.116-0.911,13.459c3.093,5.344,8.516,7.982,12.112,5.892
		c3.596-2.09,4.005-8.116,0.911-13.459C1201.282,876.481,1195.859,873.843,1192.263,875.933"/>
	<path class="st0" d="M1137.87,849.58c-3.596,2.09-4.004,8.116-0.911,13.459c3.093,5.344,8.516,7.981,12.112,5.892
		c3.596-2.09,4.004-8.116,0.911-13.459C1146.889,850.128,1141.467,847.49,1137.87,849.58"/>
	<path class="st0" d="M1083.469,823.227c-3.596,2.09-4.004,8.116-0.911,13.459c3.093,5.344,8.516,7.981,12.112,5.891
		c3.596-2.09,4.004-8.116,0.911-13.459C1092.488,823.775,1087.066,821.137,1083.469,823.227"/>
	<path class="st0" d="M1029.077,796.874c-3.596,2.09-4.004,8.116-0.911,13.459c3.093,5.344,8.516,7.982,12.112,5.892
		c3.596-2.09,4.004-8.116,0.911-13.459C1038.096,797.422,1032.673,794.784,1029.077,796.874"/>
	<path class="st0" d="M974.685,770.521c-3.596,2.09-4.004,8.116-0.911,13.459c3.093,5.344,8.516,7.982,12.112,5.892
		c3.596-2.09,4.004-8.116,0.911-13.459C983.704,771.069,978.281,768.431,974.685,770.521"/>
	<path class="st0" d="M920.284,744.168c-3.596,2.09-4.004,8.116-0.911,13.459c3.093,5.344,8.516,7.982,12.112,5.892
		c3.596-2.09,4.004-8.116,0.911-13.459C929.303,744.716,923.88,742.078,920.284,744.168"/>
	<path class="st0" d="M865.891,717.815c-3.596,2.09-4.004,8.116-0.911,13.459c3.093,5.344,8.516,7.981,12.112,5.892
		c3.596-2.09,4.004-8.116,0.911-13.459C874.91,718.363,869.488,715.726,865.891,717.815"/>
	<path class="st0" d="M811.49,691.462c-3.596,2.09-4.004,8.116-0.911,13.459c3.093,5.344,8.516,7.981,12.112,5.891
		c3.596-2.09,4.004-8.116,0.911-13.459C820.509,692.01,815.086,689.372,811.49,691.462"/>
	<path class="st0" d="M757.098,665.11c-3.596,2.09-4.004,8.116-0.911,13.459c3.093,5.344,8.516,7.982,12.112,5.892
		c3.596-2.09,4.004-8.116,0.911-13.459C766.117,665.657,760.694,663.02,757.098,665.11"/>
	<path class="st0" d="M702.706,638.757c-3.596,2.09-4.004,8.116-0.911,13.459c3.093,5.344,8.516,7.982,12.112,5.892
		c3.596-2.09,4.004-8.116,0.911-13.459C711.725,639.305,706.302,636.667,702.706,638.757"/>
	<path class="st0" d="M648.305,612.413c-3.596,2.09-4.004,8.116-0.911,13.459c3.093,5.344,8.516,7.981,12.112,5.892
		c3.596-2.09,4.004-8.116,0.911-13.459C657.324,612.961,651.901,610.323,648.305,612.413"/>
	<path class="st0" d="M593.912,586.06c-3.596,2.09-4.004,8.116-0.911,13.459c3.093,5.344,8.516,7.981,12.112,5.891
		c3.596-2.09,4.004-8.116,0.911-13.459C602.931,586.607,597.509,583.97,593.912,586.06"/>
	<path class="st0" d="M539.52,559.707c-3.596,2.09-4.004,8.116-0.911,13.459c3.093,5.344,8.516,7.982,12.112,5.892
		c3.596-2.09,4.004-8.116,0.911-13.459C548.539,560.255,543.116,557.617,539.52,559.707"/>
	<path class="st0" d="M558.962,516.561c3.603-2.078,4.022-8.099,0.937-13.447c-3.085-5.348-8.507-7.998-12.11-5.92"/>
	<path class="st0" d="M485.119,533.354c-3.596,2.09-4.004,8.116-0.911,13.459c3.093,5.344,8.516,7.982,12.112,5.892
		c3.596-2.09,4.004-8.116,0.911-13.459C494.138,533.902,488.715,531.264,485.119,533.354"/>
	<path class="st0" d="M3274.353,2878.656c13.485-7.836,15.011-30.438,3.409-50.482s-31.939-29.941-45.423-22.105
		c-13.485,7.836-15.011,30.437-3.409,50.482S3260.868,2886.492,3274.353,2878.656"/>
	<path class="st0" d="M165.765,1310.091c-12.328-8.06-25.115-7.794-32.705,0.681c-7.59,8.475-8.584,23.594-2.543,38.673
		c6.042,15.079,18.005,27.335,30.599,31.349"/>
	<path class="st0" d="M257.331,200.556c13.485-7.836,15.011-30.437,3.409-50.482c-11.602-20.044-31.939-29.942-45.423-22.105
		c-13.485,7.836-15.011,30.437-3.409,50.482C223.509,198.495,243.846,208.393,257.331,200.556"/>
	<path class="st0" d="M3351.876,1699.725c13.485-7.836,15.011-30.438,3.409-50.482c-11.602-20.044-31.938-29.941-45.423-22.105
		c-13.485,7.836-15.011,30.437-3.409,50.482C3318.054,1697.665,3338.391,1707.561,3351.876,1699.725"/>
	<path class="st0" d="M424.191,463.926c13.485-7.836,15.011-30.437,3.409-50.482c-11.602-20.044-31.939-29.942-45.423-22.105
		c-13.485,7.836-15.011,30.437-3.409,50.482C390.37,461.865,410.706,471.762,424.191,463.926"/>
	<path class="st0" d="M2415.837,1428.794c13.485-7.836,15.011-30.437,3.409-50.482c-11.602-20.044-31.938-29.941-45.423-22.105
		c-13.485,7.836-15.011,30.437-3.409,50.482C2382.016,1426.733,2402.353,1436.63,2415.837,1428.794"/>
	<path class="st0" d="M2329.704,2738.717c13.485-7.836,15.011-30.437,3.409-50.482c-11.602-20.044-31.938-29.941-45.423-22.105
		c-13.485,7.836-15.011,30.437-3.409,50.482C2295.883,2736.656,2316.219,2746.553,2329.704,2738.717"/>
	<path class="st0" d="M338.058,1773.849c13.485-7.836,15.011-30.438,3.409-50.482c-11.602-20.044-31.939-29.941-45.423-22.105
		c-13.485,7.836-15.011,30.437-3.409,50.482C304.237,1771.788,324.573,1781.685,338.058,1773.849"/>
	<polyline class="st0" points="3338.365,2918.834 3424.498,1608.911 212.167,52.687 	"/>
	<line class="st0" x1="2906.306" y1="2537.556" x2="2906.156" y2="2539.926"/>
	<polyline class="st0" points="3307.929,2936.391 3394.07,1626.468 181.732,70.243 95.599,1380.167 159.133,1410.94 	"/>
	<line class="st0" x1="2404.039" y1="2498.501" x2="2488.787" y2="2539.553"/>
	<line class="st0" x1="2658.461" y1="2621.754" x2="3307.929" y2="2936.391"/>
	<polyline class="st0" points="3226.056,2098.024 3230.334,2100.101 3210.763,2397.812 	"/>
	<polyline class="st0" points="3097.398,2710.292 3107.109,2562.631 2974.332,2498.306 	"/>
	<polyline class="st0" points="1508.28,866.485 1510.623,830.759 645.442,411.615 	"/>
	<polyline class="st0" points="3004.697,2392.06 3025.671,2388.891 3034.707,2251.384 2932.154,2130.759 2871.353,2139.954 	"/>
	<polyline class="st0" points="2821.07,2133.386 2828.1,2026.395 3106.505,2161.266 3086.143,2470.888 2989.013,2423.827 	"/>
	<line class="st0" x1="3059.684" y1="2369.267" x2="3068.72" y2="2231.759"/>
	<polyline class="st0" points="3068.72,2231.759 2966.166,2111.134 2854.568,2128.016 	"/>
	<polyline class="st0" points="3116.97,2447.375 3121.248,2449.452 3210.763,2397.812 	"/>
	<line class="st0" x1="3116.97" y1="2447.375" x2="3136.55" y2="2149.665"/>
	<polyline class="st0" points="261.491,1729.154 258.696,1771.679 296.942,1790.213 	"/>
	<line class="st0" x1="327.529" y1="1805.026" x2="2288.589" y2="2755.072"/>
	<line class="st0" x1="2362.455" y1="2711.872" x2="2446.351" y2="1435.962"/>
	<polyline class="st0" points="2382.559,1326.068 1404.173,852.079 1400.569,906.862 	"/>
	<path class="st0" d="M1393.125,920.696c4.347-2.508,7.026-7.489,7.443-13.839"/>
	<polyline class="st0" points="1361.337,831.336 1349.772,825.726 1346.168,880.509 	"/>
	<path class="st0" d="M1338.733,894.343c4.346-2.508,7.026-7.489,7.443-13.839"/>
	<polyline class="st0" points="1306.945,804.983 1295.379,799.382 1291.776,854.156 	"/>
	<path class="st0" d="M1284.332,867.99c4.346-2.508,7.026-7.489,7.443-13.839"/>
	<polyline class="st0" points="1252.544,778.63 1240.978,773.029 1237.383,827.803 	"/>
	<path class="st0" d="M1229.94,841.637c4.346-2.508,7.026-7.489,7.443-13.839"/>
	<polyline class="st0" points="1198.151,752.277 1186.586,746.676 1182.982,801.45 	"/>
	<path class="st0" d="M1175.539,815.284c4.346-2.508,7.026-7.489,7.443-13.839"/>
	<polyline class="st0" points="1143.759,725.924 1132.194,720.323 1128.59,775.097 	"/>
	<path class="st0" d="M1121.146,788.931c4.346-2.508,7.026-7.489,7.443-13.839"/>
	<polyline class="st0" points="1089.358,699.571 1077.793,693.97 1074.189,748.745 	"/>
	<path class="st0" d="M1066.754,762.587c4.347-2.508,7.026-7.489,7.443-13.839"/>
	<polyline class="st0" points="1034.966,673.218 1023.4,667.618 1019.797,722.401 	"/>
	<path class="st0" d="M1012.353,736.234c4.346-2.508,7.026-7.489,7.443-13.839"/>
	<polyline class="st0" points="980.565,646.866 969.008,641.265 965.404,696.047 	"/>
	<path class="st0" d="M957.961,709.881c4.346-2.508,7.026-7.489,7.443-13.839"/>
	<polyline class="st0" points="926.172,620.512 914.607,614.912 911.003,669.695 	"/>
	<path class="st0" d="M903.568,683.528c4.346-2.508,7.026-7.489,7.443-13.839"/>
	<polyline class="st0" points="871.78,594.16 860.215,588.559 856.611,643.342 	"/>
	<path class="st0" d="M849.167,657.176c4.346-2.508,7.026-7.489,7.443-13.839"/>
	<polyline class="st0" points="817.379,567.816 805.814,562.206 802.219,616.989 	"/>
	<path class="st0" d="M794.775,630.823c4.346-2.508,7.026-7.489,7.443-13.839"/>
	<polyline class="st0" points="762.987,541.463 751.421,535.853 747.818,590.636 	"/>
	<path class="st0" d="M740.383,604.47c4.346-2.508,7.026-7.489,7.443-13.839"/>
	<polyline class="st0" points="708.594,515.11 697.029,509.5 693.425,564.283 	"/>
	<path class="st0" d="M685.982,578.117c4.347-2.508,7.026-7.489,7.443-13.839"/>
	<polyline class="st0" points="654.193,488.757 642.628,483.156 639.033,537.93 	"/>
	<path class="st0" d="M631.589,551.764c4.347-2.508,7.026-7.489,7.443-13.839"/>
	<polyline class="st0" points="599.801,462.404 588.236,456.803 584.632,511.577 	"/>
	<path class="st0" d="M577.188,525.411c4.347-2.508,7.026-7.489,7.443-13.839"/>
	<line class="st0" x1="545.409" y1="436.051" x2="421.499" y2="376.022"/>
	<line class="st0" x1="347.633" y1="419.231" x2="334.514" y2="618.649"/>
	<line class="st0" x1="265.539" y1="1667.617" x2="263.728" y2="1695.132"/>
	<polyline class="st0" points="974.316,901.882 437.947,642.037 438.728,630.125 371.27,597.444 	"/>
	<polyline class="st0" points="1719.582,1262.923 1040.788,934.085 1041.578,922.182 985.89,895.199 	"/>
	<polyline class="st0" points="2322.424,1554.98 1786.055,1295.135 1786.836,1283.223 1731.157,1256.249 	"/>
	<polyline class="st0" points="2425.279,1622.012 2399.583,1609.559 2401.465,1580.978 2334.007,1548.305 	"/>
	<line class="st0" x1="2339.288" y1="2526.505" x2="2339.297" y2="2526.283"/>
	<polyline class="st0" points="2448.597,1401.949 2451.392,1359.415 2413.146,1340.882 	"/>
	<polyline class="st0" points="390.913,361.208 352.666,342.675 349.87,385.209 	"/>
	<line class="st0" x1="1360.441" y1="831.851" x2="1356.837" y2="886.625"/>
	<path class="st0" d="M1356.847,886.62c-0.193,2.945,0.106,6.102,0.883,9.311"/>
	<path class="st0" d="M1368.905,915.302c6.403,6.107,13.927,8.813,20.088,7.225c1.156-0.298,2.237-0.74,3.232-1.314"/>
	<line class="st0" x1="1306.048" y1="805.498" x2="1302.445" y2="860.271"/>
	<path class="st0" d="M1302.454,860.268c-0.193,2.945,0.106,6.102,0.883,9.311"/>
	<path class="st0" d="M1314.512,888.949c6.403,6.107,13.927,8.813,20.088,7.225c1.321-0.341,2.543-0.869,3.652-1.567"/>
	<line class="st0" x1="1251.647" y1="779.145" x2="1248.052" y2="833.928"/>
	<path class="st0" d="M1248.053,833.915c-0.193,2.945,0.106,6.102,0.883,9.311"/>
	<path class="st0" d="M1260.111,862.596c6.403,6.107,13.927,8.813,20.088,7.225c1.318-0.34,2.537-0.867,3.645-1.562"/>
	<line class="st0" x1="1197.255" y1="752.792" x2="1193.651" y2="807.575"/>
	<path class="st0" d="M1193.661,807.571c-0.193,2.945,0.106,6.102,0.883,9.311"/>
	<path class="st0" d="M1205.719,836.252c6.404,6.107,13.927,8.813,20.088,7.225c1.324-0.341,2.549-0.872,3.66-1.572"/>
	<line class="st0" x1="1142.863" y1="726.439" x2="1139.259" y2="781.222"/>
	<path class="st0" d="M1139.269,781.218c-0.193,2.945,0.106,6.102,0.883,9.311"/>
	<path class="st0" d="M1151.327,809.899c6.404,6.107,13.927,8.813,20.088,7.225c1.504-0.388,2.879-1.019,4.106-1.866"/>
	<line class="st0" x1="1088.461" y1="700.086" x2="1084.867" y2="754.869"/>
	<path class="st0" d="M1084.868,754.865c-0.193,2.945,0.106,6.102,0.883,9.311"/>
	<path class="st0" d="M1096.926,783.546c6.404,6.107,13.927,8.813,20.088,7.225c1.156-0.298,2.237-0.74,3.232-1.314"/>
	<line class="st0" x1="1034.069" y1="673.733" x2="1030.466" y2="728.516"/>
	<path class="st0" d="M1030.475,728.512c-0.193,2.945,0.106,6.102,0.883,9.311"/>
	<path class="st0" d="M1042.533,757.193c6.403,6.107,13.927,8.813,20.088,7.225c1.157-0.298,2.237-0.74,3.232-1.314"/>
	<line class="st0" x1="979.677" y1="647.38" x2="976.073" y2="702.163"/>
	<path class="st0" d="M976.083,702.159c-0.193,2.945,0.106,6.102,0.883,9.311"/>
	<path class="st0" d="M988.141,730.84c6.404,6.107,13.927,8.813,20.088,7.225c1.154-0.297,2.232-0.738,3.226-1.31"/>
	<line class="st0" x1="925.276" y1="621.036" x2="921.672" y2="675.81"/>
	<path class="st0" d="M921.682,675.806c-0.193,2.945,0.106,6.102,0.883,9.311"/>
	<path class="st0" d="M933.74,704.488c6.404,6.107,13.927,8.813,20.088,7.225c1.505-0.388,2.88-1.019,4.108-1.868"/>
	<line class="st0" x1="870.884" y1="594.683" x2="867.28" y2="649.457"/>
	<path class="st0" d="M867.29,649.453c-0.193,2.945,0.106,6.102,0.883,9.311"/>
	<path class="st0" d="M879.348,678.134c6.403,6.107,13.927,8.813,20.088,7.225c0.944-0.243,1.836-0.582,2.674-1.01"/>
	<line class="st0" x1="816.491" y1="568.33" x2="812.888" y2="623.104"/>
	<path class="st0" d="M812.889,623.1c-0.193,2.945,0.106,6.102,0.883,9.311"/>
	<path class="st0" d="M824.946,651.782c6.403,6.107,13.927,8.813,20.088,7.225c1.505-0.388,2.88-1.019,4.108-1.867"/>
	<line class="st0" x1="762.09" y1="541.977" x2="758.487" y2="596.751"/>
	<path class="st0" d="M758.496,596.747c-0.193,2.945,0.106,6.102,0.883,9.311"/>
	<path class="st0" d="M770.554,625.429c6.404,6.107,13.927,8.813,20.088,7.225c1.505-0.388,2.88-1.019,4.108-1.868"/>
	<line class="st0" x1="707.698" y1="515.625" x2="704.094" y2="570.399"/>
	<path class="st0" d="M704.104,570.394c-0.193,2.945,0.106,6.102,0.883,9.311"/>
	<path class="st0" d="M716.162,599.076c6.403,6.107,13.927,8.813,20.088,7.225c1.156-0.298,2.237-0.74,3.232-1.314"/>
	<line class="st0" x1="653.297" y1="489.272" x2="649.702" y2="544.045"/>
	<path class="st0" d="M649.703,544.042c-0.193,2.945,0.106,6.102,0.883,9.311"/>
	<path class="st0" d="M661.761,572.723c6.404,6.107,13.927,8.813,20.088,7.225c1.156-0.298,2.237-0.74,3.232-1.314"/>
	<line class="st0" x1="598.905" y1="462.919" x2="595.301" y2="517.702"/>
	<path class="st0" d="M595.311,517.689c-0.193,2.945,0.106,6.102,0.883,9.311"/>
	<path class="st0" d="M607.369,546.37c6.403,6.107,13.927,8.813,20.088,7.225c1.155-0.298,2.234-0.739,3.228-1.312"/>
	<polyline class="st0" points="2319.175,2769.895 2357.422,2788.419 2360.218,2745.885 	"/>
	<line class="st0" x1="544.512" y1="436.566" x2="540.909" y2="491.349"/>
	<path class="st0" d="M540.918,491.336c-0.193,2.945,0.106,6.102,0.883,9.311"/>
	<path class="st0" d="M552.976,520.017c6.404,6.107,13.927,8.813,20.088,7.225c1.155-0.298,2.234-0.739,3.229-1.312"/>
	<line class="st0" x1="1742.083" y1="1309.043" x2="1786.836" y2="1283.223"/>
	<polyline class="st0" points="1731.157,1256.249 1686.404,1282.069 996.826,947.993 1041.578,922.182 	"/>
	<polyline class="st0" points="985.89,895.199 941.137,921.019 393.975,655.946 438.728,630.125 	"/>
	<line class="st0" x1="237.011" y1="674.905" x2="371.27" y2="597.444"/>
	<line class="st0" x1="2267.206" y1="1658.439" x2="2401.465" y2="1580.978"/>
	<polyline class="st0" points="2334.007,1548.305 2289.254,1574.117 1742.083,1309.043 	"/>
	<line class="st0" x1="3338.365" y1="2918.834" x2="3307.929" y2="2936.391"/>
	<line class="st0" x1="3424.498" y1="1608.911" x2="3394.07" y2="1626.468"/>
	<line class="st0" x1="212.167" y1="52.687" x2="181.732" y2="70.243"/>
	<line class="st0" x1="1470.592" y1="853.863" x2="1510.623" y2="830.759"/>
	<line class="st0" x1="605.402" y1="434.72" x2="645.442" y2="411.615"/>
	<line class="st0" x1="1502.972" y1="869.547" x2="1508.28" y2="866.485"/>
	<polyline class="st0" points="2386.065,2771.901 2480.035,1342.888 381.309,326.148 	"/>
	<line class="st0" x1="381.309" y1="326.148" x2="352.666" y2="342.675"/>
	<line class="st0" x1="2480.035" y1="1342.888" x2="2451.392" y2="1359.415"/>
	<line class="st0" x1="2386.065" y1="2771.901" x2="2357.422" y2="2788.419"/>
	<line class="st0" x1="209.425" y1="691.033" x2="235.245" y2="676.139"/>
	<path class="st0" d="M209.437,691.027c-4.942,2.851-4.155,7.483,1.757,10.346"/>
	<polyline class="st0" points="211.182,701.382 226.174,708.642 227.274,691.973 	"/>
	<path class="st0" d="M237.008,674.897c-4.943,2.851-9.3,10.493-9.733,17.068"/>
	<path class="st0" d="M2267.203,1658.44c-4.943,2.851-9.301,10.493-9.733,17.068"/>
	<polyline class="st0" points="2257.469,1675.516 2256.369,1692.186 2399.583,1609.559 	"/>
	<line class="st0" x1="2256.369" y1="1692.186" x2="2271.36" y2="1699.446"/>
	<path class="st0" d="M2271.372,1699.437c5.913,2.864,14.712,2.874,19.654,0.024"/>
	<line class="st0" x1="2291.021" y1="1699.473" x2="2425.279" y2="1622.012"/>
	<line class="st0" x1="2232.607" y1="2587.838" x2="2366.866" y2="2510.377"/>
	<path class="st0" d="M2212.95,2587.803c5.913,2.864,14.712,2.874,19.654,0.024"/>
	<polyline class="st0" points="2212.947,2587.812 2197.955,2580.551 2196.855,2597.22 	"/>
	<path class="st0" d="M2196.865,2597.212c-0.432,6.576,3.225,9.595,8.168,6.744"/>
	<line class="st0" x1="2205.021" y1="2603.966" x2="2339.288" y2="2526.505"/>
	<path class="st0" d="M166.671,1613.679c-0.242,3.686,0.813,6.424,2.857,7.414"/>
	<polyline class="st0" points="166.66,1613.686 167.761,1597.017 152.769,1589.747 	"/>
	<path class="st0" d="M147.775,1583.669c-0.147,2.237,1.696,4.48,4.996,6.078"/>
	<line class="st0" x1="2212.947" y1="2587.812" x2="2271.36" y2="1699.446"/>
	<line class="st0" x1="2257.469" y1="1675.516" x2="227.274" y2="691.973"/>
	<line class="st0" x1="301.185" y1="760.958" x2="2179.325" y2="1670.839"/>
	<path class="st0" d="M2177.764,1694.644c5.913,2.864,11.058-0.145,11.491-6.721c0.433-6.576-4.01-14.229-9.923-17.093"/>
	<line class="st0" x1="2177.763" y1="1694.653" x2="299.614" y2="784.772"/>
	<path class="st0" d="M301.192,760.958c-5.913-2.864-11.058,0.145-11.491,6.721c-0.433,6.576,4.01,14.229,9.923,17.092"/>
	<line class="st0" x1="246.367" y1="1594.549" x2="2124.515" y2="2504.422"/>
	<path class="st0" d="M2122.946,2528.236c5.913,2.864,11.058-0.145,11.491-6.721c0.433-6.576-4.01-14.229-9.923-17.093"/>
	<line class="st0" x1="2122.944" y1="2528.236" x2="244.805" y2="1618.364"/>
	<path class="st0" d="M246.374,1594.541c-5.913-2.864-11.058,0.145-11.491,6.721c-0.433,6.576,4.01,14.228,9.923,17.093"/>
	<line class="st0" x1="400.481" y1="1569.679" x2="1983.085" y2="2336.381"/>
	<path class="st0" d="M380.635,1535.476c-0.864,13.152,8.023,28.46,19.849,34.19"/>
	<line class="st0" x1="418.064" y1="966.26" x2="380.625" y2="1535.479"/>
	<path class="st0" d="M441.042,952.817c-11.826-5.731-22.113,0.286-22.976,13.439"/>
	<line class="st0" x1="2023.648" y1="1719.524" x2="441.044" y2="952.822"/>
	<path class="st0" d="M2043.503,1753.709c0.864-13.152-8.023-28.46-19.849-34.19"/>
	<line class="st0" x1="2006.073" y1="2322.934" x2="2043.504" y2="1753.714"/>
	<path class="st0" d="M1983.096,2336.368c11.826,5.73,22.113-0.287,22.976-13.439"/>
	<line class="st0" x1="3086.143" y1="2470.888" x2="3204.292" y2="2402.72"/>
	<polyline class="st0" points="2990.691,1979.76 3224.654,2093.107 3106.505,2161.266 	"/>
	<line class="st0" x1="2906.067" y1="1981.411" x2="2828.1" y2="2026.395"/>
	<line class="st0" x1="3025.671" y1="2388.891" x2="3059.684" y2="2369.267"/>
	<line class="st0" x1="3034.707" y1="2251.384" x2="3068.72" y2="2231.759"/>
	<line class="st0" x1="2932.154" y1="2130.759" x2="2966.166" y2="2111.134"/>
	<line class="st0" x1="2844.947" y1="2133.564" x2="2854.568" y2="2128.016"/>
	<line class="st0" x1="2906.306" y1="2537.556" x2="2974.332" y2="2498.306"/>
	<line class="st0" x1="3029.373" y1="2749.542" x2="3097.398" y2="2710.292"/>
	<line class="st0" x1="3039.083" y1="2601.88" x2="3107.109" y2="2562.631"/>
	<polyline class="st0" points="2945.601,2709.626 3026.594,2748.867 3036.145,2603.584 2905.508,2540.298 2899.632,2629.645 	"/>
	<line class="st0" x1="3036.145" y1="2603.584" x2="3037.938" y2="2602.546"/>
	<line class="st0" x1="3026.594" y1="2748.867" x2="3028.378" y2="2747.829"/>
	<line class="st0" x1="2905.508" y1="2540.298" x2="2907.3" y2="2539.26"/>
	<line class="st0" x1="2883.921" y1="2638.707" x2="2944.793" y2="2603.594"/>
	<line class="st0" x1="2930.023" y1="2718.618" x2="2990.895" y2="2683.504"/>
	<line class="st0" x1="2493.882" y1="2314.182" x2="2789.249" y2="2143.771"/>
	<line class="st0" x1="2668.509" y1="2616.872" x2="2963.885" y2="2446.461"/>
	<line class="st0" x1="2822.836" y1="1689.292" x2="2998.271" y2="1588.088"/>
	<line class="st0" x1="2990.478" y1="1979.875" x2="3165.912" y2="1878.662"/>
	<line class="st0" x1="1301.06" y1="928.626" x2="1363.716" y2="892.483"/>
	<line class="st0" x1="1312.235" y1="948.002" x2="1374.891" y2="911.85"/>
	<line class="st0" x1="1246.668" y1="902.273" x2="1309.323" y2="866.13"/>
	<line class="st0" x1="1257.843" y1="921.649" x2="1320.499" y2="885.497"/>
	<line class="st0" x1="1192.267" y1="875.92" x2="1254.922" y2="839.777"/>
	<line class="st0" x1="1203.45" y1="895.297" x2="1266.106" y2="859.144"/>
	<line class="st0" x1="1137.874" y1="849.567" x2="1200.53" y2="813.424"/>
	<line class="st0" x1="1149.049" y1="868.943" x2="1211.705" y2="832.8"/>
	<line class="st0" x1="1083.482" y1="823.223" x2="1146.138" y2="787.071"/>
	<line class="st0" x1="1094.657" y1="842.591" x2="1157.313" y2="806.448"/>
	<line class="st0" x1="1029.081" y1="796.87" x2="1091.737" y2="760.718"/>
	<line class="st0" x1="1040.265" y1="816.238" x2="1102.912" y2="780.094"/>
	<line class="st0" x1="974.689" y1="770.517" x2="1037.345" y2="734.365"/>
	<line class="st0" x1="985.864" y1="789.885" x2="1048.52" y2="753.742"/>
	<line class="st0" x1="920.296" y1="744.164" x2="982.952" y2="708.012"/>
	<line class="st0" x1="931.471" y1="763.532" x2="994.127" y2="727.389"/>
	<line class="st0" x1="865.895" y1="717.812" x2="928.551" y2="681.659"/>
	<line class="st0" x1="877.07" y1="737.179" x2="939.726" y2="701.036"/>
	<line class="st0" x1="811.503" y1="691.458" x2="874.159" y2="655.315"/>
	<line class="st0" x1="822.678" y1="710.835" x2="885.334" y2="674.683"/>
	<line class="st0" x1="757.111" y1="665.106" x2="819.758" y2="628.963"/>
	<line class="st0" x1="768.286" y1="684.482" x2="830.942" y2="648.33"/>
	<line class="st0" x1="702.71" y1="638.753" x2="765.365" y2="602.609"/>
	<line class="st0" x1="713.885" y1="658.129" x2="776.54" y2="621.977"/>
	<line class="st0" x1="648.317" y1="612.4" x2="710.973" y2="576.257"/>
	<line class="st0" x1="659.492" y1="631.776" x2="722.148" y2="595.624"/>
	<line class="st0" x1="593.916" y1="586.047" x2="656.572" y2="549.904"/>
	<line class="st0" x1="605.1" y1="605.423" x2="667.747" y2="569.271"/>
	<line class="st0" x1="539.524" y1="559.694" x2="602.18" y2="523.551"/>
	<line class="st0" x1="550.699" y1="579.07" x2="613.355" y2="542.918"/>
	<line class="st0" x1="547.788" y1="497.198" x2="485.132" y2="533.341"/>
	<line class="st0" x1="496.307" y1="552.717" x2="558.962" y2="516.574"/>
	<line class="st0" x1="147.772" y1="1583.667" x2="206.185" y2="695.302"/>
	<line class="st0" x1="2199.713" y1="2604.641" x2="169.518" y2="1621.098"/>
	<line class="st0" x1="576.297" y1="525.938" x2="577.185" y2="525.415"/>
	<line class="st0" x1="630.69" y1="552.292" x2="631.586" y2="551.768"/>
	<line class="st0" x1="685.082" y1="578.636" x2="685.978" y2="578.121"/>
	<line class="st0" x1="739.483" y1="604.988" x2="740.371" y2="604.474"/>
	<line class="st0" x1="793.875" y1="631.341" x2="794.772" y2="630.826"/>
	<line class="st0" x1="848.268" y1="657.694" x2="849.164" y2="657.179"/>
	<line class="st0" x1="902.669" y1="684.047" x2="903.565" y2="683.532"/>
	<line class="st0" x1="957.061" y1="710.4" x2="957.957" y2="709.885"/>
	<line class="st0" x1="1011.453" y1="736.753" x2="1012.35" y2="736.238"/>
	<line class="st0" x1="1065.854" y1="763.106" x2="1066.751" y2="762.591"/>
	<line class="st0" x1="1120.247" y1="789.459" x2="1121.143" y2="788.944"/>
	<line class="st0" x1="1174.648" y1="815.812" x2="1175.535" y2="815.297"/>
	<line class="st0" x1="1229.04" y1="842.164" x2="1229.937" y2="841.641"/>
	<line class="st0" x1="1283.432" y1="868.518" x2="1284.329" y2="867.994"/>
	<line class="st0" x1="1337.833" y1="894.862" x2="1338.721" y2="894.347"/>
	<line class="st0" x1="1392.226" y1="921.214" x2="1393.122" y2="920.7"/>
	<line class="st0" x1="2362.455" y1="2711.872" x2="2360.218" y2="2745.885"/>
	<line class="st0" x1="2319.175" y1="2769.895" x2="2288.589" y2="2755.072"/>
	<line class="st0" x1="296.946" y1="1790.203" x2="327.53" y2="1805.018"/>
	<line class="st0" x1="263.736" y1="1695.129" x2="261.498" y2="1729.142"/>
	<line class="st0" x1="2382.559" y1="1326.068" x2="2413.146" y2="1340.882"/>
	<line class="st0" x1="2448.597" y1="1401.949" x2="2446.351" y2="1435.962"/>
	<line class="st0" x1="545.409" y1="436.051" x2="588.236" y2="456.803"/>
	<line class="st0" x1="599.801" y1="462.404" x2="642.628" y2="483.156"/>
	<line class="st0" x1="697.029" y1="509.5" x2="654.193" y2="488.757"/>
	<line class="st0" x1="751.421" y1="535.853" x2="708.594" y2="515.11"/>
	<line class="st0" x1="805.814" y1="562.206" x2="762.987" y2="541.463"/>
	<line class="st0" x1="860.215" y1="588.559" x2="817.379" y2="567.816"/>
	<line class="st0" x1="914.607" y1="614.912" x2="871.78" y2="594.16"/>
	<line class="st0" x1="969.008" y1="641.265" x2="926.172" y2="620.512"/>
	<line class="st0" x1="1023.4" y1="667.618" x2="980.565" y2="646.866"/>
	<line class="st0" x1="1077.793" y1="693.97" x2="1034.966" y2="673.218"/>
	<line class="st0" x1="1132.194" y1="720.323" x2="1089.358" y2="699.571"/>
	<line class="st0" x1="1186.586" y1="746.676" x2="1143.759" y2="725.924"/>
	<line class="st0" x1="1240.978" y1="773.029" x2="1198.151" y2="752.277"/>
	<line class="st0" x1="1295.379" y1="799.382" x2="1252.544" y2="778.63"/>
	<line class="st0" x1="1349.772" y1="825.726" x2="1306.945" y2="804.983"/>
	<line class="st0" x1="1404.173" y1="852.079" x2="1361.337" y2="831.336"/>
	<line class="st0" x1="347.633" y1="419.231" x2="349.87" y2="385.209"/>
	<line class="st0" x1="390.913" y1="361.208" x2="421.499" y2="376.022"/>
</g>
<g>
	<path d="M527.567,3903.789H369.056v-18.888l122.265-253.976v-95.208h-81.425v89.849h-35.736v-92.912
		c0-8.335,2.637-15.144,7.913-20.421c5.273-5.272,12.081-7.913,20.42-7.913h96.23c8.336,0,15.144,2.64,20.42,7.913
		c5.273,5.277,7.913,12.085,7.913,20.421v84.743c0,10.209-3.151,21.868-9.444,34.969l-105.674,220.027h115.629V3903.789z"/>
	<path d="M746.062,3875.456c0,8.34-2.724,15.148-8.168,20.421c-5.448,5.276-12.34,7.912-20.675,7.912h-105.93
		c-8.339,0-15.147-2.636-20.42-7.912c-5.277-5.273-7.913-12.081-7.913-20.421v-342.802c0-8.335,2.636-15.144,7.913-20.421
		c5.273-5.272,12.081-7.913,20.42-7.913h105.93c8.336,0,15.227,2.64,20.675,7.913c5.444,5.277,8.168,12.085,8.168,20.421V3875.456z
		 M710.582,3872.394v-336.677h-92.146v336.677H710.582z"/>
	<path d="M940.564,3903.789h-34.459l-41.861-98.272l-42.372,98.272h-33.438v-1.021l57.942-126.604l-54.369-120.734h34.459
		l38.288,91.125l39.309-91.125h32.927v1.021l-54.369,118.692L940.564,3903.789z"/>
	<path d="M1138.639,3799.646h-30.375v104.143h-33.438v-104.143H962.005v-18.123l96.74-277.203h33.438v1.532l-91.891,263.675h74.534
		v-144.983h33.438v144.983h30.375V3799.646z"/>
	<path d="M1434.475,3903.789h-156.98v-399.468h59.729v346.121h97.251V3903.789z"/>
	<path d="M1666.498,3867.289c0,24.336-12.168,36.5-36.501,36.5h-124.563c-23.654,0-35.48-12.164-35.48-36.5v-326.211
		c0-24.504,11.825-36.756,35.48-36.756h124.563c24.333,0,36.501,12.252,36.501,36.756v93.422h-59.473v-78.873h-77.341v296.858
		h77.341v-83.978h59.473V3867.289z"/>
	<path d="M1912.561,3828.49c0,23.483-6.979,41.905-20.93,55.262c-13.956,13.361-32.76,20.037-56.411,20.037h-121.754v-399.468
		h121.754c23.651,0,42.455,6.764,56.411,20.292c13.951,13.529,20.93,32.034,20.93,55.518V3828.49z M1852.577,3818.536v-229.471
		c0-22.29-11.657-33.438-34.97-33.438h-44.414v296.858h42.882C1840.409,3852.484,1852.577,3841.169,1852.577,3818.536z"/>
	<path d="M2266.595,3903.789h-33.438v-252.954c0-3.574,1.189-14.039,3.573-31.397l-65.344,246.829h-7.147l-65.344-246.829
		c2.382,17.529,3.574,27.995,3.574,31.397v252.954h-33.438v-399.468h32.927l64.834,259.846c0.339,1.364,0.678,5.193,1.021,11.486
		c0-2.553,0.339-6.382,1.021-11.486l64.834-259.846h32.927V3903.789z"/>
	<path d="M2469.009,3874.947c0,19.231-9.615,28.843-28.843,28.843h-85.254c-19.06,0-28.588-9.612-28.588-28.843v-190.674
		c0-19.227,9.528-28.843,28.588-28.843h85.254c19.228,0,28.843,9.616,28.843,28.843V3874.947z M2435.061,3873.925v-188.631h-74.79
		v188.631H2435.061z"/>
	<path d="M2665.552,3903.789h-33.694v-6.892c-36.417,5.616-56.582,8.424-60.494,8.424c-14.465,0-26.124-4.889-34.97-14.677
		c-8.85-9.783-13.273-21.992-13.273-36.629v-145.238c0-15.315,5.017-28.033,15.06-38.16c10.039-10.122,22.63-15.187,37.777-15.187
		h55.9v-151.109h33.694V3903.789z M2631.859,3872.904v-187.61h-46.966c-18.722,0-28.077,9.616-28.077,28.844v132.73
		c0,19.06,9.356,28.588,28.077,28.588C2589.316,3875.456,2604.97,3874.607,2631.859,3872.904z"/>
	<path d="M2863.627,3903.789h-33.437v-6.892c-13.617,1.875-27.145,3.661-40.585,5.361c-16.336,2.042-29.865,3.063-40.585,3.063
		c-18.379,0-27.567-9.189-27.567-27.567V3655.43h33.438v217.985l75.299-2.042V3655.43h33.437V3903.789z"/>
	<path d="M2954.496,3903.789h-33.438v-399.468h33.438V3903.789z"/>
	<path d="M3151.04,3874.947c0,19.231-9.531,28.843-28.588,28.843h-81.68c-19.06,0-28.588-9.612-28.588-28.843v-190.674
		c0-19.227,9.528-28.843,28.588-28.843h81.68c19.057,0,28.588,9.616,28.588,28.843v89.338l-11.486,11.997h-94.442v89.848h73.001
		v-45.434h32.927V3874.947z M3118.113,3758.552v-74.789h-73.001v74.789H3118.113z"/>
</g>
</svg>
