<?xml version="1.0" encoding="utf-8"?>
<!-- Generator: Adobe Illustrator 22.1.0, SVG Export Plug-In . SVG Version: 6.00 Build 0)  -->
<svg version="1.1" id="_x32_0T_GT2_Pulley" xmlns="http://www.w3.org/2000/svg" xmlns:xlink="http://www.w3.org/1999/xlink" x="0px"
	 y="0px" viewBox="0 0 2228.646 3382.569" style="enable-background:new 0 0 2228.646 3382.569;" xml:space="preserve">
<style type="text/css">
	.st0{fill:none;stroke:#000000;stroke-width:22.6772;stroke-linecap:round;stroke-linejoin:round;stroke-miterlimit:10;}
</style>
<g id="Graphics">
	<path class="st0" d="M414.509,1065.75c-315.55,215.551-284.561,535.868,70.604,729.789s910.832,193.921,1265.997,0
		s386.154-514.238,70.604-729.789"/>
	<path class="st0" d="M196.859,2024.902c0,293.753,412.459,531.887,921.252,531.887s921.252-238.134,921.252-531.887"/>
	<path class="st0" d="M1333.197,701.53c102.796-66.705,95.949-168.382-15.508-230.278c-111.456-61.896-287.7-61.896-399.156,0
		c-111.456,61.896-118.304,163.573-15.508,230.278"/>
	<path class="st0" d="M1671.382,1617.723c10.906-8.015,21.286-16.263,31.118-24.729"/>
	<path class="st0" d="M1778.632,1506.722c6.083-9.568,11.539-19.265,16.359-29.07"/>
	<path class="st0" d="M1821.217,1382.057c0.333-5.099,0.5-10.2,0.5-15.303"/>
	<path class="st0" d="M414.506,1366.754c0,5.102,0.166,10.204,0.499,15.303"/>
	<path class="st0" d="M441.231,1477.651c4.819,9.805,10.276,19.502,16.358,29.07"/>
	<path class="st0" d="M533.723,1592.994c9.832,8.465,20.211,16.714,31.118,24.729"/>
	<path class="st0" d="M1509.966,1704.154c14.662-5.676,28.949-11.669,42.831-17.966"/>
	<path class="st0" d="M683.425,1686.188c13.882,6.297,28.169,12.29,42.831,17.966"/>
	<path class="st0" d="M875.683,1748.11c16.572,3.512,33.368,6.662,50.351,9.445"/>
	<path class="st0" d="M1091.607,1772.697c17.663,0.384,35.345,0.384,53.009,0"/>
	<path class="st0" d="M1310.188,1757.555c16.983-2.782,33.778-5.933,50.351-9.445"/>
	<path class="st0" d="M196.859,666.238c0,293.753,412.459,531.888,921.252,531.888s921.252-238.134,921.252-531.888"/>
	<path class="st0" d="M414.506,1111.855c-218.353,200.907-149.531,463.792,161.911,618.467s771.946,154.675,1083.388,0
		s380.264-417.56,161.911-618.467"/>
	<path class="st0" d="M1798.964,1392.043c-1.087-0.134-2.18-0.251-3.277-0.352"/>
	<path class="st0" d="M1794.984,1477.662c0.464-0.945,0.7-1.922,0.7-2.904"/>
	<path class="st0" d="M1752.104,1512.273c4.709,1.572,10.38,1.862,15.495,0.793c5.114-1.069,9.149-3.388,11.023-6.336"/>
	<path class="st0" d="M1752.102,1512.279c-14.056-4.692-30.697-6.089-46.485-3.901"/>
	<path class="st0" d="M1702.495,1592.994c2.035-1.752,3.122-3.814,3.122-5.923"/>
	<path class="st0" d="M1643.184,1618.269c3.637,2.335,8.875,3.623,14.312,3.519c5.436-0.104,10.515-1.59,13.875-4.059"/>
	<path class="st0" d="M1643.184,1618.268c-21.378-13.725-57.123-16.1-83.342-5.537"/>
	<path class="st0" d="M1552.802,1686.181c4.446-2.017,7.042-5.1,7.042-8.364"/>
	<path class="st0" d="M1482.867,1699.635c2.209,2.87,6.501,5.029,11.728,5.899c5.226,0.871,10.851,0.364,15.369-1.385"/>
	<path class="st0" d="M1482.87,1699.639c-9.334-12.125-29.312-20.38-52.202-21.569c-22.89-1.189-45.1,4.874-58.033,15.842"/>
	<path class="st0" d="M1360.555,1748.1c7.254-1.537,12.076-5.524,12.076-9.985"/>
	<path class="st0" d="M1286.846,1748.42c0.565,3.123,3.492,5.942,7.996,7.702c4.504,1.76,10.125,2.281,15.357,1.424"/>
	<path class="st0" d="M1286.85,1748.421c-3.202-17.691-27.991-31.485-58.731-32.683c-30.74-1.197-58.513,10.55-65.802,27.833"/>
	<path class="st0" d="M1144.581,1772.692c9.898-0.215,17.73-4.91,17.73-10.628"/>
	<path class="st0" d="M1073.904,1762.064c0,5.718,7.832,10.413,17.73,10.628"/>
	<path class="st0" d="M1073.898,1743.571c-7.288-17.283-35.061-29.03-65.802-27.833c-30.74,1.197-55.529,14.991-58.731,32.683"/>
	<path class="st0" d="M926.015,1757.547c5.232,0.857,10.854,0.336,15.357-1.424c4.504-1.76,7.431-4.579,7.996-7.702"/>
	<path class="st0" d="M863.584,1738.116c0,4.461,4.822,8.448,12.076,9.985"/>
	<path class="st0" d="M863.58,1693.913c-12.933-10.968-35.143-17.031-58.033-15.842c-22.89,1.189-42.868,9.444-52.202,21.569"/>
	<path class="st0" d="M726.252,1704.15c4.518,1.749,10.143,2.256,15.369,1.385c5.226-0.87,9.518-3.03,11.728-5.899"/>
	<path class="st0" d="M676.371,1677.817c0,3.264,2.596,6.347,7.042,8.364"/>
	<path class="st0" d="M676.373,1612.732c-26.219-10.563-61.964-8.189-83.342,5.537"/>
	<path class="st0" d="M564.844,1617.728c3.361,2.469,8.439,3.955,13.875,4.059c5.436,0.104,10.674-1.184,14.311-3.519"/>
	<path class="st0" d="M530.598,1587.07c0,2.109,1.087,4.171,3.122,5.923"/>
	<path class="st0" d="M530.598,1508.378c-15.788-2.188-32.429-0.791-46.485,3.901"/>
	<path class="st0" d="M457.593,1506.73c1.874,2.948,5.909,5.267,11.023,6.336c5.114,1.069,10.786,0.779,15.494-0.793"/>
	<path class="st0" d="M440.531,1474.759c0,0.982,0.235,1.959,0.7,2.904"/>
	<path class="st0" d="M440.528,1391.692c-1.098,0.101-2.19,0.218-3.277,0.352"/>
	<path class="st0" d="M415.002,1382.043c0.205,3.138,2.801,6.063,7.092,7.992c4.292,1.929,9.84,2.665,15.16,2.01"/>
	<path class="st0" d="M1798.961,1392.044c5.32,0.655,10.868-0.081,15.16-2.01c4.292-1.929,6.888-4.854,7.092-7.992"/>
	<path class="st0" d="M773.561,363.912c-190.29,109.865-190.29,287.992,0,397.857c190.29,109.865,498.81,109.865,689.1,0
		c190.29-109.865,190.29-287.992,0-397.857C1272.371,254.047,963.851,254.047,773.561,363.912"/>
	<path class="st0" d="M890.113,431.203c-125.92,72.701-125.92,190.573,0,263.275c125.92,72.702,330.076,72.702,455.996,0
		c125.92-72.701,125.92-190.573,0-263.275C1220.189,358.502,1016.033,358.502,890.113,431.203"/>
	<path class="st0" d="M466.687,186.74c-359.771,207.715-359.771,544.487,0,752.202s943.076,207.715,1302.847,0
		c359.772-207.715,359.772-544.487,0-752.202C1409.763-20.975,826.459-20.975,466.687,186.74"/>
	<line class="st0" x1="2039.356" y1="1409.097" x2="2039.356" y2="2024.905"/>
	<line class="st0" x1="196.852" y1="1409.097" x2="196.852" y2="2024.905"/>
	<line class="st0" x1="1821.709" y1="1009.582" x2="1821.709" y2="1366.758"/>
	<line class="st0" x1="414.499" y1="1009.582" x2="414.499" y2="1366.758"/>
	<line class="st0" x1="1462.654" y1="363.917" x2="1475.071" y2="371.083"/>
	<line class="st0" x1="773.553" y1="363.917" x2="761.137" y2="371.083"/>
	<line class="st0" x1="2039.356" y1="562.844" x2="2039.356" y2="666.242"/>
	<line class="st0" x1="196.852" y1="562.844" x2="196.852" y2="666.242"/>
	<line class="st0" x1="1372.631" y1="1177.424" x2="1372.631" y2="1738.119"/>
	<line class="st0" x1="1162.311" y1="1197.519" x2="1162.311" y2="1762.067"/>
	<line class="st0" x1="1073.896" y1="1762.067" x2="1073.896" y2="1197.519"/>
	<line class="st0" x1="863.576" y1="1738.119" x2="863.576" y2="1177.424"/>
	<line class="st0" x1="676.364" y1="1677.821" x2="676.364" y2="1132.994"/>
	<line class="st0" x1="530.591" y1="1587.074" x2="530.591" y2="1075.935"/>
	<line class="st0" x1="440.523" y1="1474.762" x2="440.523" y2="1026.613"/>
	<line class="st0" x1="1795.684" y1="1026.613" x2="1795.684" y2="1474.762"/>
	<line class="st0" x1="1705.617" y1="1075.935" x2="1705.617" y2="1587.074"/>
	<line class="st0" x1="1559.844" y1="1132.994" x2="1559.844" y2="1677.821"/>
</g>
<g id="_x32_0T_GT2_Pulley_1_">
	<path d="M173.076,3263.315H36.547v-16.269l105.31-218.755v-82.005H71.723v77.388H40.944v-80.026c0-7.18,2.271-13.044,6.815-17.589
		c4.541-4.541,10.405-6.815,17.589-6.815h82.884c7.18,0,13.044,2.275,17.589,6.815c4.541,4.546,6.815,10.409,6.815,17.589v72.99
		c0,8.795-2.714,18.836-8.134,30.12l-91.019,189.514h99.594V3263.315z"/>
	<path d="M361.271,3238.912c0,7.183-2.347,13.046-7.036,17.588c-4.693,4.544-10.629,6.815-17.808,6.815h-91.239
		c-7.183,0-13.047-2.271-17.588-6.815c-4.545-4.542-6.816-10.405-6.816-17.588v-295.263c0-7.18,2.271-13.044,6.816-17.589
		c4.541-4.541,10.405-6.815,17.588-6.815h91.239c7.18,0,13.116,2.275,17.808,6.815c4.689,4.546,7.036,10.409,7.036,17.589V3238.912z
		 M330.711,3236.273v-289.987h-79.367v289.987H330.711z"/>
	<path d="M534.735,2946.287h-53.204v317.028h-30.56v-317.028h-53.644v-27.043h137.409V2946.287z"/>
	<path d="M822.083,3231.875c0,20.962-10.481,31.439-31.438,31.439H682.477c-20.374,0-30.56-10.477-30.56-31.439v-280.972
		c0-21.106,10.404-31.659,31.22-31.659h107.508c20.957,0,31.438,10.553,31.438,31.659v73.431h-51.666v-60.9h-67.056v255.69h67.056
		v-96.296h-38.254v-43.751h89.919V3231.875z"/>
	<path d="M1012.696,2964.753h-56.723v298.562h-51.225v-298.562h-56.723v-45.509h164.67V2964.753z"/>
	<path d="M1200.452,3017.079c0,10.848-3.738,22.865-11.212,36.056l-94.537,165.11h105.31v45.07h-166.869v-31.879l116.523-204.903
		v-63.538h-62.658v63.977h-50.347v-76.508c0-20.811,10.477-31.22,31.439-31.22h100.912c20.958,0,31.44,10.409,31.44,31.22V3017.079z
		"/>
	<path d="M1468.672,3102.163c0,7.183-2.308,13.081-6.926,17.698c-4.616,4.616-10.518,6.925-17.697,6.925h-81.126v136.529h-30.56
		v-344.071h111.686c7.179,0,13.081,2.275,17.697,6.815c4.618,4.546,6.926,10.409,6.926,17.589V3102.163z M1438.113,3099.524
		v-153.238h-75.189v153.238H1438.113z"/>
	<path d="M1635.981,3263.315h-28.801v-5.935c-11.727,1.615-23.38,3.153-34.956,4.616c-14.07,1.759-25.722,2.638-34.956,2.638
		c-15.83,0-23.744-7.915-23.744-23.744v-191.492h28.801v187.755l64.856-1.759v-185.996h28.801V3263.315z"/>
	<path d="M1714.249,3263.315h-28.801v-344.071h28.801V3263.315z"/>
	<path d="M1794.495,3263.315h-28.801v-344.071h28.801V3263.315z"/>
	<path d="M1963.783,3238.471c0,16.565-8.21,24.844-24.624,24.844h-70.352c-16.418,0-24.624-8.278-24.624-24.844v-164.23
		c0-16.562,8.206-24.844,24.624-24.844h70.352c16.414,0,24.624,8.282,24.624,24.844v76.949l-9.893,10.332h-81.347v77.389h62.879
		v-39.135h28.361V3238.471z M1935.422,3138.219v-64.418h-62.879v64.418H1935.422z"/>
	<path d="M2132.63,3049.397l-51.446,212.159l-21.326,82.884h-28.801l21.545-82.884l-52.764-212.159h30.119l36.496,168.408
		l36.936-168.408H2132.63z"/>
	<path d="M2198.587,3263.315h-33.417v-38.694h33.417V3263.315z"/>
</g>
</svg>
