<?xml version="1.0" encoding="utf-8"?>
<!-- Generator: Adobe Illustrator 22.1.0, SVG Export Plug-In . SVG Version: 6.00 Build 0)  -->
<svg version="1.1" id="Layer_1" xmlns="http://www.w3.org/2000/svg" xmlns:xlink="http://www.w3.org/1999/xlink" x="0px" y="0px"
	 viewBox="0 0 3382.609 4000" style="enable-background:new 0 0 3382.609 4000;" xml:space="preserve">
<style type="text/css">
	.st0{fill:none;stroke:#000000;stroke-width:14.1732;stroke-linecap:round;stroke-linejoin:round;stroke-miterlimit:10;}
</style>
<g>
	<path class="st0" d="M985.747,1606.038c-1.753,7.856-3.204,15.777-4.353,23.756"/>
	<line class="st0" x1="685.326" y1="1193.292" x2="1060.489" y2="1271.047"/>
	<line class="st0" x1="696.414" y1="1155.472" x2="1137.387" y2="1246.504"/>
	<path class="st0" d="M1311.199,634.09c-52.921-68.31-161.326-87.097-291.895-50.586"/>
	<line class="st0" x1="1019.303" y1="583.514" x2="1225.169" y2="849.265"/>
	<path class="st0" d="M2254.733,935.509c3.407-175.037-148.521-364.86-362.792-453.282"/>
	<line class="st0" x1="1891.936" y1="482.233" x2="1762.241" y2="715.078"/>
	<path class="st0" d="M2728.958,1579.168c34.864-186.866,3.861-468.255-71.76-651.286"/>
	<line class="st0" x1="2657.199" y1="927.899" x2="2289.647" y2="971.758"/>
	<polyline class="st0" points="2070.205,1917.852 2070.96,1915.847 2071.715,1913.843 2072.495,1911.825 2073.287,1909.808 
		2074.091,1907.778 2074.896,1905.749 2075.725,1903.707 2076.554,1901.665 2077.408,1899.623 2078.262,1897.569 2079.128,1895.514 
		2080.019,1893.46 2080.91,1891.393 2081.813,1889.327 2082.729,1887.247 2083.657,1885.168 2084.598,1883.089 2085.551,1881.01 
		2086.504,1878.919 2087.481,1876.827 2088.459,1874.724 2089.461,1872.632 2090.464,1870.528 2091.479,1868.412 2092.506,1866.308 
		2093.545,1864.192 2094.597,1862.076 2095.662,1859.959 2096.738,1857.843 2097.815,1855.715 2098.904,1853.586 2100.018,1851.458 
		2101.131,1849.329 2102.245,1847.2 2103.384,1845.059 2104.522,1842.919 2105.686,1840.79 2106.837,1838.649 2108.012,1836.496 
		2109.201,1834.355 2110.389,1832.214 2111.576,1830.06 2112.789,1827.919 2114.002,1825.766 2115.227,1823.613 2116.452,1821.459 
		2117.69,1819.306 2118.94,1817.153 2120.19,1814.999 2121.452,1812.846 2122.714,1810.693 2123.989,1808.539 2125.276,1806.386 
		2126.563,1804.233 2127.85,1802.079 2129.149,1799.926 2130.461,1797.773 2131.761,1795.619 2133.085,1793.466 2134.409,1791.313 
		2135.734,1789.172 2137.07,1787.018 2138.407,1784.865 2139.743,1782.724 2141.092,1780.583 2142.441,1778.43 2143.79,1776.289 
		2145.151,1774.148 2146.512,1772.007 2147.886,1769.878 2149.248,1767.737 2150.621,1765.609 2151.995,1763.48 2153.381,1761.352 
		2154.767,1759.223 2156.141,1757.107 2157.527,1754.991 2158.925,1752.875 2160.311,1750.758 2161.71,1748.642 2163.096,1746.538 
		2164.494,1744.434 2165.893,1742.331 2167.291,1740.239 2168.689,1738.148 2170.088,1736.056 2171.486,1733.977 2172.897,1731.898 
		2174.295,1729.819 2175.694,1727.752 2177.092,1725.685 2178.503,1723.606 2179.914,1721.54 2181.337,1719.461 2182.76,1717.369 
		2184.196,1715.278 2185.631,1713.174 2187.08,1711.07 2188.527,1708.966 2189.988,1706.85 2191.448,1704.734 2192.92,1702.605 
		2194.393,1700.477 2195.878,1698.336 2197.364,1696.195 2198.849,1694.054 2200.346,1691.9 2201.844,1689.747 2203.353,1687.581 
		2204.851,1685.416 2206.36,1683.25 2207.882,1681.084 2209.405,1678.906 2210.927,1676.728 2212.449,1674.55 2213.971,1672.359 
		2215.506,1670.169 2217.041,1667.979 2218.575,1665.776 2220.122,1663.585 2221.656,1661.382 2223.203,1659.18 2224.738,1656.977 
		2226.285,1654.761 2227.832,1652.546 2229.391,1650.343 2230.938,1648.128 2232.485,1645.901 2234.032,1643.685 2235.591,1641.47 
		2237.138,1639.243 2238.697,1637.015 2240.245,1634.8 2241.791,1632.572 2243.351,1630.345 2244.898,1628.117 2246.445,1625.889 
		2247.991,1623.662 2249.539,1621.434 2251.085,1619.194 2252.633,1616.967 2254.179,1614.739 2255.714,1612.511 2257.261,1610.284 
		2258.795,1608.044 2260.33,1605.817 2261.852,1603.589 2263.386,1601.361 2264.909,1599.134 2266.431,1596.906 2267.953,1594.679 
		2269.463,1592.463 2270.973,1590.236 2272.482,1588.008 2273.98,1585.793 2275.477,1583.578 2276.975,1581.35 2278.46,1579.135 
		2279.945,1576.92 2281.418,1574.717 2282.89,1572.502 2284.363,1570.299 2285.823,1568.083 2287.284,1565.881 2288.731,1563.69 
		2290.18,1561.487 2291.615,1559.297 2293.038,1557.094 2294.474,1554.916 2295.885,1552.725 2297.308,1550.547 2298.706,1548.369 
		2300.105,1546.191 2301.503,1544.013 2302.889,1541.848 2304.263,1539.682 2305.636,1537.528 2306.998,1535.375 2308.347,1533.222 
		2309.696,1531.068 2311.032,1528.927 2312.369,1526.799 2313.693,1524.658 2315.005,1522.529 2316.316,1520.413 2317.604,1518.297 
		2318.891,1516.181 2320.177,1514.077 2321.44,1511.973 2322.702,1509.882 2323.952,1507.79 2325.202,1505.711 2326.427,1503.632 
		2327.653,1501.565 2328.865,1499.499 2330.066,1497.444 2331.254,1495.39 2332.442,1493.348 2333.605,1491.306 2334.769,1489.276 
		2335.919,1487.259 2337.058,1485.242 2338.184,1483.237 2339.298,1481.232 2340.399,1479.24 2341.488,1477.26 2342.565,1475.28 
		2343.642,1473.3 2344.706,1471.32 2345.77,1469.352 2346.81,1467.372 2347.862,1465.392 2348.889,1463.424 2349.916,1461.444 
		2350.943,1459.464 2351.946,1457.496 2352.948,1455.516 2353.95,1453.548 2354.928,1451.568 2355.906,1449.6 2356.883,1447.621 
		2357.836,1445.653 2358.789,1443.685 2359.742,1441.718 2360.67,1439.75 2361.599,1437.782 2362.514,1435.814 2363.418,1433.859 
		2364.321,1431.904 2365.2,1429.936 2366.078,1427.98 2366.957,1426.025 2367.811,1424.083 2368.665,1422.127 2369.494,1420.184 
		2370.323,1418.241 2371.153,1416.298 2371.957,1414.368 2372.749,1412.425 2373.541,1410.494 2374.32,1408.576 2375.088,1406.645 
		2375.843,1404.727 2376.585,1402.809 2377.315,1400.891 2378.045,1398.985 2378.751,1397.079 2379.456,1395.173 2380.137,1393.28 
		2380.818,1391.386 2381.486,1389.493 2382.142,1387.612 2382.773,1385.73 2383.404,1383.862 2384.023,1381.993 2384.629,1380.125 	
		"/>
	<path class="st0" d="M2738.881,1584.901c-46.182,46.717-94.505,107.531-140.27,176.527"/>
	<line class="st0" x1="2738.853" y1="1584.914" x2="2384.629" y2="1380.125"/>
	<polyline class="st0" points="1528.666,1904.796 1529.644,1903.2 1530.621,1901.628 1531.624,1900.044 1532.639,1898.472 
		1533.653,1896.913 1534.693,1895.341 1535.745,1893.794 1536.809,1892.235 1537.886,1890.688 1538.975,1889.153 1540.076,1887.619 
		1541.19,1886.084 1542.316,1884.562 1543.455,1883.052 1544.606,1881.542 1545.769,1880.033 1546.957,1878.535 1548.145,1877.05 
		1549.345,1875.553 1550.558,1874.08 1551.796,1872.607 1553.033,1871.135 1554.283,1869.674 1555.545,1868.226 1556.833,1866.779 
		1558.12,1865.331 1559.419,1863.895 1560.731,1862.472 1562.055,1861.049 1563.392,1859.625 1564.74,1858.215 1566.089,1856.816 
		1567.463,1855.418 1568.837,1854.019 1570.235,1852.633 1571.634,1851.26 1573.045,1849.886 1574.455,1848.525 1575.891,1847.163 
		1577.326,1845.814 1578.787,1844.465 1580.247,1843.129 1581.707,1841.792 1583.192,1840.468 1584.677,1839.144 1586.175,1837.832 
		1587.685,1836.533 1589.195,1835.221 1590.717,1833.934 1592.251,1832.647 1593.786,1831.372 1595.345,1830.098 1596.892,1828.823 
		1598.464,1827.573 1600.035,1826.311 1601.62,1825.073 1603.204,1823.836 1604.8,1822.598 1606.396,1821.373 1608.005,1820.16 
		1609.627,1818.947 1611.248,1817.734 1612.881,1816.546 1614.515,1815.346 1616.161,1814.17 1617.807,1812.995 1619.465,1811.819 
		1621.136,1810.656 1622.806,1809.505 1624.477,1808.354 1626.16,1807.215 1627.843,1806.077 1629.526,1804.951 1631.222,1803.824 
		1632.93,1802.711 1634.637,1801.609 1636.345,1800.508 1638.066,1799.419 1639.786,1798.33 1641.506,1797.253 1643.238,1796.189 
		1644.971,1795.124 1646.728,1794.06 1648.485,1792.996 1650.255,1791.944 1652.05,1790.88 1653.844,1789.828 1655.663,1788.776 
		1657.482,1787.724 1659.314,1786.684 1661.171,1785.632 1663.027,1784.593 1664.895,1783.553 1666.789,1782.514 1668.682,1781.474 
		1670.588,1780.447 1672.507,1779.407 1674.437,1778.38 1676.38,1777.353 1678.323,1776.326 1680.291,1775.311 1682.258,1774.284 
		1684.238,1773.269 1686.243,1772.254 1688.236,1771.252 1690.253,1770.237 1692.282,1769.235 1694.312,1768.232 1696.354,1767.23 
		1698.408,1766.228 1700.475,1765.238 1702.554,1764.247 1704.633,1763.257 1706.725,1762.267 1708.816,1761.29 1710.932,1760.312 
		1713.049,1759.334 1715.177,1758.357 1717.318,1757.391 1719.459,1756.426 1721.612,1755.461 1723.766,1754.495 1725.931,1753.543 
		1728.11,1752.59 1730.3,1751.637 1732.49,1750.684 1734.693,1749.743 1736.896,1748.803 1739.111,1747.862 1741.339,1746.934 
		1743.566,1746.006 1745.794,1745.078 1748.046,1744.15 1750.286,1743.234 1752.551,1742.318 1754.816,1741.402 1757.08,1740.499 
		1759.358,1739.595 1761.635,1738.692 1763.924,1737.801 1766.214,1736.898 1768.515,1736.019 1770.817,1735.128 1773.131,1734.249 
		1775.446,1733.371 1777.772,1732.504 1780.099,1731.626 1782.425,1730.759 1784.764,1729.893 1787.103,1729.039 1789.442,1728.185 
		1791.794,1727.331 1794.145,1726.49 1796.496,1725.636 1798.86,1724.795 1801.224,1723.965 1803.587,1723.124 1805.951,1722.295 
		1808.327,1721.478 1810.691,1720.649 1813.067,1719.832 1815.443,1719.015 1817.832,1718.211 1820.208,1717.394 1822.596,1716.589 
		1824.972,1715.797 1827.361,1714.993 1829.75,1714.201 1832.138,1713.409 1834.526,1712.629 1836.915,1711.85 1839.303,1711.07 
		1841.692,1710.29 1844.08,1709.523 1846.469,1708.756 1848.857,1707.988 1851.246,1707.221 1853.634,1706.466 1856.023,1705.711 
		1858.411,1704.969 1860.799,1704.226 1863.175,1703.484 1865.564,1702.741 1867.94,1702.011 1870.316,1701.281 1872.692,1700.551 
		1875.068,1699.821 1877.432,1699.103 1879.808,1698.385 1882.172,1697.68 1884.536,1696.962 1886.887,1696.256 1889.238,1695.563 
		1891.59,1694.858 1893.941,1694.165 1896.28,1693.472 1898.619,1692.791 1900.958,1692.098 1903.284,1691.418 1905.611,1690.749 
		1907.938,1690.069 1910.252,1689.401 1912.566,1688.732 1914.868,1688.076 1917.17,1687.421 1919.484,1686.752 1921.786,1686.096 
		1924.1,1685.44 1926.427,1684.784 1928.741,1684.128 1931.067,1683.473 1933.394,1682.829 1935.721,1682.173 1938.06,1681.517 
		1940.386,1680.874 1942.725,1680.218 1945.064,1679.574 1947.403,1678.931 1949.742,1678.287 1952.081,1677.631 1954.433,1676.988 
		1956.771,1676.357 1959.123,1675.713 1961.462,1675.07 1963.813,1674.426 1966.164,1673.795 1968.503,1673.151 1970.855,1672.52 
		1973.206,1671.877 1975.545,1671.246 1977.896,1670.615 1980.248,1669.983 1982.587,1669.352 1984.938,1668.721 1987.277,1668.09 
		1989.616,1667.471 1991.955,1666.84 1994.294,1666.221 1996.633,1665.59 1998.972,1664.971 2001.311,1664.353 2003.638,1663.734 
		2005.964,1663.103 2008.291,1662.496 2010.617,1661.877 2012.931,1661.259 2015.258,1660.64 2017.572,1660.034 2019.874,1659.415 
		2022.188,1658.808 2024.49,1658.202 2026.792,1657.583 2029.094,1656.977 2031.383,1656.37 2033.673,1655.776 2035.95,1655.17 
		2074.339,1950.4 	"/>
	<polyline class="st0" points="1150.459,1535.202 1151.956,1534.373 1153.453,1533.556 1154.951,1532.764 1156.473,1532.009 
		1157.995,1531.279 1159.542,1530.561 1161.077,1529.88 1162.636,1529.225 1164.195,1528.581 1165.779,1527.974 1167.351,1527.393 
		1168.96,1526.824 1170.581,1526.292 1172.227,1525.772 1173.885,1525.264 1175.568,1524.794 1177.276,1524.336 1179.009,1523.891 
		1180.754,1523.482 1182.523,1523.086 1184.305,1522.715 1186.112,1522.368 1187.944,1522.034 1189.788,1521.725 1191.657,1521.44 
		1193.55,1521.168 1195.456,1520.933 1197.386,1520.71 1199.329,1520.512 1201.297,1520.326 1203.289,1520.178 1205.294,1520.042 
		1207.324,1519.931 1209.366,1519.832 1211.433,1519.77 1213.524,1519.72 1215.628,1519.695 1217.756,1519.695 1219.897,1519.708 
		1222.063,1519.757 1224.241,1519.819 1226.444,1519.906 1228.672,1520.017 1230.912,1520.141 1233.176,1520.302 1235.453,1520.475 
		1237.743,1520.673 1240.069,1520.896 1242.396,1521.143 1244.76,1521.416 1247.124,1521.7 1249.524,1522.01 1251.925,1522.344 
		1254.363,1522.703 1256.813,1523.086 1259.276,1523.482 1261.764,1523.915 1264.264,1524.349 1266.776,1524.819 1269.313,1525.301 
		1271.875,1525.809 1274.436,1526.329 1277.023,1526.873 1279.622,1527.442 1282.233,1528.024 1284.869,1528.618 1287.505,1529.237 
		1290.166,1529.88 1292.826,1530.536 1295.512,1531.205 1298.209,1531.898 1300.92,1532.603 1303.642,1533.321 1306.365,1534.063 
		1309.112,1534.818 1311.86,1535.586 1314.632,1536.378 1317.404,1537.182 1320.188,1537.986 1322.973,1538.828 1325.782,1539.669 
		1328.591,1540.523 1331.401,1541.402 1334.235,1542.281 1337.069,1543.184 1339.903,1544.088 1342.749,1545.016 1345.608,1545.956 
		1348.466,1546.897 1351.338,1547.862 1354.209,1548.827 1357.08,1549.805 1359.963,1550.807 1362.859,1551.81 1365.767,1552.837 
		1368.7,1553.864 1371.658,1554.928 1374.641,1555.993 1377.635,1557.082 1380.655,1558.171 1383.687,1559.285 1386.744,1560.423 
		1389.813,1561.562 1392.907,1562.713 1396.013,1563.888 1399.132,1565.076 1402.275,1566.264 1405.443,1567.477 1408.611,1568.702 
		1411.804,1569.927 1415.009,1571.177 1418.227,1572.44 1421.457,1573.702 1424.712,1574.977 1427.979,1576.276 1431.246,1577.576 
		1434.538,1578.887 1437.842,1580.212 1441.159,1581.536 1444.475,1582.885 1447.817,1584.234 1451.171,1585.583 1454.524,1586.956 
		1457.891,1588.33 1461.269,1589.716 1464.66,1591.102 1468.063,1592.5 1471.466,1593.911 1175.209,1762.416 	"/>
	<path class="st0" d="M2210.837,1557.451c257.253-148.52,262.486-439.891,11.688-650.795s-662.654-261.475-919.907-112.955
		s-262.486,439.891-11.689,650.795C1541.728,1655.4,1953.584,1705.972,2210.837,1557.451"/>
	<path class="st0" d="M511.215,1624.515c31.031,132.622,104.969,263.035,215.699,380.452"/>
	<line class="st0" x1="347.994" y1="1603.762" x2="511.203" y2="1624.516"/>
	<path class="st0" d="M137.505,1402.437c-9.553,42.809,8.106,89.5,48.44,128.077c40.333,38.577,99.41,65.28,162.053,73.249"/>
	<line class="st0" x1="152.152" y1="1336.773" x2="114.271" y2="1358.319"/>
	<path class="st0" d="M114.273,1358.313c-49.004,27.871-50.48,82.977-3.297,123.084"/>
	<line class="st0" x1="110.967" y1="1481.406" x2="726.883" y2="2004.951"/>
	<path class="st0" d="M1878.532,2451.546c173.062-3.948,336.288-36.574,477.361-95.415"/>
	<path class="st0" d="M1416.525,2512.035c-2.164,80.75,84.599,158.946,198.453,178.859
		c113.854,19.913,215.833-25.272,233.256-103.354"/>
	<line class="st0" x1="1419.601" y1="2396.685" x2="1416.519" y2="2512.037"/>
	<path class="st0" d="M926.049,2174.242c143.562,98.744,312.736,174.989,493.532,222.431"/>
	<line class="st0" x1="926.091" y1="2174.285" x2="1542.007" y2="2697.83"/>
	<path class="st0" d="M1542.003,2697.821c47.183,40.107,125.157,50.026,174.161,22.155"/>
	<line class="st0" x1="1716.167" y1="2719.982" x2="2355.856" y2="2356.143"/>
	<path class="st0" d="M3202.425,1874.619c49.004-27.871,50.481-82.977,3.297-123.084"/>
	<path class="st0" d="M3173.973,2002.148c19.435-11.053,32.188-27.023,36.301-45.456"/>
	<path class="st0" d="M49.521,1531.31c-5.86,26.259,6.347,54.969,33.003,77.628"/>
	<line class="st0" x1="110.967" y1="1481.406" x2="82.515" y2="1608.947"/>
	<line class="st0" x1="1542.007" y1="2697.83" x2="1513.543" y2="2825.359"/>
	<path class="st0" d="M1513.552,2825.35c47.183,40.107,125.158,50.026,174.162,22.155"/>
	<line class="st0" x1="1716.167" y1="2719.982" x2="1687.716" y2="2847.511"/>
	<line class="st0" x1="3173.963" y1="2002.166" x2="1687.716" y2="2847.511"/>
	<line class="st0" x1="1513.543" y1="2825.359" x2="82.515" y2="1608.947"/>
	<path class="st0" d="M1121.775,1003.112c-72.288,18.797-140.057,43.789-202.028,74.505"/>
	<path class="st0" d="M733.435,1203.268c-12.244,11.179-23.959,22.673-35.129,34.467"/>
	<path class="st0" d="M2562.716,2238.498c116.249-88.544,196.65-199.323,234.554-323.176"/>
	<line class="st0" x1="2562.738" y1="2238.464" x2="3202.427" y2="1874.624"/>
	<line class="st0" x1="3205.719" y1="1751.538" x2="3198.231" y2="1745.177"/>
	<path class="st0" d="M2960.489,1936.044c108.683,13.825,202.143-31.277,218.716-105.549"/>
	<line class="st0" x1="2797.266" y1="1915.29" x2="2960.486" y2="1936.056"/>
	<path class="st0" d="M147.894,1090.421c-5.86,26.259,6.347,54.969,33.003,77.628"/>
	<line class="st0" x1="180.888" y1="1168.058" x2="209.352" y2="1040.529"/>
	<path class="st0" d="M212.646,917.436c-49.004,27.871-50.48,82.977-3.297,123.084"/>
	<line class="st0" x1="1698.891" y1="72.084" x2="212.644" y2="917.43"/>
	<line class="st0" x1="209.352" y1="1040.529" x2="1640.379" y2="2256.941"/>
	<path class="st0" d="M1640.389,2256.931c47.183,40.107,125.157,50.026,174.161,22.156"/>
	<line class="st0" x1="1814.54" y1="2279.093" x2="3300.8" y2="1433.735"/>
	<path class="st0" d="M3300.797,1433.729c49.004-27.871,50.481-82.977,3.298-123.084"/>
	<line class="st0" x1="3304.091" y1="1310.648" x2="1873.064" y2="94.236"/>
	<path class="st0" d="M1873.067,94.234c-47.183-40.107-125.157-50.026-174.161-22.155"/>
	<path class="st0" d="M359.125,932.608c-51.754,29.88-52.808,88.5-2.352,130.93c50.455,42.43,133.313,52.604,185.067,22.724
		c51.754-29.88,52.807-88.5,2.352-130.93C493.737,912.902,410.879,902.728,359.125,932.608"/>
	<path class="st0" d="M2971.616,1264.902c-51.755,29.88-52.807,88.5-2.353,130.93c50.456,42.43,133.313,52.604,185.067,22.724
		c51.755-29.88,52.807-88.5,2.353-130.93C3106.228,1245.196,3023.371,1235.022,2971.616,1264.902"/>
	<path class="st0" d="M1640.644,2021.936c-51.755,29.88-52.808,88.5-2.352,130.93c50.455,42.43,133.313,52.604,185.067,22.724
		c51.755-29.88,52.808-88.5,2.353-130.93C1775.255,2002.23,1692.398,1992.056,1640.644,2021.936"/>
	<path class="st0" d="M996.292,536.107c-430.786,248.704-439.548,736.618-19.571,1089.787
		c419.977,353.169,1109.656,437.855,1540.443,189.151c430.786-248.703,439.548-736.618,19.571-1089.787
		C2116.757,372.09,1427.078,287.403,996.292,536.107"/>
	<path class="st0" d="M1690.097,175.575c-51.755,29.88-52.807,88.5-2.352,130.93c50.455,42.43,133.313,52.604,185.067,22.724
		c51.755-29.88,52.807-88.5,2.352-130.93C1824.708,155.868,1741.851,145.694,1690.097,175.575"/>
	<path class="st0" d="M1611.925,2384.473c47.183,40.107,125.158,50.026,174.161,22.155"/>
	<line class="st0" x1="1786.089" y1="2406.635" x2="1814.54" y2="2279.093"/>
	<line class="st0" x1="1640.379" y1="2256.941" x2="1611.916" y2="2384.482"/>
	<polyline class="st0" points="2355.856,2356.143 2425.765,2042.795 1786.089,2406.635 	"/>
	<polyline class="st0" points="3272.336,1561.277 2632.659,1925.117 2562.738,2238.464 	"/>
	<path class="st0" d="M3272.346,1561.271c19.435-11.053,32.188-27.023,36.301-45.456"/>
	<line class="st0" x1="1419.601" y1="2396.685" x2="1452.557" y2="2249.02"/>
	<line class="st0" x1="1611.916" y1="2384.482" x2="996" y2="1860.937"/>
	<polyline class="st0" points="726.883,2004.951 796.804,1691.603 180.888,1168.058 	"/>
	<line class="st0" x1="996" y1="1860.937" x2="926.091" y2="2174.285"/>
	<line class="st0" x1="3010.928" y1="1709.956" x2="2960.486" y2="1936.056"/>
	<line class="st0" x1="2797.266" y1="1915.29" x2="2818.675" y2="1819.306"/>
	<line class="st0" x1="403.065" y1="1356.921" x2="347.994" y2="1603.762"/>
	<line class="st0" x1="544.158" y1="1476.851" x2="511.203" y2="1624.516"/>
	<line class="st0" x1="716.079" y1="1035.43" x2="1095.511" y2="1114.076"/>
	<line class="st0" x1="1311.204" y1="634.105" x2="1400.382" y2="749.234"/>
	<line class="st0" x1="982.461" y1="1630.703" x2="1150.434" y2="1535.165"/>
	<line class="st0" x1="1020.083" y1="1452.125" x2="1069.04" y2="1232.708"/>
	<line class="st0" x1="1095.517" y1="1114.077" x2="1113.802" y2="1032.138"/>
	<line class="st0" x1="2385.854" y1="1380.83" x2="2399.641" y2="1319.039"/>
	<line class="st0" x1="985.741" y1="1606.052" x2="1013.957" y2="1479.611"/>
	<line class="st0" x1="3238.724" y1="1829.169" x2="3210.26" y2="1956.699"/>
	<line class="st0" x1="77.961" y1="1403.774" x2="49.51" y2="1531.316"/>
	<line class="st0" x1="176.346" y1="962.897" x2="147.883" y2="1090.427"/>
	<line class="st0" x1="3337.097" y1="1388.28" x2="3308.646" y2="1515.822"/>
	<line class="st0" x1="1903.482" y1="2339.856" x2="1848.226" y2="2587.54"/>
	<line class="st0" x1="3234.454" y1="1582.823" x2="3179.198" y2="1830.506"/>
	<line class="st0" x1="188.375" y1="1174.419" x2="137.5" y2="1402.438"/>
	<line class="st0" x1="716.079" y1="1035.43" x2="696.414" y2="1155.472"/>
	<line class="st0" x1="696.414" y1="1155.472" x2="685.326" y2="1193.292"/>
	<line class="st0" x1="1013.957" y1="1479.611" x2="1020.083" y2="1452.125"/>
</g>
<g>
	<path d="M820.119,3918.663c0,11.066-3.503,20.099-10.499,27.096c-7.001,7-16.034,10.499-27.095,10.499h-136.49
		c-11.065,0-20.098-3.498-27.095-10.499c-7.002-6.997-10.499-16.03-10.499-27.096v-134.458h47.077V3914.6h117.185v-162.231
		l-93.477-70.108v-10.499l92.8-69.092v-134.797h-115.83v119.218h-47.077V3463.81c0-11.06,3.498-20.094,10.499-27.096
		c6.996-6.996,16.029-10.499,27.095-10.499h135.135c11.06,0,20.094,3.503,27.095,10.499c6.996,7.001,10.499,16.035,10.499,27.096
		v129.039c0,16.934-6.774,30.143-20.321,39.626l-62.996,44.368l63.673,44.368c13.547,9.261,20.321,22.692,20.321,40.303V3918.663z"
		/>
	<path d="M1117.485,3918.663c0,11.066-3.614,20.099-10.838,27.096c-7.229,7-16.373,10.499-27.433,10.499H938.659
		c-11.065,0-20.098-3.498-27.095-10.499c-7.002-6.997-10.499-16.03-10.499-27.096V3463.81c0-11.06,3.498-20.094,10.499-27.096
		c6.996-6.996,16.03-10.499,27.095-10.499h140.555c11.06,0,20.205,3.503,27.433,10.499c7.224,7.001,10.838,16.035,10.838,27.096
		V3918.663z M1070.408,3914.6v-446.726H948.142V3914.6H1070.408z"/>
	<path d="M1411.463,3956.258h-48.432l-70.785-217.775l-70.785,217.775h-47.077c0-1.577,0-2.482,0-2.71l94.493-268.577
		c-59.608-171.597-89.302-257.851-89.074-258.755h49.448l63.673,201.179l66.043-201.179h47.077c0,1.582,0,2.599,0,3.048
		l-88.058,252.998C1380.754,3864.025,1411.913,3955.358,1411.463,3956.258z"/>
	<path d="M1680.04,3918.663c0,11.066-3.503,20.099-10.499,27.096c-7.001,7-16.034,10.499-27.095,10.499h-136.49
		c-11.065,0-20.099-3.498-27.095-10.499c-7.002-6.997-10.499-16.03-10.499-27.096v-134.458h47.077V3914.6h117.185v-162.231
		l-93.477-70.108v-10.499l92.8-69.092v-134.797h-115.83v119.218h-47.077V3463.81c0-11.06,3.498-20.094,10.499-27.096
		c6.996-6.996,16.029-10.499,27.095-10.499h135.135c11.06,0,20.094,3.503,27.095,10.499c6.996,7.001,10.499,16.035,10.499,27.096
		v129.039c0,16.934-6.774,30.143-20.321,39.626l-62.995,44.368l63.673,44.368c13.547,9.261,20.321,22.692,20.321,40.303V3918.663z"
		/>
	<path d="M1977.406,3918.663c0,11.066-3.615,20.099-10.839,27.096c-7.229,7-16.372,10.499-27.433,10.499H1798.58
		c-11.065,0-20.098-3.498-27.095-10.499c-7.001-6.997-10.499-16.03-10.499-27.096V3463.81c0-11.06,3.498-20.094,10.499-27.096
		c6.996-6.996,16.03-10.499,27.095-10.499h140.555c11.06,0,20.204,3.503,27.433,10.499c7.224,7.001,10.839,16.035,10.839,27.096
		V3918.663z M1930.328,3914.6v-446.726h-122.266V3914.6H1930.328z"/>
	<path d="M2315.751,3956.258h-85.687l-58.254-186.615l-58.593,186.615h-84.332v-2.71l98.895-268.577
		c-62.095-171.597-93.027-257.851-92.799-258.755h84.671l52.835,172.729l53.172-172.729h83.995v3.048l-92.801,253.675
		L2315.751,3956.258z"/>
	<path d="M2452.58,3956.258h-77.898v-373.908h-30.482v-10.499l40.982-145.635h67.398V3956.258z"/>
	<path d="M2779.749,3907.826c0,32.291-15.917,48.431-47.754,48.431h-165.279c-31.386,0-47.076-16.141-47.076-48.431v-432.84
		c0-32.514,16.029-48.771,48.093-48.771h164.262c31.837,0,47.754,16.257,47.754,48.771V3907.826z M2702.19,3888.182v-393.891
		h-104.653v393.891H2702.19z"/>
</g>
</svg>
