<?xml version="1.0" encoding="utf-8"?>
<!-- Generator: Adobe Illustrator 22.1.0, SVG Export Plug-In . SVG Version: 6.00 Build 0)  -->
<svg version="1.1" id="Layer_1" xmlns="http://www.w3.org/2000/svg" xmlns:xlink="http://www.w3.org/1999/xlink" x="0px" y="0px"
	 viewBox="0 0 2169.565 4000" style="enable-background:new 0 0 2169.565 4000;" xml:space="preserve">
<style type="text/css">
	.st0{fill:none;stroke:#000000;stroke-width:14.1732;stroke-linecap:round;stroke-linejoin:round;stroke-miterlimit:10;}
</style>
<g>
	<path d="M722.548,3951.94h-69.681l-14.116-89.202H550.75l-14.115,89.202h-69.381v-1.201l91.005-469.44h73.885L722.548,3951.94z
		 M628.84,3802.367l-34.24-212.044l-34.539,212.044H628.84z"/>
	<path d="M954.415,3829.398h-35.741v122.542h-39.346v-122.542H746.576v-21.325l113.831-326.176h39.346v1.801l-108.124,310.259h87.7
		v-170.597h39.346v170.597h35.741V3829.398z"/>
	<path d="M1191.088,3918.602c0,9.812-3.056,17.824-9.161,24.027c-6.109,6.209-14.069,9.311-23.877,9.311h-117.435
		c-9.814,0-17.922-3.102-24.328-9.311c-6.41-6.203-9.611-14.215-9.611-24.027v-103.921h41.749v100.317h100.916v-173.901h-111.429
		c-9.813,0-17.772-3.102-23.877-9.311c-6.11-6.203-9.161-14.215-9.161-24.027v-192.523c0-9.807,3.05-17.817,9.161-24.026
		c6.105-6.205,14.065-9.312,23.877-9.312h120.139c9.808,0,17.768,3.107,23.877,9.312c6.105,6.209,9.161,14.219,9.161,24.026
		V3918.602z M1149.34,3704.754V3518.84h-102.719v185.914H1149.34z"/>
	<path d="M1456.894,3918.602c0,9.812-3.204,17.824-9.61,24.027c-6.41,6.209-14.52,9.311-24.327,9.311h-123.743
		c-9.814,0-17.773-3.102-23.878-9.311c-6.109-6.203-9.161-14.215-9.161-24.027v-153.178c0-13.412,5.107-23.427,15.319-30.034
		l45.652-29.434l-44.451-27.631c-10.212-6.406-15.319-16.519-15.319-30.335v-132.754c0-9.807,3.102-17.817,9.311-24.026
		c6.205-6.205,14.215-9.312,24.029-9.312h121.639c9.809,0,17.82,3.107,24.029,9.312c6.203,6.209,9.309,14.219,9.309,24.026v132.754
		c0,13.817-5.209,23.929-15.618,30.335l-44.15,27.631l44.751,29.434c10.812,7.012,16.218,17.021,16.218,30.034V3918.602z
		 M1414.846,3914.998v-155.579l-53.463-35.141l-53.461,35.141v155.579H1414.846z M1413.645,3653.696V3518.84h-104.521v134.856
		l52.259,34.84L1413.645,3653.696z"/>
	<path d="M1722.1,3918.602c0,9.812-3.206,17.824-9.612,24.027c-6.41,6.209-14.518,9.311-24.327,9.311h-123.743
		c-9.811,0-17.771-3.102-23.876-9.311c-6.112-6.203-9.161-14.215-9.161-24.027v-153.178c0-13.412,5.105-23.427,15.317-30.034
		l45.654-29.434l-44.453-27.631c-10.212-6.406-15.317-16.519-15.317-30.335v-132.754c0-9.807,3.102-17.817,9.309-24.026
		c6.205-6.205,14.215-9.312,24.029-9.312h121.641c9.807,0,17.818,3.107,24.026,9.312c6.205,6.209,9.311,14.219,9.311,24.026v132.754
		c0,13.817-5.209,23.929-15.618,30.335l-44.152,27.631l44.751,29.434c10.814,7.012,16.22,17.021,16.22,30.034V3918.602z
		 M1680.051,3914.998v-155.579l-53.461-35.141l-53.461,35.141v155.579H1680.051z M1678.849,3653.696V3518.84h-104.519v134.856
		l52.259,34.84L1678.849,3653.696z"/>
</g>
<g id="icon">
	<line class="st0" x1="630.257" y1="511.661" x2="1003.631" y2="296.103"/>
	<polyline class="st0" points="76.246,831.526 129.521,862.28 229.418,804.604 	"/>
	<polyline class="st0" points="653.151,559.964 1056.906,326.857 1003.631,296.103 	"/>
	<line class="st0" x1="1056.906" y1="388.383" x2="706.436" y2="590.728"/>
	<line class="st0" x1="229.418" y1="866.13" x2="129.521" y2="923.807"/>
	<polyline class="st0" points="96.225,904.585 96.225,881.512 76.246,869.971 76.246,893.044 96.225,904.585 	"/>
	<line class="st0" x1="129.521" y1="862.28" x2="129.521" y2="923.807"/>
	<line class="st0" x1="1056.906" y1="388.383" x2="1056.906" y2="326.857"/>
	<line class="st0" x1="96.225" y1="904.585" x2="129.521" y2="923.807"/>
	<line class="st0" x1="76.246" y1="831.526" x2="76.246" y2="869.971"/>
	<line class="st0" x1="96.225" y1="881.512" x2="129.521" y2="862.28"/>
	<polyline class="st0" points="1498.956,1261.213 1687.517,1152.345 1687.517,965.859 1498.956,1074.72 	"/>
	<polyline class="st0" points="1471.902,1032.666 1662.538,922.602 1505.198,831.76 1314.563,941.833 1331.206,951.44 
		1356.185,937.021 1480.229,1008.64 1455.25,1023.059 	"/>
	<line class="st0" x1="1662.538" y1="922.602" x2="1687.517" y2="965.859"/>
	<line class="st0" x1="1356.185" y1="937.021" x2="1356.185" y2="965.859"/>
	<polyline class="st0" points="229.418,1781.255 129.521,1838.932 76.246,1808.168 176.142,1750.492 	"/>
	<line class="st0" x1="229.418" y1="1842.772" x2="129.521" y2="1900.449"/>
	<polyline class="st0" points="96.225,1881.227 96.225,1858.154 76.246,1846.623 76.246,1869.695 96.225,1881.227 	"/>
	<polyline class="st0" points="129.521,1838.932 129.521,1900.449 96.225,1881.227 	"/>
	<line class="st0" x1="76.246" y1="1808.168" x2="76.246" y2="1846.623"/>
	<line class="st0" x1="96.225" y1="1858.154" x2="129.521" y2="1838.932"/>
	<path class="st0" d="M598.145,1888.118c-4.413,6.809-2.964,19.241,3.56,30.542c6.524,11.3,16.565,18.772,24.669,18.355"/>
	<path class="st0" d="M628.907,1926.982c0.001-13.272-9.316-29.411-20.81-36.047c-11.494-6.636-20.812-1.257-20.813,12.016
		c-0.001,13.272,9.316,29.411,20.81,36.047C619.588,1945.634,628.906,1940.254,628.907,1926.982"/>
	<line class="st0" x1="1028.6" y1="2058.583" x2="1041.094" y2="2051.369"/>
	<line class="st0" x1="1028.6" y1="2082.609" x2="1041.094" y2="2075.404"/>
	<line class="st0" x1="1028.6" y1="2010.522" x2="1041.094" y2="2003.308"/>
	<line class="st0" x1="1028.6" y1="2034.548" x2="1041.094" y2="2027.343"/>
	<line class="st0" x1="1028.6" y1="1962.452" x2="1041.094" y2="1955.247"/>
	<line class="st0" x1="1028.6" y1="1986.487" x2="1041.094" y2="1979.273"/>
	<line class="st0" x1="1028.6" y1="1914.391" x2="1041.094" y2="1907.177"/>
	<line class="st0" x1="1028.6" y1="1938.427" x2="1041.094" y2="1931.212"/>
	<line class="st0" x1="1028.6" y1="1866.331" x2="1041.094" y2="1859.117"/>
	<line class="st0" x1="1028.6" y1="1890.357" x2="1041.094" y2="1883.152"/>
	<line class="st0" x1="1028.6" y1="1770.2" x2="1041.094" y2="1762.995"/>
	<line class="st0" x1="1028.6" y1="1794.235" x2="1041.094" y2="1787.021"/>
	<line class="st0" x1="1028.6" y1="1818.261" x2="1041.094" y2="1811.056"/>
	<line class="st0" x1="1028.6" y1="1842.296" x2="1041.094" y2="1835.091"/>
	<line class="st0" x1="934.946" y1="1632.018" x2="947.44" y2="1624.813"/>
	<line class="st0" x1="955.757" y1="1644.035" x2="968.251" y2="1636.821"/>
	<line class="st0" x1="893.324" y1="1607.992" x2="905.809" y2="1600.778"/>
	<line class="st0" x1="914.135" y1="1620" x2="926.62" y2="1612.795"/>
	<line class="st0" x1="851.702" y1="1583.957" x2="864.187" y2="1576.743"/>
	<line class="st0" x1="872.513" y1="1595.974" x2="884.998" y2="1588.76"/>
	<line class="st0" x1="810.08" y1="1559.922" x2="822.565" y2="1552.717"/>
	<line class="st0" x1="830.891" y1="1571.939" x2="843.376" y2="1564.734"/>
	<line class="st0" x1="768.449" y1="1535.896" x2="780.943" y2="1528.682"/>
	<line class="st0" x1="789.26" y1="1547.904" x2="801.754" y2="1540.699"/>
	<line class="st0" x1="685.204" y1="1487.826" x2="697.689" y2="1480.621"/>
	<line class="st0" x1="706.015" y1="1499.844" x2="718.5" y2="1492.639"/>
	<line class="st0" x1="726.826" y1="1511.861" x2="739.311" y2="1504.647"/>
	<line class="st0" x1="747.637" y1="1523.879" x2="760.131" y2="1516.664"/>
	<polyline class="st0" points="554.087,1960.051 970.326,2200.373 1041.094,2159.517 	"/>
	<polyline class="st0" points="970.326,2200.373 970.326,1719.738 1041.094,1678.882 1041.094,1762.995 	"/>
	<line class="st0" x1="1041.094" y1="2075.404" x2="1041.094" y2="2159.517"/>
	<line class="st0" x1="1028.6" y1="2058.583" x2="1028.6" y2="2082.609"/>
	<line class="st0" x1="1041.094" y1="2027.343" x2="1041.094" y2="2051.369"/>
	<line class="st0" x1="1028.6" y1="2010.522" x2="1028.6" y2="2034.548"/>
	<line class="st0" x1="1041.094" y1="1979.273" x2="1041.094" y2="2003.308"/>
	<line class="st0" x1="1028.6" y1="1962.452" x2="1028.6" y2="1986.487"/>
	<line class="st0" x1="1041.094" y1="1931.212" x2="1041.094" y2="1955.247"/>
	<line class="st0" x1="1028.6" y1="1914.391" x2="1028.6" y2="1938.427"/>
	<line class="st0" x1="1041.094" y1="1883.152" x2="1041.094" y2="1907.177"/>
	<line class="st0" x1="1028.6" y1="1866.331" x2="1028.6" y2="1890.357"/>
	<line class="st0" x1="1041.094" y1="1835.091" x2="1041.094" y2="1859.117"/>
	<line class="st0" x1="1028.6" y1="1818.261" x2="1028.6" y2="1842.296"/>
	<line class="st0" x1="1041.094" y1="1787.021" x2="1041.094" y2="1811.056"/>
	<line class="st0" x1="1028.6" y1="1770.2" x2="1028.6" y2="1794.235"/>
	<polyline class="st0" points="970.326,1719.738 554.087,1479.416 624.846,1438.56 697.689,1480.621 	"/>
	<line class="st0" x1="968.251" y1="1636.821" x2="1041.094" y2="1678.882"/>
	<line class="st0" x1="934.946" y1="1632.018" x2="955.757" y2="1644.035"/>
	<line class="st0" x1="926.62" y1="1612.795" x2="947.44" y2="1624.813"/>
	<line class="st0" x1="893.324" y1="1607.992" x2="914.135" y2="1620"/>
	<line class="st0" x1="884.998" y1="1588.76" x2="905.809" y2="1600.778"/>
	<line class="st0" x1="851.702" y1="1583.957" x2="872.513" y2="1595.974"/>
	<line class="st0" x1="843.376" y1="1564.734" x2="864.187" y2="1576.743"/>
	<line class="st0" x1="810.08" y1="1559.922" x2="830.891" y2="1571.939"/>
	<line class="st0" x1="801.754" y1="1540.699" x2="822.565" y2="1552.717"/>
	<line class="st0" x1="768.449" y1="1535.896" x2="789.26" y2="1547.904"/>
	<line class="st0" x1="760.131" y1="1516.664" x2="780.943" y2="1528.682"/>
	<line class="st0" x1="726.826" y1="1511.861" x2="747.637" y2="1523.879"/>
	<line class="st0" x1="718.5" y1="1492.639" x2="739.311" y2="1504.647"/>
	<line class="st0" x1="685.204" y1="1487.826" x2="706.015" y2="1499.844"/>
	<line class="st0" x1="554.087" y1="1479.416" x2="554.087" y2="1960.051"/>
	<polyline class="st0" points="899.903,2271.982 899.903,2223.922 879.092,2211.904 	"/>
	<polyline class="st0" points="854.113,2250.358 833.302,2238.341 833.302,2286.402 854.113,2298.419 854.113,2250.358 	"/>
	<line class="st0" x1="879.092" y1="2211.904" x2="833.302" y2="2238.341"/>
	<line class="st0" x1="854.113" y1="2250.358" x2="899.903" y2="2223.922"/>
	<line class="st0" x1="854.113" y1="2298.419" x2="899.903" y2="2271.982"/>
	<line class="st0" x1="593.634" y1="2241.266" x2="593.634" y2="2217.24"/>
	<polyline class="st0" points="547.844,2267.702 547.844,2243.677 506.222,2219.642 506.222,2243.677 547.844,2267.702 	"/>
	<line class="st0" x1="593.634" y1="2217.24" x2="547.844" y2="2243.677"/>
	<line class="st0" x1="547.844" y1="2267.702" x2="593.634" y2="2241.266"/>
	<polyline class="st0" points="1028.6,2058.583 1028.6,2082.609 1045.253,2073.002 	"/>
	<polyline class="st0" points="1041.094,2046.565 1045.253,2048.967 1028.6,2058.583 	"/>
	<line class="st0" x1="1045.253" y1="2073.002" x2="1045.253" y2="2048.967"/>
	<line class="st0" x1="435.042" y1="2149.714" x2="435.042" y2="2125.679"/>
	<polyline class="st0" points="389.252,2176.141 389.252,2152.116 347.63,2128.081 347.63,2152.116 389.252,2176.141 	"/>
	<line class="st0" x1="435.042" y1="2125.679" x2="389.252" y2="2152.116"/>
	<line class="st0" x1="389.252" y1="2176.141" x2="435.042" y2="2149.714"/>
	<polyline class="st0" points="435.042,2125.679 389.252,2152.116 347.63,2128.081 	"/>
	<polyline class="st0" points="435.042,2077.618 389.252,2104.046 347.63,2080.02 	"/>
	<line class="st0" x1="389.252" y1="2152.116" x2="389.252" y2="2104.046"/>
	<line class="st0" x1="347.63" y1="2080.02" x2="347.63" y2="2128.081"/>
	<line class="st0" x1="435.042" y1="2125.679" x2="435.042" y2="2077.618"/>
	<line class="st0" x1="625.23" y1="1084.183" x2="624.763" y2="1083.903"/>
	<polyline class="st0" points="599.784,1122.357 578.973,1110.34 578.973,1158.401 599.784,1170.418 599.784,1122.357 	"/>
	<line class="st0" x1="624.763" y1="1083.903" x2="578.973" y2="1110.34"/>
	<line class="st0" x1="599.784" y1="1122.357" x2="627.781" y2="1106.2"/>
	<line class="st0" x1="599.784" y1="1170.418" x2="638.78" y2="1147.906"/>
	<line class="st0" x1="1133.497" y1="2906.901" x2="1233.393" y2="2849.225"/>
	<line class="st0" x1="1687.517" y1="2587.035" x2="2060.882" y2="2371.477"/>
	<polyline class="st0" points="1133.497,2906.901 1186.772,2937.664 1286.668,2879.988 	"/>
	<polyline class="st0" points="1676.069,2655.169 2114.157,2402.231 2060.882,2371.477 	"/>
	<line class="st0" x1="2114.157" y1="2463.758" x2="1687.517" y2="2710.079"/>
	<line class="st0" x1="1210.083" y1="2985.723" x2="1186.772" y2="2999.182"/>
	<line class="st0" x1="1286.668" y1="2941.505" x2="1210.083" y2="2985.723"/>
	<polyline class="st0" points="1153.476,2979.959 1153.476,2956.887 1133.497,2945.346 1133.497,2968.418 1153.476,2979.959 	"/>
	<line class="st0" x1="1186.772" y1="2937.664" x2="1186.772" y2="2999.182"/>
	<line class="st0" x1="2114.157" y1="2463.758" x2="2114.157" y2="2402.231"/>
	<line class="st0" x1="1153.476" y1="2979.959" x2="1186.772" y2="2999.182"/>
	<line class="st0" x1="1133.497" y1="2906.901" x2="1133.497" y2="2945.346"/>
	<line class="st0" x1="1153.476" y1="2956.887" x2="1186.772" y2="2937.664"/>
	<polyline class="st0" points="624.763,1083.903 578.973,1110.34 578.973,1158.401 	"/>
	<polyline class="st0" points="583.141,1059.878 537.351,1086.314 537.351,1134.375 	"/>
	<line class="st0" x1="578.973" y1="1110.34" x2="537.351" y2="1086.314"/>
	<line class="st0" x1="537.351" y1="1134.375" x2="578.973" y2="1158.401"/>
	<line class="st0" x1="624.763" y1="1083.903" x2="583.141" y2="1059.878"/>
	<path class="st0" d="M229.421,2329.999c13.82-8.573,13.821-34.784,0.002-59.316"/>
	<path class="st0" d="M228.465,2269.023c-14.334-24.233-37.033-37.34-51.368-29.659"/>
	<path class="st0" d="M229.421,865.022c13.82-8.574,13.821-34.784,0.002-59.316"/>
	<path class="st0" d="M228.465,804.046c-14.334-24.234-37.033-37.34-51.368-29.659"/>
	<path class="st0" d="M1286.681,1475.429c13.82-8.574,13.821-34.785,0.002-59.316"/>
	<path class="st0" d="M1285.725,1414.453c-14.334-24.234-37.033-37.34-51.368-29.659"/>
	<path class="st0" d="M1286.681,2207.917c13.82-8.573,13.821-34.784,0.002-59.316"/>
	<path class="st0" d="M1285.725,2146.942c-14.334-24.234-37.033-37.34-51.368-29.659"/>
	<path class="st0" d="M1286.681,2452.08c13.82-8.573,13.821-34.785,0.002-59.316"/>
	<path class="st0" d="M1285.725,2391.104c-14.334-24.234-37.033-37.34-51.368-29.659"/>
	<path class="st0" d="M1286.681,2696.243c13.82-8.574,13.821-34.785,0.002-59.316"/>
	<path class="st0" d="M1285.725,2635.267c-14.334-24.233-37.033-37.34-51.368-29.659"/>
	<path class="st0" d="M229.421,620.859c13.82-8.574,13.821-34.784,0.002-59.316"/>
	<path class="st0" d="M228.465,559.883c-14.334-24.234-37.033-37.34-51.368-29.659"/>
	<path class="st0" d="M229.421,2085.836c13.82-8.574,13.821-34.785,0.002-59.316"/>
	<path class="st0" d="M228.465,2024.86c-14.334-24.234-37.033-37.34-51.368-29.659"/>
	<path class="st0" d="M1286.681,1231.266c13.82-8.573,13.821-34.785,0.002-59.316"/>
	<path class="st0" d="M1285.725,1170.29c-14.334-24.234-37.033-37.34-51.368-29.659"/>
	<path class="st0" d="M229.421,1841.673c13.82-8.574,13.821-34.785,0.002-59.316"/>
	<path class="st0" d="M228.465,1780.698c-14.334-24.234-37.033-37.34-51.368-29.659"/>
	<path class="st0" d="M229.421,1597.51c13.82-8.574,13.821-34.785,0.002-59.316"/>
	<path class="st0" d="M228.465,1536.535c-14.334-24.234-37.033-37.34-51.368-29.659"/>
	<path class="st0" d="M229.421,1109.184c13.82-8.573,13.821-34.784,0.002-59.316"/>
	<path class="st0" d="M228.465,1048.209c-14.334-24.234-37.033-37.34-51.368-29.659"/>
	<path class="st0" d="M229.421,1353.347c13.82-8.574,13.821-34.785,0.002-59.316"/>
	<path class="st0" d="M228.465,1292.372c-14.334-24.234-37.033-37.34-51.368-29.659"/>
	<path class="st0" d="M1286.681,1719.591c13.82-8.573,13.821-34.785,0.002-59.316"/>
	<path class="st0" d="M1285.725,1658.616c-14.334-24.234-37.033-37.34-51.368-29.659"/>
	<path class="st0" d="M1286.681,1963.754c13.82-8.573,13.821-34.785,0.002-59.316"/>
	<path class="st0" d="M1285.725,1902.779c-14.334-24.234-37.033-37.34-51.368-29.659"/>
	<path class="st0" d="M1286.681,2940.396c13.82-8.573,13.821-34.784,0.002-59.316"/>
	<path class="st0" d="M1285.725,2879.421c-14.334-24.234-37.033-37.34-51.368-29.659"/>
	<path class="st0" d="M874.145,2379.567c-0.001-10.115-7.102-22.416-15.861-27.474c-8.759-5.059-15.858-0.96-15.857,9.155
		c0.001,10.115,7.102,22.416,15.861,27.474C867.046,2393.781,874.146,2389.682,874.145,2379.567"/>
	<path class="st0" d="M597.435,1454.394c-3.174-8.806-9.854-16.512-16.587-19.136c-6.733-2.624-12.01,0.423-13.105,7.566
		c-1.095,7.142,2.239,16.781,8.277,23.933"/>
	<path class="st0" d="M1085.591,2672.566c-0.001-10.115-7.102-22.416-15.861-27.475c-8.759-5.059-15.858-0.96-15.857,9.155
		c0.001,10.115,7.102,22.416,15.861,27.474C1078.493,2686.78,1085.592,2682.681,1085.591,2672.566"/>
	<path class="st0" d="M1127.886,1537.211c-0.001-10.115-7.102-22.416-15.861-27.474c-8.759-5.059-15.858-0.96-15.857,9.155
		c0.001,10.115,7.102,22.416,15.861,27.474C1120.787,1551.425,1127.887,1547.326,1127.886,1537.211"/>
	<line class="st0" x1="1498.979" y1="1048.305" x2="230.048" y2="315.684"/>
	<line class="st0" x1="1498.956" y1="3001.546" x2="1498.956" y2="1048.346"/>
	<line class="st0" x1="97.057" y1="392.705" x2="97.057" y2="575.346"/>
	<line class="st0" x1="97.057" y1="660.899" x2="97.057" y2="819.509"/>
	<line class="st0" x1="97.057" y1="905.061" x2="97.057" y2="1063.672"/>
	<line class="st0" x1="97.057" y1="1149.224" x2="97.057" y2="1307.835"/>
	<line class="st0" x1="97.057" y1="1393.387" x2="97.057" y2="1551.997"/>
	<line class="st0" x1="97.057" y1="1637.55" x2="97.057" y2="1796.151"/>
	<line class="st0" x1="97.057" y1="1881.713" x2="97.057" y2="2040.314"/>
	<line class="st0" x1="97.057" y1="2125.866" x2="97.057" y2="2284.479"/>
	<line class="st0" x1="202.775" y1="2407.044" x2="1133.497" y2="2944.393"/>
	<line class="st0" x1="1207.584" y1="2987.165" x2="1365.754" y2="3078.466"/>
	<path class="st0" d="M1365.754,1089.983"/>
	<line class="st0" x1="1365.754" y1="3078.466" x2="1365.754" y2="1125.185"/>
	<line class="st0" x1="1365.754" y1="1125.185" x2="97.057" y2="392.705"/>
	<polyline class="st0" points="583.141,1059.878 537.351,1086.314 537.351,1134.375 	"/>
	<polyline class="st0" points="583.141,1059.878 562.33,1047.86 516.54,1074.296 516.54,1122.357 537.351,1134.375 	"/>
	<line class="st0" x1="537.351" y1="1086.314" x2="516.54" y2="1074.296"/>
	<polyline class="st0" points="897.408,2530.948 939.03,2554.982 984.81,2528.546 	"/>
	<polyline class="st0" points="897.408,2554.982 939.03,2579.008 984.81,2552.581 	"/>
	<line class="st0" x1="939.03" y1="2579.008" x2="939.03" y2="2554.982"/>
	<line class="st0" x1="984.81" y1="2552.581" x2="984.81" y2="2528.546"/>
	<line class="st0" x1="897.408" y1="2530.948" x2="897.408" y2="2554.982"/>
	<polyline class="st0" points="1028.6,1818.261 1028.6,1842.296 1045.253,1832.68 	"/>
	<polyline class="st0" points="1041.094,1806.253 1045.253,1808.654 1028.6,1818.261 	"/>
	<line class="st0" x1="1045.253" y1="1832.68" x2="1045.253" y2="1808.654"/>
	<polyline class="st0" points="1028.6,1962.452 1028.6,1986.487 1045.253,1976.871 	"/>
	<polyline class="st0" points="1041.094,1950.435 1045.253,1952.846 1028.6,1962.452 	"/>
	<line class="st0" x1="1045.253" y1="1976.871" x2="1045.253" y2="1952.846"/>
	<polyline class="st0" points="972.41,1634.419 951.599,1622.411 934.946,1632.018 955.757,1644.035 972.41,1634.419 
		972.41,1639.232 	"/>
	<polyline class="st0" points="930.788,1610.394 909.977,1598.376 893.324,1607.992 914.135,1620 930.788,1610.394 
		930.788,1615.197 	"/>
	<line class="st0" x1="76.246" y1="587.364" x2="176.142" y2="529.687"/>
	<line class="st0" x1="579.065" y1="297.056" x2="1003.631" y2="51.94"/>
	<polyline class="st0" points="76.246,587.364 129.521,618.127 229.418,560.451 	"/>
	<polyline class="st0" points="618.809,335.631 1056.906,82.694 1003.631,51.94 	"/>
	<line class="st0" x1="1056.906" y1="144.22" x2="630.257" y2="390.542"/>
	<line class="st0" x1="229.418" y1="621.968" x2="129.521" y2="679.644"/>
	<polyline class="st0" points="96.225,660.422 96.225,637.349 76.246,625.808 76.246,648.881 96.225,660.422 	"/>
	<line class="st0" x1="129.521" y1="618.127" x2="129.521" y2="679.644"/>
	<line class="st0" x1="1056.906" y1="144.22" x2="1056.906" y2="82.694"/>
	<line class="st0" x1="96.225" y1="660.422" x2="129.521" y2="679.644"/>
	<line class="st0" x1="76.246" y1="587.364" x2="76.246" y2="625.808"/>
	<line class="st0" x1="96.225" y1="637.349" x2="129.521" y2="618.127"/>
	<line class="st0" x1="1133.497" y1="2174.413" x2="1233.393" y2="2116.736"/>
	<line class="st0" x1="1687.517" y1="1854.556" x2="2060.882" y2="1638.989"/>
	<polyline class="st0" points="1133.497,2174.413 1186.772,2205.176 1286.668,2147.499 	"/>
	<polyline class="st0" points="1676.069,1922.681 2114.157,1669.752 2060.882,1638.989 	"/>
	<line class="st0" x1="2114.157" y1="1731.269" x2="1687.517" y2="1977.591"/>
	<line class="st0" x1="1286.668" y1="2209.017" x2="1186.772" y2="2266.693"/>
	<polyline class="st0" points="1153.476,2247.471 1153.476,2224.398 1133.497,2212.867 1133.497,2235.939 1153.476,2247.471 	"/>
	<line class="st0" x1="1186.772" y1="2205.176" x2="1186.772" y2="2266.693"/>
	<line class="st0" x1="2114.157" y1="1731.269" x2="2114.157" y2="1669.752"/>
	<line class="st0" x1="1153.476" y1="2247.471" x2="1186.772" y2="2266.693"/>
	<line class="st0" x1="1133.497" y1="2174.413" x2="1133.497" y2="2212.867"/>
	<line class="st0" x1="1153.476" y1="2224.398" x2="1186.772" y2="2205.176"/>
	<polyline class="st0" points="1498.956,2482.018 1687.517,2373.159 1687.517,2186.673 1498.956,2295.531 	"/>
	<line class="st0" x1="1662.538" y1="2143.416" x2="1687.517" y2="2186.673"/>
	<line class="st0" x1="1133.497" y1="2662.738" x2="1233.393" y2="2605.062"/>
	<line class="st0" x1="1687.517" y1="2342.873" x2="2060.882" y2="2127.314"/>
	<polyline class="st0" points="1133.497,2662.738 1186.772,2693.502 1286.668,2635.825 	"/>
	<polyline class="st0" points="1676.069,2411.006 2114.157,2158.068 2060.882,2127.314 	"/>
	<line class="st0" x1="2114.157" y1="2219.595" x2="1687.517" y2="2465.917"/>
	<line class="st0" x1="1286.668" y1="2697.342" x2="1186.772" y2="2755.019"/>
	<polyline class="st0" points="1153.476,2735.796 1153.476,2712.724 1133.497,2701.192 1133.497,2724.256 1153.476,2735.796 	"/>
	<line class="st0" x1="1186.772" y1="2693.502" x2="1186.772" y2="2755.019"/>
	<line class="st0" x1="2114.157" y1="2219.595" x2="2114.157" y2="2158.068"/>
	<line class="st0" x1="1153.476" y1="2735.796" x2="1186.772" y2="2755.019"/>
	<line class="st0" x1="1133.497" y1="2662.738" x2="1133.497" y2="2701.192"/>
	<line class="st0" x1="1153.476" y1="2712.724" x2="1186.772" y2="2693.502"/>
	<line class="st0" x1="1133.497" y1="2418.575" x2="1233.393" y2="2360.899"/>
	<line class="st0" x1="1687.517" y1="2098.71" x2="2060.882" y2="1883.152"/>
	<polyline class="st0" points="1133.497,2418.575 1186.772,2449.339 1286.668,2391.662 	"/>
	<polyline class="st0" points="1676.069,2166.843 2114.157,1913.915 2060.882,1883.152 	"/>
	<line class="st0" x1="2114.157" y1="1975.432" x2="1687.517" y2="2221.754"/>
	<line class="st0" x1="1286.668" y1="2453.179" x2="1186.772" y2="2510.856"/>
	<polyline class="st0" points="1153.476,2491.634 1153.476,2468.561 1133.497,2457.03 1133.497,2480.093 1153.476,2491.634 	"/>
	<line class="st0" x1="1186.772" y1="2449.339" x2="1186.772" y2="2510.856"/>
	<line class="st0" x1="2114.157" y1="1975.432" x2="2114.157" y2="1913.915"/>
	<line class="st0" x1="1153.476" y1="2491.634" x2="1186.772" y2="2510.856"/>
	<line class="st0" x1="1133.497" y1="2418.575" x2="1133.497" y2="2457.03"/>
	<line class="st0" x1="1153.476" y1="2468.561" x2="1186.772" y2="2449.339"/>
	<line class="st0" x1="1133.497" y1="1930.25" x2="1233.393" y2="1872.573"/>
	<line class="st0" x1="1687.517" y1="1610.394" x2="2060.882" y2="1394.826"/>
	<polyline class="st0" points="1133.497,1930.25 1186.772,1961.013 1286.668,1903.337 	"/>
	<polyline class="st0" points="1676.069,1678.518 2114.157,1425.589 2060.882,1394.826 	"/>
	<line class="st0" x1="2114.157" y1="1487.107" x2="1687.517" y2="1733.428"/>
	<line class="st0" x1="1286.668" y1="1964.854" x2="1186.772" y2="2022.531"/>
	<polyline class="st0" points="1153.476,2003.308 1153.476,1980.235 1133.497,1968.704 1133.497,1991.776 1153.476,2003.308 	"/>
	<line class="st0" x1="1186.772" y1="1961.013" x2="1186.772" y2="2022.531"/>
	<line class="st0" x1="2114.157" y1="1487.107" x2="2114.157" y2="1425.589"/>
	<line class="st0" x1="1153.476" y1="2003.308" x2="1186.772" y2="2022.531"/>
	<line class="st0" x1="1133.497" y1="1930.25" x2="1133.497" y2="1968.704"/>
	<line class="st0" x1="1153.476" y1="1980.235" x2="1186.772" y2="1961.013"/>
	<line class="st0" x1="1133.497" y1="1686.087" x2="1233.393" y2="1628.41"/>
	<line class="st0" x1="1687.517" y1="1366.231" x2="2060.882" y2="1150.663"/>
	<polyline class="st0" points="1133.497,1686.087 1186.772,1716.85 1286.668,1659.174 	"/>
	<polyline class="st0" points="1676.069,1434.355 2114.157,1181.427 2060.882,1150.663 	"/>
	<line class="st0" x1="2114.157" y1="1242.944" x2="1687.517" y2="1489.275"/>
	<line class="st0" x1="1286.668" y1="1720.7" x2="1186.772" y2="1778.368"/>
	<polyline class="st0" points="1153.476,1759.145 1153.476,1736.073 1133.497,1724.541 1133.497,1747.614 1153.476,1759.145 	"/>
	<line class="st0" x1="1186.772" y1="1716.85" x2="1186.772" y2="1778.368"/>
	<line class="st0" x1="2114.157" y1="1242.944" x2="2114.157" y2="1181.427"/>
	<line class="st0" x1="1153.476" y1="1759.145" x2="1186.772" y2="1778.368"/>
	<line class="st0" x1="1133.497" y1="1686.087" x2="1133.497" y2="1724.541"/>
	<line class="st0" x1="1153.476" y1="1736.073" x2="1186.772" y2="1716.85"/>
	<polyline class="st0" points="1498.956,1505.376 1687.517,1396.508 1687.517,1210.022 1498.956,1318.89 	"/>
	<line class="st0" x1="1662.538" y1="1166.764" x2="1687.517" y2="1210.022"/>
	<line class="st0" x1="397.999" y1="412.652" x2="414.642" y2="422.268"/>
	<polyline class="st0" points="626.098,544.349 630.257,541.938 630.257,355.452 464.6,451.106 	"/>
	<polyline class="st0" points="414.642,422.268 605.287,312.204 447.947,221.362 257.303,331.426 273.955,341.033 298.934,326.614 
		422.969,398.233 397.999,412.652 	"/>
	<line class="st0" x1="605.287" y1="312.204" x2="630.257" y2="355.452"/>
	<line class="st0" x1="298.934" y1="326.614" x2="298.934" y2="354.363"/>
	<polyline class="st0" points="1062.064,1643.119 1062.064,1691.189 1062.064,1715.215 	"/>
	<polyline class="st0" points="1132.833,1722.429 1132.833,1698.394 1132.833,1650.333 	"/>
	<polyline class="st0" points="1132.833,1722.429 1103.696,1739.25 1103.696,1715.215 1103.696,1667.154 	"/>
	<line class="st0" x1="1062.064" y1="1715.215" x2="1103.696" y2="1739.25"/>
	<line class="st0" x1="1103.696" y1="1667.154" x2="1103.696" y2="1643.119"/>
	<polyline class="st0" points="1132.833,1650.333 1132.833,1626.298 1103.696,1643.119 	"/>
	<polyline class="st0" points="1132.833,1626.298 1091.202,1602.263 1062.064,1619.094 1103.696,1643.119 	"/>
	<line class="st0" x1="1062.064" y1="1619.094" x2="1062.064" y2="1643.119"/>
	<line class="st0" x1="1133.497" y1="1197.771" x2="1233.393" y2="1140.094"/>
	<line class="st0" x1="1636.316" y1="907.463" x2="2060.882" y2="662.337"/>
	<polyline class="st0" points="1133.497,1197.771 1186.772,1228.525 1286.668,1170.848 	"/>
	<polyline class="st0" points="1676.069,946.039 2114.157,693.101 2060.882,662.337 	"/>
	<line class="st0" x1="2114.157" y1="754.618" x2="1687.517" y2="1000.949"/>
	<line class="st0" x1="1286.668" y1="1232.375" x2="1186.772" y2="1290.051"/>
	<polyline class="st0" points="1153.476,1270.819 1153.476,1247.756 1133.497,1236.216 1133.497,1259.288 1153.476,1270.819 	"/>
	<line class="st0" x1="1186.772" y1="1228.525" x2="1186.772" y2="1290.051"/>
	<line class="st0" x1="2114.157" y1="754.618" x2="2114.157" y2="693.101"/>
	<line class="st0" x1="1153.476" y1="1270.819" x2="1186.772" y2="1290.051"/>
	<line class="st0" x1="1133.497" y1="1197.771" x2="1133.497" y2="1236.216"/>
	<line class="st0" x1="1153.476" y1="1247.756" x2="1186.772" y2="1228.525"/>
	<polyline class="st0" points="897.408,2482.887 939.03,2506.912 984.81,2480.485 	"/>
	<polyline class="st0" points="897.408,2482.887 897.408,2530.948 939.03,2554.982 984.81,2528.546 	"/>
	<line class="st0" x1="939.03" y1="2554.982" x2="939.03" y2="2506.912"/>
	<line class="st0" x1="984.81" y1="2528.546" x2="984.81" y2="2480.485"/>
	<line class="st0" x1="987.399" y1="1380.267" x2="945.767" y2="1356.232"/>
	<line class="st0" x1="1016.536" y1="1363.437" x2="974.905" y2="1339.411"/>
	<line class="st0" x1="945.767" y1="1356.232" x2="924.956" y2="1344.214"/>
	<polyline class="st0" points="974.905,1339.411 954.094,1327.393 924.956,1344.214 	"/>
	<polyline class="st0" points="924.956,1344.214 924.956,1392.275 945.767,1404.292 987.399,1428.327 1008.21,1440.345 
		1037.347,1423.524 1037.347,1375.454 1008.21,1392.275 1008.21,1440.345 	"/>
	<line class="st0" x1="1037.347" y1="1375.454" x2="1016.536" y2="1363.437"/>
	<line class="st0" x1="1008.21" y1="1392.275" x2="987.399" y2="1380.267"/>
	<polyline class="st0" points="435.042,2077.618 389.252,2104.046 347.63,2080.02 	"/>
	<polyline class="st0" points="435.042,2053.583 393.42,2029.548 347.63,2055.985 389.252,2080.02 435.042,2053.583 	"/>
	<line class="st0" x1="347.63" y1="2055.985" x2="347.63" y2="2080.02"/>
	<line class="st0" x1="435.042" y1="2077.618" x2="435.042" y2="2053.583"/>
	<line class="st0" x1="389.252" y1="2104.046" x2="389.252" y2="2080.02"/>
	<polyline class="st0" points="1003.126,2299.765 1044.748,2323.79 1090.538,2297.363 	"/>
	<polyline class="st0" points="1003.126,2299.765 1003.126,2347.825 1044.748,2371.861 1090.538,2345.424 	"/>
	<line class="st0" x1="1044.748" y1="2371.861" x2="1044.748" y2="2323.79"/>
	<polyline class="st0" points="1090.538,2345.424 1090.538,2297.363 1090.538,2273.328 1048.916,2249.293 	"/>
	<polyline class="st0" points="1048.916,2249.293 1003.126,2275.73 1003.126,2299.765 1044.748,2323.79 1044.748,2299.765 
		1003.126,2275.73 	"/>
	<line class="st0" x1="1044.748" y1="2323.79" x2="1090.538" y2="2297.363"/>
	<line class="st0" x1="1044.748" y1="2299.765" x2="1090.538" y2="2273.328"/>
	<polyline class="st0" points="470.011,861.804 470.011,909.865 470.011,933.899 	"/>
	<polyline class="st0" points="540.77,941.104 540.77,917.079 540.77,869.009 	"/>
	<polyline class="st0" points="540.77,941.104 511.633,957.935 511.633,933.899 511.633,885.839 	"/>
	<line class="st0" x1="470.011" y1="933.899" x2="511.633" y2="957.935"/>
	<line class="st0" x1="511.633" y1="885.839" x2="511.633" y2="861.804"/>
	<polyline class="st0" points="540.77,869.009 540.77,844.983 511.633,861.804 	"/>
	<polyline class="st0" points="540.77,844.983 499.148,820.948 470.011,837.769 511.633,861.804 	"/>
	<line class="st0" x1="470.011" y1="837.769" x2="470.011" y2="861.804"/>
	<polyline class="st0" points="984.81,2480.485 984.81,2456.45 943.188,2432.415 	"/>
	<polyline class="st0" points="943.188,2432.415 897.408,2458.852 897.408,2482.887 939.03,2506.912 939.03,2482.887 
		897.408,2458.852 	"/>
	<line class="st0" x1="939.03" y1="2506.912" x2="984.81" y2="2480.485"/>
	<line class="st0" x1="939.03" y1="2482.887" x2="984.81" y2="2456.45"/>
	<polyline class="st0" points="593.634,2217.24 547.844,2243.677 506.222,2219.642 	"/>
	<polyline class="st0" points="593.634,2169.179 547.844,2195.607 506.222,2171.581 	"/>
	<line class="st0" x1="547.844" y1="2243.677" x2="547.844" y2="2195.607"/>
	<line class="st0" x1="506.222" y1="2171.581" x2="506.222" y2="2219.642"/>
	<line class="st0" x1="593.634" y1="2217.24" x2="593.634" y2="2169.179"/>
	<polyline class="st0" points="879.092,2211.904 833.302,2238.341 833.302,2286.402 	"/>
	<polyline class="st0" points="837.46,2187.869 791.68,2214.306 791.68,2262.366 	"/>
	<line class="st0" x1="833.302" y1="2238.341" x2="791.68" y2="2214.306"/>
	<line class="st0" x1="791.68" y1="2262.366" x2="833.302" y2="2286.402"/>
	<line class="st0" x1="879.092" y1="2211.904" x2="837.46" y2="2187.869"/>
	<polyline class="st0" points="229.418,1537.092 129.521,1594.769 76.246,1564.005 176.142,1506.329 	"/>
	<line class="st0" x1="229.418" y1="1598.619" x2="129.521" y2="1656.295"/>
	<polyline class="st0" points="96.225,1637.064 96.225,1613.991 76.246,1602.46 76.246,1625.532 96.225,1637.064 	"/>
	<polyline class="st0" points="129.521,1594.769 129.521,1656.295 96.225,1637.064 	"/>
	<line class="st0" x1="76.246" y1="1564.005" x2="76.246" y2="1602.46"/>
	<line class="st0" x1="96.225" y1="1613.991" x2="129.521" y2="1594.769"/>
	<line class="st0" x1="1133.497" y1="1441.924" x2="1233.393" y2="1384.257"/>
	<line class="st0" x1="1687.517" y1="1122.068" x2="2060.882" y2="906.5"/>
	<polyline class="st0" points="1133.497,1441.924 1186.772,1472.688 1286.668,1415.011 	"/>
	<polyline class="st0" points="1676.069,1190.192 2114.157,937.264 2060.882,906.5 	"/>
	<line class="st0" x1="2114.157" y1="998.781" x2="1687.517" y2="1245.112"/>
	<line class="st0" x1="1286.668" y1="1476.538" x2="1186.772" y2="1534.214"/>
	<polyline class="st0" points="1153.476,1514.982 1153.476,1491.91 1133.497,1480.378 1133.497,1503.451 1153.476,1514.982 	"/>
	<line class="st0" x1="1186.772" y1="1472.688" x2="1186.772" y2="1534.214"/>
	<line class="st0" x1="2114.157" y1="998.781" x2="2114.157" y2="937.264"/>
	<line class="st0" x1="1153.476" y1="1514.982" x2="1186.772" y2="1534.214"/>
	<line class="st0" x1="1133.497" y1="1441.924" x2="1133.497" y2="1480.378"/>
	<line class="st0" x1="1153.476" y1="1491.91" x2="1186.772" y2="1472.688"/>
	<polyline class="st0" points="229.418,1292.93 129.521,1350.606 76.246,1319.852 176.142,1262.176 	"/>
	<line class="st0" x1="229.418" y1="1354.456" x2="129.521" y2="1412.133"/>
	<polyline class="st0" points="96.225,1392.901 96.225,1369.838 76.246,1358.297 76.246,1381.369 96.225,1392.901 	"/>
	<polyline class="st0" points="129.521,1350.606 129.521,1412.133 96.225,1392.901 	"/>
	<line class="st0" x1="76.246" y1="1319.852" x2="76.246" y2="1358.297"/>
	<line class="st0" x1="96.225" y1="1369.838" x2="129.521" y2="1350.606"/>
	<polyline class="st0" points="1498.956,1749.529 1687.517,1640.671 1687.517,1454.185 1498.956,1563.052 	"/>
	<line class="st0" x1="1662.538" y1="1410.927" x2="1687.517" y2="1454.185"/>
	<polyline class="st0" points="1498.956,1993.692 1687.517,1884.834 1687.517,1698.347 1498.956,1807.206 	"/>
	<line class="st0" x1="1662.538" y1="1655.09" x2="1687.517" y2="1698.347"/>
	<polyline class="st0" points="764.29,1514.263 743.479,1502.245 726.826,1511.861 747.637,1523.879 764.29,1514.263 
		764.29,1519.066 	"/>
	<polyline class="st0" points="847.534,1562.323 826.723,1550.315 810.08,1559.922 830.891,1571.939 847.534,1562.323 
		847.534,1567.136 	"/>
	<polyline class="st0" points="229.418,2025.418 129.521,2083.094 76.246,2052.331 176.142,1994.655 	"/>
	<line class="st0" x1="229.418" y1="2086.935" x2="129.521" y2="2144.612"/>
	<polyline class="st0" points="96.225,2125.389 96.225,2102.317 76.246,2090.785 76.246,2113.858 96.225,2125.389 	"/>
	<polyline class="st0" points="129.521,2083.094 129.521,2144.612 96.225,2125.389 	"/>
	<line class="st0" x1="76.246" y1="2052.331" x2="76.246" y2="2090.785"/>
	<line class="st0" x1="96.225" y1="2102.317" x2="129.521" y2="2083.094"/>
	<polyline class="st0" points="805.912,1538.298 785.101,1526.28 768.449,1535.896 789.26,1547.904 805.912,1538.298 
		805.912,1543.101 	"/>
	<polyline class="st0" points="1498.956,2970.346 1687.517,2861.476 1687.517,2674.989 1498.956,2783.857 	"/>
	<line class="st0" x1="1662.538" y1="2631.741" x2="1687.517" y2="2674.989"/>
	<polyline class="st0" points="1498.956,2726.181 1687.517,2617.322 1687.517,2430.836 1498.956,2539.694 	"/>
	<line class="st0" x1="1662.538" y1="2387.578" x2="1687.517" y2="2430.836"/>
	<polyline class="st0" points="1498.956,2237.855 1687.517,2128.997 1687.517,1942.51 1498.956,2051.369 	"/>
	<line class="st0" x1="1662.538" y1="1899.253" x2="1687.517" y2="1942.51"/>
	<polyline class="st0" points="722.668,1490.228 701.857,1478.22 685.204,1487.826 706.015,1499.844 722.668,1490.228 
		722.668,1495.04 	"/>
	<polyline class="st0" points="1028.6,2010.522 1028.6,2034.548 1045.253,2024.941 	"/>
	<polyline class="st0" points="1041.094,1998.505 1045.253,2000.906 1028.6,2010.522 	"/>
	<line class="st0" x1="1045.253" y1="2024.941" x2="1045.253" y2="2000.906"/>
	<polyline class="st0" points="529.865,2567.14 571.487,2591.175 621.435,2562.337 	"/>
	<line class="st0" x1="305.092" y1="2437.368" x2="346.714" y2="2461.403"/>
	<polyline class="st0" points="621.435,2562.337 621.435,2442.171 579.813,2418.146 	"/>
	<line class="st0" x1="396.663" y1="2312.408" x2="355.041" y2="2288.373"/>
	<polyline class="st0" points="621.435,2442.171 571.487,2471.01 529.865,2446.984 	"/>
	<polyline class="st0" points="346.714,2341.237 305.092,2317.212 355.041,2288.373 	"/>
	<line class="st0" x1="571.487" y1="2591.175" x2="571.487" y2="2471.01"/>
	<line class="st0" x1="305.092" y1="2317.212" x2="305.092" y2="2437.368"/>
	<line class="st0" x1="346.714" y1="2461.403" x2="529.865" y2="2567.14"/>
	<line class="st0" x1="529.865" y1="2446.984" x2="346.714" y2="2341.237"/>
	<line class="st0" x1="579.813" y1="2418.146" x2="396.663" y2="2312.408"/>
	<line class="st0" x1="849.954" y1="2643.796" x2="808.323" y2="2619.771"/>
	<line class="st0" x1="879.092" y1="2626.975" x2="837.46" y2="2602.95"/>
	<line class="st0" x1="808.323" y1="2619.771" x2="787.512" y2="2607.753"/>
	<polyline class="st0" points="837.46,2602.95 816.649,2590.932 787.512,2607.753 	"/>
	<polyline class="st0" points="787.512,2607.753 787.512,2655.814 808.323,2667.831 849.954,2691.866 870.766,2703.884 
		899.903,2687.054 899.903,2638.993 870.766,2655.814 870.766,2703.884 	"/>
	<line class="st0" x1="899.903" y1="2638.993" x2="879.092" y2="2626.975"/>
	<line class="st0" x1="870.766" y1="2655.814" x2="849.954" y2="2643.796"/>
	<polyline class="st0" points="364.283,1634.466 330.978,1615.244 281.029,1644.082 314.334,1663.304 	"/>
	<polyline class="st0" points="464.179,1692.142 497.475,1711.374 447.527,1740.212 414.231,1720.981 	"/>
	<line class="st0" x1="497.475" y1="1831.531" x2="497.475" y2="1711.374"/>
	<line class="st0" x1="281.029" y1="1764.238" x2="314.334" y2="1783.47"/>
	<polyline class="st0" points="414.231,1841.146 447.527,1860.369 497.475,1831.531 	"/>
	<line class="st0" x1="281.029" y1="1644.082" x2="281.029" y2="1764.238"/>
	<line class="st0" x1="447.527" y1="1860.369" x2="447.527" y2="1740.212"/>
	<line class="st0" x1="314.334" y1="1783.47" x2="414.231" y2="1841.146"/>
	<line class="st0" x1="464.179" y1="1692.142" x2="364.283" y2="1634.466"/>
	<line class="st0" x1="414.231" y1="1720.981" x2="314.334" y2="1663.304"/>
	<polyline class="st0" points="593.634,2169.179 547.844,2195.607 506.222,2171.581 	"/>
	<polyline class="st0" points="593.634,2145.145 552.003,2121.109 506.222,2147.546 547.844,2171.581 593.634,2145.145 	"/>
	<line class="st0" x1="506.222" y1="2147.546" x2="506.222" y2="2171.581"/>
	<line class="st0" x1="593.634" y1="2169.179" x2="593.634" y2="2145.145"/>
	<line class="st0" x1="547.844" y1="2195.607" x2="547.844" y2="2171.581"/>
	<polyline class="st0" points="1028.6,1866.331 1028.6,1890.357 1045.253,1880.75 	"/>
	<polyline class="st0" points="1041.094,1854.313 1045.253,1856.715 1028.6,1866.331 	"/>
	<line class="st0" x1="1045.253" y1="1880.75" x2="1045.253" y2="1856.715"/>
	<polyline class="st0" points="1028.6,1770.2 1028.6,1794.235 1045.253,1784.619 	"/>
	<polyline class="st0" points="1041.094,1758.183 1045.253,1760.584 1028.6,1770.2 	"/>
	<line class="st0" x1="1045.253" y1="1784.619" x2="1045.253" y2="1760.584"/>
	<path class="st0" d="M794.165,1130.554c-2.354-5.356-5.341-10.528-8.801-15.246"/>
	<line class="st0" x1="747.891" y1="1093.687" x2="768.534" y2="1081.772"/>
	<path class="st0" d="M747.903,1093.679c-3.461,0.721-6.447,2.445-8.802,5.082"/>
	<line class="st0" x1="747.891" y1="1093.687" x2="739.088" y2="1098.771"/>
	<path class="st0" d="M763.902,1084.444c-7.69,8.612-7.69,25.765-0.001,43.256"/>
	<line class="st0" x1="739.088" y1="1142.028" x2="763.889" y2="1127.703"/>
	<path class="st0" d="M739.1,1142.017c2.354,5.356,5.341,10.528,8.801,15.246"/>
	<line class="st0" x1="772.692" y1="1142.953" x2="747.891" y2="1157.27"/>
	<path class="st0" d="M772.702,1142.946c11.303,15.406,26.157,23.983,37.461,21.63"/>
	<line class="st0" x1="785.354" y1="1178.894" x2="794.157" y2="1173.819"/>
	<path class="st0" d="M785.362,1178.892c3.461-0.72,6.447-2.444,8.802-5.081"/>
	<line class="st0" x1="814.791" y1="1161.905" x2="794.157" y2="1173.819"/>
	<path class="st0" d="M775.037,1098.067c1.896,18.532,13.789,39.133,28.89,50.042"/>
	<path class="st0" d="M871.399,1279.711c48.766-28.153,48.769-119.448,0.007-203.914
		c-48.762-84.465-127.825-130.116-176.591-101.963"/>
	<path class="st0" d="M874.671,1218.103c0.003-79.633-55.901-176.468-124.864-216.287s-124.871-7.543-124.874,72.09
		c-0.003,79.633,55.901,176.468,124.864,216.287C818.76,1330.012,874.668,1297.736,874.671,1218.103"/>
	<polyline class="st0" points="809.361,1158.765 808.978,1157.999 808.604,1157.251 808.231,1156.522 807.875,1155.802 
		807.52,1155.111 807.175,1154.429 806.829,1153.756 806.502,1153.102 806.175,1152.466 805.848,1151.84 805.539,1151.233 
		805.231,1150.635 804.923,1150.046 804.623,1149.467 804.334,1148.906 804.044,1148.355 803.764,1147.813 803.493,1147.28 
		803.212,1146.757 802.951,1146.252 802.68,1145.747 802.428,1145.262 802.166,1144.776 801.914,1144.299 801.671,1143.841 
		801.428,1143.383 801.185,1142.935 800.951,1142.495 800.717,1142.056 800.484,1141.636 800.26,1141.215 800.035,1140.804 
		799.811,1140.402 799.596,1140.01 799.381,1139.617 799.176,1139.234 798.961,1138.851 798.755,1138.487 798.549,1138.113 
		798.353,1137.758 798.157,1137.403 797.961,1137.057 797.764,1136.711 797.578,1136.374 797.194,1135.711 796.83,1135.076 
		796.475,1134.449 796.12,1133.851 795.774,1133.263 795.438,1132.693 795.11,1132.132 794.783,1131.599 794.466,1131.067 
		794.157,1130.562 	"/>
	<path class="st0" d="M809.363,1158.763c-6.119-26.009-21.363-52.413-40.826-70.718"/>
	<polyline class="st0" points="785.354,1115.311 785.065,1114.788 784.775,1114.255 784.467,1113.704 784.149,1113.143 
		783.822,1112.564 783.485,1111.966 783.14,1111.368 782.785,1110.742 782.411,1110.106 782.028,1109.452 781.831,1109.116 
		781.635,1108.779 781.43,1108.433 781.215,1108.078 781.009,1107.733 780.794,1107.368 780.579,1107.004 780.355,1106.639 
		780.121,1106.256 779.897,1105.882 779.663,1105.49 779.42,1105.097 779.177,1104.705 778.925,1104.294 778.673,1103.883 
		778.421,1103.462 778.149,1103.041 777.888,1102.612 777.617,1102.172 777.337,1101.724 777.047,1101.266 776.757,1100.808 
		776.467,1100.331 776.159,1099.855 775.851,1099.369 775.542,1098.874 775.215,1098.369 774.888,1097.855 774.552,1097.322 
		774.215,1096.79 773.87,1096.248 773.505,1095.687 773.141,1095.126 772.767,1094.547 772.393,1093.958 772.001,1093.351 
		771.599,1092.734 771.197,1092.108 770.776,1091.472 770.347,1090.818 769.907,1090.146 769.459,1089.463 769.001,1088.762 
		768.534,1088.043 	"/>
	<path class="st0" d="M731.076,1066.417c-19.464-4.17-34.71,4.632-40.832,23.573"/>
	<polyline class="st0" points="739.088,1098.771 738.21,1098.584 737.294,1098.406 736.359,1098.219 735.397,1098.023 
		734.416,1097.836 733.397,1097.631 732.35,1097.435 731.276,1097.219 730.164,1097.014 729.024,1096.799 728.435,1096.687 
		727.846,1096.575 727.239,1096.463 726.622,1096.341 726.005,1096.229 725.37,1096.108 724.725,1095.995 724.071,1095.874 
		723.407,1095.752 722.734,1095.621 722.043,1095.5 721.342,1095.369 720.632,1095.248 719.912,1095.117 719.174,1094.977 
		718.426,1094.846 717.66,1094.706 716.885,1094.575 716.09,1094.426 715.287,1094.285 714.464,1094.145 713.633,1093.996 
		712.782,1093.846 711.913,1093.687 711.035,1093.538 710.128,1093.379 709.212,1093.22 708.269,1093.052 707.315,1092.893 
		706.344,1092.725 705.344,1092.547 704.325,1092.379 703.288,1092.192 702.232,1092.015 701.148,1091.828 700.036,1091.641 
		698.905,1091.454 697.756,1091.258 696.569,1091.052 695.363,1090.846 694.13,1090.641 692.859,1090.426 691.569,1090.211 
		690.242,1089.987 	"/>
	<polyline class="st0" points="731.07,1066.419 731.537,1067.129 731.995,1067.83 732.444,1068.512 732.883,1069.185 
		733.313,1069.839 733.733,1070.484 734.135,1071.11 734.537,1071.727 734.93,1072.325 735.313,1072.914 735.686,1073.493 
		736.051,1074.063 736.406,1074.614 736.752,1075.166 737.098,1075.698 737.425,1076.222 737.761,1076.736 738.079,1077.24 
		738.396,1077.735 738.696,1078.231 739.004,1078.707 739.293,1079.175 739.583,1079.642 739.873,1080.09 740.153,1080.539 
		740.424,1080.978 740.695,1081.408 740.957,1081.838 741.209,1082.258 741.461,1082.67 741.714,1083.072 741.957,1083.473 
		742.2,1083.866 742.433,1084.249 742.667,1084.632 742.891,1085.006 743.116,1085.38 743.331,1085.744 743.545,1086.099 
		743.76,1086.454 743.966,1086.8 744.172,1087.146 744.368,1087.482 744.564,1087.818 744.947,1088.473 745.321,1089.117 
		745.676,1089.734 746.031,1090.342 746.368,1090.931 746.685,1091.51 747.003,1092.071 747.311,1092.622 747.601,1093.164 
		747.891,1093.687 	"/>
	<path class="st0" d="M768.527,1225.591c19.464,4.17,34.71-4.632,40.832-23.573"/>
	<polyline class="st0" points="794.157,1173.819 794.466,1174.324 794.783,1174.857 795.11,1175.39 795.438,1175.95 
		795.774,1176.52 796.12,1177.099 796.475,1177.707 796.83,1178.333 797.194,1178.969 797.578,1179.632 797.764,1179.968 
		797.961,1180.314 798.157,1180.66 798.353,1181.015 798.549,1181.37 798.755,1181.735 798.961,1182.108 799.176,1182.491 
		799.381,1182.875 799.596,1183.258 799.811,1183.66 800.035,1184.061 800.26,1184.473 800.484,1184.893 800.717,1185.314 
		800.951,1185.753 801.185,1186.192 801.428,1186.641 801.671,1187.098 801.914,1187.557 802.166,1188.033 802.428,1188.519 
		802.68,1189.005 802.951,1189.51 803.212,1190.014 803.493,1190.537 803.764,1191.07 804.044,1191.612 804.334,1192.163 
		804.623,1192.724 804.923,1193.304 805.231,1193.892 805.539,1194.49 805.848,1195.098 806.175,1195.724 806.502,1196.359 
		806.829,1197.013 807.175,1197.686 807.52,1198.368 807.875,1199.06 808.231,1199.78 808.604,1200.508 808.978,1201.256 
		809.361,1202.022 	"/>
	<polyline class="st0" points="768.534,1225.59 769.001,1224.338 769.459,1223.104 769.907,1221.899 770.347,1220.731 
		770.776,1219.581 771.197,1218.451 771.599,1217.357 772.001,1216.282 772.393,1215.227 772.767,1214.199 773.141,1213.189 
		773.505,1212.199 773.87,1211.236 774.215,1210.283 774.552,1209.358 774.888,1208.442 775.215,1207.554 775.542,1206.676 
		775.851,1205.816 776.159,1204.975 776.467,1204.144 776.757,1203.331 777.047,1202.536 777.337,1201.751 777.617,1200.985 
		777.888,1200.228 778.149,1199.49 778.421,1198.761 778.673,1198.041 778.925,1197.34 779.177,1196.649 779.42,1195.967 
		779.663,1195.294 779.897,1194.64 780.121,1193.986 780.355,1193.35 780.579,1192.724 780.794,1192.107 781.009,1191.5 
		781.215,1190.902 781.43,1190.313 781.635,1189.734 781.831,1189.164 782.028,1188.603 782.411,1187.51 782.785,1186.435 
		783.14,1185.407 783.485,1184.398 783.822,1183.417 784.149,1182.463 784.467,1181.538 784.775,1180.632 785.065,1179.753 
		785.354,1178.894 	"/>
	<polyline class="st0" points="690.242,1133.244 691.569,1133.468 692.859,1133.683 694.13,1133.898 695.363,1134.104 
		696.569,1134.309 697.756,1134.515 698.905,1134.702 700.036,1134.898 701.148,1135.085 702.232,1135.272 703.288,1135.449 
		704.325,1135.636 705.344,1135.805 706.344,1135.982 707.315,1136.15 708.269,1136.309 709.212,1136.477 710.128,1136.636 
		711.035,1136.795 711.913,1136.944 712.782,1137.104 713.633,1137.253 714.464,1137.403 715.287,1137.543 716.09,1137.683 
		716.885,1137.832 717.66,1137.963 718.426,1138.103 719.174,1138.234 719.912,1138.375 720.632,1138.505 721.342,1138.627 
		722.043,1138.758 722.734,1138.879 723.407,1139.01 724.071,1139.131 724.725,1139.253 725.37,1139.365 726.005,1139.486 
		726.622,1139.599 727.239,1139.72 727.846,1139.832 728.435,1139.944 729.024,1140.056 730.164,1140.271 731.276,1140.477 
		732.35,1140.692 733.397,1140.888 734.416,1141.094 735.397,1141.281 736.359,1141.477 737.294,1141.664 738.21,1141.841 
		739.088,1142.028 	"/>
	<path class="st0" d="M690.241,1133.246c6.119,26.008,21.363,52.413,40.826,70.718"/>
	<polyline class="st0" points="747.891,1157.27 747.601,1158.129 747.311,1159.008 747.003,1159.905 746.685,1160.839 
		746.368,1161.793 746.031,1162.764 745.676,1163.774 745.321,1164.811 744.947,1165.876 744.564,1166.979 744.368,1167.54 
		744.172,1168.11 743.966,1168.689 743.76,1169.278 743.545,1169.876 743.331,1170.483 743.116,1171.1 742.891,1171.726 
		742.667,1172.362 742.433,1173.006 742.2,1173.67 741.957,1174.333 741.714,1175.016 741.461,1175.707 741.209,1176.417 
		740.957,1177.128 740.695,1177.856 740.424,1178.604 740.153,1179.352 739.873,1180.127 739.583,1180.903 739.293,1181.707 
		739.004,1182.52 738.696,1183.342 738.396,1184.183 738.079,1185.043 737.761,1185.921 737.425,1186.818 737.098,1187.725 
		736.752,1188.659 736.406,1189.603 736.051,1190.575 735.686,1191.565 735.313,1192.565 734.93,1193.603 734.537,1194.649 
		734.135,1195.724 733.733,1196.827 733.313,1197.948 732.883,1199.097 732.444,1200.275 731.995,1201.471 731.537,1202.704 
		731.07,1203.966 	"/>
	<polyline class="st0" points="690.242,1089.987 666.553,1076.315 666.553,1119.572 708.175,1095.537 708.175,1093.042 	"/>
	<line class="st0" x1="666.553" y1="1119.572" x2="690.242" y2="1133.244"/>
	<line class="st0" x1="708.175" y1="1095.537" x2="763.889" y2="1127.703"/>
	<polyline class="st0" points="809.361,1202.022 833.051,1215.694 833.051,1172.436 809.361,1158.765 	"/>
	<line class="st0" x1="731.07" y1="1231.318" x2="768.534" y2="1252.942"/>
	<polyline class="st0" points="731.07,1231.318 772.692,1207.283 774.86,1208.536 	"/>
	<polyline class="st0" points="768.534,1088.043 768.534,1060.69 731.07,1039.067 731.07,1066.419 	"/>
	<line class="st0" x1="768.534" y1="1252.942" x2="768.534" y2="1225.59"/>
	<line class="st0" x1="731.07" y1="1203.966" x2="731.07" y2="1231.318"/>
	<line class="st0" x1="772.692" y1="1142.953" x2="772.692" y2="1207.283"/>
	<line class="st0" x1="871.402" y1="1279.716" x2="838.097" y2="1298.938"/>
	<line class="st0" x1="694.803" y1="973.839" x2="661.507" y2="993.071"/>
	<polyline class="st0" points="889.165,1586.359 868.345,1574.341 851.702,1583.957 872.513,1595.974 889.165,1586.359 
		889.165,1591.162 	"/>
	<polyline class="st0" points="364.283,1292.64 330.978,1273.417 281.029,1302.256 314.334,1321.478 	"/>
	<polyline class="st0" points="464.179,1350.316 497.475,1369.548 447.527,1398.386 414.231,1379.155 	"/>
	<line class="st0" x1="497.475" y1="1489.704" x2="497.475" y2="1369.548"/>
	<line class="st0" x1="281.029" y1="1422.412" x2="314.334" y2="1441.644"/>
	<polyline class="st0" points="414.231,1499.32 447.527,1518.543 497.475,1489.704 	"/>
	<line class="st0" x1="281.029" y1="1302.256" x2="281.029" y2="1422.412"/>
	<line class="st0" x1="447.527" y1="1518.543" x2="447.527" y2="1398.386"/>
	<line class="st0" x1="314.334" y1="1441.644" x2="414.231" y2="1499.32"/>
	<line class="st0" x1="464.179" y1="1350.316" x2="364.283" y2="1292.64"/>
	<line class="st0" x1="414.231" y1="1379.155" x2="314.334" y2="1321.478"/>
	<polyline class="st0" points="837.46,2187.869 791.68,2214.306 791.68,2262.366 	"/>
	<polyline class="st0" points="837.46,2187.869 816.649,2175.852 770.869,2202.288 770.869,2250.358 791.68,2262.366 	"/>
	<line class="st0" x1="791.68" y1="2214.306" x2="770.869" y2="2202.288"/>
	<polyline class="st0" points="1003.126,2347.825 1044.748,2371.861 1090.538,2345.424 	"/>
	<polyline class="st0" points="1003.126,2371.861 1044.748,2395.886 1090.538,2369.459 	"/>
	<line class="st0" x1="1044.748" y1="2395.886" x2="1044.748" y2="2371.861"/>
	<line class="st0" x1="1090.538" y1="2369.459" x2="1090.538" y2="2345.424"/>
	<line class="st0" x1="1003.126" y1="2347.825" x2="1003.126" y2="2371.861"/>
	<polyline class="st0" points="1028.6,1914.391 1028.6,1938.427 1045.253,1928.811 	"/>
	<polyline class="st0" points="1041.094,1902.374 1045.253,1904.776 1028.6,1914.391 	"/>
	<line class="st0" x1="1045.253" y1="1928.811" x2="1045.253" y2="1904.776"/>
	<polyline class="st0" points="229.418,2269.581 129.521,2327.257 76.246,2296.494 176.142,2238.817 	"/>
	<line class="st0" x1="229.418" y1="2331.098" x2="129.521" y2="2388.775"/>
	<polyline class="st0" points="96.225,2369.552 96.225,2346.48 76.246,2334.948 76.246,2358.021 96.225,2369.552 	"/>
	<polyline class="st0" points="129.521,2327.257 129.521,2388.775 96.225,2369.552 	"/>
	<line class="st0" x1="76.246" y1="2296.494" x2="76.246" y2="2334.948"/>
	<line class="st0" x1="96.225" y1="2346.48" x2="129.521" y2="2327.257"/>
	<line class="st0" x1="76.246" y1="1075.689" x2="176.142" y2="1018.013"/>
	<line class="st0" x1="811.323" y1="651.283" x2="1003.631" y2="540.256"/>
	<polyline class="st0" points="76.246,1075.689 129.521,1106.443 229.418,1048.767 	"/>
	<polyline class="st0" points="864.607,682.046 1056.906,571.019 1003.631,540.256 	"/>
	<line class="st0" x1="1056.906" y1="632.546" x2="917.882" y2="712.809"/>
	<line class="st0" x1="229.418" y1="1110.293" x2="129.521" y2="1167.97"/>
	<polyline class="st0" points="96.225,1148.738 96.225,1125.675 76.246,1114.134 76.246,1137.207 96.225,1148.738 	"/>
	<line class="st0" x1="129.521" y1="1106.443" x2="129.521" y2="1167.97"/>
	<line class="st0" x1="1056.906" y1="632.546" x2="1056.906" y2="571.019"/>
	<line class="st0" x1="96.225" y1="1148.738" x2="129.521" y2="1167.97"/>
	<line class="st0" x1="76.246" y1="1075.689" x2="76.246" y2="1114.134"/>
	<line class="st0" x1="96.225" y1="1125.675" x2="129.521" y2="1106.443"/>
	<line class="st0" x1="76.246" y1="831.526" x2="176.142" y2="773.85"/>
	<line class="st0" x1="97.057" y1="392.705" x2="229.839" y2="316.046"/>
	<line class="st0" x1="1365.754" y1="1125.185" x2="1498.979" y2="1048.305"/>
	<line class="st0" x1="1365.754" y1="3078.466" x2="1498.982" y2="3001.546"/>
	<line class="st0" x1="202.775" y1="2407.044" x2="149.87" y2="2376.499"/>
	<line class="st0" x1="76.246" y1="587.364" x2="176.142" y2="529.687"/>
</g>
</svg>
