<?xml version="1.0" encoding="utf-8"?>
<!-- Generator: Adobe Illustrator 22.1.0, SVG Export Plug-In . SVG Version: 6.00 Build 0)  -->
<svg version="1.1" id="Do_you_even_slice_x2C__Bro_x3F_"
	 xmlns="http://www.w3.org/2000/svg" xmlns:xlink="http://www.w3.org/1999/xlink" x="0px" y="0px" viewBox="0 0 4000 566.417"
	 style="enable-background:new 0 0 4000 566.417;" xml:space="preserve">
<style type="text/css">
	.st0{display:none;}
	.st1{display:inline;fill:#020203;stroke:#020203;stroke-width:5.6693;stroke-miterlimit:10;}
	.st2{display:inline;fill:#E52521;stroke:#E52521;stroke-width:5.6693;stroke-miterlimit:10;}
	.st3{fill:#E52521;}
</style>
<g id="Text" class="st0">
	<path class="st1" d="M202.059,384.289c0,19.411-6.38,35.337-19.136,47.782c-12.76,12.444-28.844,18.666-48.251,18.666H50.614
		V83.277h84.058c19.565,0,35.689,6.222,48.369,18.666c12.679,12.445,19.019,28.374,19.019,47.782V384.289z M169.422,381.002v-228.46
		c0-12.051-3.797-21.795-11.388-29.232c-7.594-7.433-17.415-11.153-29.467-11.153H83.251v309.699h43.437
		c12.679,0,22.97-3.639,30.876-10.918C165.467,403.659,169.422,393.681,169.422,381.002z"/>
	<path class="st1" d="M414.552,424.674c0,7.671-2.466,13.933-7.396,18.784c-4.931,4.854-11.234,7.278-18.901,7.278H285.412
		c-7.671,0-13.933-2.424-18.783-7.278c-4.854-4.851-7.279-11.113-7.279-18.784V109.34c0-7.668,2.425-13.93,7.279-18.784
		c4.85-4.85,11.112-7.279,18.783-7.279h102.842c7.667,0,13.97,2.429,18.901,7.279c4.931,4.854,7.396,11.116,7.396,18.784V424.674z
		 M381.915,421.857V112.158h-89.928v309.699H381.915z"/>
	<path class="st1" d="M715.093,85.391l-44.612,148.627c-5.635,14.873-13.071,39.682-22.306,74.431v142.287h-32.637V308.449
		c-2.194-11.895-5.558-24.419-10.097-37.568c-7.513-22.541-11.585-34.827-12.209-36.863L548.621,85.391c0-0.154,0-0.859,0-2.113
		h33.107l50.482,183.847l50.012-183.847h32.871C715.093,84.374,715.093,85.079,715.093,85.391z"/>
	<path class="st1" d="M910.211,424.674c0,7.671-2.466,13.933-7.396,18.784c-4.931,4.854-11.234,7.278-18.901,7.278H781.072
		c-7.671,0-13.933-2.424-18.783-7.278c-4.854-4.851-7.279-11.113-7.279-18.784V109.34c0-7.668,2.425-13.93,7.279-18.784
		c4.85-4.85,11.112-7.279,18.783-7.279h102.842c7.667,0,13.97,2.429,18.901,7.279c4.931,4.854,7.396,11.116,7.396,18.784V424.674z
		 M877.574,421.857V112.158h-89.928v309.699H877.574z"/>
	<path class="st1" d="M1121.295,424.674c0,7.671-2.465,13.933-7.396,18.784c-4.931,4.854-11.234,7.278-18.902,7.278H994.973
		c-7.671,0-13.933-2.424-18.784-7.278c-4.854-4.851-7.279-11.113-7.279-18.784V83.277h32.637v338.58h87.11V83.277h32.637V424.674z"
		/>
	<path class="st1" d="M1394.835,450.737h-120.686V83.277h119.278v28.88h-86.641V249.28h78.892v29.35h-78.892v143.227h88.049V450.737
		z"/>
	<path class="st1" d="M1589.247,83.277l-63.63,368.399h-30.759l-63.631-368.399h32.403l45.551,292.559l1.409,23.948
		c0.154-5.477,0.705-13.46,1.643-23.948l45.551-292.559H1589.247z"/>
	<path class="st1" d="M1754.075,450.737H1633.39V83.277h119.278v28.88h-86.641V249.28h78.892v29.35h-78.892v143.227h88.048V450.737z
		"/>
	<path class="st1" d="M1956.473,450.737h-22.541l-98.146-270.252v270.252h-30.758V83.277h24.419l96.267,265.557V83.277h30.759
		V450.737z"/>
	<path class="st1" d="M2278.146,417.161c0,22.387-11.116,33.576-33.341,33.576h-110.59c-22.071,0-33.106-11.189-33.106-33.576
		v-87.58h54.943v74.9h67.152v-72.082l-110.121-104.251c-7.983-7.668-11.974-17.452-11.974-29.35v-81.71
		c0-22.541,11.035-33.811,33.106-33.811h110.59c22.225,0,33.341,11.116,33.341,33.341v82.179h-54.943v-69.265h-67.152v66.448
		l110.121,103.782c7.983,7.513,11.974,17.455,11.974,29.819V417.161z"/>
	<path class="st1" d="M2466.22,450.737h-144.401V83.277h54.943v318.387h89.458V450.737z"/>
	<path class="st1" d="M2554.739,450.737h-54.943V83.277h54.943V450.737z"/>
	<path class="st1" d="M2780.614,417.161c0,22.387-11.193,33.576-33.577,33.576h-114.582c-21.758,0-32.637-11.189-32.637-33.576
		V117.088c0-22.541,10.879-33.811,32.637-33.811h114.582c22.383,0,33.577,11.27,33.577,33.811v85.936h-54.708v-72.552h-71.145
		v273.07h71.145v-77.248h54.708V417.161z"/>
	<path class="st1" d="M2976.202,450.737h-152.385V83.277h150.976v48.603h-96.033v107.304h82.649v47.664h-82.649v115.285h97.442
		V450.737z"/>
	<path class="st1" d="M3054.154,409.412l-20.662,67.387h-22.541l6.809-67.387H3054.154z"/>
	<path class="st1" d="M3342.251,424.674c0,7.671-2.429,13.933-7.279,18.784c-4.853,4.854-11.116,7.278-18.783,7.278h-121.156V83.277
		h120.216c7.668,0,13.93,2.429,18.784,7.279c4.851,4.854,7.279,11.116,7.279,18.784v109.18c0,9.708-4.385,17.845-13.149,24.42
		c-8.61,5.165-17.221,10.331-25.828,15.496l27.707,17.845c8.137,5.012,12.209,12.837,12.209,23.48V424.674z M3308.441,222.748
		V112.158h-80.771v132.662h48.134L3308.441,222.748z M3309.379,421.857V294.831l-33.106-21.601h-48.603v148.628H3309.379z"/>
	<path class="st1" d="M3555.683,450.737h-34.28l-68.326-196.761l4.461-6.575h58.231V112.158h-83.823v338.579h-32.637V83.277h123.034
		c7.668,0,13.93,2.429,18.784,7.279c4.851,4.854,7.279,11.116,7.279,18.784v139.47c0,17.691-11.898,26.533-35.689,26.533
		c-2.348,0-5.793-0.118-10.331-0.353c-4.542-0.234-7.829-0.351-9.863-0.351C3513.654,333.184,3534.706,391.884,3555.683,450.737z"/>
	<path class="st1" d="M3759.723,424.674c0,7.671-2.465,13.933-7.395,18.784c-4.931,4.854-11.234,7.278-18.902,7.278h-102.842
		c-7.671,0-13.933-2.424-18.784-7.278c-4.853-4.851-7.278-11.113-7.278-18.784V109.34c0-7.668,2.425-13.93,7.278-18.784
		c4.851-4.85,11.113-7.279,18.784-7.279h102.842c7.668,0,13.971,2.429,18.902,7.279c4.93,4.854,7.395,11.116,7.395,18.784V424.674z
		 M3727.086,421.857V112.158h-89.927v309.699H3727.086z"/>
	<path class="st2" d="M3950.615,191.989c0,9.392-2.429,17.768-7.279,25.123l-47.899,73.022v77.953h-32.872v-70.205
		c0-10.332,2.267-18.86,6.81-25.593l48.604-72.553v-87.58h-75.136v82.649h-32.637V109.34c0-7.668,2.502-13.93,7.513-18.784
		c5.008-4.85,11.347-7.279,19.018-7.279h87.345c7.826,0,14.205,2.429,19.136,7.279c4.93,4.854,7.396,11.116,7.396,18.784V191.989z
		 M3896.846,450.737h-35.689v-41.324h35.689V450.737z"/>
</g>
<g>
	<path d="M217.764,360.428c0,21.49-7.063,39.122-21.185,52.9c-14.127,13.777-31.933,20.665-53.419,20.665H50.098V27.175h93.062
		c21.661,0,39.512,6.889,53.549,20.666s21.056,31.413,21.056,52.899V360.428z M181.632,356.789V103.859
		c0-13.342-4.204-24.131-12.607-32.364c-8.407-8.229-19.281-12.347-32.623-12.347h-50.17V402.02h48.09
		c14.037,0,25.43-4.029,34.183-12.087C177.253,381.874,181.632,370.826,181.632,356.789z"/>
	<path d="M422.344,404.62c0,19.585-9.793,29.374-29.374,29.374h-86.823c-19.41,0-29.114-9.788-29.114-29.374V210.438
		c0-19.582,9.704-29.374,29.114-29.374h86.823c19.581,0,29.374,9.793,29.374,29.374V404.62z M387.771,403.58V211.478h-76.165V403.58
		H387.771z"/>
	<path d="M725.443,181.064l-60.828,250.85l-25.215,98h-34.053l25.475-98l-62.388-250.85h35.613l43.151,199.12l43.671-199.12H725.443
		z"/>
	<path d="M913.126,404.62c0,19.585-9.793,29.374-29.374,29.374h-86.823c-19.411,0-29.114-9.788-29.114-29.374V210.438
		c0-19.582,9.704-29.374,29.114-29.374h86.823c19.581,0,29.374,9.793,29.374,29.374V404.62z M878.552,403.58V211.478h-76.165V403.58
		H878.552z"/>
	<path d="M1114.325,433.993h-34.053v-7.019c-13.867,1.909-27.644,3.729-41.332,5.459c-16.636,2.08-30.414,3.12-41.331,3.12
		c-18.716,0-28.075-9.358-28.075-28.074V181.064h34.053V403.06l76.685-2.08V181.064h34.053V433.993z"/>
	<path d="M1416.385,404.62c0,19.585-9.708,29.374-29.114,29.374h-83.184c-19.411,0-29.114-9.788-29.114-29.374V210.438
		c0-19.582,9.704-29.374,29.114-29.374h83.184c19.406,0,29.114,9.793,29.114,29.374v90.982l-11.698,12.218h-96.181v91.501h74.345
		v-46.271h33.533V404.62z M1382.852,286.083v-76.165h-74.345v76.165H1382.852z"/>
	<path d="M1616.024,181.064l-62.647,253.449h-31.454l-62.907-253.449h35.613l43.151,199.12l43.671-199.12H1616.024z"/>
	<path d="M1799.807,404.62c0,19.585-9.707,29.374-29.114,29.374h-83.183c-19.411,0-29.114-9.788-29.114-29.374V210.438
		c0-19.582,9.703-29.374,29.114-29.374h83.183c19.407,0,29.114,9.793,29.114,29.374v90.982l-11.698,12.218h-96.18v91.501h74.344
		v-46.271h33.533V404.62z M1766.274,286.083v-76.165h-74.344v76.165H1766.274z"/>
	<path d="M2002.308,433.993h-34.572V211.998l-76.166,2.079v219.916h-34.572V181.064h34.572v7.019
		c13.518-1.73,27.12-3.55,40.812-5.459c16.637-2.08,30.325-3.12,41.072-3.12c19.236,0,28.854,9.448,28.854,28.335V433.993z"/>
	<path d="M2320.483,401.5c0,21.665-11.007,32.493-33.013,32.493h-100.08c-22.01,0-33.013-10.828-33.013-32.493v-56.409h56.929
		v44.191h52.249v-41.591l-91.242-53.81c-11.957-7.104-17.936-16.636-17.936-28.594v-61.348c0-21.661,11.178-32.493,33.533-32.493
		h99.04c22.006,0,33.013,10.833,33.013,32.493v52.769h-56.409v-40.552h-52.249v37.953l90.982,53.29
		c12.128,6.933,18.196,16.636,18.196,29.114V401.5z"/>
	<path d="M2422.123,433.993h-58.488V27.175h58.488V433.993z"/>
	<path d="M2526.882,133.753h-59.528V72.406h59.528V133.753z M2526.362,433.993h-58.488V171.446h58.488V433.993z"/>
	<path d="M2740.299,401.5c0,21.665-11.006,32.493-33.013,32.493h-103.199c-22.355,0-33.533-10.828-33.533-32.493v-197.56
		c0-21.661,11.178-32.493,33.533-32.493h103.199c22.007,0,33.013,10.833,33.013,32.493v62.388h-57.968v-45.231h-53.289v163.507
		h53.289v-50.17h57.968V401.5z"/>
	<path d="M2952.677,401.5c0,21.665-11.178,32.493-33.532,32.493h-102.68c-22.355,0-33.533-10.828-33.533-32.493v-197.56
		c0-21.661,11.178-32.493,33.533-32.493h102.68c22.355,0,33.532,10.833,33.532,32.493v96.44l-16.376,16.377h-96.44v73.565h55.889
		v-43.671h56.928V401.5z M2895.749,278.025v-62.907h-55.889v62.907H2895.749z"/>
	<path d="M3043.659,388.242l-22.875,74.606h-24.956l7.539-74.606H3043.659z"/>
	<path d="M3362.615,405.139c0,8.494-2.689,15.426-8.058,20.797c-5.374,5.373-12.307,8.058-20.796,8.058h-134.134V27.175h133.094
		c8.489,0,15.422,2.689,20.796,8.058c5.369,5.373,8.059,12.307,8.059,20.796v120.876c0,10.747-4.854,19.756-14.558,27.035
		c-9.532,5.719-19.065,11.438-28.594,17.156l30.674,19.756c9.009,5.548,13.517,14.212,13.517,25.995V405.139z M3325.182,181.584
		V59.148h-89.421v146.871h53.289L3325.182,181.584z M3326.222,402.02V261.388l-36.652-23.915h-53.809V402.02H3326.222z"/>
	<path d="M3553.937,264.247h-34.053v-52.249l-63.687,2.079v219.916h-34.573V181.064h34.573v7.019
		c11.438-1.73,22.961-3.55,34.573-5.459c13.863-2.08,25.385-3.12,34.573-3.12c19.062,0,28.594,9.448,28.594,28.335V264.247z"/>
	<path d="M3743.179,404.62c0,19.585-9.792,29.374-29.374,29.374h-86.823c-19.411,0-29.114-9.788-29.114-29.374V210.438
		c0-19.582,9.703-29.374,29.114-29.374h86.823c19.582,0,29.374,9.793,29.374,29.374V404.62z M3708.607,403.58V211.478h-76.166
		V403.58H3708.607z"/>
	<path class="st3" d="M3950.098,147.53c0,10.398-2.689,19.671-8.059,27.815l-53.03,80.843v86.303h-36.393v-77.725
		c0-11.438,2.511-20.881,7.539-28.334l53.809-80.324V59.148h-83.184v91.502h-36.132V56.029c0-8.489,2.769-15.422,8.318-20.796
		c5.543-5.37,12.563-8.058,21.055-8.058h96.701c8.663,0,15.727,2.689,21.185,8.058c5.459,5.373,8.189,12.307,8.189,20.796V147.53z
		 M3890.57,433.993h-39.512v-45.751h39.512V433.993z"/>
</g>
</svg>
