<?xml version="1.0" encoding="utf-8"?>
<!-- Generator: Adobe Illustrator 22.1.0, SVG Export Plug-In . SVG Version: 6.00 Build 0)  -->
<svg version="1.1" id="Layer_1" xmlns="http://www.w3.org/2000/svg" xmlns:xlink="http://www.w3.org/1999/xlink" x="0px" y="0px"
	 viewBox="0 0 2169 4000" style="enable-background:new 0 0 2169 4000;" xml:space="preserve">
<style type="text/css">
	.st0{fill:none;stroke:#000000;stroke-width:14.1732;stroke-linecap:round;stroke-linejoin:round;stroke-miterlimit:10;}
</style>
<g>
	<path d="M359.888,3865.27c0,24.965-8.206,45.447-24.612,61.452c-16.41,16.005-37.095,24.008-62.057,24.008H165.111v-472.598
		h108.108c25.164,0,45.901,8.003,62.208,24.008c16.307,16.003,24.461,36.491,24.461,61.452V3865.27z M317.912,3861.043v-293.827
		c0-15.5-4.883-28.033-14.646-37.597c-9.767-9.558-22.398-14.344-37.899-14.344h-58.281v398.311h55.866
		c16.307,0,29.541-4.681,39.71-14.043C312.827,3890.184,317.912,3877.349,317.912,3861.043z"/>
	<path d="M634.688,3950.73H590.6l-87.877-253.059l5.738-8.454h74.892v-173.941H475.546v435.454h-41.976v-472.598h158.237
		c9.862,0,17.917,3.124,24.159,9.362c6.237,6.243,9.361,14.297,9.361,24.157v179.376c0,22.753-15.302,34.124-45.901,34.124
		c-3.019,0-7.45-0.151-13.287-0.454c-5.841-0.301-10.069-0.452-12.684-0.452C580.634,3799.542,607.709,3875.037,634.688,3950.73z"/>
	<path d="M882.01,3478.132l-81.837,473.806h-39.559l-81.837-473.806h41.673l58.585,376.265l1.811,30.802
		c0.198-7.044,0.907-17.311,2.115-30.802l58.584-376.265H882.01z"/>
	<path d="M1162.548,3907.546c0,28.793-14.192,43.184-42.578,43.184H970.791c-27.984,0-41.976-14.39-41.976-43.184v-137.4
		c0-17.514,5.838-30.901,17.516-40.162c13.892-8.05,27.881-16.105,41.976-24.159c-13.491-7.851-26.98-15.703-40.465-23.554
		c-12.283-9.663-18.421-22.649-18.421-38.954v-121.7c0-28.989,14.292-43.484,42.881-43.484h147.063
		c27.982,0,41.976,14.495,41.976,43.484v121.7c0,16.508-6.038,29.494-18.119,38.954c-13.489,7.851-26.98,15.703-40.465,23.554
		c13.892,8.054,27.881,16.11,41.976,24.159c11.876,9.262,17.816,22.648,17.816,40.162V3907.546z M1092.188,3891.241v-131.06
		l-46.505-26.575l-46.808,26.575v131.06H1092.188z M1091.583,3650.865v-113.243h-91.5v113.243l45.6,27.178L1091.583,3650.865z"/>
	<path d="M1452.751,3907.546c0,28.793-14.192,43.184-42.578,43.184h-149.178c-27.984,0-41.976-14.39-41.976-43.184v-137.4
		c0-17.514,5.838-30.901,17.516-40.162c13.892-8.05,27.881-16.105,41.976-24.159c-13.491-7.851-26.98-15.703-40.465-23.554
		c-12.283-9.663-18.421-22.649-18.421-38.954v-121.7c0-28.989,14.292-43.484,42.881-43.484h147.063
		c27.982,0,41.976,14.495,41.976,43.484v121.7c0,16.508-6.038,29.494-18.119,38.954c-13.489,7.851-26.98,15.703-40.465,23.554
		c13.892,8.054,27.881,16.11,41.976,24.159c11.876,9.262,17.816,22.648,17.816,40.162V3907.546z M1382.391,3891.241v-131.06
		l-46.505-26.575l-46.808,26.575v131.06H1382.391z M1381.786,3650.865v-113.243h-91.5v113.243l45.6,27.178L1381.786,3650.865z"/>
	<path d="M1731.781,3612.513c0,14.9-5.133,31.406-15.4,49.524l-129.851,226.787h144.649v61.906h-229.203v-43.787l160.049-281.446
		v-87.271h-86.065v87.876h-69.152v-105.089c0-28.584,14.39-42.881,43.182-42.881h138.608c28.787,0,43.184,14.297,43.184,42.881
		V3612.513z"/>
	<path d="M2008.394,3907.546c0,28.793-14.299,43.184-42.881,43.184h-141.63c-27.984,0-41.976-14.39-41.976-43.184v-109.014h69.456
		v91.5h87.573v-181.792h-157.03l7.551-230.108h215.614v61.906h-150.084l-4.53,107.505h115.054c28.582,0,42.881,14.297,42.881,42.881
		V3907.546z"/>
</g>
<g>
	<line class="st0" x1="1736.354" y1="2873.981" x2="1688.849" y2="2879.463"/>
	<polyline class="st0" points="1684.713,2881.846 1581.44,2822.22 1581.44,2820.318 1529.799,2754.728 1529.799,2587.767 	"/>
	<line class="st0" x1="1529.799" y1="2610.193" x2="1188.985" y2="2806.963"/>
	<line class="st0" x1="1736.354" y1="2873.981" x2="1910.272" y2="2773.565"/>
	<line class="st0" x1="1703.717" y1="2654.312" x2="1529.799" y2="2754.728"/>
	<line class="st0" x1="1529.799" y1="2587.767" x2="1559.125" y2="2570.831"/>
	<line class="st0" x1="1736.354" y1="909.998" x2="1736.354" y2="910.09"/>
	<line class="st0" x1="1368.681" y1="2460.881" x2="1188.985" y2="2564.636"/>
	<line class="st0" x1="1581.848" y1="2822.461" x2="1188.985" y2="3049.281"/>
	<line class="st0" x1="1155.17" y1="2805.646" x2="1188.985" y2="2806.963"/>
	<polyline class="st0" points="1188.985,2806.963 1135.276,2775.948 1524.837,2551.039 	"/>
	<line class="st0" x1="1135.276" y1="2713.938" x2="1471.137" y2="2520.034"/>
	<line class="st0" x1="1849.959" y1="2784.537" x2="1889.617" y2="2761.638"/>
	<polyline class="st0" points="1786.344,2702.011 1746.686,2724.91 1581.44,2820.318 	"/>
	<line class="st0" x1="1787.995" y1="1316.272" x2="1787.995" y2="1316.18"/>
	<line class="st0" x1="1787.995" y1="880.282" x2="1787.995" y2="880.18"/>
	<line class="st0" x1="1167.412" y1="2067.535" x2="1167.338" y2="2067.479"/>
	<line class="st0" x1="1155.17" y1="2563.319" x2="1188.985" y2="2564.636"/>
	<polyline class="st0" points="1188.985,2564.636 1135.276,2533.631 1314.98,2429.875 	"/>
	<line class="st0" x1="1135.276" y1="2471.611" x2="1261.271" y2="2398.871"/>
	<line class="st0" x1="1155.17" y1="3047.973" x2="1188.985" y2="3049.281"/>
	<polyline class="st0" points="1188.985,3049.281 1135.276,3018.276 1549.164,2779.324 	"/>
	<line class="st0" x1="1135.276" y1="2956.266" x2="1529.799" y2="2728.49"/>
	<polyline class="st0" points="1155.17,2805.646 1119.509,2785.056 1119.509,2743.877 1135.276,2713.938 	"/>
	<polyline class="st0" points="1135.276,2713.938 1135.276,2775.948 1119.509,2785.056 	"/>
	<polyline class="st0" points="1684.713,2881.846 1849.959,2786.448 1849.959,2784.537 1849.959,2738.748 	"/>
	<line class="st0" x1="1151.655" y1="2076.633" x2="1151.571" y2="2076.587"/>
	<polyline class="st0" points="1155.17,2563.319 1119.509,2542.729 1119.509,2501.55 1135.276,2471.611 	"/>
	<polyline class="st0" points="1135.276,2471.611 1135.276,2533.631 1119.509,2542.729 	"/>
	<polyline class="st0" points="1155.17,3047.973 1119.509,3027.384 1119.509,2986.204 1135.276,2956.266 	"/>
	<polyline class="st0" points="1135.276,2956.266 1135.276,3018.276 1119.509,3027.384 	"/>
	<line class="st0" x1="1849.959" y1="2786.448" x2="1746.686" y2="2726.821"/>
	<line class="st0" x1="1927.402" y1="2256.607" x2="2035.859" y2="2193.985"/>
	<polyline class="st0" points="2035.859,2193.985 2035.859,2256.004 1938.856,2312.004 	"/>
	<line class="st0" x1="1938.299" y1="1765.665" x2="2035.859" y2="1709.34"/>
	<polyline class="st0" points="2035.859,1709.34 2035.859,1771.35 1938.856,1827.359 	"/>
	<line class="st0" x1="1927.402" y1="1287.299" x2="2035.859" y2="1224.686"/>
	<polyline class="st0" points="2035.859,1224.686 2035.859,1286.696 1938.856,1342.705 	"/>
	<line class="st0" x1="1980.916" y1="771.76" x2="2035.859" y2="740.031"/>
	<polyline class="st0" points="2035.859,740.031 2035.859,802.05 1980.916,833.77 	"/>
	<line class="st0" x1="1927.402" y1="1044.98" x2="2035.859" y2="982.358"/>
	<polyline class="st0" points="2035.859,982.358 2035.859,1044.369 1938.856,1100.378 	"/>
	<line class="st0" x1="1927.402" y1="1529.625" x2="2035.859" y2="1467.013"/>
	<polyline class="st0" points="2035.859,1467.013 2035.859,1529.023 1938.856,1585.032 	"/>
	<line class="st0" x1="1938.299" y1="2007.992" x2="2035.859" y2="1951.667"/>
	<polyline class="st0" points="2035.859,1951.667 2035.859,2013.677 1938.856,2069.677 	"/>
	<line class="st0" x1="1927.402" y1="2498.934" x2="2035.859" y2="2436.312"/>
	<polyline class="st0" points="2035.859,2436.312 2035.859,2498.332 1938.856,2554.332 	"/>
	<polyline class="st0" points="2035.859,2256.004 2069.665,2236.481 2069.665,2195.302 2035.859,2193.985 	"/>
	<polyline class="st0" points="2035.859,2256.004 2089.569,2287.009 1984.663,2347.573 	"/>
	<polyline class="st0" points="2035.859,1771.35 2069.665,1751.827 2069.665,1710.657 2035.859,1709.34 	"/>
	<polyline class="st0" points="2035.859,1771.35 2089.569,1802.355 1984.663,1862.918 	"/>
	<polyline class="st0" points="2035.859,1286.696 2069.665,1267.182 2069.665,1226.002 2035.859,1224.686 	"/>
	<polyline class="st0" points="2035.859,1286.696 2089.569,1317.701 1984.663,1378.273 	"/>
	<polyline class="st0" points="2035.859,802.05 2069.665,782.527 2069.665,741.348 2035.859,740.031 	"/>
	<polyline class="st0" points="2035.859,802.05 2089.569,833.055 1984.663,893.619 	"/>
	<polyline class="st0" points="2035.859,1044.369 2069.665,1024.854 2069.665,983.675 2035.859,982.358 	"/>
	<polyline class="st0" points="2035.859,1044.369 2089.569,1075.383 1984.663,1135.946 	"/>
	<polyline class="st0" points="2035.859,1529.023 2069.665,1509.509 2069.665,1468.33 2035.859,1467.013 	"/>
	<polyline class="st0" points="2035.859,1529.023 2089.569,1560.028 1984.663,1620.591 	"/>
	<polyline class="st0" points="2035.859,2013.677 2069.665,1994.154 2069.665,1952.975 2035.859,1951.667 	"/>
	<polyline class="st0" points="2035.859,2013.677 2089.569,2044.682 1984.663,2105.245 	"/>
	<polyline class="st0" points="2035.859,2498.332 2069.665,2478.808 2069.665,2437.629 2035.859,2436.312 	"/>
	<polyline class="st0" points="2035.859,2498.332 2089.569,2529.336 1984.663,2589.9 	"/>
	<line class="st0" x1="2105.326" y1="2215.892" x2="2069.665" y2="2195.302"/>
	<polyline class="st0" points="2069.665,2236.481 2105.326,2257.071 2105.326,2215.892 	"/>
	<line class="st0" x1="2089.569" y1="2287.009" x2="2105.326" y2="2257.071"/>
	<line class="st0" x1="2105.326" y1="1731.247" x2="2069.665" y2="1710.657"/>
	<polyline class="st0" points="2069.665,1751.827 2105.326,1772.417 2105.326,1731.247 	"/>
	<line class="st0" x1="2089.569" y1="1802.355" x2="2105.326" y2="1772.417"/>
	<line class="st0" x1="2105.326" y1="1246.592" x2="2069.665" y2="1226.002"/>
	<polyline class="st0" points="2069.665,1267.182 2105.326,1287.771 2105.326,1246.592 	"/>
	<line class="st0" x1="2089.569" y1="1317.701" x2="2105.326" y2="1287.771"/>
	<line class="st0" x1="2105.326" y1="761.938" x2="2069.665" y2="741.348"/>
	<polyline class="st0" points="2069.665,782.527 2105.326,803.117 2105.326,761.938 	"/>
	<line class="st0" x1="2089.569" y1="833.055" x2="2105.326" y2="803.117"/>
	<line class="st0" x1="2105.326" y1="1004.265" x2="2069.665" y2="983.675"/>
	<polyline class="st0" points="2069.665,1024.854 2105.326,1045.444 2105.326,1004.265 	"/>
	<line class="st0" x1="2089.569" y1="1075.383" x2="2105.326" y2="1045.444"/>
	<line class="st0" x1="2105.326" y1="1488.919" x2="2069.665" y2="1468.33"/>
	<polyline class="st0" points="2069.665,1509.509 2105.326,1530.099 2105.326,1488.919 	"/>
	<line class="st0" x1="2089.569" y1="1560.028" x2="2105.326" y2="1530.099"/>
	<line class="st0" x1="2105.326" y1="1973.564" x2="2069.665" y2="1952.975"/>
	<polyline class="st0" points="2069.665,1994.154 2105.326,2014.744 2105.326,1973.564 	"/>
	<line class="st0" x1="2089.569" y1="2044.682" x2="2105.326" y2="2014.744"/>
	<line class="st0" x1="2105.326" y1="2458.219" x2="2069.665" y2="2437.629"/>
	<polyline class="st0" points="2069.665,2478.808 2105.326,2499.398 2105.326,2458.219 	"/>
	<line class="st0" x1="2089.569" y1="2529.336" x2="2105.326" y2="2499.398"/>
	<polyline class="st0" points="517.985,1956.49 477.186,1904.673 477.186,1737.72 	"/>
	<polyline class="st0" points="517.985,1714.172 477.186,1662.355 477.186,1495.393 	"/>
	<polyline class="st0" points="517.985,1471.845 477.186,1420.027 477.186,1253.066 	"/>
	<polyline class="st0" points="517.985,1229.517 477.186,1177.7 477.186,1010.739 	"/>
	<polyline class="st0" points="517.985,987.19 477.186,935.373 477.186,768.421 	"/>
	<polyline class="st0" points="517.985,744.863 477.186,693.046 477.186,526.094 	"/>
	<polyline class="st0" points="517.985,502.536 477.186,450.719 477.186,283.766 	"/>
	<line class="st0" x1="683.741" y1="2266.262" x2="636.236" y2="2271.743"/>
	<polyline class="st0" points="632.109,2274.127 528.827,2214.5 528.827,2212.59 477.186,2147 477.186,1980.047 	"/>
	<polyline class="st0" points="477.186,666.808 82.662,894.593 82.662,956.603 496.551,717.642 	"/>
	<polyline class="st0" points="477.186,1151.463 82.662,1379.238 82.662,1441.257 496.551,1202.297 	"/>
	<polyline class="st0" points="477.186,1636.117 82.662,1863.892 82.662,1925.902 496.551,1686.951 	"/>
	<polyline class="st0" points="477.186,2120.771 82.662,2348.546 82.662,2410.557 496.551,2171.596 	"/>
	<polyline class="st0" points="477.186,1737.72 683.741,1618.467 683.741,1785.42 477.186,1904.673 	"/>
	<polyline class="st0" points="477.186,1495.393 683.741,1376.14 683.741,1543.092 477.186,1662.355 	"/>
	<polyline class="st0" points="477.186,1253.066 683.741,1133.813 683.741,1300.774 477.186,1420.027 	"/>
	<polyline class="st0" points="477.186,1010.739 683.741,891.486 683.741,1058.447 477.186,1177.7 	"/>
	<polyline class="st0" points="477.186,768.421 683.741,649.159 683.741,816.12 477.186,935.373 	"/>
	<polyline class="st0" points="477.186,526.094 683.741,406.841 683.741,573.793 477.186,693.046 	"/>
	<polyline class="st0" points="477.186,283.766 683.741,164.513 683.741,331.466 477.186,450.719 	"/>
	<line class="st0" x1="683.741" y1="2266.262" x2="857.668" y2="2165.846"/>
	<polyline class="st0" points="477.186,1980.047 683.741,1860.794 683.741,2027.747 477.186,2147 	"/>
	<polyline class="st0" points="477.186,1878.444 82.662,2106.219 82.662,2168.229 496.551,1929.269 	"/>
	<polyline class="st0" points="477.186,1393.79 82.662,1621.565 82.662,1683.575 496.551,1444.624 	"/>
	<polyline class="st0" points="477.186,909.135 82.662,1136.911 82.662,1198.93 496.551,959.969 	"/>
	<polyline class="st0" points="477.186,424.49 82.662,652.265 82.662,714.275 496.551,475.315 	"/>
	<line class="st0" x1="82.662" y1="956.603" x2="66.905" y2="965.701"/>
	<polyline class="st0" points="66.905,965.701 66.905,924.522 82.662,894.593 	"/>
	<polyline class="st0" points="82.662,956.603 136.371,987.608 477.186,790.837 	"/>
	<line class="st0" x1="82.662" y1="1441.257" x2="66.905" y2="1450.355"/>
	<polyline class="st0" points="66.905,1450.355 66.905,1409.176 82.662,1379.238 	"/>
	<polyline class="st0" points="82.662,1441.257 136.371,1472.262 477.186,1275.492 	"/>
	<line class="st0" x1="82.662" y1="1925.902" x2="66.905" y2="1935.01"/>
	<polyline class="st0" points="66.905,1935.01 66.905,1893.83 82.662,1863.892 	"/>
	<polyline class="st0" points="82.662,1925.902 136.371,1956.907 477.186,1760.137 	"/>
	<line class="st0" x1="82.662" y1="2410.557" x2="66.905" y2="2419.655"/>
	<polyline class="st0" points="66.905,2419.655 66.905,2378.476 82.662,2348.546 	"/>
	<polyline class="st0" points="82.662,2410.557 136.371,2441.562 529.244,2214.741 	"/>
	<line class="st0" x1="797.346" y1="2176.818" x2="837.013" y2="2153.919"/>
	<polyline class="st0" points="733.731,2094.292 694.073,2117.191 528.827,2212.59 	"/>
	<line class="st0" x1="82.662" y1="2168.229" x2="66.905" y2="2177.328"/>
	<polyline class="st0" points="66.905,2177.328 66.905,2136.158 82.662,2106.219 	"/>
	<polyline class="st0" points="82.662,2168.229 136.371,2199.234 477.186,2002.464 	"/>
	<line class="st0" x1="82.662" y1="1683.575" x2="66.905" y2="1692.683"/>
	<polyline class="st0" points="66.905,1692.683 66.905,1651.503 82.662,1621.565 	"/>
	<polyline class="st0" points="82.662,1683.575 136.371,1714.589 477.186,1517.81 	"/>
	<line class="st0" x1="82.662" y1="1198.93" x2="66.905" y2="1208.028"/>
	<polyline class="st0" points="66.905,1208.028 66.905,1166.849 82.662,1136.911 	"/>
	<polyline class="st0" points="82.662,1198.93 136.371,1229.935 477.186,1033.165 	"/>
	<line class="st0" x1="82.662" y1="714.275" x2="66.905" y2="723.374"/>
	<polyline class="st0" points="66.905,723.374 66.905,682.204 82.662,652.265 	"/>
	<polyline class="st0" points="82.662,714.275 136.371,745.28 477.186,548.51 	"/>
	<polyline class="st0" points="136.371,987.608 102.565,986.291 66.905,965.701 	"/>
	<polyline class="st0" points="136.371,1472.262 102.565,1470.945 66.905,1450.355 	"/>
	<polyline class="st0" points="136.371,1956.907 102.565,1955.599 66.905,1935.01 	"/>
	<polyline class="st0" points="136.371,2441.562 102.565,2440.245 66.905,2419.655 	"/>
	<polyline class="st0" points="632.109,2274.127 797.346,2178.728 797.346,2176.818 797.346,2131.02 	"/>
	<polyline class="st0" points="136.371,2199.234 102.565,2197.917 66.905,2177.328 	"/>
	<polyline class="st0" points="136.371,1714.589 102.565,1713.272 66.905,1692.683 	"/>
	<polyline class="st0" points="136.371,1229.935 102.565,1228.618 66.905,1208.028 	"/>
	<polyline class="st0" points="136.371,745.28 102.565,743.964 66.905,723.374 	"/>
	<line class="st0" x1="797.346" y1="2178.728" x2="694.073" y2="2119.102"/>
	<line class="st0" x1="930.149" y1="529.321" x2="1036.955" y2="467.654"/>
	<line class="st0" x1="930.149" y1="1013.966" x2="1036.955" y2="952.309"/>
	<line class="st0" x1="930.149" y1="1498.62" x2="1036.955" y2="1436.963"/>
	<line class="st0" x1="930.149" y1="1983.275" x2="1036.955" y2="1921.608"/>
	<line class="st0" x1="930.149" y1="1740.948" x2="1036.955" y2="1679.281"/>
	<line class="st0" x1="930.149" y1="1256.294" x2="1036.955" y2="1194.636"/>
	<line class="st0" x1="930.149" y1="771.648" x2="1036.955" y2="709.981"/>
	<line class="st0" x1="930.149" y1="286.994" x2="1036.955" y2="225.327"/>
	<polyline class="st0" points="1052.722,396.546 1052.722,437.716 1036.955,467.654 	"/>
	<polyline class="st0" points="887.903,491.703 983.246,436.649 1036.955,467.654 	"/>
	<line class="st0" x1="983.246" y1="374.639" x2="880.001" y2="434.247"/>
	<polyline class="st0" points="1052.722,881.191 1052.722,922.37 1036.955,952.309 	"/>
	<polyline class="st0" points="887.903,976.358 983.246,921.304 1036.955,952.309 	"/>
	<line class="st0" x1="983.246" y1="859.294" x2="880.001" y2="918.901"/>
	<polyline class="st0" points="1052.722,1365.845 1052.722,1407.024 1036.955,1436.963 	"/>
	<polyline class="st0" points="887.903,1461.003 983.246,1405.958 1036.955,1436.963 	"/>
	<line class="st0" x1="983.246" y1="1343.939" x2="880.001" y2="1403.556"/>
	<polyline class="st0" points="1052.722,1850.499 1052.722,1891.679 1036.955,1921.608 	"/>
	<polyline class="st0" points="887.903,1945.657 983.246,1890.603 1036.955,1921.608 	"/>
	<line class="st0" x1="983.246" y1="1828.593" x2="880.001" y2="1888.201"/>
	<polyline class="st0" points="1052.722,1608.172 1052.722,1649.352 1036.955,1679.281 	"/>
	<polyline class="st0" points="887.903,1703.33 983.246,1648.276 1036.955,1679.281 	"/>
	<line class="st0" x1="983.246" y1="1586.266" x2="880.001" y2="1645.874"/>
	<polyline class="st0" points="1052.722,1123.518 1052.722,1164.697 1036.955,1194.636 	"/>
	<polyline class="st0" points="887.903,1218.675 983.246,1163.631 1036.955,1194.636 	"/>
	<line class="st0" x1="983.246" y1="1101.611" x2="880.001" y2="1161.229"/>
	<polyline class="st0" points="1052.722,638.863 1052.722,680.043 1036.955,709.981 	"/>
	<polyline class="st0" points="887.903,734.031 983.246,678.976 1036.955,709.981 	"/>
	<line class="st0" x1="983.246" y1="616.966" x2="880.001" y2="676.574"/>
	<polyline class="st0" points="1052.722,154.219 1052.722,195.398 1036.955,225.327 	"/>
	<polyline class="st0" points="887.903,249.376 983.246,194.322 1036.955,225.327 	"/>
	<line class="st0" x1="983.246" y1="132.312" x2="880.001" y2="191.92"/>
	<line class="st0" x1="1017.061" y1="417.135" x2="1052.722" y2="437.716"/>
	<polyline class="st0" points="1052.722,396.546 1017.061,375.956 1017.061,417.135 	"/>
	<line class="st0" x1="983.246" y1="374.639" x2="1017.061" y2="375.956"/>
	<polyline class="st0" points="1017.061,417.135 983.246,436.649 983.246,374.639 	"/>
	<line class="st0" x1="1017.061" y1="901.78" x2="1052.722" y2="922.37"/>
	<polyline class="st0" points="1052.722,881.191 1017.061,860.601 1017.061,901.78 	"/>
	<line class="st0" x1="983.246" y1="859.294" x2="1017.061" y2="860.601"/>
	<polyline class="st0" points="1017.061,901.78 983.246,921.304 983.246,859.294 	"/>
	<line class="st0" x1="1017.061" y1="1386.435" x2="1052.722" y2="1407.024"/>
	<polyline class="st0" points="1052.722,1365.845 1017.061,1345.255 1017.061,1386.435 	"/>
	<line class="st0" x1="983.246" y1="1343.939" x2="1017.061" y2="1345.255"/>
	<polyline class="st0" points="1017.061,1386.435 983.246,1405.958 983.246,1343.939 	"/>
	<line class="st0" x1="1017.061" y1="1871.089" x2="1052.722" y2="1891.679"/>
	<polyline class="st0" points="1052.722,1850.499 1017.061,1829.91 1017.061,1871.089 	"/>
	<line class="st0" x1="983.246" y1="1828.593" x2="1017.061" y2="1829.91"/>
	<polyline class="st0" points="1017.061,1871.089 983.246,1890.603 983.246,1828.593 	"/>
	<line class="st0" x1="1017.061" y1="1628.762" x2="1052.722" y2="1649.352"/>
	<polyline class="st0" points="1052.722,1608.172 1017.061,1587.583 1017.061,1628.762 	"/>
	<line class="st0" x1="983.246" y1="1586.266" x2="1017.061" y2="1587.583"/>
	<polyline class="st0" points="1017.061,1628.762 983.246,1648.276 983.246,1586.266 	"/>
	<line class="st0" x1="1017.061" y1="1144.108" x2="1052.722" y2="1164.697"/>
	<polyline class="st0" points="1052.722,1123.518 1017.061,1102.928 1017.061,1144.108 	"/>
	<line class="st0" x1="983.246" y1="1101.611" x2="1017.061" y2="1102.928"/>
	<polyline class="st0" points="1017.061,1144.108 983.246,1163.631 983.246,1101.611 	"/>
	<line class="st0" x1="1017.061" y1="659.453" x2="1052.722" y2="680.043"/>
	<polyline class="st0" points="1052.722,638.863 1017.061,618.283 1017.061,659.453 	"/>
	<line class="st0" x1="983.246" y1="616.966" x2="1017.061" y2="618.283"/>
	<polyline class="st0" points="1017.061,659.453 983.246,678.976 983.246,616.966 	"/>
	<line class="st0" x1="1017.061" y1="174.808" x2="1052.722" y2="195.398"/>
	<polyline class="st0" points="1052.722,154.219 1017.061,133.629 1017.061,174.808 	"/>
	<line class="st0" x1="983.246" y1="132.312" x2="1017.061" y2="133.629"/>
	<polyline class="st0" points="1017.061,174.808 983.246,194.322 983.246,132.312 	"/>
	<path class="st0" d="M901.426,179.54c-17.784-1.191-27.842,14.992-24.309,39.109c3.533,24.117,19.733,49.856,39.151,62.202
		c19.418,12.346,36.97,8.069,42.419-10.337"/>
	<path class="st0" d="M901.426,421.867c-17.784-1.191-27.842,14.992-24.309,39.109c3.533,24.117,19.733,49.856,39.151,62.203
		c19.418,12.346,36.97,8.069,42.419-10.337"/>
	<path class="st0" d="M901.426,664.194c-17.784-1.191-27.842,14.992-24.309,39.109c3.533,24.117,19.733,49.856,39.151,62.203
		c19.418,12.346,36.97,8.069,42.419-10.337"/>
	<path class="st0" d="M901.426,1875.821c-17.784-1.191-27.842,14.992-24.309,39.109c3.533,24.117,19.733,49.856,39.151,62.203
		c19.418,12.346,36.97,8.069,42.419-10.337"/>
	<path class="st0" d="M901.426,1633.503c-17.784-1.191-27.842,14.992-24.309,39.109c3.533,24.117,19.733,49.856,39.151,62.203
		c19.418,12.346,36.97,8.069,42.419-10.337"/>
	<path class="st0" d="M901.426,1391.176c-17.784-1.191-27.842,14.992-24.309,39.109c3.533,24.117,19.733,49.856,39.151,62.203
		c19.418,12.346,36.97,8.069,42.419-10.337"/>
	<path class="st0" d="M901.426,1148.849c-17.784-1.191-27.842,14.992-24.309,39.109c3.533,24.117,19.733,49.856,39.151,62.203
		c19.418,12.347,36.97,8.069,42.419-10.337"/>
	<path class="st0" d="M901.426,906.521c-17.784-1.191-27.842,14.992-24.309,39.109c3.533,24.117,19.733,49.856,39.151,62.202
		c19.418,12.346,36.97,8.069,42.419-10.337"/>
	<path class="st0" d="M1955.947,2482.45c-18.664-4.486-31.146,8.575-30.164,31.565c0.982,22.99,15.17,49.89,34.289,65.01
		s38.163,14.501,46.024-1.495"/>
	<path class="st0" d="M1955.947,2240.123c-18.664-4.486-31.146,8.575-30.164,31.565c0.982,22.99,15.17,49.89,34.289,65.01
		c19.119,15.12,38.163,14.501,46.024-1.495"/>
	<path class="st0" d="M1955.947,1997.796c-6.642-1.596-12.703-0.995-17.641,1.75"/>
	<path class="st0" d="M1938.302,2068.732c9.831,16.817,23.77,29.728,37.299,34.546c13.529,4.818,24.925,0.93,30.495-10.402"/>
	<path class="st0" d="M1980.923,893.123c11.242,2.183,20.384-2.13,25.173-11.874"/>
	<path class="st0" d="M1822.438,860.382c-0.045-0.005-0.09-0.01-0.135-0.015"/>
	<path class="st0" d="M1955.947,1028.496c-18.664-4.486-31.146,8.575-30.164,31.565c0.982,22.99,15.17,49.89,34.289,65.01
		c19.119,15.12,38.163,14.501,46.024-1.495"/>
	<path class="st0" d="M1955.947,1270.823c-18.664-4.486-31.146,8.575-30.164,31.565c0.982,22.99,15.17,49.89,34.289,65.01
		s38.163,14.501,46.024-1.495"/>
	<path class="st0" d="M1955.947,1513.151c-18.664-4.486-31.146,8.575-30.164,31.565c0.982,22.99,15.17,49.89,34.289,65.01
		c19.119,15.12,38.163,14.501,46.024-1.495"/>
	<path class="st0" d="M1955.947,1755.469c-6.642-1.596-12.703-0.995-17.641,1.75"/>
	<path class="st0" d="M1938.302,1826.405c9.831,16.817,23.77,29.728,37.299,34.546c13.529,4.818,24.925,0.93,30.495-10.402"/>
	<path class="st0" d="M1128.26,1093.929c0.001,13.385,9.397,29.662,20.988,36.355c11.591,6.693,20.987,1.269,20.986-12.115
		c-0.001-13.385-9.397-29.662-20.988-36.355C1137.656,1075.12,1128.26,1080.545,1128.26,1093.929"/>
	<path class="st0" d="M1207.58,553.566c2.479-3.268,1.853-9.676-1.515-15.509c-3.368-5.834-8.603-9.58-12.673-9.068"/>
	<polyline class="st0" points="683.741,126.83 683.741,2065.429 1942.909,2792.411 	"/>
	<line class="st0" x1="2020.575" y1="748.861" x2="1980.916" y2="725.961"/>
	<line class="st0" x1="1778.489" y1="609.092" x2="1052.722" y2="190.074"/>
	<polyline class="st0" points="967.961,141.141 813.465,51.938 683.741,126.83 	"/>
	<line class="st0" x1="2072.624" y1="2717.519" x2="2072.624" y2="2539.112"/>
	<line class="st0" x1="2072.624" y1="2439.336" x2="2072.624" y2="2296.785"/>
	<line class="st0" x1="2072.624" y1="2197.009" x2="2072.624" y2="2054.458"/>
	<line class="st0" x1="2072.624" y1="1954.691" x2="2072.624" y2="1812.14"/>
	<line class="st0" x1="2072.624" y1="1712.363" x2="2072.624" y2="1569.813"/>
	<line class="st0" x1="2072.624" y1="1470.036" x2="2072.624" y2="1327.485"/>
	<line class="st0" x1="2072.624" y1="1227.709" x2="2072.624" y2="1085.158"/>
	<line class="st0" x1="2072.624" y1="985.382" x2="2072.624" y2="842.831"/>
	<polyline class="st0" points="1942.909,2792.411 2072.624,2717.519 813.465,1990.537 683.741,2065.429 	"/>
	<line class="st0" x1="813.465" y1="51.938" x2="813.465" y2="1990.537"/>
	<polyline class="st0" points="1116.309,1715.674 1046.935,1675.617 1046.935,1660.342 	"/>
	<line class="st0" x1="1046.935" y1="1604.833" x2="1046.935" y2="1418.015"/>
	<line class="st0" x1="1046.935" y1="1362.506" x2="1046.935" y2="1266.486"/>
	<polyline class="st0" points="1483.862,2313.869 1339.271,2230.388 1339.271,2139.756 	"/>
	<polyline class="st0" points="1788.162,2489.549 1643.571,2406.068 1643.571,2315.436 	"/>
	<polyline class="st0" points="1622.582,954.191 1510.378,889.408 1510.378,843.517 	"/>
	<line class="st0" x1="1330.172" y1="505.131" x2="1330.172" y2="475.314"/>
	<line class="st0" x1="1330.172" y1="785.375" x2="1330.172" y2="663.315"/>
	<line class="st0" x1="1470.636" y1="866.463" x2="1330.172" y2="785.375"/>
	<line class="st0" x1="1205.178" y1="2150.673" x2="1114.287" y2="2098.206"/>
	<polyline class="st0" points="1114.287,2098.104 1089.505,2083.793 1089.505,1997.938 	"/>
	<line class="st0" x1="1229.96" y1="2164.89" x2="1205.252" y2="2150.626"/>
	<line class="st0" x1="1626.135" y1="1264.232" x2="1626.135" y2="1159.29"/>
	<line class="st0" x1="1626.218" y1="1159.234" x2="1626.218" y2="1130.715"/>
	<polyline class="st0" points="1700.582,1335.833 1626.218,1292.9 1626.218,1264.279 	"/>
	<line class="st0" x1="1752.056" y1="1336.927" x2="1752.056" y2="1306.117"/>
	<polyline class="st0" points="1826.494,1408.527 1752.13,1365.595 1752.13,1336.973 	"/>
	<line class="st0" x1="1130.48" y1="886.227" x2="1114.287" y2="876.878"/>
	<polyline class="st0" points="1114.287,876.785 1089.505,862.475 1089.505,776.61 	"/>
	<line class="st0" x1="1205.178" y1="1062.63" x2="1114.287" y2="1010.164"/>
	<polyline class="st0" points="1114.287,1010.062 1089.505,995.751 1089.505,909.896 	"/>
	<line class="st0" x1="1229.96" y1="1076.848" x2="1205.252" y2="1062.584"/>
	<polyline class="st0" points="1832.198,1074.186 1683.48,988.322 1683.48,951.659 	"/>
	<polyline class="st0" points="1046.935,1675.617 1087.762,1652.051 1087.762,1222.729 1046.935,1266.486 	"/>
	<line class="st0" x1="1131.148" y1="1677.092" x2="1087.762" y2="1652.051"/>
	<line class="st0" x1="1897.464" y1="2119.528" x2="1860.291" y2="2098.058"/>
	<line class="st0" x1="1837.848" y1="2133.304" x2="1897.464" y2="2119.528"/>
	<polyline class="st0" points="1339.271,2139.756 1392.971,2108.742 1430.153,2130.213 	"/>
	<polyline class="st0" points="1430.153,2131.168 1499.555,2171.234 1500.38,2170.761 1537.562,2192.223 	"/>
	<polyline class="st0" points="1339.271,2230.388 1392.971,2199.383 1392.971,2108.742 	"/>
	<polyline class="st0" points="1483.862,2313.869 1537.562,2282.854 1500.38,2261.393 1499.555,2261.866 1429.327,2221.327 
		1430.153,2220.844 1392.971,2199.383 	"/>
	<line class="st0" x1="1537.562" y1="2192.223" x2="1537.562" y2="2282.854"/>
	<polyline class="st0" points="1643.571,2315.436 1697.271,2284.431 1734.453,2305.902 	"/>
	<polyline class="st0" points="1734.453,2306.848 1803.855,2346.923 1804.68,2346.441 1841.862,2367.912 	"/>
	<polyline class="st0" points="1643.571,2406.068 1697.271,2375.063 1697.271,2284.431 	"/>
	<polyline class="st0" points="1788.162,2489.549 1841.862,2458.543 1804.68,2437.082 1803.855,2437.555 1733.627,2397.006 
		1734.453,2396.533 1697.271,2375.063 	"/>
	<line class="st0" x1="1841.862" y1="2367.912" x2="1841.862" y2="2458.543"/>
	<polyline class="st0" points="1524.336,571.289 1564.078,548.343 1704.542,629.431 	"/>
	<polyline class="st0" points="1564.078,810.704 1563.243,811.186 1563.243,596.525 1564.078,596.043 1564.078,548.343 	"/>
	<polyline class="st0" points="1510.378,889.408 1564.078,858.403 1564.078,810.704 	"/>
	<polyline class="st0" points="1622.582,954.191 1650.833,970.505 1704.542,939.5 1564.078,858.403 	"/>
	<line class="st0" x1="1383.882" y1="444.301" x2="1330.172" y2="475.314"/>
	<line class="st0" x1="1330.172" y1="785.375" x2="1383.882" y2="754.37"/>
	<polyline class="st0" points="1470.636,866.463 1524.336,835.458 1383.882,754.37 	"/>
	<polyline class="st0" points="1523.511,787.285 1523.511,573.58 1524.336,573.097 1524.336,525.398 	"/>
	<line class="st0" x1="1524.336" y1="787.758" x2="1524.336" y2="835.458"/>
	<line class="st0" x1="1383.882" y1="444.301" x2="1524.336" y2="525.398"/>
	<polyline class="st0" points="1089.505,2083.793 1163.86,2040.87 1188.651,2055.181 	"/>
	<line class="st0" x1="1279.449" y1="2107.796" x2="1188.567" y2="2055.32"/>
	<polyline class="st0" points="1279.533,2107.647 1304.324,2121.958 1229.96,2164.89 	"/>
	<polyline class="st0" points="1279.533,2021.783 1304.324,2036.094 1304.324,2121.958 	"/>
	<line class="st0" x1="1188.651" y1="1969.317" x2="1279.449" y2="2021.737"/>
	<polyline class="st0" points="1089.505,1997.938 1163.86,1955.006 1188.651,1969.317 	"/>
	<line class="st0" x1="1163.86" y1="1955.006" x2="1163.86" y2="2040.87"/>
	<polyline class="st0" points="1626.218,1130.715 1700.582,1087.783 1700.582,1116.404 	"/>
	<line class="st0" x1="1700.415" y1="1221.347" x2="1700.415" y2="1116.404"/>
	<polyline class="st0" points="1700.582,1221.347 1700.582,1249.968 1626.218,1292.9 	"/>
	<polyline class="st0" points="1700.582,1335.833 1774.936,1292.9 1700.582,1249.968 	"/>
	<polyline class="st0" points="1774.936,1159.429 1774.936,1264.279 1774.936,1292.9 	"/>
	<polyline class="st0" points="1700.582,1087.783 1774.936,1130.715 1774.936,1159.337 	"/>
	<polyline class="st0" points="1774.936,1190.249 1826.494,1160.477 1826.494,1189.099 	"/>
	<line class="st0" x1="1826.327" y1="1294.041" x2="1826.327" y2="1189.099"/>
	<polyline class="st0" points="1826.494,1294.041 1826.494,1322.662 1752.13,1365.595 	"/>
	<polyline class="st0" points="1826.494,1408.527 1900.858,1365.595 1826.494,1322.662 	"/>
	<polyline class="st0" points="1900.858,1232.124 1900.858,1336.973 1900.858,1365.595 	"/>
	<polyline class="st0" points="1826.494,1160.477 1900.858,1203.41 1900.858,1232.031 	"/>
	<polyline class="st0" points="1089.505,862.475 1163.86,819.543 1188.651,833.853 	"/>
	<line class="st0" x1="1279.449" y1="886.468" x2="1188.567" y2="834.001"/>
	<polyline class="st0" points="1279.533,886.329 1304.324,900.64 1263.256,924.346 	"/>
	<polyline class="st0" points="1279.533,800.464 1304.324,814.775 1304.324,900.64 	"/>
	<line class="st0" x1="1188.651" y1="747.989" x2="1279.449" y2="800.418"/>
	<polyline class="st0" points="1089.505,776.61 1163.86,733.678 1188.651,747.989 	"/>
	<line class="st0" x1="1163.86" y1="733.678" x2="1163.86" y2="819.543"/>
	<polyline class="st0" points="1089.505,995.751 1163.86,952.819 1188.651,967.129 	"/>
	<line class="st0" x1="1279.449" y1="1019.754" x2="1188.567" y2="967.278"/>
	<polyline class="st0" points="1279.533,1019.605 1304.324,1033.916 1229.96,1076.848 	"/>
	<polyline class="st0" points="1279.533,933.741 1304.324,948.052 1304.324,1033.916 	"/>
	<line class="st0" x1="1188.651" y1="881.274" x2="1279.449" y2="933.694"/>
	<polyline class="st0" points="1089.505,909.896 1163.86,866.964 1188.651,881.274 	"/>
	<line class="st0" x1="1163.86" y1="866.964" x2="1163.86" y2="952.819"/>
	<line class="st0" x1="1980.916" y1="711.743" x2="1980.916" y2="940.622"/>
	<polyline class="st0" points="1704.542,651.792 1832.198,578.087 1980.916,663.951 	"/>
	<line class="st0" x1="1832.031" y1="854.758" x2="1832.031" y2="625.786"/>
	<polyline class="st0" points="1683.48,988.322 1832.198,902.458 1980.916,988.322 1832.198,1074.186 	"/>
	<path class="st0" d="M1115.224,1717.14"/>
	<path class="st0" d="M1127.615,1717.928"/>
	<polyline class="st0" points="1938.299,1666.63 1146.08,1209.243 1087.762,1222.729 	"/>
	<polyline class="st0" points="1087.762,1652.051 1146.08,1618.374 1146.08,1209.243 	"/>
	<polyline class="st0" points="1938.299,1666.63 1938.299,2075.761 1897.464,2119.528 	"/>
	<line class="st0" x1="1499.555" y1="2261.866" x2="1499.555" y2="2171.234"/>
	<line class="st0" x1="1430.153" y1="2220.844" x2="1430.153" y2="2130.213"/>
	<line class="st0" x1="1803.855" y1="2437.555" x2="1803.855" y2="2346.923"/>
	<line class="st0" x1="1734.453" y1="2396.533" x2="1734.453" y2="2305.902"/>
	<polyline class="st0" points="1564.078,596.043 1704.542,677.14 1704.542,629.431 	"/>
	<line class="st0" x1="1703.717" y1="677.613" x2="1703.717" y2="891.319"/>
	<polyline class="st0" points="1704.542,939.5 1704.542,891.792 1564.078,810.704 	"/>
	<line class="st0" x1="1704.542" y1="677.14" x2="1703.717" y2="677.613"/>
	<line class="st0" x1="1383.056" y1="492.482" x2="1523.511" y2="573.58"/>
	<line class="st0" x1="1524.336" y1="787.758" x2="1383.882" y2="706.661"/>
	<line class="st0" x1="1980.916" y1="711.651" x2="1980.916" y2="663.951"/>
	<line class="st0" x1="1980.916" y1="988.322" x2="1980.916" y2="940.622"/>
	<line class="st0" x1="1832.198" y1="625.786" x2="1832.198" y2="578.087"/>
	<line class="st0" x1="1832.198" y1="902.458" x2="1832.198" y2="854.758"/>
	<path class="st0" d="M1137.344,1672.251"/>
	<line class="st0" x1="1938.299" y1="2075.761" x2="1146.08" y2="1618.374"/>
	<line class="st0" x1="1147.123" y1="374.612" x2="1147.123" y2="376.56"/>
	<path class="st0" d="M1093.421,518.998c15.059,53.908,48.903,106.795,89.94,140.545c41.037,33.75,83.694,43.78,113.359,26.654"/>
	<polyline class="st0" points="1116.656,383.201 1093.414,416.256 1093.414,519.009 	"/>
	<polyline class="st0" points="1152.447,378.397 1135.242,372.47 1116.656,383.201 	"/>
	<path class="st0" d="M1152.452,378.39c7.711,2.657,13.257-1.964,13.257-11.048"/>
	<polyline class="st0" points="1147.123,374.612 1165.709,363.882 1165.709,367.341 	"/>
	<polyline class="st0" points="1289.646,438.895 1289.646,435.435 1165.709,363.882 	"/>
	<path class="st0" d="M1289.647,438.893c0,9.083,5.546,20.11,13.257,26.358"/>
	<polyline class="st0" points="1329.933,504.515 1320.113,479.202 1302.9,465.253 	"/>
	<polyline class="st0" points="1343.346,641.842 1343.346,539.089 1329.933,504.515 	"/>
	<path class="st0" d="M1112.007,508.267c18.407,65.893,64.388,128.909,115.665,158.516s97.261,19.691,115.672-24.944"/>
	<polyline class="st0" points="1093.414,416.256 1112,405.525 1112,508.278 1093.414,519.009 	"/>
	<line class="st0" x1="1112" y1="405.525" x2="1135.242" y2="372.47"/>
	<path class="st0" d="M1286.1,533.555c-6.238-23.977-20.116-48.017-37.761-65.409"/>
	<polyline class="st0" points="1286.094,533.561 1314.428,549.921 1314.428,597.621 1286.094,581.26 	"/>
	<path class="st0" d="M1248.331,603.064c17.645,2.983,31.526-5.03,37.767-21.803"/>
	<polyline class="st0" points="1248.328,603.074 1248.328,635.786 1207.019,611.931 1207.019,579.22 	"/>
	<path class="st0" d="M1169.255,513.802c6.238,23.977,20.116,48.017,37.761,65.409"/>
	<polyline class="st0" points="1169.252,513.806 1140.918,497.446 1140.918,449.746 1169.252,466.107 	"/>
	<path class="st0" d="M1207.025,444.293c-17.645-2.983-31.526,5.03-37.766,21.803"/>
	<polyline class="st0" points="1207.019,444.292 1207.019,411.581 1248.328,435.435 1248.328,468.147 	"/>
	<line class="st0" x1="1314.428" y1="549.921" x2="1293.773" y2="561.848"/>
	<polyline class="st0" points="1293.773,561.848 1265.439,545.488 1286.094,533.561 	"/>
	<line class="st0" x1="1227.673" y1="480.074" x2="1248.328" y2="468.147"/>
	<path class="st0" d="M1265.446,545.482c-6.238-23.977-20.116-48.017-37.761-65.409"/>
	<polyline class="st0" points="1227.673,480.074 1227.673,447.363 1248.328,435.435 	"/>
	<line class="st0" x1="1227.673" y1="447.363" x2="1207.019" y2="435.435"/>
	<line class="st0" x1="1186.364" y1="456.22" x2="1207.019" y2="444.292"/>
	<line class="st0" x1="1148.598" y1="478.024" x2="1169.252" y2="466.107"/>
	<path class="st0" d="M1186.37,456.221c-4.046-0.684-7.932-0.795-11.596-0.331"/>
	<line class="st0" x1="1190.051" y1="449.661" x2="1182.372" y2="445.238"/>
	<polyline class="st0" points="1227.673,623.859 1227.673,614.992 1248.328,603.074 	"/>
	<line class="st0" x1="1265.439" y1="593.187" x2="1286.094" y2="581.26"/>
	<path class="st0" d="M1259.931,603.396c2.234-2.941,4.081-6.362,5.512-10.208"/>
	<line class="st0" x1="1293.773" y1="585.693" x2="1293.773" y2="561.848"/>
	<polyline class="st0" points="1237.949,441.427 1239.276,442.679 1240.593,443.949 1241.9,445.239 1243.199,446.546 
		1244.497,447.863 1245.777,449.199 1247.057,450.544 1248.328,451.916 	"/>
	<polyline class="st0" points="1300.154,541.676 1300.701,543.466 1301.239,545.247 1301.75,547.027 1302.241,548.808 
		1302.723,550.589 1303.178,552.37 1303.623,554.141 1304.05,555.913 	"/>
	<polyline class="st0" points="1208.335,553.65 1208.317,553.65 1208.271,553.65 1208.233,553.65 1208.187,553.65 1208.132,553.65 
		1208.067,553.65 1208.002,553.64 1207.918,553.631 1207.825,553.612 1207.723,553.594 1207.612,553.575 1207.492,553.548 
		1207.362,553.52 1207.232,553.483 1207.083,553.436 1206.935,553.381 1206.768,553.325 1206.601,553.26 1206.434,553.186 
		1206.249,553.112 1206.063,553.028 1205.869,552.926 1205.664,552.833 1205.46,552.722 1205.256,552.602 1205.043,552.481 
		1204.82,552.342 1204.598,552.203 1204.375,552.055 1204.143,551.897 1203.912,551.739 1203.68,551.563 1203.448,551.387 
		1203.207,551.201 1202.965,551.006 1202.724,550.802 1202.483,550.589 1202.233,550.376 1201.992,550.153 1201.751,549.921 
		1201.5,549.689 1201.259,549.439 1201.009,549.189 1200.767,548.938 1200.526,548.669 1200.285,548.4 1200.044,548.131 
		1199.803,547.853 1199.571,547.565 1199.33,547.269 1199.098,546.972 1198.866,546.675 1198.644,546.369 1198.412,546.063 
		1198.189,545.748 1197.976,545.432 1197.753,545.108 1197.54,544.783 1197.336,544.449 1197.132,544.115 1196.928,543.782 
		1196.724,543.448 1196.538,543.104 1196.344,542.761 1196.158,542.418 1195.982,542.075 1195.806,541.732 1195.639,541.379 
		1195.472,541.027 1195.305,540.684 1195.156,540.331 1194.999,539.979 1194.859,539.627 1194.72,539.283 1194.581,538.931 
		1194.452,538.578 1194.331,538.235 1194.21,537.892 1194.099,537.549 1193.997,537.206 1193.895,536.863 1193.802,536.529 
		1193.709,536.195 1193.626,535.861 1193.552,535.536 1193.478,535.212 1193.413,534.896 1193.357,534.581 1193.301,534.266 
		1193.255,533.959 1193.209,533.663 1193.172,533.366 1193.144,533.079 1193.116,532.791 1193.097,532.522 1193.079,532.253 
		1193.069,531.984 1193.06,531.734 1193.06,531.483 1193.069,531.242 1193.069,531.01 1193.088,530.788 1193.097,530.574 
		1193.116,530.37 1193.144,530.176 1193.172,529.99 1193.199,529.814 1193.227,529.647 1193.255,529.489 1193.292,529.341 
		1193.329,529.202 1193.366,529.072 1193.394,528.961 1193.431,528.849 1193.468,528.757 1193.505,528.664 1193.533,528.59 
		1193.57,528.525 1193.598,528.469 1193.626,528.423 1193.645,528.376 1193.663,528.348 1193.691,528.311 1193.7,528.302 	"/>
	<line class="st0" x1="1296.723" y1="686.202" x2="1315.309" y2="675.472"/>
	<line class="st0" x1="1132.067" y1="1677.376" x2="1860.778" y2="2098.458"/>
	<line class="st0" x1="1116.795" y1="1716.648" x2="1837.848" y2="2133.304"/>
	<line class="st0" x1="1382.971" y1="444.678" x2="1382.971" y2="754.489"/>
</g>
</svg>
