<?xml version="1.0" encoding="utf-8"?>
<!-- Generator: Adobe Illustrator 22.1.0, SVG Export Plug-In . SVG Version: 6.00 Build 0)  -->
<svg version="1.1" id="Layer_1" xmlns="http://www.w3.org/2000/svg" xmlns:xlink="http://www.w3.org/1999/xlink" x="0px" y="0px"
	 viewBox="0 0 4000 585.98" style="enable-background:new 0 0 4000 585.98;" xml:space="preserve">
<style type="text/css">
	.st0{fill:#FF0000;}
</style>
<g>
	<path d="M155.732,444.159H25.618V47.994h128.595V79.13H60.804v147.834h85.055v31.643H60.804v154.416h94.927V444.159z"/>
	<path d="M345.84,444.159h-33.162v-6.835c-13.333,1.859-26.667,3.631-39.996,5.316c-16.541,2.026-29.788,3.038-39.743,3.038
		c-18.396,0-27.592-9.113-27.592-27.339v-89.865c0-18.898,9.532-28.351,28.604-28.351h79.233v-74.17h-72.399v42.021h-32.655v-41.515
		c0-19.069,9.45-28.605,28.352-28.605h81.005c18.898,0,28.352,9.536,28.352,28.605V444.159z M313.185,413.529v-87.08h-75.183v88.599
		L313.185,413.529z"/>
	<path d="M489.623,444.159H441.78c-18.902,0-28.352-9.532-28.352-28.605V227.471h-29.617v-29.617h29.617v-76.701h33.162v76.701
		h43.034v29.617H446.59v187.071h43.034V444.159z"/>
	<path d="M572.4,399.606l-22.276,72.651h-24.302l7.341-72.651H572.4z"/>
	<path d="M874.144,412.516c0,21.098-10.719,31.643-32.149,31.643h-97.459c-21.434,0-32.149-10.545-32.149-31.643v-54.931h55.438
		v43.034h50.881v-40.502l-88.852-52.4c-11.645-6.918-17.467-16.201-17.467-27.845V220.13c0-21.094,10.885-31.643,32.655-31.643
		h96.446c21.43,0,32.149,10.549,32.149,31.643v51.387h-54.932v-39.49h-50.881v36.958l88.599,51.894
		c11.811,6.752,17.72,16.201,17.72,28.352V412.516z"/>
	<path d="M973.121,444.159h-56.956V47.994h56.956V444.159z"/>
	<path d="M1181.456,412.516c0,21.098-10.885,31.643-32.655,31.643h-99.99c-21.77,0-32.655-10.545-32.655-31.643V220.13
		c0-21.094,10.885-31.643,32.655-31.643h99.99c21.77,0,32.655,10.549,32.655,31.643v93.915l-15.948,15.948h-93.915v71.638h54.425
		v-42.528h55.438V412.516z M1126.018,292.275v-61.26h-54.425v61.26H1126.018z"/>
	<path d="M1388.778,412.516c0,21.098-10.885,31.643-32.655,31.643h-99.99c-21.77,0-32.655-10.545-32.655-31.643V220.13
		c0-21.094,10.885-31.643,32.655-31.643h99.99c21.77,0,32.655,10.549,32.655,31.643v93.915l-15.947,15.948h-93.916v71.638h54.426
		v-42.528h55.437V412.516z M1333.341,292.275v-61.26h-54.426v61.26H1333.341z"/>
	<path d="M1601.416,392.771c0,20.758-7.428,35.273-22.277,43.54c-10.802,5.909-27.173,8.86-49.108,8.86
		c-5.063,0-12.194-0.17-21.391-0.506c-9.2-0.34-15.822-0.507-19.872-0.507v93.409h-57.969v-349.08h57.969v9.366
		c13.499-2.025,27-4.133,40.503-6.328c17.044-2.697,30.543-4.05,40.502-4.05c21.094,0,31.643,10.379,31.643,31.136V392.771z
		 M1543.193,376.823V236.837l-54.425,1.013v158.212h35.946C1537.031,396.062,1543.193,389.65,1543.193,376.823z"/>
	<path d="M1689.002,399.606l-22.276,72.651h-24.302l7.342-72.651H1689.002z"/>
	<path d="M1978.341,391.253c0,15.188-4.979,27.806-14.935,37.844c-9.959,10.043-22.446,15.062-37.465,15.062h-55.437v93.409h-33.668
		V197.853h33.668v6.835c13.329-1.685,26.663-3.374,39.996-5.063c16.873-2.191,30.124-3.291,39.743-3.291
		c18.732,0,28.098,9.2,28.098,27.592V391.253z M1944.674,386.189V227.977l-74.17,2.025v184.539h46.577
		C1935.473,414.541,1944.674,405.092,1944.674,386.189z"/>
	<path d="M2161.109,278.858h-33.161v-50.881l-62.02,2.025v214.156h-33.668V197.853h33.668v6.835
		c11.138-1.685,22.359-3.457,33.667-5.316c13.5-2.025,24.721-3.038,33.668-3.038c18.563,0,27.845,9.2,27.845,27.592V278.858z"/>
	<path d="M2239.582,143.934h-34.174v-42.528h34.174V143.934z M2239.076,444.159h-33.162V197.853h33.162V444.159z"/>
	<path d="M2437.79,444.159h-33.667V227.977l-74.17,2.025v214.156h-33.668V197.853h33.668v6.835
		c13.164-1.685,26.409-3.457,39.743-5.316c16.201-2.025,29.53-3.038,39.996-3.038c18.732,0,28.098,9.2,28.098,27.592V444.159z"/>
	<path d="M2580.814,444.159h-47.843c-18.903,0-28.352-9.532-28.352-28.605V227.471h-29.617v-29.617h29.617v-76.701h33.161v76.701
		h43.034v29.617h-43.034v187.071h43.034V444.159z"/>
	<path d="M2658.529,444.159h-38.477v-44.553h38.477V444.159z"/>
	<path class="st0" d="M2984.068,444.159h-36.959l-73.664-212.131l4.81-7.088h62.779V79.13h-90.371v365.028h-35.187V47.994h132.646
		c8.267,0,15.018,2.618,20.252,7.847c5.229,5.233,7.847,11.984,7.847,20.251v150.365c0,19.073-12.827,28.605-38.477,28.605
		c-2.532,0-6.246-0.127-11.138-0.38c-4.897-0.253-8.44-0.38-10.632-0.38C2938.755,317.423,2961.451,380.708,2984.068,444.159z"/>
	<path class="st0" d="M3170.379,415.554c0,19.073-9.453,28.605-28.352,28.605h-81.005c-18.902,0-28.352-9.532-28.352-28.605V226.458
		c0-19.069,9.45-28.605,28.352-28.605h81.005c18.898,0,28.352,9.536,28.352,28.605v88.599l-11.391,11.898h-93.663v89.105h72.398
		v-45.059h32.655V415.554z M3137.724,300.122v-74.17h-72.398v74.17H3137.724z"/>
	<path class="st0" d="M3367.575,391.253c0,15.188-4.979,27.806-14.935,37.844c-9.959,10.043-22.446,15.062-37.465,15.062h-55.437
		v93.409h-33.668V197.853h33.668v6.835c13.329-1.685,26.663-3.374,39.996-5.063c16.873-2.191,30.124-3.291,39.743-3.291
		c18.732,0,28.098,9.2,28.098,27.592V391.253z M3333.908,386.189V227.977l-74.17,2.025v184.539h46.577
		C3324.707,414.541,3333.908,405.092,3333.908,386.189z"/>
	<path class="st0" d="M3559.202,415.554c0,19.073-9.453,28.605-28.352,28.605h-81.005c-18.902,0-28.352-9.532-28.352-28.605V226.458
		c0-19.069,9.45-28.605,28.352-28.605h81.005c18.898,0,28.352,9.536,28.352,28.605v88.599l-11.391,11.898h-93.663v89.105h72.398
		v-45.059h32.655V415.554z M3526.547,300.122v-74.17h-72.398v74.17H3526.547z"/>
	<path class="st0" d="M3754.12,444.159h-33.161v-6.835c-13.334,1.859-26.667,3.631-39.997,5.316
		c-16.541,2.026-29.787,3.038-39.743,3.038c-18.396,0-27.593-9.113-27.593-27.339v-89.865c0-18.898,9.532-28.351,28.605-28.351
		h79.233v-74.17h-72.399v42.021h-32.655v-41.515c0-19.069,9.449-28.605,28.352-28.605h81.004c18.899,0,28.352,9.536,28.352,28.605
		V444.159z M3721.465,413.529v-87.08h-75.183v88.599L3721.465,413.529z"/>
	<path class="st0" d="M3897.903,444.159h-47.843c-18.903,0-28.352-9.532-28.352-28.605V227.471h-29.617v-29.617h29.617v-76.701
		h33.161v76.701h43.034v29.617h-43.034v187.071h43.034V444.159z"/>
	<path d="M3975.618,444.159h-38.477v-44.553h38.477V444.159z"/>
</g>
</svg>
