<?xml version="1.0" encoding="utf-8"?>
<!-- Generator: Adobe Illustrator 22.1.0, SVG Export Plug-In . SVG Version: 6.00 Build 0)  -->
<svg version="1.1" id="Layer_1" xmlns="http://www.w3.org/2000/svg" xmlns:xlink="http://www.w3.org/1999/xlink" x="0px" y="0px"
	 viewBox="0 0 4000 377.25" style="enable-background:new 0 0 4000 377.25;" xml:space="preserve">
<style type="text/css">
	.st0{fill:#020203;}
	.st1{fill:#E52521;}
</style>
<g>
	<path class="st0" d="M157.082,287.242h-22.777V164.015H72.527v123.227H49.75V30.792h22.777v112.739h61.778V30.792h22.777V287.242z"
		/>
	<path class="st0" d="M285.552,287.242h-21.466v-4.424c-8.631,1.203-17.262,2.35-25.891,3.441
		c-10.708,1.311-19.282,1.967-25.727,1.967c-11.908,0-17.861-5.899-17.861-17.698v-58.172c0-12.233,6.17-18.353,18.517-18.353h51.29
		V145.99h-46.865v27.202h-21.139v-26.874c0-12.344,6.117-18.517,18.353-18.517h52.437c12.234,0,18.353,6.173,18.353,18.517V287.242z
		 M264.413,267.414v-56.37h-48.668v57.353L264.413,267.414z"/>
	<path class="st0" d="M411.073,127.801L371.581,287.57h-19.828l-39.656-159.769h22.45l27.202,125.521l27.529-125.521H411.073z"/>
	<path class="st0" d="M526.926,268.725c0,12.346-6.12,18.517-18.353,18.517h-52.437c-12.236,0-18.353-6.17-18.353-18.517V146.318
		c0-12.344,6.117-18.517,18.353-18.517h52.437c12.233,0,18.353,6.173,18.353,18.517v57.353l-7.374,7.702h-60.63v57.681h46.866
		v-29.168h21.139V268.725z M505.787,194.002V145.99h-46.866v48.013H505.787z"/>
	<path class="st0" d="M718.485,127.801l-38.344,158.13l-15.895,61.777h-21.466l16.059-61.777l-39.328-158.13h22.45l27.202,125.521
		l27.529-125.521H718.485z"/>
	<path class="st0" d="M836.796,268.725c0,12.346-6.173,18.517-18.517,18.517h-54.731c-12.236,0-18.353-6.17-18.353-18.517V146.318
		c0-12.344,6.117-18.517,18.353-18.517h54.731c12.344,0,18.517,6.173,18.517,18.517V268.725z M815.002,268.07V146.973h-48.013
		V268.07H815.002z"/>
	<path class="st0" d="M963.627,287.242h-21.466v-4.424c-8.741,1.203-17.426,2.35-26.055,3.441
		c-10.487,1.311-19.172,1.967-26.054,1.967c-11.798,0-17.698-5.899-17.698-17.698V127.801h21.466v139.941l48.34-1.311v-138.63
		h21.466V287.242z"/>
	<path class="st0" d="M1122.249,287.242h-30.971c-12.236,0-18.353-6.17-18.353-18.517V146.973h-19.172v-19.172h19.172V78.149h21.466
		v49.651h27.857v19.172h-27.857V268.07h27.857V287.242z"/>
	<path class="st0" d="M1233.514,180.238h-21.466v-32.937l-40.147,1.311v138.63h-21.794V127.801h21.794v4.424
		c7.21-1.091,14.474-2.238,21.794-3.441c8.739-1.311,16.002-1.967,21.794-1.967c12.016,0,18.025,5.956,18.025,17.862V180.238z"/>
	<path class="st0" d="M1284.313,92.897h-22.122V65.368h22.122V92.897z M1283.985,287.242h-21.467V127.801h21.467V287.242z"/>
	<path class="st0" d="M1410.161,268.725c0,12.346-6.119,18.517-18.353,18.517h-52.437c-12.236,0-18.353-6.17-18.353-18.517V146.318
		c0-12.344,6.117-18.517,18.353-18.517h52.437c12.234,0,18.353,6.173,18.353,18.517v57.353l-7.374,7.702h-60.63v57.681h46.865
		v-29.168h21.139V268.725z M1389.023,194.002V145.99h-46.865v48.013H1389.023z"/>
	<path class="st0" d="M1536.829,287.242h-21.631v-4.424c-23.379,3.605-36.324,5.408-38.836,5.408c-9.286,0-16.771-3.139-22.45-9.422
		c-5.681-6.281-8.521-14.118-8.521-23.515v-93.24c0-9.832,3.221-17.997,9.668-24.498c6.444-6.498,14.528-9.75,24.252-9.75h35.887
		V30.792h21.631V287.242z M1515.199,267.414V146.973h-30.151c-12.019,0-18.025,6.173-18.025,18.517v85.21
		c0,12.236,6.006,18.353,18.025,18.353C1487.887,269.053,1497.937,268.508,1515.199,267.414z"/>
	<path class="st0" d="M1744.447,253.977c0,13.437-4.809,22.834-14.42,28.185c-6.992,3.825-17.59,5.735-31.79,5.735
		c-3.277,0-7.894-0.11-13.847-0.328c-5.955-0.22-10.241-0.328-12.864-0.328v60.466h-37.525V121.738h37.525v6.063
		c8.739-1.311,17.478-2.676,26.219-4.097c11.033-1.746,19.772-2.622,26.218-2.622c13.655,0,20.483,6.718,20.483,20.155V253.977z
		 M1706.757,243.654v-90.618l-35.231,0.656v102.416h23.269C1702.769,256.107,1706.757,251.957,1706.757,243.654z"/>
	<path class="st0" d="M1880.128,266.759c0,13.657-6.939,20.483-20.811,20.483h-67.185c-14.093,0-21.139-6.826-21.139-20.483V142.221
		c0-13.655,7.046-20.483,21.139-20.483h67.185c13.872,0,20.811,6.829,20.811,20.483V266.759z M1843.422,256.107V153.036h-35.558
		v103.071H1843.422z"/>
	<path class="st0" d="M2017.611,287.242h-39.983l-32.937-75.87v75.87h-37.525V30.792h37.525v154.033l29.66-63.088h39.164v0.655
		l-38.181,75.214L2017.611,287.242z"/>
	<path class="st0" d="M2071.85,97.977h-37.525V59.305h37.525V97.977z M2071.523,287.242h-36.87V121.738h36.87V287.242z"/>
	<path class="st0" d="M2209.825,287.242h-37.689V153.036l-35.231,0.656v133.55h-37.525V121.738h37.525v6.063
		c8.739-1.419,17.424-2.786,26.055-4.097c10.706-1.746,19.5-2.622,26.383-2.622c13.655,0,20.483,6.718,20.483,20.155V287.242z"/>
	<path class="st0" d="M2346.489,327.225c0,13.655-7.046,20.483-21.139,20.483h-65.218c-14.093,0-21.139-6.829-21.139-20.483v-26.546
		h36.214v19.828h33.92v-34.248h-38.508c-10.487,0-18.819-2.949-24.989-8.849c-6.173-5.899-9.259-14.036-9.259-24.416V151.725
		c0-9.504,2.676-16.986,8.03-22.45c5.351-5.461,12.725-8.193,22.122-8.193c4.696,0,18.898,2.24,42.604,6.718v-6.063h37.362V327.225z
		 M2309.127,256.107V154.347c-12.563-1.311-20.375-1.966-23.432-1.966c-8.086,0-12.126,3.989-12.126,11.962v79.311
		c0,8.303,4.15,12.454,12.454,12.454H2309.127z"/>
	<path class="st0" d="M2466.93,92.897h-22.122V65.368h22.122V92.897z M2466.602,287.242h-21.466V127.801h21.466V287.242z"/>
	<path class="st0" d="M2560.989,287.242h-30.971c-12.236,0-18.353-6.17-18.353-18.517V146.973h-19.172v-19.172h19.172V78.149h21.467
		v49.651h27.857v19.172h-27.857V268.07h27.857V287.242z"/>
	<path class="st0" d="M2797.119,127.801l-32.937,159.769h-19.5l-23.433-121.097l-23.433,121.097h-19.172l-32.937-159.769h20.483
		L2688.64,250.7l23.269-122.899h19.008l23.269,122.899l22.45-122.899H2797.119z"/>
	<path class="st0" d="M2847.098,92.897h-22.122V65.368h22.122V92.897z M2846.771,287.242h-21.466V127.801h21.466V287.242z"/>
	<path class="st0" d="M2941.157,287.242h-30.971c-12.236,0-18.353-6.17-18.353-18.517V146.973h-19.172v-19.172h19.172V78.149h21.467
		v49.651h27.857v19.172H2913.3V268.07h27.857V287.242z"/>
	<path class="st0" d="M3060.615,287.242h-21.794V147.301l-48.013,1.311v138.63h-21.794V30.792h21.794v101.433
		c8.629-1.091,17.26-2.184,25.891-3.277c10.923-1.418,19.5-2.13,25.727-2.13c12.126,0,18.189,5.956,18.189,17.862V287.242z"/>
	<path class="st0" d="M3251.682,287.242h-21.467v-4.424c-8.631,1.203-17.262,2.35-25.89,3.441
		c-10.708,1.311-19.282,1.967-25.727,1.967c-11.908,0-17.862-5.899-17.862-17.698v-58.172c0-12.233,6.171-18.353,18.517-18.353
		h51.29V145.99h-46.866v27.202h-21.139v-26.874c0-12.344,6.117-18.517,18.353-18.517h52.437c12.234,0,18.353,6.173,18.353,18.517
		V287.242z M3230.544,267.414v-56.37h-48.668v57.353L3230.544,267.414z"/>
	<path class="st1" d="M3438.981,268.725c0,12.346-6.173,18.517-18.517,18.517h-49.979c-12.346,0-18.517-6.17-18.517-18.517v-36.214
		h21.467v35.886h44.08v-31.79l-57.025-46.702c-5.464-4.368-8.194-10.05-8.194-17.042v-26.546c0-12.344,6.171-18.517,18.517-18.517
		h49.324c12.344,0,18.516,6.173,18.516,18.517v31.79h-21.139v-31.462h-44.08v27.857l57.517,46.702
		c5.351,4.26,8.03,10.052,8.03,17.37V268.725z"/>
	<path class="st1" d="M3530.909,287.242h-30.971c-12.236,0-18.353-6.17-18.353-18.517V146.973h-19.172v-19.172h19.172V78.149h21.466
		v49.651h27.857v19.172h-27.857V268.07h27.857V287.242z"/>
	<path class="st1" d="M3581.871,92.897h-22.122V65.368h22.122V92.897z M3581.543,287.242h-21.466V127.801h21.466V287.242z"/>
	<path class="st1" d="M3707.065,268.725c0,12.346-6.119,18.517-18.353,18.517h-51.781c-12.236,0-18.353-6.17-18.353-18.517V146.318
		c0-12.344,6.116-18.517,18.353-18.517h51.781c12.234,0,18.353,6.173,18.353,18.517v31.79h-21.466v-31.134h-45.228V268.07h45.228
		v-35.559h21.466V268.725z"/>
	<path class="st1" d="M3831.93,287.242h-23.76l-43.916-81.277v81.277h-21.794V30.792h21.794v162.882l40.967-65.874h23.433v0.656
		l-46.374,70.462L3831.93,287.242z"/>
	<path class="st0" d="M3949.75,106.662c0,6.555-1.695,12.4-5.08,17.534l-33.429,50.962v54.404H3888.3v-48.996
		c0-7.21,1.583-13.163,4.752-17.861l33.92-50.634V50.948h-52.437v57.681h-22.777V48.981c0-5.351,1.746-9.722,5.244-13.109
		c3.495-3.385,7.919-5.08,13.273-5.08h60.958c5.461,0,9.914,1.695,13.355,5.08c3.441,3.387,5.162,7.758,5.162,13.109V106.662z
		 M3912.224,287.242h-24.907v-28.84h24.907V287.242z"/>
</g>
</svg>
