<?xml version="1.0" encoding="utf-8"?>
<!-- Generator: Adobe Illustrator 22.1.0, SVG Export Plug-In . SVG Version: 6.00 Build 0)  -->
<svg version="1.1" id="Layer_1" xmlns="http://www.w3.org/2000/svg" xmlns:xlink="http://www.w3.org/1999/xlink" x="0px" y="0px"
	 viewBox="0 0 3406.223 4000" style="enable-background:new 0 0 3406.223 4000;" xml:space="preserve">
<style type="text/css">
	.st0{fill:#020203;}
	.st1{font-family:'AgencyFB-Reg';}
	.st2{font-size:609.3336px;}
	.st3{font-family:'AgencyFB-Bold';}
	.st4{fill:none;stroke:#020203;stroke-width:14.1732;stroke-linecap:round;stroke-linejoin:round;stroke-miterlimit:10;}
	.st5{fill:none;stroke:#000000;stroke-width:5.6693;stroke-miterlimit:10;}
	.st6{fill:none;stroke:#000000;stroke-width:5.6693;stroke-linecap:round;stroke-linejoin:round;stroke-miterlimit:10;}
	.st7{fill:none;stroke:#000000;stroke-width:5.6693;stroke-linecap:round;stroke-miterlimit:10;}
	.st8{fill:#E52521;}
	.st9{font-size:297.9518px;}
	.st10{font-size:297.9527px;}
	.st11{font-size:198.6352px;}
	.st12{font-size:198.6346px;}
	.st13{font-size:198.6341px;}
</style>
<text transform="matrix(1 0 0 1 68.3204 3853.0149)"><tspan x="0" y="0" class="st0 st1 st2">Hotend </tspan><tspan x="1461.449" y="0" class="st0 st3 st2">anatomy</tspan></text>
<g id="Nozzle">
	<line class="st4" x1="1801.744" y1="2807.599" x2="1820.977" y2="2810.617"/>
	<line class="st4" x1="1590.133" y1="2677.344" x2="1609.378" y2="2696.531"/>
	<line class="st4" x1="1801.744" y1="2874.236" x2="1801.744" y2="2807.599"/>
	<path class="st4" d="M1801.75,2874.231c13.24-7.644,23.604-16.785,30.444-26.849"/>
	<line class="st4" x1="1609.378" y1="2696.531" x2="1609.378" y2="2763.179"/>
	<polyline class="st4" points="1878.7,2874.236 1840.222,2896.452 1801.744,2874.236 	"/>
	<polyline class="st4" points="1609.378,2718.747 1570.9,2740.963 1609.378,2763.179 	"/>
	<line class="st4" x1="1778.676" y1="2994.195" x2="1840.222" y2="3029.725"/>
	<line class="st4" x1="1570.9" y1="2874.236" x2="1632.446" y2="2909.765"/>
	<line class="st4" x1="1917.972" y1="2984.844" x2="1840.222" y2="3029.725"/>
	<line class="st4" x1="1917.972" y1="2984.844" x2="1917.972" y2="2896.913"/>
	<line class="st4" x1="1840.222" y1="3029.725" x2="1840.222" y2="2896.452"/>
	<line class="st4" x1="1727.092" y1="3049.476" x2="1778.676" y2="2994.195"/>
	<path class="st4" d="M1727.097,3049.475c1.922-1.11,3.579-2.363,4.925-3.726"/>
	<line class="st4" x1="1632.446" y1="2909.765" x2="1684.03" y2="3024.611"/>
	<line class="st4" x1="1820.977" y1="2561.035" x2="1813.284" y2="2547.71"/>
	<line class="st4" x1="1597.827" y1="2423.316" x2="1590.133" y2="2427.762"/>
	<line class="st4" x1="1653.614" y1="2455.529" x2="1597.827" y2="2423.316"/>
	<line class="st4" x1="1757.496" y1="2515.497" x2="1744.033" y2="2534.661"/>
	<line class="st4" x1="1667.089" y1="2490.229" x2="1653.614" y2="2455.529"/>
	<path class="st4" d="M1749.65,2494.031c-9.34-7.456-23.873-12.172-39.761-12.904c-15.888-0.732-31.533,2.595-42.803,9.101"/>
	<line class="st4" x1="1744.033" y1="2534.661" x2="1744.033" y2="2974.835"/>
	<line class="st4" x1="1667.089" y1="2930.404" x2="1667.089" y2="2490.229"/>
	<path class="st4" d="M1744.036,2930.402c-21.249-12.267-55.7-12.267-76.949,0"/>
	<line class="st4" x1="1744.033" y1="2974.835" x2="1713.26" y2="3018.623"/>
	<line class="st4" x1="1697.862" y1="3009.743" x2="1667.089" y2="2930.404"/>
	<path class="st4" d="M1716.438,3014.081c-0.063-2.524-2.736-4.782-6.786-5.731c-4.05-0.949-8.691-0.406-11.782,1.379"/>
	<line class="st4" x1="1713.26" y1="3018.623" x2="1713.26" y2="3045.273"/>
	<line class="st4" x1="1697.862" y1="3036.393" x2="1697.862" y2="3009.743"/>
	<path class="st4" d="M1713.253,3036.391c-4.248-2.453-11.135-2.453-15.383,0"/>
	<line class="st4" x1="1570.9" y1="2740.963" x2="1570.9" y2="2874.236"/>
	<line class="st4" x1="1713.26" y1="3045.273" x2="1720.792" y2="3049.626"/>
	<path class="st4" d="M1720.796,3049.623c2.51,1.449,4.862,1.393,6.302-0.15"/>
	<path class="st4" d="M1684.033,3024.613c1.439,3.205,3.791,5.976,6.301,7.424"/>
	<line class="st4" x1="1602.94" y1="2426.265" x2="1655.538" y2="2456.635"/>
	<line class="st4" x1="1755.573" y1="2514.392" x2="1808.182" y2="2544.761"/>
	<line class="st4" x1="1749.745" y1="2504.361" x2="1755.573" y2="2514.392"/>
</g>
<g id="Heatbreak">
	<line class="st4" x1="1570.9" y1="1625.866" x2="1570.9" y2="2092.345"/>
	<line class="st4" x1="1667.089" y1="1713.751" x2="1624.765" y2="1656.962"/>
	<path class="st4" d="M1744.036,1758.162c21.249-12.267,21.249-32.156,0-44.424c-21.249-12.267-55.7-12.267-76.949,0"/>
	<line class="st4" x1="1786.358" y1="1750.26" x2="1744.033" y2="1758.172"/>
	<path class="st4" d="M1786.358,1656.96c-44.623-25.765-116.971-25.765-161.594,0"/>
	<line class="st4" x1="1624.765" y1="1656.962" x2="1624.765" y2="1465.932"/>
	<line class="st4" x1="1786.358" y1="1559.229" x2="1786.358" y2="1750.26"/>
	<path class="st4" d="M1786.358,1559.231c7.189-4.151,13.386-8.837,18.428-13.934"/>
	<path class="st4" d="M1786.358,1465.93c-44.623-25.764-116.971-25.764-161.594,0"/>
	<line class="st4" x1="1624.765" y1="1465.932" x2="1611.958" y2="1449.658"/>
	<line class="st4" x1="1799.164" y1="1557.732" x2="1786.358" y2="1559.229"/>
	<line class="st4" x1="1611.958" y1="1449.658" x2="1603.689" y2="1444.879"/>
	<line class="st4" x1="1807.433" y1="1562.512" x2="1799.164" y2="1557.732"/>
	<line class="st4" x1="1603.689" y1="1444.879" x2="1592.057" y2="1447.055"/>
	<line class="st4" x1="1819.054" y1="1578.106" x2="1807.433" y2="1562.512"/>
	<path class="st4" d="M1786.36,1432.507c-62.976-21.181-142.765-15.208-194.302,14.546"/>
	<line class="st4" x1="1590.133" y1="1636.975" x2="1570.9" y2="1625.866"/>
	<line class="st4" x1="1840.222" y1="1781.355" x2="1820.977" y2="1770.256"/>
	<line class="st4" x1="1840.222" y1="2247.834" x2="1840.222" y2="1781.355"/>
	<line class="st4" x1="1570.9" y1="2092.345" x2="1648.812" y2="2137.318"/>
	<line class="st4" x1="1762.31" y1="2202.849" x2="1840.222" y2="2247.834"/>
	<line class="st4" x1="1648.812" y1="2137.318" x2="1648.812" y2="2230.616"/>
	<line class="st4" x1="1762.31" y1="2296.147" x2="1762.31" y2="2202.849"/>
	<path class="st4" d="M1762.31,2296.142c15.051-8.69,23.506-20.476,23.506-32.766"/>
	<line class="st4" x1="1648.812" y1="2230.616" x2="1590.133" y2="2196.745"/>
	<line class="st4" x1="1820.977" y1="2330.018" x2="1762.31" y2="2296.147"/>
	<path class="st4" d="M1749.274,2453.401c-27.697-12.57-67.194-11.456-92.637,2.612"/>
	<line class="st4" x1="1661.377" y1="2453.341" x2="1664.198" y2="2150.655"/>
	<line class="st4" x1="1746.924" y1="2198.404" x2="1749.745" y2="2504.361"/>
	<path class="st4" d="M1744.338,2149.24c-23.153-11.84-58.266-11.225-80.135,1.402"/>
	<line class="st4" x1="1664.198" y1="2150.655" x2="1667.089" y2="2099.001"/>
	<line class="st4" x1="1744.033" y1="2143.434" x2="1746.924" y2="2198.404"/>
	<path class="st4" d="M1744.036,2099c-21.249-12.267-55.7-12.267-76.949,0"/>
	<line class="st4" x1="1667.089" y1="2099.001" x2="1667.089" y2="1713.751"/>
	<line class="st4" x1="1744.033" y1="1758.172" x2="1744.033" y2="2143.434"/>
	<line class="st4" x1="1785.816" y1="2263.382" x2="1785.816" y2="2216.416"/>
	<line class="st4" x1="1820.977" y1="1565.898" x2="1820.977" y2="2218.95"/>
	<line class="st4" x1="1590.133" y1="2085.677" x2="1590.133" y2="1445.967"/>
	<line class="st4" x1="1820.977" y1="2218.95" x2="1836.375" y2="2245.611"/>
	<line class="st4" x1="1574.747" y1="2094.568" x2="1590.133" y2="2085.677"/>
	<path class="st4" d="M1648.804,2175.019c-22.037,4.718-42.048,12.127-58.668,21.722"/>
	<path class="st4" d="M1820.985,2330.011c30.214-17.443,47.376-41.029,47.802-65.696"/>
</g>
<g id="Heater_Block">
	<line class="st4" x1="1397.767" y1="2107.893" x2="1397.767" y2="2574.36"/>
	<g>
		<line class="st4" x1="2590.465" y1="2476.628" x2="2590.465" y2="2596.576"/>
		<g>
			<line class="st4" x1="2548.152" y1="2429.973" x2="2590.465" y2="2454.412"/>
			<polyline class="st4" points="2251.892,2508.104 2393.918,2590.104 2590.465,2476.628 2590.465,2454.412 			"/>
			<path class="st4" d="M2393.922,2519.018c-15.395-55.373-69.548-65.341-126.765-23.334
				c-57.217,42.008-99.89,123.063-99.892,189.741c-0.003,66.678,42.666,98.459,99.882,74.396
				c57.216-24.064,111.372-96.567,126.772-169.721"/>
			<line class="st4" x1="2313.449" y1="2472.562" x2="2393.918" y2="2519.021"/>
			<line class="st4" x1="1590.133" y1="2196.745" x2="1417" y2="2096.779"/>
			<line class="st4" x1="1994.122" y1="2429.973" x2="1820.977" y2="2330.018"/>
			<line class="st4" x1="2571.231" y1="2096.779" x2="2291.982" y2="2258.003"/>
			<line class="st4" x1="2074.912" y1="2383.33" x2="1994.122" y2="2429.973"/>
			<line class="st4" x1="2304.075" y1="1942.545" x2="2571.231" y2="2096.779"/>
			<line class="st4" x1="1417" y1="2096.779" x2="1497.803" y2="2050.135"/>
			<line class="st4" x1="2393.918" y1="2519.021" x2="2590.465" y2="2405.546"/>
			<line class="st4" x1="2590.465" y1="2130.109" x2="2590.465" y2="2405.546"/>
			<line class="st4" x1="1417" y1="2096.779" x2="1397.767" y2="2107.893"/>
			<line class="st4" x1="2590.465" y1="2130.109" x2="2571.231" y2="2096.779"/>
			<polyline class="st4" points="1994.122,2940.872 2013.355,2929.77 2590.465,2596.576 			"/>
			<line class="st4" x1="1417" y1="2607.678" x2="1590.133" y2="2707.645"/>
			<line class="st4" x1="1820.977" y1="2840.918" x2="1994.122" y2="2940.872"/>
			<path class="st4" d="M1609.369,2698.139c-6.827,2.875-13.256,6.051-19.232,9.5"/>
			<polyline class="st4" points="2013.355,2929.77 2013.355,2463.303 2113.39,2405.546 			"/>
			<line class="st4" x1="2243.588" y1="2330.375" x2="2590.465" y2="2130.109"/>
			<line class="st4" x1="1590.133" y1="2707.645" x2="1590.133" y2="2196.745"/>
			<line class="st4" x1="1820.977" y1="2330.018" x2="1820.977" y2="2840.918"/>
			<line class="st4" x1="2013.355" y1="2463.303" x2="1994.122" y2="2429.973"/>
			<line class="st4" x1="1397.767" y1="2574.36" x2="1417" y2="2607.678"/>
		</g>
	</g>
</g>
<g id="Heatsink">
	<line class="st4" x1="1936.411" y1="837.307" x2="1936.411" y2="570.749"/>
	<path class="st4" d="M1936.405,837.303c61.224-35.347,95.619-83.287,95.619-133.275"/>
	<line class="st4" x1="1474.711" y1="304.192" x2="1474.711" y2="570.749"/>
	<line class="st4" x1="1874.841" y1="1001.687" x2="1874.841" y2="935.039"/>
	<path class="st4" d="M1874.847,1001.674c19.682-11.364,35.782-24.622,47.574-39.179"/>
	<line class="st4" x1="1536.269" y1="739.575" x2="1536.269" y2="806.211"/>
	<line class="st4" x1="1874.841" y1="1112.744" x2="1874.841" y2="1046.108"/>
	<path class="st4" d="M1874.847,1112.742c19.682-11.363,35.782-24.622,47.574-39.179"/>
	<line class="st4" x1="1536.269" y1="850.632" x2="1536.269" y2="917.268"/>
	<line class="st4" x1="1882.546" y1="1228.258" x2="1882.546" y2="1161.621"/>
	<path class="st4" d="M1882.543,1228.257c19.643-11.341,35.879-24.491,48.042-38.911"/>
	<line class="st4" x1="1528.576" y1="957.255" x2="1528.576" y2="1023.891"/>
	<line class="st4" x1="1889.594" y1="1343.392" x2="1889.594" y2="1276.756"/>
	<path class="st4" d="M1889.595,1343.386c19.609-11.322,35.958-24.38,48.429-38.68"/>
	<line class="st4" x1="1521.527" y1="1064.246" x2="1521.527" y2="1130.883"/>
	<line class="st4" x1="1896.655" y1="1458.526" x2="1896.655" y2="1391.89"/>
	<path class="st4" d="M1896.648,1458.526c19.58-11.305,36.034-24.28,48.787-38.471"/>
	<line class="st4" x1="1514.468" y1="1171.238" x2="1514.468" y2="1237.886"/>
	<line class="st4" x1="1903.703" y1="1573.672" x2="1903.703" y2="1507.024"/>
	<path class="st4" d="M1903.7,1573.667c19.558-11.292,36.112-24.193,49.124-38.284"/>
	<line class="st4" x1="1507.419" y1="1278.23" x2="1507.419" y2="1344.878"/>
	<path class="st4" d="M2013.363,457.453c0.002-3.681-2.581-8.155-5.769-9.994"/>
	<path class="st4" d="M1403.546,98.718c-3.188-1.839-5.774-0.346-5.776,3.335"/>
	<path class="st4" d="M2007.58,447.466c166.801-96.305,166.801-252.447,0-348.752c-166.801-96.305-437.238-96.305-604.039,0"/>
	<line class="st4" x1="2007.585" y1="447.473" x2="1865.225" y2="365.277"/>
	<line class="st4" x1="1545.897" y1="180.915" x2="1403.537" y2="98.719"/>
	<path class="st4" d="M1865.229,365.272c88.183-50.911,88.183-133.453,0-184.364c-88.182-50.911-231.154-50.911-319.337,0"/>
	<line class="st4" x1="1936.411" y1="570.749" x2="2007.585" y2="611.841"/>
	<line class="st4" x1="1403.537" y1="263.099" x2="1474.711" y2="304.192"/>
	<line class="st4" x1="2013.355" y1="608.513" x2="2013.355" y2="457.469"/>
	<path class="st4" d="M2013.354,608.509c81.632-47.131,127.492-111.054,127.492-177.707"/>
	<line class="st4" x1="1397.767" y1="102.059" x2="1397.767" y2="253.103"/>
	<path class="st4" d="M2007.587,611.843c3.188,1.839,5.775,0.346,5.776-3.335"/>
	<path class="st4" d="M1397.77,253.096c-0.002,3.681,2.581,8.155,5.77,9.994"/>
	<line class="st4" x1="2007.585" y1="878.399" x2="1936.411" y2="837.307"/>
	<path class="st4" d="M1474.705,496.548c-25.703,9.534-49.561,20.632-71.164,33.105"/>
	<path class="st4" d="M2007.58,878.404c140.871-81.334,165.645-208.095,59.708-305.509"/>
	<line class="st4" x1="1474.711" y1="570.749" x2="1403.537" y2="529.657"/>
	<path class="st4" d="M2013.363,888.391c0.002-3.681-2.581-8.155-5.769-9.994"/>
	<path class="st4" d="M1403.546,529.655c-3.188-1.839-5.774-0.346-5.776,3.335"/>
	<line class="st4" x1="1874.841" y1="935.039" x2="2007.585" y2="1011.683"/>
	<line class="st4" x1="1403.537" y1="662.93" x2="1536.269" y2="739.575"/>
	<line class="st4" x1="2013.355" y1="1008.344" x2="2013.355" y2="888.396"/>
	<line class="st4" x1="1397.767" y1="532.985" x2="1397.767" y2="652.934"/>
	<path class="st4" d="M2007.587,1011.674c3.188,1.839,5.775,0.346,5.776-3.335"/>
	<path class="st4" d="M1397.77,652.938c-0.002,3.681,2.581,8.155,5.77,9.994"/>
	<line class="st4" x1="2011.432" y1="1080.543" x2="1874.841" y2="1001.687"/>
	<path class="st4" d="M1462.9,697.198c-22.676,8.872-43.841,18.967-63.21,30.149"/>
	<path class="st4" d="M2011.432,1080.529c94.337-54.464,139.865-131.013,123.382-207.447"/>
	<line class="st4" x1="1536.269" y1="806.211" x2="1399.691" y2="727.355"/>
	<path class="st4" d="M2013.363,1083.872c0-1.228-0.862-2.722-1.926-3.336"/>
	<path class="st4" d="M1399.696,727.349c-1.064-0.614-1.926-0.117-1.925,1.111"/>
	<line class="st4" x1="1874.841" y1="1046.108" x2="2011.432" y2="1124.963"/>
	<line class="st4" x1="1399.691" y1="771.776" x2="1536.269" y2="850.632"/>
	<line class="st4" x1="2013.355" y1="1123.858" x2="2013.355" y2="1083.871"/>
	<path class="st4" d="M2013.354,1123.854c81.632-47.131,127.492-111.054,127.492-177.707"/>
	<line class="st4" x1="1397.767" y1="728.461" x2="1397.767" y2="768.447"/>
	<path class="st4" d="M2011.438,1124.958c1.063,0.614,1.925,0.117,1.925-1.111"/>
	<path class="st4" d="M1397.771,768.435c0,1.228,0.862,2.721,1.926,3.336"/>
	<line class="st4" x1="2126.854" y1="1258.248" x2="1874.841" y2="1112.744"/>
	<path class="st4" d="M1433.61,708.95c-55.136,16.331-105.523,37.527-149.341,62.825"/>
	<path class="st4" d="M2126.852,1258.237c227.14-131.138,233.322-342.628,13.975-478.116"/>
	<line class="st4" x1="1536.269" y1="917.268" x2="1284.269" y2="771.776"/>
	<path class="st4" d="M2128.785,1261.566c0-1.228-0.862-2.722-1.926-3.336"/>
	<path class="st4" d="M1284.274,771.769c-1.064-0.614-1.926-0.117-1.925,1.111"/>
	<line class="st4" x1="1882.546" y1="1161.621" x2="2126.854" y2="1302.668"/>
	<line class="st4" x1="1284.269" y1="816.208" x2="1528.576" y2="957.255"/>
	<line class="st4" x1="2128.777" y1="1301.563" x2="2128.777" y2="1261.576"/>
	<path class="st4" d="M2128.774,1301.55c112.244-64.805,175.301-152.698,175.301-244.346"/>
	<line class="st4" x1="1282.345" y1="772.893" x2="1282.345" y2="812.868"/>
	<path class="st4" d="M2126.859,1302.664c1.063,0.614,1.925,0.116,1.925-1.112"/>
	<path class="st4" d="M1282.349,812.867c0,1.228,0.862,2.722,1.926,3.336"/>
	<line class="st4" x1="2126.854" y1="1369.305" x2="1882.546" y2="1228.258"/>
	<path class="st4" d="M1345.937,851.825c-21.762,9.512-42.366,19.877-61.668,31.02"/>
	<path class="st4" d="M2126.852,1369.305c123.017-71.023,186.12-169.541,172.74-269.686"/>
	<line class="st4" x1="1528.576" y1="1023.891" x2="1284.269" y2="882.844"/>
	<path class="st4" d="M2128.785,1372.634c0-1.228-0.862-2.722-1.926-3.336"/>
	<path class="st4" d="M1284.274,882.838c-1.064-0.614-1.926-0.117-1.925,1.111"/>
	<line class="st4" x1="1889.594" y1="1276.756" x2="2126.854" y2="1413.737"/>
	<line class="st4" x1="1284.269" y1="927.265" x2="1521.527" y2="1064.246"/>
	<line class="st4" x1="2128.777" y1="1412.62" x2="2128.777" y2="1372.645"/>
	<path class="st4" d="M2128.774,1412.619c112.244-64.805,175.301-152.699,175.301-244.346"/>
	<line class="st4" x1="1282.345" y1="883.95" x2="1282.345" y2="923.937"/>
	<path class="st4" d="M2126.859,1413.732c1.063,0.614,1.925,0.117,1.925-1.112"/>
	<path class="st4" d="M1282.349,923.924c0,1.228,0.862,2.721,1.926,3.336"/>
	<line class="st4" x1="2126.854" y1="1480.374" x2="1889.594" y2="1343.392"/>
	<path class="st4" d="M1345.937,962.881c-21.762,9.512-42.366,19.877-61.668,31.02"/>
	<path class="st4" d="M2126.852,1480.362c123.017-71.023,186.12-169.541,172.74-269.686"/>
	<line class="st4" x1="1521.527" y1="1130.883" x2="1284.269" y2="993.913"/>
	<path class="st4" d="M2128.785,1483.703c0-1.228-0.862-2.722-1.926-3.336"/>
	<path class="st4" d="M1284.274,993.895c-1.064-0.614-1.926-0.117-1.925,1.111"/>
	<line class="st4" x1="1896.655" y1="1391.89" x2="2126.854" y2="1524.794"/>
	<line class="st4" x1="1284.269" y1="1038.333" x2="1514.468" y2="1171.238"/>
	<line class="st4" x1="2128.777" y1="1523.688" x2="2128.777" y2="1483.702"/>
	<path class="st4" d="M2128.774,1523.687c112.244-64.805,175.301-152.698,175.301-244.346"/>
	<line class="st4" x1="1282.345" y1="995.019" x2="1282.345" y2="1035.005"/>
	<path class="st4" d="M2126.859,1524.801c1.063,0.614,1.925,0.117,1.925-1.112"/>
	<path class="st4" d="M1282.349,1034.993c0,1.228,0.862,2.722,1.926,3.336"/>
	<line class="st4" x1="2126.854" y1="1591.442" x2="1896.655" y2="1458.526"/>
	<path class="st4" d="M1345.937,1073.95c-21.762,9.512-42.366,19.877-61.668,31.02"/>
	<path class="st4" d="M2126.852,1591.431c123.017-71.023,186.12-169.541,172.74-269.686"/>
	<line class="st4" x1="1514.468" y1="1237.886" x2="1284.269" y2="1104.97"/>
	<path class="st4" d="M2128.785,1594.76c0-1.228-0.862-2.722-1.926-3.336"/>
	<path class="st4" d="M1284.274,1104.963c-1.064-0.614-1.926-0.117-1.925,1.111"/>
	<line class="st4" x1="1903.703" y1="1507.024" x2="2126.854" y2="1635.863"/>
	<line class="st4" x1="1284.269" y1="1149.402" x2="1507.419" y2="1278.23"/>
	<line class="st4" x1="2128.777" y1="1634.757" x2="2128.777" y2="1594.771"/>
	<path class="st4" d="M2128.774,1634.756c112.244-64.805,175.301-152.698,175.301-244.346"/>
	<line class="st4" x1="1282.345" y1="1106.087" x2="1282.345" y2="1146.062"/>
	<path class="st4" d="M2126.859,1635.858c1.063,0.614,1.925,0.117,1.925-1.112"/>
	<path class="st4" d="M1282.349,1146.062c0,1.228,0.862,2.722,1.926,3.336"/>
	<line class="st4" x1="2126.854" y1="1702.499" x2="1903.703" y2="1573.672"/>
	<path class="st4" d="M1345.937,1185.019c-21.762,9.512-42.366,19.877-61.668,31.02"/>
	<path class="st4" d="M2126.852,1702.499c123.017-71.023,186.12-169.541,172.74-269.686"/>
	<line class="st4" x1="1507.419" y1="1344.878" x2="1284.269" y2="1216.039"/>
	<path class="st4" d="M2128.785,1705.828c0-1.228-0.862-2.722-1.926-3.336"/>
	<path class="st4" d="M1284.274,1216.032c-1.064-0.614-1.926-0.117-1.925,1.112"/>
	<line class="st4" x1="2128.777" y1="1745.814" x2="2128.777" y2="1705.839"/>
	<path class="st4" d="M2128.774,1745.813c112.244-64.805,175.301-152.698,175.301-244.346"/>
	<line class="st4" x1="1282.345" y1="1217.144" x2="1282.345" y2="1257.131"/>
	<path class="st4" d="M1865.234,365.275c-3.188-1.839-5.775-0.346-5.776,3.335"/>
	<path class="st4" d="M1551.676,190.896c0.002-3.681-2.581-8.155-5.769-9.994"/>
	<line class="st4" x1="1859.455" y1="368.617" x2="1859.455" y2="650.722"/>
	<line class="st4" x1="1551.667" y1="473.017" x2="1551.667" y2="190.912"/>
	<path class="st4" d="M1859.455,473.013c-84.994-49.071-222.796-49.071-307.789,0"/>
	<line class="st4" x1="1859.455" y1="650.722" x2="1786.358" y2="664.381"/>
	<line class="st4" x1="1624.765" y1="571.083" x2="1551.667" y2="473.017"/>
	<path class="st4" d="M1786.358,664.383c44.623-25.764,44.623-67.537,0-93.301c-44.623-25.764-116.971-25.764-161.594,0"/>
	<line class="st4" x1="1786.358" y1="664.381" x2="1786.358" y2="1521.88"/>
	<line class="st4" x1="1624.765" y1="1428.582" x2="1624.765" y2="571.083"/>
	<line class="st4" x1="1786.358" y1="1521.88" x2="1820.977" y2="1565.898"/>
	<line class="st4" x1="1590.133" y1="1432.613" x2="1624.765" y2="1428.582"/>
	<line class="st4" x1="1836.375" y1="2245.611" x2="2132.624" y2="2416.648"/>
	<line class="st4" x1="1278.499" y1="1923.519" x2="1574.747" y2="2094.568"/>
	<path class="st4" d="M2132.629,2416.643c1.063,0.614,1.925,0.117,1.925-1.112"/>
	<path class="st4" d="M1276.579,1920.178c0,1.228,0.862,2.722,1.926,3.336"/>
	<path class="st4" d="M2134.548,2415.532c113.774-65.688,177.692-154.78,177.692-247.677"/>
	<line class="st4" x1="2134.547" y1="2415.542" x2="2134.547" y2="2375.556"/>
	<line class="st4" x1="1276.575" y1="1880.204" x2="1276.575" y2="1920.191"/>
	<path class="st4" d="M2134.555,2375.557c0-1.228-0.862-2.722-1.926-3.336"/>
	<path class="st4" d="M1278.504,1879.092c-1.064-0.614-1.926-0.117-1.925,1.112"/>
	<path class="st4" d="M1340.132,1848.036c-21.738,9.537-42.331,19.915-61.636,31.061"/>
	<path class="st4" d="M2132.626,2372.219c134.825-77.84,198.066-187.865,170.595-296.799"/>
	<line class="st4" x1="2132.624" y1="2372.228" x2="1946.027" y2="2264.487"/>
	<line class="st4" x1="1465.095" y1="1986.828" x2="1278.499" y2="1879.099"/>
	<path class="st4" d="M1946.022,2264.486c19.451-11.23,36.47-23.781,50.683-37.377"/>
	<line class="st4" x1="1946.027" y1="2264.487" x2="1946.027" y2="2197.851"/>
	<line class="st4" x1="1465.095" y1="1920.191" x2="1465.095" y2="1986.828"/>
	<line class="st4" x1="1946.027" y1="2197.851" x2="2126.854" y2="2302.251"/>
	<line class="st4" x1="1284.269" y1="1815.791" x2="1465.095" y2="1920.191"/>
	<path class="st4" d="M2126.859,2302.246c1.063,0.614,1.925,0.116,1.925-1.112"/>
	<path class="st4" d="M1282.349,1812.45c0,1.228,0.862,2.722,1.926,3.336"/>
	<path class="st4" d="M2128.774,2301.144c112.244-64.805,175.301-152.698,175.301-244.346"/>
	<line class="st4" x1="2128.777" y1="2301.146" x2="2128.777" y2="2261.159"/>
	<line class="st4" x1="1282.345" y1="1772.476" x2="1282.345" y2="1812.462"/>
	<path class="st4" d="M2128.785,2261.16c0-1.228-0.862-2.722-1.926-3.336"/>
	<path class="st4" d="M1284.274,1771.352c-1.064-0.614-1.926-0.117-1.925,1.112"/>
	<path class="st4" d="M1345.937,1740.339c-21.762,9.512-42.366,19.877-61.668,31.02"/>
	<path class="st4" d="M2126.852,2257.819c123.017-71.023,186.12-169.541,172.74-269.686"/>
	<line class="st4" x1="2126.854" y1="2257.831" x2="1938.967" y2="2149.353"/>
	<line class="st4" x1="1472.155" y1="1879.836" x2="1284.269" y2="1771.359"/>
	<path class="st4" d="M1938.97,2149.346c19.464-11.238,36.417-23.837,50.464-37.504"/>
	<line class="st4" x1="1938.967" y1="2149.353" x2="1938.967" y2="2082.717"/>
	<line class="st4" x1="1472.155" y1="1813.199" x2="1472.155" y2="1879.836"/>
	<line class="st4" x1="1938.967" y1="2082.717" x2="2126.854" y2="2191.194"/>
	<line class="st4" x1="1284.269" y1="1704.722" x2="1472.155" y2="1813.199"/>
	<path class="st4" d="M2126.859,2191.189c1.063,0.614,1.925,0.117,1.925-1.112"/>
	<path class="st4" d="M1282.349,1701.381c0,1.228,0.862,2.722,1.926,3.336"/>
	<path class="st4" d="M2128.774,2190.076c112.244-64.805,175.301-152.698,175.301-244.346"/>
	<line class="st4" x1="2128.777" y1="2190.077" x2="2128.777" y2="2150.09"/>
	<line class="st4" x1="1282.345" y1="1661.407" x2="1282.345" y2="1701.394"/>
	<path class="st4" d="M2128.785,2150.091c0-1.228-0.862-2.722-1.926-3.336"/>
	<path class="st4" d="M1284.274,1660.295c-1.064-0.614-1.926-0.117-1.925,1.112"/>
	<path class="st4" d="M1345.937,1629.27c-21.762,9.512-42.366,19.877-61.668,31.02"/>
	<path class="st4" d="M2126.852,2146.751c123.017-71.023,186.12-169.542,172.74-269.686"/>
	<line class="st4" x1="2126.854" y1="2146.762" x2="1931.919" y2="2034.219"/>
	<line class="st4" x1="1479.203" y1="1772.844" x2="1284.269" y2="1660.302"/>
	<path class="st4" d="M1931.918,2034.205c19.479-11.246,36.362-23.896,50.231-37.638"/>
	<line class="st4" x1="1931.919" y1="2034.219" x2="1931.919" y2="1967.583"/>
	<line class="st4" x1="1479.203" y1="1706.208" x2="1479.203" y2="1772.844"/>
	<line class="st4" x1="1931.919" y1="1967.583" x2="2126.854" y2="2080.125"/>
	<line class="st4" x1="1284.269" y1="1593.653" x2="1479.203" y2="1706.208"/>
	<path class="st4" d="M2126.859,2080.121c1.063,0.614,1.925,0.116,1.925-1.112"/>
	<path class="st4" d="M1282.349,1590.324c0,1.228,0.862,2.722,1.926,3.336"/>
	<path class="st4" d="M2128.774,2079.007c112.244-64.805,175.301-152.698,175.301-244.346"/>
	<line class="st4" x1="2128.777" y1="2079.008" x2="2128.777" y2="2039.033"/>
	<line class="st4" x1="1282.345" y1="1550.339" x2="1282.345" y2="1590.325"/>
	<path class="st4" d="M2128.785,2039.023c0-1.228-0.862-2.722-1.926-3.336"/>
	<path class="st4" d="M1284.274,1549.226c-1.064-0.614-1.926-0.117-1.925,1.112"/>
	<path class="st4" d="M1345.937,1518.213c-21.762,9.512-42.366,19.877-61.668,31.02"/>
	<path class="st4" d="M2126.852,2035.694c123.017-71.023,186.12-169.541,172.74-269.686"/>
	<line class="st4" x1="2126.854" y1="2035.693" x2="1924.859" y2="1919.074"/>
	<line class="st4" x1="1486.251" y1="1665.853" x2="1284.269" y2="1549.233"/>
	<path class="st4" d="M1924.865,1919.077c19.499-11.257,36.31-23.966,49.989-37.789"/>
	<line class="st4" x1="1924.859" y1="1919.074" x2="1924.859" y2="1852.437"/>
	<line class="st4" x1="1486.251" y1="1599.216" x2="1486.251" y2="1665.853"/>
	<line class="st4" x1="1924.859" y1="1852.437" x2="2126.854" y2="1969.057"/>
	<line class="st4" x1="1284.269" y1="1482.596" x2="1486.251" y2="1599.216"/>
	<path class="st4" d="M2126.859,1969.052c1.063,0.614,1.925,0.117,1.925-1.112"/>
	<path class="st4" d="M1282.349,1479.256c0,1.228,0.862,2.722,1.926,3.336"/>
	<path class="st4" d="M2128.774,1967.95c112.244-64.805,175.301-152.698,175.301-244.346"/>
	<line class="st4" x1="2128.777" y1="1967.951" x2="2128.777" y2="1927.965"/>
	<line class="st4" x1="1282.345" y1="1439.281" x2="1282.345" y2="1479.256"/>
	<path class="st4" d="M2128.785,1927.966c0-1.228-0.862-2.722-1.926-3.336"/>
	<path class="st4" d="M1284.274,1438.157c-1.064-0.614-1.926-0.117-1.925,1.112"/>
	<path class="st4" d="M1345.937,1407.144c-21.762,9.512-42.366,19.877-61.668,31.02"/>
	<path class="st4" d="M2126.852,1924.625c123.017-71.023,186.12-169.542,172.74-269.686"/>
	<line class="st4" x1="2126.854" y1="1924.636" x2="1917.811" y2="1803.94"/>
	<line class="st4" x1="1493.311" y1="1558.861" x2="1284.269" y2="1438.164"/>
	<path class="st4" d="M1917.813,1803.936c19.512-11.265,36.241-24.03,49.712-37.933"/>
	<line class="st4" x1="1917.811" y1="1803.94" x2="1917.811" y2="1737.303"/>
	<line class="st4" x1="1493.311" y1="1492.224" x2="1493.311" y2="1558.861"/>
	<line class="st4" x1="1917.811" y1="1737.303" x2="2126.854" y2="1857.988"/>
	<line class="st4" x1="1284.269" y1="1371.528" x2="1493.311" y2="1492.224"/>
	<path class="st4" d="M2126.859,1857.995c1.063,0.614,1.925,0.116,1.925-1.112"/>
	<path class="st4" d="M1282.349,1368.187c0,1.228,0.862,2.722,1.926,3.336"/>
	<path class="st4" d="M2128.774,1856.881c112.244-64.805,175.301-152.698,175.301-244.346"/>
	<line class="st4" x1="2128.777" y1="1856.883" x2="2128.777" y2="1816.896"/>
	<line class="st4" x1="1282.345" y1="1328.213" x2="1282.345" y2="1368.199"/>
	<path class="st4" d="M2128.785,1816.897c0-1.228-0.862-2.722-1.926-3.336"/>
	<path class="st4" d="M1284.274,1327.1c-1.064-0.614-1.926-0.117-1.925,1.112"/>
	<path class="st4" d="M1345.937,1296.076c-21.762,9.512-42.366,19.877-61.668,31.02"/>
	<path class="st4" d="M2126.852,1813.556c123.017-71.023,186.12-169.541,172.74-269.686"/>
	<line class="st4" x1="2126.854" y1="1813.568" x2="1910.751" y2="1688.806"/>
	<line class="st4" x1="1500.359" y1="1451.869" x2="1284.269" y2="1327.107"/>
	<path class="st4" d="M1910.76,1688.796c19.536-11.279,36.182-24.11,49.434-38.106"/>
	<line class="st4" x1="1910.751" y1="1688.806" x2="1910.751" y2="1622.169"/>
	<line class="st4" x1="1500.359" y1="1385.221" x2="1500.359" y2="1451.869"/>
	<line class="st4" x1="1910.751" y1="1622.169" x2="2126.854" y2="1746.931"/>
	<line class="st4" x1="1284.269" y1="1260.459" x2="1500.359" y2="1385.221"/>
	<path class="st4" d="M2126.859,1746.927c1.063,0.614,1.925,0.117,1.925-1.112"/>
	<path class="st4" d="M1282.349,1257.13c0,1.228,0.862,2.722,1.926,3.336"/>
	<line class="st4" x1="2032.024" y1="704.034" x2="2032.024" y2="599.656"/>
	<polyline class="st4" points="2011.662,612.244 2013.551,611.15 2015.428,610.056 2017.282,608.939 2019.136,607.822 
		2020.979,606.705 2022.799,605.576 2024.618,604.436 2026.426,603.296 2028.212,602.144 2029.997,600.992 2031.77,599.829 
		2033.521,598.666 2035.271,597.491 2036.999,596.305 2038.715,595.119 2040.431,593.921 2042.124,592.723 2043.806,591.514 
		2045.475,590.305 2047.134,589.084 2048.781,587.863 2050.416,586.631 2052.04,585.387 2053.641,584.143 2055.241,582.9 
		2056.82,581.644 2058.385,580.377 2059.941,579.11 2061.484,577.844 2063.015,576.565 2064.536,575.275 2066.033,573.985 
		2067.53,572.695 2069.004,571.394 2070.467,570.081 2071.918,568.768 2073.358,567.455 2074.774,566.131 2076.179,564.795 
		2077.584,563.459 2078.955,562.123 2080.325,560.776 2081.684,559.428 2083.02,558.069 2084.345,556.71 2085.658,555.351 
		2086.959,553.981 2088.238,552.599 2089.504,551.216 2090.76,549.834 2092.003,548.441 2093.236,547.047 2094.445,545.643 
		2095.643,544.237 2096.818,542.832 2097.992,541.416 2099.144,539.999 2100.284,538.571 2101.401,537.143 2102.518,535.715 
		2103.612,534.275 2104.683,532.836 2105.755,531.384 2106.802,529.934 2107.839,528.482 2108.853,527.02 2109.866,525.557 
		2110.845,524.095 2111.824,522.62 2112.78,521.146 2113.724,519.672 2114.657,518.186 2115.567,516.7 2116.465,515.203 
		2117.341,513.718 2118.216,512.22 2119.056,510.712 2119.897,509.215 2120.715,507.706 2121.521,506.186 2122.304,504.677 
		2123.076,503.157 2123.836,501.637 2124.573,500.105 2125.299,498.585 2126.001,497.053 2126.692,495.509 2127.372,493.978 
		2128.028,492.434 2128.673,490.891 2129.306,489.348 2129.917,487.793 2130.504,486.25 2131.092,484.695 2131.645,483.14 
		2132.198,481.574 2132.727,480.019 2133.234,478.453 2133.729,476.887 2134.213,475.32 2134.673,473.743 2135.122,472.176 
		2135.548,470.599 2135.963,469.021 2136.366,467.443 2136.747,465.865 2137.104,464.287 2137.449,462.698 2137.783,461.12 
		2138.094,459.531 2138.393,457.941 2138.67,456.352 2138.935,454.763 2139.176,453.174 2139.407,451.573 2139.625,449.984 
		2139.822,448.394 2139.994,446.793 2140.155,445.192 2140.305,443.603 2140.432,442.002 2140.535,440.401 2140.639,438.812 
		2140.708,437.211 2140.766,435.61 2140.812,434.009 2140.835,432.409 2140.846,430.808 2140.846,279.764 2140.823,277.357 
		2140.766,274.962 2140.674,272.566 2140.535,270.171 2140.363,267.764 2140.155,265.38 2139.902,262.984 2139.614,260.589 
		2139.292,258.205 2138.923,255.809 2138.52,253.425 2138.083,251.053 2137.61,248.669 2137.092,246.296 2136.539,243.924 
		2135.952,241.551 2135.33,239.19 2134.662,236.83 2133.959,234.48 2133.222,232.13 2132.45,229.781 2131.633,227.443 
		2130.792,225.105 2129.906,222.779 2128.984,220.452 2128.028,218.137 2127.026,215.823 2126.001,213.519 2124.93,211.228 
		2123.836,208.936 2122.696,206.655 2121.521,204.386 2120.312,202.118 2119.056,199.86 2117.778,197.603 2116.465,195.357 
		2115.106,193.123 2113.724,190.9 2112.308,188.689 2110.845,186.478 2109.359,184.278 2107.839,182.09 2106.273,179.913 
		2104.683,177.736 2103.06,175.583 2101.401,173.429 2099.708,171.287 2097.98,169.156 2096.23,167.037 2094.434,164.93 
		2092.614,162.834 2090.76,160.737 2088.871,158.665 2086.948,156.603 2085.001,154.541 2083.02,152.503 2081.005,150.464 
		2078.955,148.449 2076.882,146.445 2074.774,144.441 2072.632,142.46 2070.467,140.491 2068.267,138.533 2066.033,136.587 
		2063.775,134.652 2061.484,132.729 2059.169,130.817 2056.82,128.928 2054.447,127.051 2052.04,125.173 2049.598,123.319 
		2047.134,121.488 2044.646,119.657 2042.124,117.849 2039.567,116.052 2036.999,114.267 2034.396,112.494 2031.759,110.743 
		2029.098,109.004 2026.415,107.276 2023.708,105.56 2020.968,103.867 2018.203,102.186 2015.416,100.516 2012.606,98.869 
		2009.762,97.234 2006.894,95.621 2004.003,94.009 2001.089,92.419 1998.152,90.853 1995.193,89.298 1992.198,87.755 
		1989.192,86.235 1986.152,84.726 1983.1,83.241 1980.014,81.766 1976.916,80.304 1973.783,78.864 1970.639,77.448 1967.472,76.031 
		1964.281,74.649 1961.068,73.278 1957.832,71.919 1954.573,70.584 1951.302,69.271 1948.008,67.969 1944.691,66.679 
		1941.351,65.413 1938,64.168 1934.614,62.936 1931.228,61.727 1927.807,60.541 1924.376,59.366 1920.932,58.203 1917.465,57.063 
		1913.976,55.946 1910.475,54.851 1906.962,53.769 1903.426,52.709 1899.868,51.661 1896.309,50.636 1892.727,49.635 
		1889.122,48.644 1885.506,47.676 1881.878,46.732 1878.239,45.799 1874.577,44.889 1870.903,44.002 1867.229,43.127 
		1863.52,42.275 1859.812,41.446 1856.092,40.64 1852.349,39.845 1848.606,39.073 1844.84,38.325 1841.074,37.588 1837.285,36.885 
		1833.496,36.194 1829.684,35.515 1825.872,34.87 1822.048,34.236 1818.213,33.637 1814.367,33.039 1810.508,32.474 1806.65,31.933 
		1802.781,31.403 1798.899,30.896 1795.007,30.413 1791.114,29.952 1787.221,29.503 1783.306,29.077 1779.39,28.674 
		1775.474,28.293 1771.547,27.937 1767.62,27.591 1763.681,27.28 1759.742,26.981 1755.792,26.693 1751.841,26.439 1747.891,26.209 
		1743.929,25.99 1739.968,25.795 1736.006,25.622 1732.044,25.472 1728.071,25.345 1724.097,25.23 1720.136,25.138 1716.162,25.08 
		1712.189,25.034 1708.204,25 1704.231,25 1700.257,25.023 1696.284,25.057 1692.311,25.115 1688.337,25.196 1684.376,25.299 
		1680.402,25.426 1676.441,25.564 1672.467,25.737 1668.506,25.921 1664.555,26.128 1660.594,26.359 1656.643,26.612 
		1652.693,26.877 1648.754,27.177 1644.815,27.487 1640.888,27.821 1636.949,28.167 1633.034,28.547 1629.118,28.939 
		1625.202,29.365 1621.298,29.802 1617.405,30.252 1613.513,30.735 1609.631,31.231 1605.762,31.749 1601.892,32.29 
		1598.045,32.854 1594.187,33.442 1590.352,34.041 1586.529,34.662 1582.705,35.308 1578.893,35.964 1575.092,36.644 
		1571.315,37.357 1567.537,38.071 1563.771,38.82 1560.017,39.58 1556.274,40.363 1552.542,41.17 1548.834,41.999 1545.125,42.84 
		1541.44,43.703 1537.755,44.59 1534.092,45.488 1530.453,46.41 1526.814,47.354 1523.197,48.322 1519.593,49.3 1516.011,50.302 
		1512.429,51.316 1508.882,52.353 1505.335,53.412 1501.81,54.483 1498.309,55.577 1494.82,56.694 1491.342,57.823 1487.887,58.975 
		1484.455,60.149 1481.034,61.336 1477.637,62.533 1474.251,63.754 1470.888,64.998 1467.548,66.265 1464.219,67.532 
		1460.914,68.833 1457.632,70.146 1454.373,71.47 1451.125,72.818 1447.912,74.188 1444.71,75.57 1441.531,76.976 1438.376,78.392 
		1435.243,79.82 1432.134,81.271 1429.047,82.745 1425.972,84.231 1422.932,85.728 1419.914,87.248 1416.92,88.78 1413.948,90.335 
		1411,91.901 1408.075,93.479 1405.184,95.08 1402.305,96.692 1399.46,98.316 	"/>
	<polyline class="st4" points="2140.846,710.69 2140.823,708.352 2140.777,706.015 2140.685,703.677 2140.558,701.35 
		2140.386,699.012 2140.19,696.674 2139.948,694.348 2139.683,692.022 2139.372,689.695 2139.027,687.369 2138.647,685.042 
		2138.22,682.716 2137.771,680.401 2137.288,678.086 2136.758,675.772 2136.205,673.468 2135.606,671.165 2134.973,668.861 
		2134.316,666.569 2133.614,664.277 2132.877,661.986 2132.105,659.705 2131.299,657.425 2130.458,655.156 2129.583,652.888 
		2128.673,650.63 2127.729,648.373 2126.75,646.127 2125.736,643.881 2124.688,641.647 2123.606,639.424 2122.5,637.202 
		2121.348,634.99 2120.162,632.779 2118.941,630.579 2117.698,628.391 2116.407,626.203 2115.095,624.026 2113.747,621.861 
		2112.354,619.696 2110.937,617.554 2109.497,615.411 2108.012,613.269 2106.503,611.15 2104.96,609.031 2103.382,606.924 
		2101.77,604.828 2100.134,602.743 2098.453,600.67 2096.76,598.597 2095.021,596.535 2093.259,594.485 2091.462,592.447 
		2089.631,590.42 2087.777,588.404 2085.888,586.401 2083.976,584.408 2082.03,582.416 2080.049,580.446 2078.045,578.488 
		2076.007,576.531 2073.945,574.596 2071.849,572.661 2069.718,570.749 	"/>
	<polyline class="st4" points="1474.711,494.519 1472.178,495.452 1469.644,496.396 1467.122,497.341 1464.623,498.308 
		1462.123,499.287 1459.647,500.266 1457.171,501.256 1454.706,502.27 1452.265,503.283 1449.823,504.309 1447.393,505.333 
		1444.986,506.381 1442.591,507.441 1440.195,508.5 1437.823,509.572 1435.462,510.654 1433.112,511.748 1430.775,512.854 
		1428.448,513.959 1426.133,515.077 1423.841,516.217 1421.549,517.346 1419.281,518.497 1417.023,519.66 1414.778,520.824 
		1412.543,521.998 1410.332,523.185 1408.132,524.382 1405.933,525.591 1403.767,526.801 1401.602,528.022 1399.46,529.254 	"/>
	<polyline class="st4" points="2011.662,1012.087 2013.551,1010.993 2015.428,1009.887 2017.282,1008.781 2019.136,1007.664 
		2020.979,1006.536 2022.799,1005.407 2024.618,1004.278 2026.426,1003.126 2028.212,1001.986 2029.997,1000.823 2031.77,999.66 
		2033.521,998.497 2035.271,997.322 2036.999,996.136 2038.715,994.95 2040.431,993.763 2042.124,992.554 2043.806,991.356 
		2045.475,990.135 2047.134,988.915 2048.781,987.694 2050.416,986.462 2052.04,985.229 2053.641,983.985 2055.241,982.73 
		2056.82,981.475 2058.385,980.219 2059.941,978.952 2061.484,977.674 2063.015,976.396 2064.536,975.106 2066.033,973.816 
		2067.53,972.526 2069.004,971.225 2070.467,969.912 2071.918,968.599 2073.358,967.286 2074.774,965.961 2076.179,964.637 
		2077.584,963.301 2078.955,961.954 2080.325,960.618 2081.684,959.259 2083.02,957.911 2084.345,956.541 2085.658,955.182 
		2086.959,953.811 2088.238,952.429 2089.504,951.047 2090.76,949.665 2092.003,948.272 2093.236,946.878 2094.445,945.485 
		2095.643,944.08 2096.818,942.663 2097.992,941.246 2099.144,939.83 2100.284,938.402 2101.401,936.974 2102.518,935.546 
		2103.612,934.106 2104.683,932.666 2105.755,931.215 2106.802,929.764 2107.839,928.313 2108.853,926.85 2109.866,925.388 
		2110.845,923.925 2111.824,922.451 2112.78,920.977 2113.724,919.503 2114.657,918.017 2115.567,916.531 2116.465,915.046 
		2117.341,913.548 2118.216,912.051 2119.056,910.543 2119.897,909.045 2120.715,907.537 2121.521,906.028 2122.304,904.508 
		2123.076,902.988 2123.836,901.467 2124.573,899.935 2125.299,898.415 2126.001,896.883 2126.692,895.352 2127.372,893.809 
		2128.028,892.265 2128.673,890.722 2129.306,889.179 2129.917,887.636 2130.504,886.081 2131.092,884.526 2131.645,882.971 
		2132.198,881.405 2132.727,879.85 2133.234,878.284 2133.729,876.717 2134.213,875.151 2134.673,873.585 2135.122,872.007 
		2135.548,870.429 2135.963,868.852 2136.366,867.274 2136.747,865.696 2137.104,864.118 2137.449,862.529 2137.783,860.951 
		2138.094,859.362 2138.393,857.772 2138.67,856.183 2138.935,854.593 2139.176,853.004 2139.407,851.415 2139.625,849.814 
		2139.822,848.225 2139.994,846.624 2140.155,845.035 2140.305,843.434 2140.432,841.833 2140.535,840.243 2140.639,838.643 
		2140.708,837.042 2140.766,835.441 2140.812,833.84 2140.835,832.239 2140.846,830.639 2140.846,710.69 	"/>
	<polyline class="st4" points="2140.846,906.166 2140.823,903.817 2140.766,901.456 2140.674,899.106 2140.547,896.745 
		2140.374,894.396 2140.167,892.047 2139.925,889.697 2139.637,887.347 2139.315,884.998 2138.958,882.649 2138.566,880.311 
		2138.129,877.961 2137.656,875.623 2137.15,873.297 2136.608,870.959 2136.021,868.633 	"/>
	<polyline class="st4" points="1462.169,696.79 1460.027,697.63 1457.897,698.482 1455.778,699.335 1453.659,700.198 
		1451.562,701.062 1449.466,701.949 1447.37,702.836 1445.297,703.723 1443.224,704.621 1441.163,705.531 1439.113,706.441 
		1437.074,707.362 1435.047,708.295 1433.02,709.228 1431.005,710.172 1429.001,711.117 1427.009,712.073 1425.028,713.04 
		1423.058,714.007 1421.089,714.986 1419.143,715.965 1417.196,716.956 1415.261,717.958 1413.338,718.96 1411.426,719.961 
		1409.526,720.987 1407.626,722 1405.748,723.037 1403.883,724.073 1402.017,725.11 1400.163,726.158 1398.332,727.217 	"/>
	<polyline class="st4" points="2012.791,1125.102 2014.679,1124.007 2016.545,1122.902 2018.411,1121.796 2020.253,1120.679 
		2022.096,1119.562 2023.916,1118.433 2025.735,1117.305 2027.532,1116.165 2029.317,1115.013 2031.102,1113.861 2032.864,1112.698 
		2034.615,1111.535 2036.354,1110.36 2038.081,1109.185 2039.798,1107.999 2041.502,1106.813 2043.195,1105.615 2044.876,1104.406 
		2046.535,1103.197 2048.193,1101.987 2049.828,1100.766 2051.453,1099.534 2053.065,1098.302 2054.666,1097.069 2056.255,1095.826 
		2057.833,1094.571 2059.399,1093.315 2060.942,1092.06 2062.474,1090.793 2064.006,1089.515 2065.514,1088.236 2067,1086.958 
		2068.486,1085.668 2069.949,1084.378 2071.411,1083.076 2072.851,1081.775 2074.279,1080.462 2075.684,1079.149 2077.089,1077.825 
		2078.471,1076.5 2079.842,1075.176 2081.201,1073.84 2082.548,1072.493 2083.872,1071.157 2085.185,1069.798 2086.487,1068.45 
		2087.777,1067.091 2089.043,1065.721 2090.299,1064.362 2091.543,1062.979 2092.775,1061.609 2093.984,1060.227 2095.193,1058.833 
		2096.368,1057.451 2097.543,1056.047 2098.695,1054.653 2099.835,1053.248 2100.963,1051.843 2102.081,1050.426 2103.175,1049.01 
		2104.257,1047.593 2105.317,1046.165 2106.376,1044.737 2107.413,1043.309 2108.427,1041.869 2109.44,1040.429 2110.43,1038.99 
		2111.398,1037.539 2112.365,1036.088 2113.31,1034.636 2114.242,1033.174 2115.152,1031.723 2116.051,1030.249 2116.938,1028.786 
		2117.801,1027.312 2118.653,1025.838 2119.494,1024.364 2120.312,1022.878 2121.118,1021.404 2121.913,1019.907 2122.684,1018.421 
		2123.444,1016.924 2124.182,1015.438 2124.907,1013.929 2125.621,1012.432 2126.312,1010.935 2126.992,1009.426 2127.66,1007.918 
		2128.305,1006.409 2128.938,1004.889 2129.549,1003.368 2130.147,1001.859 2130.735,1000.34 2131.299,998.808 2131.852,997.287 
		2132.381,995.756 2132.9,994.224 2133.406,992.692 2133.89,991.16 2134.363,989.629 2134.812,988.097 2135.249,986.554 
		2135.675,985.011 2136.078,983.467 2136.47,981.924 2136.838,980.381 2137.196,978.838 2137.53,977.294 2137.852,975.739 
		2138.163,974.185 2138.451,972.641 2138.727,971.087 2138.981,969.532 2139.222,967.977 2139.441,966.422 2139.648,964.868 
		2139.844,963.313 2140.017,961.758 2140.178,960.192 2140.317,958.637 2140.443,957.071 2140.547,955.516 2140.639,953.961 
		2140.708,952.395 2140.777,950.828 2140.812,949.274 2140.835,947.707 2140.846,946.153 2140.846,906.166 	"/>
	<polyline class="st4" points="2304.075,1017.235 2304.063,1015.173 2304.04,1013.123 2303.983,1011.062 2303.913,1009 
		2303.81,1006.95 2303.695,1004.889 2303.556,1002.839 2303.407,1000.789 2303.223,998.727 2303.027,996.677 2302.797,994.627 
		2302.554,992.577 2302.29,990.516 2302.013,988.477 2301.702,986.427 2301.38,984.377 2301.034,982.327 2300.666,980.288 
		2300.274,978.239 2299.871,976.2 2299.433,974.162 2298.984,972.123 2298.512,970.085 2298.017,968.046 2297.51,966.008 
		2296.98,963.981 2296.416,961.954 2295.852,959.927 2295.253,957.9 2294.631,955.873 2293.997,953.846 2293.341,951.831 
		2292.661,949.815 2291.971,947.8 2291.245,945.784 2290.508,943.78 2289.748,941.776 2288.965,939.772 2288.17,937.768 
		2287.352,935.776 2286.511,933.772 2285.648,931.78 2284.772,929.799 2283.863,927.806 2282.941,925.826 2282.009,923.844 
		2281.041,921.875 2280.062,919.906 2279.06,917.936 2278.035,915.967 2276.987,914.009 2275.928,912.051 2274.845,910.094 
		2273.751,908.147 2272.622,906.201 2271.482,904.266 2270.319,902.319 2269.133,900.396 2267.935,898.461 2266.714,896.538 
		2265.47,894.615 2264.215,892.703 2262.937,890.791 2261.635,888.891 2260.322,886.99 2258.975,885.09 2257.627,883.202 
		2256.245,881.313 2254.852,879.424 2253.435,877.547 2252.007,875.681 2250.556,873.804 2249.082,871.95 2247.585,870.084 
		2246.076,868.241 2244.556,866.387 2243.012,864.544 2241.446,862.713 2239.857,860.882 2238.256,859.062 2236.632,857.242 
		2234.997,855.423 2233.338,853.615 2231.668,851.818 2229.975,850.021 2228.26,848.225 2226.532,846.44 2224.781,844.666 
		2223.019,842.892 2221.234,841.13 2219.437,839.368 2217.618,837.618 2215.787,835.867 2213.933,834.128 2212.055,832.389 
		2210.166,830.662 2208.254,828.946 2206.331,827.229 2204.396,825.513 2202.438,823.821 2200.458,822.128 2198.465,820.435 
		2196.45,818.753 2194.423,817.083 2192.385,815.413 2190.323,813.755 2188.238,812.108 2186.142,810.461 2184.034,808.825 
		2181.904,807.19 2179.762,805.566 2177.597,803.954 2175.42,802.342 2173.232,800.741 2171.021,799.152 2168.786,797.574 
		2166.552,795.996 2164.295,794.418 2162.014,792.863 2159.723,791.308 2157.419,789.754 2155.104,788.222 2152.766,786.69 
		2150.405,785.17 2148.044,783.65 2145.661,782.153 2143.265,780.655 2140.846,779.158 	"/>
	<polyline class="st4" points="1437.339,707.247 1434.667,708.019 1432.007,708.813 1429.358,709.608 1426.709,710.403 
		1424.072,711.209 1421.446,712.026 1418.82,712.856 1416.206,713.685 1413.591,714.526 1410.989,715.366 1408.397,716.23 
		1405.806,717.083 1403.226,717.958 1400.646,718.833 1398.09,719.72 1395.521,720.607 1392.976,721.505 1390.431,722.415 
		1387.897,723.325 1385.375,724.246 1382.853,725.179 1380.342,726.112 1377.843,727.056 1375.344,728 1372.856,728.956 
		1370.38,729.924 1367.904,730.891 1365.451,731.87 1362.986,732.861 1360.545,733.851 1358.115,734.853 1355.685,735.855 
		1353.266,736.868 1350.859,737.893 1348.452,738.918 1346.057,739.955 1343.672,741.003 1341.3,742.051 1338.939,743.099 
		1336.578,744.17 1334.229,745.229 1331.891,746.312 1329.564,747.395 1327.249,748.477 1324.935,749.583 1322.631,750.677 
		1320.339,751.794 1318.059,752.911 1315.79,754.028 1313.533,755.157 1311.276,756.297 1309.03,757.438 1306.807,758.589 
		1304.573,759.741 1302.361,760.904 1300.162,762.067 1297.974,763.242 1295.785,764.428 1293.609,765.614 1291.455,766.812 
		1289.301,768.01 1287.159,769.208 1285.029,770.429 1282.91,771.649 	"/>
	<polyline class="st4" points="2128.213,1302.807 2130.804,1301.298 2133.372,1299.789 2135.929,1298.258 2138.474,1296.726 
		2140.996,1295.194 2143.507,1293.639 2146.006,1292.084 2148.482,1290.518 2150.935,1288.94 2153.377,1287.351 2155.807,1285.762 
		2158.214,1284.161 2160.609,1282.549 2162.982,1280.925 2165.343,1279.301 2167.681,1277.665 2170.007,1276.018 2172.31,1274.36 
		2174.602,1272.702 2176.871,1271.032 2179.128,1269.35 2181.363,1267.669 2183.585,1265.976 2185.785,1264.271 2187.962,1262.567 
		2190.127,1260.839 2192.269,1259.123 2194.4,1257.384 2196.507,1255.645 2198.604,1253.895 2200.676,1252.144 2202.727,1250.382 
		2204.765,1248.608 2206.781,1246.835 2208.773,1245.05 2210.754,1243.253 2212.712,1241.456 2214.658,1239.648 2216.581,1237.84 
		2218.482,1236.02 2220.359,1234.189 2222.224,1232.358 2224.067,1230.515 2225.898,1228.673 2227.707,1226.818 2229.491,1224.953 
		2231.254,1223.087 2233.004,1221.221 2234.732,1219.333 2236.436,1217.455 2238.129,1215.555 2239.788,1213.666 2241.435,1211.754 
		2243.07,1209.843 2244.671,1207.931 2246.26,1206.008 2247.826,1204.084 2249.37,1202.149 2250.901,1200.215 2252.399,1198.268 
		2253.885,1196.322 2255.347,1194.364 2256.798,1192.406 2258.215,1190.437 2259.62,1188.467 2261.002,1186.486 2262.361,1184.506 
		2263.697,1182.525 2265.01,1180.532 2266.311,1178.54 2267.589,1176.536 2268.845,1174.532 2270.077,1172.528 2271.286,1170.513 
		2272.484,1168.485 2273.647,1166.47 2274.799,1164.443 2275.928,1162.405 2277.033,1160.378 2278.116,1158.328 2279.175,1156.289 
		2280.212,1154.239 2281.237,1152.189 2282.227,1150.139 2283.206,1148.078 2284.162,1146.016 2285.083,1143.943 2285.993,1141.881 
		2286.88,1139.809 2287.755,1137.724 2288.596,1135.651 2289.414,1133.567 2290.22,1131.482 2290.992,1129.397 2291.752,1127.301 
		2292.478,1125.205 2293.191,1123.109 2293.882,1121.013 2294.55,1118.906 2295.195,1116.809 2295.817,1114.702 2296.416,1112.594 
		2296.992,1110.475 2297.545,1108.368 2298.074,1106.249 2298.581,1104.129 2299.076,1102.01 2299.537,1099.891 2299.975,1097.772 
		2300.401,1095.641 2300.792,1093.511 2301.172,1091.392 2301.518,1089.261 2301.852,1087.13 2302.163,1085 2302.439,1082.869 
		2302.704,1080.727 2302.946,1078.596 2303.154,1076.466 2303.349,1074.324 2303.522,1072.182 2303.672,1070.051 2303.798,1067.909 
		2303.902,1065.778 2303.971,1063.636 2304.029,1061.494 2304.063,1059.352 2304.075,1057.21 2304.075,1017.235 	"/>
	<polyline class="st4" points="2304.075,1128.292 2304.063,1126.069 2304.029,1123.846 2303.971,1121.623 2303.879,1119.401 
		2303.775,1117.166 2303.637,1114.944 2303.476,1112.721 2303.292,1110.498 2303.084,1108.275 2302.854,1106.053 2302.589,1103.841 
		2302.313,1101.619 2302.002,1099.396 2301.668,1097.185 2301.311,1094.974 2300.931,1092.751 	"/>
	<polyline class="st4" points="1345.216,851.392 1341.104,853.2 1337.027,855.031 1332.974,856.874 1328.943,858.751 
		1324.946,860.64 1320.984,862.552 1317.046,864.475 1313.13,866.421 1309.249,868.391 1305.391,870.383 1301.567,872.387 
		1297.778,874.414 1294.012,876.464 1290.28,878.526 1286.572,880.61 1282.91,882.706 	"/>
	<polyline class="st4" points="2128.213,1413.864 2130.804,1412.367 2133.372,1410.846 2135.929,1409.326 2138.474,1407.794 
		2140.996,1406.251 2143.507,1404.708 2146.006,1403.142 2148.482,1401.575 2150.935,1399.997 2153.377,1398.42 2155.807,1396.819 
		2158.214,1395.218 2160.609,1393.606 2162.982,1391.993 2165.343,1390.358 2167.681,1388.723 2170.007,1387.075 2172.31,1385.429 
		2174.602,1383.77 2176.871,1382.1 2179.128,1380.419 2181.363,1378.737 2183.585,1377.044 2185.785,1375.34 2187.962,1373.624 
		2190.127,1371.908 2192.269,1370.18 2194.4,1368.453 2196.507,1366.714 2198.604,1364.963 2200.676,1363.213 2202.727,1361.45 
		2204.765,1359.677 2206.781,1357.892 2208.773,1356.107 2210.754,1354.322 2212.712,1352.525 2214.658,1350.717 2216.581,1348.897 
		2218.482,1347.077 2220.359,1345.258 2222.224,1343.427 2224.067,1341.584 2225.898,1339.73 2227.707,1337.875 2229.491,1336.021 
		2231.254,1334.156 2233.004,1332.278 2234.732,1330.401 2236.436,1328.512 2238.129,1326.624 2239.788,1324.723 2241.435,1322.823 
		2243.07,1320.911 2244.671,1318.999 2246.26,1317.076 2247.826,1315.153 2249.37,1313.218 2250.901,1311.272 2252.399,1309.337 
		2253.885,1307.379 2255.347,1305.432 2256.798,1303.463 2258.215,1301.505 2259.62,1299.536 2261.002,1297.555 2262.361,1295.574 
		2263.697,1293.593 2265.01,1291.601 2266.311,1289.597 2267.589,1287.604 2268.845,1285.6 2270.077,1283.585 2271.286,1281.569 
		2272.484,1279.554 2273.647,1277.527 2274.799,1275.5 2275.928,1273.473 2277.033,1271.435 2278.116,1269.396 2279.175,1267.358 
		2280.212,1265.308 2281.237,1263.258 2282.227,1261.196 2283.206,1259.146 2284.162,1257.073 2285.083,1255.012 2285.993,1252.939 
		2286.88,1250.866 2287.755,1248.793 2288.596,1246.72 2289.414,1244.635 2290.22,1242.55 2290.992,1240.454 2291.752,1238.37 
		2292.478,1236.274 2293.191,1234.178 2293.882,1232.082 2294.55,1229.974 2295.195,1227.867 2295.817,1225.759 2296.416,1223.651 
		2296.992,1221.544 2297.545,1219.425 2298.074,1217.317 2298.581,1215.198 2299.076,1213.079 2299.537,1210.96 2299.975,1208.829 
		2300.401,1206.71 2300.792,1204.579 2301.172,1202.449 2301.518,1200.33 2301.852,1198.199 2302.163,1196.057 2302.439,1193.926 
		2302.704,1191.796 2302.946,1189.665 2303.154,1187.523 2303.349,1185.392 2303.522,1183.25 2303.672,1181.12 2303.798,1178.978 
		2303.902,1176.835 2303.971,1174.693 2304.029,1172.563 2304.063,1170.421 2304.075,1168.278 2304.075,1128.292 	"/>
	<polyline class="st4" points="2304.075,1239.36 2304.063,1237.137 2304.029,1234.915 2303.971,1232.681 2303.879,1230.458 
		2303.775,1228.235 2303.637,1226.012 2303.476,1223.79 2303.292,1221.567 2303.084,1219.344 2302.854,1217.121 2302.589,1214.898 
		2302.313,1212.687 2302.002,1210.464 2301.668,1208.253 2301.311,1206.031 2300.931,1203.819 	"/>
	<polyline class="st4" points="1345.216,962.461 1341.104,964.269 1337.027,966.088 1332.974,967.943 1328.943,969.808 
		1324.946,971.697 1320.984,973.609 1317.046,975.544 1313.13,977.49 1309.249,979.459 1305.391,981.452 1301.567,983.456 
		1297.778,985.483 1294.012,987.521 1290.28,989.594 1286.572,991.667 1282.91,993.775 	"/>
	<polyline class="st4" points="2128.213,1524.932 2130.804,1523.424 2133.372,1521.915 2135.929,1520.395 2138.474,1518.863 
		2140.996,1517.32 2143.507,1515.765 2146.006,1514.21 2148.482,1512.644 2150.935,1511.066 2153.377,1509.477 2155.807,1507.887 
		2158.214,1506.286 2160.609,1504.674 2162.982,1503.05 2165.343,1501.426 2167.681,1499.791 2170.007,1498.144 2172.31,1496.497 
		2174.602,1494.827 2176.871,1493.157 2179.128,1491.487 2181.363,1489.794 2183.585,1488.101 2185.785,1486.397 2187.962,1484.692 
		2190.127,1482.976 2192.269,1481.249 2194.4,1479.521 2196.507,1477.771 2198.604,1476.032 2200.676,1474.27 2202.727,1472.508 
		2204.765,1470.734 2206.781,1468.96 2208.773,1467.175 2210.754,1465.39 2212.712,1463.582 2214.658,1461.785 2216.581,1459.966 
		2218.482,1458.146 2220.359,1456.315 2222.224,1454.484 2224.067,1452.641 2225.898,1450.798 2227.707,1448.944 2229.491,1447.09 
		2231.254,1445.213 2233.004,1443.347 2234.732,1441.47 2236.436,1439.581 2238.129,1437.692 2239.788,1435.792 2241.435,1433.892 
		2243.07,1431.98 2244.671,1430.056 2246.26,1428.145 2247.826,1426.21 2249.37,1424.275 2250.901,1422.34 2252.399,1420.394 
		2253.885,1418.447 2255.347,1416.49 2256.798,1414.532 2258.215,1412.562 2259.62,1410.593 2261.002,1408.624 2262.361,1406.643 
		2263.697,1404.65 2265.01,1402.658 2266.311,1400.665 2267.589,1398.673 2268.845,1396.658 2270.077,1394.654 2271.286,1392.638 
		2272.484,1390.623 2273.647,1388.596 2274.799,1386.569 2275.928,1384.542 2277.033,1382.503 2278.116,1380.465 2279.175,1378.415 
		2280.212,1376.376 2281.237,1374.315 2282.227,1372.265 2283.206,1370.203 2284.162,1368.142 2285.083,1366.08 2285.993,1364.007 
		2286.88,1361.934 2287.755,1359.861 2288.596,1357.777 2289.414,1355.704 2290.22,1353.607 2290.992,1351.523 2291.752,1349.438 
		2292.478,1347.342 2293.191,1345.246 2293.882,1343.139 2294.55,1341.043 2295.195,1338.935 2295.817,1336.828 2296.416,1334.72 
		2296.992,1332.612 2297.545,1330.493 2298.074,1328.374 2298.581,1326.266 2299.076,1324.147 2299.537,1322.017 2299.975,1319.898 
		2300.401,1317.767 2300.792,1315.648 2301.172,1313.517 2301.518,1311.387 2301.852,1309.256 2302.163,1307.125 2302.439,1304.995 
		2302.704,1302.864 2302.946,1300.722 2303.154,1298.591 2303.349,1296.449 2303.522,1294.319 2303.672,1292.177 2303.798,1290.046 
		2303.902,1287.904 2303.971,1285.762 2304.029,1283.62 2304.063,1281.489 2304.075,1279.347 2304.075,1239.36 	"/>
	<polyline class="st4" points="2304.075,1350.429 2304.063,1348.206 2304.029,1345.972 2303.971,1343.749 2303.879,1341.526 
		2303.775,1339.304 2303.637,1337.081 2303.476,1334.858 2303.292,1332.635 2303.084,1330.413 2302.854,1328.19 2302.589,1325.967 
		2302.313,1323.744 2302.002,1321.533 2301.668,1319.31 2301.311,1317.099 2300.931,1314.888 	"/>
	<polyline class="st4" points="1345.216,1073.518 1341.104,1075.326 1337.027,1077.157 1332.974,1079.011 1328.943,1080.877 
		1324.946,1082.766 1320.984,1084.677 1317.046,1086.601 1313.13,1088.558 1309.249,1090.528 1305.391,1092.509 1301.567,1094.524 
		1297.778,1096.54 1294.012,1098.59 1290.28,1100.651 1286.572,1102.736 1282.91,1104.844 	"/>
	<polyline class="st4" points="2128.213,1636.001 2130.804,1634.492 2133.372,1632.983 2135.929,1631.463 2138.474,1629.932 
		2140.996,1628.388 2143.507,1626.833 2146.006,1625.279 2148.482,1623.713 2150.935,1622.135 2153.377,1620.545 2155.807,1618.956 
		2158.214,1617.355 2160.609,1615.743 2162.982,1614.119 2165.343,1612.495 2167.681,1610.859 2170.007,1609.213 2172.31,1607.554 
		2174.602,1605.896 2176.871,1604.226 2179.128,1602.544 2181.363,1600.863 2183.585,1599.17 2185.785,1597.466 2187.962,1595.761 
		2190.127,1594.045 2192.269,1592.318 2194.4,1590.578 2196.507,1588.839 2198.604,1587.089 2200.676,1585.338 2202.727,1583.576 
		2204.765,1581.803 2206.781,1580.029 2208.773,1578.244 2210.754,1576.447 2212.712,1574.651 2214.658,1572.842 2216.581,1571.034 
		2218.482,1569.215 2220.359,1567.384 2222.224,1565.552 2224.067,1563.709 2225.898,1561.867 2227.707,1560.013 2229.491,1558.147 
		2231.254,1556.281 2233.004,1554.415 2234.732,1552.527 2236.436,1550.649 2238.129,1548.749 2239.788,1546.86 2241.435,1544.949 
		2243.07,1543.048 2244.671,1541.125 2246.26,1539.202 2247.826,1537.278 2249.37,1535.344 2250.901,1533.409 2252.399,1531.463 
		2253.885,1529.516 2255.347,1527.558 2256.798,1525.6 2258.215,1523.631 2259.62,1521.661 2261.002,1519.681 2262.361,1517.7 
		2263.697,1515.719 2265.01,1513.726 2266.311,1511.734 2267.589,1509.73 2268.845,1507.726 2270.077,1505.722 2271.286,1503.707 
		2272.484,1501.68 2273.647,1499.664 2274.799,1497.637 2275.928,1495.599 2277.033,1493.572 2278.116,1491.534 2279.175,1489.484 
		2280.212,1487.433 2281.237,1485.383 2282.227,1483.333 2283.206,1481.272 2284.162,1479.21 2285.083,1477.137 2285.993,1475.076 
		2286.88,1473.003 2287.755,1470.93 2288.596,1468.845 2289.414,1466.761 2290.22,1464.676 2290.992,1462.592 2291.752,1460.495 
		2292.478,1458.399 2293.191,1456.303 2293.882,1454.207 2294.55,1452.1 2295.195,1450.004 2295.817,1447.896 2296.416,1445.788 
		2296.992,1443.669 2297.545,1441.562 2298.074,1439.443 2298.581,1437.323 2299.076,1435.205 2299.537,1433.085 2299.975,1430.966 
		2300.401,1428.836 2300.792,1426.717 2301.172,1424.586 2301.518,1422.455 2301.852,1420.325 2302.163,1418.194 2302.439,1416.063 
		2302.704,1413.921 2302.946,1411.791 2303.154,1409.66 2303.349,1407.518 2303.522,1405.387 2303.672,1403.245 2303.798,1401.103 
		2303.902,1398.972 2303.971,1396.83 2304.029,1394.688 2304.063,1392.546 2304.075,1390.415 2304.075,1350.429 	"/>
	<polyline class="st4" points="2304.075,1461.486 2304.063,1459.263 2304.029,1457.04 2303.971,1454.818 2303.879,1452.595 
		2303.775,1450.361 2303.637,1448.138 2303.476,1445.915 2303.292,1443.693 2303.084,1441.47 2302.854,1439.258 2302.589,1437.036 
		2302.313,1434.813 2302.002,1432.602 2301.668,1430.379 2301.311,1428.168 2300.931,1425.957 	"/>
	<polyline class="st4" points="1345.216,1184.586 1341.104,1186.394 1337.027,1188.225 1332.974,1190.068 1328.943,1191.945 
		1324.946,1193.834 1320.984,1195.746 1317.046,1197.669 1313.13,1199.616 1309.249,1201.585 1305.391,1203.578 1301.567,1205.581 
		1297.778,1207.608 1294.012,1209.658 1290.28,1211.72 1286.572,1213.804 1282.91,1215.901 	"/>
	<line class="st4" x1="2304.075" y1="1501.472" x2="2304.075" y2="1461.486"/>
	<polyline class="st4" points="2133.982,2416.786 2136.608,2415.266 2139.222,2413.723 2141.814,2412.18 2144.382,2410.625 
		2146.95,2409.07 2149.484,2407.492 2152.018,2405.914 2154.528,2404.325 2157.016,2402.736 2159.492,2401.123 2161.957,2399.511 
		2164.398,2397.887 2166.817,2396.252 2169.224,2394.605 2171.619,2392.958 2173.992,2391.299 2176.353,2389.629 2178.691,2387.96 
		2181.006,2386.267 2183.309,2384.585 2185.589,2382.881 2187.858,2381.165 2190.104,2379.449 2192.338,2377.733 2194.55,2375.994 
		2196.738,2374.254 2198.914,2372.504 2201.068,2370.753 2203.21,2368.991 2205.329,2367.218 2207.437,2365.433 2209.51,2363.647 
		2211.572,2361.851 2213.621,2360.054 2215.648,2358.246 2217.652,2356.427 2219.633,2354.607 2221.603,2352.775 2223.549,2350.933 
		2225.484,2349.09 2227.384,2347.236 2229.284,2345.382 2231.15,2343.516 2233.004,2341.639 2234.835,2339.761 2236.644,2337.873 
		2238.428,2335.984 2240.202,2334.084 2241.953,2332.183 2243.68,2330.272 2245.396,2328.348 2247.078,2326.425 2248.748,2324.502 
		2250.406,2322.567 2252.03,2320.62 2253.642,2318.674 2255.22,2316.716 2256.786,2314.758 2258.342,2312.801 2259.861,2310.831 
		2261.37,2308.85 2262.856,2306.869 2264.319,2304.877 2265.758,2302.885 2267.175,2300.892 2268.58,2298.888 2269.95,2296.884 
		2271.31,2294.869 2272.646,2292.853 2273.958,2290.826 2275.26,2288.799 2276.526,2286.772 2277.782,2284.734 2279.003,2282.695 
		2280.212,2280.646 2281.398,2278.595 2282.562,2276.545 2283.701,2274.484 2284.819,2272.422 2285.924,2270.349 2286.995,2268.276 
		2288.055,2266.203 2289.08,2264.13 2290.094,2262.046 2291.084,2259.95 2292.051,2257.865 2292.996,2255.769 2293.917,2253.673 
		2294.815,2251.577 2295.691,2249.469 2296.543,2247.362 2297.384,2245.254 2298.19,2243.135 2298.973,2241.016 2299.745,2238.897 
		2300.481,2236.778 2301.207,2234.647 2301.91,2232.528 2302.577,2230.397 2303.234,2228.267 2303.867,2226.125 2304.466,2223.982 
		2305.054,2221.852 2305.618,2219.71 2306.159,2217.556 2306.677,2215.414 2307.173,2213.272 2307.634,2211.118 2308.083,2208.965 
		2308.509,2206.811 2308.912,2204.657 2309.292,2202.504 2309.649,2200.338 2309.983,2198.185 2310.294,2196.02 2310.582,2193.866 
		2310.847,2191.701 2311.088,2189.536 2311.308,2187.37 2311.503,2185.205 2311.676,2183.04 2311.826,2180.875 2311.952,2178.71 
		2312.056,2176.533 2312.136,2174.368 2312.194,2172.203 2312.229,2170.038 2312.24,2167.861 2312.24,2127.886 2312.229,2126.032 
		2312.206,2124.189 2312.171,2122.346 2312.102,2120.492 2312.033,2118.649 2311.941,2116.807 2311.826,2114.952 2311.71,2113.11 
		2311.561,2111.267 2311.4,2109.424 2311.227,2107.582 2311.031,2105.739 2310.824,2103.896 2310.605,2102.053 2310.363,2100.211 
		2310.098,2098.368 2309.822,2096.525 2309.534,2094.694 2309.223,2092.852 2308.9,2091.009 2308.555,2089.178 2308.198,2087.346 
		2307.829,2085.515 2307.438,2083.684 2307.023,2081.853 2306.597,2080.022 2306.159,2078.191 2305.698,2076.36 2305.226,2074.54 
		2304.731,2072.72 2304.225,2070.889 2303.706,2069.069 	"/>
	<polyline class="st4" points="1339.388,1847.612 1335.288,1849.42 1331.211,1851.263 1327.169,1853.105 1323.138,1854.982 
		1319.153,1856.871 1315.191,1858.783 1311.253,1860.718 1307.337,1862.676 1303.467,1864.645 1299.609,1866.626 1295.785,1868.641 
		1291.996,1870.668 1288.242,1872.718 1284.51,1874.78 1280.802,1876.865 1277.14,1878.96 	"/>
	<polyline class="st4" points="2128.213,2302.389 2130.804,2300.881 2133.372,2299.372 2135.929,2297.852 2138.474,2296.32 
		2140.996,2294.777 2143.507,2293.222 2146.006,2291.667 2148.482,2290.101 2150.935,2288.523 2153.377,2286.934 2155.807,2285.344 
		2158.214,2283.744 2160.609,2282.131 2162.982,2280.507 2165.343,2278.883 2167.681,2277.248 2170.007,2275.601 2172.31,2273.943 
		2174.602,2272.284 2176.871,2270.614 2179.128,2268.933 2181.363,2267.251 2183.585,2265.559 2185.785,2263.854 2187.962,2262.149 
		2190.127,2260.433 2192.269,2258.706 2194.4,2256.967 2196.507,2255.228 2198.604,2253.489 2200.676,2251.727 2202.727,2249.965 
		2204.765,2248.191 2206.781,2246.417 2208.773,2244.632 2210.754,2242.835 2212.712,2241.039 2214.658,2239.231 2216.581,2237.423 
		2218.482,2235.603 2220.359,2233.772 2222.224,2231.941 2224.067,2230.098 2225.898,2228.255 2227.707,2226.401 2229.491,2224.535 
		2231.254,2222.67 2233.004,2220.804 2234.732,2218.927 2236.436,2217.038 2238.129,2215.149 2239.788,2213.249 2241.435,2211.337 
		2243.07,2209.437 2244.671,2207.513 2246.26,2205.59 2247.826,2203.667 2249.37,2201.732 2250.901,2199.797 2252.399,2197.851 
		2253.885,2195.905 2255.347,2193.947 2256.798,2191.989 2258.215,2190.019 2259.62,2188.05 2261.002,2186.081 2262.361,2184.1 
		2263.697,2182.107 2265.01,2180.115 2266.311,2178.122 2267.589,2176.118 2268.845,2174.115 2270.077,2172.111 2271.286,2170.095 
		2272.484,2168.08 2273.647,2166.053 2274.799,2164.026 2275.928,2161.999 2277.033,2159.96 2278.116,2157.922 2279.175,2155.872 
		2280.212,2153.822 2281.237,2151.772 2282.227,2149.722 2283.206,2147.66 2284.162,2145.599 2285.083,2143.537 2285.993,2141.464 
		2286.88,2139.391 2287.755,2137.318 2288.596,2135.234 2289.414,2133.149 2290.22,2131.064 2290.992,2128.98 2291.752,2126.884 
		2292.478,2124.788 2293.191,2122.692 2293.882,2120.596 2294.55,2118.5 2295.195,2116.392 2295.817,2114.284 2296.416,2112.177 
		2296.992,2110.058 2297.545,2107.95 2298.074,2105.831 2298.581,2103.712 2299.076,2101.593 2299.537,2099.474 2299.975,2097.355 
		2300.401,2095.224 2300.792,2093.105 2301.172,2090.974 2301.518,2088.844 2301.852,2086.713 2302.163,2084.583 2302.439,2082.452 
		2302.704,2080.321 2302.946,2078.179 2303.154,2076.048 2303.349,2073.906 2303.522,2071.776 2303.672,2069.634 2303.798,2067.491 
		2303.902,2065.361 2303.971,2063.219 2304.029,2061.077 2304.063,2058.934 2304.075,2056.804 2304.075,2016.817 2304.063,2014.594 
		2304.029,2012.36 2303.971,2010.138 2303.879,2007.915 2303.775,2005.692 2303.637,2003.469 2303.476,2001.247 2303.292,1999.024 
		2303.084,1996.801 2302.854,1994.578 2302.589,1992.355 2302.313,1990.144 2302.002,1987.922 2301.668,1985.71 2301.311,1983.488 
		2300.931,1981.276 	"/>
	<polyline class="st4" points="1345.216,1739.906 1341.104,1741.714 1337.027,1743.545 1332.974,1745.4 1328.943,1747.265 
		1324.946,1749.154 1320.984,1751.066 1317.046,1753.001 1313.13,1754.947 1309.249,1756.916 1305.391,1758.897 1301.567,1760.913 
		1297.778,1762.94 1294.012,1764.978 1290.28,1767.04 1286.572,1769.124 1282.91,1771.232 	"/>
	<polyline class="st4" points="2128.213,2191.321 2130.804,2189.823 2133.372,2188.303 2135.929,2186.783 2138.474,2185.251 
		2140.996,2183.708 2143.507,2182.165 2146.006,2180.598 2148.482,2179.032 2150.935,2177.454 2153.377,2175.877 2155.807,2174.276 
		2158.214,2172.675 2160.609,2171.063 2162.982,2169.45 2165.343,2167.815 2167.681,2166.179 2170.007,2164.532 2172.31,2162.886 
		2174.602,2161.216 2176.871,2159.546 2179.128,2157.876 2181.363,2156.183 2183.585,2154.49 2185.785,2152.797 2187.962,2151.081 
		2190.127,2149.365 2192.269,2147.637 2194.4,2145.91 2196.507,2144.171 2198.604,2142.42 2200.676,2140.658 2202.727,2138.896 
		2204.765,2137.134 2206.781,2135.349 2208.773,2133.564 2210.754,2131.779 2212.712,2129.97 2214.658,2128.174 2216.581,2126.354 
		2218.482,2124.534 2220.359,2122.715 2222.224,2120.872 2224.067,2119.041 2225.898,2117.187 2227.707,2115.333 2229.491,2113.478 
		2231.254,2111.613 2233.004,2109.735 2234.732,2107.858 2236.436,2105.969 2238.129,2104.081 2239.788,2102.18 2241.435,2100.28 
		2243.07,2098.368 2244.671,2096.456 2246.26,2094.533 2247.826,2092.598 2249.37,2090.675 2250.901,2088.729 2252.399,2086.782 
		2253.885,2084.836 2255.347,2082.878 2256.798,2080.92 2258.215,2078.962 2259.62,2076.981 2261.002,2075.012 2262.361,2073.031 
		2263.697,2071.039 2265.01,2069.058 2266.311,2067.054 2267.589,2065.062 2268.845,2063.057 2270.077,2061.042 2271.286,2059.027 
		2272.484,2057.011 2273.647,2054.984 2274.799,2052.957 2275.928,2050.93 2277.033,2048.892 2278.116,2046.853 2279.175,2044.815 
		2280.212,2042.765 2281.237,2040.715 2282.227,2038.653 2283.206,2036.592 2284.162,2034.53 2285.083,2032.469 2285.993,2030.396 
		2286.88,2028.323 2287.755,2026.25 2288.596,2024.165 2289.414,2022.092 2290.22,2020.007 2290.992,2017.911 2291.752,2015.827 
		2292.478,2013.731 2293.191,2011.635 2293.882,2009.527 2294.55,2007.431 2295.195,2005.323 2295.817,2003.216 2296.416,2001.108 
		2296.992,1999.001 2297.545,1996.882 2298.074,1994.774 2298.581,1992.655 2299.076,1990.536 2299.537,1988.405 2299.975,1986.286 
		2300.401,1984.167 2300.792,1982.036 2301.172,1979.906 2301.518,1977.775 2301.852,1975.645 2302.163,1973.514 2302.439,1971.383 
		2302.704,1969.253 2302.946,1967.111 2303.154,1964.98 2303.349,1962.849 2303.522,1960.707 2303.672,1958.565 2303.798,1956.434 
		2303.902,1954.292 2303.971,1952.15 2304.029,1950.02 2304.063,1947.877 2304.075,1945.735 2304.075,1905.749 2304.063,1903.526 
		2304.029,1901.303 2303.971,1899.081 2303.879,1896.846 2303.775,1894.624 2303.637,1892.401 2303.476,1890.178 2303.292,1887.955 
		2303.084,1885.732 2302.854,1883.51 2302.589,1881.298 2302.313,1879.076 2302.002,1876.853 2301.668,1874.642 2301.311,1872.419 
		2300.931,1870.208 	"/>
	<polyline class="st4" points="1345.216,1628.849 1341.104,1630.657 1337.027,1632.488 1332.974,1634.331 1328.943,1636.197 
		1324.946,1638.097 1320.984,1639.997 1317.046,1641.932 1313.13,1643.878 1309.249,1645.848 1305.391,1647.84 1301.567,1649.844 
		1297.778,1651.871 1294.012,1653.91 1290.28,1655.983 1286.572,1658.067 1282.91,1660.163 	"/>
	<polyline class="st4" points="2128.213,2080.264 2130.804,2078.755 2133.372,2077.235 2135.929,2075.715 2138.474,2074.183 
		2140.996,2072.639 2143.507,2071.096 2146.006,2069.542 2148.482,2067.964 2150.935,2066.397 2153.377,2064.808 2155.807,2063.219 
		2158.214,2061.606 2160.609,2059.994 2162.982,2058.382 2165.343,2056.746 2167.681,2055.111 2170.007,2053.476 2172.31,2051.817 
		2174.602,2050.159 2176.871,2048.489 2179.128,2046.807 2181.363,2045.126 2183.585,2043.433 2185.785,2041.728 2187.962,2040.012 
		2190.127,2038.296 2192.269,2036.58 2194.4,2034.841 2196.507,2033.102 2198.604,2031.352 2200.676,2029.601 2202.727,2027.839 
		2204.765,2026.065 2206.781,2024.292 2208.773,2022.507 2210.754,2020.71 2212.712,2018.913 2214.658,2017.105 2216.581,2015.297 
		2218.482,2013.466 2220.359,2011.646 2222.224,2009.815 2224.067,2007.972 2225.898,2006.118 2227.707,2004.276 2229.491,2002.41 
		2231.254,2000.544 2233.004,1998.667 2234.732,1996.789 2236.436,1994.901 2238.129,1993.012 2239.788,1991.112 2241.435,1989.211 
		2243.07,1987.3 2244.671,1985.388 2246.26,1983.465 2247.826,1981.541 2249.37,1979.606 2250.901,1977.672 2252.399,1975.725 
		2253.885,1973.767 2255.347,1971.821 2256.798,1969.863 2258.215,1967.894 2259.62,1965.924 2261.002,1963.943 2262.361,1961.963 
		2263.697,1959.982 2265.01,1957.989 2266.311,1955.997 2267.589,1953.993 2268.845,1951.989 2270.077,1949.974 2271.286,1947.958 
		2272.484,1945.943 2273.647,1943.927 2274.799,1941.9 2275.928,1939.862 2277.033,1937.823 2278.116,1935.785 2279.175,1933.746 
		2280.212,1931.696 2281.237,1929.646 2282.227,1927.585 2283.206,1925.535 2284.162,1923.473 2285.083,1921.4 2285.993,1919.339 
		2286.88,1917.266 2287.755,1915.181 2288.596,1913.108 2289.414,1911.023 2290.22,1908.939 2290.992,1906.854 2291.752,1904.758 
		2292.478,1902.662 2293.191,1900.566 2293.882,1898.47 2294.55,1896.363 2295.195,1894.266 2295.817,1892.159 2296.416,1890.04 
		2296.992,1887.932 2297.545,1885.825 2298.074,1883.705 2298.581,1881.586 2299.076,1879.467 2299.537,1877.348 2299.975,1875.218 
		2300.401,1873.098 2300.792,1870.968 2301.172,1868.849 2301.518,1866.718 2301.852,1864.587 2302.163,1862.457 2302.439,1860.315 
		2302.704,1858.184 2302.946,1856.053 2303.154,1853.911 2303.349,1851.781 2303.522,1849.639 2303.672,1847.508 2303.798,1845.366 
		2303.902,1843.224 2303.971,1841.093 2304.029,1838.951 2304.063,1836.809 2304.075,1834.667 2304.075,1794.692 2304.063,1792.458 
		2304.029,1790.235 2303.971,1788.012 2303.879,1785.789 2303.775,1783.566 2303.637,1781.332 2303.476,1779.109 2303.292,1776.886 
		2303.084,1774.664 2302.854,1772.453 2302.589,1770.23 2302.313,1768.007 2302.002,1765.796 2301.668,1763.573 2301.311,1761.362 
		2300.931,1759.151 	"/>
	<polyline class="st4" points="1345.216,1517.78 1341.104,1519.589 1337.027,1521.42 1332.974,1523.262 1328.943,1525.14 
		1324.946,1527.028 1320.984,1528.94 1317.046,1530.863 1313.13,1532.81 1309.249,1534.779 1305.391,1536.772 1301.567,1538.776 
		1297.778,1540.802 1294.012,1542.853 1290.28,1544.914 1286.572,1546.999 1282.91,1549.095 	"/>
	<polyline class="st4" points="2128.213,1969.195 2130.804,1967.686 2133.372,1966.178 2135.929,1964.657 2138.474,1963.126 
		2140.996,1961.582 2143.507,1960.028 2146.006,1958.473 2148.482,1956.906 2150.935,1955.329 2153.377,1953.74 2155.807,1952.15 
		2158.214,1950.549 2160.609,1948.937 2162.982,1947.313 2165.343,1945.689 2167.681,1944.054 2170.007,1942.407 2172.31,1940.748 
		2174.602,1939.09 2176.871,1937.42 2179.128,1935.739 2181.363,1934.057 2183.585,1932.364 2185.785,1930.66 2187.962,1928.955 
		2190.127,1927.239 2192.269,1925.512 2194.4,1923.773 2196.507,1922.034 2198.604,1920.283 2200.676,1918.532 2202.727,1916.77 
		2204.765,1914.997 2206.781,1913.223 2208.773,1911.438 2210.754,1909.641 2212.712,1907.845 2214.658,1906.037 2216.581,1904.229 
		2218.482,1902.409 2220.359,1900.578 2222.224,1898.746 2224.067,1896.904 2225.898,1895.061 2227.707,1893.207 2229.491,1891.341 
		2231.254,1889.475 2233.004,1887.61 2234.732,1885.721 2236.436,1883.844 2238.129,1881.943 2239.788,1880.055 2241.435,1878.143 
		2243.07,1876.243 2244.671,1874.319 2246.26,1872.396 2247.826,1870.473 2249.37,1868.538 2250.901,1866.603 2252.399,1864.656 
		2253.885,1862.71 2255.347,1860.752 2256.798,1858.794 2258.215,1856.825 2259.62,1854.856 2261.002,1852.875 2262.361,1850.894 
		2263.697,1848.913 2265.01,1846.921 2266.311,1844.928 2267.589,1842.924 2268.845,1840.92 2270.077,1838.917 2271.286,1836.901 
		2272.484,1834.885 2273.647,1832.859 2274.799,1830.832 2275.928,1828.793 2277.033,1826.766 2278.116,1824.728 2279.175,1822.677 
		2280.212,1820.628 2281.237,1818.578 2282.227,1816.528 2283.206,1814.466 2284.162,1812.405 2285.083,1810.343 2285.993,1808.27 
		2286.88,1806.197 2287.755,1804.124 2288.596,1802.039 2289.414,1799.955 2290.22,1797.87 2290.992,1795.786 2291.752,1793.69 
		2292.478,1791.594 2293.191,1789.498 2293.882,1787.401 2294.55,1785.306 2295.195,1783.198 2295.817,1781.09 2296.416,1778.983 
		2296.992,1776.864 2297.545,1774.756 2298.074,1772.637 2298.581,1770.518 2299.076,1768.399 2299.537,1766.28 2299.975,1764.161 
		2300.401,1762.03 2300.792,1759.911 2301.172,1757.78 2301.518,1755.65 2301.852,1753.519 2302.163,1751.388 2302.439,1749.258 
		2302.704,1747.116 2302.946,1744.985 2303.154,1742.854 2303.349,1740.712 2303.522,1738.582 2303.672,1736.439 2303.798,1734.297 
		2303.902,1732.167 2303.971,1730.025 2304.029,1727.882 2304.063,1725.74 2304.075,1723.61 2304.075,1683.623 2304.063,1681.4 
		2304.029,1679.166 2303.971,1676.943 2303.879,1674.721 2303.775,1672.498 2303.637,1670.275 2303.476,1668.052 2303.292,1665.829 
		2303.084,1663.607 2302.854,1661.384 2302.589,1659.161 2302.313,1656.939 2302.002,1654.727 2301.668,1652.505 2301.311,1650.293 
		2300.931,1648.082 	"/>
	<polyline class="st4" points="1345.216,1406.712 1341.104,1408.52 1337.027,1410.351 1332.974,1412.205 1328.943,1414.071 
		1324.946,1415.96 1320.984,1417.872 1317.046,1419.806 1313.13,1421.753 1309.249,1423.722 1305.391,1425.703 1301.567,1427.719 
		1297.778,1429.745 1294.012,1431.784 1290.28,1433.846 1286.572,1435.93 1282.91,1438.038 	"/>
	<polyline class="st4" points="2128.213,1858.126 2130.804,1856.629 2133.372,1855.109 2135.929,1853.589 2138.474,1852.057 
		2140.996,1850.514 2143.507,1848.971 2146.006,1847.404 2148.482,1845.838 2150.935,1844.26 2153.377,1842.682 2155.807,1841.082 
		2158.214,1839.481 2160.609,1837.868 2162.982,1836.245 2165.343,1834.621 2167.681,1832.985 2170.007,1831.338 2172.31,1829.691 
		2174.602,1828.021 2176.871,1826.352 2179.128,1824.682 2181.363,1822.989 2183.585,1821.296 2185.785,1819.591 2187.962,1817.887 
		2190.127,1816.171 2192.269,1814.443 2194.4,1812.716 2196.507,1810.976 2198.604,1809.226 2200.676,1807.464 2202.727,1805.702 
		2204.765,1803.94 2206.781,1802.155 2208.773,1800.37 2210.754,1798.584 2212.712,1796.776 2214.658,1794.98 2216.581,1793.16 
		2218.482,1791.34 2220.359,1789.509 2222.224,1787.678 2224.067,1785.835 2225.898,1783.993 2227.707,1782.138 2229.491,1780.284 
		2231.254,1778.418 2233.004,1776.541 2234.732,1774.664 2236.436,1772.775 2238.129,1770.886 2239.788,1768.986 2241.435,1767.086 
		2243.07,1765.174 2244.671,1763.262 2246.26,1761.339 2247.826,1759.404 2249.37,1757.481 2250.901,1755.534 2252.399,1753.588 
		2253.885,1751.642 2255.347,1749.684 2256.798,1747.726 2258.215,1745.757 2259.62,1743.787 2261.002,1741.818 2262.361,1739.837 
		2263.697,1737.844 2265.01,1735.864 2266.311,1733.86 2267.589,1731.867 2268.845,1729.852 2270.077,1727.848 2271.286,1725.832 
		2272.484,1723.817 2273.647,1721.79 2274.799,1719.763 2275.928,1717.736 2277.033,1715.698 2278.116,1713.659 2279.175,1711.609 
		2280.212,1709.571 2281.237,1707.521 2282.227,1705.459 2283.206,1703.398 2284.162,1701.336 2285.083,1699.275 2285.993,1697.201 
		2286.88,1695.128 2287.755,1693.056 2288.596,1690.971 2289.414,1688.898 2290.22,1686.802 2290.992,1684.717 2291.752,1682.633 
		2292.478,1680.537 2293.191,1678.441 2293.882,1676.333 2294.55,1674.237 2295.195,1672.129 2295.817,1670.022 2296.416,1667.914 
		2296.992,1665.807 2297.545,1663.687 2298.074,1661.568 2298.581,1659.461 2299.076,1657.342 2299.537,1655.211 2299.975,1653.092 
		2300.401,1650.973 2300.792,1648.842 2301.172,1646.712 2301.518,1644.581 2301.852,1642.45 2302.163,1640.32 2302.439,1638.189 
		2302.704,1636.059 2302.946,1633.916 2303.154,1631.786 2303.349,1629.644 2303.522,1627.513 2303.672,1625.371 2303.798,1623.24 
		2303.902,1621.098 2303.971,1618.956 2304.029,1616.814 2304.063,1614.683 2304.075,1612.541 2304.075,1572.555 2304.063,1570.332 
		2304.029,1568.109 2303.971,1565.886 2303.879,1563.652 2303.775,1561.429 2303.637,1559.206 2303.476,1556.984 2303.292,1554.761 
		2303.084,1552.538 2302.854,1550.316 2302.589,1548.093 2302.313,1545.881 2302.002,1543.659 2301.668,1541.447 2301.311,1539.225 
		2300.931,1537.014 	"/>
	<polyline class="st4" points="1345.216,1295.655 1341.104,1297.463 1337.027,1299.294 1332.974,1301.137 1328.943,1303.003 
		1324.946,1304.891 1320.984,1306.803 1317.046,1308.738 1313.13,1310.684 1309.249,1312.654 1305.391,1314.646 1301.567,1316.65 
		1297.778,1318.677 1294.012,1320.715 1290.28,1322.788 1286.572,1324.861 1282.91,1326.969 	"/>
	<polyline class="st4" points="2128.213,1747.058 2130.804,1745.561 2133.372,1744.041 2135.929,1742.52 2138.474,1740.989 
		2140.996,1739.445 2143.507,1737.902 2146.006,1736.336 2148.482,1734.77 2150.935,1733.192 2153.377,1731.614 2155.807,1730.013 
		2158.214,1728.412 2160.609,1726.8 2162.982,1725.187 2165.343,1723.552 2167.681,1721.917 2170.007,1720.27 2172.31,1718.623 
		2174.602,1716.964 2176.871,1715.295 2179.128,1713.613 2181.363,1711.932 2183.585,1710.239 2185.785,1708.534 2187.962,1706.818 
		2190.127,1705.102 2192.269,1703.375 2194.4,1701.647 2196.507,1699.908 2198.604,1698.157 2200.676,1696.407 2202.727,1694.645 
		2204.765,1692.871 2206.781,1691.098 2208.773,1689.312 2210.754,1687.516 2212.712,1685.719 2214.658,1683.911 2216.581,1682.091 
		2218.482,1680.272 2220.359,1678.452 2222.224,1676.621 2224.067,1674.778 2225.898,1672.924 2227.707,1671.07 2229.491,1669.215 
		2231.254,1667.35 2233.004,1665.473 2234.732,1663.595 2236.436,1661.706 2238.129,1659.818 2239.788,1657.917 2241.435,1656.017 
		2243.07,1654.105 2244.671,1652.194 2246.26,1650.27 2247.826,1648.347 2249.37,1646.412 2250.901,1644.477 2252.399,1642.531 
		2253.885,1640.573 2255.347,1638.627 2256.798,1636.657 2258.215,1634.7 2259.62,1632.73 2261.002,1630.749 2262.361,1628.768 
		2263.697,1626.787 2265.01,1624.795 2266.311,1622.803 2267.589,1620.799 2268.845,1618.795 2270.077,1616.779 2271.286,1614.764 
		2272.484,1612.748 2273.647,1610.733 2274.799,1608.694 2275.928,1606.667 2277.033,1604.629 2278.116,1602.591 2279.175,1600.552 
		2280.212,1598.502 2281.237,1596.452 2282.227,1594.39 2283.206,1592.34 2284.162,1590.279 2285.083,1588.206 2285.993,1586.133 
		2286.88,1584.071 2287.755,1581.987 2288.596,1579.914 2289.414,1577.829 2290.22,1575.745 2290.992,1573.649 2291.752,1571.564 
		2292.478,1569.468 2293.191,1567.372 2293.882,1565.276 2294.55,1563.168 2295.195,1561.061 2295.817,1558.964 2296.416,1556.846 
		2296.992,1554.738 2297.545,1552.63 2298.074,1550.511 2298.581,1548.392 2299.076,1546.273 2299.537,1544.154 2299.975,1542.023 
		2300.401,1539.904 2300.792,1537.774 2301.172,1535.643 2301.518,1533.524 2301.852,1531.393 2302.163,1529.263 2302.439,1527.12 
		2302.704,1524.99 2302.946,1522.859 2303.154,1520.717 2303.349,1518.587 2303.522,1516.444 2303.672,1514.314 2303.798,1512.172 
		2303.902,1510.029 2303.971,1507.899 2304.029,1505.757 2304.063,1503.615 2304.075,1501.472 	"/>
	<line class="st4" x1="1590.133" y1="1445.967" x2="1590.133" y2="1432.613"/>
</g>
<g id="Arrows">
	<polygon points="1507.696,2862.132 1570.9,2874.224 1507.189,2883.288 	"/>
	<polygon points="1335.292,2353.512 1395.844,2375.315 1331.492,2374.331 	"/>
	<polygon points="1237.476,1184.337 1276.579,1235.456 1223.009,1199.782 	"/>
	<polygon points="1516.206,1908.091 1570.9,1941.999 1508.156,1927.662 	"/>
	<polygon points="2952.563,2986.675 2973.719,2986.675 2963.147,3050.156 	"/>
	<polygon points="2952.563,2359.617 2973.719,2359.617 2963.147,2296.136 	"/>
	<polygon points="2952.563,89.978 2973.719,89.978 2963.135,26.497 	"/>
	<polygon points="2952.563,2139.368 2973.719,2139.368 2963.135,2202.837 	"/>
	<polygon class="st5" points="1507.696,2862.132 1570.9,2874.224 1507.189,2883.288 	"/>
	<line class="st6" x1="1507.442" y1="2872.716" x2="912.249" y2="2858.481"/>
	<polygon class="st7" points="1335.292,2353.512 1395.844,2375.315 1331.492,2374.331 	"/>
	<line class="st6" x1="1333.387" y1="2363.915" x2="912.249" y2="2287.069"/>
	<polygon class="st7" points="1237.476,1184.337 1276.579,1235.456 1223.009,1199.782 	"/>
	<line class="st6" x1="1230.242" y1="1192.065" x2="912.249" y2="894.223"/>
	<polygon class="st7" points="1516.206,1908.091 1570.9,1941.999 1508.156,1927.662 	"/>
	<line class="st6" x1="1512.182" y1="1917.871" x2="912.249" y2="1671.302"/>
	<line class="st6" x1="1759.129" y1="3050.156" x2="3014.851" y2="3050.156"/>
	<line class="st6" x1="1789.318" y1="2296.136" x2="3014.851" y2="2296.136"/>
	<line class="st6" x1="2963.147" y1="2986.675" x2="2963.147" y2="2359.617"/>
	<polygon class="st7" points="2952.563,2986.675 2973.719,2986.675 2963.147,3050.156 	"/>
	<polygon class="st7" points="2952.563,2359.617 2973.719,2359.617 2963.147,2296.136 	"/>
	<line class="st6" x1="1741.833" y1="26.497" x2="3012.221" y2="26.497"/>
	<line class="st6" x1="1789.318" y1="2202.837" x2="3012.221" y2="2202.837"/>
	<line class="st6" x1="2963.135" y1="89.978" x2="2963.135" y2="2139.368"/>
	<polygon class="st7" points="2952.563,89.978 2973.719,89.978 2963.135,26.497 	"/>
	<polygon class="st7" points="2952.563,2139.368 2973.719,2139.368 2963.135,2202.837 	"/>
	<line class="st6" x1="912.249" y1="894.223" x2="327.649" y2="894.223"/>
	<line class="st6" x1="912.249" y1="2858.481" x2="446.952" y2="2858.481"/>
	<line class="st6" x1="912.249" y1="2287.069" x2="63.249" y2="2287.069"/>
	<line class="st6" x1="912.249" y1="1671.302" x2="179.327" y2="1671.302"/>
</g>
<text transform="matrix(0 1 -1 0 3038.4604 2318.3586)" class="st8 st1 st9">Hotside</text>
<text transform="matrix(0 1 -1 0 3038.4604 34.7628)" class="st0 st1 st10">Coldside</text>
<text transform="matrix(1 0 0 1 217.3448 1624.2657)" class="st0 st1 st11">Heat break</text>
<text transform="matrix(1 0 0 1 364.0904 851.8248)" class="st0 st1 st11">Heatsink</text>
<text transform="matrix(1 0 0 1 107.8453 2239.8997)" class="st0 st1 st12">Heater block</text>
<text transform="matrix(1 0 0 1 500.5572 2807.5999)" class="st0 st1 st13">Nozzle</text>
</svg>
