<?xml version="1.0" encoding="utf-8"?>
<!-- Generator: Adobe Illustrator 22.1.0, SVG Export Plug-In . SVG Version: 6.00 Build 0)  -->
<svg version="1.1" id="Layer_1" xmlns="http://www.w3.org/2000/svg" xmlns:xlink="http://www.w3.org/1999/xlink" x="0px" y="0px"
	 viewBox="0 0 4000 846.685" style="enable-background:new 0 0 4000 846.685;" xml:space="preserve">
<style type="text/css">
	.st0{fill:#020203;}
	.st1{fill:#E52521;}
</style>
<g>
	<path class="st0" d="M127.167,624.076H74.957V36.234h52.211V624.076z"/>
	<path class="st0" d="M604.954,577.124c0,31.306-15.905,46.952-47.704,46.952H408.13c-32.303,0-48.455-15.646-48.455-46.952v-285.47
		c0-31.3,16.151-46.953,48.455-46.953H557.25c31.798,0,47.704,15.653,47.704,46.953v90.148h-83.763v-65.358h-77.001v236.264h77.001
		v-72.494h83.763V577.124z"/>
	<path class="st0" d="M911.083,624.076h-82.26V610.93c-19.532,3.005-39.064,6.01-58.597,9.015
		c-25.542,3.757-44.951,5.634-58.221,5.634c-31.306,0-46.952-15.4-46.952-46.201V442.653c0-31.299,16.151-46.952,48.455-46.952
		h116.066v-87.144h-82.26v54.089H669.56v-70.992c0-31.3,16.151-46.953,48.455-46.953h145.364c31.798,0,47.704,15.653,47.704,46.953
		V624.076z M829.573,555.714V453.921h-82.26v104.798L829.573,555.714z"/>
	<path class="st0" d="M1225.851,624.076h-86.392V316.445l-80.758,1.502v306.129h-86.017V244.702h86.017V258.6
		c20.031-3.251,39.938-6.385,59.723-9.391c24.539-4.002,44.699-6.01,60.475-6.01c31.299,0,46.952,15.4,46.952,46.201V624.076z"/>
	<path class="st0" d="M1658.188,545.573c0,22.537-7.389,41.259-22.162,56.154c-14.778,14.902-33.307,22.35-55.591,22.35h-82.261
		V762.68h-49.957V258.6h49.957v10.142c19.779-2.5,39.563-5.006,59.348-7.512c25.038-3.251,44.699-4.883,58.972-4.883
		c27.796,0,41.694,13.651,41.694,40.942V545.573z M1608.23,538.06V303.299l-110.056,3.005v273.826h69.114
		C1594.579,580.129,1608.23,566.108,1608.23,538.06z"/>
	<path class="st0" d="M1929.384,378.797h-49.206v-75.499l-92.027,3.005v317.773h-49.957V258.6h49.957v10.142
		c16.527-2.5,33.178-5.129,49.958-7.888c20.031-3.005,36.681-4.507,49.957-4.507c27.543,0,41.318,13.651,41.318,40.942V378.797z"/>
	<path class="st0" d="M2045.826,178.593h-50.709V115.49h50.709V178.593z M2045.074,624.076h-49.206V258.6h49.206V624.076z"/>
	<path class="st0" d="M2339.935,624.076h-49.958V303.299l-110.056,3.005v317.773h-49.957V258.6h49.957v10.142
		c19.532-2.5,39.188-5.129,58.972-7.888c24.04-3.005,43.818-4.507,59.348-4.507c27.797,0,41.694,13.651,41.694,40.942V624.076z"/>
	<path class="st0" d="M2552.158,624.076h-70.992c-28.047,0-42.068-14.145-42.068-42.445V302.547h-43.947V258.6h43.947V144.787
		h49.205V258.6h63.855v43.947h-63.855v277.582h63.855V624.076z"/>
	<path class="st1" d="M2976.607,545.573c0,22.537-7.391,41.259-22.162,56.154c-14.777,14.902-33.307,22.35-55.592,22.35h-82.26
		V762.68h-49.957V258.6h49.957v10.142c19.779-2.5,39.563-5.006,59.348-7.512c25.037-3.251,44.699-4.883,58.973-4.883
		c27.795,0,41.693,13.651,41.693,40.942V545.573z M2926.65,538.06V303.299l-110.057,3.005v273.826h69.113
		C2912.998,580.129,2926.65,566.108,2926.65,538.06z"/>
	<path class="st1" d="M3260.949,581.631c0,28.301-14.025,42.445-42.068,42.445h-120.197c-28.049,0-42.07-14.145-42.07-42.445
		V301.045c0-28.294,14.021-42.445,42.07-42.445h120.197c28.043,0,42.068,14.15,42.068,42.445v131.466l-16.902,17.654h-138.979
		v132.218h107.428v-66.86h48.453V581.631z M3212.496,410.35V300.294h-107.428V410.35H3212.496z"/>
	<path class="st1" d="M3547.922,581.631c0,28.301-14.025,42.445-42.068,42.445h-120.197c-28.049,0-42.07-14.145-42.07-42.445
		V301.045c0-28.294,14.021-42.445,42.07-42.445h120.197c28.043,0,42.068,14.15,42.068,42.445v131.466l-16.902,17.654h-138.979
		v132.218h107.428v-66.86h48.453V581.631z M3499.469,410.35V300.294h-107.428V410.35H3499.469z"/>
	<path class="st1" d="M3835.646,624.076h-54.465L3680.516,437.77v186.307h-49.957V36.234h49.957v373.364L3774.42,258.6h53.715v1.502
		l-106.301,161.516L3835.646,624.076z"/>
	<path class="st0" d="M3939.693,624.076H3882.6v-66.109h57.094V624.076z"/>
</g>
<g>
	<path d="M2900.948,763.875c0,4.487-1.556,8.214-4.666,11.18c-3.112,2.967-7.014,4.449-11.706,4.449h-17.32v27.594h-10.52V706.744
		h10.52v2.019c4.164-0.497,8.33-0.996,12.496-1.495c5.271-0.647,9.412-0.973,12.417-0.973c5.854,0,8.779,2.718,8.779,8.151V763.875z
		 M2890.43,762.38v-46.737l-23.174,0.599v54.514h14.553C2887.555,770.755,2890.43,767.964,2890.43,762.38z"/>
	<path d="M2962.007,771.054c0,5.635-2.979,8.45-8.938,8.45h-26.416c-5.906,0-8.858-2.815-8.858-8.45v-55.859
		c0-5.634,2.952-8.45,8.858-8.45h26.416c5.958,0,8.938,2.816,8.938,8.45V771.054z M2951.488,770.755v-55.262h-23.174v55.262
		H2951.488z"/>
	<path d="M2990.163,779.504h-10.36V662.475h10.36V779.504z"/>
	<path d="M3051.38,706.744l-18.507,72.161l-7.672,28.192h-10.361l7.751-28.192l-18.982-72.161h10.836l13.129,57.28l13.288-57.28
		H3051.38z"/>
	<path d="M3107.298,771.054c0,5.635-2.953,8.45-8.858,8.45h-25.309c-5.906,0-8.858-2.815-8.858-8.45v-55.859
		c0-5.634,2.952-8.45,8.858-8.45h25.309c5.905,0,8.858,2.816,8.858,8.45v26.172l-3.559,3.515h-29.264v26.322h22.62v-13.311h10.202
		V771.054z M3097.096,736.955v-21.911h-22.62v21.911H3097.096z"/>
	<path d="M3152.38,779.504h-14.948c-5.905,0-8.858-2.815-8.858-8.45v-55.561h-9.253v-8.749h9.253v-22.658h10.361v22.658h13.445
		v8.749h-13.445v55.262h13.445V779.504z"/>
	<path d="M3210.038,779.504h-10.519v-63.861l-23.174,0.599v63.263h-10.52V662.475h10.52v46.288c4.164-0.497,8.33-0.996,12.496-1.495
		c5.271-0.647,9.412-0.973,12.417-0.973c5.854,0,8.779,2.718,8.779,8.151V779.504z"/>
	<path d="M3270.068,771.054c0,5.635-2.953,8.45-8.858,8.45h-25.309c-5.906,0-8.858-2.815-8.858-8.45v-55.859
		c0-5.634,2.952-8.45,8.858-8.45h25.309c5.905,0,8.858,2.816,8.858,8.45v26.172l-3.559,3.515h-29.264v26.322h22.62v-13.311h10.202
		V771.054z M3259.866,736.955v-21.911h-22.62v21.911H3259.866z"/>
	<path d="M3327.727,730.673h-10.361v-15.03l-19.377,0.599v63.263h-10.52v-72.76h10.52v2.019c3.479-0.497,6.985-1.021,10.519-1.57
		c4.218-0.598,7.724-0.897,10.52-0.897c5.8,0,8.7,2.718,8.7,8.151V730.673z"/>
	<path d="M3384.118,771.054c0,5.635-2.953,8.45-8.858,8.45h-25.309c-5.906,0-8.858-2.815-8.858-8.45v-55.859
		c0-5.634,2.952-8.45,8.858-8.45h25.309c5.905,0,8.858,2.816,8.858,8.45v26.172l-3.559,3.515h-29.264v26.322h22.62v-13.311h10.202
		V771.054z M3373.916,736.955v-21.911h-22.62v21.911H3373.916z"/>
	<path d="M3429.2,779.504h-14.948c-5.905,0-8.858-2.815-8.858-8.45v-55.561h-9.253v-8.749h9.253v-22.658h10.361v22.658h13.445v8.749
		h-13.445v55.262h13.445V779.504z"/>
	<path d="M3486.858,779.504h-10.519v-63.861l-23.174,0.599v63.263h-10.52V662.475h10.52v46.288c4.164-0.497,8.33-0.996,12.496-1.495
		c5.271-0.647,9.412-0.973,12.417-0.973c5.854,0,8.779,2.718,8.779,8.151V779.504z"/>
	<path d="M3546.889,771.054c0,5.635-2.953,8.45-8.858,8.45h-25.309c-5.906,0-8.858-2.815-8.858-8.45v-55.859
		c0-5.634,2.952-8.45,8.858-8.45h25.309c5.905,0,8.858,2.816,8.858,8.45v26.172l-3.559,3.515h-29.264v26.322h22.62v-13.311h10.202
		V771.054z M3536.687,736.955v-21.911h-22.62v21.911H3536.687z"/>
	<path d="M3604.547,730.673h-10.361v-15.03l-19.377,0.599v63.263h-10.52v-72.76h10.52v2.019c3.479-0.497,6.985-1.021,10.519-1.57
		c4.218-0.598,7.724-0.897,10.52-0.897c5.8,0,8.7,2.718,8.7,8.151V730.673z"/>
	<path d="M3661.097,779.504h-11.468l-21.196-37.091v37.091h-10.52V662.475h10.52v74.33l19.772-30.061h11.31v0.299l-22.383,32.155
		L3661.097,779.504z"/>
	<path d="M3715.195,771.054c0,5.635-2.953,8.45-8.858,8.45h-25.309c-5.906,0-8.858-2.815-8.858-8.45v-55.859
		c0-5.634,2.952-8.45,8.858-8.45h25.309c5.905,0,8.858,2.816,8.858,8.45v26.172l-3.559,3.515h-29.264v26.322h22.62v-13.311h10.202
		V771.054z M3704.993,736.955v-21.911h-22.62v21.911H3704.993z"/>
	<path d="M3760.277,779.504h-14.948c-5.905,0-8.858-2.815-8.858-8.45v-55.561h-9.253v-8.749h9.253v-22.658h10.361v22.658h13.445
		v8.749h-13.445v55.262h13.445V779.504z"/>
	<path d="M3817.936,771.054c0,5.635-2.979,8.45-8.938,8.45h-26.416c-5.906,0-8.858-2.815-8.858-8.45v-55.859
		c0-5.634,2.952-8.45,8.858-8.45h26.416c5.958,0,8.938,2.816,8.938,8.45V771.054z M3807.417,770.755v-55.262h-23.174v55.262
		H3807.417z"/>
	<path d="M3879.311,779.504h-10.519v-63.861l-23.174,0.599v63.263h-10.52v-72.76h10.52v2.019c4.112-0.497,8.251-1.021,12.417-1.57
		c5.062-0.598,9.227-0.897,12.496-0.897c5.854,0,8.779,2.718,8.779,8.151V779.504z"/>
	<path d="M3939.341,771.054c0,5.635-2.953,8.45-8.858,8.45h-25.309c-5.906,0-8.858-2.815-8.858-8.45v-55.859
		c0-5.634,2.952-8.45,8.858-8.45h25.309c5.905,0,8.858,2.816,8.858,8.45v26.172l-3.559,3.515h-29.264v26.322h22.62v-13.311h10.202
		V771.054z M3929.139,736.955v-21.911h-22.62v21.911H3929.139z"/>
</g>
</svg>
