<?xml version="1.0" encoding="utf-8"?>
<!-- Generator: Adobe Illustrator 22.1.0, SVG Export Plug-In . SVG Version: 6.00 Build 0)  -->
<svg version="1.1" id="Layer_1" xmlns="http://www.w3.org/2000/svg" xmlns:xlink="http://www.w3.org/1999/xlink" x="0px" y="0px"
	 viewBox="0 0 4000 625.652" style="enable-background:new 0 0 4000 625.652;" xml:space="preserve">
<style type="text/css">
	.st0{fill:#010101;}
	.st1{fill:#ED2224;}
</style>
<g>
	<path class="st0" d="M137.827,479.743H99.349V46.518h38.478V479.743z"/>
	<path class="st0" d="M617.557,479.743h-62.838V253.026l-59.516,1.107v225.609h-63.115V253.026l-59.517,1.107v225.609h-63.392
		V200.154h63.392v10.242c14.762-2.396,29.434-4.797,44.015-7.197c17.898-2.769,32.755-4.152,44.568-4.152
		c14.577,0,23.988,4.152,28.236,12.457c15.502-2.396,31.004-4.888,46.506-7.475c20.485-3.322,36.168-4.982,47.06-4.982
		c23.067,0,34.603,11.35,34.603,34.049V479.743z"/>
	<path class="st0" d="M843.166,479.743h-60.624v-9.689c-14.395,2.215-28.79,4.43-43.184,6.645
		c-18.824,2.768-33.128,4.152-42.907,4.152c-23.071,0-34.603-11.35-34.603-34.05V346.038c0-23.066,11.903-34.603,35.71-34.603
		h85.538v-64.222h-60.624v39.861H665.17v-52.318c0-23.067,11.903-34.603,35.709-34.603h107.13c23.435,0,35.156,11.535,35.156,34.603
		V479.743z M783.096,429.361v-75.019h-60.624v77.233L783.096,429.361z"/>
	<path class="st0" d="M1075.142,479.743h-67.544l-55.641-128.168v128.168h-63.392V46.518h63.392v260.211l50.104-106.575h66.16v1.106
		l-64.499,127.062L1075.142,479.743z"/>
	<path class="st0" d="M1283.035,445.14c0,23.071-11.903,34.603-35.71,34.603H1137.98c-23.807,0-35.71-11.531-35.71-34.603V234.757
		c0-23.067,11.903-34.603,35.71-34.603h109.344c23.807,0,35.71,11.535,35.71,34.603v102.7l-17.44,17.439h-102.7v78.341h59.516
		v-46.506h60.624V445.14z M1222.411,313.65v-66.99h-59.516v66.99H1222.411z"/>
	<path class="st0" d="M1718.197,479.743h-36.818V243.338l-80.278,2.215v234.19h-36.541V243.338l-80.278,2.215v234.19h-36.817
		V210.396h36.817v7.474c14.395-1.843,28.789-3.78,43.184-5.813c17.53-2.215,32.016-3.322,43.461-3.322
		c11.254,0,19.559,3.417,24.914,10.242c15.502-2.028,30.909-4.152,46.229-6.367c20.113-2.582,35.338-3.875,45.676-3.875
		c20.299,0,30.451,10.061,30.451,30.174V479.743z"/>
	<path class="st0" d="M1929.688,210.396l-64.775,267.132l-26.853,104.361h-36.263l27.128-104.361l-66.437-267.132h37.924
		l45.952,212.045l46.506-212.045H1929.688z"/>
	<path class="st0" d="M2240.558,448.462c0,20.857-10.428,31.281-31.28,31.281h-92.458c-20.671,0-31.004-10.424-31.004-31.281
		V241.676c0-20.853,10.333-31.28,31.004-31.28h92.458c20.853,0,31.28,10.428,31.28,31.28V448.462z M2203.741,447.354v-204.57
		h-81.109v204.57H2203.741z"/>
	<path class="st0" d="M2541.462,210.396l-55.642,269.9h-32.941l-39.585-204.571l-39.586,204.571h-32.388l-55.641-269.9h34.603
		l37.924,207.615l39.309-207.615h32.111l39.309,207.615l37.925-207.615H2541.462z"/>
	<path class="st0" d="M2741.604,479.743h-36.816V243.338l-81.109,2.215v234.19h-36.816V210.396h36.816v7.474
		c14.396-1.843,28.881-3.78,43.461-5.813c17.717-2.215,32.293-3.322,43.738-3.322c20.484,0,30.727,10.061,30.727,30.174V479.743z"/>
	<path class="st1" d="M3066.867,421.887c0,16.609-5.445,30.406-16.332,41.385c-10.892,10.981-24.546,16.471-40.97,16.471h-60.624
		v102.146h-36.816V210.396h36.816v7.474c14.577-1.843,29.157-3.689,43.738-5.536c18.452-2.396,32.941-3.599,43.461-3.599
		c20.484,0,30.727,10.061,30.727,30.174V421.887z M3030.051,416.35V243.338l-81.109,2.215v201.802h50.936
		C3019.989,447.354,3030.051,437.021,3030.051,416.35z"/>
	<path class="st1" d="M3278.082,479.743h-36.264v-7.475c-14.58,2.033-29.161,3.971-43.737,5.813
		c-18.089,2.215-32.574,3.322-43.461,3.322c-20.117,0-30.174-9.966-30.174-29.897v-98.271c0-20.666,10.425-31.004,31.281-31.004
		h86.645v-81.108h-79.171v45.952h-35.71v-45.398c0-20.853,10.334-31.28,31.004-31.28h88.583c20.667,0,31.004,10.428,31.004,31.28
		V479.743z M3242.372,446.248v-95.227h-82.216v96.887L3242.372,446.248z"/>
	<path class="st1" d="M3479.331,298.978h-36.264v-55.641l-67.821,2.215v234.19h-36.816V210.396h36.816v7.474
		c12.181-1.843,24.451-3.78,36.817-5.813c14.763-2.215,27.033-3.322,36.817-3.322c20.299,0,30.45,10.061,30.45,30.174V298.978z"/>
	<path class="st1" d="M3623.001,479.743h-52.319c-20.67,0-31.004-10.424-31.004-31.281V242.784h-32.388v-32.388h32.388v-83.877
		h36.264v83.877h47.06v32.388h-47.06v204.57h47.06V479.743z"/>
	<path class="st1" d="M3815.114,448.462c0,20.857-10.429,31.281-31.28,31.281h-84.431c-20.856,0-31.281-10.424-31.281-31.281
		v-61.177h36.264v60.623h74.465v-53.703l-96.333-78.894c-9.23-7.379-13.842-16.978-13.842-28.79v-44.845
		c0-20.853,10.425-31.28,31.281-31.28h83.323c20.853,0,31.28,10.428,31.28,31.28v53.703h-35.71V242.23h-74.465v47.06l97.164,78.895
		c9.04,7.197,13.564,16.98,13.564,29.343V448.462z"/>
	<path class="st0" d="M3911.448,479.743h-42.076v-48.721h42.076V479.743z"/>
</g>
</svg>
