<?xml version="1.0" encoding="utf-8"?>
<!-- Generator: Adobe Illustrator 22.1.0, SVG Export Plug-In . SVG Version: 6.00 Build 0)  -->
<svg version="1.1" id="Layer_1" xmlns="http://www.w3.org/2000/svg" xmlns:xlink="http://www.w3.org/1999/xlink" x="0px" y="0px"
	 viewBox="0 0 845.745 1946.69" style="enable-background:new 0 0 845.745 1946.69;" xml:space="preserve">
<style type="text/css">
	.st0{fill:none;stroke:#000000;stroke-width:5.6693;stroke-linecap:round;stroke-linejoin:round;stroke-miterlimit:10;}
</style>
<polygon style="fill:none;" points="-431.715,943.299 -424.362,943.299 -424.362,943.299 -431.715,943.299 "/>
<g>
	<path class="st0" d="M468.468,1293.7c2.08,1.202,5.453,1.202,7.533,0c2.08-1.202,2.08-3.15,0-4.351
		c-2.08-1.202-5.453-1.202-7.533,0C466.388,1290.55,466.388,1292.498,468.468,1293.7"/>
	<path class="st0" d="M699.238,1174.605c0.001-18.621-13.07-41.263-29.197-50.574c-16.126-9.31-29.2-1.763-29.202,16.858
		c-0.001,18.621,13.07,41.263,29.197,50.574C686.162,1200.774,699.236,1193.226,699.238,1174.605"/>
	<polyline class="st0" points="322.474,1064.756 322.482,1064.291 322.499,1063.822 322.529,1063.344 322.571,1062.862 
		322.622,1062.371 322.69,1061.876 322.766,1061.377 322.854,1060.87 322.956,1060.358 323.07,1059.842 323.193,1059.322 
		323.328,1058.797 323.476,1058.269 323.633,1057.736 323.806,1057.198 323.988,1056.657 324.178,1056.116 324.381,1055.566 
		324.597,1055.021 324.825,1054.466 325.062,1053.912 325.307,1053.354 325.565,1052.796 325.836,1052.238 326.115,1051.675 
		326.403,1051.117 326.703,1050.554 327.012,1049.988 327.333,1049.425 327.663,1048.863 328.002,1048.3 328.348,1047.738 
		328.708,1047.175 329.076,1046.613 329.448,1046.054 329.833,1045.496 330.226,1044.938 330.628,1044.384 331.038,1043.83 
		331.457,1043.28 331.884,1042.734 332.315,1042.189 332.759,1041.647 333.208,1041.11 333.66,1040.578 334.125,1040.045 
		334.595,1039.52 335.069,1039 335.551,1038.484 336.041,1037.972 336.532,1037.465 337.035,1036.961 337.539,1036.467 
		338.05,1035.976 338.562,1035.494 339.082,1035.016 339.607,1034.542 340.135,1034.077 340.668,1033.62 341.205,1033.168 
		341.747,1032.724 342.288,1032.288 342.834,1031.861 343.383,1031.438 343.938,1031.028 344.491,1030.622 345.046,1030.224 
		345.604,1029.839 346.162,1029.459 346.725,1029.091 347.287,1028.727 347.85,1028.376 348.412,1028.033 348.975,1027.703 
		349.537,1027.378 350.104,1027.065 350.666,1026.765 351.229,1026.469 351.787,1026.185 352.35,1025.915 352.908,1025.652 
		353.466,1025.403 354.02,1025.162 354.574,1024.933 355.124,1024.714 355.67,1024.506 356.215,1024.307 356.756,1024.121 
		357.294,1023.948 357.831,1023.787 358.359,1023.635 358.888,1023.495 359.408,1023.368 359.924,1023.25 360.44,1023.144 
		360.948,1023.051 361.447,1022.971 361.946,1022.903 362.436,1022.844 362.923,1022.798 363.401,1022.764 363.874,1022.743 
		364.34,1022.734 364.796,1022.734 365.249,1022.747 365.693,1022.772 366.133,1022.81 366.564,1022.861 366.983,1022.924 
		367.397,1022.996 367.803,1023.081 368.201,1023.178 368.59,1023.284 368.971,1023.407 369.343,1023.538 369.702,1023.681 
		370.058,1023.838 370.4,1024.003 370.734,1024.181 371.06,1024.371 371.373,1024.57 371.677,1024.781 371.973,1025.001 
		372.257,1025.234 372.532,1025.479 372.794,1025.733 373.048,1025.999 373.289,1026.274 373.521,1026.562 373.741,1026.858 
		373.953,1027.162 374.151,1027.479 374.338,1027.805 374.515,1028.139 374.676,1028.486 374.832,1028.841 374.972,1029.205 
		375.103,1029.577 375.221,1029.958 375.327,1030.351 375.424,1030.749 375.505,1031.155 375.577,1031.569 375.636,1031.992 
		375.682,1032.423 375.721,1032.863 375.742,1033.307 375.754,1033.764 375.754,1034.221 375.742,1034.69 375.721,1035.164 
		375.682,1035.642 375.636,1036.128 375.577,1036.623 375.505,1037.118 375.424,1037.621 375.327,1038.129 375.221,1038.645 
		375.103,1039.161 374.972,1039.685 374.832,1040.214 374.676,1040.742 374.515,1041.28 374.338,1041.817 374.151,1042.358 
		373.953,1042.904 373.741,1043.453 373.521,1044.003 373.289,1044.557 373.048,1045.111 372.794,1045.67 372.532,1046.228 
		372.257,1046.79 371.973,1047.349 371.677,1047.911 371.373,1048.474 371.06,1049.04 370.734,1049.603 370.4,1050.165 
		370.058,1050.728 369.702,1051.29 369.343,1051.853 368.971,1052.415 368.59,1052.974 368.201,1053.532 367.803,1054.086 
		367.397,1054.64 366.983,1055.19 366.564,1055.739 366.133,1056.285 365.693,1056.826 365.249,1057.368 364.796,1057.905 
		364.34,1058.433 363.874,1058.962 363.401,1059.487 362.923,1060.007 362.436,1060.519 361.946,1061.03 361.447,1061.534 
		360.948,1062.033 360.44,1062.527 359.924,1063.014 359.408,1063.496 358.888,1063.97 358.359,1064.435 357.831,1064.9 
		357.294,1065.353 356.756,1065.801 356.215,1066.241 355.67,1066.672 355.124,1067.099 354.574,1067.514 354.02,1067.924 
		353.466,1068.322 352.908,1068.715 352.35,1069.1 351.787,1069.472 351.229,1069.84 350.666,1070.195 350.104,1070.542 
		349.537,1070.88 348.975,1071.206 348.412,1071.523 347.85,1071.832 347.287,1072.132 346.725,1072.42 346.162,1072.695 
		345.604,1072.965 345.046,1073.219 344.491,1073.464 343.938,1073.701 343.383,1073.925 342.834,1074.137 342.288,1074.34 
		341.747,1074.53 341.205,1074.712 340.668,1074.881 340.135,1075.038 339.607,1075.182 339.082,1075.317 338.562,1075.439 
		338.05,1075.549 337.539,1075.647 337.035,1075.735 336.532,1075.812 336.041,1075.875 335.551,1075.926 335.069,1075.968 
		334.595,1075.994 334.125,1076.01 333.66,1076.015 333.208,1076.006 332.759,1075.985 332.315,1075.955 331.884,1075.913 
		331.457,1075.854 331.038,1075.791 330.628,1075.71 330.226,1075.617 329.833,1075.516 329.448,1075.401 329.076,1075.275 
		328.708,1075.139 328.348,1074.987 328.002,1074.826 327.663,1074.657 327.333,1074.471 327.012,1074.276 326.703,1074.073 
		326.403,1073.858 326.115,1073.629 325.836,1073.388 325.565,1073.139 325.307,1072.881 325.062,1072.61 324.825,1072.331 
		324.597,1072.039 324.381,1071.739 324.178,1071.426 323.988,1071.104 323.806,1070.775 323.633,1070.432 323.476,1070.085 
		323.328,1069.726 323.193,1069.358 323.07,1068.977 322.956,1068.592 322.854,1068.199 322.766,1067.797 322.69,1067.383 
		322.622,1066.964 322.571,1066.537 322.529,1066.101 322.499,1065.661 322.482,1065.213 322.474,1064.756 	"/>
	<polyline class="st0" points="508.964,1064.756 508.956,1065.213 508.939,1065.661 508.909,1066.101 508.867,1066.537 
		508.816,1066.964 508.749,1067.383 508.672,1067.797 508.584,1068.199 508.482,1068.592 508.368,1068.977 508.245,1069.358 
		508.11,1069.726 507.962,1070.085 507.805,1070.432 507.632,1070.775 507.45,1071.104 507.26,1071.426 507.057,1071.739 
		506.841,1072.039 506.613,1072.331 506.376,1072.61 506.131,1072.881 505.873,1073.139 505.602,1073.388 505.323,1073.629 
		505.035,1073.858 504.735,1074.073 504.426,1074.276 504.105,1074.471 503.775,1074.657 503.437,1074.826 503.09,1074.987 
		502.73,1075.139 502.362,1075.275 501.99,1075.401 501.605,1075.516 501.212,1075.617 500.81,1075.71 500.4,1075.791 
		499.981,1075.854 499.554,1075.913 499.123,1075.955 498.679,1075.985 498.23,1076.006 497.778,1076.015 497.313,1076.01 
		496.843,1075.994 496.369,1075.968 495.887,1075.926 495.397,1075.875 494.906,1075.812 494.403,1075.735 493.899,1075.647 
		493.388,1075.549 492.876,1075.439 492.356,1075.317 491.831,1075.182 491.303,1075.038 490.77,1074.881 490.233,1074.712 
		489.691,1074.53 489.15,1074.34 488.604,1074.137 488.055,1073.925 487.501,1073.701 486.947,1073.464 486.393,1073.219 
		485.834,1072.965 485.276,1072.695 484.714,1072.42 484.151,1072.132 483.588,1071.832 483.026,1071.523 482.464,1071.206 
		481.901,1070.88 481.334,1070.542 480.772,1070.195 480.209,1069.84 479.651,1069.472 479.089,1069.1 478.53,1068.715 
		477.972,1068.322 477.418,1067.924 476.864,1067.514 476.314,1067.099 475.769,1066.672 475.223,1066.241 474.682,1065.801 
		474.145,1065.353 473.607,1064.9 473.079,1064.435 472.55,1063.97 472.03,1063.496 471.514,1063.014 470.998,1062.527 
		470.49,1062.033 469.991,1061.534 469.492,1061.03 469.002,1060.519 468.515,1060.007 468.037,1059.487 467.564,1058.962 
		467.099,1058.433 466.642,1057.905 466.189,1057.368 465.745,1056.826 465.305,1056.285 464.874,1055.739 464.455,1055.19 
		464.041,1054.64 463.635,1054.086 463.237,1053.532 462.848,1052.974 462.467,1052.415 462.095,1051.853 461.736,1051.29 
		461.381,1050.728 461.038,1050.165 460.704,1049.603 460.378,1049.04 460.065,1048.474 459.761,1047.911 459.465,1047.349 
		459.181,1046.79 458.906,1046.228 458.644,1045.67 458.39,1045.111 458.149,1044.557 457.917,1044.003 457.697,1043.453 
		457.485,1042.904 457.287,1042.358 457.1,1041.817 456.923,1041.28 456.762,1040.742 456.606,1040.214 456.466,1039.685 
		456.335,1039.161 456.217,1038.645 456.111,1038.129 456.014,1037.621 455.933,1037.118 455.861,1036.623 455.802,1036.128 
		455.756,1035.642 455.717,1035.164 455.696,1034.69 455.684,1034.221 455.684,1033.764 455.696,1033.307 455.717,1032.863 
		455.756,1032.423 455.802,1031.992 455.861,1031.569 455.933,1031.155 456.014,1030.749 456.111,1030.351 456.217,1029.958 
		456.335,1029.577 456.466,1029.205 456.606,1028.841 456.762,1028.486 456.923,1028.139 457.1,1027.805 457.287,1027.479 
		457.485,1027.162 457.697,1026.858 457.917,1026.562 458.149,1026.274 458.39,1025.999 458.644,1025.733 458.906,1025.479 
		459.181,1025.234 459.465,1025.001 459.761,1024.781 460.065,1024.57 460.378,1024.371 460.704,1024.181 461.038,1024.003 
		461.381,1023.838 461.736,1023.681 462.095,1023.538 462.467,1023.407 462.848,1023.284 463.237,1023.178 463.635,1023.081 
		464.041,1022.996 464.455,1022.924 464.874,1022.861 465.305,1022.81 465.745,1022.772 466.189,1022.747 466.642,1022.734 
		467.099,1022.734 467.564,1022.743 468.037,1022.764 468.515,1022.798 469.002,1022.844 469.492,1022.903 469.991,1022.971 
		470.49,1023.051 470.998,1023.144 471.514,1023.25 472.03,1023.368 472.55,1023.495 473.079,1023.635 473.607,1023.787 
		474.145,1023.948 474.682,1024.121 475.223,1024.307 475.769,1024.506 476.314,1024.714 476.864,1024.933 477.418,1025.162 
		477.972,1025.403 478.53,1025.652 479.089,1025.915 479.651,1026.185 480.209,1026.469 480.772,1026.765 481.334,1027.065 
		481.901,1027.378 482.464,1027.703 483.026,1028.033 483.588,1028.376 484.151,1028.727 484.714,1029.091 485.276,1029.459 
		485.834,1029.839 486.393,1030.224 486.947,1030.622 487.501,1031.028 488.055,1031.438 488.604,1031.861 489.15,1032.288 
		489.691,1032.724 490.233,1033.168 490.77,1033.62 491.303,1034.077 491.831,1034.542 492.356,1035.016 492.876,1035.494 
		493.388,1035.976 493.899,1036.467 494.403,1036.961 494.906,1037.465 495.397,1037.972 495.887,1038.484 496.369,1039 
		496.843,1039.52 497.313,1040.045 497.778,1040.578 498.23,1041.11 498.679,1041.647 499.123,1042.189 499.554,1042.734 
		499.981,1043.28 500.4,1043.83 500.81,1044.384 501.212,1044.938 501.605,1045.496 501.99,1046.054 502.362,1046.613 
		502.73,1047.175 503.09,1047.738 503.437,1048.3 503.775,1048.863 504.105,1049.425 504.426,1049.988 504.735,1050.554 
		505.035,1051.117 505.323,1051.675 505.602,1052.238 505.873,1052.796 506.131,1053.354 506.376,1053.912 506.613,1054.466 
		506.841,1055.021 507.057,1055.566 507.26,1056.116 507.45,1056.657 507.632,1057.198 507.805,1057.736 507.962,1058.269 
		508.11,1058.797 508.245,1059.322 508.368,1059.842 508.482,1060.358 508.584,1060.87 508.672,1061.377 508.749,1061.876 
		508.816,1062.371 508.867,1062.862 508.909,1063.344 508.939,1063.822 508.956,1064.291 508.964,1064.756 	"/>
	<path class="st0" d="M242.408,1110.979c-0.001-36.04-25.304-50.648-56.515-32.627s-56.512,61.847-56.511,97.887
		c0.001,36.04,25.304,50.648,56.515,32.626S242.409,1147.019,242.408,1110.979"/>
	<path class="st0" d="M453.288,1302.462c10.464,6.041,27.429,6.041,37.893,0c10.464-6.041,10.464-15.835,0-21.876
		c-10.464-6.041-27.429-6.041-37.893,0C442.824,1286.627,442.824,1296.421,453.288,1302.462"/>
	<path class="st0" d="M378.043,1293.7c52.021,30.034,136.363,30.034,188.384,0c52.021-30.034,52.021-78.729,0-108.764
		c-52.021-30.034-136.363-30.034-188.384,0C326.022,1214.97,326.022,1263.666,378.043,1293.7"/>
	<polyline class="st0" points="717.13,1271.949 566.423,1184.94 415.721,1097.931 415.721,923.908 717.13,1097.931 717.13,1271.949 
		415.721,1445.967 114.308,1271.949 114.308,1097.931 415.721,923.908 	"/>
	<line class="st0" x1="415.721" y1="1097.931" x2="114.308" y2="1271.949"/>
	<path class="st0" d="M685.364,151.693c0-67.958-95.421-123.049-213.129-123.049S259.106,83.736,259.106,151.693"/>
	<path class="st0" d="M666.955,306.132c39.776-51.607,13.585-112.222-63.516-146.995s-185.307-34.773-262.408,0
		s-103.292,95.388-63.516,146.995"/>
	<path class="st0" d="M632.083,256.106c0-50.97-71.566-92.289-159.848-92.289s-159.848,41.319-159.848,92.289"/>
	<path class="st0" d="M604.104,1032.669c5.929-23.964-8.029-48.141-37.677-65.258c-29.647-17.117-71.523-25.176-113.03-21.753"/>
	<path class="st0" d="M506.818,862.7c-67.757-6.433-136.733,6.376-185.288,34.409c-48.555,28.033-70.742,67.856-59.599,106.975"/>
	<polyline class="st0" points="267.535,1009.463 266.846,1008.807 266.152,1008.143 265.455,1007.479 264.757,1006.811 
		264.055,1006.138 263.348,1005.462 262.642,1004.777 261.927,1004.091 	"/>
	<path class="st0" d="M644.919,1056.239c33.296-26.574,46.838-59.723,37.62-92.087"/>
	<polyline class="st0" points="506.828,862.702 507.67,863.514 508.507,864.322 509.341,865.121 510.174,865.916 510.998,866.703 
		511.819,867.485 512.639,868.264 513.451,869.038 514.264,869.803 515.071,870.56 515.871,871.317 516.67,872.066 517.469,872.806 
		518.26,873.546 519.047,874.278 519.833,875.005 520.616,875.728 521.394,876.443 522.168,877.154 522.938,877.86 523.707,878.562 
		524.473,879.26 525.234,879.949 525.991,880.639 526.748,881.319 527.501,881.996 528.25,882.669 528.998,883.337 529.743,884.001 
		530.483,884.656 531.223,885.312 531.959,885.959 532.69,886.606 533.418,887.245 534.145,887.883 534.873,888.513 
		536.315,889.765 537.745,890.996 539.17,892.214 540.582,893.415 541.986,894.599 543.378,895.767 544.765,896.921 
		546.144,898.059 547.514,899.184 548.876,900.292 550.229,901.387 551.578,902.466 552.919,903.532 554.251,904.585 
		555.579,905.625 556.903,906.653 558.219,907.664 559.525,908.666 560.828,909.656 562.126,910.633 563.421,911.597 
		564.71,912.548 565.992,913.487 567.269,914.418 568.546,915.331 569.815,916.241 571.084,917.133 572.349,918.021 
		573.605,918.892 574.861,919.755 576.117,920.61 577.364,921.451 578.616,922.284 579.86,923.109 581.103,923.921 582.342,924.725 
		583.581,925.52 584.821,926.302 586.056,927.08 587.291,927.846 588.526,928.603 589.756,929.351 590.991,930.092 592.222,930.823 
		593.453,931.546 594.683,932.261 595.914,932.967 597.145,933.665 598.376,934.359 599.606,935.04 600.841,935.712 
		602.072,936.381 603.307,937.04 604.546,937.692 605.781,938.334 607.02,938.973 608.264,939.603 609.507,940.225 610.75,940.838 
		611.998,941.447 613.25,942.048 614.502,942.644 615.758,943.232 617.018,943.811 618.283,944.387 619.547,944.953 620.82,945.512 
		622.093,946.07 623.375,946.615 624.656,947.157 625.946,947.694 627.236,948.223 628.535,948.747 629.837,949.263 
		631.148,949.775 632.464,950.278 633.783,950.777 635.111,951.268 636.448,951.758 637.784,952.236 639.133,952.714 
		640.487,953.183 641.853,953.649 643.219,954.105 644.597,954.558 645.985,955.006 647.38,955.45 648.784,955.886 650.197,956.317 
		651.618,956.74 653.052,957.163 654.494,957.578 655.217,957.781 655.945,957.984 656.676,958.187 657.408,958.39 658.144,958.589 
		658.88,958.787 659.624,958.986 660.368,959.181 661.113,959.375 661.861,959.57 662.614,959.764 663.371,959.955 664.133,960.141 
		664.894,960.331 665.659,960.517 666.425,960.703 667.199,960.889 667.973,961.071 668.751,961.253 669.533,961.435 
		670.316,961.612 671.107,961.79 671.898,961.968 672.693,962.141 673.492,962.319 674.296,962.488 675.103,962.661 
		675.911,962.831 676.727,963 677.544,963.169 678.368,963.334 679.193,963.499 680.022,963.664 680.859,963.824 681.697,963.989 
		682.538,964.146 	"/>
	<path class="st0" d="M685.364,356.167c0-67.958-95.421-123.049-213.129-123.049s-213.129,55.091-213.129,123.049"/>
	<path class="st0" d="M287.657,449.091c-25.169,25.171-34.093,54.672-25.192,83.278"/>
	<polyline class="st0" points="287.658,449.086 287.971,448.778 288.293,448.482 288.618,448.198 288.944,447.923 289.274,447.661 
		289.604,447.412 289.938,447.179 290.276,446.955 290.61,446.748 290.949,446.553 291.287,446.375 291.625,446.211 
		291.964,446.062 292.298,445.931 292.467,445.872 292.636,445.817 292.801,445.762 292.97,445.716 293.135,445.673 293.3,445.635 
		293.465,445.597 293.63,445.568 293.956,445.517 294.281,445.487 294.603,445.47 294.92,445.47 295.233,445.483 295.538,445.513 
		295.842,445.559 296.138,445.618 296.434,445.695 296.717,445.783 297.001,445.885 297.272,446.003 297.538,446.134 297.8,446.282 
		298.054,446.439 298.303,446.617 298.549,446.807 298.79,447.014 299.027,447.234 299.259,447.471 299.483,447.72 299.703,447.987 
		299.915,448.266 300.122,448.562 300.321,448.871 300.515,449.192 300.697,449.526 300.875,449.877 300.959,450.059 
		301.04,450.241 301.12,450.427 301.196,450.617 301.272,450.812 301.344,451.007 301.416,451.209 301.484,451.413 301.615,451.823 
		301.733,452.25 301.843,452.686 301.945,453.134 302.038,453.586 302.118,454.052 302.19,454.525 302.254,455.003 302.304,455.489 
		302.347,455.984 302.38,456.479 302.406,456.982 302.423,457.49 302.427,458.002 302.423,458.522 302.406,459.051 302.38,459.588 
		302.347,460.137 302.304,460.696 302.254,461.263 302.19,461.838 302.118,462.421 302.038,463.009 301.945,463.606 
		301.843,464.206 301.733,464.811 301.615,465.424 301.484,466.037 301.416,466.346 301.344,466.655 301.272,466.964 
		301.196,467.276 301.12,467.585 301.04,467.898 300.959,468.207 300.875,468.52 300.697,469.146 300.515,469.772 300.321,470.393 
		300.122,471.015 299.915,471.637 299.703,472.259 299.483,472.872 299.259,473.485 299.027,474.094 298.79,474.695 
		298.549,475.291 298.303,475.883 298.054,476.467 297.8,477.042 297.538,477.617 297.272,478.188 297.001,478.763 296.717,479.334 
		296.434,479.905 296.138,480.476 295.842,481.043 295.538,481.605 295.233,482.164 294.92,482.718 294.603,483.267 
		294.281,483.809 293.956,484.346 293.63,484.875 293.465,485.137 293.3,485.395 293.135,485.653 292.97,485.907 292.801,486.16 
		292.636,486.41 292.467,486.655 292.298,486.9 291.964,487.383 291.625,487.856 291.287,488.317 290.949,488.77 290.61,489.21 
		290.276,489.637 289.938,490.051 289.604,490.453 289.274,490.846 288.944,491.223 288.618,491.587 288.293,491.937 
		287.971,492.272 287.658,492.593 	"/>
	<path class="st0" d="M287.657,492.593c-18.704,18.705-28.55,39.923-28.55,61.521"/>
	<path class="st0" d="M287.657,514.349c-25.169,25.171-34.093,54.672-25.192,83.278"/>
	<polyline class="st0" points="287.658,514.344 287.971,514.036 288.293,513.74 288.618,513.452 288.944,513.181 289.274,512.919 
		289.604,512.669 289.938,512.437 290.276,512.213 290.61,512.005 290.949,511.811 291.287,511.633 291.625,511.468 291.964,511.32 
		292.298,511.189 292.467,511.13 292.636,511.071 292.801,511.02 292.97,510.973 293.135,510.931 293.3,510.889 293.465,510.855 
		293.63,510.825 293.956,510.775 294.281,510.745 294.603,510.728 294.92,510.724 295.233,510.741 295.538,510.771 295.842,510.817 
		296.138,510.876 296.434,510.952 296.717,511.041 297.001,511.143 297.272,511.261 297.538,511.392 297.8,511.54 298.054,511.697 
		298.303,511.874 298.549,512.065 298.79,512.268 299.027,512.492 299.259,512.729 299.483,512.978 299.703,513.245 
		299.915,513.524 300.122,513.816 300.321,514.124 300.515,514.45 300.697,514.784 300.875,515.135 300.959,515.317 301.04,515.499 
		301.12,515.685 301.196,515.875 301.272,516.07 301.344,516.264 301.416,516.463 301.484,516.666 301.615,517.081 301.733,517.508 
		301.843,517.943 301.945,518.392 302.038,518.844 302.118,519.309 302.19,519.783 302.254,520.261 302.304,520.747 
		302.347,521.238 302.38,521.737 302.406,522.24 302.423,522.748 302.427,523.26 302.423,523.78 302.406,524.308 302.38,524.846 
		302.347,525.395 302.304,525.954 302.254,526.52 302.19,527.096 302.118,527.679 302.038,528.267 301.945,528.863 301.843,529.464 
		301.733,530.069 301.615,530.682 301.484,531.295 301.416,531.604 301.344,531.913 301.272,532.221 301.196,532.53 301.12,532.843 
		301.04,533.156 300.959,533.465 300.875,533.778 300.697,534.404 300.515,535.026 300.321,535.651 300.122,536.273 
		299.915,536.895 299.703,537.517 299.483,538.13 299.259,538.743 299.027,539.352 298.79,539.953 298.549,540.549 298.303,541.141 
		298.054,541.725 297.8,542.3 297.538,542.875 297.272,543.446 297.001,544.021 296.717,544.592 296.434,545.163 296.138,545.734 
		295.842,546.297 295.538,546.863 295.233,547.422 294.92,547.976 294.603,548.525 294.281,549.067 293.956,549.604 293.63,550.133 
		293.465,550.391 293.3,550.653 293.135,550.906 292.97,551.164 292.801,551.414 292.636,551.668 292.467,551.913 292.298,552.158 
		291.964,552.64 291.625,553.114 291.287,553.575 290.949,554.028 290.61,554.468 290.276,554.895 289.938,555.309 289.604,555.711 
		289.274,556.104 288.944,556.481 288.618,556.844 288.293,557.191 287.971,557.53 287.658,557.851 	"/>
	<path class="st0" d="M287.657,557.851c-18.704,18.705-28.55,39.923-28.55,61.521"/>
	<path class="st0" d="M287.657,579.607c-25.169,25.171-34.093,54.672-25.192,83.278"/>
	<polyline class="st0" points="287.658,579.602 287.971,579.293 288.293,578.997 288.618,578.71 288.944,578.439 289.274,578.177 
		289.604,577.927 289.938,577.69 290.276,577.471 290.61,577.263 290.949,577.069 291.287,576.891 291.625,576.726 291.964,576.578 
		292.298,576.447 292.467,576.388 292.636,576.329 292.801,576.278 292.97,576.231 293.135,576.189 293.3,576.147 293.465,576.113 
		293.63,576.083 293.956,576.033 294.281,575.999 294.603,575.982 294.92,575.982 295.233,575.999 295.538,576.028 295.842,576.075 
		296.138,576.134 296.434,576.21 296.717,576.299 297.001,576.401 297.272,576.519 297.538,576.65 297.8,576.794 298.054,576.955 
		298.303,577.132 298.549,577.323 298.79,577.526 299.027,577.75 299.259,577.982 299.483,578.236 299.703,578.503 299.915,578.782 
		300.122,579.073 300.321,579.382 300.515,579.708 300.697,580.042 300.875,580.393 300.959,580.571 301.04,580.757 301.12,580.943 
		301.196,581.133 301.272,581.328 301.344,581.522 301.416,581.721 301.484,581.924 301.615,582.339 301.733,582.766 
		301.843,583.201 301.945,583.645 302.038,584.102 302.118,584.567 302.19,585.037 302.254,585.519 302.304,586.005 
		302.347,586.496 302.38,586.995 302.406,587.498 302.423,588.006 302.427,588.518 302.423,589.034 302.406,589.566 302.38,590.103 
		302.347,590.653 302.304,591.212 302.254,591.778 302.19,592.353 302.118,592.937 302.038,593.525 301.945,594.121 
		301.843,594.722 301.733,595.327 301.615,595.936 301.484,596.553 301.416,596.862 301.344,597.171 301.272,597.479 
		301.196,597.788 301.12,598.101 301.04,598.41 300.959,598.723 300.875,599.036 300.697,599.662 300.515,600.283 300.321,600.909 
		300.122,601.531 299.915,602.153 299.703,602.77 299.483,603.388 299.259,604.001 299.027,604.61 298.79,605.21 298.549,605.807 
		298.303,606.399 298.054,606.983 297.8,607.558 297.538,608.129 297.272,608.704 297.001,609.279 296.717,609.85 296.434,610.421 
		296.138,610.988 295.842,611.554 295.538,612.117 295.233,612.679 294.92,613.233 294.603,613.779 294.281,614.325 
		293.956,614.857 293.63,615.386 293.465,615.648 293.3,615.911 293.135,616.164 292.97,616.422 292.801,616.672 292.636,616.921 
		292.467,617.171 292.298,617.416 291.964,617.898 291.625,618.372 291.287,618.833 290.949,619.286 290.61,619.725 
		290.276,620.153 289.938,620.567 289.604,620.969 289.274,621.358 288.944,621.739 288.618,622.102 288.293,622.449 
		287.971,622.787 287.658,623.109 	"/>
	<path class="st0" d="M287.657,623.109c-18.704,18.705-28.55,39.923-28.55,61.521"/>
	<path class="st0" d="M287.657,644.86c-25.169,25.171-34.093,54.672-25.192,83.278"/>
	<polyline class="st0" points="287.658,644.86 287.971,644.551 288.293,644.255 288.618,643.968 288.944,643.697 289.274,643.435 
		289.604,643.185 289.938,642.948 290.276,642.728 290.61,642.521 290.949,642.327 291.287,642.149 291.625,641.984 
		291.964,641.836 292.298,641.705 292.467,641.642 292.636,641.587 292.801,641.536 292.97,641.489 293.135,641.443 293.3,641.405 
		293.465,641.371 293.63,641.341 293.956,641.291 294.281,641.257 294.603,641.24 294.92,641.24 295.233,641.257 295.538,641.286 
		295.842,641.333 296.138,641.392 296.434,641.464 296.717,641.557 297.001,641.659 297.272,641.777 297.538,641.908 297.8,642.052 
		298.054,642.212 298.303,642.386 298.549,642.576 298.79,642.783 299.027,643.003 299.259,643.24 299.483,643.494 299.703,643.756 
		299.915,644.04 300.122,644.331 300.321,644.64 300.515,644.962 300.697,645.3 300.875,645.651 300.959,645.829 301.04,646.015 
		301.12,646.201 301.196,646.391 301.272,646.586 301.344,646.78 301.416,646.979 301.484,647.182 301.615,647.596 301.733,648.024 
		301.843,648.459 301.945,648.903 302.038,649.36 302.118,649.825 302.19,650.295 302.254,650.777 302.304,651.263 302.347,651.754 
		302.38,652.253 302.406,652.756 302.423,653.264 302.427,653.775 302.423,654.291 302.406,654.82 302.38,655.361 302.347,655.911 
		302.304,656.469 302.254,657.036 302.19,657.611 302.118,658.195 302.038,658.783 301.945,659.379 301.843,659.98 301.733,660.585 
		301.615,661.194 301.484,661.811 301.416,662.116 301.344,662.428 301.272,662.737 301.196,663.046 301.12,663.359 301.04,663.668 
		300.959,663.981 300.875,664.294 300.697,664.915 300.515,665.541 300.321,666.167 300.122,666.789 299.915,667.411 
		299.703,668.028 299.483,668.646 299.259,669.259 299.027,669.864 298.79,670.468 298.549,671.065 298.303,671.657 298.054,672.24 
		297.8,672.816 297.538,673.387 297.272,673.962 297.001,674.533 296.717,675.108 296.434,675.679 296.138,676.246 295.842,676.812 
		295.538,677.375 295.233,677.933 294.92,678.487 294.603,679.037 294.281,679.583 293.956,680.115 293.63,680.644 293.465,680.906 
		293.3,681.164 293.135,681.422 292.97,681.676 292.801,681.93 292.636,682.179 292.467,682.429 292.298,682.674 291.964,683.156 
		291.625,683.63 291.287,684.091 290.949,684.543 290.61,684.979 290.276,685.406 289.938,685.825 289.604,686.227 289.274,686.616 
		288.944,686.992 288.618,687.356 288.293,687.707 287.971,688.045 287.658,688.367 	"/>
	<path class="st0" d="M287.657,688.367c-18.704,18.705-28.55,39.923-28.55,61.521"/>
	<line class="st0" x1="506.828" y1="726.358" x2="506.828" y2="862.702"/>
	<path class="st0" d="M682.539,827.808c-14.832-52.074-85.526-92.889-175.721-101.452"/>
	<line class="st0" x1="682.538" y1="964.146" x2="682.538" y2="827.802"/>
	<polyline class="st0" points="656.812,492.593 656.494,492.272 656.173,491.937 655.852,491.587 655.526,491.223 655.196,490.846 
		654.862,490.453 654.528,490.051 654.194,489.637 653.855,489.21 653.517,488.77 653.183,488.317 652.845,487.856 652.506,487.383 
		652.168,486.9 651.999,486.655 651.834,486.41 651.665,486.16 651.5,485.907 651.33,485.653 651.166,485.395 651.001,485.137 
		650.836,484.875 650.51,484.346 650.184,483.809 649.867,483.267 649.55,482.718 649.237,482.164 648.928,481.605 648.624,481.043 
		648.328,480.476 648.036,479.905 647.748,479.334 647.469,478.763 647.194,478.188 646.928,477.617 646.67,477.042 
		646.416,476.467 646.167,475.883 645.917,475.291 645.676,474.695 645.439,474.094 645.211,473.485 644.982,472.872 
		644.762,472.259 644.551,471.637 644.344,471.015 644.145,470.393 643.955,469.772 643.768,469.146 643.595,468.52 
		643.511,468.207 643.426,467.898 643.346,467.585 643.269,467.276 643.193,466.964 643.121,466.655 643.05,466.346 
		642.982,466.037 642.855,465.424 642.732,464.811 642.622,464.206 642.521,463.606 642.432,463.009 642.352,462.421 
		642.276,461.838 642.216,461.263 642.161,460.696 642.119,460.137 642.085,459.588 642.06,459.051 642.047,458.522 
		642.043,458.002 642.047,457.49 642.06,456.982 642.085,456.479 642.119,455.984 642.161,455.489 642.216,455.003 642.276,454.525 
		642.352,454.052 642.432,453.586 642.521,453.134 642.622,452.686 642.732,452.25 642.855,451.823 642.982,451.413 643.05,451.209 
		643.121,451.007 643.193,450.812 643.269,450.617 643.346,450.427 643.426,450.241 643.511,450.059 643.595,449.877 
		643.768,449.526 643.955,449.192 644.145,448.871 644.344,448.562 644.551,448.266 644.762,447.987 644.982,447.72 
		645.211,447.471 645.439,447.234 645.676,447.014 645.917,446.807 646.167,446.617 646.416,446.439 646.67,446.282 
		646.928,446.134 647.194,446.003 647.469,445.885 647.748,445.783 648.036,445.695 648.328,445.618 648.624,445.559 
		648.928,445.513 649.237,445.483 649.55,445.47 649.867,445.47 650.184,445.487 650.51,445.517 650.836,445.568 651.001,445.597 
		651.166,445.635 651.33,445.673 651.5,445.716 651.665,445.762 651.834,445.817 651.999,445.872 652.168,445.931 652.506,446.062 
		652.845,446.211 653.183,446.375 653.517,446.553 653.855,446.748 654.194,446.955 654.528,447.179 654.862,447.412 
		655.196,447.661 655.526,447.923 655.852,448.198 656.173,448.482 656.494,448.778 656.812,449.086 	"/>
	<path class="st0" d="M682.005,532.369c8.901-28.606-0.023-58.107-25.192-83.278"/>
	<path class="st0" d="M685.364,554.114c0-21.598-9.847-42.816-28.55-61.521"/>
	<polyline class="st0" points="656.812,557.851 656.494,557.53 656.173,557.191 655.852,556.844 655.526,556.481 655.196,556.104 
		654.862,555.711 654.528,555.309 654.194,554.895 653.855,554.468 653.517,554.028 653.183,553.575 652.845,553.114 
		652.506,552.64 652.168,552.158 651.999,551.913 651.834,551.668 651.665,551.414 651.5,551.164 651.33,550.906 651.166,550.653 
		651.001,550.391 650.836,550.133 650.51,549.604 650.184,549.067 649.867,548.525 649.55,547.976 649.237,547.422 648.928,546.863 
		648.624,546.297 648.328,545.734 648.036,545.163 647.748,544.592 647.469,544.021 647.194,543.446 646.928,542.875 646.67,542.3 
		646.416,541.725 646.167,541.141 645.917,540.549 645.676,539.953 645.439,539.352 645.211,538.743 644.982,538.13 
		644.762,537.517 644.551,536.895 644.344,536.273 644.145,535.651 643.955,535.026 643.768,534.404 643.595,533.778 
		643.511,533.465 643.426,533.156 643.346,532.843 643.269,532.53 643.193,532.221 643.121,531.913 643.05,531.604 642.982,531.295 
		642.855,530.682 642.732,530.069 642.622,529.464 642.521,528.863 642.432,528.267 642.352,527.679 642.276,527.096 
		642.216,526.52 642.161,525.954 642.119,525.395 642.085,524.846 642.06,524.308 642.047,523.78 642.043,523.26 642.047,522.748 
		642.06,522.24 642.085,521.737 642.119,521.238 642.161,520.747 642.216,520.261 642.276,519.783 642.352,519.309 642.432,518.844 
		642.521,518.392 642.622,517.943 642.732,517.508 642.855,517.081 642.982,516.666 643.05,516.463 643.121,516.264 643.193,516.07 
		643.269,515.875 643.346,515.685 643.426,515.499 643.511,515.317 643.595,515.135 643.768,514.784 643.955,514.45 
		644.145,514.124 644.344,513.816 644.551,513.524 644.762,513.245 644.982,512.978 645.211,512.729 645.439,512.492 
		645.676,512.268 645.917,512.065 646.167,511.874 646.416,511.697 646.67,511.54 646.928,511.392 647.194,511.261 647.469,511.143 
		647.748,511.041 648.036,510.952 648.328,510.876 648.624,510.817 648.928,510.771 649.237,510.741 649.55,510.724 
		649.867,510.728 650.184,510.745 650.51,510.775 650.836,510.825 651.001,510.855 651.166,510.889 651.33,510.931 651.5,510.973 
		651.665,511.02 651.834,511.071 651.999,511.13 652.168,511.189 652.506,511.32 652.845,511.468 653.183,511.633 653.517,511.811 
		653.855,512.005 654.194,512.213 654.528,512.437 654.862,512.669 655.196,512.919 655.526,513.181 655.852,513.452 
		656.173,513.74 656.494,514.036 656.812,514.344 	"/>
	<path class="st0" d="M682.005,597.627c8.901-28.606-0.023-58.107-25.192-83.278"/>
	<path class="st0" d="M685.364,619.372c0-21.598-9.847-42.816-28.55-61.521"/>
	<polyline class="st0" points="656.812,623.109 656.494,622.787 656.173,622.449 655.852,622.102 655.526,621.739 655.196,621.358 
		654.862,620.969 654.528,620.567 654.194,620.153 653.855,619.725 653.517,619.286 653.183,618.833 652.845,618.372 
		652.506,617.898 652.168,617.416 651.999,617.171 651.834,616.921 651.665,616.672 651.5,616.422 651.33,616.164 651.166,615.911 
		651.001,615.648 650.836,615.386 650.51,614.857 650.184,614.325 649.867,613.779 649.55,613.233 649.237,612.679 648.928,612.117 
		648.624,611.554 648.328,610.988 648.036,610.421 647.748,609.85 647.469,609.279 647.194,608.704 646.928,608.129 646.67,607.558 
		646.416,606.983 646.167,606.399 645.917,605.807 645.676,605.21 645.439,604.61 645.211,604.001 644.982,603.388 644.762,602.77 
		644.551,602.153 644.344,601.531 644.145,600.909 643.955,600.283 643.768,599.662 643.595,599.036 643.511,598.723 
		643.426,598.41 643.346,598.101 643.269,597.788 643.193,597.479 643.121,597.171 643.05,596.862 642.982,596.553 642.855,595.936 
		642.732,595.327 642.622,594.722 642.521,594.121 642.432,593.525 642.352,592.937 642.276,592.353 642.216,591.778 
		642.161,591.212 642.119,590.653 642.085,590.103 642.06,589.566 642.047,589.034 642.043,588.518 642.047,588.006 642.06,587.498 
		642.085,586.995 642.119,586.496 642.161,586.005 642.216,585.519 642.276,585.037 642.352,584.567 642.432,584.102 
		642.521,583.645 642.622,583.201 642.732,582.766 642.855,582.339 642.982,581.924 643.05,581.721 643.121,581.522 
		643.193,581.328 643.269,581.133 643.346,580.943 643.426,580.757 643.511,580.571 643.595,580.393 643.768,580.042 
		643.955,579.708 644.145,579.382 644.344,579.073 644.551,578.782 644.762,578.503 644.982,578.236 645.211,577.982 
		645.439,577.75 645.676,577.526 645.917,577.323 646.167,577.132 646.416,576.955 646.67,576.794 646.928,576.65 647.194,576.519 
		647.469,576.401 647.748,576.299 648.036,576.21 648.328,576.134 648.624,576.075 648.928,576.028 649.237,575.999 649.55,575.982 
		649.867,575.982 650.184,575.999 650.51,576.033 650.836,576.083 651.001,576.113 651.166,576.147 651.33,576.189 651.5,576.231 
		651.665,576.278 651.834,576.329 651.999,576.388 652.168,576.447 652.506,576.578 652.845,576.726 653.183,576.891 
		653.517,577.069 653.855,577.263 654.194,577.471 654.528,577.69 654.862,577.927 655.196,578.177 655.526,578.439 655.852,578.71 
		656.173,578.997 656.494,579.293 656.812,579.602 	"/>
	<path class="st0" d="M682.005,662.885c8.901-28.606-0.023-58.107-25.192-83.278"/>
	<path class="st0" d="M685.364,684.63c0-21.598-9.847-42.816-28.55-61.521"/>
	<polyline class="st0" points="365.668,643.325 365.122,643.502 364.576,643.667 364.022,643.82 363.473,643.963 362.919,644.099 
		362.364,644.217 361.815,644.327 361.261,644.424 360.711,644.509 360.161,644.581 359.62,644.64 359.074,644.687 358.537,644.72 
		358.004,644.737 357.742,644.742 357.48,644.742 357.217,644.742 356.955,644.733 356.697,644.725 356.443,644.712 
		356.185,644.695 355.936,644.674 355.433,644.623 354.942,644.56 354.456,644.479 353.982,644.391 353.513,644.285 
		353.056,644.171 352.607,644.04 352.168,643.9 351.74,643.744 351.326,643.579 350.92,643.405 350.522,643.215 350.142,643.02 
		349.77,642.809 349.41,642.589 349.055,642.352 348.708,642.103 348.37,641.84 348.04,641.565 347.718,641.278 347.405,640.978 
		347.101,640.665 346.809,640.339 346.526,639.996 346.255,639.65 345.993,639.286 345.743,638.909 345.507,638.525 
		345.392,638.326 345.278,638.127 345.172,637.924 345.067,637.717 344.965,637.51 344.868,637.298 344.775,637.087 
		344.682,636.871 344.508,636.431 344.348,635.983 344.2,635.526 344.069,635.061 343.946,634.587 343.836,634.105 343.743,633.623 
		343.658,633.128 343.591,632.633 343.531,632.134 343.489,631.631 343.46,631.123 343.438,630.612 343.434,630.1 343.438,629.584 
		343.46,629.055 343.489,628.518 343.531,627.977 343.591,627.427 343.658,626.869 343.743,626.306 343.836,625.735 
		343.946,625.164 344.069,624.585 344.2,624.005 344.348,623.418 344.508,622.834 344.682,622.242 344.775,621.95 344.868,621.654 
		344.965,621.358 345.067,621.062 345.172,620.766 345.278,620.47 345.392,620.178 345.507,619.882 345.743,619.294 
		345.993,618.706 346.255,618.122 346.526,617.543 346.809,616.964 347.101,616.393 347.405,615.826 347.718,615.264 
		348.04,614.705 348.37,614.16 348.708,613.618 349.055,613.085 349.41,612.561 349.77,612.045 350.142,611.537 350.522,611.034 
		350.92,610.527 351.326,610.028 351.74,609.533 352.168,609.042 352.607,608.556 353.056,608.078 353.513,607.604 353.982,607.139 
		354.456,606.682 354.942,606.234 355.433,605.798 355.936,605.367 356.185,605.16 356.443,604.952 356.697,604.745 
		356.955,604.546 357.217,604.348 357.48,604.149 357.742,603.959 358.004,603.768 358.537,603.396 359.074,603.041 359.62,602.698 
		360.161,602.364 360.711,602.047 361.261,601.742 361.815,601.455 362.364,601.176 362.919,600.914 363.473,600.664 
		364.022,600.431 364.576,600.211 365.122,600.008 365.668,599.822 	"/>
	<path class="st0" d="M578.793,599.816c-65.939-21.978-147.178-21.978-213.117,0"/>
	<polyline class="st0" points="578.798,599.822 579.344,600.008 579.894,600.211 580.443,600.431 580.993,600.664 581.547,600.914 
		582.101,601.176 582.655,601.455 583.205,601.742 583.755,602.047 584.305,602.364 584.85,602.698 585.392,603.041 
		585.929,603.396 586.462,603.768 586.728,603.959 586.99,604.149 587.253,604.348 587.511,604.546 587.769,604.745 
		588.027,604.952 588.28,605.16 588.534,605.367 589.033,605.798 589.528,606.234 590.01,606.682 590.488,607.139 590.953,607.604 
		591.41,608.078 591.858,608.556 592.298,609.042 592.725,609.533 593.144,610.028 593.55,610.527 593.943,611.034 594.328,611.537 
		594.696,612.045 595.056,612.561 595.411,613.085 595.758,613.618 596.096,614.16 596.426,614.705 596.747,615.264 597.06,615.826 
		597.365,616.393 597.657,616.964 597.94,617.543 598.215,618.122 598.473,618.706 598.727,619.294 598.963,619.882 
		599.078,620.178 599.188,620.47 599.298,620.766 599.399,621.062 599.501,621.358 599.598,621.654 599.695,621.95 599.784,622.242 
		599.957,622.834 600.118,623.418 600.266,624.005 600.401,624.585 600.52,625.164 600.63,625.735 600.727,626.306 600.807,626.869 
		600.879,627.427 600.934,627.977 600.977,628.518 601.01,629.055 601.027,629.584 601.036,630.1 601.027,630.612 601.01,631.123 
		600.977,631.631 600.934,632.134 600.879,632.633 600.807,633.128 600.727,633.623 600.63,634.105 600.52,634.587 600.401,635.061 
		600.266,635.526 600.118,635.983 599.957,636.431 599.784,636.871 599.695,637.087 599.598,637.298 599.501,637.51 
		599.399,637.717 599.298,637.924 599.188,638.127 599.078,638.326 598.963,638.525 598.727,638.909 598.473,639.286 
		598.215,639.65 597.94,639.996 597.657,640.339 597.365,640.665 597.06,640.978 596.747,641.278 596.426,641.565 596.096,641.84 
		595.758,642.103 595.411,642.352 595.056,642.589 594.696,642.809 594.328,643.02 593.943,643.215 593.55,643.405 593.144,643.579 
		592.725,643.744 592.298,643.9 591.858,644.04 591.41,644.171 590.953,644.285 590.488,644.391 590.01,644.479 589.528,644.56 
		589.033,644.623 588.534,644.674 588.28,644.695 588.027,644.712 587.769,644.725 587.511,644.733 587.253,644.742 586.99,644.742 
		586.728,644.742 586.462,644.737 585.929,644.72 585.392,644.687 584.85,644.64 584.305,644.581 583.755,644.509 583.205,644.424 
		582.655,644.327 582.101,644.217 581.547,644.099 580.993,643.963 580.443,643.82 579.894,643.667 579.344,643.502 
		578.798,643.325 	"/>
	<path class="st0" d="M578.793,643.323c-65.939-21.978-147.178-21.978-213.117,0"/>
	<polyline class="st0" points="656.812,688.367 656.494,688.045 656.173,687.707 655.852,687.356 655.526,686.992 655.196,686.616 
		654.862,686.227 654.528,685.825 654.194,685.406 653.855,684.979 653.517,684.543 653.183,684.091 652.845,683.63 
		652.506,683.156 652.168,682.674 651.999,682.429 651.834,682.179 651.665,681.93 651.5,681.676 651.33,681.422 651.166,681.164 
		651.001,680.906 650.836,680.644 650.51,680.115 650.184,679.583 649.867,679.037 649.55,678.487 649.237,677.933 648.928,677.375 
		648.624,676.812 648.328,676.246 648.036,675.679 647.748,675.108 647.469,674.533 647.194,673.962 646.928,673.387 
		646.67,672.816 646.416,672.24 646.167,671.657 645.917,671.065 645.676,670.468 645.439,669.864 645.211,669.259 644.982,668.646 
		644.762,668.028 644.551,667.411 644.344,666.789 644.145,666.167 643.955,665.541 643.768,664.915 643.595,664.294 
		643.511,663.981 643.426,663.668 643.346,663.359 643.269,663.046 643.193,662.737 643.121,662.428 643.05,662.116 
		642.982,661.811 642.855,661.194 642.732,660.585 642.622,659.98 642.521,659.379 642.432,658.783 642.352,658.195 
		642.276,657.611 642.216,657.036 642.161,656.469 642.119,655.911 642.085,655.361 642.06,654.82 642.047,654.291 642.043,653.775 
		642.047,653.264 642.06,652.756 642.085,652.253 642.119,651.754 642.161,651.263 642.216,650.777 642.276,650.295 
		642.352,649.825 642.432,649.36 642.521,648.903 642.622,648.459 642.732,648.024 642.855,647.596 642.982,647.182 643.05,646.979 
		643.121,646.78 643.193,646.586 643.269,646.391 643.346,646.201 643.426,646.015 643.511,645.829 643.595,645.651 643.768,645.3 
		643.955,644.962 644.145,644.64 644.344,644.331 644.551,644.04 644.762,643.756 644.982,643.494 645.211,643.24 645.439,643.003 
		645.676,642.783 645.917,642.576 646.167,642.386 646.416,642.212 646.67,642.052 646.928,641.908 647.194,641.777 
		647.469,641.659 647.748,641.557 648.036,641.464 648.328,641.392 648.624,641.333 648.928,641.286 649.237,641.257 649.55,641.24 
		649.867,641.24 650.184,641.257 650.51,641.291 650.836,641.341 651.001,641.371 651.166,641.405 651.33,641.443 651.5,641.489 
		651.665,641.536 651.834,641.587 651.999,641.642 652.168,641.705 652.506,641.836 652.845,641.984 653.183,642.149 
		653.517,642.327 653.855,642.521 654.194,642.728 654.528,642.948 654.862,643.185 655.196,643.435 655.526,643.697 
		655.852,643.968 656.173,644.255 656.494,644.551 656.812,644.86 	"/>
	<path class="st0" d="M682.005,728.138c8.901-28.606-0.023-58.108-25.192-83.278"/>
	<path class="st0" d="M685.364,749.888c0-21.598-9.847-42.816-28.55-61.521"/>
	<polyline class="st0" points="365.668,578.067 365.122,578.245 364.576,578.409 364.022,578.566 363.473,578.71 362.919,578.841 
		362.364,578.959 361.815,579.069 361.261,579.167 360.711,579.251 360.161,579.323 359.62,579.382 359.074,579.429 
		358.537,579.463 358.004,579.48 357.742,579.484 357.48,579.488 357.217,579.484 356.955,579.475 356.697,579.467 356.443,579.454 
		356.185,579.437 355.936,579.416 355.433,579.365 354.942,579.302 354.456,579.222 353.982,579.133 353.513,579.027 
		353.056,578.913 352.607,578.782 352.168,578.642 351.74,578.49 351.326,578.325 350.92,578.147 350.522,577.961 350.142,577.762 
		349.77,577.551 349.41,577.331 349.055,577.094 348.708,576.849 348.37,576.587 348.04,576.312 347.718,576.02 347.405,575.72 
		347.101,575.407 346.809,575.081 346.526,574.743 346.255,574.392 345.993,574.028 345.743,573.652 345.507,573.267 
		345.392,573.068 345.278,572.869 345.172,572.666 345.067,572.463 344.965,572.252 344.868,572.04 344.775,571.829 
		344.682,571.613 344.508,571.173 344.348,570.725 344.2,570.268 344.069,569.803 343.946,569.329 343.836,568.851 343.743,568.365 
		343.658,567.874 343.591,567.375 343.531,566.876 343.489,566.373 343.46,565.865 343.438,565.354 343.434,564.842 
		343.438,564.326 343.46,563.797 343.489,563.264 343.531,562.719 343.591,562.169 343.658,561.611 343.743,561.048 
		343.836,560.482 343.946,559.906 344.069,559.327 344.2,558.748 344.348,558.16 344.508,557.576 344.682,556.984 344.775,556.692 
		344.868,556.396 344.965,556.1 345.067,555.804 345.172,555.508 345.278,555.216 345.392,554.92 345.507,554.624 345.743,554.036 
		345.993,553.448 346.255,552.865 346.526,552.285 346.809,551.706 347.101,551.135 347.405,550.568 347.718,550.006 
		348.04,549.452 348.37,548.902 348.708,548.36 349.055,547.828 349.41,547.303 349.77,546.791 350.142,546.28 350.522,545.776 
		350.92,545.273 351.326,544.77 351.74,544.275 352.168,543.784 352.607,543.298 353.056,542.82 353.513,542.346 353.982,541.885 
		354.456,541.429 354.942,540.98 355.433,540.54 355.936,540.113 356.185,539.902 356.443,539.695 356.697,539.487 356.955,539.289 
		357.217,539.09 357.48,538.891 357.742,538.701 358.004,538.51 358.537,538.143 359.074,537.783 359.62,537.44 360.161,537.111 
		360.711,536.789 361.261,536.485 361.815,536.197 362.364,535.918 362.919,535.656 363.473,535.41 364.022,535.174 
		364.576,534.958 365.122,534.751 365.668,534.564 	"/>
	<path class="st0" d="M578.793,534.562c-65.939-21.978-147.178-21.978-213.117,0"/>
	<polyline class="st0" points="578.798,534.564 579.344,534.751 579.894,534.958 580.443,535.174 580.993,535.41 581.547,535.656 
		582.101,535.918 582.655,536.197 583.205,536.485 583.755,536.789 584.305,537.111 584.85,537.44 585.392,537.783 585.929,538.143 
		586.462,538.51 586.728,538.701 586.99,538.891 587.253,539.09 587.511,539.289 587.769,539.487 588.027,539.695 588.28,539.902 
		588.534,540.113 589.033,540.54 589.528,540.98 590.01,541.429 590.488,541.885 590.953,542.346 591.41,542.82 591.858,543.298 
		592.298,543.784 592.725,544.275 593.144,544.77 593.55,545.273 593.943,545.776 594.328,546.28 594.696,546.791 595.056,547.303 
		595.411,547.828 595.758,548.36 596.096,548.902 596.426,549.452 596.747,550.006 597.06,550.568 597.365,551.135 597.657,551.706 
		597.94,552.285 598.215,552.865 598.473,553.448 598.727,554.036 598.963,554.624 599.078,554.92 599.188,555.216 599.298,555.508 
		599.399,555.804 599.501,556.1 599.598,556.396 599.695,556.692 599.784,556.984 599.957,557.576 600.118,558.16 600.266,558.748 
		600.401,559.327 600.52,559.906 600.63,560.482 600.727,561.048 600.807,561.611 600.879,562.169 600.934,562.719 600.977,563.264 
		601.01,563.797 601.027,564.326 601.036,564.842 601.027,565.354 601.01,565.865 600.977,566.373 600.934,566.876 600.879,567.375 
		600.807,567.874 600.727,568.365 600.63,568.851 600.52,569.329 600.401,569.803 600.266,570.268 600.118,570.725 599.957,571.173 
		599.784,571.613 599.695,571.829 599.598,572.04 599.501,572.252 599.399,572.463 599.298,572.666 599.188,572.869 
		599.078,573.068 598.963,573.267 598.727,573.652 598.473,574.028 598.215,574.392 597.94,574.743 597.657,575.081 
		597.365,575.407 597.06,575.72 596.747,576.02 596.426,576.312 596.096,576.587 595.758,576.849 595.411,577.094 595.056,577.331 
		594.696,577.551 594.328,577.762 593.943,577.961 593.55,578.147 593.144,578.325 592.725,578.49 592.298,578.642 591.858,578.782 
		591.41,578.913 590.953,579.027 590.488,579.133 590.01,579.222 589.528,579.302 589.033,579.365 588.534,579.416 588.28,579.437 
		588.027,579.454 587.769,579.467 587.511,579.475 587.253,579.484 586.99,579.488 586.728,579.484 586.462,579.48 585.929,579.463 
		585.392,579.429 584.85,579.382 584.305,579.323 583.755,579.251 583.205,579.167 582.655,579.069 582.101,578.959 
		581.547,578.841 580.993,578.71 580.443,578.566 579.894,578.409 579.344,578.245 578.798,578.067 	"/>
	<path class="st0" d="M578.793,578.065c-65.939-21.978-147.178-21.978-213.117,0"/>
	<polyline class="st0" points="365.668,512.809 365.122,512.987 364.576,513.152 364.022,513.308 363.473,513.452 362.919,513.583 
		362.364,513.706 361.815,513.811 361.261,513.909 360.711,513.993 360.161,514.065 359.62,514.124 359.074,514.171 
		358.537,514.205 358.004,514.222 357.742,514.226 357.48,514.23 357.217,514.226 356.955,514.222 356.697,514.209 356.443,514.196 
		356.185,514.179 355.936,514.158 355.433,514.107 354.942,514.044 354.456,513.968 353.982,513.875 353.513,513.769 
		353.056,513.655 352.607,513.524 352.168,513.384 351.74,513.232 351.326,513.067 350.92,512.889 350.522,512.703 350.142,512.505 
		349.77,512.293 349.41,512.073 349.055,511.841 348.708,511.591 348.37,511.329 348.04,511.054 347.718,510.762 347.405,510.462 
		347.101,510.149 346.809,509.823 346.526,509.485 346.255,509.134 345.993,508.77 345.743,508.394 345.507,508.009 
		345.392,507.814 345.278,507.611 345.172,507.408 345.067,507.205 344.965,506.994 344.868,506.787 344.775,506.571 
		344.682,506.355 344.508,505.915 344.348,505.467 344.2,505.01 344.069,504.545 343.946,504.071 343.836,503.593 343.743,503.107 
		343.658,502.616 343.591,502.117 343.531,501.618 343.489,501.115 343.46,500.607 343.438,500.096 343.434,499.584 
		343.438,499.068 343.46,498.539 343.489,498.006 343.531,497.461 343.591,496.911 343.658,496.353 343.743,495.79 343.836,495.224 
		343.946,494.648 344.069,494.069 344.2,493.49 344.348,492.906 344.508,492.318 344.682,491.73 344.775,491.434 344.868,491.138 
		344.965,490.842 345.067,490.546 345.172,490.25 345.278,489.958 345.392,489.662 345.507,489.366 345.743,488.778 345.993,488.19 
		346.255,487.607 346.526,487.027 346.809,486.448 347.101,485.877 347.405,485.31 347.718,484.748 348.04,484.194 348.37,483.644 
		348.708,483.102 349.055,482.57 349.41,482.045 349.77,481.533 350.142,481.022 350.522,480.518 350.92,480.015 351.326,479.516 
		351.74,479.017 352.168,478.526 352.607,478.044 353.056,477.562 353.513,477.093 353.982,476.627 354.456,476.171 
		354.942,475.722 355.433,475.283 355.936,474.855 356.185,474.644 356.443,474.437 356.697,474.23 356.955,474.031 
		357.217,473.832 357.48,473.637 357.742,473.443 358.004,473.252 358.537,472.885 359.074,472.525 359.62,472.182 360.161,471.853 
		360.711,471.535 361.261,471.231 361.815,470.939 362.364,470.66 362.919,470.398 363.473,470.152 364.022,469.916 364.576,469.7 
		365.122,469.493 365.668,469.307 	"/>
	<path class="st0" d="M578.793,469.304c-65.939-21.978-147.178-21.978-213.117,0"/>
	<polyline class="st0" points="578.798,469.307 579.344,469.493 579.894,469.7 580.443,469.916 580.993,470.152 581.547,470.398 
		582.101,470.66 582.655,470.939 583.205,471.231 583.755,471.535 584.305,471.853 584.85,472.182 585.392,472.525 585.929,472.885 
		586.462,473.252 586.728,473.443 586.99,473.637 587.253,473.832 587.511,474.031 587.769,474.23 588.027,474.437 588.28,474.644 
		588.534,474.855 589.033,475.283 589.528,475.722 590.01,476.171 590.488,476.627 590.953,477.093 591.41,477.562 591.858,478.044 
		592.298,478.526 592.725,479.017 593.144,479.516 593.55,480.015 593.943,480.518 594.328,481.022 594.696,481.533 
		595.056,482.045 595.411,482.57 595.758,483.102 596.096,483.644 596.426,484.194 596.747,484.748 597.06,485.31 597.365,485.877 
		597.657,486.448 597.94,487.027 598.215,487.607 598.473,488.19 598.727,488.778 598.963,489.366 599.078,489.662 599.188,489.958 
		599.298,490.25 599.399,490.546 599.501,490.842 599.598,491.138 599.695,491.434 599.784,491.73 599.957,492.318 600.118,492.906 
		600.266,493.49 600.401,494.069 600.52,494.648 600.63,495.224 600.727,495.79 600.807,496.353 600.879,496.911 600.934,497.461 
		600.977,498.006 601.01,498.539 601.027,499.068 601.036,499.584 601.027,500.096 601.01,500.607 600.977,501.115 600.934,501.618 
		600.879,502.117 600.807,502.616 600.727,503.107 600.63,503.593 600.52,504.071 600.401,504.545 600.266,505.01 600.118,505.467 
		599.957,505.915 599.784,506.355 599.695,506.571 599.598,506.787 599.501,506.994 599.399,507.205 599.298,507.408 
		599.188,507.611 599.078,507.814 598.963,508.009 598.727,508.394 598.473,508.77 598.215,509.134 597.94,509.485 597.657,509.823 
		597.365,510.149 597.06,510.462 596.747,510.762 596.426,511.054 596.096,511.329 595.758,511.591 595.411,511.841 
		595.056,512.073 594.696,512.293 594.328,512.505 593.943,512.703 593.55,512.889 593.144,513.067 592.725,513.232 
		592.298,513.384 591.858,513.524 591.41,513.655 590.953,513.769 590.488,513.875 590.01,513.968 589.528,514.044 589.033,514.107 
		588.534,514.158 588.28,514.179 588.027,514.196 587.769,514.209 587.511,514.222 587.253,514.226 586.99,514.23 586.728,514.226 
		586.462,514.222 585.929,514.205 585.392,514.171 584.85,514.124 584.305,514.065 583.755,513.993 583.205,513.909 
		582.655,513.811 582.101,513.706 581.547,513.583 580.993,513.452 580.443,513.308 579.894,513.152 579.344,512.987 
		578.798,512.809 	"/>
	<path class="st0" d="M578.793,512.807c-65.939-21.978-147.178-21.978-213.117,0"/>
	<polyline class="st0" points="365.668,447.555 365.122,447.729 364.576,447.894 364.022,448.05 363.473,448.194 362.919,448.325 
		362.364,448.448 361.815,448.554 361.261,448.651 360.711,448.735 360.161,448.807 359.62,448.866 359.074,448.913 
		358.537,448.947 358.004,448.964 357.742,448.972 357.48,448.972 357.217,448.968 356.955,448.964 356.697,448.951 
		356.443,448.938 356.185,448.921 355.936,448.9 355.433,448.85 354.942,448.786 354.456,448.71 353.982,448.617 353.513,448.515 
		353.056,448.397 352.607,448.266 352.168,448.126 351.74,447.974 351.326,447.809 350.92,447.632 350.522,447.445 350.142,447.247 
		349.77,447.039 349.41,446.815 349.055,446.583 348.708,446.333 348.37,446.071 348.04,445.796 347.718,445.508 347.405,445.204 
		347.101,444.891 346.809,444.565 346.526,444.227 346.255,443.876 345.993,443.512 345.743,443.14 345.507,442.751 
		345.392,442.556 345.278,442.353 345.172,442.15 345.067,441.947 344.965,441.74 344.868,441.529 344.775,441.313 344.682,441.097 
		344.508,440.657 344.348,440.209 344.2,439.752 344.069,439.287 343.946,438.813 343.836,438.336 343.743,437.849 343.658,437.358 
		343.591,436.86 343.531,436.361 343.489,435.857 343.46,435.35 343.438,434.838 343.434,434.326 343.438,433.81 343.46,433.282 
		343.489,432.749 343.531,432.203 343.591,431.653 343.658,431.095 343.743,430.533 343.836,429.966 343.946,429.391 
		344.069,428.811 344.2,428.232 344.348,427.648 344.508,427.06 344.682,426.472 344.775,426.176 344.868,425.88 344.965,425.584 
		345.067,425.288 345.172,424.996 345.278,424.7 345.392,424.404 345.507,424.108 345.743,423.52 345.993,422.932 346.255,422.349 
		346.526,421.769 346.809,421.194 347.101,420.619 347.405,420.052 347.718,419.49 348.04,418.936 348.37,418.386 348.708,417.845 
		349.055,417.312 349.41,416.787 349.77,416.276 350.142,415.768 350.522,415.261 350.92,414.757 351.326,414.258 351.74,413.759 
		352.168,413.269 352.607,412.786 353.056,412.304 353.513,411.835 353.982,411.37 354.456,410.913 354.942,410.465 
		355.433,410.025 355.936,409.597 356.185,409.386 356.443,409.179 356.697,408.976 356.955,408.773 357.217,408.574 357.48,408.38 
		357.742,408.185 358.004,407.995 358.537,407.627 359.074,407.267 359.62,406.925 360.161,406.595 360.711,406.278 
		361.261,405.973 361.815,405.681 362.364,405.406 362.919,405.144 363.473,404.895 364.022,404.662 364.576,404.442 
		365.122,404.239 365.668,404.049 	"/>
	<path class="st0" d="M578.793,404.046c-65.939-21.978-147.178-21.978-213.117,0"/>
	<polyline class="st0" points="578.798,404.049 579.344,404.239 579.894,404.442 580.443,404.662 580.993,404.895 581.547,405.144 
		582.101,405.406 582.655,405.681 583.205,405.973 583.755,406.278 584.305,406.595 584.85,406.925 585.392,407.267 
		585.929,407.627 586.462,407.995 586.728,408.185 586.99,408.38 587.253,408.574 587.511,408.773 587.769,408.976 588.027,409.179 
		588.28,409.386 588.534,409.597 589.033,410.025 589.528,410.465 590.01,410.913 590.488,411.37 590.953,411.835 591.41,412.304 
		591.858,412.786 592.298,413.269 592.725,413.759 593.144,414.258 593.55,414.757 593.943,415.261 594.328,415.768 
		594.696,416.276 595.056,416.787 595.411,417.312 595.758,417.845 596.096,418.386 596.426,418.936 596.747,419.49 597.06,420.052 
		597.365,420.619 597.657,421.194 597.94,421.769 598.215,422.349 598.473,422.932 598.727,423.52 598.963,424.108 599.078,424.404 
		599.188,424.7 599.298,424.996 599.399,425.288 599.501,425.584 599.598,425.88 599.695,426.176 599.784,426.472 599.957,427.06 
		600.118,427.648 600.266,428.232 600.401,428.811 600.52,429.391 600.63,429.966 600.727,430.533 600.807,431.095 600.879,431.653 
		600.934,432.203 600.977,432.749 601.01,433.282 601.027,433.81 601.036,434.326 601.027,434.838 601.01,435.35 600.977,435.857 
		600.934,436.361 600.879,436.86 600.807,437.358 600.727,437.849 600.63,438.336 600.52,438.813 600.401,439.287 600.266,439.752 
		600.118,440.209 599.957,440.657 599.784,441.097 599.695,441.313 599.598,441.529 599.501,441.74 599.399,441.947 599.298,442.15 
		599.188,442.353 599.078,442.556 598.963,442.751 598.727,443.14 598.473,443.512 598.215,443.876 597.94,444.227 597.657,444.565 
		597.365,444.891 597.06,445.204 596.747,445.508 596.426,445.796 596.096,446.071 595.758,446.333 595.411,446.583 
		595.056,446.815 594.696,447.039 594.328,447.247 593.943,447.445 593.55,447.632 593.144,447.809 592.725,447.974 
		592.298,448.126 591.858,448.266 591.41,448.397 590.953,448.515 590.488,448.617 590.01,448.71 589.528,448.786 589.033,448.85 
		588.534,448.9 588.28,448.921 588.027,448.938 587.769,448.951 587.511,448.964 587.253,448.968 586.99,448.972 586.728,448.972 
		586.462,448.964 585.929,448.947 585.392,448.913 584.85,448.866 584.305,448.807 583.755,448.735 583.205,448.651 
		582.655,448.554 582.101,448.448 581.547,448.325 580.993,448.194 580.443,448.05 579.894,447.894 579.344,447.729 
		578.798,447.555 	"/>
	<path class="st0" d="M578.793,447.549c-65.939-21.978-147.178-21.978-213.117,0"/>
	<line class="st0" x1="365.668" y1="404.049" x2="399.975" y2="438.357"/>
	<line class="st0" x1="544.49" y1="438.357" x2="578.798" y2="404.049"/>
	<line class="st0" x1="365.668" y1="469.307" x2="399.975" y2="503.615"/>
	<line class="st0" x1="544.49" y1="503.615" x2="578.798" y2="469.307"/>
	<line class="st0" x1="365.668" y1="534.564" x2="399.975" y2="568.868"/>
	<line class="st0" x1="544.49" y1="568.868" x2="578.798" y2="534.564"/>
	<line class="st0" x1="365.668" y1="599.822" x2="399.975" y2="634.126"/>
	<line class="st0" x1="544.49" y1="634.126" x2="578.798" y2="599.822"/>
	<line class="st0" x1="506.828" y1="726.358" x2="682.538" y2="827.802"/>
	<line class="st0" x1="685.364" y1="151.696" x2="685.364" y2="256.108"/>
	<line class="st0" x1="259.102" y1="151.696" x2="259.102" y2="256.108"/>
	<line class="st0" x1="632.083" y1="256.108" x2="632.083" y2="274.781"/>
	<line class="st0" x1="312.387" y1="256.108" x2="312.387" y2="274.781"/>
	<line class="st0" x1="685.364" y1="356.169" x2="685.364" y2="510.614"/>
	<line class="st0" x1="685.364" y1="554.116" x2="685.364" y2="575.872"/>
	<line class="st0" x1="685.364" y1="619.374" x2="685.364" y2="641.13"/>
	<line class="st0" x1="685.364" y1="684.632" x2="685.364" y2="706.383"/>
	<line class="st0" x1="685.364" y1="749.89" x2="685.364" y2="984.121"/>
	<line class="st0" x1="259.102" y1="356.169" x2="259.102" y2="510.614"/>
	<line class="st0" x1="259.102" y1="554.116" x2="259.102" y2="575.872"/>
	<line class="st0" x1="259.102" y1="619.374" x2="259.102" y2="641.13"/>
	<line class="st0" x1="259.102" y1="684.632" x2="259.102" y2="706.383"/>
	<line class="st0" x1="259.102" y1="749.89" x2="259.102" y2="984.121"/>
</g>
<g>
	<path d="M146.511,1895.898c0,16.496-8.305,24.741-24.914,24.741H44.779c-16.263,0-24.395-8.245-24.395-24.741v-66.609h40.313
		v56.575h45.329v-235.99h40.485V1895.898z"/>
	<path d="M250.319,1828.078h-71.281v-21.454h71.281V1828.078z"/>
	<path d="M401.878,1920.639h-24.049v-130.105h-65.226v130.105h-24.049v-270.766h24.049v119.033h65.226v-119.033h24.049V1920.639z"/>
	<path d="M534.06,1920.639h-88.929v-270.766h87.891v21.281H469.18v101.039h58.132v21.627H469.18v105.538h64.88V1920.639z"/>
	<path d="M680.775,1920.639h-23.876l-9.516-60.209h-53.807l-9.516,60.209h-23.184v-0.692l48.271-270.765h23.702L680.775,1920.639z
		 M644.269,1839.15l-23.702-146.715l-23.876,146.715H644.269z"/>
	<path d="M824.895,1871.677c0,14.304-4.701,26.039-14.102,35.208c-9.4,9.17-21.252,13.755-35.553,13.755h-61.939v-270.766h61.939
		c14.416,0,26.297,4.585,35.641,13.755c9.342,9.17,14.014,20.907,14.014,35.208V1871.677z M800.846,1869.255v-168.342
		c0-8.881-2.799-16.061-8.391-21.54c-5.596-5.477-12.834-8.218-21.713-8.218H737.35v228.204h32.008
		c9.342,0,16.926-2.682,22.75-8.046C797.932,1885.95,800.846,1878.597,800.846,1869.255z"/>
</g>
</svg>
