<?xml version="1.0" encoding="utf-8"?>
<!-- Generator: Adobe Illustrator 22.1.0, SVG Export Plug-In . SVG Version: 6.00 Build 0)  -->
<svg version="1.1" id="Layer_1" xmlns="http://www.w3.org/2000/svg" xmlns:xlink="http://www.w3.org/1999/xlink" x="0px" y="0px"
	 viewBox="0 0 2996 4000" style="enable-background:new 0 0 2996 4000;" xml:space="preserve">
<style type="text/css">
	.st0{fill:none;stroke:#000000;stroke-width:14.1732;stroke-linecap:round;stroke-linejoin:round;stroke-miterlimit:10;}
</style>
<g>
	<path d="M833.09,3986.096H625.237v-650.58h57.783v599.448h150.07V3986.096z"/>
	<path d="M1233.83,3986.096h-54.457v-411.964c0-5.821,1.935-22.865,5.82-51.133l-106.421,401.989h-11.64L960.712,3523
		c3.878,28.547,5.82,45.593,5.82,51.133v411.964h-54.458v-650.58H965.7l105.589,423.189c0.552,2.222,1.104,8.458,1.663,18.707
		c0-4.157,0.552-10.393,1.662-18.707l105.589-423.189h53.626V3986.096z"/>
	<path d="M1645.795,3926.651c0,39.634-19.538,59.445-58.615,59.445h-205.359c-38.525,0-57.784-19.811-57.784-59.445v-189.147
		c0-24.111,8.035-42.538,24.111-55.289c19.123-11.081,38.382-22.168,57.784-33.256c-18.571-10.808-37.141-21.616-55.705-32.425
		c-16.907-13.303-25.358-31.178-25.358-53.626v-167.529c0-39.908,19.675-59.862,59.03-59.862h202.449
		c38.517,0,57.783,19.953,57.783,59.862v167.529c0,22.728-8.314,40.604-24.943,53.626c-18.571,10.808-37.14,21.616-55.704,32.425
		c19.122,11.088,38.381,22.175,57.783,33.256c16.349,12.751,24.527,31.178,24.527,55.289V3926.651z M1548.935,3904.202v-180.415
		l-64.019-36.582l-64.434,36.582v180.415H1548.935z M1548.104,3573.301V3417.41h-125.958v155.891l62.771,37.414L1548.104,3573.301z"
		/>
	<path d="M2007.044,3939.953c0,13.583-4.367,24.67-13.096,33.258c-8.729,8.592-19.889,12.886-33.463,12.886h-177.091
		c-13.583,0-24.67-4.294-33.258-12.886c-8.594-8.588-12.888-19.675-12.888-33.258v-604.436h57.784v599.448h154.228v-599.448h57.784
		V3939.953z"/>
	<path d="M2380.763,3939.953c0,13.583-4.366,24.67-13.096,33.258c-8.729,8.592-19.889,12.886-33.463,12.886h-177.091
		c-13.583,0-24.67-4.294-33.258-12.886c-8.592-8.588-12.886-19.675-12.886-33.258v-604.436h57.784v599.448h154.227v-599.448h57.784
		V3939.953z"/>
</g>
<g>
	<path class="st0" d="M1163.223,2101.385c0.01-274.458-192.662-608.201-430.345-745.437s-430.373-25.995-430.383,248.463
		c-0.011,274.458,192.661,608.201,430.345,745.437S1163.213,2375.842,1163.223,2101.385"/>
	<path class="st0" d="M1095.266,2062.151c0.007-231.12-162.243-512.166-362.394-627.734
		c-200.152-115.568-362.413-21.893-362.42,209.227c-0.007,231.12,162.243,512.166,362.394,627.734
		C932.998,2386.946,1095.259,2293.271,1095.266,2062.151"/>
	<path class="st0" d="M599.805,1462.209c-3.79,32.543-3.791,67.685-0.003,104.603"/>
	<path class="st0" d="M914.063,2111.17c30.077,21.741,60.51,39.313,90.587,52.305"/>
	<line class="st0" x1="687.554" y1="1411.548" x2="599.792" y2="1462.218"/>
	<line class="st0" x1="599.792" y1="1566.833" x2="778.154" y2="1463.856"/>
	<line class="st0" x1="1092.427" y1="2008.188" x2="914.064" y2="2111.176"/>
	<line class="st0" x1="1004.664" y1="2163.483" x2="1092.427" y2="2112.813"/>
	<path class="st0" d="M1483.004,2524.526c198.92-75.092,287.472-327.648,228.554-651.857
		c-58.917-324.209-255.129-664.084-506.429-877.229c-251.3-213.145-514.294-262.753-678.794-128.04"/>
	<path class="st0" d="M1601.283,2350.146c141.138-205.098,99.046-589.558-102.831-939.246
		c-201.877-349.688-513.769-578.391-761.959-558.728"/>
	<path class="st0" d="M2436.496,1978.981c265.377-153.204,265.392-650.021,0.033-1109.672
		c-265.359-459.651-695.606-708.075-960.983-554.871"/>
	<path class="st0" d="M2597.934,1774.732c141.138-205.097,99.047-589.558-102.831-939.246
		c-201.877-349.688-513.769-578.392-761.958-558.728"/>
	<path class="st0" d="M2753.616,1795.889c265.377-153.204,265.392-650.021,0.033-1109.671
		c-265.359-459.651-695.606-708.075-960.983-554.871"/>
	<path class="st0" d="M2479.655,1949.112c198.92-75.091,287.472-327.649,228.555-651.857s-255.129-664.084-506.43-877.229
		s-514.293-262.753-678.793-128.04"/>
	<path class="st0" d="M1439.845,2554.395c265.377-153.204,265.392-650.021,0.033-1109.671S744.271,736.648,478.894,889.852"/>
	<path class="st0" d="M1412.377,2245.251c0.013-433.354-304.207-960.319-679.494-1177.009S53.354,1027.19,53.341,1460.544
		c-0.013,433.354,304.207,960.319,679.495,1177.009C1108.123,2854.244,1412.364,2678.604,1412.377,2245.251"/>
	<path class="st0" d="M1344.426,2206.014c0.013-390.018-273.785-864.286-611.544-1059.307s-611.577-36.944-611.59,353.075
		c-0.013,390.018,273.785,864.286,611.544,1059.307C1070.595,2754.109,1344.414,2596.032,1344.426,2206.014"/>
	<line class="st0" x1="569.463" y1="837.558" x2="1475.514" y2="314.452"/>
	<line class="st0" x1="1530.476" y1="2502.074" x2="2436.527" y2="1978.968"/>
	<line class="st0" x1="2753.637" y1="1795.876" x2="2527.127" y2="1926.65"/>
	<line class="st0" x1="1792.634" y1="131.37" x2="1566.124" y2="262.144"/>
	<line class="st0" x1="252.353" y1="1020.65" x2="478.863" y2="889.876"/>
	<line class="st0" x1="1213.356" y1="2685.156" x2="1439.866" y2="2554.382"/>
	<line class="st0" x1="1046.232" y1="2374.768" x2="1037.17" y2="2379.996"/>
	<line class="st0" x1="437.601" y1="1320.572" x2="428.539" y2="1325.81"/>
</g>
</svg>
