<?xml version="1.0" encoding="utf-8"?>
<!-- Generator: Adobe Illustrator 22.1.0, SVG Export Plug-In . SVG Version: 6.00 Build 0)  -->
<svg version="1.1" id="Layer_1" xmlns="http://www.w3.org/2000/svg" xmlns:xlink="http://www.w3.org/1999/xlink" x="0px" y="0px"
	 viewBox="0 0 4000 1510.917" style="enable-background:new 0 0 4000 1510.917;" xml:space="preserve">
<style type="text/css">
	.st0{font-family:'TimesNewRomanPS-ItalicMT';}
	.st1{font-size:597.9865px;}
	.st2{font-size:298.9933px;}
	.st3{font-family:'TimesNewRomanPS-BoldMT';}
	.st4{font-size:224.2449px;}
	.st5{font-family:'TimesNewRomanPSMT';}
	.st6{fill:none;}
	.st7{font-size:149.4966px;}
</style>
<text transform="matrix(1 0 0 1 24.8084 422.8746)" class="st0 st1">Maker</text>
<text transform="matrix(1 0 0 1 1816.8269 423.3453)" class="st0 st2">/ˈmeɪkə/</text>
<text transform="matrix(1 0 0 1 24.6741 843.8209)"><tspan x="0" y="0" class="st3 st4">noun</tspan><tspan x="486.266" y="0" class="st5 st4">: </tspan><tspan x="604.629" y="0" class="st0 st4">maker</tspan><tspan x="1165.022" y="0" class="st5 st4">; </tspan><tspan x="1283.386" y="0" class="st3 st4">plural noun</tspan><tspan x="2411.399" y="0" class="st5 st4">: </tspan><tspan x="2529.763" y="0" class="st0 st4">makers</tspan></text>
<rect x="627.381" y="1110.883" class="st6" width="3347.293" height="159.905"/>
<text transform="matrix(1 0 0 1 627.3806 1214.7814)"><tspan x="0" y="0" class="st3 st7">1</tspan><tspan x="74.749" y="0" class="st5 st7">: a  person or thing that makes or produces something.</tspan></text>
<rect x="627.381" y="1335.11" class="st6" width="3347.293" height="176.218"/>
<text transform="matrix(1 0 0 1 627.3806 1439.0089)"><tspan x="0" y="0" class="st3 st7">2</tspan><tspan x="74.749" y="0" class="st5 st7">: a god.</tspan></text>
</svg>
