<?xml version="1.0" encoding="utf-8"?>
<!-- Generator: Adobe Illustrator 22.1.0, SVG Export Plug-In . SVG Version: 6.00 Build 0)  -->
<svg version="1.1" id="Layer_1" xmlns="http://www.w3.org/2000/svg" xmlns:xlink="http://www.w3.org/1999/xlink" x="0px" y="0px"
	 viewBox="0 0 4000 554.167" style="enable-background:new 0 0 4000 554.167;" xml:space="preserve">
<style type="text/css">
	.st0{fill:#020203;}
	.st1{fill:#E52521;}
</style>
<g>
	<path class="st0" d="M251.843,396.194h-47.938v-164.48c0-8.662,0.992-20.736,2.983-36.22l-43.037,170.233h-25.354L95.246,195.494
		c1.988,15.766,2.983,27.84,2.983,36.22v164.48H50.29V62.758h47.086l52.412,184.295c0.566,1.991,0.992,7.031,1.279,15.127
		c0-3.549,0.426-8.593,1.278-15.127l52.412-184.295h47.086V396.194z"/>
	<path class="st0" d="M431.025,369.562c0,17.757-9.022,26.632-27.058,26.632h-87.354c-18.323,0-27.484-8.875-27.484-26.632V207.638
		c0-17.754,9.161-26.632,27.484-26.632h87.354c18.037,0,27.058,8.879,27.058,26.632V369.562z M383.3,355.713V221.7h-46.234v134.013
		H383.3z"/>
	<path class="st0" d="M515.396,396.194h-47.938V62.758h47.938V396.194z"/>
	<path class="st0" d="M697.347,181.006l-53.904,212.418l-20.667,81.388h-49.856l22.371-80.323l-54.543-213.484h50.068l28.337,141.47
		l28.336-141.47H697.347z"/>
	<path class="st0" d="M846.274,351.665c0,12.784-4.191,23.403-12.57,31.852c-8.383,8.452-18.892,12.677-31.533,12.677h-74.996
		V62.758h28.336v131.883c11.219-1.418,22.441-2.84,33.664-4.261c14.202-1.844,25.354-2.77,33.45-2.77
		c15.766,0,23.649,7.744,23.649,23.224V351.665z M817.938,347.404V214.243l-62.427,1.704v155.319h39.203
		C810.194,371.266,817.938,363.313,817.938,347.404z"/>
	<path class="st0" d="M1010.329,396.194h-28.124v-5.753c-30.397,4.687-47.229,7.031-50.495,7.031
		c-12.074,0-21.805-4.082-29.189-12.251c-7.387-8.166-11.079-18.356-11.079-30.574v-121.23c0-12.784,4.188-23.4,12.571-31.852
		c8.379-8.449,18.889-12.677,31.532-12.677h46.66V62.758h28.124V396.194z M982.205,370.414V213.817h-39.202
		c-15.627,0-23.436,8.026-23.436,24.076v110.79c0,15.909,7.809,23.862,23.436,23.862
		C946.694,372.544,959.76,371.835,982.205,370.414z"/>
	<path class="st0" d="M1172.891,372.118c0,16.053-7.956,24.076-23.862,24.076h-68.178c-15.91,0-23.862-8.023-23.862-24.076V212.964
		c0-16.049,7.953-24.076,23.862-24.076h68.178c15.906,0,23.862,8.026,23.862,24.076v74.57l-9.588,10.014h-78.831v74.996h60.934
		V334.62h27.484V372.118z M1145.407,274.964v-62.426h-60.934v62.426H1145.407z"/>
	<path class="st0" d="M1338.864,396.194h-28.336V214.243l-62.427,1.704v180.247h-28.336V188.889h28.336v5.753
		c11.08-1.418,22.228-2.91,33.45-4.474c13.636-1.705,24.855-2.557,33.664-2.557c15.766,0,23.649,7.744,23.649,23.224V396.194z"/>
	<path class="st0" d="M1503.344,396.194h-27.91v-5.753c-11.366,1.564-22.658,3.056-33.876,4.474
		c-13.636,1.705-24.928,2.557-33.876,2.557c-15.341,0-23.01-7.67-23.01-23.01V188.889h27.911V370.84l62.852-1.704V188.889h27.91
		V396.194z"/>
	<path class="st0" d="M1757.948,396.194h-28.337V214.243l-61.787,1.704v180.247h-28.123V214.243l-61.787,1.704v180.247h-28.336
		V188.889h28.336v5.753c11.08-1.418,22.159-2.91,33.237-4.474c13.492-1.705,24.641-2.557,33.45-2.557
		c8.662,0,15.053,2.63,19.175,7.883c11.931-1.561,23.789-3.196,35.58-4.901c15.48-1.987,27.198-2.983,35.155-2.983
		c15.623,0,23.436,7.744,23.436,23.224V396.194z"/>
	<path class="st0" d="M2007.226,396.194h-28.124v-5.753c-30.397,4.687-47.229,7.031-50.495,7.031
		c-12.074,0-21.805-4.082-29.189-12.251c-7.387-8.166-11.079-18.356-11.079-30.574v-121.23c0-12.784,4.188-23.4,12.571-31.852
		c8.379-8.449,18.889-12.677,31.532-12.677h46.66V62.758h28.124V396.194z M1979.102,370.414V213.817H1939.9
		c-15.627,0-23.436,8.026-23.436,24.076v110.79c0,15.909,7.809,23.862,23.436,23.862
		C1943.592,372.544,1956.658,371.835,1979.102,370.414z"/>
	<path class="st0" d="M2083.927,143.507h-28.763v-35.794h28.763V143.507z M2083.5,396.194h-27.911V188.889h27.911V396.194z"/>
	<path class="st0" d="M2243.293,372.118c0,16.053-8.027,24.076-24.075,24.076h-64.983c-16.052,0-24.076-8.023-24.076-24.076v-47.086
		h27.911v46.659h57.313v-41.333l-74.144-60.722c-7.104-5.679-10.654-13.067-10.654-22.158v-34.515
		c0-16.049,8.024-24.076,24.076-24.076h64.131c16.049,0,24.075,8.026,24.075,24.076v41.333h-27.485V213.39h-57.313v36.22
		l74.783,60.722c6.958,5.539,10.44,13.07,10.44,22.584V372.118z"/>
	<path class="st0" d="M2406.922,396.194h-27.91v-5.753c-11.366,1.564-22.658,3.056-33.876,4.474
		c-13.636,1.705-24.928,2.557-33.876,2.557c-15.341,0-23.01-7.67-23.01-23.01V188.889h27.911V370.84l62.852-1.704V188.889h27.91
		V396.194z"/>
	<path class="st0" d="M2482.77,396.194h-27.911V62.758h27.911V396.194z"/>
	<path class="st0" d="M2609.327,87.686h-40.055v101.202h35.367v24.928h-35.367v182.377h-27.911V213.817h-24.075v-24.928h24.075
		V86.834c0-16.049,7.954-24.076,23.863-24.076h44.104V87.686z"/>
	<path class="st0" d="M2664.722,143.507h-28.763v-35.794h28.763V143.507z M2664.296,396.194h-27.911V188.889h27.911V396.194z"/>
	<path class="st0" d="M2830.268,396.194h-28.124v-5.753c-30.397,4.687-47.229,7.031-50.495,7.031
		c-12.074,0-21.805-4.082-29.189-12.251c-7.387-8.166-11.079-18.356-11.079-30.574v-121.23c0-12.784,4.188-23.4,12.571-31.852
		c8.379-8.449,18.889-12.677,31.532-12.677h46.66V62.758h28.124V396.194z M2802.144,370.414V213.817h-39.202
		c-15.627,0-23.436,8.026-23.436,24.076v110.79c0,15.909,7.81,23.862,23.436,23.862
		C2766.634,372.544,2779.7,371.835,2802.144,370.414z"/>
	<path class="st0" d="M2992.831,372.118c0,16.053-7.956,24.076-23.862,24.076h-68.178c-15.91,0-23.863-8.023-23.863-24.076V212.964
		c0-16.049,7.953-24.076,23.863-24.076h68.178c15.906,0,23.862,8.026,23.862,24.076v74.57l-9.588,10.014h-78.831v74.996h60.934
		V334.62h27.484V372.118z M2965.347,274.964v-62.426h-60.934v62.426H2965.347z"/>
	<path class="st0" d="M3171.799,472.894h-48.151V62.758h48.151V472.894z"/>
	<path class="st1" d="M3470.508,396.194h-27.911v-211.14c0-2.983,0.992-11.718,2.982-26.206l-54.543,206.027h-5.966l-54.543-206.027
		c1.988,14.631,2.983,23.366,2.983,26.206v211.14h-27.911V62.758h27.485l54.116,216.893c0.283,1.138,0.566,4.334,0.853,9.588
		c0-2.131,0.282-5.327,0.852-9.588l54.117-216.893h27.484V396.194z"/>
	<path class="st1" d="M3639.461,372.118c0,16.053-8.026,24.076-24.075,24.076h-71.161c-15.91,0-23.863-8.023-23.863-24.076V212.964
		c0-16.049,7.953-24.076,23.863-24.076h71.161c16.049,0,24.075,8.026,24.075,24.076V372.118z M3611.125,371.266V213.817h-62.427
		v157.449H3611.125z"/>
	<path class="st1" d="M3819.069,372.544c0,6.961-2.167,12.644-6.498,17.044c-4.335,4.405-9.981,6.605-16.938,6.605h-83.945
		c-6.961,0-12.677-2.2-17.151-6.605c-4.474-4.401-6.711-10.083-6.711-17.044V287.96h29.615v82.027h72.013v-79.471l-92.041-111.216
		c-6.392-7.67-9.588-16.119-9.588-25.354V86.408c0-6.958,2.238-12.64,6.711-17.044c4.474-4.401,10.19-6.605,17.151-6.605h83.945
		c6.958,0,12.604,2.204,16.938,6.605c4.331,4.404,6.498,10.087,6.498,17.044v77.553h-29.615V88.964h-72.013v70.309l92.467,111.216
		c6.106,7.387,9.162,15.696,9.162,24.928V372.544z"/>
	<path class="st1" d="M3950.291,495.769h-82.26v-9.802l63.45-131.801v-49.409h-42.256v46.627h-18.545v-48.217
		c0-4.326,1.368-7.859,4.106-10.597c2.736-2.736,6.269-4.106,10.597-4.106h49.938c4.326,0,7.859,1.37,10.597,4.106
		c2.736,2.738,4.106,6.271,4.106,10.597v43.978c0,5.298-1.635,11.348-4.901,18.147l-54.84,114.184h60.006V495.769z"/>
</g>
</svg>
