<?xml version="1.0" encoding="utf-8"?>
<!-- Generator: Adobe Illustrator 22.1.0, SVG Export Plug-In . SVG Version: 6.00 Build 0)  -->
<svg version="1.1" id="Layer_1" xmlns="http://www.w3.org/2000/svg" xmlns:xlink="http://www.w3.org/1999/xlink" x="0px" y="0px"
	 viewBox="0 0 1823.714 2512.516" style="enable-background:new 0 0 1823.714 2512.516;" xml:space="preserve">
<style type="text/css">
	.st0{fill:none;stroke:#000000;stroke-width:14.1732;stroke-linecap:round;stroke-linejoin:round;stroke-miterlimit:10;}
	.st1{stroke:#000000;stroke-width:0.2835;stroke-miterlimit:10;}
</style>
<g id="Up">
	<path class="st0" d="M958.8,129.675c-30.563,18.036-80.389,18.511-111.29,1.061c-30.901-17.45-31.175-46.218-0.613-64.255
		c30.563-18.036,80.389-18.511,111.29-1.061C989.088,82.871,989.363,111.639,958.8,129.675"/>
	<path class="st0" d="M985.723,534.24c0.239,25.093-34.799,45.771-78.261,46.185c-43.461,0.414-78.888-19.592-79.127-44.685"/>
	<path class="st0" d="M145.775,1151.883"/>
	<path class="st0" d="M145.653,1139.036"/>
	<path class="st0" d="M145.528,1126.18"/>
	<path class="st0" d="M145.406,1113.333"/>
	<path class="st0" d="M145.279,1100.483"/>
	<path class="st0" d="M145.16,1087.63"/>
	<path class="st0" d="M145.038,1074.783"/>
	<path class="st0" d="M144.911,1061.932"/>
	<path class="st0" d="M144.792,1049.08"/>
	<path class="st0" d="M144.67,1036.233"/>
	<path class="st0" d="M144.542,1023.382"/>
	<path class="st0" d="M144.424,1010.529"/>
	<path class="st0" d="M144.296,997.679"/>
	<path class="st0" d="M144.174,984.832"/>
	<path class="st0" d="M144.056,971.979"/>
	<path class="st0" d="M143.928,959.129"/>
	<path class="st0" d="M143.806,946.282"/>
	<path class="st0" d="M150.822,938.735"/>
	<path class="st0" d="M139.713,511.015"/>
	<path class="st0" d="M1253.395,544.796c27.478,80.254-31.289,162.724-149.095,209.231
		c-117.806,46.507-271.657,47.974-390.329,3.721c-118.671-44.253-179-125.588-153.057-206.351"/>
	<path class="st0" d="M983.914,343.306c167.953,21.448,280.113,112.283,260.959,211.342
		c-19.154,99.059-163.556,174.965-335.973,176.609c-172.417,1.644-318.24-71.497-339.279-170.172
		c-21.039-98.676,89.37-191.632,256.883-216.278"/>
	<polyline class="st0" points="1752.85,532.039 1746.52,528.465 989.304,100.891 	"/>
	<line class="st0" x1="1752.85" y1="532.039" x2="1753.833" y2="634.843"/>
	<line class="st0" x1="816.462" y1="102.543" x2="824.193" y2="102.47"/>
	<line class="st0" x1="981.573" y1="100.964" x2="989.304" y2="100.891"/>
	<line class="st0" x1="1753.833" y1="634.843" x2="1001.27" y2="1078.984"/>
	<polyline class="st0" points="816.462,102.543 67.559,544.527 61.304,548.218 	"/>
	<line class="st0" x1="1001.27" y1="1078.984" x2="823.211" y2="1080.689"/>
	<line class="st0" x1="62.287" y1="651.022" x2="61.304" y2="548.218"/>
	<line class="st0" x1="62.287" y1="651.022" x2="823.211" y2="1080.689"/>
	<line class="st0" x1="76.924" y1="1523.271" x2="70.543" y2="1514.556"/>
	<polyline class="st0" points="1006.934,1944.047 1009.526,1942.519 1762.092,1498.371 	"/>
	<line class="st0" x1="825.188" y1="1945.789" x2="1006.934" y2="1944.047"/>
	<path class="st0" d="M1631.064,598.749c-18.337,10.821-48.231,11.106-66.77,0.637c-18.54-10.47-18.704-27.73-0.368-38.551
		c18.337-10.821,48.231-11.106,66.77-0.637C1649.236,570.668,1649.401,587.928,1631.064,598.749"/>
	<path class="st0" d="M251.118,611.944c-18.336,10.821-48.231,11.106-66.77,0.636c-18.54-10.47-18.704-27.73-0.367-38.551
		c18.336-10.821,48.231-11.106,66.77-0.637C269.29,583.863,269.454,601.123,251.118,611.944"/>
	<path class="st0" d="M944.903,1003.701c-18.337,10.821-48.231,11.106-66.77,0.636c-18.54-10.47-18.704-27.73-0.368-38.551
		c18.337-10.821,48.231-11.106,66.77-0.637C963.075,975.62,963.24,992.879,944.903,1003.701"/>
	<line class="st0" x1="1753.833" y1="634.843" x2="1756.118" y2="873.854"/>
	<line class="st0" x1="62.287" y1="651.022" x2="64.573" y2="890.034"/>
	<line class="st0" x1="1009.526" y1="1942.519" x2="1007.24" y2="1703.507"/>
	<polyline class="st0" points="1007.24,1703.507 829.184,1705.206 831.467,1944.224 	"/>
	<polyline class="st0" points="1758.823,1156.556 1759.806,1259.36 1762.092,1498.371 	"/>
	<polyline class="st0" points="70.543,1514.556 68.261,1275.539 67.275,1172.741 	"/>
	<line class="st0" x1="67.275" y1="1172.741" x2="145.53" y2="1126.556"/>
	<polyline class="st0" points="1003.553,1318.002 1001.27,1078.984 823.211,1080.689 825.496,1319.701 	"/>
	<line class="st0" x1="825.496" y1="1319.701" x2="1003.553" y2="1318.002"/>
	<line class="st0" x1="1679.699" y1="1111.877" x2="1758.823" y2="1156.556"/>
	<polyline class="st0" points="829.184,1705.206 68.261,1275.539 147.322,1320.182 143.697,934.712 64.573,890.034 
		825.496,1319.701 1003.553,1318.002 1756.118,873.854 1677.886,920.025 1681.539,1304.977 1759.806,1259.36 1007.24,1703.507 
		1085.495,1657.323 750.059,1660.527 	"/>
	<line class="st0" x1="985.719" y1="534.237" x2="981.535" y2="97.331"/>
	<line class="st0" x1="828.333" y1="535.74" x2="824.155" y2="98.837"/>
	<line class="st0" x1="665.317" y1="398.508" x2="660.89" y2="401.119"/>
	<line class="st0" x1="1146.075" y1="393.904" x2="1150.554" y2="396.433"/>
	<line class="st0" x1="825.188" y1="1945.789" x2="76.924" y2="1523.271"/>
	<line class="st0" x1="750.059" y1="1660.527" x2="750.059" y2="1277.104"/>
	<line class="st0" x1="1085.495" y1="1657.323" x2="1085.495" y2="1269.641"/>
</g>
<g id="NEMA17">
	<path class="st1" d="M604.038,2467.928h-17.523l-76.297-210.089v210.089h-23.911v-285.655h18.983l74.836,206.438v-206.438h23.911
		V2467.928z"/>
	<path class="st1" d="M743.488,2467.928H649.67v-285.655h92.724v22.451h-67.353v106.596h61.329v22.815h-61.329v111.342h68.447
		V2467.928z"/>
	<path class="st1" d="M924.372,2467.928h-23.911v-180.884c0-2.555,0.85-10.039,2.555-22.451l-46.727,176.504h-5.111l-46.727-176.504
		c1.703,12.535,2.555,20.018,2.555,22.451v180.884h-23.911v-285.655h23.546l46.362,185.813c0.243,0.975,0.485,3.713,0.731,8.214
		c0-1.825,0.242-4.563,0.73-8.214l46.362-185.813h23.546V2467.928z"/>
	<path class="st1" d="M1085.179,2467.928h-25.188l-10.039-63.519h-56.766l-10.039,63.519h-24.459v-0.73l50.925-285.655h25.006
		L1085.179,2467.928z M1046.666,2381.958l-25.006-154.782l-25.189,154.782H1046.666z"/>
	<path class="st1" d="M1165.491,2467.928h-41.982v-201.51h-16.427v-5.658l22.086-78.487h36.323V2467.928z"/>
	<path class="st1" d="M1336.701,2209.652l-65.892,258.276h-43.807l64.067-248.967h-54.576v41.799h-41.251v-78.487h141.459V2209.652z
		"/>
</g>
</svg>
