<?xml version="1.0" encoding="utf-8"?>
<!-- Generator: Adobe Illustrator 22.1.0, SVG Export Plug-In . SVG Version: 6.00 Build 0)  -->
<svg version="1.1" id="Horizontal" xmlns="http://www.w3.org/2000/svg" xmlns:xlink="http://www.w3.org/1999/xlink" x="0px" y="0px"
	 viewBox="0 0 2241.343 1085.312" style="enable-background:new 0 0 2241.343 1085.312;" xml:space="preserve">
<style type="text/css">
	.st0{fill:#ED2224;}
	.st1{fill:#010101;}
	.st2{fill:none;stroke:#010101;stroke-width:2.8346;stroke-linecap:round;stroke-linejoin:round;stroke-miterlimit:10;}
</style>
<g id="No">
	<path class="st0" d="M540.998,1018.599h-124.8L187.904,418.947c6.088,29.22,9.132,52.155,9.132,68.793v530.859H58.231V65.853
		h124.802l228.294,587.472c-6.088-29.216-9.132-52.147-9.132-68.791V65.853h138.803V1018.599z"/>
	<path class="st0" d="M1135.782,931.54c0,58.044-28.822,87.058-86.448,87.058H740.071c-56.417,0-84.622-29.014-84.622-87.058
		V153.518c0-58.443,28.205-87.665,84.622-87.665h309.263c57.625,0,86.448,29.222,86.448,87.665V931.54z M993.326,896.232V188.217
		H797.905v708.015H993.326z"/>
</g>
<g id="I_Will_Not">
	<path class="st1" d="M1259.63,295.839h-20.341V66.813h20.341V295.839z"/>
	<path class="st1" d="M1493.485,66.813l-31.17,229.612h-16.537l-24.88-172.683c-0.095-3.023-0.289-7.513-0.582-13.464
		c0,3.122-0.198,7.608-0.586,13.464l-24.88,172.683h-16.537l-31.17-229.612h20.196l19.465,165.22
		c0.095,3.709,0.289,9.173,0.582,16.392c-0.099-3.709,0.099-9.169,0.587-16.392l23.707-165.22h17.417l23.558,165.22
		c0.194,3.709,0.392,9.173,0.587,16.392c0-3.709,0.244-9.169,0.731-16.392l19.465-165.22H1493.485z"/>
	<path class="st1" d="M1542.22,295.839h-20.345V66.813h20.345V295.839z"/>
	<path class="st1" d="M1653.585,295.839h-73.173V66.813h20.345V277.84h52.828V295.839z"/>
	<path class="st1" d="M1754.558,295.839h-73.169V66.813h20.341V277.84h52.828V295.839z"/>
	<path class="st1" d="M1935.44,295.839h-14.051l-61.171-168.438v168.438h-19.172V66.813h15.219l60.002,165.513V66.813h19.172
		V295.839z"/>
	<path class="st1" d="M2068.76,279.595c0,4.783-1.536,8.686-4.609,11.709c-3.077,3.023-7.005,4.535-11.783,4.535h-64.099
		c-4.779,0-8.682-1.512-11.705-4.535c-3.027-3.023-4.539-6.926-4.539-11.709V83.057c0-4.779,1.512-8.681,4.539-11.705
		c3.023-3.023,6.926-4.539,11.705-4.539h64.099c4.779,0,8.706,1.516,11.783,4.539c3.073,3.023,4.609,6.926,4.609,11.705V279.595z
		 M2048.416,277.84V84.816h-56.046V277.84H2048.416z"/>
	<path class="st1" d="M2184.222,84.816h-35.412v211.023h-20.345V84.816h-35.705V66.813h91.461V84.816z"/>
	<path class="st1" d="M1323.58,655.489h-89.999V426.461h34.243v198.441h55.756V655.489z"/>
	<path class="st1" d="M1438.901,655.489h-94.98V426.461h94.101v30.294h-59.854v66.879h51.511v29.708h-51.511v71.853h60.733V655.489z
		"/>
	<path class="st1" d="M1576.314,426.461l-43.903,229.321h-34.098l-43.754-229.321h34.391l25.611,157.026
		c0.194,4.489,0.483,11.027,0.876,19.612c-0.099-4.485,0.194-11.025,0.88-19.612l25.755-157.026H1576.314z"/>
	<path class="st1" d="M1690.611,655.489h-94.98V426.461h94.1v30.294h-59.854v66.879h51.511v29.708h-51.511v71.853h60.733V655.489z"
		/>
	<path class="st1" d="M1804.024,655.489h-90.004V426.461h34.247v198.441h55.757V655.489z"/>
	<path class="st1" d="M1330.168,787.433l-27.804,92.634c-3.515,9.272-8.149,24.731-13.906,46.393v88.681h-20.341V926.46
		c-1.367-7.414-3.465-15.219-6.29-23.418c-4.684-14.046-7.224-21.704-7.612-22.976l-27.804-92.634c0-0.095,0-0.533,0-1.318h20.634
		l31.463,114.585l31.17-114.585h20.49C1330.168,786.801,1330.168,787.239,1330.168,787.433z"/>
	<path class="st1" d="M1451.779,998.898c0,4.783-1.536,8.686-4.609,11.709c-3.077,3.023-7.005,4.535-11.783,4.535h-64.099
		c-4.779,0-8.682-1.512-11.705-4.535c-3.027-3.023-4.539-6.926-4.539-11.709V802.359c0-4.779,1.512-8.681,4.539-11.705
		c3.023-3.023,6.926-4.539,11.705-4.539h64.099c4.779,0,8.706,1.516,11.783,4.539c3.073,3.023,4.609,6.926,4.609,11.705V998.898z
		 M1431.434,997.143V804.119h-56.046v193.024H1431.434z"/>
	<path class="st1" d="M1583.34,998.898c0,4.783-1.536,8.686-4.609,11.709c-3.073,3.023-7,4.535-11.783,4.535h-62.34
		c-4.783,0-8.686-1.512-11.709-4.535c-3.023-3.023-4.535-6.926-4.535-11.709V786.116h20.341v211.027h54.295V786.116h20.341V998.898z
		"/>
	<path class="st1" d="M1717.391,1015.142h-21.365l-42.586-122.635l2.78-4.097h36.291v-84.291h-52.242v211.023h-20.345V786.116
		h76.684c4.778,0,8.682,1.516,11.709,4.539c3.023,3.023,4.535,6.926,4.535,11.705v86.93c0,11.023-7.413,16.533-22.241,16.533
		c-1.466,0-3.614-0.07-6.439-0.219c-2.833-0.145-4.882-0.219-6.15-0.219C1691.194,941.874,1704.315,978.458,1717.391,1015.142z"/>
	<path class="st1" d="M1945.881,998.898c0,4.783-1.516,8.686-4.539,11.709c-3.023,3.023-6.926,4.535-11.705,4.535h-75.515V786.116
		h74.928c4.779,0,8.682,1.516,11.709,4.539c3.023,3.023,4.535,6.926,4.535,11.705v68.052c0,6.051-2.73,11.122-8.194,15.219
		c-5.365,3.217-10.734,6.439-16.099,9.656l17.268,11.122c5.072,3.126,7.612,8,7.612,14.637V998.898z M1924.809,873.042v-68.923
		h-50.342v82.68h29.997L1924.809,873.042z M1925.391,997.143v-79.174l-20.634-13.46h-30.29v92.634H1925.391z"/>
	<path class="st1" d="M2056.663,1015.142h-75.222V786.116h74.342v18.003h-53.997v85.46h49.169v18.296h-49.169v89.268h54.877
		V1015.142z"/>
	<path class="st1" d="M2182.809,973.725c0,12.101-3.977,22.026-11.928,29.782c-7.951,7.756-17.974,11.634-30.072,11.634h-52.39
		V786.116h52.39c12.192,0,22.245,3.878,30.146,11.634c7.905,7.756,11.854,17.685,11.854,29.782V973.725z M2162.468,971.677V829.288
		c0-7.513-2.367-13.584-7.096-18.218c-4.737-4.634-10.858-6.951-18.366-6.951h-28.246v193.024h27.073
		c7.905,0,14.319-2.267,19.246-6.806C2160.002,985.802,2162.468,979.582,2162.468,971.677z"/>
</g>
<g id="Pulley">
	<path class="st2" d="M1948.109,504.289c-44.266,30.238-39.919,75.173,9.904,102.377c49.823,27.204,127.774,27.204,177.597,0
		s54.171-72.139,9.905-102.377"/>
	<path class="st2" d="M1917.576,638.841c0,41.208,57.861,74.615,129.236,74.615c71.375,0,129.236-33.406,129.236-74.615"/>
	<path class="st2" d="M2076.985,453.195c14.42-9.358,13.46-23.621-2.176-32.304c-15.635-8.683-40.359-8.683-55.995,0
		c-15.635,8.683-16.596,22.946-2.176,32.304"/>
	<path class="st2" d="M2124.426,581.721c1.53-1.124,2.986-2.281,4.365-3.469"/>
	<path class="st2" d="M2139.472,566.149c0.853-1.342,1.619-2.703,2.295-4.078"/>
	<path class="st2" d="M2145.445,548.661c0.047-0.715,0.07-1.431,0.07-2.147"/>
	<path class="st2" d="M1948.108,546.514c0,0.716,0.023,1.431,0.07,2.147"/>
	<path class="st2" d="M1951.858,562.071c0.676,1.375,1.442,2.736,2.295,4.078"/>
	<path class="st2" d="M1964.833,578.252c1.379,1.188,2.835,2.345,4.365,3.469"/>
	<path class="st2" d="M2101.782,593.846c2.057-0.796,4.061-1.637,6.008-2.52"/>
	<path class="st2" d="M1985.833,591.325c1.947,0.883,3.952,1.724,6.008,2.52"/>
	<path class="st2" d="M2012.803,600.012c2.325,0.493,4.681,0.935,7.063,1.325"/>
	<path class="st2" d="M2043.094,603.461c2.478,0.054,4.958,0.054,7.436,0"/>
	<path class="st2" d="M2073.757,601.337c2.382-0.39,4.739-0.832,7.063-1.325"/>
	<path class="st2" d="M1917.576,448.244c0,41.208,57.861,74.615,129.236,74.615c71.375,0,129.236-33.406,129.236-74.615"/>
	<path class="st2" d="M1948.109,510.757c-30.631,28.184-20.977,65.062,22.713,86.76c43.69,21.698,108.291,21.698,151.98,0
		c43.69-21.698,53.344-58.576,22.713-86.76"/>
	<path class="st2" d="M2142.324,550.062c-0.152-0.019-0.306-0.035-0.46-0.049"/>
	<path class="st2" d="M2141.765,562.073c0.065-0.133,0.098-0.27,0.098-0.407"/>
	<path class="st2" d="M2135.75,566.928c0.661,0.221,1.456,0.261,2.174,0.111s1.283-0.475,1.546-0.889"/>
	<path class="st2" d="M2135.75,566.929c-1.972-0.658-4.306-0.854-6.521-0.547"/>
	<path class="st2" d="M2128.791,578.252c0.286-0.246,0.438-0.535,0.438-0.831"/>
	<path class="st2" d="M2120.47,581.797c0.51,0.328,1.245,0.508,2.008,0.494c0.762-0.015,1.475-0.223,1.946-0.569"/>
	<path class="st2" d="M2120.47,581.797c-2.999-1.925-8.013-2.259-11.691-0.777"/>
	<path class="st2" d="M2107.792,591.324c0.624-0.283,0.988-0.715,0.988-1.173"/>
	<path class="st2" d="M2097.981,593.212c0.31,0.403,0.912,0.705,1.645,0.828s1.522,0.051,2.156-0.194"/>
	<path class="st2" d="M2097.981,593.212c-1.309-1.701-4.112-2.859-7.323-3.026c-3.211-0.167-6.327,0.684-8.141,2.222"/>
	<path class="st2" d="M2080.823,600.011c1.018-0.216,1.694-0.775,1.694-1.401"/>
	<path class="st2" d="M2070.483,600.055c0.079,0.438,0.49,0.834,1.122,1.081c0.632,0.247,1.42,0.32,2.154,0.2"/>
	<path class="st2" d="M2070.483,600.056c-0.449-2.482-3.927-4.417-8.239-4.585c-4.312-0.168-8.208,1.48-9.231,3.904"/>
	<path class="st2" d="M2050.525,603.46c1.388-0.03,2.487-0.689,2.487-1.491"/>
	<path class="st2" d="M2040.61,601.969c0,0.802,1.099,1.461,2.487,1.491"/>
	<path class="st2" d="M2040.61,599.375c-1.022-2.424-4.918-4.072-9.231-3.904c-4.312,0.168-7.79,2.103-8.239,4.585"/>
	<path class="st2" d="M2019.864,601.336c0.734,0.12,1.523,0.047,2.154-0.2c0.632-0.247,1.042-0.642,1.122-1.081"/>
	<path class="st2" d="M2011.106,598.61c0,0.626,0.677,1.185,1.694,1.401"/>
	<path class="st2" d="M2011.106,592.409c-1.814-1.539-4.93-2.389-8.141-2.222c-3.211,0.167-6.014,1.325-7.323,3.026"/>
	<path class="st2" d="M1991.841,593.845c0.634,0.245,1.423,0.316,2.156,0.194s1.335-0.425,1.645-0.828"/>
	<path class="st2" d="M1984.844,590.151c0,0.458,0.364,0.89,0.988,1.173"/>
	<path class="st2" d="M1984.844,581.021c-3.678-1.482-8.693-1.149-11.691,0.777"/>
	<path class="st2" d="M1969.198,581.722c0.471,0.346,1.184,0.555,1.946,0.569c0.763,0.015,1.497-0.166,2.008-0.494"/>
	<path class="st2" d="M1964.394,577.421c0,0.296,0.152,0.585,0.438,0.831"/>
	<path class="st2" d="M1964.394,566.382c-2.215-0.307-4.549-0.111-6.521,0.547"/>
	<path class="st2" d="M1954.153,566.15c0.263,0.414,0.829,0.739,1.546,0.889c0.718,0.15,1.513,0.109,2.174-0.111"/>
	<path class="st2" d="M1951.759,561.665c0,0.138,0.033,0.275,0.098,0.407"/>
	<path class="st2" d="M1951.759,550.013c-0.154,0.014-0.307,0.031-0.46,0.049"/>
	<path class="st2" d="M1948.178,548.659c0.029,0.44,0.393,0.851,0.995,1.121c0.602,0.271,1.38,0.374,2.127,0.282"/>
	<path class="st2" d="M2142.323,550.062c0.746,0.092,1.525-0.011,2.127-0.282c0.602-0.271,0.966-0.681,0.995-1.121"/>
	<path class="st2" d="M2014.828,415.273c-17.664,10.199-17.664,26.734,0,36.933c17.664,10.199,46.304,10.199,63.968,0
		c17.664-10.199,17.664-26.734,0-36.933C2061.132,405.074,2032.492,405.074,2014.828,415.273"/>
	<path class="st2" d="M1994.994,403.822c-28.618,16.523-28.618,43.311,0,59.834s75.018,16.523,103.636,0s28.618-43.311,0-59.834
		C2070.012,387.3,2023.612,387.3,1994.994,403.822"/>
	<path class="st2" d="M1955.429,380.979c-50.47,29.139-50.47,76.382,0,105.521c50.47,29.139,132.297,29.139,182.767,0
		c50.47-29.139,50.47-76.382,0-105.521S2005.898,351.84,1955.429,380.979"/>
	<line class="st2" x1="2176.047" y1="552.454" x2="2176.047" y2="638.841"/>
	<line class="st2" x1="1917.575" y1="552.454" x2="1917.575" y2="638.841"/>
	<line class="st2" x1="2145.514" y1="496.409" x2="2145.514" y2="546.515"/>
	<line class="st2" x1="1948.107" y1="496.409" x2="1948.107" y2="546.515"/>
	<line class="st2" x1="2176.047" y1="433.74" x2="2176.047" y2="448.245"/>
	<line class="st2" x1="1917.575" y1="433.74" x2="1917.575" y2="448.245"/>
	<line class="st2" x1="2082.517" y1="519.955" x2="2082.517" y2="598.61"/>
	<line class="st2" x1="2053.012" y1="522.774" x2="2053.012" y2="601.97"/>
	<line class="st2" x1="2040.609" y1="601.97" x2="2040.609" y2="522.774"/>
	<line class="st2" x1="2011.105" y1="598.61" x2="2011.105" y2="519.955"/>
	<line class="st2" x1="1984.843" y1="590.152" x2="1984.843" y2="513.722"/>
	<line class="st2" x1="1964.393" y1="577.421" x2="1964.393" y2="505.718"/>
	<line class="st2" x1="1951.758" y1="561.666" x2="1951.758" y2="498.798"/>
	<line class="st2" x1="2141.864" y1="498.798" x2="2141.864" y2="561.666"/>
	<line class="st2" x1="2129.229" y1="505.718" x2="2129.229" y2="577.421"/>
	<line class="st2" x1="2108.779" y1="513.722" x2="2108.779" y2="590.152"/>
</g>
</svg>
