<?xml version="1.0" encoding="utf-8"?>
<!-- Generator: Adobe Illustrator 22.1.0, SVG Export Plug-In . SVG Version: 6.00 Build 0)  -->
<svg version="1.1" id="Vertical" xmlns="http://www.w3.org/2000/svg" xmlns:xlink="http://www.w3.org/1999/xlink" x="0px" y="0px"
	 viewBox="0 0 2079.804 4000" style="enable-background:new 0 0 2079.804 4000;" xml:space="preserve">
<style type="text/css">
	.st0{fill:#FF0000;}
	.st1{fill:none;stroke:#000000;stroke-width:5.6693;stroke-linecap:round;stroke-linejoin:round;stroke-miterlimit:10;}
</style>
<g id="No">
	<path class="st0" d="M937.349,1758.097H710.274L294.889,667.021c11.077,53.167,16.615,94.896,16.615,125.17v965.907H58.946V24.561
		h227.079L701.41,1093.476c-11.077-53.159-16.615-94.881-16.615-125.166V24.561h252.554V1758.097z"/>
	<path class="st0" d="M2019.569,1599.693c0,105.613-52.442,158.404-157.293,158.404h-562.709
		c-102.652,0-153.971-52.791-153.971-158.404V184.069c0-106.338,51.319-159.508,153.971-159.508h562.709
		c104.85,0,157.293,53.171,157.293,159.508V1599.693z M1760.368,1535.45V247.205h-355.571V1535.45H1760.368z"/>
</g>
<g id="I_Will_Not">
	<path d="M127.481,2502.161H85.844v-468.812h41.637V2502.161z"/>
	<path d="M606.179,2033.349l-63.804,470.012h-33.851l-50.928-353.479c-0.194-6.188-0.592-15.378-1.192-27.561
		c0,6.391-0.406,15.573-1.201,27.561l-50.929,353.479h-33.851l-63.804-470.012h41.341l39.845,338.203
		c0.194,7.592,0.592,18.777,1.192,33.555c-0.203-7.592,0.203-18.768,1.201-33.555l48.528-338.203h35.652l48.223,338.203
		c0.397,7.592,0.803,18.777,1.201,33.555c0-7.592,0.499-18.768,1.496-33.555l39.845-338.203H606.179z"/>
	<path d="M705.939,2502.161h-41.646v-468.812h41.646V2502.161z"/>
	<path d="M933.9,2502.161H784.116v-468.812h41.646v431.968H933.9V2502.161z"/>
	<path d="M1140.59,2502.161H990.814v-468.812h41.637v431.968h108.139V2502.161z"/>
	<path d="M1510.853,2502.161h-28.761l-125.216-344.789v344.789h-39.245v-468.812h31.154l122.824,338.803v-338.803h39.245V2502.161z"
		/>
	<path d="M1783.757,2468.91c0,9.79-3.145,17.779-9.435,23.968c-6.298,6.188-14.339,9.283-24.12,9.283h-131.21
		c-9.782,0-17.771-3.094-23.959-9.283c-6.197-6.188-9.291-14.178-9.291-23.968v-402.311c0-9.781,3.094-17.771,9.291-23.959
		c6.188-6.188,14.178-9.291,23.959-9.291h131.21c9.781,0,17.822,3.103,24.12,9.291c6.29,6.188,9.435,14.178,9.435,23.959V2468.91z
		 M1742.111,2465.317v-395.116h-114.724v395.116H1742.111z"/>
	<path d="M2020.104,2070.201h-72.487v431.96h-41.646v-431.96h-73.087v-36.852h187.22V2070.201z"/>
	<path d="M258.387,3238.359H74.16v-468.816h70.094v406.204h114.133V3238.359z"/>
	<path d="M494.447,3238.359H300.024v-468.816h192.622v62.012H370.127v136.899h105.442v60.811H370.127v147.082h124.32V3238.359z"/>
	<path d="M775.729,2769.542l-89.869,469.417h-69.798l-89.565-469.417h70.399l52.425,321.43c0.397,9.19,0.989,22.573,1.792,40.145
		c-0.203-9.181,0.397-22.569,1.801-40.145l52.721-321.43H775.729z"/>
	<path d="M1009.692,3238.359H815.27v-468.816h192.622v62.012H885.372v136.899h105.442v60.811H885.372v147.082h124.32V3238.359z"/>
	<path d="M1241.847,3238.359h-184.235v-468.816h70.103v406.204h114.133V3238.359z"/>
	<path d="M271.871,3508.446l-56.914,189.62c-7.195,18.98-16.68,50.624-28.466,94.966v181.529h-41.637v-181.529
		c-2.798-15.175-7.093-31.154-12.876-47.935c-9.587-28.753-14.787-44.427-15.581-47.031l-56.914-189.62c0-0.195,0-1.091,0-2.697
		h42.238l64.405,234.554l63.804-234.554h41.942C271.871,3507.152,271.871,3508.048,271.871,3508.446z"/>
	<path d="M520.807,3941.31c0,9.79-3.145,17.779-9.435,23.968c-6.298,6.188-14.338,9.283-24.12,9.283h-131.21
		c-9.782,0-17.771-3.094-23.959-9.283c-6.197-6.188-9.291-14.178-9.291-23.968v-402.311c0-9.781,3.094-17.771,9.291-23.959
		c6.189-6.188,14.178-9.291,23.959-9.291h131.21c9.782,0,17.822,3.103,24.12,9.291c6.29,6.188,9.435,14.178,9.435,23.959V3941.31z
		 M479.162,3937.717v-395.116H364.437v395.116H479.162z"/>
	<path d="M790.11,3941.31c0,9.79-3.145,17.779-9.435,23.968s-14.33,9.283-24.12,9.283H628.946c-9.79,0-17.779-3.094-23.968-9.283
		s-9.283-14.178-9.283-23.968v-435.562h41.637v431.969h111.14v-431.969h41.637V3941.31z"/>
	<path d="M1064.51,3974.561h-43.734l-87.172-251.031l5.69-8.386h74.288v-172.542H906.643v431.96h-41.646v-468.812h156.97
		c9.782,0,17.771,3.103,23.968,9.291c6.188,6.188,9.283,14.178,9.283,23.959v177.945c0,22.564-15.175,33.842-45.526,33.842
		c-3.001,0-7.397-0.144-13.18-0.448c-5.8-0.296-9.993-0.448-12.588-0.448C1010.885,3824.583,1037.744,3899.47,1064.51,3974.561z"/>
	<path d="M1528.305,3941.31c0,9.79-3.103,17.779-9.291,23.968c-6.189,6.188-14.178,9.283-23.959,9.283h-154.578v-468.812h153.377
		c9.781,0,17.771,3.103,23.968,9.291c6.189,6.188,9.283,14.178,9.283,23.959v139.3c0,12.385-5.588,22.767-16.773,31.154
		c-10.982,6.586-21.973,13.18-32.955,19.766l35.347,22.767c10.382,6.4,15.581,16.376,15.581,29.962V3941.31z M1485.171,3683.685
		v-141.084h-103.049v169.245h61.403L1485.171,3683.685z M1486.363,3937.717V3775.65l-42.238-27.552h-62.004v189.62H1486.363z"/>
	<path d="M1755.073,3974.561h-153.978v-468.812h152.177v36.852h-110.531v174.935h100.648v37.452h-100.648v182.729h112.332V3974.561z
		"/>
	<path d="M2013.292,3889.782c0,24.771-8.141,45.086-24.416,60.963c-16.274,15.877-36.793,23.815-61.556,23.815h-107.242v-468.812
		h107.242c24.957,0,45.535,7.938,61.708,23.816c16.181,15.877,24.264,36.201,24.264,60.963V3889.782z M1971.655,3885.589v-291.468
		c0-15.378-4.844-27.806-14.524-37.292c-9.697-9.486-22.226-14.229-37.596-14.229h-57.819v395.116h55.418
		c16.182,0,29.311-4.641,39.397-13.933C1966.608,3914.502,1971.655,3901.77,1971.655,3885.589z"/>
</g>
<g id="Pulley">
	<path class="st1" d="M1604.242,2940.515c-76.543,52.286-69.026,129.986,17.126,177.026c86.153,47.04,220.941,47.04,307.094,0
		c86.153-47.04,93.67-124.739,17.126-177.026"/>
	<path class="st1" d="M1551.446,3173.177c0,71.256,100.05,129.021,223.469,129.021s223.469-57.764,223.469-129.021"/>
	<path class="st1" d="M1827.089,2852.165c24.935-16.181,23.274-40.845-3.762-55.859c-27.036-15.014-69.788-15.014-96.824,0
		c-27.036,15.014-28.697,39.678-3.762,55.859"/>
	<path class="st1" d="M1909.123,3074.407c2.646-1.944,5.163-3.945,7.548-5.999"/>
	<path class="st1" d="M1935.139,3047.481c1.475-2.321,2.799-4.673,3.968-7.052"/>
	<path class="st1" d="M1945.468,3017.241c0.081-1.237,0.121-2.474,0.121-3.712"/>
	<path class="st1" d="M1604.241,3013.529c0,1.238,0.04,2.475,0.121,3.712"/>
	<path class="st1" d="M1610.724,3040.43c1.169,2.378,2.493,4.731,3.968,7.052"/>
	<path class="st1" d="M1633.16,3068.408c2.385,2.053,4.903,4.054,7.548,5.999"/>
	<path class="st1" d="M1869.968,3095.373c3.557-1.377,7.022-2.831,10.39-4.358"/>
	<path class="st1" d="M1669.473,3091.015c3.367,1.527,6.833,2.981,10.39,4.358"/>
	<path class="st1" d="M1716.109,3106.035c4.02,0.852,8.094,1.616,12.214,2.291"/>
	<path class="st1" d="M1768.486,3111.999c4.285,0.093,8.574,0.093,12.858,0"/>
	<path class="st1" d="M1821.508,3108.326c4.12-0.675,8.194-1.439,12.214-2.291"/>
	<path class="st1" d="M1551.446,2843.604c0,71.256,100.05,129.021,223.469,129.021s223.469-57.764,223.469-129.021"/>
	<path class="st1" d="M1604.241,2951.698c-52.966,48.734-36.272,112.502,39.275,150.022c75.547,37.52,187.252,37.52,262.798,0
		c75.547-37.52,92.241-101.288,39.275-150.022"/>
	<path class="st1" d="M1940.07,3019.664c-0.264-0.032-0.529-0.061-0.795-0.085"/>
	<path class="st1" d="M1939.105,3040.432c0.113-0.229,0.17-0.466,0.17-0.704"/>
	<path class="st1" d="M1928.704,3048.828c1.142,0.381,2.518,0.452,3.759,0.192s2.219-0.822,2.674-1.537"/>
	<path class="st1" d="M1928.703,3048.829c-3.41-1.138-7.446-1.477-11.276-0.946"/>
	<path class="st1" d="M1916.67,3068.408c0.494-0.425,0.757-0.925,0.757-1.437"/>
	<path class="st1" d="M1902.283,3074.54c0.882,0.566,2.153,0.879,3.472,0.854c1.319-0.025,2.551-0.386,3.366-0.985"/>
	<path class="st1" d="M1902.283,3074.539c-5.186-3.329-13.856-3.905-20.216-1.343"/>
	<path class="st1" d="M1880.359,3091.013c1.078-0.489,1.708-1.237,1.708-2.029"/>
	<path class="st1" d="M1863.394,3094.277c0.536,0.696,1.577,1.22,2.845,1.431s2.632,0.088,3.728-0.336"/>
	<path class="st1" d="M1863.395,3094.278c-2.264-2.941-7.11-4.944-12.663-5.232c-5.552-0.289-10.94,1.182-14.077,3.843"/>
	<path class="st1" d="M1833.725,3106.033c1.76-0.373,2.929-1.34,2.929-2.422"/>
	<path class="st1" d="M1815.846,3106.11c0.137,0.758,0.847,1.441,1.94,1.868s2.456,0.553,3.725,0.345"/>
	<path class="st1" d="M1815.846,3106.111c-0.777-4.291-6.79-7.637-14.246-7.928c-7.457-0.291-14.193,2.559-15.961,6.751"/>
	<path class="st1" d="M1781.336,3111.998c2.401-0.052,4.301-1.191,4.301-2.578"/>
	<path class="st1" d="M1764.192,3109.42c0,1.387,1.9,2.526,4.301,2.578"/>
	<path class="st1" d="M1764.19,3104.934c-1.768-4.192-8.505-7.042-15.962-6.751c-7.457,0.29-13.47,3.636-14.246,7.928"/>
	<path class="st1" d="M1728.318,3108.324c1.269,0.208,2.633,0.082,3.725-0.345s1.802-1.111,1.94-1.868"/>
	<path class="st1" d="M1713.174,3103.611c0,1.082,1.17,2.049,2.929,2.422"/>
	<path class="st1" d="M1713.173,3092.888c-3.137-2.661-8.525-4.131-14.077-3.843c-5.552,0.288-10.399,2.291-12.663,5.232"/>
	<path class="st1" d="M1679.862,3095.372c1.096,0.424,2.46,0.547,3.728,0.336c1.268-0.211,2.309-0.735,2.845-1.431"/>
	<path class="st1" d="M1667.762,3088.984c0,0.792,0.63,1.54,1.708,2.029"/>
	<path class="st1" d="M1667.762,3073.196c-6.36-2.562-15.031-1.986-20.216,1.343"/>
	<path class="st1" d="M1640.709,3074.408c0.815,0.599,2.047,0.959,3.366,0.985c1.319,0.025,2.589-0.287,3.472-0.854"/>
	<path class="st1" d="M1632.402,3066.972c0,0.511,0.264,1.012,0.757,1.437"/>
	<path class="st1" d="M1632.402,3047.883c-3.83-0.531-7.866-0.192-11.276,0.946"/>
	<path class="st1" d="M1614.693,3047.483c0.455,0.715,1.433,1.278,2.674,1.537c1.241,0.259,2.616,0.189,3.759-0.192"/>
	<path class="st1" d="M1610.554,3039.728c0,0.238,0.057,0.475,0.17,0.704"/>
	<path class="st1" d="M1610.553,3019.579c-0.266,0.024-0.531,0.053-0.795,0.085"/>
	<path class="st1" d="M1604.361,3017.238c0.05,0.761,0.679,1.471,1.72,1.939c1.041,0.468,2.387,0.646,3.677,0.488"/>
	<path class="st1" d="M1940.07,3019.664c1.29,0.159,2.636-0.02,3.677-0.488c1.041-0.468,1.671-1.177,1.72-1.939"/>
	<path class="st1" d="M1719.61,2786.592c-30.544,17.635-30.544,46.228,0,63.863s80.067,17.635,110.611,0
		c30.544-17.635,30.544-46.228,0-63.863C1799.676,2768.957,1750.154,2768.957,1719.61,2786.592"/>
	<path class="st1" d="M1685.313,2766.792c-49.486,28.57-49.486,74.892,0,103.462c49.486,28.57,129.718,28.57,179.204,0
		s49.486-74.892,0-103.462C1815.031,2738.222,1734.799,2738.222,1685.313,2766.792"/>
	<path class="st1" d="M1616.899,2727.292c-87.27,50.385-87.27,132.077,0,182.462c87.27,50.385,228.763,50.385,316.033,0
		c87.27-50.386,87.27-132.077,0-182.462C1845.662,2676.906,1704.169,2676.906,1616.899,2727.292"/>
	<line class="st1" x1="1998.382" y1="3023.8" x2="1998.382" y2="3173.178"/>
	<line class="st1" x1="1551.445" y1="3023.8" x2="1551.445" y2="3173.178"/>
	<line class="st1" x1="1945.588" y1="2926.89" x2="1945.588" y2="3013.53"/>
	<line class="st1" x1="1604.239" y1="2926.89" x2="1604.239" y2="3013.53"/>
	<line class="st1" x1="1998.382" y1="2818.524" x2="1998.382" y2="2843.605"/>
	<line class="st1" x1="1551.445" y1="2818.524" x2="1551.445" y2="2843.605"/>
	<line class="st1" x1="1836.654" y1="2967.604" x2="1836.654" y2="3103.612"/>
	<line class="st1" x1="1785.637" y1="2972.478" x2="1785.637" y2="3109.421"/>
	<line class="st1" x1="1764.19" y1="3109.421" x2="1764.19" y2="2972.478"/>
	<line class="st1" x1="1713.173" y1="3103.612" x2="1713.173" y2="2967.604"/>
	<line class="st1" x1="1667.76" y1="3088.985" x2="1667.76" y2="2956.826"/>
	<line class="st1" x1="1632.4" y1="3066.972" x2="1632.4" y2="2942.985"/>
	<line class="st1" x1="1610.552" y1="3039.729" x2="1610.552" y2="2931.021"/>
	<line class="st1" x1="1939.275" y1="2931.021" x2="1939.275" y2="3039.729"/>
	<line class="st1" x1="1917.427" y1="2942.985" x2="1917.427" y2="3066.972"/>
	<line class="st1" x1="1882.067" y1="2956.826" x2="1882.067" y2="3088.985"/>
</g>
</svg>
