<?xml version="1.0" encoding="utf-8"?>
<!-- Generator: Adobe Illustrator 22.1.0, SVG Export Plug-In . SVG Version: 6.00 Build 0)  -->
<svg version="1.1" id="nylon_6" xmlns="http://www.w3.org/2000/svg" xmlns:xlink="http://www.w3.org/1999/xlink" x="0px" y="0px"
	 viewBox="0 0 3118.73 1126.599" style="enable-background:new 0 0 3118.73 1126.599;" xml:space="preserve">
<style type="text/css">
	.st0{fill:none;stroke:#000000;stroke-width:28.3465;stroke-miterlimit:10;}
</style>
<g>
	<path d="M2796.912,273.769c0,84.74-51.502,129.667-114.327,129.667c-65.016,0-110.673-50.406-110.673-124.919
		c0-78.165,48.58-129.302,114.327-129.302C2753.446,149.216,2796.912,200.718,2796.912,273.769z M2605.882,277.787
		c0,52.597,28.49,99.716,78.53,99.716c50.406,0,78.896-46.388,78.896-102.272c0-48.945-25.569-100.081-78.531-100.081
		C2632.179,175.149,2605.882,223.729,2605.882,277.787z"/>
</g>
<line class="st0" x1="281.814" y1="797.553" x2="59.143" y2="926.113"/>
<line class="st0" x1="2647.143" y1="730.968" x2="2647.143" y2="447.469"/>
<line class="st0" x1="2722.143" y1="731.546" x2="2722.143" y2="447.469"/>
<polyline class="st0" points="270.143,1067.619 170.143,1067.619 170.143,49.619 270.143,49.619 "/>
<polyline class="st0" points="2849.143,1067.619 2949.143,1067.619 2949.143,49.619 2849.143,49.619 "/>
<polyline class="st0" points="584.977,796.691 809.142,926.113 1184.142,709.606 1559.142,926.113 1934.142,709.606 
	2309.143,926.113 2684.142,709.606 3059.142,926.113 "/>
<g>
	<path d="M359.846,192.09v125.396h144.961V192.09h39.131v299.704h-39.131V351.279H359.846v140.514h-38.686V192.09H359.846z"/>
	<path d="M321.161,836.411V536.707h42.243l96.048,151.63c22.233,35.128,39.575,66.7,53.804,97.382l0.889-0.445
		c-3.557-40.02-4.446-76.482-4.446-123.172V536.707h36.462v299.704H507.03l-95.158-152.075
		c-20.899-33.35-40.909-67.589-56.028-100.049l-1.334,0.445c2.224,37.796,3.113,73.814,3.113,123.617v128.063H321.161z"/>
</g>
</svg>
