<?xml version="1.0" encoding="utf-8"?>
<!-- Generator: Adobe Illustrator 22.1.0, SVG Export Plug-In . SVG Version: 6.00 Build 0)  -->
<svg version="1.1" id="Layer_1" xmlns="http://www.w3.org/2000/svg" xmlns:xlink="http://www.w3.org/1999/xlink" x="0px" y="0px"
	 viewBox="0 0 4000 3752.174" style="enable-background:new 0 0 4000 3752.174;" xml:space="preserve">
<style type="text/css">
	.st0{fill:none;stroke:#000000;stroke-width:17.0079;stroke-linecap:round;stroke-linejoin:round;stroke-miterlimit:10;}
	.st1{fill:none;stroke:#020203;stroke-width:17.0079;stroke-linecap:round;stroke-linejoin:round;stroke-miterlimit:10;}
	.st2{fill:#E52521;stroke:#E52521;stroke-miterlimit:10;}
	.st3{fill:#020203;}
	.st4{fill:#E52521;}
</style>
<g id="Motor">
	<path class="st0" d="M2966.716,441.792c12.593,48.857,62.207,99.426,110.816,112.948c48.609,13.522,77.805-15.123,65.212-63.981
		c-12.593-48.857-62.207-99.426-110.816-112.948C2983.319,364.289,2954.123,392.934,2966.716,441.792"/>
	<path class="st0" d="M2532.932,821.443c-25.467,24.986-11.03,80.998,32.246,125.108c43.276,44.109,99.003,59.612,124.47,34.626"/>
	<path class="st0" d="M2756.42,2286.788"/>
	<path class="st0" d="M2769.458,2273.995"/>
	<path class="st0" d="M2782.508,2261.196"/>
	<path class="st0" d="M2795.546,2248.403"/>
	<path class="st0" d="M2808.593,2235.613"/>
	<path class="st0" d="M2821.633,2222.811"/>
	<path class="st0" d="M2834.671,2210.018"/>
	<path class="st0" d="M2847.718,2197.228"/>
	<path class="st0" d="M2860.759,2184.426"/>
	<path class="st0" d="M2873.797,2171.633"/>
	<path class="st0" d="M2886.844,2158.843"/>
	<path class="st0" d="M2899.884,2146.041"/>
	<path class="st0" d="M2912.931,2133.25"/>
	<path class="st0" d="M2925.969,2120.457"/>
	<path class="st0" d="M2939.01,2107.655"/>
	<path class="st0" d="M2952.057,2094.865"/>
	<path class="st0" d="M2965.094,2082.072"/>
	<path class="st0" d="M2965.628,2067.432"/>
	<path class="st0" d="M3406.792,1648.604"/>
	<path class="st0" d="M2253.224,562.959c-108.305,53.057-132.134,195.046-60.456,360.233
		c71.678,165.187,224.874,321.332,388.664,396.146c163.791,74.814,306.208,53.697,361.32-53.577"/>
	<path class="st0" d="M2726.701,631.311c-190.408-147.284-394.484-168.723-474.814-49.881
		c-80.33,118.841-11.471,340.322,160.212,515.309c171.682,174.987,391.81,248.056,512.161,170.007
		c120.351-78.05,102.807-282.497-40.82-475.678"/>
	<polyline class="st0" points="1763.937,48.022 1773.893,50.792 2964.987,382.188 	"/>
	<line class="st0" x1="1763.937" y1="48.022" x2="1659.598" y2="150.384"/>
	<line class="st0" x1="3137.088" y1="557.61" x2="3129.388" y2="549.765"/>
	<line class="st0" x1="2972.686" y1="390.033" x2="2964.987" y2="382.188"/>
	<line class="st0" x1="1659.598" y1="150.384" x2="1969.66" y2="1353.455"/>
	<polyline class="st0" points="3137.088,557.61 3445.639,1754.833 3448.216,1764.832 	"/>
	<line class="st0" x1="1969.66" y1="1353.455" x2="2146.953" y2="1534.175"/>
	<line class="st0" x1="3343.878" y1="1867.194" x2="3448.216" y2="1764.832"/>
	<line class="st0" x1="3343.878" y1="1867.194" x2="2146.953" y2="1534.175"/>
	<line class="st0" x1="2452.274" y1="2729.368" x2="2467.449" y2="2727.023"/>
	<polyline class="st0" points="1094.301,2217.425 1093.232,2213.283 783.173,1010.204 	"/>
	<line class="st0" x1="1275.262" y1="2401.89" x2="1094.301" y2="2217.425"/>
	<path class="st0" d="M1819.306,237.52c7.555,29.313,37.322,59.653,66.485,67.765c29.164,8.113,46.681-9.074,39.126-38.387
		c-7.556-29.313-37.322-59.653-66.486-67.765C1829.268,191.021,1811.75,208.207,1819.306,237.52"/>
	<path class="st0" d="M3193.329,1638.073c7.555,29.313,37.322,59.652,66.486,67.765c29.164,8.113,46.681-9.073,39.125-38.386
		c-7.555-29.313-37.322-59.653-66.485-67.765C3203.291,1591.574,3185.773,1608.76,3193.329,1638.073"/>
	<path class="st0" d="M2102.011,1334.437c7.555,29.313,37.322,59.653,66.486,67.765c29.164,8.113,46.681-9.073,39.125-38.386
		c-7.555-29.313-37.322-59.653-66.486-67.765C2111.973,1287.938,2094.456,1305.124,2102.011,1334.437"/>
	<line class="st0" x1="1659.598" y1="150.384" x2="1417.017" y2="388.37"/>
	<line class="st0" x1="3343.878" y1="1867.194" x2="3101.297" y2="2105.179"/>
	<line class="st0" x1="1093.232" y1="2213.283" x2="1335.813" y2="1975.298"/>
	<polyline class="st0" points="1335.813,1975.298 1513.108,2156.01 1270.525,2394.004 	"/>
	<polyline class="st0" points="1130.092,669.856 1025.754,772.219 783.173,1010.204 	"/>
	<polyline class="st0" points="2467.449,2727.023 2710.033,2489.028 2814.369,2386.675 	"/>
	<line class="st0" x1="2814.369" y1="2386.675" x2="2782.128" y2="2261.572"/>
	<polyline class="st0" points="1727.076,1591.449 1969.66,1353.455 2146.953,1534.175 1904.372,1772.161 	"/>
	<line class="st0" x1="1904.372" y1="1772.161" x2="1727.076" y2="1591.449"/>
	<line class="st0" x1="1254.554" y1="704.485" x2="1130.092" y2="669.856"/>
	<polyline class="st1" points="1513.108,2156.01 2710.033,2489.028 2585.67,2454.427 2976.835,2070.551 3101.297,2105.179 
		1904.372,1772.161 1727.076,1591.449 1417.017,388.37 1449.249,513.435 1058.577,896.761 1025.754,772.219 1335.813,1975.298 
		1303.571,1850.197 1637.572,2190.639 	"/>
	<line class="st0" x1="2532.939" y1="821.443" x2="2976.376" y2="386.419"/>
	<line class="st0" x1="2689.651" y1="981.177" x2="3133.078" y2="546.151"/>
	<line class="st0" x1="2991.497" y1="1007.098" x2="2993.323" y2="1014.175"/>
	<line class="st0" x1="2512.81" y1="519.155" x2="2505.764" y2="517.195"/>
	<line class="st0" x1="1275.262" y1="2401.89" x2="2452.274" y2="2729.368"/>
	<line class="st1" x1="1637.572" y1="2190.639" x2="2023.035" y2="1805.176"/>
	<line class="st1" x1="1303.571" y1="1850.197" x2="1693.316" y2="1460.453"/>
</g>
<g>
	<path d="M212.41,3602.922c0,8.037-2.582,14.597-7.748,19.679c-5.165,5.084-11.769,7.625-19.801,7.625H77.121
		c-8.036,0-14.597-2.541-19.678-7.625c-5.085-5.082-7.625-11.642-7.625-19.679v-330.349c0-8.033,2.54-14.594,7.625-19.679
		c5.081-5.081,11.642-7.625,19.678-7.625H184.86c8.033,0,14.636,2.544,19.801,7.625c5.166,5.085,7.748,11.646,7.748,19.679V3602.922
		z M178.219,3599.971v-324.447h-94.21v324.447H178.219z"/>
	<path d="M407.471,3630.226h-32.715V3420.16l-72.072,1.968v208.098h-32.715v-239.338h32.715v6.642
		c12.791-1.637,25.663-3.36,38.619-5.166c15.742-1.968,28.695-2.952,38.865-2.952c18.202,0,27.304,8.94,27.304,26.812V3630.226z"/>
	<path d="M594.17,3602.431c0,18.533-9.186,27.795-27.55,27.795h-78.714c-18.367,0-27.55-9.262-27.55-27.795v-183.747
		c0-18.528,9.182-27.795,27.55-27.795h78.714c18.364,0,27.55,9.267,27.55,27.795v86.093l-11.069,11.561h-91.012v86.584h70.35
		v-43.784h31.731V3602.431z M562.439,3490.264v-72.072h-70.35v72.072H562.439z"/>
	<path d="M987.49,3630.226h-32.715V3420.16l-71.334,1.968v208.098h-32.469V3420.16l-71.334,1.968v208.098h-32.715v-239.338h32.715
		v6.642c12.791-1.637,25.582-3.36,38.373-5.166c15.577-1.968,28.449-2.952,38.619-2.952c10,0,17.38,3.036,22.138,9.101
		c13.775-1.802,27.465-3.69,41.078-5.657c17.872-2.295,31.401-3.444,40.587-3.444c18.037,0,27.058,8.94,27.058,26.812V3630.226z"/>
	<path d="M1075.305,3338.495h-33.207v-41.324h33.207V3338.495z M1074.813,3630.226h-32.223v-239.338h32.223V3630.226z"/>
	<path d="M1263.232,3602.431c0,18.533-9.185,27.795-27.55,27.795h-77.729c-18.367,0-27.55-9.262-27.55-27.795v-183.747
		c0-18.528,9.182-27.795,27.55-27.795h77.729c18.364,0,27.55,9.267,27.55,27.795v47.721h-32.223v-46.737h-67.891v181.779h67.891
		v-53.378h32.223V3602.431z"/>
	<path d="M1441.568,3469.602h-32.224v-49.442l-60.265,1.968v208.098h-32.715v-239.338h32.715v6.642
		c10.824-1.637,21.727-3.36,32.715-5.166c13.118-1.968,24.021-2.952,32.715-2.952c18.037,0,27.058,8.94,27.058,26.812V3469.602z"/>
	<path d="M1620.641,3602.431c0,18.533-9.266,27.795-27.795,27.795h-82.157c-18.368,0-27.55-9.262-27.55-27.795v-183.747
		c0-18.528,9.182-27.795,27.55-27.795h82.157c18.529,0,27.795,9.267,27.795,27.795V3602.431z M1587.927,3601.447v-181.779h-72.073
		v181.779H1587.927z"/>
	<path d="M1823.574,3599.479c0,20.501-10.416,30.747-31.239,30.747h-94.702c-20.827,0-31.239-10.246-31.239-30.747v-53.378h53.87
		v41.817h49.442v-39.356l-86.339-50.917c-11.315-6.723-16.973-15.743-16.973-27.058v-58.052c0-20.497,10.577-30.747,31.731-30.747
		h93.718c20.824,0,31.239,10.25,31.239,30.747v49.934h-53.378v-38.372h-49.442v35.913l86.093,50.426
		c11.476,6.56,17.218,15.742,17.218,27.55V3599.479z"/>
	<path d="M1970.177,3630.226h-62.479c-20.828,0-31.239-10.246-31.239-30.747v-169.726h-26.566v-47.965h26.566v-67.398h56.083v67.398
		h36.159v47.965h-36.159v152.507h37.635V3630.226z"/>
	<path d="M2162.041,3599.479c0,20.501-10.577,30.747-31.73,30.747h-97.162c-21.154,0-31.731-10.246-31.731-30.747v-186.944
		c0-20.497,10.577-30.747,31.731-30.747h97.162c21.153,0,31.73,10.25,31.73,30.747v91.258l-15.497,15.496h-91.258v69.613h52.885
		v-41.324h53.869V3599.479z M2108.172,3482.638v-59.527h-52.885v59.527H2108.172z"/>
	<path d="M2368.663,3580.293c0,20.17-7.218,34.276-21.646,42.308c-10.497,5.742-26.404,8.609-47.72,8.609
		c-4.919,0-11.849-0.166-20.785-0.492c-8.94-0.331-15.373-0.492-19.309-0.492v90.766h-56.329v-339.205h56.329v9.101
		c13.118-1.968,26.236-4.016,39.357-6.15c16.561-2.621,29.679-3.935,39.356-3.935c20.497,0,30.747,10.085,30.747,30.255V3580.293z
		 M2312.088,3564.795V3428.77l-52.885,0.983v153.738h34.929C2306.1,3583.49,2312.088,3577.26,2312.088,3564.795z"/>
	<path d="M2649.08,3630.226h-32.223v-6.642c-12.956,1.807-25.912,3.528-38.865,5.166c-16.073,1.968-28.945,2.952-38.619,2.952
		c-17.876,0-26.812-8.855-26.812-26.565v-87.323c0-18.365,9.263-27.55,27.796-27.55h76.991v-72.072h-70.35v40.833h-31.731v-40.341
		c0-18.528,9.183-27.795,27.55-27.795h78.714c18.365,0,27.55,9.267,27.55,27.795V3630.226z M2617.349,3600.463v-84.617h-73.056
		v86.093L2617.349,3600.463z"/>
	<path d="M2788.795,3630.226h-46.49c-18.367,0-27.55-9.262-27.55-27.795v-182.763h-28.779v-28.779h28.779v-74.532h32.223v74.532
		h41.816v28.779h-41.816v181.779h41.816V3630.226z"/>
	<path d="M3064.538,3630.226h-32.223v-6.642c-12.956,1.807-25.912,3.528-38.865,5.166c-16.073,1.968-28.945,2.952-38.619,2.952
		c-17.876,0-26.812-8.855-26.812-26.565v-87.323c0-18.365,9.263-27.55,27.796-27.55h76.991v-72.072h-70.35v40.833h-31.731v-40.341
		c0-18.528,9.183-27.795,27.55-27.795h78.714c18.364,0,27.55,9.267,27.55,27.795V3630.226z M3032.807,3600.463v-84.617h-73.056
		v86.093L3032.807,3600.463z"/>
	<path class="st2" d="M3302.892,3630.226h-46.49c-18.367,0-27.55-9.262-27.55-27.795v-182.763h-28.779v-28.779h28.779v-74.532
		h32.223v74.532h41.817v28.779h-41.817v181.779h41.817V3630.226z"/>
	<path class="st2" d="M3379.392,3338.495h-33.208v-41.324h33.208V3338.495z M3378.9,3630.226h-32.223v-239.338h32.223V3630.226z"/>
	<path class="st2" d="M3675.059,3630.226h-32.715V3420.16l-71.334,1.968v208.098h-32.469V3420.16l-71.334,1.968v208.098h-32.715
		v-239.338h32.715v6.642c12.792-1.637,25.583-3.36,38.373-5.166c15.577-1.968,28.449-2.952,38.619-2.952
		c10,0,17.379,3.036,22.138,9.101c13.775-1.802,27.465-3.69,41.078-5.657c17.872-2.295,31.401-3.444,40.587-3.444
		c18.037,0,27.058,8.94,27.058,26.812V3630.226z"/>
	<path class="st3" d="M3949.818,3630.226h-37.388v-43.292h37.388V3630.226z"/>
	<path class="st4" d="M3862.003,3601.693c0,18.533-9.186,27.795-27.55,27.795h-78.714c-18.367,0-27.55-9.262-27.55-27.795v-183.747
		c0-18.528,9.182-27.795,27.55-27.795h78.714c18.364,0,27.55,9.267,27.55,27.795v86.093l-11.069,11.561h-91.012v86.584h70.35V3558.4
		h31.731V3601.693z M3830.272,3489.526v-72.072h-70.35v72.072H3830.272z"/>
</g>
</svg>
