<?xml version="1.0" encoding="utf-8"?>
<!-- Generator: Adobe Illustrator 22.1.0, SVG Export Plug-In . SVG Version: 6.00 Build 0)  -->
<svg version="1.1" id="peek" xmlns="http://www.w3.org/2000/svg" xmlns:xlink="http://www.w3.org/1999/xlink" x="0px" y="0px"
	 viewBox="0 0 4982.73 1908.599" style="enable-background:new 0 0 4982.73 1908.599;" xml:space="preserve">
<style type="text/css">
	.st0{fill:none;stroke:#000000;stroke-width:28.3465;stroke-miterlimit:10;}
</style>
<g>
	<path d="M540.912,734.769c0,84.74-51.502,129.667-114.326,129.667c-65.016,0-110.674-50.406-110.674-124.919
		c0-78.166,48.579-129.302,114.326-129.302C497.446,610.216,540.912,661.717,540.912,734.769z M349.881,738.787
		c0,52.597,28.49,99.716,78.531,99.716c50.406,0,78.896-46.388,78.896-102.272c0-48.945-25.568-100.081-78.531-100.081
		C376.18,636.149,349.881,684.729,349.881,738.787z"/>
</g>
<g>
	<path d="M2041.912,1600.769c0,84.74-51.502,129.668-114.326,129.668c-65.016,0-110.674-50.406-110.674-124.92
		c0-78.165,48.58-129.302,114.327-129.302C1998.446,1476.215,2041.912,1527.717,2041.912,1600.769z M1850.881,1604.787
		c0,52.597,28.49,99.716,78.531,99.716c50.406,0,78.896-46.388,78.896-102.273c0-48.944-25.568-100.082-78.531-100.082
		C1877.18,1502.149,1850.881,1550.729,1850.881,1604.787z"/>
</g>
<g>
	<path d="M3541.912,301.769c0,84.74-51.502,129.667-114.327,129.667c-65.016,0-110.673-50.406-110.673-124.919
		c0-78.165,48.58-129.302,114.327-129.302C3498.446,177.216,3541.912,228.718,3541.912,301.769z M3350.882,305.787
		c0,52.597,28.49,99.716,78.53,99.716c50.406,0,78.896-46.388,78.896-102.272c0-48.945-25.569-100.081-78.531-100.081
		C3377.179,203.149,3350.882,251.729,3350.882,305.787z"/>
</g>
<g>
	<line class="st0" x1="4554.143" y1="1387.125" x2="4929.143" y2="1603.632"/>
	<polygon class="st0" points="4554.143,1387.125 4554.142,954.113 4179.142,737.606 3804.142,954.113 3804.142,1387.125 
		4179.143,1603.631 	"/>
	<polyline class="st0" points="3804.142,954.113 3429.142,737.606 3054.143,954.113 	"/>
	<polygon class="st0" points="3054.142,1387.125 3054.142,954.113 2679.142,737.606 2304.142,954.113 2304.142,1387.125 
		2679.142,1603.631 	"/>
	<line class="st0" x1="2080.725" y1="1516.115" x2="2304.142" y2="1387.125"/>
	<line class="st0" x1="1554.142" y1="1387.125" x2="1777.56" y2="1516.115"/>
	<polygon class="st0" points="1554.142,954.113 1179.142,737.606 804.142,954.113 804.142,1387.125 1179.142,1603.631 
		1554.142,1387.125 	"/>
	<line class="st0" x1="276.814" y1="825.553" x2="54.143" y2="954.113"/>
	<line class="st0" x1="804.142" y1="954.113" x2="579.977" y2="824.691"/>
	<line class="st0" x1="4179.143" y1="1517.029" x2="4479.143" y2="1343.824"/>
	<line class="st0" x1="3879.142" y1="997.414" x2="3879.142" y2="1343.824"/>
	<line class="st0" x1="4479.142" y1="997.414" x2="4179.142" y2="824.209"/>
	<line class="st0" x1="2679.142" y1="1517.029" x2="2979.143" y2="1343.824"/>
	<line class="st0" x1="2379.142" y1="997.414" x2="2379.142" y2="1343.824"/>
	<line class="st0" x1="2979.143" y1="997.414" x2="2679.142" y2="824.209"/>
	<line class="st0" x1="1479.142" y1="1343.824" x2="1479.142" y2="997.414"/>
	<line class="st0" x1="879.142" y1="1343.824" x2="1179.142" y2="1517.029"/>
	<line class="st0" x1="1179.142" y1="824.209" x2="879.142" y2="997.414"/>
	<line class="st0" x1="3392.143" y1="758.968" x2="3392.143" y2="475.469"/>
	<line class="st0" x1="3467.143" y1="759.546" x2="3467.143" y2="475.469"/>
	<polyline class="st0" points="265.143,1830.619 165.143,1830.619 165.143,77.619 265.143,77.619 	"/>
	<polyline class="st0" points="4654.143,1830.619 4754.143,1830.619 4754.143,77.619 4654.143,77.619 	"/>
</g>
</svg>
