<?xml version="1.0" encoding="utf-8"?>
<!-- Generator: Adobe Illustrator 22.1.0, SVG Export Plug-In . SVG Version: 6.00 Build 0)  -->
<svg version="1.1" id="Layer_1" xmlns="http://www.w3.org/2000/svg" xmlns:xlink="http://www.w3.org/1999/xlink" x="0px" y="0px"
	 viewBox="0 0 4000 1445" style="enable-background:new 0 0 4000 1445;" xml:space="preserve">
<style type="text/css">
	.st0{fill:none;stroke:#000000;stroke-width:14.1732;stroke-miterlimit:10;}
	.st1{fill:none;stroke:#000000;stroke-width:14.1732;stroke-miterlimit:10;stroke-dasharray:46.9413,46.9413;}
	.st2{fill:none;stroke:#000000;stroke-width:14.1732;stroke-miterlimit:10;stroke-dasharray:46.9412,46.9412;}
</style>
<g>
	<path d="M1144.281,1132.146c0,38.654-23.492,59.147-52.149,59.147c-29.657,0-50.483-22.992-50.483-56.981
		c0-35.654,22.159-58.98,52.15-58.98C1124.455,1075.332,1144.281,1098.824,1144.281,1132.146z M1057.144,1133.979
		c0,23.992,12.996,45.485,35.821,45.485c22.992,0,35.988-21.16,35.988-46.651c0-22.326-11.663-45.652-35.822-45.652
		C1069.14,1087.161,1057.144,1109.321,1057.144,1133.979z"/>
</g>
<line class="st0" x1="1777.06" y1="738.419" x2="1606.006" y2="837.177"/>
<polygon class="st0" points="1606.005,837.177 1434.951,738.419 1263.897,837.177 1263.897,1034.694 1434.951,1133.452 
	1606.005,1034.694 "/>
<line class="st0" x1="1161.986" y1="1093.532" x2="1263.897" y2="1034.694"/>
<line class="st0" x1="921.788" y1="1034.694" x2="1023.699" y2="1093.532"/>
<polygon class="st0" points="750.733,738.419 579.679,837.177 579.679,1034.694 750.733,1133.452 921.788,1034.694 921.788,837.177 
	"/>
<line class="st0" x1="1571.795" y1="1014.942" x2="1571.795" y2="856.929"/>
<line class="st0" x1="1298.108" y1="1014.942" x2="1434.951" y2="1093.949"/>
<line class="st0" x1="1434.951" y1="777.922" x2="1298.107" y2="856.929"/>
<line class="st0" x1="887.577" y1="856.929" x2="750.733" y2="777.922"/>
<line class="st0" x1="750.733" y1="1093.949" x2="887.577" y2="1014.942"/>
<line class="st0" x1="613.89" y1="856.929" x2="613.89" y2="1014.942"/>
<polyline class="st0" points="140.868,1387.518 95.253,1387.518 95.253,81.119 140.868,81.119 "/>
<polyline class="st0" points="3893.574,1387.519 3939.188,1387.519 3939.188,81.121 3893.574,81.121 "/>
<g>
	<path d="M379.751,571.119c11.945,36.762-4.065,63.512-31.32,72.367c-28.205,9.164-55.117-6.267-65.62-38.592
		c-11.018-33.91,2.849-62.941,31.371-72.209C343.339,523.212,369.454,539.428,379.751,571.119z M297.445,599.789
		c7.414,22.818,26.415,39.243,48.124,32.189c21.867-7.105,27.688-31.245,19.811-55.489c-6.899-21.233-25.199-39.813-48.175-32.348
		C294.386,551.556,289.825,576.337,297.445,599.789z"/>
</g>
<line class="st0" x1="379.224" y1="790.572" x2="339.263" y2="667.584"/>
<line class="st0" x1="411.842" y1="780.251" x2="371.799" y2="657.012"/>
<g>
	<path d="M2409.838,344.614c0-38.654,23.492-59.147,52.149-59.147c29.657,0,50.483,22.992,50.483,56.981
		c0,35.654-22.159,58.98-52.149,58.98C2429.665,401.429,2409.838,377.936,2409.838,344.614z M2496.976,342.781
		c0-23.992-12.996-45.485-35.822-45.485c-22.992,0-35.988,21.16-35.988,46.651c0,22.326,11.663,45.652,35.821,45.652
		C2484.98,389.599,2496.976,367.439,2496.976,342.781z"/>
</g>
<line class="st0" x1="1777.06" y1="738.341" x2="1948.114" y2="639.583"/>
<polygon class="st0" points="2119.169,738.341 2290.223,639.583 2290.223,442.067 2119.169,343.308 1948.115,442.067 
	1948.115,639.583 "/>
<line class="st0" x1="2392.134" y1="383.228" x2="2290.223" y2="442.067"/>
<line class="st0" x1="2632.332" y1="442.067" x2="2530.421" y2="383.228"/>
<polygon class="st0" points="2974.441,639.583 2974.441,442.067 2803.386,343.308 2632.332,442.067 2632.332,639.583 
	2803.386,738.341 "/>
<line class="st0" x1="1982.325" y1="619.831" x2="2119.169" y2="698.838"/>
<line class="st0" x1="2119.169" y1="382.811" x2="1982.325" y2="461.818"/>
<line class="st0" x1="2256.012" y1="619.831" x2="2256.012" y2="461.818"/>
<line class="st0" x1="2803.386" y1="698.838" x2="2940.23" y2="619.831"/>
<line class="st0" x1="2666.543" y1="461.818" x2="2666.543" y2="619.832"/>
<line class="st0" x1="2940.23" y1="461.818" x2="2803.386" y2="382.811"/>
<polyline class="st0" points="322.719,1000.579 392.025,1095.969 579.874,1034.933 579.874,837.417 392.025,776.381 
	322.948,871.456 "/>
<g>
	<path d="M1944.54,1048.633c-5.335,2.667-16.004,5.335-29.675,5.335c-31.675,0-55.515-20.006-55.515-56.849
		c0-35.176,23.84-59.016,58.683-59.016c14.004,0,22.84,3.001,26.674,5.001l-3.501,11.836c-5.502-2.667-13.337-4.668-22.673-4.668
		c-26.34,0-43.845,16.838-43.845,46.346c0,27.508,15.838,45.179,43.178,45.179c8.836,0,17.838-1.834,23.673-4.668L1944.54,1048.633z
		"/>
	<path d="M1977.215,939.936v47.013h54.348v-47.013h14.671v112.364h-14.671V999.62h-54.348v52.681h-14.504V939.936H1977.215z"/>
	<path d="M2065.614,1070.119c2.605,1.667,8.648,4.272,15.004,4.272c11.774,0,15.421-7.502,15.317-13.128
		c-0.104-9.482-8.648-13.545-17.505-13.545h-5.106v-6.877h5.106c6.668,0,15.108-3.438,15.108-11.461
		c0-5.418-3.439-10.211-11.878-10.211c-5.418,0-10.628,2.396-13.545,4.48l-2.397-6.668c3.543-2.605,10.419-5.21,17.713-5.21
		c13.337,0,19.38,7.919,19.38,16.15c0,6.981-4.168,12.92-12.503,15.942v0.208c8.336,1.667,15.108,7.919,15.108,17.4
		c0,10.836-8.44,20.318-24.694,20.318c-7.606,0-14.275-2.396-17.609-4.584L2065.614,1070.119z"/>
</g>
<g>
	<path d="M233.712,992.151V879.939h15.816l35.961,56.772c8.324,13.152,14.817,24.973,20.145,36.461l0.333-0.167
		c-1.332-14.984-1.665-28.636-1.665-46.117v-46.949h13.652v112.212h-14.651l-35.628-56.938
		c-7.825-12.487-15.317-25.306-20.977-37.459l-0.5,0.166c0.833,14.151,1.165,27.637,1.165,46.283v47.948H233.712z"/>
</g>
<g>
	<g>
		<line class="st0" x1="217.044" y1="935.935" x2="188.697" y2="935.935"/>
		<polyline class="st1" points="141.756,935.935 137.218,935.935 71.344,935.935 		"/>
		<line class="st0" x1="47.873" y1="935.935" x2="19.527" y2="935.935"/>
	</g>
</g>
<polyline class="st0" points="3231.59,605.101 3162.284,700.492 2974.435,639.456 2974.435,441.939 3162.284,380.903 
	3231.361,475.978 "/>
<line class="st0" x1="3358.248" y1="540.458" x2="3475.939" y2="540.458"/>
<g>
	<path d="M3237.884,596.673V484.461h15.816l35.961,56.772c8.324,13.152,14.817,24.973,20.145,36.461l0.333-0.167
		c-1.332-14.984-1.665-28.636-1.665-46.117v-46.949h13.652v112.212h-14.651l-35.628-56.938
		c-7.825-12.487-15.317-25.306-20.977-37.459l-0.5,0.166c0.833,14.151,1.166,27.637,1.166,46.283v47.948H3237.884z"/>
</g>
<line class="st0" x1="1777.172" y1="738.306" x2="1875.931" y2="909.361"/>
<line class="st0" x1="1678.189" y1="567.252" x2="1776.947" y2="738.306"/>
<g>
	<path d="M1673.59,523.154c-5.335,2.667-16.004,5.335-29.675,5.335c-31.675,0-55.515-20.006-55.515-56.849
		c0-35.176,23.84-59.016,58.683-59.016c14.004,0,22.84,3.001,26.674,5.001l-3.501,11.837c-5.501-2.667-13.337-4.668-22.673-4.668
		c-26.34,0-43.845,16.838-43.845,46.346c0,27.508,15.838,45.179,43.178,45.179c8.836,0,17.838-1.834,23.673-4.668L1673.59,523.154z"
		/>
	<path d="M1446.718,414.457v47.013h54.348v-47.013h14.671v112.364h-14.671V474.14h-54.348v52.681h-14.504V414.457H1446.718z"/>
	<path d="M1535.117,544.639c2.605,1.667,8.648,4.272,15.004,4.272c11.774,0,15.421-7.502,15.317-13.128
		c-0.104-9.482-8.648-13.545-17.505-13.545h-5.106v-6.877h5.106c6.668,0,15.108-3.438,15.108-11.461
		c0-5.418-3.439-10.211-11.878-10.211c-5.418,0-10.628,2.396-13.545,4.48l-2.397-6.668c3.543-2.605,10.42-5.21,17.713-5.21
		c13.337,0,19.38,7.919,19.38,16.15c0,6.981-4.168,12.92-12.503,15.942v0.208c8.335,1.667,15.108,7.919,15.108,17.4
		c0,10.836-8.44,20.318-24.694,20.318c-7.606,0-14.275-2.396-17.609-4.584L1535.117,544.639z"/>
</g>
<g>
	<g>
		<line class="st0" x1="3969.527" y1="1053.76" x2="3955.354" y2="1029.211"/>
		<line class="st2" x1="3931.883" y1="988.559" x2="3896.677" y2="927.581"/>
		<polyline class="st0" points="3884.942,907.254 3870.769,882.706 3871,882.706 3856.826,858.157 		"/>
		<line class="st2" x1="3833.356" y1="817.505" x2="3798.15" y2="756.526"/>
		<line class="st0" x1="3786.415" y1="736.2" x2="3772.241" y2="711.651"/>
	</g>
</g>
<g>
	<path d="M314.182,1339.217c-28.522-9.267-42.389-38.299-31.371-72.209c10.503-32.325,37.415-47.756,65.62-38.592
		c27.255,8.856,43.264,35.605,31.32,72.367C369.454,1332.474,343.339,1348.69,314.182,1339.217z M317.204,1327.76
		c22.976,7.465,41.276-11.114,48.175-32.348c7.877-24.244,2.056-48.384-19.811-55.489c-21.709-7.054-40.71,9.371-48.124,32.189
		C289.825,1295.565,294.386,1320.346,317.204,1327.76z"/>
</g>
<line class="st0" x1="379.224" y1="1081.33" x2="339.263" y2="1204.318"/>
<line class="st0" x1="411.842" y1="1091.651" x2="371.799" y2="1214.889"/>
<g>
	<path d="M3238.587,137.664c28.522,9.267,42.389,38.299,31.371,72.209c-10.503,32.325-37.415,47.756-65.62,38.592
		c-27.255-8.856-43.264-35.605-31.32-72.367C3183.315,144.406,3209.431,128.19,3238.587,137.664z M3235.565,149.12
		c-22.976-7.465-41.276,11.114-48.175,32.348c-7.877,24.244-2.056,48.384,19.811,55.489c21.709,7.054,40.71-9.372,48.124-32.189
		C3262.944,181.316,3258.383,156.534,3235.565,149.12z"/>
</g>
<line class="st0" x1="3173.546" y1="395.55" x2="3213.507" y2="272.563"/>
<line class="st0" x1="3140.928" y1="385.229" x2="3180.97" y2="261.991"/>
<g>
	<path d="M3173.018,905.761c-11.945-36.762,4.065-63.512,31.32-72.367c28.205-9.164,55.117,6.267,65.62,38.592
		c11.018,33.91-2.849,62.941-31.371,72.209C3209.431,953.668,3183.315,937.453,3173.018,905.761z M3255.324,877.091
		c-7.414-22.818-26.415-39.243-48.124-32.189c-21.867,7.105-27.688,31.245-19.811,55.489c6.899,21.233,25.199,39.813,48.175,32.348
		C3258.383,925.324,3262.944,900.543,3255.324,877.091z"/>
</g>
<line class="st0" x1="3173.546" y1="686.308" x2="3213.507" y2="809.296"/>
<line class="st0" x1="3140.928" y1="696.63" x2="3180.97" y2="819.868"/>
<polygon class="st0" points="3870.772,540.825 3772.013,369.771 3574.497,369.771 3475.739,540.825 3574.497,711.879 
	3772.013,711.879 "/>
<line class="st0" x1="3752.262" y1="677.668" x2="3831.268" y2="540.825"/>
<line class="st0" x1="3515.242" y1="540.825" x2="3594.248" y2="677.668"/>
<line class="st0" x1="3752.262" y1="403.981" x2="3594.248" y2="403.981"/>
</svg>
