<?xml version="1.0" encoding="utf-8"?>
<!-- Generator: Adobe Illustrator 22.1.0, SVG Export Plug-In . SVG Version: 6.00 Build 0)  -->
<svg version="1.1" id="pet" xmlns="http://www.w3.org/2000/svg" xmlns:xlink="http://www.w3.org/1999/xlink" x="0px" y="0px"
	 viewBox="0 0 3818.73 1660.599" style="enable-background:new 0 0 3818.73 1660.599;" xml:space="preserve">
<style type="text/css">
	.st0{fill:none;stroke:#000000;stroke-width:28.3465;stroke-miterlimit:10;}
</style>
<g>
	<path d="M2668.254,1309.187c-65.747,0-114.326-51.136-114.326-129.302c0-74.513,45.657-124.919,110.673-124.919
		c62.825,0,114.327,44.927,114.327,129.667C2778.928,1257.685,2735.462,1309.187,2668.254,1309.187z M2666.793,1283.253
		c52.963,0,78.531-51.136,78.531-100.081c0-55.885-28.49-102.272-78.896-102.272c-50.041,0-78.531,47.119-78.531,99.716
		C2587.897,1234.673,2614.196,1283.253,2666.793,1283.253z"/>
</g>
<g>
	<path d="M2665.335,304.341c65.747,0,114.327,51.136,114.327,129.302c0,74.513-45.657,124.919-110.673,124.919
		c-62.824,0-114.327-44.927-114.327-129.667C2554.662,355.843,2598.128,304.341,2665.335,304.341z M2666.797,330.275
		c-52.963,0-78.531,51.136-78.531,100.081c0,55.884,28.49,102.272,78.896,102.272c50.041,0,78.53-47.118,78.53-99.716
		C2745.692,378.854,2719.395,330.275,2666.797,330.275z"/>
</g>
<polygon class="st0" points="1801.052,432.342 1368.039,432.342 1151.533,807.342 1368.039,1182.342 1801.052,1182.342 
	2017.558,807.342 "/>
<polyline class="st0" points="2579.284,1029.68 2450.725,807.008 2017.712,807.008 "/>
<line class="st0" x1="1930.956" y1="807.342" x2="1757.75" y2="507.342"/>
<line class="st0" x1="1411.34" y1="1107.342" x2="1757.75" y2="1107.342"/>
<line class="st0" x1="1411.34" y1="507.341" x2="1238.135" y2="807.342"/>
<line class="st0" x1="2472.087" y1="844.008" x2="2613.836" y2="598.491"/>
<line class="st0" x1="2406.846" y1="807.008" x2="2548.884" y2="560.991"/>
<polyline class="st0" points="284.143,1581.619 184.143,1581.619 184.143,78.619 284.143,78.619 "/>
<polyline class="st0" points="3445.618,1581.619 3545.618,1581.619 3545.618,78.619 3445.618,78.619 "/>
<polyline class="st0" points="3749.762,807.008 3316.75,807.008 3100.244,1182.008 2841.4,1182.008 "/>
<g>
	<path d="M390.023,1184.825c0-84.74,51.502-129.667,114.326-129.667c65.016,0,110.674,50.406,110.674,124.919
		c0,78.166-48.579,129.302-114.326,129.302C433.489,1309.379,390.023,1257.877,390.023,1184.825z M581.053,1180.807
		c0-52.597-28.49-99.716-78.531-99.716c-50.406,0-78.896,46.388-78.896,102.272c0,48.945,25.568,100.081,78.531,100.081
		C554.755,1283.445,581.053,1234.865,581.053,1180.807z"/>
</g>
<g>
	<path d="M614.428,429.139c0,84.74-51.502,129.667-114.327,129.667c-65.016,0-110.673-50.406-110.673-124.919
		c0-78.165,48.58-129.302,114.327-129.302C570.963,304.586,614.428,356.087,614.428,429.139z M423.399,433.157
		c0,52.597,28.49,99.716,78.53,99.716c50.406,0,78.896-46.388,78.896-102.272c0-48.945-25.569-100.081-78.531-100.081
		C449.696,330.519,423.399,379.099,423.399,433.157z"/>
</g>
<polyline class="st0" points="589.807,1029.924 718.366,807.253 1151.379,807.253 "/>
<line class="st0" x1="697.004" y1="844.253" x2="555.255" y2="598.735"/>
<line class="st0" x1="762.245" y1="807.253" x2="620.206" y2="561.235"/>
<line class="st0" x1="68.847" y1="1182.253" x2="327.691" y2="1182.253"/>
</svg>
