<?xml version="1.0" encoding="utf-8"?>
<!-- Generator: Adobe Illustrator 22.1.0, SVG Export Plug-In . SVG Version: 6.00 Build 0)  -->
<svg version="1.1" id="pla" xmlns="http://www.w3.org/2000/svg" xmlns:xlink="http://www.w3.org/1999/xlink" x="0px" y="0px"
	 viewBox="0 0 1829.925 1748.108" style="enable-background:new 0 0 1829.925 1748.108;" xml:space="preserve">
<style type="text/css">
	.st0{fill:none;stroke:#000000;stroke-width:28.3465;stroke-miterlimit:10;}
</style>
<g>
	<path d="M1140.395,283.773c0,84.74-51.502,129.667-114.327,129.667c-65.016,0-110.673-50.406-110.673-124.919
		c0-78.165,48.58-129.302,114.327-129.302C1096.93,159.22,1140.395,210.722,1140.395,283.773z M949.366,287.791
		c0,52.597,28.49,99.716,78.53,99.716c50.406,0,78.896-46.388,78.896-102.272c0-48.945-25.569-100.081-78.531-100.081
		C975.663,185.153,949.366,233.733,949.366,287.791z"/>
</g>
<line class="st0" x1="1777.626" y1="719.61" x2="1553.979" y2="848.733"/>
<polyline class="st0" points="1251.267,848.729 1027.626,719.61 652.626,936.117 "/>
<line class="st0" x1="652.626" y1="1194.129" x2="652.626" y2="936.117"/>
<line class="st0" x1="652.626" y1="936.117" x2="277.626" y2="719.61"/>
<line class="st0" x1="990.626" y1="740.972" x2="990.626" y2="457.473"/>
<line class="st0" x1="1065.626" y1="741.55" x2="1065.626" y2="457.473"/>
<polyline class="st0" points="377.626,1688.873 277.626,1688.873 277.626,59.623 377.626,59.623 "/>
<polyline class="st0" points="1553.626,1688.873 1653.626,1688.873 1653.626,59.623 1553.626,59.623 "/>
<g>
	<path d="M1515.396,933.773c0,84.74-51.502,129.668-114.326,129.668c-65.016,0-110.674-50.406-110.674-124.92
		c0-78.165,48.579-129.302,114.327-129.302C1471.93,809.219,1515.396,860.721,1515.396,933.773z M1324.365,937.791
		c0,52.597,28.49,99.716,78.531,99.716c50.406,0,78.896-46.388,78.896-102.273c0-48.944-25.568-100.082-78.531-100.082
		C1350.663,835.153,1324.365,883.733,1324.365,937.791z"/>
</g>
<line class="st0" x1="53.979" y1="590.488" x2="277.626" y2="719.61"/>
<g>
	<path d="M712.942,1490.385c-11.695,5.848-35.086,11.695-65.056,11.695c-69.442,0-121.705-43.858-121.705-124.629
		c0-77.116,52.264-129.38,128.649-129.38c30.701,0,50.071,6.579,58.477,10.964l-7.675,25.949
		c-12.061-5.847-29.239-10.233-49.706-10.233c-57.746,0-96.121,36.913-96.121,101.604c0,60.304,34.721,99.046,94.66,99.046
		c19.371,0,39.107-4.02,51.898-10.234L712.942,1490.385z"/>
	<path d="M784.573,1252.091v103.066H903.72v-103.066h32.162v246.334H903.72v-115.492H784.573v115.492h-31.797v-246.334H784.573z"/>
	<path d="M978.369,1537.487c5.71,3.655,18.959,9.365,32.893,9.365c25.811,0,33.806-16.446,33.578-28.781
		c-0.229-20.787-18.959-29.695-38.375-29.695h-11.193V1473.3h11.193c14.619,0,33.121-7.538,33.121-25.127
		c0-11.878-7.538-22.385-26.041-22.385c-11.878,0-23.299,5.254-29.695,9.822l-5.254-14.619c7.767-5.71,22.842-11.421,38.832-11.421
		c29.238,0,42.487,17.36,42.487,35.406c0,15.304-9.137,28.324-27.411,34.949v0.457c18.274,3.655,33.121,17.36,33.121,38.146
		c0,23.756-18.502,44.543-54.136,44.543c-16.675,0-31.294-5.254-38.604-10.05L978.369,1537.487z"/>
</g>
</svg>
