<?xml version="1.0" encoding="utf-8"?>
<!-- Generator: Adobe Illustrator 22.1.0, SVG Export Plug-In . SVG Version: 6.00 Build 0)  -->
<svg version="1.1" id="polycarbonate" xmlns="http://www.w3.org/2000/svg" xmlns:xlink="http://www.w3.org/1999/xlink" x="0px"
	 y="0px" viewBox="0 0 4218.302 1788.41" style="enable-background:new 0 0 4218.302 1788.41;" xml:space="preserve">
<style type="text/css">
	.st0{fill:none;stroke:#000000;stroke-width:28.3465;stroke-miterlimit:10;}
	.st1{fill:none;stroke:#000000;stroke-width:28.3465;stroke-miterlimit:10;stroke-dasharray:28.3465;}
	.st2{fill:none;stroke:#000000;stroke-width:28.3465;stroke-linejoin:bevel;stroke-miterlimit:10;}
</style>
<g>
	<path d="M3540.042,1486.494c0,84.74-51.502,129.668-114.326,129.668c-65.016,0-110.674-50.406-110.674-124.92
		c0-78.165,48.579-129.302,114.326-129.302C3496.576,1361.94,3540.042,1413.443,3540.042,1486.494z M3349.011,1490.513
		c0,52.597,28.49,99.716,78.531,99.716c50.406,0,78.896-46.388,78.896-102.273c0-48.944-25.568-100.082-78.531-100.082
		C3375.31,1387.874,3349.011,1436.454,3349.011,1490.513z"/>
</g>
<line class="st0" x1="3578.855" y1="1401.841" x2="3802.272" y2="1272.85"/>
<line class="st0" x1="3052.272" y1="1272.85" x2="3275.69" y2="1401.841"/>
<polygon class="st0" points="3052.272,839.838 2677.272,623.332 2302.272,839.838 2302.272,1272.85 2677.272,1489.357 
	3052.272,1272.85 "/>
<line class="st0" x1="2977.272" y1="1229.549" x2="2977.272" y2="883.139"/>
<line class="st0" x1="2377.272" y1="1229.549" x2="2677.272" y2="1402.755"/>
<line class="st0" x1="2677.272" y1="709.934" x2="2377.272" y2="883.139"/>
<polyline class="st0" points="184.772,1716.344 84.772,1716.344 84.772,61.344 184.772,61.344 "/>
<polyline class="st0" points="3981.772,1716.344 4081.772,1716.344 4081.772,61.344 3981.772,61.344 "/>
<g>
	<path d="M3915.042,835.494c0,84.74-51.502,129.667-114.327,129.667c-65.016,0-110.673-50.406-110.673-124.919
		c0-78.165,48.58-129.302,114.327-129.302C3871.576,710.941,3915.042,762.443,3915.042,835.494z M3724.011,839.512
		c0,52.597,28.49,99.716,78.531,99.716c50.406,0,78.896-46.388,78.896-102.272c0-48.945-25.569-100.081-78.531-100.081
		C3750.309,736.875,3724.011,785.454,3724.011,839.512z"/>
</g>
<line class="st1" x1="4177.272" y1="1487.838" x2="3802.272" y2="1271.331"/>
<line class="st0" x1="3765.272" y1="1292.693" x2="3765.272" y2="1009.194"/>
<line class="st0" x1="3840.272" y1="1293.271" x2="3840.272" y2="1009.194"/>
<polygon class="st0" points="1176.272,623.331 801.272,839.838 801.272,1272.85 1176.272,1489.357 1551.272,1272.85 
	1551.272,839.838 "/>
<line class="st0" x1="1476.272" y1="883.139" x2="1176.272" y2="709.934"/>
<line class="st0" x1="1176.272" y1="1402.755" x2="1476.272" y2="1229.549"/>
<line class="st0" x1="876.272" y1="883.139" x2="876.272" y2="1229.549"/>
<g>
	<path d="M539.042,1486.494c0,84.74-51.502,129.668-114.326,129.668c-65.016,0-110.674-50.406-110.674-124.92
		c0-78.165,48.579-129.302,114.326-129.302C495.576,1361.94,539.042,1413.443,539.042,1486.494z M348.011,1490.513
		c0,52.597,28.49,99.716,78.531,99.716c50.406,0,78.896-46.388,78.896-102.273c0-48.944-25.568-100.082-78.531-100.082
		C374.31,1387.874,348.011,1436.454,348.011,1490.513z"/>
</g>
<line class="st0" x1="577.855" y1="1401.841" x2="801.272" y2="1272.85"/>
<line class="st1" x1="51.272" y1="1272.85" x2="274.69" y2="1401.841"/>
<polyline class="st0" points="2302.272,839.838 1927.272,623.331 1552.272,839.838 "/>
<polyline class="st2" points="1726.772,173.344 1926.772,623.344 2126.772,173.344 "/>
</svg>
