<?xml version="1.0" encoding="utf-8"?>
<!-- Generator: Adobe Illustrator 22.1.0, SVG Export Plug-In . SVG Version: 6.00 Build 0)  -->
<svg version="1.1" id="Layer_1" xmlns="http://www.w3.org/2000/svg" xmlns:xlink="http://www.w3.org/1999/xlink" x="0px" y="0px"
	 viewBox="0 0 4000 1933.667" style="enable-background:new 0 0 4000 1933.667;" xml:space="preserve">
<style type="text/css">
	.st0{font-family:'TimesNewRomanPS-ItalicMT';}
	.st1{font-size:497.2024px;}
	.st2{font-size:248.6012px;}
	.st3{font-family:'TimesNewRomanPS-BoldMT';}
	.st4{font-size:186.4509px;}
	.st5{font-family:'TimesNewRomanPSMT';}
	.st6{fill:none;}
	.st7{font-size:124.3006px;}
	.st8{letter-spacing:18;}
	.st9{letter-spacing:-2;}
	.st10{letter-spacing:53;}
</style>
<text transform="matrix(1 0 0 1 30.6504 385.7192)" class="st0 st1">Polymer</text>
<text transform="matrix(1 0 0 1 1893.6436 386.1108)" class="st0 st2">/ˈpɒlɪmə/</text>
<text transform="matrix(1 0 0 1 30.5386 735.7202)"><tspan x="0" y="0" class="st3 st4">noun</tspan><tspan x="404.311" y="0" class="st5 st4">: </tspan><tspan x="502.726" y="0" class="st0 st4">polymer</tspan><tspan x="1113.698" y="0" class="st5 st4">; </tspan><tspan x="1212.112" y="0" class="st3 st4">plural noun</tspan><tspan x="2150.011" y="0" class="st5 st4">: </tspan><tspan x="2248.426" y="0" class="st0 st4">polymers</tspan></text>
<rect x="531.666" y="957.772" class="st6" width="3436.982" height="467.763"/>
<text transform="matrix(1 0 0 1 531.666 1044.1597)"><tspan x="0" y="0" class="st3 st7">1</tspan><tspan x="62.15" y="0" class="st5 st7">:</tspan><tspan x="96.685" y="0" class="st5 st7 st8"> </tspan><tspan x="146.191" y="0" class="st5 st7">a</tspan><tspan x="201.361" y="0" class="st5 st7 st8"> </tspan><tspan x="250.868" y="0" class="st5 st7">substance</tspan><tspan x="734.111" y="0" class="st5 st7 st8"> </tspan><tspan x="783.617" y="0" class="st5 st7">which</tspan><tspan x="1087.389" y="0" class="st5 st7 st8"> </tspan><tspan x="1136.895" y="0" class="st5 st7">has</tspan><tspan x="1302.589" y="0" class="st5 st7 st8"> </tspan><tspan x="1352.095" y="0" class="st5 st7">a</tspan><tspan x="1407.265" y="0" class="st5 st7 st8"> </tspan><tspan x="1456.771" y="0" class="st5 st7">molecular</tspan><tspan x="1953.731" y="0" class="st5 st7 st8"> </tspan><tspan x="2003.237" y="0" class="st5 st7">structure</tspan><tspan x="2438.107" y="0" class="st5 st7 st8"> </tspan><tspan x="2487.613" y="0" class="st5 st7">built</tspan><tspan x="2715.518" y="0" class="st5 st7 st8"> </tspan><tspan x="2765.024" y="0" class="st5 st7">up</tspan><tspan x="2889.325" y="0" class="st5 st7 st8"> </tspan><tspan x="2938.831" y="0" class="st5 st7">chiefly</tspan><tspan x="3283.935" y="0" class="st5 st7 st8"> </tspan><tspan x="3333.441" y="0" class="st5 st7">or </tspan><tspan x="0" y="149.161" class="st5 st7">completely</tspan><tspan x="552.251" y="149.161" class="st5 st7 st9"> </tspan><tspan x="580.81" y="149.161" class="st5 st7">from</tspan><tspan x="822.432" y="149.161" class="st5 st7 st9"> </tspan><tspan x="850.99" y="149.161" class="st5 st7">a</tspan><tspan x="906.161" y="149.161" class="st5 st7 st9"> </tspan><tspan x="934.719" y="149.161" class="st5 st7">large</tspan><tspan x="1183.138" y="149.161" class="st5 st7 st9"> </tspan><tspan x="1211.697" y="149.161" class="st5 st7">number</tspan><tspan x="1591.396" y="149.161" class="st5 st7 st9"> </tspan><tspan x="1619.955" y="149.161" class="st5 st7">of</tspan><tspan x="1723.499" y="149.161" class="st5 st7 st9"> </tspan><tspan x="1752.057" y="149.161" class="st5 st7">similar</tspan><tspan x="2097.283" y="149.161" class="st5 st7 st9"> </tspan><tspan x="2125.841" y="149.161" class="st5 st7">units</tspan><tspan x="2367.584" y="149.161" class="st5 st7 st9"> </tspan><tspan x="2396.143" y="149.161" class="st5 st7">bonded</tspan><tspan x="2762.065" y="149.161" class="st5 st7 st9"> </tspan><tspan x="2790.624" y="149.161" class="st5 st7">together,</tspan><tspan x="3228.955" y="149.161" class="st5 st7 st9"> </tspan><tspan x="3257.513" y="149.161" class="st5 st7">e.g. </tspan><tspan x="0" y="298.322" class="st5 st7">many</tspan><tspan x="276.156" y="298.322" class="st5 st7 st10"> </tspan><tspan x="361.031" y="298.322" class="st5 st7">synthetic</tspan><tspan x="809.8" y="298.322" class="st5 st7 st10"> </tspan><tspan x="894.674" y="298.322" class="st5 st7">organic</tspan><tspan x="1267.394" y="298.322" class="st5 st7 st10"> </tspan><tspan x="1352.268" y="298.322" class="st5 st7">materials</tspan><tspan x="1807.834" y="298.322" class="st5 st7 st10"> </tspan><tspan x="1892.708" y="298.322" class="st5 st7">used</tspan><tspan x="2120.553" y="298.322" class="st5 st7 st10"> </tspan><tspan x="2205.427" y="298.322" class="st5 st7">as</tspan><tspan x="2308.971" y="298.322" class="st5 st7 st10"> </tspan><tspan x="2393.845" y="298.322" class="st5 st7">plastics</tspan><tspan x="2766.687" y="298.322" class="st5 st7 st10"> </tspan><tspan x="2851.561" y="298.322" class="st5 st7">and</tspan><tspan x="3031.032" y="298.322" class="st5 st7 st10"> </tspan><tspan x="3115.906" y="298.322" class="st5 st7">resins.</tspan></text>
<rect x="531.666" y="1475.207" class="st6" width="3436.982" height="259.912"/>
<text transform="matrix(1 0 0 1 531.666 1561.5952)"><tspan x="0" y="0" class="st3 st7">2</tspan><tspan x="62.15" y="0" class="st5 st7">: a very large molecule made from many smaller molecules called </tspan><tspan x="0" y="149.161" class="st5 st7">monomers.</tspan></text>
<rect x="531.666" y="1784.792" class="st6" width="3436.982" height="123.976"/>
<text transform="matrix(1 0 0 1 531.666 1871.1797)"><tspan x="0" y="0" class="st3 st7">3</tspan><tspan x="62.15" y="0" class="st5 st7">: a product of polymerization.</tspan></text>
</svg>
