<?xml version="1.0" encoding="utf-8"?>
<!-- Generator: Adobe Illustrator 22.1.0, SVG Export Plug-In . SVG Version: 6.00 Build 0)  -->
<svg version="1.1" id="Layer_1" xmlns="http://www.w3.org/2000/svg" xmlns:xlink="http://www.w3.org/1999/xlink" x="0px" y="0px"
	 viewBox="0 0 4000 3333.667" style="enable-background:new 0 0 4000 3333.667;" xml:space="preserve">
<style type="text/css">
	.st0{fill:#020203;}
	.st1{fill:#E52521;}
</style>
<g>
	<path class="st0" d="M386.224,487.293c0,15.841-5.091,28.849-15.273,39.031s-23.198,15.273-39.032,15.273H153.004v301.101H85.608
		V83.885h246.312c15.834,0,28.85,5.015,39.032,15.031c10.182,10.023,15.273,22.956,15.273,38.789V487.293z M318.828,481.474V143.523
		H153.004v337.951H318.828z"/>
	<path class="st0" d="M731.933,526.082h-63.517v-97.458l-118.792,3.879v410.196h-64.487V370.925h64.487v13.091
		c21.334-3.228,42.827-6.622,64.487-10.182c25.857-3.879,47.35-5.818,64.487-5.818c35.554,0,53.335,17.622,53.335,52.85V526.082z"/>
	<path class="st0" d="M882.241,267.649h-65.457v-81.457h65.457V267.649z M881.271,842.698h-63.518V370.925h63.518V842.698z"/>
	<path class="st0" d="M1261.89,842.698h-64.487V428.624l-142.065,3.879v410.196h-64.487V370.925h64.487v13.091
		c25.213-3.228,50.585-6.622,76.124-10.182c31.031-3.879,56.563-5.818,76.609-5.818c35.88,0,53.82,17.622,53.82,52.85V842.698z"/>
	<path class="st0" d="M1535.839,842.698H1444.2c-36.206,0-54.305-18.258-54.305-54.79V427.654h-56.729v-56.729h56.729V224.011
		h63.517v146.914h82.427v56.729h-82.427v358.315h82.427V842.698z"/>
	<path class="st0" d="M2313.224,842.698h-110.064V445.594l-104.246,1.939v395.165h-110.549V445.594l-104.246,1.939v395.165h-111.034
		V352.985h111.034v17.94c25.857-4.197,51.555-8.402,77.094-12.606c31.349-4.849,57.374-7.273,78.063-7.273
		c25.531,0,42.017,7.273,49.456,21.819c27.153-4.197,54.306-8.561,81.458-13.091c35.88-5.818,63.351-8.728,82.427-8.728
		c40.403,0,60.608,19.879,60.608,59.638V842.698z"/>
	<path class="st0" d="M2709.357,782.091c0,40.41-20.849,60.608-62.547,60.608h-191.521c-41.699,0-62.548-20.198-62.548-60.608
		V413.593c0-40.403,20.849-60.608,62.548-60.608h191.521c41.698,0,62.547,20.205,62.547,60.608v179.885l-30.546,30.547h-179.885
		v137.216h104.246v-81.457h106.185V782.091z M2603.173,551.779V434.442h-104.246v117.337H2603.173z"/>
	<path class="st0" d="M3038.242,842.698h-63.518V83.885h63.518V842.698z"/>
	<path class="st0" d="M3216.187,267.649h-65.456v-81.457h65.456V267.649z M3215.217,842.698H3151.7V370.925h63.517V842.698z"/>
	<path class="st0" d="M3589.533,842.698h-70.306l-129.944-240.493v240.493h-64.486V83.885h64.486v481.956L3510.5,370.925h69.336
		v1.939l-137.217,208.492L3589.533,842.698z"/>
	<path class="st0" d="M3921.181,787.909c0,36.531-18.107,54.79-54.306,54.79h-155.156c-36.206,0-54.305-18.258-54.305-54.79V425.715
		c0-36.524,18.099-54.79,54.305-54.79h155.156c36.198,0,54.306,18.266,54.306,54.79v169.703l-21.819,22.789h-179.4v170.672h138.672
		v-86.306h62.548V787.909z M3858.633,566.81V424.745h-138.672V566.81H3858.633z"/>
	<path class="st0" d="M348.89,1979.512c0,36.531-18.266,54.79-54.79,54.79H132.155c-36.206,0-54.305-18.259-54.305-54.79v-362.194
		c0-36.524,18.099-54.79,54.305-54.79H294.1c36.524,0,54.79,18.266,54.79,54.79V1979.512z M284.403,1977.573v-358.315H142.337
		v358.315H284.403z"/>
	<path class="st0" d="M725.145,2034.302h-64.487v-414.075l-142.065,3.879v410.196h-64.487v-471.773h64.487v13.091
		c25.213-3.228,50.585-6.622,76.124-10.182c31.031-3.879,56.563-5.818,76.609-5.818c35.88,0,53.82,17.622,53.82,52.85V2034.302z"/>
	<path class="st0" d="M1093.157,1979.512c0,36.531-18.106,54.79-54.305,54.79H883.695c-36.206,0-54.305-18.259-54.305-54.79
		v-362.194c0-36.524,18.099-54.79,54.305-54.79h155.157c36.198,0,54.305,18.266,54.305,54.79v169.703l-21.819,22.789h-179.4v170.673
		h138.671v-86.307h62.547V1979.512z M1030.609,1758.415v-142.066H891.938v142.066H1030.609z"/>
	<path class="st0" d="M1866.177,1979.512c0,36.531-18.266,54.79-54.79,54.79h-161.945c-36.206,0-54.305-18.259-54.305-54.79
		v-362.194c0-36.524,18.099-54.79,54.305-54.79h161.945c36.524,0,54.79,18.266,54.79,54.79V1979.512z M1801.69,1977.573v-358.315
		h-142.065v358.315H1801.69z"/>
	<path class="st0" d="M2149.823,1332.218h-91.154v230.311h80.487v56.729h-80.487v415.044h-63.518v-415.044h-54.79v-56.729h54.79
		v-232.25c0-36.524,18.099-54.79,54.305-54.79h100.367V1332.218z"/>
	<path class="st0" d="M2868.539,1562.529l-113.459,467.895l-47.031,182.794h-63.518l47.517-182.794l-116.367-467.895h66.427
		l80.487,371.406l81.457-371.406H2868.539z"/>
	<path class="st0" d="M3218.611,1979.512c0,36.531-18.266,54.79-54.791,54.79h-161.943c-36.206,0-54.306-18.259-54.306-54.79
		v-362.194c0-36.524,18.1-54.79,54.306-54.79h161.943c36.525,0,54.791,18.266,54.791,54.79V1979.512z M3154.123,1977.573v-358.315
		h-142.064v358.315H3154.123z"/>
	<path class="st0" d="M3593.896,2034.302h-63.518v-13.091c-25.864,3.561-51.562,6.954-77.093,10.182
		c-31.032,3.879-56.729,5.818-77.094,5.818c-34.91,0-52.365-17.455-52.365-52.365v-422.317h63.517v414.075l143.035-3.879v-410.196
		h63.518V2034.302z"/>
	<path class="st0" d="M3945.908,1717.686h-63.518v-97.458l-118.792,3.879v410.196h-64.486v-471.773h64.486v13.091
		c21.334-3.228,42.827-6.622,64.487-10.182c25.857-3.879,47.351-5.818,64.487-5.818c35.554,0,53.335,17.622,53.335,52.85V1717.686z"
		/>
	<path class="st0" d="M256.281,2523.821h-91.155v230.312h80.487v56.729h-80.487v415.044h-63.517v-415.044h-54.79v-56.729h54.79
		v-232.251c0-36.523,18.099-54.789,54.305-54.789h100.367V2523.821z"/>
	<path class="st0" d="M560.776,2909.289h-63.517v-97.457l-118.792,3.879v410.195h-64.487v-471.773h64.487v13.091
		c21.334-3.227,42.827-6.621,64.487-10.182c25.857-3.879,47.35-5.818,64.487-5.818c35.554,0,53.335,17.621,53.335,52.851V2909.289z"
		/>
	<path class="st0" d="M906.484,3171.116c0,36.532-18.106,54.79-54.305,54.79H697.023c-36.206,0-54.305-18.258-54.305-54.79v-362.193
		c0-36.524,18.099-54.79,54.305-54.79H852.18c36.198,0,54.305,18.266,54.305,54.79v169.702l-21.819,22.789h-179.4v170.672h138.671
		v-86.306h62.547V3171.116z M843.937,2950.018v-142.065H705.266v142.065H843.937z"/>
	<path class="st0" d="M1284.194,3225.906h-64.487v-414.074l-142.065,3.879v410.195h-64.487v-471.773h64.487v13.091
		c25.213-3.227,50.585-6.621,76.124-10.182c31.031-3.879,56.563-5.818,76.609-5.818c35.88,0,53.82,17.621,53.82,52.851V3225.906z"/>
	<path class="st0" d="M1650.267,3171.116c0,36.532-18.106,54.79-54.305,54.79h-153.217c-36.206,0-54.305-18.258-54.305-54.79
		v-362.193c0-36.524,18.099-54.79,54.305-54.79h153.217c36.198,0,54.305,18.266,54.305,54.79v94.063h-63.517v-92.124h-133.823
		v358.314h133.823v-105.216h63.517V3171.116z"/>
	<path class="st0" d="M2026.037,3225.906h-64.487v-414.074l-142.065,3.879v410.195h-64.487v-758.813h64.487v300.131
		c25.531-3.227,51.07-6.462,76.608-9.697c32.319-4.197,57.699-6.303,76.124-6.303c35.88,0,53.82,17.621,53.82,52.851V3225.906z"/>
	<path class="st1" d="M2975.208,3171.116c0,36.532-18.266,54.79-54.79,54.79h-147.884c-36.531,0-54.79-18.258-54.79-54.79v-107.155
		h63.518v106.186h130.429v-94.063l-168.733-138.187c-16.167-12.925-24.243-29.735-24.243-50.426v-78.548
		c0-36.524,18.259-54.79,54.79-54.79h145.944c36.524,0,54.79,18.266,54.79,54.79v94.063h-62.548v-93.094h-130.429v82.427
		l170.188,138.187c15.834,12.606,23.759,29.743,23.759,51.396V3171.116z"/>
	<path class="st1" d="M3247.217,3225.906h-91.641c-36.205,0-54.305-18.258-54.305-54.79v-360.254h-56.729v-56.729h56.729v-146.914
		h63.518v146.914h82.428v56.729h-82.428v358.314h82.428V3225.906z"/>
	<path class="st1" d="M3397.039,3225.906h-63.517v-758.813h63.517V3225.906z"/>
	<path class="st1" d="M3760.689,3171.116c0,36.532-18.267,54.79-54.79,54.79h-147.884c-36.531,0-54.79-18.258-54.79-54.79v-107.155
		h63.518v106.186h130.429v-94.063l-168.733-138.187c-16.167-12.925-24.243-29.735-24.243-50.426v-78.548
		c0-36.524,18.259-54.79,54.79-54.79h145.944c36.523,0,54.79,18.266,54.79,54.79v94.063h-62.548v-93.094h-130.429v82.427
		l170.188,138.187c15.834,12.606,23.759,29.743,23.759,51.396V3171.116z"/>
	<path class="st0" d="M3929.422,3225.906h-73.699v-85.336h73.699V3225.906z"/>
</g>
</svg>
