<?xml version="1.0" encoding="utf-8"?>
<!-- Generator: Adobe Illustrator 22.1.0, SVG Export Plug-In . SVG Version: 6.00 Build 0)  -->
<svg version="1.1" id="Layer_1" xmlns="http://www.w3.org/2000/svg" xmlns:xlink="http://www.w3.org/1999/xlink" x="0px" y="0px"
	 viewBox="0 0 4000 2547.826" style="enable-background:new 0 0 4000 2547.826;" xml:space="preserve">
<style type="text/css">
	.st0{fill:none;stroke:#000000;stroke-width:5.6693;stroke-linecap:round;stroke-linejoin:round;stroke-miterlimit:10;}
</style>
<polyline class="st0" points="3672.623,42.024 3937.437,194.915 3949.457,218.198 3949.457,241.05 "/>
<path class="st0" d="M3948.337,243.521c0.723-0.417,1.129-1.313,1.131-2.491"/>
<path class="st0" d="M3913.473,263.666c3,3.837,6.646,6.429,9.982,7.098"/>
<line class="st0" x1="3923.449" y1="270.776" x2="3933.61" y2="276.635"/>
<path class="st0" d="M3936.98,280.842c-0.679-1.795-1.962-3.403-3.355-4.206"/>
<path class="st0" d="M3936.981,280.837c2.473,6.525,6.117,12.838,10.532,18.242"/>
<path class="st0" d="M3949.468,304.093c0.001-1.607-0.75-3.523-1.964-5.009"/>
<line class="st0" x1="3949.457" y1="304.113" x2="3949.457" y2="410.349"/>
<line class="st0" x1="75.476" y1="2218.9" x2="65.314" y2="2213.041"/>
<path class="st0" d="M65.329,2213.042c-1.393-0.803-2.678-0.674-3.36,0.336"/>
<path class="st0" d="M51.45,2219.465c-1.216,0.085-1.97,1.134-1.971,2.741"/>
<polyline class="st0" points="49.468,2222.208 49.468,2328.444 61.488,2349.285 326.301,2502.176 "/>
<path class="st0" d="M312.339,2329.225c-4.961-4.735-10.4-5.843-13.468-2.741c-3.069,3.101-3.068,9.704,0.002,16.35
	c3.07,6.647,8.509,11.823,13.47,12.818"/>
<path class="st0" d="M422.61,1987.897c-39.888,23.028-39.888,60.363,0,83.391c39.888,23.028,104.559,23.028,144.447,0
	c39.888-23.028,39.888-60.363,0-83.391C527.169,1964.869,462.497,1964.869,422.61,1987.897"/>
<path class="st0" d="M1024.465,1640.412c-39.888,23.028-39.888,60.363,0,83.391c39.888,23.028,104.56,23.028,144.448,0
	c39.888-23.028,39.888-60.363,0-83.391C1129.025,1617.384,1064.353,1617.384,1024.465,1640.412"/>
<path class="st0" d="M2830.032,597.979c-39.888,23.028-39.888,60.363,0,83.391c39.888,23.028,104.56,23.028,144.448,0
	s39.888-60.363,0-83.391C2934.592,574.951,2869.921,574.951,2830.032,597.979"/>
<path class="st0" d="M3431.888,250.495c-39.888,23.028-39.888,60.363,0,83.391c39.888,23.028,104.559,23.028,144.447,0
	c39.889-23.028,39.889-60.363,0-83.391C3536.448,227.467,3471.776,227.467,3431.888,250.495"/>
<line class="st0" x1="322.496" y1="2361.522" x2="312.335" y2="2355.663"/>
<path class="st0" d="M325.867,2365.729c-0.68-1.795-1.963-3.403-3.356-4.206"/>
<line class="st0" x1="3936.961" y1="280.85" x2="2847.852" y2="909.644"/>
<line class="st0" x1="1596.968" y1="1631.853" x2="325.847" y2="2365.738"/>
<path class="st0" d="M325.868,2365.724c2.473,6.525,6.117,12.838,10.532,18.242"/>
<path class="st0" d="M338.354,2388.98c0.001-1.607-0.75-3.523-1.964-5.009"/>
<line class="st0" x1="3949.457" y1="304.113" x2="2854.1" y2="936.517"/>
<line class="st0" x1="1609.464" y1="1655.116" x2="338.343" y2="2389"/>
<line class="st0" x1="338.343" y1="2495.236" x2="338.343" y2="2389"/>
<line class="st0" x1="3949.457" y1="410.349" x2="2854.1" y2="1042.753"/>
<polyline class="st0" points="1669.651,1726.61 338.343,2495.236 326.301,2502.176 "/>
<line class="st0" x1="312.335" y1="2329.223" x2="322.496" y2="2335.103"/>
<path class="st0" d="M322.503,2335.081c1.393,0.803,2.678,0.674,3.36-0.336"/>
<line class="st0" x1="336.376" y1="2328.682" x2="325.847" y2="2334.757"/>
<path class="st0" d="M336.383,2328.658c1.216-0.085,1.97-1.134,1.971-2.741"/>
<line class="st0" x1="338.343" y1="2325.937" x2="338.343" y2="2303.085"/>
<line class="st0" x1="3949.457" y1="218.198" x2="2803.251" y2="879.982"/>
<polyline class="st0" points="1609.464,1569.223 338.343,2303.085 326.301,2279.802 "/>
<line class="st0" x1="3937.437" y1="194.915" x2="2777.049" y2="864.849"/>
<polyline class="st0" points="1597.421,1545.917 326.301,2279.802 61.488,2126.911 "/>
<line class="st0" x1="3672.623" y1="42.024" x2="2505.015" y2="716.131"/>
<polyline class="st0" points="1332.608,1393.027 61.488,2126.911 49.468,2136.293 49.468,2159.145 "/>
<path class="st0" d="M49.478,2159.143c-0.001,1.607,0.75,3.523,1.964,5.009"/>
<path class="st0" d="M61.965,2182.399c-2.473-6.525-6.117-12.838-10.532-18.242"/>
<path class="st0" d="M61.966,2182.395c0.68,1.795,1.963,3.403,3.356,4.206"/>
<line class="st0" x1="65.314" y1="2186.623" x2="75.476" y2="2192.482"/>
<path class="st0" d="M75.494,2218.898c4.961,4.735,10.4,5.843,13.468,2.741c3.069-3.101,3.068-9.704-0.002-16.35
	c-3.07-6.647-8.509-11.823-13.47-12.818"/>
<polyline class="st0" points="62.591,2212.782 85.464,2199.573 50.592,2219.7 "/>
<line class="st0" x1="337.219" y1="2328.423" x2="1608.339" y2="1594.561"/>
<line class="st0" x1="2824.633" y1="892.327" x2="3948.332" y2="243.536"/>
<path class="st0" d="M1487.889,1004.528c-16.62,9.596-16.62,25.152,0,34.748c16.62,9.595,43.566,9.595,60.186,0
	c16.619-9.595,16.619-25.152,0-34.748C1531.454,994.932,1504.508,994.932,1487.889,1004.528"/>
<path class="st0" d="M1969.391,726.548c-16.62,9.596-16.62,25.152,0,34.748c16.62,9.595,43.566,9.595,60.186,0
	c16.619-9.596,16.619-25.152,0-34.748C2012.956,716.953,1986.01,716.953,1969.391,726.548"/>
<path class="st0" d="M1969.391,1282.507c-16.62,9.596-16.62,25.152,0,34.748c16.62,9.595,43.566,9.595,60.186,0
	c16.619-9.596,16.619-25.152,0-34.748C2012.956,1272.911,1986.01,1272.911,1969.391,1282.507"/>
<path class="st0" d="M2450.871,1004.528c-16.619,9.596-16.619,25.152,0,34.748c16.62,9.595,43.566,9.595,60.186,0
	c16.619-9.595,16.619-25.152,0-34.748C2494.437,994.932,2467.491,994.932,2450.871,1004.528"/>
<path class="st0" d="M1573.481,1614.669c3,3.837,6.646,6.429,9.982,7.098"/>
<path class="st0" d="M1464.449,1357.254c-4.77,8.013-3.869,21.49,2.329,34.822s16.631,24.238,26.959,28.178"/>
<path class="st0" d="M1493.907,1377.383c-11.093-16.234-26.788-24.036-36.591-18.19s-10.637,23.506-1.946,41.172
	s24.182,29.793,36.114,28.275"/>
<path class="st0" d="M1306.676,1367.345c17.585,1.691,28.07-13.285,25.575-36.53c-2.494-23.245-17.348-48.975-36.231-62.759
	s-37.096-12.193-44.424,3.881"/>
<path class="st0" d="M1655.76,1568.879c17.585,1.691,28.07-13.286,25.575-36.531c-2.494-23.245-17.348-48.975-36.231-62.759
	c-18.883-13.784-37.096-12.193-44.424,3.881"/>
<path class="st0" d="M1237.43,1299.147c-0.004,24.623,17.28,54.562,38.605,66.871c21.324,12.31,38.615,2.328,38.618-22.295
	c0.004-24.623-17.28-54.562-38.605-66.871C1254.724,1264.542,1237.434,1274.524,1237.43,1299.147"/>
<polyline class="st0" points="1244.294,1313.079 1244.683,1313.511 1245.051,1313.9 1245.418,1314.311 1245.764,1314.679 
	1246.11,1315.046 1246.434,1315.414 1247.083,1316.084 1247.666,1316.733 1248.229,1317.338 1248.748,1317.9 1249.267,1318.441 
	1249.742,1318.959 1250.196,1319.435 1250.607,1319.911 1251.018,1320.343 1251.406,1320.754 1251.796,1321.164 1252.142,1321.532 
	1252.488,1321.9 1252.812,1322.245 1253.136,1322.57 1253.439,1322.894 1253.72,1323.197 1254.001,1323.499 1254.26,1323.78 
	1254.779,1324.321 1255.255,1324.796 1255.688,1325.272 1256.12,1325.705 1256.509,1326.094 1256.877,1326.483 1257.223,1326.829 
	1257.547,1327.175 1257.871,1327.477 1258.173,1327.78 1258.455,1328.061 1258.736,1328.321 1258.995,1328.58 1259.233,1328.818 
	1259.492,1329.056 1259.946,1329.488 1260.357,1329.899 1260.768,1330.266 1260.876,1330.785 1261.006,1331.347 1261.157,1331.974 
	1261.243,1332.298 1261.33,1332.644 1261.417,1332.99 1261.503,1333.358 1261.611,1333.747 1261.719,1334.158 1261.849,1334.59 
	1261.957,1335.044 1262.087,1335.52 1262.238,1336.038 1262.389,1336.579 1262.562,1337.141 1262.735,1337.768 1262.93,1338.417 
	1263.125,1339.13 1263.232,1339.497 1263.362,1339.887 1263.471,1340.298 1263.6,1340.708 1263.729,1341.141 1263.859,1341.616 
	1264.011,1342.092 1264.162,1342.589 1264.314,1343.108 1264.487,1343.648 1264.66,1344.232 1264.832,1344.838 1265.027,1345.465 
	1265.243,1346.135 1265.459,1346.826 1265.676,1347.583 1265.935,1348.361 1266.194,1349.205 1266.453,1350.091 1266.605,1350.545 
	1266.756,1351.021 1266.908,1351.518 1267.059,1352.037 1267.232,1352.556 1267.405,1353.118 1268.788,1354.004 1270.172,1354.869 
	1271.578,1355.712 1273.004,1356.555 1274.453,1357.377 1275.922,1358.177 1277.414,1358.977 1278.971,1359.776 1278.798,1359.236 
	1278.625,1358.717 1278.474,1358.198 1278.301,1357.701 1278.172,1357.225 1278.02,1356.75 1277.739,1355.863 1277.479,1355.042 
	1277.241,1354.242 1277.004,1353.507 1276.787,1352.794 1276.593,1352.123 1276.398,1351.496 1276.204,1350.891 1276.031,1350.329 
	1275.879,1349.767 1275.707,1349.248 1275.555,1348.751 1275.425,1348.275 1275.274,1347.821 1275.145,1347.389 1275.036,1346.956 
	1274.906,1346.567 1274.799,1346.178 1274.69,1345.789 1274.475,1345.097 1274.28,1344.427 1274.107,1343.821 1273.934,1343.238 
	1273.783,1342.697 1273.653,1342.2 1273.523,1341.724 1273.393,1341.27 1273.286,1340.838 1273.177,1340.427 1273.069,1340.038 
	1272.983,1339.67 1272.874,1339.303 1272.788,1338.957 1272.723,1338.633 1272.572,1338.028 1272.442,1337.465 1272.334,1336.925 
	1272.961,1337.163 1273.653,1337.401 1274.388,1337.682 1274.799,1337.811 1275.209,1337.963 1275.664,1338.114 1276.117,1338.265 
	1276.615,1338.438 1277.134,1338.611 1277.674,1338.784 1278.257,1338.979 1278.863,1339.173 1279.533,1339.39 1280.225,1339.627 
	1280.96,1339.865 1281.76,1340.125 1282.625,1340.384 1283.532,1340.687 1284.03,1340.838 1284.549,1340.989 1285.068,1341.162 
	1285.63,1341.335 1286.192,1341.53 1286.798,1341.703 1287.424,1341.897 1288.072,1342.113 1288.764,1342.33 1289.5,1342.546 
	1290.256,1342.784 1291.056,1343.043 1291.899,1343.302 1292.764,1343.584 1293.716,1343.865 1294.688,1344.167 1295.748,1344.491 
	1296.85,1344.838 1298.039,1345.205 1298.645,1345.4 1299.293,1345.594 1299.964,1345.789 1300.634,1346.005 1301.347,1346.221 
	1302.082,1346.437 1301.996,1344.794 1301.93,1343.151 1301.909,1341.508 1301.887,1339.865 1301.909,1338.222 1301.93,1336.536 
	1301.996,1334.828 1302.082,1333.099 1301.347,1332.882 1300.634,1332.644 1299.964,1332.45 1299.293,1332.233 1298.645,1332.039 
	1298.039,1331.844 1296.85,1331.499 1295.748,1331.152 1294.688,1330.828 1293.716,1330.526 1292.764,1330.223 1291.899,1329.964 
	1291.056,1329.704 1290.256,1329.445 1289.5,1329.207 1288.764,1328.991 1288.072,1328.774 1287.424,1328.558 1286.798,1328.364 
	1286.192,1328.169 1285.63,1327.996 1285.068,1327.823 1284.549,1327.65 1284.03,1327.499 1283.532,1327.348 1282.625,1327.045 
	1281.76,1326.764 1280.96,1326.505 1280.225,1326.267 1279.533,1326.05 1278.863,1325.834 1278.257,1325.64 1277.674,1325.445 
	1277.134,1325.251 1276.615,1325.078 1276.117,1324.926 1275.664,1324.753 1275.209,1324.602 1274.799,1324.472 1274.388,1324.321 
	1273.653,1324.062 1272.961,1323.824 1272.334,1323.586 1272.442,1322.916 1272.572,1322.202 1272.723,1321.424 1272.788,1320.991 
	1272.874,1320.559 1272.983,1320.105 1273.069,1319.63 1273.177,1319.111 1273.286,1318.592 1273.393,1318.008 1273.523,1317.424 
	1273.653,1316.797 1273.783,1316.105 1273.934,1315.392 1274.107,1314.636 1274.28,1313.814 1274.475,1312.928 1274.69,1311.998 
	1274.799,1311.501 1274.906,1310.96 1275.036,1310.42 1275.145,1309.858 1275.274,1309.274 1275.425,1308.669 1275.555,1308.02 
	1275.707,1307.35 1275.879,1306.636 1276.031,1305.901 1276.204,1305.123 1276.398,1304.323 1276.593,1303.458 1276.787,1302.55 
	1277.004,1301.599 1277.241,1300.583 1277.479,1299.524 1277.739,1298.378 1278.02,1297.189 1278.172,1296.562 1278.301,1295.892 
	1278.474,1295.221 1278.625,1294.53 1278.798,1293.816 1278.971,1293.06 1277.414,1292.26 1275.922,1291.46 1274.453,1290.66 
	1273.004,1289.838 1271.578,1288.995 1270.172,1288.152 1268.788,1287.287 1267.405,1286.401 1267.232,1287.136 1267.059,1287.849 
	1266.908,1288.563 1266.756,1289.233 1266.605,1289.882 1266.453,1290.508 1266.194,1291.719 1265.935,1292.843 1265.676,1293.925 
	1265.459,1294.919 1265.243,1295.87 1265.027,1296.778 1264.832,1297.643 1264.66,1298.464 1264.487,1299.221 1264.314,1299.978 
	1264.162,1300.67 1264.011,1301.34 1263.859,1301.988 1263.729,1302.594 1263.6,1303.199 1263.471,1303.761 1263.362,1304.302 
	1263.232,1304.821 1263.125,1305.318 1262.93,1306.269 1262.735,1307.134 1262.562,1307.955 1262.389,1308.733 1262.238,1309.447 
	1262.087,1310.117 1261.957,1310.744 1261.849,1311.349 1261.719,1311.912 1261.611,1312.452 1261.503,1312.949 1261.417,1313.425 
	1261.33,1313.9 1261.243,1314.333 1261.157,1314.744 1261.006,1315.522 1260.876,1316.257 1260.768,1316.906 1260.357,1316.538 
	1259.946,1316.149 1259.492,1315.717 1259.233,1315.479 1258.995,1315.241 1258.736,1314.981 1258.455,1314.722 1258.173,1314.441 
	1257.871,1314.138 1257.547,1313.814 1257.223,1313.49 1256.877,1313.122 1256.509,1312.755 1256.12,1312.344 1255.688,1311.933 
	1255.255,1311.457 1254.779,1310.96 1254.26,1310.441 1254.001,1310.16 1253.72,1309.858 1253.439,1309.555 1253.136,1309.231 
	1252.812,1308.906 1252.488,1308.561 1252.142,1308.193 1251.796,1307.804 1251.406,1307.415 1251.018,1307.004 1250.607,1306.572 
	1250.196,1306.096 1249.742,1305.62 1249.267,1305.101 1248.748,1304.561 1248.229,1303.999 1247.666,1303.394 1247.083,1302.745 
	1246.434,1302.075 1246.11,1301.707 1245.764,1301.34 1245.418,1300.972 1245.051,1300.561 1244.683,1300.151 1244.294,1299.74 
	1244.208,1301.469 1244.164,1303.177 1244.121,1304.864 1244.121,1306.507 1244.121,1308.15 1244.164,1309.793 1244.208,1311.436 
	1244.294,1313.079 "/>
<path class="st0" d="M1586.515,1500.68c-0.004,24.623,17.28,54.562,38.605,66.871c21.324,12.31,38.615,2.328,38.618-22.295
	c0.004-24.623-17.28-54.562-38.605-66.871C1603.809,1466.076,1586.518,1476.058,1586.515,1500.68"/>
<polyline class="st0" points="1593.378,1514.613 1593.768,1515.045 1594.135,1515.456 1594.503,1515.845 1594.849,1516.234 
	1595.194,1516.602 1595.519,1516.948 1596.146,1517.639 1596.751,1518.266 1597.314,1518.872 1597.832,1519.456 1598.33,1519.996 
	1598.805,1520.493 1599.259,1520.991 1599.692,1521.444 1600.102,1521.877 1600.491,1522.309 1600.859,1522.698 1601.227,1523.066 
	1601.551,1523.434 1601.897,1523.779 1602.199,1524.125 1602.502,1524.428 1602.783,1524.752 1603.064,1525.033 1603.345,1525.314 
	1603.842,1525.855 1604.318,1526.352 1604.772,1526.806 1605.182,1527.239 1605.572,1527.627 1605.94,1528.017 1606.285,1528.363 
	1606.631,1528.708 1606.934,1529.011 1607.236,1529.314 1607.517,1529.595 1607.799,1529.876 1608.058,1530.114 1608.318,1530.373 
	1608.555,1530.589 1609.009,1531.022 1609.442,1531.432 1609.853,1531.8 1609.96,1532.319 1610.09,1532.903 1610.241,1533.508 
	1610.307,1533.832 1610.393,1534.178 1610.501,1534.524 1610.587,1534.891 1610.696,1535.281 1610.804,1535.692 1610.912,1536.124 
	1611.042,1536.578 1611.171,1537.054 1611.301,1537.572 1611.474,1538.113 1611.625,1538.696 1611.798,1539.302 1611.993,1539.95 
	1612.209,1540.664 1612.317,1541.031 1612.425,1541.421 1612.555,1541.831 1612.663,1542.242 1612.792,1542.696 1612.944,1543.15 
	1613.074,1543.626 1613.225,1544.123 1613.398,1544.642 1613.55,1545.182 1613.722,1545.766 1613.917,1546.371 1614.111,1546.998 
	1614.306,1547.669 1614.522,1548.36 1614.76,1549.117 1614.997,1549.895 1615.257,1550.738 1615.538,1551.625 1615.689,1552.079 
	1615.819,1552.576 1615.992,1553.052 1616.143,1553.57 1616.316,1554.111 1616.489,1554.651 1617.873,1555.538 1619.257,1556.403 
	1620.662,1557.267 1622.089,1558.089 1623.516,1558.911 1624.986,1559.71 1626.499,1560.532 1628.034,1561.332 1627.861,1560.77 
	1627.71,1560.251 1627.537,1559.732 1627.386,1559.235 1627.234,1558.759 1627.083,1558.305 1626.823,1557.397 1626.564,1556.576 
	1626.304,1555.776 1626.088,1555.041 1625.872,1554.349 1625.656,1553.679 1625.461,1553.03 1625.288,1552.425 1625.115,1551.863 
	1624.942,1551.322 1624.791,1550.803 1624.64,1550.306 1624.489,1549.809 1624.359,1549.355 1624.229,1548.922 1624.099,1548.512 
	1623.991,1548.101 1623.862,1547.712 1623.753,1547.344 1623.559,1546.631 1623.365,1545.982 1623.192,1545.355 1623.019,1544.793 
	1622.867,1544.253 1622.716,1543.734 1622.586,1543.258 1622.478,1542.804 1622.348,1542.372 1622.24,1541.961 1622.132,1541.572 
	1622.046,1541.204 1621.959,1540.837 1621.873,1540.513 1621.786,1540.188 1621.635,1539.562 1621.505,1538.999 1621.397,1538.459 
	1622.024,1538.696 1622.716,1538.956 1623.473,1539.215 1623.883,1539.345 1624.294,1539.497 1624.726,1539.648 1625.202,1539.799 
	1625.7,1539.972 1626.218,1540.145 1626.759,1540.318 1627.342,1540.513 1627.948,1540.707 1628.596,1540.923 1629.288,1541.161 
	1630.044,1541.399 1630.844,1541.658 1631.688,1541.918 1632.618,1542.22 1633.115,1542.372 1633.612,1542.545 1634.153,1542.696 
	1634.693,1542.869 1635.276,1543.064 1635.882,1543.258 1636.509,1543.453 1637.157,1543.647 1637.849,1543.864 1638.563,1544.101 
	1639.319,1544.339 1640.119,1544.577 1640.962,1544.836 1641.848,1545.117 1642.779,1545.399 1643.773,1545.701 1644.811,1546.025 
	1645.935,1546.371 1647.102,1546.739 1647.729,1546.934 1648.378,1547.128 1649.027,1547.323 1649.718,1547.539 1650.41,1547.755 
	1651.145,1547.971 1651.059,1546.328 1651.016,1544.685 1650.972,1543.064 1650.972,1541.421 1650.972,1539.756 1651.016,1538.07 
	1651.059,1536.362 1651.145,1534.632 1650.41,1534.416 1649.718,1534.2 1649.027,1533.984 1648.378,1533.789 1647.729,1533.594 
	1647.102,1533.4 1645.935,1533.032 1644.811,1532.686 1643.773,1532.362 1642.779,1532.06 1641.848,1531.778 1640.962,1531.497 
	1640.119,1531.238 1639.319,1530.979 1638.563,1530.741 1637.849,1530.525 1637.157,1530.308 1636.509,1530.114 1635.882,1529.897 
	1635.276,1529.725 1634.693,1529.53 1634.153,1529.357 1633.612,1529.184 1633.115,1529.033 1632.618,1528.881 1631.688,1528.579 
	1630.844,1528.319 1630.044,1528.06 1629.288,1527.822 1628.596,1527.584 1627.948,1527.368 1627.342,1527.174 1626.759,1526.979 
	1626.218,1526.806 1625.7,1526.633 1625.202,1526.46 1624.726,1526.309 1624.294,1526.157 1623.883,1526.006 1623.473,1525.876 
	1622.716,1525.595 1622.024,1525.358 1621.397,1525.12 1621.505,1524.45 1621.635,1523.736 1621.786,1522.958 1621.873,1522.547 
	1621.959,1522.093 1622.046,1521.639 1622.132,1521.164 1622.24,1520.645 1622.348,1520.126 1622.478,1519.564 1622.586,1518.958 
	1622.716,1518.331 1622.867,1517.661 1623.019,1516.948 1623.192,1516.17 1623.365,1515.348 1623.559,1514.483 1623.753,1513.532 
	1623.862,1513.035 1623.991,1512.516 1624.099,1511.975 1624.229,1511.391 1624.359,1510.808 1624.489,1510.202 1624.64,1509.554 
	1624.791,1508.884 1624.942,1508.17 1625.115,1507.435 1625.288,1506.657 1625.461,1505.857 1625.656,1504.992 1625.872,1504.084 
	1626.088,1503.133 1626.304,1502.139 1626.564,1501.058 1626.823,1499.933 1627.083,1498.723 1627.234,1498.096 1627.386,1497.447 
	1627.537,1496.777 1627.71,1496.064 1627.861,1495.35 1628.034,1494.615 1626.499,1493.815 1624.986,1492.994 1623.516,1492.194 
	1622.089,1491.372 1620.662,1490.551 1619.257,1489.686 1617.873,1488.821 1616.489,1487.935 1616.316,1488.67 1616.143,1489.405 
	1615.992,1490.097 1615.819,1490.767 1615.689,1491.416 1615.538,1492.042 1615.257,1493.253 1614.997,1494.399 1614.76,1495.458 
	1614.522,1496.474 1614.306,1497.426 1614.111,1498.333 1613.917,1499.177 1613.722,1499.998 1613.55,1500.776 1613.398,1501.512 
	1613.225,1502.203 1613.074,1502.873 1612.944,1503.522 1612.792,1504.149 1612.663,1504.733 1612.555,1505.295 1612.425,1505.835 
	1612.317,1506.354 1612.209,1506.851 1611.993,1507.803 1611.798,1508.689 1611.625,1509.511 1611.474,1510.267 1611.301,1510.981 
	1611.171,1511.651 1611.042,1512.278 1610.912,1512.883 1610.804,1513.445 1610.696,1513.986 1610.587,1514.483 1610.501,1514.98 
	1610.393,1515.434 1610.307,1515.867 1610.241,1516.277 1610.09,1517.077 1609.96,1517.791 1609.853,1518.461 1609.442,1518.094 
	1609.009,1517.683 1608.555,1517.25 1608.318,1517.034 1608.058,1516.775 1607.799,1516.515 1607.517,1516.256 1607.236,1515.975 
	1606.934,1515.672 1606.631,1515.369 1606.285,1515.024 1605.94,1514.678 1605.572,1514.288 1605.182,1513.899 1604.772,1513.467 
	1604.318,1512.991 1603.842,1512.516 1603.345,1511.975 1603.064,1511.694 1602.783,1511.391 1602.502,1511.089 1602.199,1510.765 
	1601.897,1510.44 1601.551,1510.095 1601.227,1509.727 1600.859,1509.359 1600.491,1508.948 1600.102,1508.538 1599.692,1508.105 
	1599.259,1507.652 1598.805,1507.154 1598.33,1506.635 1597.832,1506.117 1597.314,1505.533 1596.751,1504.927 1596.146,1504.3 
	1595.519,1503.609 1595.194,1503.241 1594.849,1502.873 1594.503,1502.506 1594.135,1502.117 1593.768,1501.706 1593.378,1501.274 
	1593.292,1503.003 1593.227,1504.711 1593.205,1506.398 1593.184,1508.062 1593.205,1509.705 1593.227,1511.349 1593.292,1512.97 
	1593.378,1514.613 "/>
<polyline class="st0" points="2829.908,1178.759 2829.908,934.419 2820.266,917.729 2199.407,559.284 "/>
<polyline class="st0" points="2492.974,714.747 2505.015,707.786 2505.015,721.687 "/>
<polyline class="st0" points="2562.803,741.144 2550.761,748.105 2492.974,714.747 "/>
<polyline class="st0" points="2505.015,707.786 2223.361,545.166 2199.278,559.068 "/>
<polyline class="st0" points="2820.396,917.665 2844.458,903.763 2562.803,741.144 "/>
<polyline class="st0" points="2854.1,1165.074 2854.1,920.454 2844.458,903.763 "/>
<line class="st0" x1="2830.016" y1="934.354" x2="2854.1" y2="920.454"/>
<line class="st0" x1="2830.016" y1="1178.975" x2="2854.1" y2="1165.074"/>
<line class="st0" x1="2714.462" y1="1001.071" x2="2829.908" y2="934.419"/>
<line class="st0" x1="2714.462" y1="1245.411" x2="2829.908" y2="1178.759"/>
<line class="st0" x1="2707.241" y1="982.998" x2="2820.266" y2="917.729"/>
<line class="st0" x1="2088.782" y1="623.147" x2="2199.407" y2="559.284"/>
<polyline class="st0" points="1178.528,1148.406 1799.647,1507.003 1809.267,1523.671 1809.267,1768.314 "/>
<polyline class="st0" points="1505.951,1351.323 1493.909,1358.285 1493.909,1416.656 "/>
<polyline class="st0" points="1436.121,1383.298 1436.121,1324.926 1448.163,1317.965 "/>
<line class="st0" x1="1448.163" y1="1376.337" x2="1436.121" y2="1383.298"/>
<polyline class="st0" points="1505.951,1351.323 1448.163,1317.965 1448.163,1376.337 "/>
<polyline class="st0" points="1493.909,1358.285 1775.564,1520.904 1799.647,1507.003 "/>
<polyline class="st0" points="1178.528,1148.406 1154.466,1162.285 1436.121,1324.926 "/>
<path class="st0" d="M1436.145,1383.283c-0.005,18.423,12.926,40.823,28.883,50.031c15.957,9.208,28.896,1.738,28.901-16.685"/>
<polyline class="st0" points="1212.233,1462.51 1154.466,1429.152 1144.824,1412.484 1144.824,1167.863 1154.466,1162.285 "/>
<polyline class="st0" points="1332.608,1393.027 1597.421,1545.917 1609.464,1569.223 1609.464,1592.053 "/>
<path class="st0" d="M1608.344,1594.524c0.723-0.417,1.129-1.313,1.13-2.491"/>
<line class="st0" x1="1583.456" y1="1621.779" x2="1593.595" y2="1627.638"/>
<path class="st0" d="M1596.965,1631.845c-0.68-1.795-1.962-3.403-3.355-4.206"/>
<path class="st0" d="M1596.966,1631.84c2.473,6.525,6.117,12.838,10.532,18.242"/>
<path class="st0" d="M1609.474,1655.096c0.001-1.607-0.75-3.523-1.964-5.009"/>
<polyline class="st0" points="1609.464,1655.116 1609.464,1691.847 1775.564,1787.771 1785.206,1782.193 1785.206,1537.572 
	1775.564,1520.904 "/>
<line class="st0" x1="1809.267" y1="1523.671" x2="1785.206" y2="1537.572"/>
<line class="st0" x1="1809.267" y1="1768.314" x2="1785.206" y2="1782.193"/>
<line class="st0" x1="1299.034" y1="1079.116" x2="1178.766" y2="1148.536"/>
<polyline class="st0" points="1299.034,1079.116 1919.893,1437.562 1799.647,1507.003 "/>
<polyline class="st0" points="1919.893,1437.562 1929.535,1454.252 1809.267,1523.671 "/>
<line class="st0" x1="1919.779" y1="1704.225" x2="1809.267" y2="1768.033"/>
<polyline class="st0" points="1452.984,1163.691 1452.984,1156.729 2232.981,706.402 "/>
<polyline class="st0" points="2545.94,887.095 1765.943,1337.422 1765.943,1344.383 "/>
<polyline class="st0" points="1765.943,1337.422 1924.822,1429.152 1934.464,1445.842 1934.464,1701.597 1924.822,1707.153 
	1919.784,1704.234 "/>
<polyline class="st0" points="1284.462,1087.526 1284.462,1070.555 1294.083,1064.999 1452.984,1156.729 "/>
<polyline class="st0" points="1294.083,1064.999 2074.103,614.672 2232.981,706.402 "/>
<polyline class="st0" points="2545.94,887.095 2704.841,978.825 1924.822,1429.152 "/>
<polyline class="st0" points="2704.841,978.825 2714.462,995.515 1934.464,1445.842 "/>
<polyline class="st0" points="2714.462,995.515 2714.462,1251.248 1934.464,1701.597 "/>
</svg>
