<?xml version="1.0" encoding="utf-8"?>
<!-- Generator: Adobe Illustrator 22.1.0, SVG Export Plug-In . SVG Version: 6.00 Build 0)  -->
<svg version="1.1" id="Layer_1" xmlns="http://www.w3.org/2000/svg" xmlns:xlink="http://www.w3.org/1999/xlink" x="0px" y="0px"
	 viewBox="0 0 3374.671 4000" style="enable-background:new 0 0 3374.671 4000;" xml:space="preserve">
<style type="text/css">
	.st0{fill:#009245;}
	.st1{fill:#020203;}
</style>
<g>
	<path class="st0" d="M3260.896,2160.292l-238.42-412.951l-306.958,177.224l238.42,412.949
		c60.46,104.723,20.14,198.004-0.004,232.891c-20.14,34.886-80.041,116.86-200.962,116.86h-856.99v-178.888l-613.917,354.445
		l613.917,354.445v-179.213h856.99c212.029,0,401.903-108.631,507.92-292.252
		C3366.909,2562.178,3366.909,2343.919,3260.896,2160.292z"/>
	<path class="st0" d="M1181.715,318.545L943.295,731.496l306.956,177.223l238.421-412.952
		c60.461-104.721,160.681-116.03,200.964-116.027c40.283-0.001,140.504,11.303,200.967,116.027l429.347,743.651l-154.102,88.612
		l613.295,354.445v-708.89l-152.856,88.611l-429.036-743.651c-106.017-183.626-295.741-293.252-507.769-293.25
		C1477.45,25.295,1287.727,134.921,1181.715,318.545z"/>
	<path class="st0" d="M626.301,3038.053h477.312v-350.788H626.301c-120.922,0-180.821-81.974-200.964-116.859
		c-20.143-34.885-60.461-127.752-0.001-232.472l429.613-743.861l153.745,88.404v-708.89l-614.181,354.445l153.346,88.611
		l-429.414,743.653C12.43,2343.917,12.396,2562.174,118.412,2745.8C224.426,2929.425,414.271,3038.053,626.301,3038.053z"/>
	<g>
		<path class="st1" d="M1656.842,1976.558c-88.736,88.736-180.953,186.172-321.887,186.172
			c-146.153,0-250.549-107.875-250.549-257.509c0-137.454,111.355-257.51,264.469-257.51c128.754,0,224.45,102.656,307.967,186.173
			c88.736-88.736,180.952-186.173,321.885-186.173c147.895,0,250.549,107.876,250.549,257.51
			c0,137.453-111.355,257.509-264.468,257.509C1836.054,2162.731,1740.358,2060.075,1656.842,1976.558z M1587.244,1905.222
			c-67.856-62.639-139.194-153.114-240.109-153.114c-86.996,0-153.114,71.338-153.114,153.114
			c0,88.736,62.637,153.113,147.893,153.113C1441.091,2058.335,1521.128,1973.079,1587.244,1905.222z M2119.661,1905.222
			c0-88.737-62.637-153.114-147.893-153.114c-99.175,0-179.212,85.256-245.33,153.114c67.858,62.637,139.194,153.113,240.11,153.113
			C2053.545,2058.335,2119.661,1986.997,2119.661,1905.222z"/>
	</g>
</g>
<g>
	<path d="M385.065,3974.554H144.497v-580.106h238.344v76.729H231.235v169.398h130.478v75.248H231.235v182.001h153.83V3974.554z"/>
	<path d="M733.129,3394.448l-111.202,580.848H535.56l-110.832-580.848h87.108l64.868,397.733c0.493,11.37,1.234,27.929,2.224,49.672
		c-0.248-11.364,0.493-27.923,2.224-49.672l65.239-397.733H733.129z"/>
	<path d="M1022.626,3974.554H782.057v-580.106h238.344v76.729H868.796v169.398h130.478v75.248H868.796v182.001h153.83V3974.554z"/>
	<path d="M1378.845,3974.554H1288.4l-95.634-269.481v-52.265h85.255v-183.855h-109.349v505.601h-86.738v-580.106h230.19
		c34.844,0,52.265,17.792,52.265,53.377v210.914c0,24.465-8.281,40.282-24.835,47.447c-8.896,3.706-27.679,5.56-56.342,5.56
		L1378.845,3974.554z"/>
	<path d="M1723.573,3397.784l-76.731,242.422c-9.394,23.972-22.119,64.376-38.178,121.211v213.138h-87.11v-213.138
		c-3.956-19.275-9.637-39.663-17.051-61.162c-13.101-36.818-20.145-56.835-21.129-60.049l-76.358-242.422
		c-0.25-0.243-0.25-1.355,0-3.336h89.333l69.316,252.059l68.945-252.059h88.963
		C1723.573,3396.179,1723.573,3397.292,1723.573,3397.784z"/>
	<path d="M2020.112,3471.178h-95.634v503.377h-86.367v-503.377h-95.634v-76.729h277.636V3471.178z"/>
	<path d="M2355.944,3974.554h-87.48v-260.214H2150.96v260.214h-86.738v-580.106h86.738v239.086h117.504v-239.086h87.48V3974.554z"/>
	<path d="M2513.11,3974.554h-86.737v-580.106h86.737V3974.554z"/>
	<path d="M2878.224,3974.554h-75.988l-139.003-365.115c3.706,17.793,5.56,31.757,5.56,41.887v323.229h-84.514v-580.106h75.988
		l139.003,357.701c-3.707-17.792-5.56-31.75-5.56-41.886v-315.815h84.514V3974.554z"/>
	<path d="M3234.813,3921.548c0,35.341-17.67,53.006-53.006,53.006h-182.373c-34.351,0-51.523-17.665-51.523-53.006v-473.723
		c0-35.585,17.544-53.377,52.636-53.377h181.26c35.335,0,53.006,17.792,53.006,53.377v123.805h-87.108v-102.677h-113.056v431.096
		h113.056v-162.356h-64.498v-73.764h151.606V3921.548z"/>
</g>
</svg>
