<?xml version="1.0" encoding="utf-8"?>
<!-- Generator: Adobe Illustrator 22.1.0, SVG Export Plug-In . SVG Version: 6.00 Build 0)  -->
<svg version="1.1" id="Resin_Identification_Codes" xmlns="http://www.w3.org/2000/svg" xmlns:xlink="http://www.w3.org/1999/xlink"
	 x="0px" y="0px" viewBox="0 0 4000 639.833" style="enable-background:new 0 0 4000 639.833;" xml:space="preserve">
<style type="text/css">
	.st0{fill:#029245;}
	.st1{fill:#020203;}
</style>
<g id="OTHER">
	<path class="st0" d="M3963.809,334.839l-33.559-58.125l-43.207,24.945l33.559,58.125c8.51,14.741,2.835,27.87,0,32.781
		c-2.835,4.91-11.266,16.449-28.287,16.449h-120.627v-25.18l-86.413,49.89l86.413,49.89v-25.225h120.627
		c29.844,0,56.571-15.29,71.493-41.136C3978.73,391.407,3978.73,360.686,3963.809,334.839z"/>
	<path class="st0" d="M3671.15,75.601l-33.559,58.126l43.206,24.945l33.559-58.126c8.51-14.74,22.617-16.332,28.287-16.331
		c5.67,0,19.777,1.591,28.287,16.332l60.434,104.674l-21.691,12.473l86.325,49.89v-99.781l-21.516,12.473l-60.39-104.674
		c-14.922-25.847-41.627-41.277-71.472-41.277C3712.777,34.324,3686.072,49.755,3671.15,75.601z"/>
	<path class="st0" d="M3592.972,458.389h67.185v-49.376h-67.185c-17.021,0-25.452-11.538-28.287-16.449s-8.51-17.982,0-32.722
		l60.471-104.703l21.641,12.443v-99.781l-86.45,49.89l21.584,12.473l-60.443,104.674c-14.922,25.846-14.927,56.567-0.004,82.414
		C3536.406,443.099,3563.128,458.389,3592.972,458.389z"/>
	<path class="st1" d="M3742.454,338.955h-19.494l31.937-82.262h-25.992v15.484h-17.144v-31.661h62.63v16.176L3742.454,338.955z"/>
	<path class="st1" d="M3596.185,597.473c-6.637,6.637-14.932,10.369-26.269,10.369c-11.337,0-19.771-3.733-26.407-10.369
		c-9.816-9.816-9.954-20.876-9.954-39.679c0-18.803,0.138-29.863,9.954-39.679c6.636-6.637,15.07-10.369,26.407-10.369
		c11.337,0,19.632,3.733,26.269,10.369c9.816,9.816,10.092,20.876,10.092,39.679
		C3606.278,576.597,3606.001,587.657,3596.185,597.473z M3582.221,530.143c-2.765-3.18-7.051-5.254-12.305-5.254
		c-4.707-0.104-9.235,1.808-12.443,5.254c-3.594,4.148-4.7,8.848-4.7,27.651c0,18.803,1.106,23.366,4.7,27.513
		c3.191,3.487,7.717,5.448,12.443,5.392c4.692,0.086,9.187-1.884,12.305-5.392c3.594-4.147,4.839-8.71,4.839-27.513
		C3587.06,538.991,3585.815,534.29,3582.221,530.143z"/>
	<path class="st1" d="M3660.749,525.718v81.295h-19.217v-81.295h-25.716v-17.144h70.649v17.144H3660.749z"/>
	<path class="st1" d="M3754.623,607.013v-41.2h-33.32v41.2h-19.218v-98.438h19.218v40.232h33.32v-40.232h19.217v98.438H3754.623z"/>
	<path class="st1" d="M3796.788,607.013v-98.438h64.842v17.144h-45.625v23.089h38.85v17.144h-38.85v23.918h45.625v17.144H3796.788z"
		/>
	<path class="st1" d="M3932.69,607.013l-19.217-39.265h-13.826v39.265h-19.218v-98.438h38.573c20.048,0,31.938,13.687,31.938,30.14
		c0,13.826-8.434,22.397-17.974,25.854l21.983,42.445H3932.69z M3917.758,525.718h-18.111v25.993h18.111
		c8.434,0,13.964-5.393,13.964-12.996C3931.722,531.11,3926.193,525.718,3917.758,525.718z"/>
</g>
<g id="PS">
	<path class="st0" d="M3382.926,334.839l-33.559-58.125l-43.207,24.945l33.559,58.125c8.51,14.741,2.835,27.87-0.001,32.781
		c-2.835,4.91-11.266,16.449-28.287,16.449h-120.627v-25.18l-86.413,49.89l86.413,49.89v-25.225h120.627
		c29.844,0,56.571-15.29,71.493-41.136C3397.848,391.407,3397.848,360.686,3382.926,334.839z"/>
	<path class="st0" d="M3090.268,75.601l-33.559,58.126l43.206,24.945l33.559-58.126c8.51-14.74,22.617-16.332,28.287-16.331
		c5.67,0,19.777,1.591,28.287,16.332l60.433,104.674l-21.691,12.473l86.325,49.89v-99.781l-21.516,12.473l-60.39-104.674
		c-14.922-25.847-41.627-41.277-71.472-41.277C3131.895,34.324,3105.19,49.755,3090.268,75.601z"/>
	<path class="st0" d="M3012.09,458.389h67.185v-49.376h-67.185c-17.021,0-25.452-11.538-28.287-16.449s-8.51-17.982,0-32.722
		l60.471-104.703l21.641,12.443v-99.781l-86.45,49.89l21.584,12.473l-60.443,104.674c-14.922,25.846-14.927,56.567-0.004,82.414
		C2955.523,443.099,2982.245,458.389,3012.09,458.389z"/>
	<path class="st1" d="M3161.295,339.784c-17.42,0-30.692-10.921-30.692-30.416c0-8.987,3.871-17.282,8.295-26.268l20.739-42.583
		h19.632l-20.462,40.648c2.34-0.881,4.828-1.304,7.327-1.245c13.273,0,25.854,10.922,25.854,29.173
		C3191.988,328.448,3178.716,339.784,3161.295,339.784z M3161.295,294.852c-7.327,0-12.719,5.254-12.719,14.378
		c0,9.125,5.392,14.379,12.719,14.379c7.328,0,12.719-5.254,12.719-14.379C3174.015,300.52,3168.9,294.852,3161.295,294.852z"/>
	<path class="st1" d="M3126.873,569.96h-18.941v37.053h-19.217v-98.438h38.158c20.462,0,32.49,13.964,32.49,30.693
		C3159.363,555.997,3147.334,569.96,3126.873,569.96z M3125.905,525.718h-17.974v26.96h17.974c8.71,0,14.24-5.393,14.24-13.411
		C3140.145,531.249,3134.615,525.718,3125.905,525.718L3125.905,525.718z"/>
	<path class="st1" d="M3202.634,607.842c-14.932,0-26.269-3.18-35.947-12.996l12.444-12.443c6.221,6.221,14.655,8.295,23.642,8.295
		c11.475,0,17.558-4.424,17.558-12.305c0-3.318-0.968-6.083-3.042-8.157c-1.936-1.798-3.871-2.627-8.848-3.318l-11.752-1.798
		c-8.71-1.244-14.655-3.871-19.08-8.157c-4.7-4.563-7.051-11.061-7.051-19.356c0-17.558,12.996-29.863,34.287-29.863
		c13.55,0,23.366,3.318,31.799,11.475l-12.167,12.028c-6.083-5.945-13.687-6.774-20.185-6.774c-10.231,0-15.07,5.668-15.07,12.443
		c0,2.626,0.692,5.115,2.765,7.051c1.936,1.798,4.84,3.18,8.987,3.733l11.752,1.797c8.986,1.244,14.517,3.595,18.802,7.742
		c5.254,4.839,7.605,11.89,7.605,20.738C3239.133,597.058,3223.372,607.842,3202.634,607.842z"/>
</g>
<g id="PP">
	<path class="st0" d="M2802.044,335.253l-33.559-58.125l-43.206,24.945l33.559,58.125c8.51,14.741,2.835,27.87-0.001,32.781
		c-2.835,4.91-11.266,16.449-28.287,16.449h-120.627v-25.18l-86.413,49.89l86.413,49.89v-25.225h120.627
		c29.844,0,56.571-15.291,71.493-41.136C2816.966,391.822,2816.966,361.1,2802.044,335.253z"/>
	<path class="st0" d="M2509.385,76.016l-33.559,58.126l43.206,24.945l33.559-58.126c8.51-14.74,22.617-16.332,28.287-16.331
		c5.67,0,19.777,1.591,28.287,16.332l60.433,104.674l-21.691,12.473l86.325,49.89v-99.781l-21.516,12.473l-60.39-104.674
		c-14.923-25.847-41.627-41.277-71.472-41.277C2551.012,34.739,2524.308,50.169,2509.385,76.016z"/>
	<path class="st0" d="M2431.208,458.804h67.185v-49.376h-67.185c-17.021,0-25.452-11.538-28.287-16.449s-8.51-17.982,0-32.722
		l60.471-104.703l21.64,12.443v-99.781l-86.45,49.89l21.584,12.473l-60.443,104.674c-14.922,25.846-14.927,56.567-0.004,82.414
		C2374.641,443.514,2401.363,458.804,2431.208,458.804z"/>
	<path class="st1" d="M2602.673,332.181c-4.424,4.424-11.476,8.018-21.706,8.018c-10.231,0-17.697-3.594-21.983-7.881
		c-6.083-6.082-7.465-13.272-8.019-20.462h17.973c0.968,7.742,4.563,12.167,12.029,12.167c3.456,0,6.36-0.968,8.572-3.18
		c3.18-3.18,3.871-8.433,3.871-14.655c0-11.336-3.317-17.697-12.028-17.697c-7.327,0-10.646,4.148-11.889,8.019h-16.453v-55.579
		h56.132v16.176h-39.817v21.153c2.626-2.488,8.157-4.977,14.793-4.977c8.157,0,14.378,2.628,18.388,6.637
		c7.742,7.742,8.848,17.005,8.848,26.268C2611.383,317.249,2609.862,324.992,2602.673,332.181z"/>
	<path class="st1" d="M2543.432,570.375h-18.941v37.053h-19.218v-98.438h38.159c20.462,0,32.49,13.964,32.49,30.693
		S2563.895,570.375,2543.432,570.375z M2542.465,526.133h-17.973v26.96h17.973c8.71,0,14.24-5.393,14.24-13.411
		C2556.705,531.663,2551.175,526.133,2542.465,526.133L2542.465,526.133z"/>
	<path class="st1" d="M2630.253,570.375h-18.941v37.053h-19.217v-98.438h38.158c20.462,0,32.49,13.964,32.49,30.693
		S2650.715,570.375,2630.253,570.375z M2629.286,526.133h-17.974v26.96h17.974c8.71,0,14.24-5.393,14.24-13.411
		C2643.526,531.663,2637.996,526.133,2629.286,526.133z"/>
</g>
<g id="LDPE">
	<path class="st0" d="M2221.162,335.253l-33.559-58.125l-43.206,24.945l33.559,58.125c8.51,14.741,2.835,27.87-0.001,32.781
		c-2.835,4.91-11.266,16.449-28.287,16.449h-120.627v-25.18l-86.413,49.89l86.413,49.89v-25.225h120.627
		c29.844,0,56.571-15.291,71.493-41.136C2236.083,391.822,2236.083,361.1,2221.162,335.253z"/>
	<path class="st0" d="M1928.503,76.016l-33.559,58.126l43.206,24.945l33.559-58.126c8.51-14.74,22.617-16.332,28.287-16.331
		c5.67,0,19.777,1.591,28.287,16.332l60.433,104.674l-21.691,12.473l86.325,49.89v-99.781l-21.516,12.473l-60.39-104.674
		c-14.923-25.847-41.627-41.277-71.472-41.277C1970.13,34.739,1943.425,50.169,1928.503,76.016z"/>
	<path class="st0" d="M1850.325,458.804h67.185v-49.376h-67.185c-17.021,0-25.452-11.538-28.287-16.449s-8.51-17.982,0-32.722
		l60.471-104.703l21.641,12.443v-99.781l-86.45,49.89l21.584,12.473l-60.443,104.674c-14.922,25.846-14.927,56.567-0.005,82.414
		C1793.759,443.514,1820.48,458.804,1850.325,458.804z"/>
	<path class="st1" d="M2024.003,325.406v13.964h-17.283v-13.964h-40.232v-17.005l33.735-67.47h19.632l-33.735,67.47h20.6v-18.389
		h17.283v18.389h8.986v17.005L2024.003,325.406z"/>
	<path class="st1" d="M1840.68,607.428v-98.438h19.218v81.295h44.657v17.144H1840.68z"/>
	<path class="st1" d="M1985.431,593.049c-7.051,9.816-16.314,14.379-29.725,14.379h-35.532v-98.438h35.532
		c13.411,0,22.674,4.563,29.725,14.379c6.083,8.434,6.222,18.526,6.222,34.84C1991.653,574.523,1991.515,584.615,1985.431,593.049z
		 M1968.425,532.216c-3.18-4.01-7.881-6.083-14.378-6.083h-14.655v64.151h14.655c6.498,0,11.199-2.074,14.378-6.083
		c3.595-4.286,4.01-10.507,4.01-25.992C1972.435,542.724,1972.02,536.502,1968.425,532.216z"/>
	<path class="st1" d="M2049.44,570.375H2030.5v37.053h-19.218v-98.438h38.159c20.462,0,32.49,13.964,32.49,30.693
		S2069.903,570.375,2049.44,570.375z M2048.473,526.133H2030.5v26.96h17.973c8.71,0,14.241-5.393,14.241-13.411
		C2062.713,531.663,2057.183,526.133,2048.473,526.133z"/>
	<path class="st1" d="M2098.103,607.428v-98.438h64.843v17.144h-45.625v23.089h38.85v17.144h-38.85v23.918h45.625v17.144H2098.103z"
		/>
</g>
<g id="PVC">
	<path class="st0" d="M1640.279,335.656l-33.559-58.125l-43.206,24.945l33.559,58.125c8.51,14.741,2.835,27.87-0.001,32.781
		c-2.835,4.91-11.266,16.449-28.287,16.449h-120.627v-25.18l-86.413,49.89l86.413,49.89v-25.225h120.627
		c29.844,0,56.57-15.29,71.493-41.136C1655.201,392.224,1655.201,361.503,1640.279,335.656z"/>
	<path class="st0" d="M1347.621,76.418l-33.559,58.126l43.206,24.945l33.559-58.126c8.51-14.74,22.617-16.332,28.287-16.332
		c5.67,0,19.777,1.591,28.287,16.332l60.433,104.674l-21.691,12.473l86.325,49.89V168.62l-21.516,12.473l-60.39-104.674
		c-14.923-25.847-41.627-41.277-71.472-41.277C1389.248,35.142,1362.543,50.572,1347.621,76.418z"/>
	<path class="st0" d="M1269.443,459.207h67.185v-49.376h-67.185c-17.021,0-25.452-11.538-28.287-16.449s-8.51-17.982,0-32.722
		l60.471-104.703l21.641,12.443V168.62l-86.45,49.89l21.584,12.473l-60.443,104.674c-14.922,25.846-14.927,56.567-0.005,82.414
		C1212.876,443.917,1239.598,459.207,1269.443,459.207z"/>
	<path class="st1" d="M1418.511,340.602c-16.038,0-31.108-8.433-31.385-29.033h17.973c0.277,8.848,6.36,12.858,13.411,12.858
		c7.742,0,13.272-4.839,13.272-13.687c0-8.157-4.977-13.549-13.826-13.549h-2.626v-15.624h2.626c8.71,0,12.443-5.391,12.443-12.304
		c0-8.296-5.53-12.581-12.028-12.581c-6.774,0-11.752,4.424-12.167,11.89h-17.973c0.415-17.558,13.549-28.067,30.14-28.067
		c17.42,0,30.001,11.613,30.001,28.205c0,10.646-4.839,16.729-11.336,20.185c7.051,3.733,12.719,10.507,12.719,22.397
		C1449.756,330.924,1435.377,340.602,1418.511,340.602z"/>
	<path class="st1" d="M1343.159,569.771h-18.627v36.438h-18.899v-96.807h37.527c20.122,0,31.951,13.733,31.951,30.184
		S1363.281,569.771,1343.159,569.771z M1342.207,526.262h-17.676v26.513h17.676c8.566,0,14.004-5.303,14.004-13.188
		C1356.212,531.7,1350.773,526.262,1342.207,526.262z"/>
	<path class="st1" d="M1426.232,606.209h-14.14l-31.952-96.807h19.579l19.443,63.088l19.443-63.088h19.715L1426.232,606.209z"/>
	<path class="st1" d="M1501.149,607.025c-11.15,0-19.307-3.671-25.97-10.198c-9.653-9.653-9.789-20.531-9.789-39.022
		c0-18.491,0.136-29.369,9.789-39.022c6.662-6.526,14.82-10.197,25.97-10.197c18.083,0,31.951,10.333,35.486,30.592h-19.307
		c-1.904-7.886-6.798-13.732-16.18-13.732c-5.167,0-9.382,1.903-12.101,5.031c-3.535,4.079-4.759,8.838-4.759,27.329
		c0,18.491,1.224,23.25,4.759,27.329c2.719,3.127,6.934,5.031,12.101,5.031c9.381,0,14.412-5.846,16.316-13.733h19.171
		C1533.1,596.691,1519.096,607.025,1501.149,607.025z"/>
</g>
<g id="HDPE">
	<path class="st0" d="M1059.397,335.253l-33.559-58.125l-43.206,24.945l33.559,58.125c8.51,14.741,2.835,27.87-0.001,32.781
		c-2.835,4.91-11.266,16.449-28.287,16.449H867.276v-25.18l-86.413,49.89l86.413,49.89v-25.225h120.627
		c29.844,0,56.57-15.291,71.493-41.136C1074.319,391.822,1074.319,361.1,1059.397,335.253z"/>
	<path class="st0" d="M766.739,76.016l-33.559,58.126l43.206,24.945l33.559-58.126c8.51-14.74,22.617-16.332,28.287-16.331
		c5.67,0,19.777,1.591,28.287,16.332l60.433,104.674l-21.691,12.473l86.325,49.89v-99.781l-21.516,12.473l-60.39-104.674
		c-14.923-25.847-41.627-41.277-71.472-41.277C808.365,34.739,781.661,50.169,766.739,76.016z"/>
	<path class="st0" d="M688.56,458.804h67.185v-49.376H688.56c-17.021,0-25.452-11.538-28.287-16.449
		c-2.835-4.91-8.51-17.982,0-32.722l60.471-104.703l21.641,12.443v-99.781l-86.45,49.89l21.584,12.473l-60.443,104.674
		c-14.922,25.846-14.927,56.567-0.005,82.414C631.994,443.514,658.716,458.804,688.56,458.804z"/>
	<path class="st1" d="M808.594,339.37v-16.175l36.777-42.722c3.594-4.285,5.115-7.327,5.115-11.89
		c0-7.327-4.286-12.304-11.89-12.304c-5.945,0-12.029,3.042-12.029,12.581h-17.974c0-17.974,13.135-28.758,30.002-28.758
		c17.42,0,29.863,10.922,29.863,28.619c0,9.539-3.733,14.655-10.507,22.536l-27.513,31.938h38.02v16.175H808.594z"/>
	<path class="st1" d="M723.848,607.428v-41.2h-33.32v41.2h-19.218v-98.438h19.218v40.232h33.32v-40.232h19.217v98.438H723.848z"/>
	<path class="st1" d="M831.27,593.049c-7.051,9.816-16.314,14.379-29.725,14.379h-35.532v-98.438h35.532
		c13.411,0,22.674,4.563,29.725,14.379c6.083,8.434,6.222,18.526,6.222,34.84C837.492,574.523,837.354,584.615,831.27,593.049z
		 M814.264,532.216c-3.18-4.01-7.881-6.083-14.378-6.083h-14.655v64.151h14.655c6.498,0,11.199-2.074,14.378-6.083
		c3.595-4.286,4.01-10.507,4.01-25.992C818.274,542.724,817.859,536.502,814.264,532.216z"/>
	<path class="st1" d="M895.279,570.375h-18.941v37.053h-19.218v-98.438h38.158c20.462,0,32.49,13.964,32.49,30.693
		S915.742,570.375,895.279,570.375z M894.312,526.133h-17.973v26.96h17.973c8.711,0,14.241-5.393,14.241-13.411
		C908.553,531.663,903.022,526.133,894.312,526.133L894.312,526.133z"/>
	<path class="st1" d="M943.942,607.428v-98.438h64.843v17.144H963.16v23.089h38.85v17.144h-38.85v23.918h45.625v17.144H943.942z"/>
</g>
<g id="PETE">
	<path class="st0" d="M478.514,335.253l-33.559-58.125l-43.206,24.945l33.559,58.125c8.51,14.741,2.835,27.87-0.001,32.781
		c-2.835,4.91-11.266,16.449-28.287,16.449H286.394v-25.18l-86.413,49.89l86.413,49.89v-25.225h120.627
		c29.844,0,56.571-15.291,71.493-41.136C493.436,391.822,493.436,361.1,478.514,335.253z"/>
	<path class="st0" d="M185.856,76.016l-33.559,58.126l43.206,24.945l33.559-58.126c8.51-14.74,22.617-16.332,28.287-16.331
		c5.67,0,19.777,1.591,28.287,16.332l60.433,104.674l-21.691,12.473l86.325,49.89v-99.781l-21.516,12.473l-60.39-104.674
		c-14.923-25.847-41.627-41.277-71.472-41.277C227.483,34.739,200.778,50.169,185.856,76.016z"/>
	<path class="st0" d="M107.678,458.804h67.185v-49.376h-67.185c-17.021,0-25.452-11.538-28.287-16.449
		c-2.835-4.91-8.51-17.982,0-32.722l60.471-104.703l21.641,12.443v-99.781l-86.45,49.89l21.584,12.473L36.194,335.254
		c-14.922,25.846-14.927,56.567-0.005,82.414C51.112,443.514,77.833,458.804,107.678,458.804z"/>
	<path class="st1" d="M253.842,339.37v-79.082l-20.047,17.42v-19.355l20.047-17.421h17.974v98.438H253.842z"/>
	<path class="st1" d="M140.201,570.375H121.26v37.053h-19.218v-98.438h38.159c20.462,0,32.49,13.964,32.49,30.693
		S160.663,570.375,140.201,570.375z M139.233,526.133H121.26v26.96h17.973c8.71,0,14.24-5.393,14.24-13.411
		C153.473,531.663,147.943,526.133,139.233,526.133L139.233,526.133z"/>
	<path class="st1" d="M188.863,607.428v-98.438h64.842v17.144h-45.624v23.089h38.85v17.144h-38.85v23.918h45.624v17.144H188.863z"/>
	<path class="st1" d="M310.111,526.133v81.295h-19.218v-81.295h-25.715v-17.144h70.649v17.144H310.111z"/>
	<path class="st1" d="M351.447,607.428v-98.438h64.842v17.144h-45.625v23.089h38.85v17.144h-38.85v23.918h45.625v17.144H351.447z"/>
</g>
</svg>
