<?xml version="1.0" encoding="utf-8"?>
<!-- Generator: Adobe Illustrator 22.1.0, SVG Export Plug-In . SVG Version: 6.00 Build 0)  -->
<svg version="1.1" id="Layer_1" xmlns="http://www.w3.org/2000/svg" xmlns:xlink="http://www.w3.org/1999/xlink" x="0px" y="0px"
	 viewBox="0 0 4000 620.917" style="enable-background:new 0 0 4000 620.917;" xml:space="preserve">
<style type="text/css">
	.st0{fill:#E52521;}
</style>
<g>
	<path d="M221.342,353.925h-44.211v-67.834l-82.684,2.7v285.513H49.561V245.93h44.886v9.112c14.85-2.247,29.81-4.609,44.885-7.087
		c17.998-2.7,32.958-4.05,44.886-4.05c24.747,0,37.123,12.266,37.123,36.786V353.925z"/>
	<path d="M396.498,574.304h-63.785c-25.201,0-37.799-12.708-37.799-38.135V285.416h-39.486V245.93h39.486V143.671h44.211V245.93
		h57.372v39.486h-57.372v249.402h57.372V574.304z"/>
	<path d="M578.066,85.624h-63.447V245.93h56.023v39.486h-56.023v288.888h-44.211V285.416h-38.136V245.93h38.136V84.273
		c0-25.422,12.598-38.136,37.799-38.136h69.86V85.624z"/>
	<path d="M948.289,574.304h-44.886V286.091l-97.871,2.7v285.513h-44.548V286.091l-97.871,2.7v285.513h-44.886V245.93h44.886v9.112
		c17.549-2.247,35.098-4.609,52.648-7.087c21.372-2.7,39.033-4.05,52.986-4.05c13.721,0,23.846,4.166,30.373,12.487
		c18.899-2.473,37.682-5.062,56.36-7.763c24.521-3.148,43.082-4.725,55.686-4.725c24.747,0,37.123,12.266,37.123,36.786V574.304z"/>
	<path d="M1227.053,375.862h-76.61v-77.96l-61.085,1.35v275.051h-77.285V233.443h77.285v12.487
		c15.973-2.922,31.834-5.848,47.586-8.775c19.121-3.375,35.099-5.062,47.923-5.062c28.122,0,42.186,13.837,42.186,41.511V375.862z"
		/>
	<path d="M1417.733,574.304h-85.722c-28.576,0-42.861-14.058-42.861-42.185V299.253h-36.448v-65.81h36.448v-92.472h76.947v92.472
		h49.611v65.81h-49.611v209.242h51.635V574.304z"/>
	<path d="M1610.439,113.297h-56.698v120.145h49.273v65.81h-49.273v275.051h-76.61V299.253h-35.099v-65.81h35.099V88.323
		c0-28.122,14.285-42.186,42.861-42.186h90.447V113.297z"/>
	<path d="M2014.747,574.304h-76.609V297.903l-72.561,1.35v275.051h-76.947V297.903l-72.559,1.35v275.051h-77.285V233.443h77.285
		v12.487c17.997-2.922,35.884-5.848,53.659-8.775c21.821-3.375,39.934-5.062,54.336-5.062c17.771,0,29.245,5.062,34.424,15.187
		c18.899-2.922,37.799-5.959,56.698-9.112c24.974-4.05,44.094-6.075,57.374-6.075c28.121,0,42.185,13.837,42.185,41.511V574.304z"/>
	<path d="M2250.988,353.925h-44.211v-67.834l-82.685,2.7v285.513h-44.885V245.93h44.885v9.112c14.85-2.247,29.81-4.609,44.886-7.087
		c17.998-2.7,32.958-4.05,44.886-4.05c24.747,0,37.123,12.266,37.123,36.786V353.925z"/>
	<path d="M2426.144,574.304h-63.785c-25.2,0-37.798-12.708-37.798-38.135V285.416h-39.486V245.93h39.486V143.671h44.211V245.93
		h57.373v39.486h-57.373v249.402h57.373V574.304z"/>
	<path d="M2607.713,85.624h-63.448V245.93h56.023v39.486h-56.023v288.888h-44.211V285.416h-38.135V245.93h38.135V84.273
		c0-25.422,12.599-38.136,37.799-38.136h69.861V85.624z"/>
	<path d="M2977.936,574.304h-44.886V286.091l-97.871,2.7v285.513h-44.548V286.091l-97.872,2.7v285.513h-44.885V245.93h44.885v9.112
		c17.551-2.247,35.1-4.609,52.649-7.087c21.372-2.7,39.032-4.05,52.986-4.05c13.72,0,23.845,4.166,30.374,12.487
		c18.899-2.473,37.682-5.062,56.36-7.763c24.521-3.148,43.082-4.725,55.686-4.725c24.747,0,37.124,12.266,37.124,36.786V574.304z"/>
	<path class="st0" d="M3222.614,353.925h-44.211v-67.834l-82.685,2.7v285.513h-44.885V245.93h44.885v9.112
		c14.85-2.247,29.81-4.609,44.886-7.087c17.998-2.7,32.958-4.05,44.886-4.05c24.747,0,37.124,12.266,37.124,36.786V353.925z"/>
	<path class="st0" d="M3397.769,574.304h-63.785c-25.2,0-37.799-12.708-37.799-38.135V285.416H3256.7V245.93h39.486V143.671h44.211
		V245.93h57.373v39.486h-57.373v249.402h57.373V574.304z"/>
	<path class="st0" d="M3579.339,85.624h-63.448V245.93h56.023v39.486h-56.023v288.888h-44.211V285.416h-38.135V245.93h38.135V84.273
		c0-25.422,12.599-38.136,37.799-38.136h69.861V85.624z"/>
	<path class="st0" d="M3949.561,574.304h-44.886V286.091l-97.872,2.7v285.513h-44.548V286.091l-97.872,2.7v285.513h-44.885V245.93
		h44.885v9.112c17.55-2.247,35.099-4.609,52.649-7.087c21.372-2.7,39.032-4.05,52.985-4.05c13.72,0,23.845,4.166,30.374,12.487
		c18.899-2.473,37.682-5.062,56.36-7.763c24.521-3.148,43.083-4.725,55.686-4.725c24.748,0,37.124,12.266,37.124,36.786V574.304z"/>
</g>
</svg>
