<?xml version="1.0" encoding="utf-8"?>
<!-- Generator: Adobe Illustrator 22.1.0, SVG Export Plug-In . SVG Version: 6.00 Build 0)  -->
<svg version="1.1" id="Layer_1" xmlns="http://www.w3.org/2000/svg" xmlns:xlink="http://www.w3.org/1999/xlink" x="0px" y="0px"
	 viewBox="0 0 4000 4000" style="enable-background:new 0 0 4000 4000;" xml:space="preserve">
<style type="text/css">
	.st0{fill:none;stroke:#000000;stroke-width:14.1732;stroke-linecap:round;stroke-linejoin:round;stroke-miterlimit:10;}
</style>
<g id="Pulley_1_">
	<path class="st0" d="M1348.421,1785.925c-294.057,200.87-265.179,499.369,65.795,680.082s848.794,180.713,1179.767,0
		s359.853-479.212,65.795-680.082"/>
	<path class="st0" d="M1145.596,2679.747c0,273.745,384.365,495.66,858.504,495.66s858.504-221.915,858.504-495.66"/>
	<path class="st0" d="M2204.536,1446.512c95.794-62.162,89.413-156.913-14.452-214.593c-103.865-57.68-268.104-57.68-371.969,0
		c-103.865,57.68-110.246,152.431-14.451,214.593"/>
	<path class="st0" d="M2519.686,2300.302c10.163-7.469,19.836-15.156,28.998-23.044"/>
	<path class="st0" d="M2619.632,2196.861c5.668-8.917,10.753-17.953,15.244-27.09"/>
	<path class="st0" d="M2659.316,2080.687c0.31-4.751,0.466-9.506,0.466-14.26"/>
	<path class="st0" d="M1348.418,2066.427c0,4.755,0.155,9.509,0.465,14.26"/>
	<path class="st0" d="M1373.323,2169.771c4.491,9.137,9.576,18.174,15.244,27.09"/>
	<path class="st0" d="M1459.515,2277.257c9.162,7.889,18.835,15.576,28.998,23.044"/>
	<path class="st0" d="M2369.265,2380.846c13.664-5.29,26.978-10.875,39.914-16.742"/>
	<path class="st0" d="M1599.021,2364.104c12.936,5.868,26.25,11.453,39.914,16.742"/>
	<path class="st0" d="M1778.184,2421.808c15.444,3.273,31.095,6.208,46.921,8.802"/>
	<path class="st0" d="M1979.401,2444.72c16.46,0.358,32.938,0.358,49.398,0"/>
	<path class="st0" d="M2183.094,2430.61c15.826-2.593,31.478-5.529,46.921-8.802"/>
	<path class="st0" d="M1145.596,1413.625c0,273.745,384.365,495.66,858.504,495.66s858.504-221.915,858.504-495.66"/>
	<path class="st0" d="M1348.419,1828.89c-203.481,187.223-139.347,432.202,150.883,576.342s719.367,144.14,1009.597,0
		s354.364-389.119,150.883-576.342"/>
	<path class="st0" d="M2638.579,2089.994c-1.013-0.125-2.031-0.234-3.054-0.328"/>
	<path class="st0" d="M2634.87,2169.781c0.433-0.88,0.652-1.791,0.652-2.706"/>
	<path class="st0" d="M2594.911,2202.034c4.388,1.465,9.673,1.735,14.439,0.739c4.766-0.996,8.526-3.157,10.272-5.904"/>
	<path class="st0" d="M2594.909,2202.04c-13.099-4.373-28.606-5.674-43.319-3.635"/>
	<path class="st0" d="M2548.68,2277.257c1.896-1.633,2.909-3.554,2.909-5.52"/>
	<path class="st0" d="M2493.409,2300.811c3.389,2.176,8.271,3.376,13.337,3.279c5.066-0.097,9.799-1.482,12.93-3.783"/>
	<path class="st0" d="M2493.409,2300.81c-19.922-12.791-53.232-15.003-77.666-5.16"/>
	<path class="st0" d="M2409.183,2364.097c4.143-1.879,6.562-4.752,6.562-7.794"/>
	<path class="st0" d="M2344.011,2376.635c2.059,2.674,6.059,4.686,10.929,5.498c4.87,0.811,10.112,0.339,14.322-1.291"/>
	<path class="st0" d="M2344.014,2376.639c-8.698-11.299-27.315-18.991-48.647-20.1c-21.331-1.108-42.028,4.542-54.08,14.763"/>
	<path class="st0" d="M2230.031,2421.799c6.76-1.432,11.253-5.148,11.253-9.305"/>
	<path class="st0" d="M2161.342,2422.097c0.527,2.91,3.254,5.537,7.451,7.177c4.197,1.64,9.435,2.126,14.311,1.327"/>
	<path class="st0" d="M2161.345,2422.098c-2.984-16.486-26.084-29.341-54.731-30.457c-28.646-1.115-54.528,9.832-61.32,25.937"/>
	<path class="st0" d="M2028.767,2444.716c9.224-0.201,16.522-4.576,16.522-9.904"/>
	<path class="st0" d="M1962.903,2434.812c0,5.329,7.298,9.704,16.522,9.904"/>
	<path class="st0" d="M1962.898,2417.579c-6.792-16.105-32.673-27.053-61.32-25.937c-28.646,1.116-51.747,13.97-54.731,30.457"/>
	<path class="st0" d="M1825.088,2430.602c4.876,0.799,10.114,0.313,14.311-1.327c4.197-1.64,6.925-4.268,7.451-7.177"/>
	<path class="st0" d="M1766.909,2412.494c0,4.157,4.493,7.872,11.253,9.305"/>
	<path class="st0" d="M1766.905,2371.302c-12.052-10.221-32.749-15.871-54.08-14.763c-21.331,1.108-39.949,8.801-48.647,20.1"/>
	<path class="st0" d="M1638.93,2380.842c4.21,1.63,9.452,2.102,14.322,1.291c4.87-0.811,8.87-2.823,10.929-5.498"/>
	<path class="st0" d="M1592.447,2356.303c0,3.042,2.419,5.915,6.562,7.794"/>
	<path class="st0" d="M1592.449,2295.65c-24.433-9.844-57.744-7.631-77.666,5.16"/>
	<path class="st0" d="M1488.517,2300.307c3.132,2.301,7.864,3.686,12.93,3.783c5.066,0.097,9.947-1.103,13.337-3.279"/>
	<path class="st0" d="M1456.603,2271.737c0,1.966,1.013,3.887,2.909,5.52"/>
	<path class="st0" d="M1456.603,2198.405c-14.713-2.039-30.22-0.738-43.319,3.635"/>
	<path class="st0" d="M1388.57,2196.869c1.746,2.747,5.506,4.908,10.272,5.904c4.766,0.996,10.051,0.726,14.439-0.739"/>
	<path class="st0" d="M1372.671,2167.075c0,0.915,0.219,1.826,0.652,2.706"/>
	<path class="st0" d="M1372.668,2089.666c-1.023,0.094-2.041,0.203-3.054,0.328"/>
	<path class="st0" d="M1348.88,2080.674c0.191,2.924,2.61,5.65,6.609,7.447c3.999,1.798,9.17,2.483,14.127,1.873"/>
	<path class="st0" d="M2638.576,2089.995c4.957,0.61,10.128-0.075,14.127-1.873c3.999-1.797,6.418-4.523,6.609-7.447"/>
	<path class="st0" d="M1683.018,1131.89c-177.329,102.382-177.329,268.376,0,370.758c177.329,102.382,464.835,102.382,642.164,0
		c177.329-102.382,177.329-268.376,0-370.758C2147.853,1029.509,1860.346,1029.509,1683.018,1131.89"/>
	<path class="st0" d="M1791.631,1194.598c-117.343,67.75-117.343,177.593,0,245.343c117.343,67.75,307.594,67.75,424.937,0
		c117.343-67.75,117.343-177.593,0-245.343C2099.225,1126.849,1908.974,1126.849,1791.631,1194.598"/>
	<path class="st0" d="M1397.046,966.785c-335.267,193.567-335.267,507.401,0,700.969s878.841,193.567,1214.108,0
		s335.267-507.401,0-700.969S1732.312,773.218,1397.046,966.785"/>
	<line class="st0" x1="2862.597" y1="2105.885" x2="2862.597" y2="2679.75"/>
	<line class="st0" x1="1145.589" y1="2105.885" x2="1145.589" y2="2679.75"/>
	<line class="st0" x1="2659.774" y1="1733.583" x2="2659.774" y2="2066.43"/>
	<line class="st0" x1="1348.411" y1="1733.583" x2="1348.411" y2="2066.43"/>
	<line class="st0" x1="2325.176" y1="1131.895" x2="2336.746" y2="1138.573"/>
	<line class="st0" x1="1683.01" y1="1131.895" x2="1671.44" y2="1138.573"/>
	<line class="st0" x1="2862.597" y1="1317.273" x2="2862.597" y2="1413.628"/>
	<line class="st0" x1="1145.589" y1="1317.273" x2="1145.589" y2="1413.628"/>
	<line class="st0" x1="2241.284" y1="1889.993" x2="2241.284" y2="2412.498"/>
	<line class="st0" x1="2045.289" y1="1908.719" x2="2045.289" y2="2434.815"/>
	<line class="st0" x1="1962.897" y1="2434.815" x2="1962.897" y2="1908.719"/>
	<line class="st0" x1="1766.902" y1="2412.498" x2="1766.902" y2="1889.993"/>
	<line class="st0" x1="1592.441" y1="2356.307" x2="1592.441" y2="1848.589"/>
	<line class="st0" x1="1456.596" y1="2271.74" x2="1456.596" y2="1795.416"/>
	<line class="st0" x1="1372.664" y1="2167.079" x2="1372.664" y2="1749.453"/>
	<line class="st0" x1="2635.522" y1="1749.453" x2="2635.522" y2="2167.079"/>
	<line class="st0" x1="2551.59" y1="1795.416" x2="2551.59" y2="2271.74"/>
	<line class="st0" x1="2415.745" y1="1848.589" x2="2415.745" y2="2356.307"/>
</g>
<g>
	<path d="M693.689,893.354c16.928,12.821,18.975,27.689,6.159,44.61l-51.897,68.509c-12.823,16.923-27.69,18.977-44.608,6.152
		l-49.643-37.6l22.288-29.425l49.192,37.265l45.775-60.425l-43.576-33.011l-123.232,29.675c-11.663,2.954-22.284,0.795-31.867-6.466
		l-36.392-27.567c-16.918-12.817-18.975-27.687-6.152-44.608l51.213-67.612c12.82-16.918,27.69-18.972,44.611-6.155l43.579,33.011
		l-21.952,28.977l-43.126-32.671l-45.771,60.422l38.183,28.929l123.742-30.349c11.397-2.908,22.117-0.57,32.146,7.033
		L693.689,893.354z"/>
	<path d="M819.172,803.632l-36.258,39.007c-14.328,15.414-29.261,15.896-44.812,1.438L584.749,701.536L562.3,725.684l-24.148-22.447
		l22.445-24.149l-62.541-58.128l25.134-27.041l62.538,58.133l32.613-35.089l24.154,22.444l-32.62,35.093L762.409,816.27
		l32.616-35.084L819.172,803.632z"/>
	<path d="M939.74,651.762c13.986,15.975,13.06,30.886-2.767,44.749l-67.842,59.403c-15.833,13.86-30.737,12.807-44.723-3.165
		L685.74,594.375c-13.983-15.968-13.063-30.884,2.767-44.746l67.842-59.404c15.827-13.855,30.737-12.802,44.723,3.166l64.97,74.204
		l-0.815,18.319l-78.444,68.683l65.344,74.625l60.632-53.09l-33.04-37.736l27.348-23.95L939.74,651.762z M827.743,579.033
		l-54.395-62.121l-60.632,53.093l54.388,62.117L827.743,579.033z"/>
	<path d="M1097.189,508.004c9.501,13.986,12.807,28.719,9.921,44.191c-2.885,15.478-11.246,27.912-25.074,37.306l-51.043,34.68
		l58.437,86.005l-31.003,21.065L845.903,418.452l31.003-21.065l4.275,6.295c11.216-9.89,22.439-19.787,33.661-29.683
		c14.164-12.573,25.676-21.875,34.532-27.891c17.25-11.722,31.627-9.108,43.136,7.828L1097.189,508.004z M1063.021,524.402
		l-98.976-145.674l-67.027,48.266l115.447,169.921l42.886-29.143C1072.285,556.263,1074.845,541.811,1063.021,524.402z"/>
	<path d="M1288.361,436.349c9.754,18.86,5.199,33.165-13.658,42.911l-76.347,39.476c-18.857,9.752-33.159,5.199-42.909-13.659
		l-28.607-55.32l32.794-16.954l28.344,54.818l67.336-34.816l-25.11-48.563l-123.995-26.295
		c-11.798-2.358-20.454-8.881-25.975-19.558l-20.97-40.551c-9.75-18.858-5.202-33.162,13.661-42.914l75.341-38.959
		c18.857-9.747,33.159-5.192,42.912,13.661l25.107,48.565l-32.291,16.694l-24.848-48.062l-67.333,34.815l22.002,42.554
		l124.744,25.912c11.542,2.282,20.207,9.009,25.988,20.189L1288.361,436.349z"/>
	<path d="M1398.015,264.247l-108.188,42.115l-12.678-32.559l108.191-42.12L1398.015,264.247z"/>
	<path d="M1633.651,291.395c4.384,16.326,2.672,31.335-5.133,44.997c-7.808,13.674-19.783,22.675-35.926,27.012l-59.6,16.004
		l26.967,100.425l-36.192,9.719l-98.092-365.219l36.195-9.721l1.972,7.348c13.845-5.664,27.69-11.328,41.539-16.993
		c17.509-7.23,31.437-12.236,41.775-15.012c20.138-5.409,32.866,1.775,38.18,21.547L1633.651,291.395z M1595.99,295.674
		l-45.686-170.091l-79.153,23.592l53.287,198.396l50.073-13.447C1594.288,328.812,1601.449,315.993,1595.99,295.674z"/>
	<path d="M1843.06,285.867c2.971,21.026-5.961,33.004-26.793,35.949l-89.285,12.626c-20.835,2.948-32.735-6.088-35.709-27.109
		l-29.471-208.429c-2.974-21.016,5.955-32.998,26.79-35.945l89.288-12.626c20.828-2.945,32.731,6.093,35.705,27.11l13.812,97.655
		l-10.707,14.892l-103.235,14.598l13.891,98.214l79.801-11.288l-7.026-49.662l35.995-5.09L1843.06,285.867z M1789.073,163.724
		l-11.561-81.751l-79.797,11.285l11.561,81.753L1789.073,163.724z"/>
	<path d="M2036.533,126.272l-36.902,0.937l-1.446-56.623l-68.959,4.013l6.067,238.321l-37.464,0.955l-6.98-274.097l37.47-0.951
		l0.191,7.604c12.35-2.19,24.785-4.479,37.319-6.87c14.966-2.632,27.421-4.082,37.378-4.335c20.658-0.526,31.249,9.45,31.769,29.917
		L2036.533,126.272z"/>
	<path d="M2202.237,170.79l-115.756-8.957l2.695-34.836l115.753,8.955L2202.237,170.79z"/>
	<path d="M2503.333,382.397l-36.563-8.227l52.811-234.782l-80.225-15.731l-52.314,232.587l-36.291-8.165l52.811-234.787
		l-80.225-15.731l-52.311,232.583l-36.57-8.224l60.169-267.5l36.566,8.224l-1.673,7.424c14.709,1.384,29.439,2.675,44.191,3.871
		c17.904,1.719,32.541,3.853,43.905,6.412c11.173,2.511,18.659,7.762,22.455,15.738c15.85,1.446,31.624,2.779,47.332,4.003
		c20.556,1.926,35.962,4.042,46.231,6.351c20.158,4.537,27.993,16.795,23.5,36.77L2503.333,382.397z"/>
	<path d="M2794.737,506.176l-34.246-15.232l97.806-219.879l-75.584-31.154l-96.886,217.82l-33.987-15.115l97.806-219.882
		l-75.584-31.152l-96.886,217.82l-34.243-15.229l111.431-250.52l34.243,15.23l-3.089,6.952c14.147,4.239,28.338,8.392,42.564,12.458
		c17.227,5.194,31.154,10.155,41.801,14.89c10.467,4.657,16.777,11.27,18.932,19.833c15.258,4.525,30.467,8.929,45.63,13.204
		c19.777,5.919,34.473,11.016,44.089,15.294c18.88,8.398,24.161,21.956,15.84,40.658L2794.737,506.176z"/>
	<path d="M2869.779,553.703l-36.938-21.691l25.114-42.766l36.938,21.689L2869.779,553.703z"/>
	<path d="M3060.417,684.059l-56.869-40.618l24.171-92.509l-80.58,52.219l-55.956-39.961l0.654-0.917l140.462-78.361l29.576-148.561
		l54.112,38.655l-22.761,85.203l74.359-48.358l52.971,37.835l-0.657,0.917l-129.946,74.791L3060.417,684.059z"/>
	<path d="M3407.076,616.875L3163.98,774.731l-93.156,60.471l-48.41-44.772l93.856-57.904l138.747-256.274l48.617,44.958
		l-99.528,162.817l154.56-111.921L3407.076,616.875z"/>
	<path d="M3330.503,963.922l-110.866-130.626l29.005-24.618l209.08-53.267l-56.347-66.386l40.175-34.095l105.943,124.823
		l-29.218,24.8l-209.445,52.835l61.634,72.617L3330.503,963.922z"/>
	<path d="M3368.062,1149.167l-14.036-22.62l339.66-210.705l14.029,22.621L3368.062,1149.167z"/>
	<path d="M3596.701,1378.781c-19.51,8.375-33.451,2.808-41.824-16.699l-33.908-78.973c-8.377-19.507-2.813-33.446,16.694-41.821
		l57.228-24.572l14.565,33.918l-56.708,24.348l29.905,69.654l50.234-21.571l35.104-121.795
		c3.198-11.596,10.322-19.764,21.374-24.509l41.946-18.012c19.501-8.37,33.445-2.81,41.821,16.698l33.468,77.941
		c8.374,19.501,2.806,33.446-16.698,41.821l-50.234,21.571l-14.341-33.405l49.711-21.344l-29.905-69.654l-44.017,18.903
		l-34.772,122.572c-3.099,11.346-10.437,19.502-21.999,24.468L3596.701,1378.781z"/>
	<path d="M3612.913,1532.268l-16.063-50.783c-6.343-20.059,0.605-33.29,20.845-39.688l199.625-63.136l-9.938-31.437l31.43-9.941
		l9.944,31.437l81.408-25.748l11.134,35.196l-81.411,25.745l14.446,45.678l-31.433,9.943l-14.447-45.679l-198.554,62.797
		l14.447,45.673L3612.913,1532.268z"/>
	<path d="M3685.773,1712.076c-20.789,4.315-33.316-3.833-37.585-24.433l-18.321-88.293c-4.275-20.605,3.98-33.062,24.769-37.373
		l206.109-42.758c20.786-4.308,33.316,3.833,37.592,24.433l18.314,88.297c4.272,20.6-3.983,33.058-24.765,37.372l-96.571,20.03
		l-15.544-9.723l-21.18-102.092l-97.126,20.148l16.372,78.915l49.114-10.191l7.384,35.594L3685.773,1712.076z M3804.207,1650.384
		l80.843-16.771l-16.366-78.915l-80.849,16.772L3804.207,1650.384z"/>
	<path d="M3733.467,1919.892c-16.852,1.393-31.305-2.981-43.353-13.102c-12.054-10.132-18.765-23.526-20.138-40.188l-5.074-61.504
		l-103.636,8.553l-3.076-37.349l376.884-31.105l3.083,37.354l-7.585,0.624c3.089,14.635,6.185,29.272,9.277,43.91
		c3.98,18.518,6.412,33.119,7.292,43.79c1.716,20.782-7.634,32.015-28.039,33.698L3733.467,1919.892z M3736,1882.08l175.523-14.488
		l-9.037-82.099l-204.729,16.893l4.266,51.678C3703.706,1874.466,3715.031,1883.807,3736,1882.08z"/>
	<path d="M3701.629,2121.421c-21.216-0.81-31.417-11.822-30.608-33.035l3.28-85.88c0.808-21.216,11.817-31.417,33.034-30.607
		l62.232,2.374l-1.406,36.887l-61.667-2.351l-2.892,75.744l54.628,2.085l83.991-94.929c7.864-9.101,17.808-13.421,29.823-12.963
		l45.614,1.74c21.216,0.81,31.42,11.818,30.608,33.032l-3.234,84.763c-0.809,21.208-11.824,31.41-33.034,30.602l-54.628-2.083
		l1.387-36.323l54.066,2.064l2.889-75.749l-47.871-1.827l-84.027,95.776c-7.667,8.914-17.795,13.138-30.372,12.659
		L3701.629,2121.421z"/>
	<path d="M3797.125,2301.692l16.829-114.875l34.572,5.061l-16.826,114.875L3797.125,2301.692z"/>
	<path d="M3656.89,2493.161c-16.362-4.272-28.551-13.188-36.56-26.737c-8.015-13.549-9.908-28.41-5.682-44.585l15.597-59.712
		l-100.606-26.277l9.471-36.261l365.895,95.572l-9.478,36.261l-7.361-1.919c-1.932,14.828-3.865,29.662-5.797,44.5
		c-2.389,18.794-4.933,33.372-7.637,43.734c-5.271,20.174-17.818,27.674-37.628,22.501L3656.89,2493.161z M3671.816,2458.323
		l170.4,44.513l18.686-80.458l-198.758-51.917l-13.106,50.165C3643.863,2440.436,3651.454,2453.006,3671.816,2458.323z"/>
	<path d="M3558.022,2677.938c-19.741-7.815-25.735-21.509-17.989-41.065l33.195-83.846c7.749-19.563,21.486-25.436,41.223-17.621
		l195.718,77.491c19.738,7.815,25.735,21.502,17.989,41.065l-33.191,83.84c-7.746,19.563-21.492,25.439-41.226,17.628
		l-91.704-36.307l-7.644-16.668l38.381-96.942l-92.223-36.514l-29.672,74.934l46.635,18.462l-13.378,33.803L3558.022,2677.938z
		 M3690.876,2691.442l76.768,30.391l29.668-74.934l-76.768-30.392L3690.876,2691.442z"/>
	<path d="M3601.463,2924.952l17.378-32.57l49.971,26.661l30.51-61.969L3488.99,2744.85l17.641-33.063l241.906,129.062
		l-17.641,33.063l-6.71-3.575c-4.18,11.824-8.321,23.77-12.422,35.85c-5.084,14.322-9.971,25.873-14.657,34.66
		c-9.727,18.229-23.628,22.524-41.69,12.889L3601.463,2924.952z"/>
	<path d="M3481.126,3047.211l64.805-96.334l28.988,19.504l-64.799,96.331L3481.126,3047.211z"/>
	<path d="M3148.765,3204.982l25.163-27.772l178.34,161.58l53.198-62.071l-176.667-160.068l24.972-27.565l178.34,161.58
		l53.198-62.071l-176.667-160.072l25.163-27.769l203.188,184.097l-25.167,27.772l-5.633-5.11
		c-8.452,12.12-16.826,24.302-25.13,36.55c-10.315,14.739-19.379,26.422-27.204,35.058c-7.693,8.489-15.942,12.419-24.755,11.795
		c-9.064,13.079-17.992,26.152-26.79,39.225c-11.801,16.938-21.229,29.307-28.298,37.105c-13.872,15.311-28.404,16.093-43.576,2.346
		L3148.765,3204.982z"/>
	<path d="M2897.022,3398.817l29.978-22.491l144.439,192.484l64.01-50.852l-143.088-190.683l29.754-22.327l144.442,192.484
		l64.007-50.852l-143.085-190.68l29.974-22.495l164.571,219.307l-29.981,22.491l-4.565-6.086
		c-10.595,10.299-21.131,20.671-31.607,31.121c-12.922,12.514-24.039,22.268-33.356,29.258c-9.169,6.875-18.015,9.169-26.546,6.885
		c-11.38,11.121-22.629,22.265-33.75,33.428c-14.798,14.391-26.405,24.746-34.821,31.062c-16.527,12.403-30.94,10.411-43.228-5.965
		L2897.022,3398.817z"/>
	<path d="M2818.842,3438.706l37.132-21.351l24.723,42.995l-37.128,21.351L2818.842,3438.706z"/>
	<path d="M2611.244,3539.91l63.422-29.343l68.46,66.748l-5.547-95.861l62.403-28.877l0.473,1.025l-1.341,160.834l114.504,99.164
		l-60.353,27.927l-62.804-61.917l5.261,88.546l-59.074,27.332l-0.473-1.022l-0.759-149.93L2611.244,3539.91z"/>
	<path d="M2498.535,3874.704l-17.457-289.324l-6.671-110.863l62.821-20.036l4.095,110.202l154.534,247.082l-63.09,20.125
		l-92.565-166.874l21.154,189.651L2498.535,3874.704z"/>
	<path d="M2234.354,3637.204l168.268-32.235l7.157,37.362l-56.518,208.225l85.519-16.382l9.915,51.756l-160.798,30.799l-7.21-37.638
		l57.07-208.331l-93.544,17.917L2234.354,3637.204z"/>
	<path d="M2054.653,3578.748l26.596-1.078l16.231,399.375l-26.599,1.081L2054.653,3578.748z"/>
	<path d="M1742.325,3664.444c2.346-21.101,14.072-30.474,35.17-28.131l85.42,9.497c21.098,2.346,30.474,14.069,28.124,35.17
		l-6.881,61.89l-36.688-4.075l6.822-61.335l-75.338-8.38l-6.043,54.332l88.588,90.659c8.508,8.505,12.094,18.732,10.763,30.687
		l-5.045,45.364c-2.346,21.098-14.065,30.477-35.166,28.131l-84.3-9.373c-21.098-2.346-30.477-14.072-28.127-35.17l6.04-54.332
		l36.129,4.016l-5.981,53.773l75.338,8.383l5.294-47.615l-89.426-90.751c-8.337-8.298-11.814-18.709-10.421-31.21L1742.325,3664.444
		z"/>
	<path d="M1600.989,3602.606l52.078,11.164c20.572,4.41,28.63,16.993,24.181,37.75l-43.898,204.716l32.235,6.914l-6.914,32.239
		l-32.235-6.914l-17.904,83.485l-36.097-7.736l17.904-83.485l-46.836-10.043l6.911-32.239l46.839,10.043l43.665-203.618
		l-46.839-10.043L1600.989,3602.606z"/>
	<path d="M1408.731,3576.884c6.546-20.201,19.829-27.046,39.843-20.562l85.778,27.805c20.017,6.487,26.754,19.826,20.207,40.024
		l-64.904,200.24c-6.546,20.198-19.823,27.049-39.84,20.566l-85.782-27.809c-20.013-6.487-26.754-19.829-20.204-40.02l30.408-93.823
		l16.149-8.689l99.183,32.146l30.582-94.356l-76.666-24.848l-15.465,47.714l-34.582-11.213L1408.731,3576.884z M1403.694,3710.33
		l-25.459,78.542l76.669,24.844l25.456-78.542L1403.694,3710.33z"/>
	<path d="M1204.433,3515.664c7.108-15.341,18.045-25.755,32.8-31.233c14.759-5.481,29.718-4.706,44.887,2.327l55.992,25.948
		l43.724-94.343l34,15.758l-159.01,343.111l-34-15.761l3.194-6.905c-14.249-4.535-28.505-9.067-42.764-13.605
		c-18.068-5.685-31.966-10.772-41.68-15.281c-18.919-8.765-24.072-22.442-15.465-41.02L1204.433,3515.664z M1236.067,3536.532
		l-74.053,159.799l75.857,32.672l86.38-186.385l-47.043-21.801C1258.63,3512.207,1244.917,3517.445,1236.067,3536.532z"/>
	<path d="M1044.677,3388.636c11.157-18.061,25.765-21.515,43.826-10.365l73.126,45.167c18.061,11.154,21.515,25.758,10.358,43.819
		l-32.725,52.988l-31.404-19.396l32.422-52.508l-64.49-39.833l-28.729,46.514l41.236,119.861c4.049,11.324,2.905,22.107-3.411,32.34
		l-23.99,38.837c-11.154,18.062-25.758,21.519-43.819,10.362l-72.17-44.568c-18.058-11.154-21.515-25.765-10.358-43.826
		l28.725-46.511l30.927,19.1l-28.43,46.038l64.497,39.83l25.166-40.763l-41.953-120.298c-3.976-11.072-2.662-21.966,3.95-32.676
		L1044.677,3388.636z"/>
	<path d="M840.75,3382.994l91.694,71.21l-21.433,27.598l-91.694-71.214L840.75,3382.994z"/>
	<path d="M743.2,3166.648c11.778-12.133,25.538-18.347,41.272-18.646c15.741-0.299,29.606,5.373,41.601,17.02l44.279,42.988
		l72.433-74.605l26.888,26.106l-263.425,271.328l-26.888-26.106l5.301-5.458c-11.952-8.988-23.911-17.982-35.87-26.97
		c-15.176-11.334-26.612-20.733-34.296-28.19c-14.959-14.529-15.307-29.136-1.045-43.826L743.2,3166.648z M766.161,3196.796
		l-122.68,126.361l60.809,55.896l143.098-147.39l-37.201-36.116C795.495,3181.285,780.822,3181.699,766.161,3196.796z"/>
	<path d="M631.368,2989.567c16.54-13.306,31.404-11.758,44.595,4.637l56.517,70.261c13.191,16.395,11.515,31.239-5.028,44.549
		l-164.018,131.938c-16.537,13.31-31.404,11.768-44.595-4.63l-56.517-70.26c-13.188-16.389-11.515-31.246,5.028-44.549
		l76.846-61.822l18.272,1.581l65.351,81.24l77.287-62.173l-50.517-62.798l-39.081,31.437l-22.787-28.321L631.368,2989.567z
		 M554.029,3098.435l-64.336,51.749l50.517,62.801l64.332-51.752L554.029,3098.435z"/>
	<path d="M395.229,2904.981l19.695,31.219l-47.907,30.214l38.735,57.195l201.643-127.179l19.994,31.703l-231.91,146.269
		l-19.997-31.699l6.438-4.062c-8.203-9.487-16.533-18.998-25.002-28.538c-9.921-11.509-17.539-21.473-22.853-29.899
		c-11.022-17.48-7.874-31.683,9.445-42.603L395.229,2904.981z"/>
	<path d="M348.574,2739.951l51.65,103.978l-31.292,15.547l-51.654-103.975L348.574,2739.951z"/>
	<path d="M375.419,2373.08l11.752,35.587l-228.521,75.45l27.763,76.896l226.379-74.747l11.66,35.328l-228.515,75.443l27.763,76.892
		l226.375-74.737l11.748,35.587l-260.359,85.959l-11.752-35.587l7.223-2.389c-6.372-13.323-12.84-26.619-19.396-39.882
		c-7.739-16.241-13.431-29.889-17.085-40.954c-3.592-10.878-2.938-19.997,1.949-27.352c-6.908-14.338-13.878-28.548-20.907-42.656
		c-8.916-18.617-15.025-32.922-18.324-42.912c-6.477-19.622,0.007-32.646,19.448-39.067L375.419,2373.08z"/>
	<path d="M330.45,2058.478l4.837,37.168l-238.64,31.064l12.787,80.745l236.402-30.776l4.801,36.885l-238.64,31.065l12.787,80.744
		l236.402-30.773l4.837,37.165L94.13,2367.161l-4.834-37.165l7.545-0.986c-3.753-14.289-7.601-28.561-11.541-42.827
		c-4.542-17.404-7.565-31.88-9.067-43.431c-1.479-11.361,0.877-20.194,7.066-26.501c-4.085-15.38-8.252-30.654-12.504-45.827
		c-5.248-19.964-8.554-35.163-9.911-45.595c-2.668-20.492,6.155-32.059,26.458-34.705L330.45,2058.478z"/>
	<path d="M334.236,1970.833l0.299,42.83l-49.597,0.348l-0.299-42.833L334.236,1970.833z"/>
	<path d="M348.57,1740.346l-5.767,69.646l-91.835,26.609l86.12,42.475l-5.672,68.522l-1.124-0.09l-139.24-80.519l-142.743,50.673
		l5.482-66.276l84.845-24.079l-79.613-39.105l5.37-64.873l1.124,0.089l130.787,73.317L348.57,1740.346z"/>
	<path d="M113.332,1477.016l260.076,127.955l99.65,49.043l-13.661,64.508l-97.8-50.954L70.42,1679.643l13.72-64.787l190.815,2.103
		l-175.287-75.433L113.332,1477.016z"/>
	<path d="M450.531,1364.944l-55.298,162.165l-36.004-12.278l-152.94-152.193l-28.104,82.412l-49.873-17.003l52.843-154.961
		l36.267,12.37l152.76,152.723l30.743-90.153L450.531,1364.944z"/>
	<path d="M590.171,1237.312l-12.179,23.673l-355.431-182.836l12.172-23.673L590.171,1237.312z"/>
</g>
</svg>
