<?xml version="1.0" encoding="utf-8"?>
<!-- Generator: Adobe Illustrator 22.1.0, SVG Export Plug-In . SVG Version: 6.00 Build 0)  -->
<svg version="1.1" id="Layer_1" xmlns="http://www.w3.org/2000/svg" xmlns:xlink="http://www.w3.org/1999/xlink" x="0px" y="0px"
	 viewBox="0 0 4000 371.167" style="enable-background:new 0 0 4000 371.167;" xml:space="preserve">
<style type="text/css">
	.st0{fill:#020203;}
	.st1{fill:#E52521;}
</style>
<g>
	<path class="st0" d="M144.986,53.313h-36.744v218.944H87.138V53.313H50.09V34.638h94.896V53.313z"/>
	<path class="st0" d="M252.181,272.258h-20.194V142.592l-44.487,1.215v128.451h-20.194V34.638H187.5v93.985
		c7.995-1.011,15.992-2.024,23.99-3.037c10.121-1.314,18.068-1.974,23.838-1.974c11.235,0,16.854,5.518,16.854,16.55V272.258z"/>
	<path class="st0" d="M367.422,255.1c0,11.44-5.67,17.157-17.005,17.157H301.83c-11.338,0-17.005-5.717-17.005-17.157v-113.42
		c0-11.437,5.668-17.157,17.005-17.157h48.587c11.335,0,17.005,5.72,17.005,17.157v53.142l-6.833,7.136h-56.179v53.445h43.424
		v-27.027h19.587V255.1z M347.836,185.864v-44.487h-43.424v44.487H347.836z"/>
	<path class="st0" d="M478.109,173.11h-19.89v-30.518l-37.199,1.215v128.451h-20.194V124.524h20.194v4.099
		c6.681-1.011,13.411-2.073,20.194-3.188c8.097-1.215,14.828-1.822,20.194-1.822c11.134,0,16.702,5.518,16.702,16.55V173.11z"/>
	<path class="st0" d="M586.367,255.1c0,11.44-5.67,17.157-17.005,17.157h-48.587c-11.337,0-17.005-5.717-17.005-17.157v-113.42
		c0-11.437,5.668-17.157,17.005-17.157h48.587c11.335,0,17.005,5.72,17.005,17.157v53.142l-6.833,7.136h-56.179v53.445h43.424
		v-27.027h19.587V255.1z M566.78,185.864v-44.487h-43.424v44.487H566.78z"/>
	<path class="st0" d="M702.064,92.183h-20.498V66.675h20.498V92.183z M701.76,272.258h-19.89V124.524h19.89V272.258z"/>
	<path class="st0" d="M815.636,255.1c0,11.44-5.72,17.157-17.157,17.157h-46.309c-11.44,0-17.157-5.717-17.157-17.157v-33.555h19.89
		v33.251h40.843v-29.456l-52.838-43.273c-5.063-4.047-7.592-9.312-7.592-15.791v-24.597c0-11.437,5.718-17.157,17.157-17.157h45.702
		c11.437,0,17.157,5.72,17.157,17.157v29.456h-19.587v-29.152h-40.843v25.812l53.294,43.273c4.958,3.948,7.44,9.314,7.44,16.094
		V255.1z"/>
	<path class="st0" d="M993.433,272.258h-20.193V142.592l-44.488,1.215v128.451h-20.193V124.524h20.193v4.099
		c7.896-1.011,15.841-2.073,23.838-3.188c9.718-1.215,17.712-1.822,23.99-1.822c11.235,0,16.853,5.518,16.853,16.55V272.258z"/>
	<path class="st0" d="M1110.952,255.1c0,11.44-5.719,17.157-17.157,17.157h-50.712c-11.338,0-17.005-5.717-17.005-17.157v-113.42
		c0-11.437,5.668-17.157,17.005-17.157h50.712c11.437,0,17.157,5.72,17.157,17.157V255.1z M1090.758,254.493V142.288h-44.488
		v112.205H1090.758z"/>
	<path class="st0" d="M1299.833,253.279c0,12.654-6.429,18.979-19.283,18.979h-60.278c-13.058,0-19.587-6.325-19.587-18.979V137.885
		c0-12.652,6.529-18.979,19.587-18.979h60.278c12.854,0,19.283,6.327,19.283,18.979v36.44h-33.859v-26.419h-31.126v95.503h31.126
		v-29.304h33.859V253.279z"/>
	<path class="st0" d="M1425.856,253.279c0,12.654-6.429,18.979-19.283,18.979h-62.252c-13.058,0-19.587-6.325-19.587-18.979V137.885
		c0-12.652,6.529-18.979,19.587-18.979h62.252c12.854,0,19.283,6.327,19.283,18.979V253.279z M1391.844,243.409v-95.503h-32.948
		v95.503H1391.844z"/>
	<path class="st0" d="M1620.051,272.258h-34.466V147.906l-32.644,0.607v123.744h-34.618V147.906l-32.644,0.607v123.744h-34.77
		V118.906h34.77v5.618c8.097-1.314,16.145-2.631,24.142-3.948c9.817-1.519,17.966-2.278,24.445-2.278
		c7.995,0,13.157,2.278,15.487,6.833c8.503-1.314,17.005-2.681,25.508-4.099c11.235-1.822,19.838-2.733,25.812-2.733
		c12.652,0,18.979,6.225,18.979,18.675V272.258z"/>
	<path class="st0" d="M1747.287,241.435c0,12.451-4.455,21.157-13.361,26.115c-6.479,3.544-16.298,5.314-29.456,5.314
		c-3.036,0-7.314-0.102-12.83-0.304c-5.518-0.204-9.489-0.304-11.919-0.304v56.027h-34.77V118.906h34.77v5.618
		c8.097-1.215,16.194-2.479,24.294-3.796c10.223-1.618,18.32-2.429,24.293-2.429c12.652,0,18.979,6.225,18.979,18.675V241.435z
		 M1712.365,231.87v-83.964l-32.644,0.607v94.896h21.56C1708.669,243.409,1712.365,239.564,1712.365,231.87z"/>
	<path class="st0" d="M1871.031,253.279c0,12.654-6.529,18.979-19.586,18.979h-59.974c-13.058,0-19.587-6.325-19.587-18.979V137.885
		c0-12.652,6.529-18.979,19.587-18.979h59.974c13.057,0,19.586,6.327,19.586,18.979v56.33l-9.565,9.566h-56.33v42.969h32.644
		v-25.508h33.251V253.279z M1837.78,181.158v-36.744h-32.644v36.744H1837.78z"/>
	<path class="st0" d="M1998.571,272.258h-34.922V147.906l-32.644,0.607v123.744h-34.77V118.906h34.77v5.618
		c8.097-1.314,16.145-2.581,24.142-3.796c9.919-1.618,18.069-2.429,24.445-2.429c12.652,0,18.979,6.225,18.979,18.675V272.258z"/>
	<path class="st0" d="M2119.887,253.279c0,12.654-6.429,18.979-19.283,18.979h-58.456c-12.856,0-19.283-6.325-19.283-18.979v-32.948
		h33.252v25.812h30.518v-24.293l-53.294-31.43c-6.984-4.149-10.477-9.717-10.477-16.702v-35.833
		c0-12.652,6.529-18.979,19.587-18.979h57.849c12.854,0,19.283,6.327,19.283,18.979v30.822h-32.948v-23.686h-30.518v22.168
		l53.142,31.126c7.084,4.05,10.628,9.717,10.628,17.005V253.279z"/>
	<path class="st0" d="M2243.024,272.258h-33.252v-5.314c-7.895,1.215-15.791,2.429-23.686,3.644
		c-10.324,1.518-18.17,2.277-23.534,2.277c-12.655,0-18.979-6.225-18.979-18.676v-55.267c0-12.652,6.529-18.979,19.587-18.979
		h46.917v-35.225h-33.252v21.864h-31.429v-28.696c0-12.652,6.529-18.979,19.587-18.979h58.76c12.854,0,19.283,6.327,19.283,18.979
		V272.258z M2210.076,244.624v-41.147h-33.252v42.362L2210.076,244.624z"/>
	<path class="st0" d="M2334.125,272.258h-38.566c-12.856,0-19.283-6.325-19.283-18.979V148.513h-16.398v-29.608h16.398V77.303
		h34.618v41.603h22.319v29.608h-22.319v94.137h23.23V272.258z"/>
	<path class="st0" d="M2388.784,96.89h-34.77V61.057h34.77V96.89z M2388.48,272.258h-34.162V118.906h34.162V272.258z"/>
	<path class="st0" d="M2516.628,272.258h-34.922V147.906l-32.644,0.607v123.744h-34.77V118.906h34.77v5.618
		c8.097-1.314,16.145-2.581,24.142-3.796c9.919-1.618,18.069-2.429,24.445-2.429c12.652,0,18.979,6.225,18.979,18.675V272.258z"/>
	<path class="st0" d="M2643.257,309.305c0,12.652-6.529,18.979-19.586,18.979h-60.429c-13.058,0-19.586-6.327-19.586-18.979v-24.597
		h33.555v18.372h31.43v-31.733h-35.681c-9.717,0-17.437-2.733-23.155-8.199c-5.72-5.466-8.579-13.005-8.579-22.623v-93.833
		c0-8.806,2.479-15.739,7.44-20.801c4.958-5.06,11.791-7.592,20.498-7.592c4.351,0,17.51,2.076,39.476,6.225v-5.618h34.618V309.305z
		 M2608.639,243.409V149.12c-11.641-1.215-18.88-1.822-21.712-1.822c-7.492,0-11.235,3.696-11.235,11.084v73.488
		c0,7.694,3.845,11.539,11.539,11.539H2608.639z"/>
	<path class="st0" d="M2789.322,52.403h-28.545v72.121h25.204v17.765h-25.204v129.97h-19.89v-129.97h-17.157v-17.765h17.157V51.795
		c0-11.437,5.668-17.157,17.005-17.157h31.43V52.403z"/>
	<path class="st0" d="M2892.265,255.1c0,11.44-5.719,17.157-17.157,17.157h-50.712c-11.338,0-17.005-5.717-17.005-17.157v-113.42
		c0-11.437,5.667-17.157,17.005-17.157h50.712c11.438,0,17.157,5.72,17.157,17.157V255.1z M2872.071,254.493V142.288h-44.488
		v112.205H2872.071z"/>
	<path class="st0" d="M3002.496,173.11h-19.89v-30.518l-37.199,1.215v128.451h-20.194V124.524h20.194v4.099
		c6.681-1.011,13.411-2.073,20.194-3.188c8.097-1.215,14.828-1.822,20.194-1.822c11.134,0,16.702,5.518,16.702,16.55V173.11z"/>
	<path class="st1" d="M3168.603,255.1c0,11.44-5.72,17.157-17.157,17.157h-46.309c-11.44,0-17.157-5.717-17.157-17.157v-33.555
		h19.89v33.251h40.843v-29.456l-52.838-43.273c-5.063-4.047-7.592-9.312-7.592-15.791v-24.597c0-11.437,5.718-17.157,17.157-17.157
		h45.702c11.438,0,17.157,5.72,17.157,17.157v29.456h-19.587v-29.152h-40.843v25.812l53.294,43.273
		c4.958,3.948,7.44,9.314,7.44,16.094V255.1z"/>
	<path class="st1" d="M3253.781,272.258h-28.697c-11.337,0-17.005-5.717-17.005-17.157V142.288h-17.764v-17.765h17.764V78.518h19.89
		v46.006h25.812v17.765h-25.812v112.205h25.812V272.258z"/>
	<path class="st1" d="M3364.164,272.258h-19.89v-4.099c-8.1,1.115-16.147,2.178-24.142,3.188
		c-9.718,1.215-17.765,1.822-24.142,1.822c-10.932,0-16.398-5.466-16.398-16.398V124.524h19.89v129.666l44.791-1.215V124.524h19.89
		V272.258z"/>
	<path class="st1" d="M3481.987,240.524c0,9.11-2.987,16.678-8.958,22.699c-5.974,6.023-13.463,9.034-22.471,9.034h-33.252v56.027
		h-20.194V124.524h20.194v4.099c7.995-1.011,15.992-2.024,23.99-3.037c10.121-1.314,18.068-1.974,23.838-1.974
		c11.236,0,16.853,5.518,16.853,16.55V240.524z M3461.793,237.488v-94.896l-44.488,1.215v110.687h27.938
		C3456.275,254.493,3461.793,248.826,3461.793,237.488z"/>
	<path class="st1" d="M3535.736,92.183h-20.498V66.675h20.498V92.183z M3535.433,272.258h-19.89V124.524h19.89V272.258z"/>
	<path class="st1" d="M3653.711,272.258h-20.042v-4.099c-21.662,3.34-33.657,5.011-35.984,5.011c-8.604,0-15.539-2.909-20.802-8.731
		c-5.264-5.819-7.895-13.081-7.895-21.788v-86.393c0-9.11,2.985-16.676,8.958-22.699c5.971-6.021,13.461-9.034,22.471-9.034h33.252
		V34.638h20.042V272.258z M3633.669,253.886V142.288h-27.937c-11.136,0-16.702,5.72-16.702,17.157v78.953
		c0,11.338,5.565,17.005,16.702,17.005C3608.363,255.404,3617.674,254.899,3633.669,253.886z"/>
	<path class="st1" d="M3708.371,92.183h-20.498V66.675h20.498V92.183z M3708.067,272.258h-19.89V124.524h19.89V272.258z"/>
	<path class="st1" d="M3795.523,272.258h-28.697c-11.337,0-17.005-5.717-17.005-17.157V142.288h-17.764v-17.765h17.764V78.518h19.89
		v46.006h25.812v17.765h-25.812v112.205h25.812V272.258z"/>
	<path class="st1" d="M3904.54,124.524l-35.529,146.52l-14.729,57.241h-19.89l14.879-57.241l-36.44-146.52h20.801l25.204,116.305
		l25.508-116.305H3904.54z"/>
	<path class="st0" d="M3950.09,272.258h-23.078v-26.723h23.078V272.258z"/>
</g>
</svg>
