<?xml version="1.0" encoding="utf-8"?>
<!-- Generator: Adobe Illustrator 22.1.0, SVG Export Plug-In . SVG Version: 6.00 Build 0)  -->
<svg version="1.1" id="Layer_1" xmlns="http://www.w3.org/2000/svg" xmlns:xlink="http://www.w3.org/1999/xlink" x="0px" y="0px"
	 viewBox="0 0 2155.6 4000" style="enable-background:new 0 0 2155.6 4000;" xml:space="preserve">
<style type="text/css">
	.st0{fill:none;stroke:#000000;stroke-width:14.1732;stroke-linecap:round;stroke-linejoin:round;stroke-miterlimit:10;}
	.st1{fill:#020203;}
</style>
<g id="Graphics">
	<line class="st0" x1="1639.777" y1="853.533" x2="1632.971" y2="852.104"/>
	<path class="st0" d="M1629.011,848.82c0,1.465,1.587,2.774,3.971,3.275"/>
	<line class="st0" x1="1629.001" y1="848.825" x2="1629.001" y2="834.032"/>
	<path class="st0" d="M1629.941,830.809c-0.608,0.964-0.93,2.08-0.93,3.219"/>
	<line class="st0" x1="1629.932" y1="830.811" x2="1639.777" y2="815.203"/>
	<line class="st0" x1="1414.055" y1="825.979" x2="1414.055" y2="865.43"/>
	<path class="st0" d="M1414.059,865.422c-0.001,2.721,0.922,3.461,2.06,1.652"/>
	<line class="st0" x1="1416.117" y1="867.079" x2="1417.353" y2="865.124"/>
	<line class="st0" x1="1436.777" y1="790.938" x2="1436.777" y2="789.94"/>
	<path class="st0" d="M1436.773,789.939c0.001-2.721-0.922-3.461-2.06-1.652"/>
	<line class="st0" x1="1434.706" y1="788.282" x2="1416.117" y2="817.772"/>
	<path class="st0" d="M1416.123,817.768c-1.139,1.808-2.063,5.481-2.063,8.202"/>
	<line class="st0" x1="1414.88" y1="868.067" x2="1397.853" y2="864.481"/>
	<line class="st0" x1="1393.059" y1="819.124" x2="1393.059" y2="858.575"/>
	<line class="st0" x1="1435.953" y1="787.304" x2="1418.926" y2="783.728"/>
	<path class="st0" d="M1393.999,815.901c-0.608,0.964-0.93,2.079-0.93,3.218"/>
	<path class="st0" d="M1393.069,858.571c0,2.855,2,5.319,4.794,5.906"/>
	<line class="st0" x1="1412.579" y1="786.422" x2="1393.989" y2="815.903"/>
	<path class="st0" d="M1418.934,783.722c-2.469-0.519-5.001,0.553-6.346,2.688"/>
	<line class="st0" x1="1781.554" y1="2490.921" x2="1869.047" y2="2509.3"/>
	<line class="st0" x1="1660.592" y1="2682.8" x2="1663.775" y2="2686.232"/>
	<polyline class="st0" points="1869.047,2509.3 1928.066,2572.988 1928.066,2720.919 1869.047,2759.795 1781.554,2741.417 	"/>
	<polyline class="st0" points="1738.517,2567.676 1829.318,2586.755 1829.318,2665.648 	"/>
	<polyline class="st0" points="1994.516,2365.021 2032.999,2406.543 1928.066,2572.988 	"/>
	<polyline class="st0" points="2032.999,2406.543 2032.999,2554.475 1928.066,2720.919 	"/>
	<line class="st0" x1="2099.927" y1="2499.578" x2="2032.999" y2="2605.757"/>
	<line class="st0" x1="562.995" y1="2296.855" x2="1496.851" y2="2493.088"/>
	<line class="st0" x1="1607.603" y1="2516.365" x2="1612.32" y2="2517.353"/>
	<line class="st0" x1="2004.448" y1="2599.755" x2="2032.999" y2="2605.757"/>
	<polyline class="st0" points="2099.927,2499.578 2099.927,495.612 2032.999,601.79 2032.999,2605.757 	"/>
	<polyline class="st0" points="2099.927,495.612 370.185,132.13 303.247,238.309 2032.999,601.79 	"/>
	<line class="st0" x1="303.247" y1="238.309" x2="303.247" y2="289.591"/>
	<path class="st0" d="M735.684,2157.79c-31.846-6.693-57.662,10.312-57.661,37.981c0,27.67,25.817,55.527,57.663,62.22
		c31.846,6.693,57.662-10.312,57.661-37.982C793.346,2192.34,767.53,2164.483,735.684,2157.79"/>
	<path class="st0" d="M879.829,2025.256c-31.846-6.693-57.662,10.312-57.661,37.982c0,27.67,25.817,55.527,57.663,62.22
		c31.846,6.693,57.662-10.312,57.661-37.981C937.491,2059.806,911.674,2031.949,879.829,2025.256"/>
	<path class="st0" d="M1023.983,2218.372c-31.846-6.693-57.662,10.312-57.661,37.982c0,27.67,25.817,55.527,57.663,62.22
		c31.846,6.693,57.662-10.312,57.661-37.981C1081.645,2252.922,1055.828,2225.065,1023.983,2218.372"/>
	<path class="st0" d="M1496.853,2236.589c-42.441-32.39-98.23-37.243-131.495-11.439c-33.264,25.804-34.1,74.584-1.97,114.972
		c32.13,40.388,87.661,60.361,130.884,47.075c43.223-13.286,61.271-55.875,42.538-100.381"/>
	<path class="st0" d="M1414.889,2208.674c18.785,42.424,65.916,74.205,113.167,76.312"/>
	<polyline class="st0" points="1048.311,1755.54 1050.372,1752.261 1050.372,1870.606 1048.311,1873.885 1048.311,1755.54 
		906.439,1725.724 906.439,1844.069 1048.311,1873.885 	"/>
	<line class="st0" x1="1542.381" y1="772.923" x2="1542.381" y2="713.75"/>
	<path class="st0" d="M1546.518,697.339c-2.28,3.619-4.128,10.966-4.129,16.411"/>
	<line class="st0" x1="1546.513" y1="697.337" x2="1575.428" y2="651.462"/>
	<path class="st0" d="M1577.916,649.506c-0.715-0.151-1.586,0.537-2.482,1.958"/>
	<path class="st0" d="M1542.39,772.913c0,3.097,0.609,5.047,1.645,5.265"/>
	<line class="st0" x1="1544.03" y1="778.187" x2="1572.398" y2="784.15"/>
	<line class="st0" x1="1577.911" y1="649.506" x2="1606.289" y2="655.469"/>
	<path class="st0" d="M1572.403,784.141c4.941,1.038,10.005-1.107,12.698-5.378"/>
	<line class="st0" x1="1614.017" y1="732.906" x2="1585.101" y2="778.771"/>
	<path class="st0" d="M1614.026,732.898c1.215-1.928,1.86-4.161,1.86-6.44"/>
	<path class="st0" d="M1615.886,667.286c0-5.712-4.002-10.643-9.592-11.817"/>
	<line class="st0" x1="1615.886" y1="667.291" x2="1615.886" y2="726.463"/>
	<polyline class="st0" points="297.063,1262.784 55.397,1646.14 146.198,1665.219 387.864,1281.872 	"/>
	<polyline class="st0" points="146.198,1744.112 55.397,1725.033 55.397,1646.14 66.221,1674.336 122.968,1686.262 
		146.198,1665.219 146.198,1744.112 387.864,1360.766 	"/>
	<polyline class="st0" points="55.397,1725.033 66.221,1723.643 66.221,1674.336 	"/>
	<polyline class="st0" points="122.968,1686.262 122.968,1735.57 66.221,1723.643 	"/>
	<line class="st0" x1="146.198" y1="1744.112" x2="122.968" y2="1735.57"/>
	<polyline class="st0" points="1364.154,994.801 825.053,881.518 804.066,914.805 1343.177,1028.088 1364.154,994.801 	"/>
	<polyline class="st0" points="1343.177,1028.088 1346.053,1031.204 1367.039,997.907 1364.154,994.801 	"/>
	<polyline class="st0" points="1346.053,1031.204 1346.053,1604.838 1367.039,1571.541 1367.039,997.907 	"/>
	<polyline class="st0" points="1346.053,1604.838 804.066,1490.941 804.066,914.805 	"/>
	<polyline class="st0" points="1738.517,2567.676 1496.851,2951.023 1587.652,2970.101 1829.318,2586.755 	"/>
	<polyline class="st0" points="1587.652,3048.995 1496.851,3029.916 1496.851,2951.023 1507.675,2979.219 1564.431,2991.146 
		1587.652,2970.101 1587.652,3048.995 1829.318,2665.648 	"/>
	<polyline class="st0" points="1496.851,3029.916 1507.675,3028.536 1507.675,2979.219 	"/>
	<polyline class="st0" points="1564.431,2991.146 1564.431,3040.453 1507.675,3028.536 	"/>
	<line class="st0" x1="1587.652" y1="3048.995" x2="1564.431" y2="3040.453"/>
	<polyline class="st0" points="1738.517,1565.693 1496.851,1949.039 1587.652,1968.118 1829.318,1584.772 	"/>
	<polyline class="st0" points="1587.652,2047.021 1496.851,2027.933 1496.851,1949.039 1507.675,1977.236 1564.431,1989.162 
		1587.652,1968.118 1587.652,2047.021 1829.318,1663.665 	"/>
	<polyline class="st0" points="1496.851,2027.933 1507.675,2026.552 1507.675,1977.236 	"/>
	<polyline class="st0" points="1564.431,1989.162 1564.431,2038.479 1507.675,2026.552 	"/>
	<line class="st0" x1="1587.652" y1="2047.021" x2="1564.431" y2="2038.479"/>
	<line class="st0" x1="1548.641" y1="1312.829" x2="1503.246" y2="1303.29"/>
	<path class="st0" d="M1499.276,1300.006c0,1.465,1.587,2.774,3.971,3.275"/>
	<line class="st0" x1="1568.506" y1="1291.507" x2="1556.388" y2="1310.739"/>
	<path class="st0" d="M1548.652,1312.82c3.132,0.659,6.596-0.274,7.735-2.083"/>
	<line class="st0" x1="1499.267" y1="1300.011" x2="1499.267" y2="1285.218"/>
	<path class="st0" d="M1500.206,1281.995c-0.608,0.964-0.93,2.08-0.93,3.219"/>
	<line class="st0" x1="1500.197" y1="1281.997" x2="1502.9" y2="1277.721"/>
	<line class="st0" x1="1781.554" y1="1238.442" x2="1869.047" y2="1256.83"/>
	<line class="st0" x1="1660.592" y1="1430.321" x2="1663.775" y2="1433.763"/>
	<polyline class="st0" points="1869.047,1256.83 1928.066,1320.509 1928.066,1468.44 1869.047,1507.326 1781.554,1488.938 	"/>
	<polyline class="st0" points="1738.517,1315.197 1829.318,1334.276 1829.318,1413.169 	"/>
	<polyline class="st0" points="1994.516,1112.542 2032.999,1154.064 1928.066,1320.509 	"/>
	<polyline class="st0" points="2032.999,1154.064 2032.999,1301.996 1928.066,1468.44 	"/>
	<line class="st0" x1="340.101" y1="935.532" x2="427.584" y2="953.921"/>
	<line class="st0" x1="219.138" y1="1127.421" x2="222.321" y2="1130.854"/>
	<polyline class="st0" points="427.584,953.921 486.603,1017.609 486.603,1165.54 427.584,1204.417 340.101,1186.028 	"/>
	<polyline class="st0" points="297.063,1012.288 387.864,1031.376 387.864,1110.27 	"/>
	<polyline class="st0" points="553.053,809.642 591.536,851.165 486.603,1017.609 	"/>
	<polyline class="st0" points="591.536,851.165 591.536,999.096 486.603,1165.54 	"/>
	<line class="st0" x1="1296.391" y1="741.371" x2="1255.53" y2="732.781"/>
	<path class="st0" d="M1251.561,729.497c0,1.465,1.587,2.774,3.971,3.275"/>
	<path class="st0" d="M1321.069,712.407c0.241-0.382,0.364-0.786,0.364-1.192"/>
	<line class="st0" x1="1321.068" y1="712.418" x2="1304.128" y2="739.281"/>
	<path class="st0" d="M1296.393,741.362c3.132,0.658,6.596-0.274,7.735-2.083"/>
	<line class="st0" x1="1251.551" y1="729.502" x2="1251.551" y2="674.212"/>
	<line class="st0" x1="1321.433" y1="711.219" x2="1321.433" y2="656.744"/>
	<line class="st0" x1="1252.433" y1="733.615" x2="1297.829" y2="743.155"/>
	<path class="st0" d="M1297.84,743.146c3.132,0.659,6.595-0.274,7.735-2.083"/>
	<line class="st0" x1="1305.576" y1="741.074" x2="1324.165" y2="711.584"/>
	<path class="st0" d="M1324.165,711.572c1.013-1.607-0.144-3.401-2.73-4.235"/>
	<line class="st0" x1="1251.551" y1="724.814" x2="1248.819" y2="729.148"/>
	<path class="st0" d="M1248.828,729.14c-1.14,1.808,0.475,3.808,3.607,4.466"/>
	<line class="st0" x1="1248.455" y1="730.336" x2="1248.455" y2="745.13"/>
	<line class="st0" x1="1253.258" y1="751.045" x2="1298.653" y2="760.584"/>
	<line class="st0" x1="1324.53" y1="710.385" x2="1324.53" y2="725.179"/>
	<path class="st0" d="M1248.464,745.125c0,2.855,2,5.319,4.794,5.906"/>
	<path class="st0" d="M1298.664,760.57c2.469,0.519,5.001-0.553,6.346-2.688"/>
	<line class="st0" x1="1305" y1="757.89" x2="1323.59" y2="728.4"/>
	<path class="st0" d="M1323.599,728.392c0.608-0.964,0.93-2.079,0.93-3.219"/>
	<line class="st0" x1="340.101" y1="1186.028" x2="427.584" y2="1204.417"/>
	<line class="st0" x1="219.138" y1="1377.917" x2="222.321" y2="1381.349"/>
	<polyline class="st0" points="427.584,1204.417 486.603,1268.105 486.603,1416.036 427.584,1454.912 340.101,1436.524 	"/>
	<polyline class="st0" points="297.063,1262.784 387.864,1281.872 387.864,1360.766 	"/>
	<polyline class="st0" points="553.053,1060.138 591.536,1101.661 486.603,1268.105 	"/>
	<polyline class="st0" points="591.536,1101.661 591.536,1249.582 486.603,1416.036 	"/>
	<line class="st0" x1="1528.46" y1="1070.617" x2="1483.064" y2="1061.077"/>
	<path class="st0" d="M1479.095,1057.794c0,1.465,1.587,2.774,3.971,3.275"/>
	<path class="st0" d="M1554.797,1039.035c0.241-0.382,0.364-0.785,0.364-1.192"/>
	<line class="st0" x1="1554.796" y1="1039.046" x2="1536.206" y2="1068.536"/>
	<path class="st0" d="M1528.471,1070.608c3.132,0.659,6.596-0.274,7.735-2.083"/>
	<line class="st0" x1="1479.086" y1="1057.799" x2="1479.086" y2="1043.005"/>
	<line class="st0" x1="1555.16" y1="1037.848" x2="1555.16" y2="1023.054"/>
	<path class="st0" d="M1480.025,1039.782c-0.608,0.964-0.93,2.08-0.93,3.219"/>
	<line class="st0" x1="1480.016" y1="1039.784" x2="1498.615" y2="1010.294"/>
	<path class="st0" d="M1555.16,1023.049c0-2.855-2-5.319-4.794-5.906"/>
	<path class="st0" d="M1504.961,1007.604c-2.469-0.519-5.001,0.553-6.346,2.688"/>
	<line class="st0" x1="1504.962" y1="1007.609" x2="1550.357" y2="1017.149"/>
	<line class="st0" x1="1781.554" y1="987.946" x2="1869.047" y2="1006.334"/>
	<line class="st0" x1="1660.592" y1="1179.825" x2="1663.775" y2="1183.267"/>
	<polyline class="st0" points="1869.047,1006.334 1928.066,1070.013 1928.066,1217.944 1869.047,1256.83 1781.554,1238.442 	"/>
	<polyline class="st0" points="1738.517,1064.702 1829.318,1083.78 1829.318,1162.683 	"/>
	<polyline class="st0" points="1994.516,862.046 2032.999,903.568 1928.066,1070.013 	"/>
	<polyline class="st0" points="2032.999,903.568 2032.999,1051.5 1928.066,1217.944 	"/>
	<line class="st0" x1="1335.651" y1="210.381" x2="1340.022" y2="211.292"/>
	<path class="st0" d="M1379.753,254.158c0.001-19.064-17.784-38.257-39.724-42.867"/>
	<line class="st0" x1="1379.752" y1="254.157" x2="1379.752" y2="260.273"/>
	<path class="st0" d="M1375.789,274.463c2.609-4.138,3.964-8.992,3.964-14.198"/>
	<line class="st0" x1="1375.783" y1="274.472" x2="1337.396" y2="335.37"/>
	<line class="st0" x1="1528.46" y1="1129.789" x2="1483.064" y2="1120.25"/>
	<path class="st0" d="M1528.471,1129.78c3.132,0.659,6.596-0.274,7.735-2.083"/>
	<line class="st0" x1="1554.796" y1="1098.219" x2="1536.206" y2="1127.699"/>
	<path class="st0" d="M1554.797,1098.207c1.013-1.607-0.144-3.402-2.73-4.235"/>
	<line class="st0" x1="1479.45" y1="1115.782" x2="1482.182" y2="1111.449"/>
	<path class="st0" d="M1479.459,1115.775c-1.14,1.808,0.475,3.808,3.607,4.466"/>
	<line class="st0" x1="1479.086" y1="1116.971" x2="1479.086" y2="1131.764"/>
	<line class="st0" x1="1528.671" y1="1147.085" x2="1483.889" y2="1137.67"/>
	<line class="st0" x1="1555.16" y1="1097.02" x2="1555.16" y2="1105.064"/>
	<path class="st0" d="M1479.095,1131.76c0,2.855,2,5.319,4.794,5.906"/>
	<line class="st0" x1="1958.362" y1="341.228" x2="1962.734" y2="342.148"/>
	<path class="st0" d="M2002.465,385.015c0.001-19.065-17.784-38.257-39.724-42.867"/>
	<line class="st0" x1="2002.454" y1="385.013" x2="2002.454" y2="391.13"/>
	<path class="st0" d="M1998.5,405.32c2.609-4.138,3.964-8.992,3.964-14.198"/>
	<line class="st0" x1="1998.494" y1="405.328" x2="1963.137" y2="461.414"/>
	<line class="st0" x1="340.101" y1="1687.02" x2="427.584" y2="1705.408"/>
	<line class="st0" x1="219.138" y1="1878.909" x2="222.321" y2="1882.341"/>
	<polyline class="st0" points="427.584,1705.408 486.603,1769.096 486.603,1917.018 427.584,1955.904 340.101,1937.516 	"/>
	<polyline class="st0" points="297.063,1763.775 387.864,1782.864 387.864,1861.757 	"/>
	<polyline class="st0" points="553.053,1561.12 591.536,1602.642 486.603,1769.096 	"/>
	<polyline class="st0" points="591.536,1602.642 591.536,1750.574 486.603,1917.018 	"/>
	<line class="st0" x1="1781.554" y1="1989.929" x2="1869.047" y2="2008.308"/>
	<line class="st0" x1="1660.592" y1="2181.808" x2="1663.775" y2="2185.241"/>
	<polyline class="st0" points="1869.047,2008.308 1928.066,2071.996 1928.066,2219.927 1869.047,2258.804 1781.554,2240.425 	"/>
	<polyline class="st0" points="1738.517,2066.685 1829.318,2085.763 1829.318,2164.657 	"/>
	<polyline class="st0" points="1994.516,1864.029 2032.999,1905.552 1928.066,2071.996 	"/>
	<polyline class="st0" points="2032.999,1905.552 2032.999,2053.483 1928.066,2219.927 	"/>
	<line class="st0" x1="340.101" y1="1937.516" x2="427.584" y2="1955.904"/>
	<line class="st0" x1="219.138" y1="2129.405" x2="222.321" y2="2132.837"/>
	<polyline class="st0" points="427.584,1955.904 486.603,2019.592 486.603,2167.514 427.584,2206.4 340.101,2188.011 	"/>
	<polyline class="st0" points="297.063,2014.271 387.864,2033.35 387.864,2112.253 	"/>
	<polyline class="st0" points="553.053,1811.616 591.536,1853.138 486.603,2019.592 	"/>
	<polyline class="st0" points="591.536,1853.138 591.536,2001.07 486.603,2167.514 	"/>
	<polyline class="st0" points="1738.517,1315.197 1496.851,1698.544 1587.652,1717.622 1829.318,1334.276 	"/>
	<polyline class="st0" points="1587.652,1796.525 1496.851,1777.437 1496.851,1698.544 1507.675,1726.75 1564.431,1738.666 
		1587.652,1717.622 1587.652,1796.525 1829.318,1413.169 	"/>
	<polyline class="st0" points="1496.851,1777.437 1507.675,1776.057 1507.675,1726.75 	"/>
	<polyline class="st0" points="1564.431,1738.666 1564.431,1787.983 1507.675,1776.057 	"/>
	<line class="st0" x1="1587.652" y1="1796.525" x2="1564.431" y2="1787.983"/>
	<polyline class="st0" points="1738.517,2066.685 1496.851,2450.031 1587.652,2469.11 1829.318,2085.763 	"/>
	<polyline class="st0" points="1587.652,2548.003 1496.851,2528.925 1496.851,2450.031 1507.675,2478.227 1564.431,2490.154 
		1587.652,2469.11 1587.652,2548.003 1829.318,2164.657 	"/>
	<polyline class="st0" points="1496.851,2528.925 1507.675,2527.544 1507.675,2478.227 	"/>
	<polyline class="st0" points="1564.431,2490.154 1564.431,2539.471 1507.675,2527.544 	"/>
	<line class="st0" x1="1587.652" y1="2548.003" x2="1564.431" y2="2539.471"/>
	<polyline class="st0" points="297.063,761.792 55.397,1145.148 146.198,1164.227 387.864,780.881 	"/>
	<polyline class="st0" points="146.198,1243.12 55.397,1224.042 55.397,1145.148 66.221,1173.344 122.968,1185.271 
		146.198,1164.227 146.198,1243.12 387.864,859.774 	"/>
	<polyline class="st0" points="55.397,1224.042 66.221,1222.651 66.221,1173.344 	"/>
	<polyline class="st0" points="122.968,1185.271 122.968,1234.578 66.221,1222.651 	"/>
	<line class="st0" x1="146.198" y1="1243.12" x2="122.968" y2="1234.578"/>
	<polyline class="st0" points="1050.372,1870.606 1050.372,1905.13 1066.901,1878.918 1066.901,1844.395 1068.962,1841.116 
		1066.901,1840.684 	"/>
	<polyline class="st0" points="1050.372,1870.606 1048.311,1873.885 906.439,1844.069 906.439,1883.52 1048.311,1913.337 
		1048.311,1873.885 	"/>
	<polyline class="st0" points="1048.311,1913.337 1068.962,1880.567 1068.962,1841.116 	"/>
	<polyline class="st0" points="297.063,2014.271 55.397,2397.618 146.198,2416.706 387.864,2033.35 	"/>
	<polyline class="st0" points="146.198,2495.599 55.397,2476.521 55.397,2397.618 66.221,2425.823 122.968,2437.75 
		146.198,2416.706 146.198,2495.599 387.864,2112.253 	"/>
	<polyline class="st0" points="55.397,2476.521 66.221,2475.131 66.221,2425.823 	"/>
	<polyline class="st0" points="122.968,2437.75 122.968,2487.057 66.221,2475.131 	"/>
	<line class="st0" x1="146.198" y1="2495.599" x2="122.968" y2="2487.057"/>
	<polyline class="st0" points="1050.372,1717.747 1050.372,1905.13 1066.901,1878.918 1066.901,1691.535 1050.372,1717.747 	"/>
	<line class="st0" x1="340.101" y1="2188.011" x2="427.584" y2="2206.4"/>
	<line class="st0" x1="219.138" y1="2379.9" x2="222.321" y2="2383.333"/>
	<polyline class="st0" points="427.584,2206.4 486.603,2270.078 486.603,2418.01 427.584,2456.896 340.101,2438.507 	"/>
	<polyline class="st0" points="297.063,2264.767 387.864,2283.846 387.864,2362.749 	"/>
	<polyline class="st0" points="553.053,2062.112 591.536,2103.634 486.603,2270.078 	"/>
	<polyline class="st0" points="591.536,2103.634 591.536,2251.565 486.603,2418.01 	"/>
	<line class="st0" x1="1781.554" y1="2240.425" x2="1869.047" y2="2258.804"/>
	<line class="st0" x1="1660.592" y1="2432.304" x2="1663.775" y2="2435.737"/>
	<polyline class="st0" points="1869.047,2258.804 1928.066,2322.492 1928.066,2470.423 1869.047,2509.3 1781.554,2490.921 	"/>
	<polyline class="st0" points="1738.517,2317.181 1829.318,2336.259 1829.318,2415.153 	"/>
	<polyline class="st0" points="1994.516,2114.525 2032.999,2156.047 1928.066,2322.492 	"/>
	<polyline class="st0" points="2032.999,2156.047 2032.999,2303.979 1928.066,2470.423 	"/>
	<polyline class="st0" points="1738.517,814.206 1496.851,1197.552 1587.652,1216.631 	"/>
	<line class="st0" x1="1829.318" y1="833.284" x2="1587.652" y2="1216.631"/>
	<polyline class="st0" points="1496.851,1276.446 1496.851,1197.552 1507.675,1225.758 1564.431,1237.675 1587.652,1216.631 
		1587.652,1295.534 1829.318,912.187 	"/>
	<polyline class="st0" points="1587.652,1295.534 1496.851,1276.446 1507.675,1275.065 1507.675,1225.758 	"/>
	<polyline class="st0" points="1564.431,1237.675 1564.431,1286.992 1507.675,1275.065 	"/>
	<line class="st0" x1="1587.652" y1="1295.534" x2="1564.431" y2="1286.992"/>
	<line class="st0" x1="1636.067" y1="910.443" x2="1644.782" y2="912.274"/>
	<path class="st0" d="M1632.108,907.159c0,1.465,1.586,2.774,3.971,3.275"/>
	<line class="st0" x1="1632.098" y1="851.874" x2="1632.098" y2="907.164"/>
	<line class="st0" x1="340.101" y1="1436.524" x2="427.584" y2="1454.912"/>
	<line class="st0" x1="219.138" y1="1628.413" x2="222.321" y2="1631.845"/>
	<polyline class="st0" points="427.584,1454.912 486.603,1518.601 486.603,1666.522 427.584,1705.408 340.101,1687.02 	"/>
	<polyline class="st0" points="297.063,1513.28 387.864,1532.368 387.864,1611.261 	"/>
	<polyline class="st0" points="553.053,1310.624 591.536,1352.156 486.603,1518.601 	"/>
	<polyline class="st0" points="591.536,1352.156 591.536,1500.078 486.603,1666.522 	"/>
	<polyline class="st0" points="297.063,511.306 55.397,894.652 146.198,913.731 	"/>
	<line class="st0" x1="387.864" y1="530.384" x2="146.198" y2="913.731"/>
	<polyline class="st0" points="55.397,973.546 55.397,894.652 66.221,922.848 122.968,934.775 146.198,913.731 146.198,992.624 
		387.864,609.278 	"/>
	<polyline class="st0" points="146.198,992.624 55.397,973.546 66.221,972.156 66.221,922.848 	"/>
	<polyline class="st0" points="122.968,934.775 122.968,984.082 66.221,972.156 	"/>
	<line class="st0" x1="146.198" y1="992.624" x2="122.968" y2="984.082"/>
	<polyline class="st0" points="1738.517,1064.702 1496.851,1448.048 1587.652,1467.126 1829.318,1083.78 	"/>
	<polyline class="st0" points="1587.652,1546.03 1496.851,1526.941 1496.851,1448.048 1507.675,1476.254 1564.431,1488.171 
		1587.652,1467.126 1587.652,1546.03 1829.318,1162.683 	"/>
	<polyline class="st0" points="1496.851,1526.941 1507.675,1525.561 1507.675,1476.254 	"/>
	<polyline class="st0" points="1564.431,1488.171 1564.431,1537.487 1507.675,1525.561 	"/>
	<line class="st0" x1="1587.652" y1="1546.03" x2="1564.431" y2="1537.487"/>
	<line class="st0" x1="1646.489" y1="914.115" x2="1632.971" y2="911.277"/>
	<line class="st0" x1="1629.366" y1="906.809" x2="1632.098" y2="902.475"/>
	<path class="st0" d="M1629.375,906.801c-1.14,1.808,0.475,3.808,3.607,4.467"/>
	<line class="st0" x1="1629.001" y1="907.998" x2="1629.001" y2="922.791"/>
	<line class="st0" x1="1662.538" y1="934.737" x2="1633.795" y2="928.697"/>
	<path class="st0" d="M1629.011,922.786c0,2.855,2.001,5.319,4.794,5.906"/>
	<polyline class="st0" points="222.321,629.862 198.315,603.967 198.315,456.035 257.334,417.15 427.584,452.929 524.253,299.591 
		354.002,263.811 257.334,417.15 	"/>
	<polyline class="st0" points="427.584,452.929 486.603,516.617 486.603,664.549 427.584,703.425 340.101,685.037 	"/>
	<polyline class="st0" points="297.063,511.306 387.864,530.384 387.864,609.278 	"/>
	<polyline class="st0" points="354.002,263.811 362.266,250.705 303.247,289.591 198.315,456.035 	"/>
	<line class="st0" x1="524.253" y1="299.591" x2="532.517" y2="286.485"/>
	<polyline class="st0" points="532.517,286.485 591.536,350.173 486.603,516.617 	"/>
	<polyline class="st0" points="591.536,350.173 591.536,498.104 486.603,664.549 	"/>
	<line class="st0" x1="362.266" y1="265.556" x2="362.266" y2="250.705"/>
	<polyline class="st0" points="1663.775,932.771 1639.777,906.866 1639.777,758.935 1698.797,720.059 1869.047,755.839 
		1965.716,602.5 1795.465,566.72 1698.797,720.059 	"/>
	<polyline class="st0" points="1869.047,755.839 1928.066,819.517 1928.066,967.448 1869.047,1006.334 1781.554,987.946 	"/>
	<polyline class="st0" points="1738.517,814.206 1829.318,833.284 1829.318,912.187 	"/>
	<polyline class="st0" points="1795.465,566.72 1803.72,553.615 1744.7,592.491 1639.777,758.935 	"/>
	<line class="st0" x1="1965.716" y1="602.5" x2="1973.97" y2="589.394"/>
	<polyline class="st0" points="1973.97,589.394 2032.999,653.073 1928.066,819.517 	"/>
	<polyline class="st0" points="2032.999,653.073 2032.999,801.004 1928.066,967.448 	"/>
	<line class="st0" x1="1803.72" y1="568.456" x2="1803.72" y2="553.615"/>
	<path class="st0" d="M1518.937,121.133c-15.235-3.201-29.129,1.451-35.763,11.974"/>
	<line class="st0" x1="1518.93" y1="121.143" x2="1655.702" y2="149.876"/>
	<path class="st0" d="M1695.433,192.742c0.001-19.064-17.784-38.257-39.724-42.867"/>
	<line class="st0" x1="1695.432" y1="192.74" x2="1695.432" y2="198.857"/>
	<path class="st0" d="M1691.469,213.047c2.609-4.138,3.964-8.992,3.964-14.198"/>
	<line class="st0" x1="1483.17" y1="133.108" x2="1353.521" y2="338.764"/>
	<line class="st0" x1="1691.463" y1="213.056" x2="1581.957" y2="386.767"/>
	<polyline class="st0" points="1061.906,590.439 1061.906,777.812 1078.434,751.601 1078.434,564.227 1061.906,590.439 	"/>
	<path class="st0" d="M1825.969,185.655c-15.236-3.201-29.129,1.451-35.764,11.974"/>
	<line class="st0" x1="1825.962" y1="185.656" x2="1962.734" y2="214.398"/>
	<path class="st0" d="M2002.465,257.255c0.001-19.065-17.784-38.257-39.724-42.867"/>
	<line class="st0" x1="2002.454" y1="257.263" x2="2002.454" y2="263.38"/>
	<path class="st0" d="M1998.5,277.569c2.609-4.138,3.964-8.992,3.964-14.198"/>
	<line class="st0" x1="1790.202" y1="197.63" x2="1660.553" y2="403.286"/>
	<line class="st0" x1="1998.494" y1="277.578" x2="1888.989" y2="451.29"/>
	<line class="st0" x1="1781.554" y1="1739.433" x2="1869.047" y2="1757.812"/>
	<line class="st0" x1="1660.592" y1="1931.313" x2="1663.775" y2="1934.755"/>
	<polyline class="st0" points="1869.047,1757.812 1928.066,1821.5 1928.066,1969.432 1869.047,2008.308 1781.554,1989.929 	"/>
	<polyline class="st0" points="1738.517,1816.189 1829.318,1835.267 1829.318,1914.161 	"/>
	<polyline class="st0" points="1994.516,1613.533 2032.999,1655.056 1928.066,1821.5 	"/>
	<polyline class="st0" points="2032.999,1655.056 2032.999,1802.987 1928.066,1969.432 	"/>
	<line class="st0" x1="340.101" y1="685.037" x2="427.584" y2="703.425"/>
	<line class="st0" x1="219.138" y1="876.925" x2="222.321" y2="880.358"/>
	<polyline class="st0" points="427.584,703.425 486.603,767.113 486.603,915.044 427.584,953.921 340.101,935.532 	"/>
	<polyline class="st0" points="297.063,761.792 387.864,780.881 387.864,859.774 	"/>
	<polyline class="st0" points="553.053,559.146 591.536,600.669 486.603,767.113 	"/>
	<polyline class="st0" points="591.536,600.669 591.536,748.6 486.603,915.044 	"/>
	<path class="st0" d="M1203.257,54.799c-15.235-3.201-29.129,1.451-35.764,11.974"/>
	<line class="st0" x1="1203.251" y1="54.799" x2="1340.022" y2="83.542"/>
	<path class="st0" d="M1379.753,126.398c0.001-19.064-17.784-38.257-39.724-42.867"/>
	<line class="st0" x1="1379.752" y1="126.406" x2="1379.752" y2="132.523"/>
	<path class="st0" d="M1375.789,146.713c2.609-4.138,3.964-8.992,3.964-14.198"/>
	<line class="st0" x1="1167.49" y1="66.774" x2="1037.851" y2="272.43"/>
	<line class="st0" x1="1375.783" y1="146.722" x2="1266.277" y2="320.433"/>
	<line class="st0" x1="1486.161" y1="1119.416" x2="1527.022" y2="1127.997"/>
	<path class="st0" d="M1482.192,1116.132c0,1.465,1.587,2.774,3.971,3.275"/>
	<path class="st0" d="M1527.024,1127.997c3.132,0.658,6.595-0.274,7.735-2.083"/>
	<path class="st0" d="M1551.7,1099.041c0.241-0.382,0.364-0.785,0.364-1.192"/>
	<line class="st0" x1="1534.759" y1="1125.916" x2="1551.7" y2="1099.053"/>
	<line class="st0" x1="1482.182" y1="1060.848" x2="1482.182" y2="1116.137"/>
	<line class="st0" x1="1552.064" y1="1043.38" x2="1552.064" y2="1097.854"/>
	<line class="st0" x1="1252.433" y1="674.443" x2="1297.829" y2="683.982"/>
	<path class="st0" d="M1248.464,671.159c0,1.465,1.587,2.774,3.971,3.275"/>
	<path class="st0" d="M1324.165,652.4c0.241-0.382,0.364-0.785,0.364-1.192"/>
	<line class="st0" x1="1305.576" y1="681.901" x2="1324.165" y2="652.411"/>
	<path class="st0" d="M1297.84,683.973c3.132,0.659,6.595-0.274,7.735-2.083"/>
	<line class="st0" x1="1248.455" y1="671.164" x2="1248.455" y2="656.371"/>
	<line class="st0" x1="1324.53" y1="651.213" x2="1324.53" y2="636.42"/>
	<path class="st0" d="M1249.394,653.147c-0.607,0.964-0.93,2.08-0.93,3.219"/>
	<line class="st0" x1="1267.974" y1="623.659" x2="1249.385" y2="653.149"/>
	<path class="st0" d="M1274.33,620.969c-2.469-0.519-5.001,0.553-6.346,2.688"/>
	<path class="st0" d="M1324.529,636.415c0-2.855-2-5.319-4.794-5.906"/>
	<line class="st0" x1="1319.726" y1="630.514" x2="1274.331" y2="620.975"/>
	<polyline class="st0" points="1061.906,743.298 1061.906,777.812 1078.434,751.601 1078.434,717.087 1080.495,713.808 
		1078.434,713.377 	"/>
	<polyline class="st0" points="1061.906,743.298 1059.845,746.577 917.963,716.761 917.963,756.212 1059.845,786.019 
		1059.845,746.577 	"/>
	<polyline class="st0" points="1059.845,786.019 1080.495,753.259 1080.495,713.808 	"/>
	<polyline class="st0" points="1080.495,595.463 1078.434,598.742 1078.434,564.227 1061.906,590.439 1061.906,624.953 
		1059.845,628.232 917.963,598.416 	"/>
	<polyline class="st0" points="1059.845,628.232 1059.845,588.78 917.963,558.964 917.963,598.416 	"/>
	<polyline class="st0" points="1059.845,588.78 1080.495,556.021 938.623,526.204 917.963,558.964 	"/>
	<line class="st0" x1="1080.495" y1="556.021" x2="1080.495" y2="595.463"/>
	<line class="st0" x1="1651.33" y1="276.715" x2="1655.702" y2="277.636"/>
	<path class="st0" d="M1695.433,320.493c0.001-19.065-17.784-38.257-39.724-42.867"/>
	<line class="st0" x1="1695.432" y1="320.5" x2="1695.432" y2="326.607"/>
	<path class="st0" d="M1691.469,340.807c2.609-4.138,3.964-8.992,3.964-14.198"/>
	<line class="st0" x1="1691.463" y1="340.806" x2="1653.065" y2="401.714"/>
	<line class="st0" x1="1442.29" y1="693.943" x2="1442.29" y2="743.251"/>
	<path class="st0" d="M1446.427,677.522c-2.28,3.619-4.128,10.966-4.129,16.411"/>
	<path class="st0" d="M1442.299,743.24c0,3.097,0.609,5.047,1.645,5.265"/>
	<line class="st0" x1="1471.214" y1="638.203" x2="1446.422" y2="677.52"/>
	<path class="st0" d="M1473.702,636.246c-0.715-0.151-1.586,0.537-2.482,1.958"/>
	<line class="st0" x1="1542.381" y1="769.203" x2="1443.939" y2="748.514"/>
	<line class="st0" x1="1571.996" y1="656.908" x2="1473.698" y2="636.247"/>
	<line class="st0" x1="1414.88" y1="862.142" x2="1414.88" y2="826.64"/>
	<path class="st0" d="M1416.957,818.43c-1.139,1.808-2.063,5.481-2.063,8.202"/>
	<line class="st0" x1="1416.951" y1="818.434" x2="1433.882" y2="791.57"/>
	<path class="st0" d="M1435.127,790.587c-0.357-0.075-0.792,0.269-1.239,0.979"/>
	<path class="st0" d="M1414.894,862.143c0,1.548,0.304,2.523,0.821,2.631"/>
	<line class="st0" x1="1415.704" y1="864.778" x2="1482.153" y2="878.747"/>
	<line class="st0" x1="1435.128" y1="790.592" x2="1501.577" y2="804.551"/>
	<line class="st0" x1="1781.554" y1="1488.938" x2="1869.047" y2="1507.326"/>
	<line class="st0" x1="1660.592" y1="1680.817" x2="1663.775" y2="1684.259"/>
	<polyline class="st0" points="1869.047,1507.326 1928.066,1571.005 1928.066,1718.936 1869.047,1757.812 1781.554,1739.433 	"/>
	<polyline class="st0" points="1738.517,1565.693 1829.318,1584.772 1829.318,1663.665 	"/>
	<polyline class="st0" points="1994.516,1363.038 2032.999,1404.56 1928.066,1571.005 	"/>
	<polyline class="st0" points="2032.999,1404.56 2032.999,1552.492 1928.066,1718.936 	"/>
	<polyline class="st0" points="1059.845,628.232 1061.906,624.953 1061.906,743.298 1059.845,746.577 1059.845,628.232 
		917.963,598.416 917.963,716.761 1059.845,746.577 	"/>
	<line class="st0" x1="1440.228" y1="751.457" x2="1440.228" y2="692.284"/>
	<path class="st0" d="M1440.237,751.447c0,5.445,1.848,6.925,4.127,3.306"/>
	<line class="st0" x1="1447.793" y1="749.329" x2="1444.361" y2="754.765"/>
	<line class="st0" x1="1477.408" y1="633.304" x2="1477.408" y2="637.033"/>
	<path class="st0" d="M1477.408,633.305c0-5.445-1.847-6.925-4.127-3.306"/>
	<line class="st0" x1="1444.361" y1="675.871" x2="1473.276" y2="629.996"/>
	<path class="st0" d="M1444.366,675.873c-2.28,3.619-4.128,10.966-4.129,16.411"/>
	<line class="st0" x1="1441.877" y1="756.721" x2="1413.499" y2="750.757"/>
	<line class="st0" x1="1403.902" y1="738.946" x2="1403.902" y2="679.773"/>
	<line class="st0" x1="1475.759" y1="628.04" x2="1447.39" y2="622.077"/>
	<path class="st0" d="M1403.912,738.941c0,5.712,4.002,10.643,9.592,11.817"/>
	<path class="st0" d="M1405.772,673.329c-1.215,1.928-1.86,4.16-1.86,6.44"/>
	<line class="st0" x1="1405.772" y1="673.331" x2="1434.687" y2="627.456"/>
	<path class="st0" d="M1447.395,622.076c-4.941-1.038-10.005,1.107-12.698,5.378"/>
	<line class="st0" x1="1482.153" y1="840.293" x2="1482.153" y2="879.734"/>
	<path class="st0" d="M1484.231,832.082c-1.139,1.808-2.063,5.481-2.063,8.202"/>
	<line class="st0" x1="1502.814" y1="802.596" x2="1484.224" y2="832.086"/>
	<path class="st0" d="M1504.06,801.612c-0.357-0.075-0.792,0.268-1.239,0.979"/>
	<path class="st0" d="M1482.167,879.735c0,1.548,0.304,2.523,0.821,2.631"/>
	<line class="st0" x1="1482.978" y1="882.371" x2="1500.005" y2="885.947"/>
	<line class="st0" x1="1504.051" y1="801.618" x2="1521.078" y2="805.194"/>
	<path class="st0" d="M1500.006,885.943c2.469,0.519,5.001-0.553,6.346-2.688"/>
	<line class="st0" x1="1506.352" y1="883.263" x2="1524.942" y2="853.772"/>
	<path class="st0" d="M1525.871,811.095c0-2.855-2-5.319-4.794-5.906"/>
	<path class="st0" d="M1524.942,853.765c0.608-0.964,0.93-2.079,0.93-3.219"/>
	<line class="st0" x1="1525.871" y1="850.551" x2="1525.871" y2="811.099"/>
	<line class="st0" x1="1545.247" y1="1371.283" x2="1503.246" y2="1362.462"/>
	<line class="st0" x1="1499.631" y1="1357.985" x2="1502.363" y2="1353.652"/>
	<path class="st0" d="M1499.64,1357.987c-1.14,1.808,0.475,3.808,3.607,4.466"/>
	<line class="st0" x1="1499.267" y1="1359.184" x2="1499.267" y2="1373.977"/>
	<line class="st0" x1="1535.641" y1="1386.517" x2="1504.07" y2="1379.882"/>
	<path class="st0" d="M1499.276,1373.972c0,2.855,2,5.319,4.794,5.906"/>
	<line class="st0" x1="1506.342" y1="1361.628" x2="1546.072" y2="1369.969"/>
	<path class="st0" d="M1502.373,1358.345c0,1.465,1.587,2.774,3.971,3.275"/>
	<line class="st0" x1="1502.363" y1="1303.05" x2="1502.363" y2="1358.35"/>
	<line class="st0" x1="1572.245" y1="1292.293" x2="1572.245" y2="1328.457"/>
	<polyline class="st0" points="1738.517,2317.181 1496.851,2700.527 1587.652,2719.605 1829.318,2336.259 	"/>
	<polyline class="st0" points="1587.652,2798.499 1496.851,2779.42 1496.851,2700.527 1507.675,2728.723 1564.431,2740.65 
		1587.652,2719.605 1587.652,2798.499 1829.318,2415.153 	"/>
	<polyline class="st0" points="1496.851,2779.42 1507.675,2778.04 1507.675,2728.723 	"/>
	<polyline class="st0" points="1564.431,2740.65 1564.431,2789.966 1507.675,2778.04 	"/>
	<line class="st0" x1="1587.652" y1="2798.499" x2="1564.431" y2="2789.966"/>
	<polyline class="st0" points="297.063,2264.767 55.397,2648.113 146.198,2667.202 387.864,2283.846 	"/>
	<polyline class="st0" points="146.198,2746.095 55.397,2727.016 55.397,2648.113 66.221,2676.319 122.968,2688.246 
		146.198,2667.202 146.198,2746.095 387.864,2362.749 	"/>
	<polyline class="st0" points="55.397,2727.016 66.221,2725.626 66.221,2676.319 	"/>
	<polyline class="st0" points="122.968,2688.246 122.968,2737.553 66.221,2725.626 	"/>
	<line class="st0" x1="146.198" y1="2746.095" x2="122.968" y2="2737.553"/>
	<polyline class="st0" points="1738.517,1816.189 1496.851,2199.535 1587.652,2218.614 1829.318,1835.267 	"/>
	<polyline class="st0" points="1587.652,2297.517 1496.851,2278.429 1496.851,2199.535 1507.675,2227.731 1564.431,2239.658 
		1587.652,2218.614 1587.652,2297.517 1829.318,1914.161 	"/>
	<polyline class="st0" points="1496.851,2278.429 1507.675,2277.048 1507.675,2227.731 	"/>
	<polyline class="st0" points="1564.431,2239.658 1564.431,2288.975 1507.675,2277.048 	"/>
	<line class="st0" x1="1587.652" y1="2297.517" x2="1564.431" y2="2288.975"/>
	<polyline class="st0" points="297.063,1012.288 55.397,1395.644 146.198,1414.723 387.864,1031.376 	"/>
	<polyline class="st0" points="146.198,1493.616 55.397,1474.538 55.397,1395.644 66.221,1423.84 122.968,1435.767 
		146.198,1414.723 146.198,1493.616 387.864,1110.27 	"/>
	<polyline class="st0" points="55.397,1474.538 66.221,1473.147 66.221,1423.84 	"/>
	<polyline class="st0" points="122.968,1435.767 122.968,1485.074 66.221,1473.147 	"/>
	<line class="st0" x1="146.198" y1="1493.616" x2="122.968" y2="1485.074"/>
	<polyline class="st0" points="297.063,1763.775 55.397,2147.122 146.198,2166.21 387.864,1782.864 	"/>
	<polyline class="st0" points="146.198,2245.104 55.397,2226.025 55.397,2147.122 66.221,2175.327 122.968,2187.254 
		146.198,2166.21 146.198,2245.104 387.864,1861.757 	"/>
	<polyline class="st0" points="55.397,2226.025 66.221,2224.635 66.221,2175.327 	"/>
	<polyline class="st0" points="122.968,2187.254 122.968,2236.561 66.221,2224.635 	"/>
	<line class="st0" x1="146.198" y1="2245.104" x2="122.968" y2="2236.561"/>
	<polyline class="st0" points="1068.962,1722.78 1066.901,1726.05 1066.901,1691.535 1050.372,1717.747 1050.372,1752.261 
		1048.311,1755.54 906.439,1725.724 	"/>
	<polyline class="st0" points="1048.311,1755.54 1048.311,1716.088 906.439,1686.282 906.439,1725.724 	"/>
	<polyline class="st0" points="1048.311,1716.088 1068.962,1683.329 927.09,1653.512 906.439,1686.282 	"/>
	<line class="st0" x1="1068.962" y1="1683.329" x2="1068.962" y2="1722.78"/>
	<polyline class="st0" points="297.063,1513.28 55.397,1896.626 146.198,1915.714 387.864,1532.368 	"/>
	<polyline class="st0" points="146.198,1994.608 55.397,1975.529 55.397,1896.626 66.221,1924.832 122.968,1936.758 
		146.198,1915.714 146.198,1994.608 387.864,1611.261 	"/>
	<polyline class="st0" points="55.397,1975.529 66.221,1974.139 66.221,1924.832 	"/>
	<polyline class="st0" points="122.968,1936.758 122.968,1986.066 66.221,1974.139 	"/>
	<line class="st0" x1="146.198" y1="1994.608" x2="122.968" y2="1986.066"/>
	<polyline class="st0" points="838.792,1709.708 840.853,1706.429 840.853,1824.774 838.792,1828.053 838.792,1709.708 
		696.919,1679.891 696.919,1798.236 838.792,1828.053 	"/>
	<polyline class="st0" points="840.853,1824.774 840.853,1859.297 857.381,1833.086 857.381,1798.562 859.443,1795.283 
		857.381,1794.852 	"/>
	<polyline class="st0" points="840.853,1824.774 838.792,1828.053 696.919,1798.236 696.919,1837.688 838.792,1867.504 
		838.792,1828.053 	"/>
	<polyline class="st0" points="838.792,1867.504 859.443,1834.735 859.443,1795.283 	"/>
	<polyline class="st0" points="840.853,1671.915 840.853,1859.297 857.381,1833.086 857.381,1645.703 840.853,1671.915 	"/>
	<polyline class="st0" points="859.443,1676.948 857.381,1680.217 857.381,1645.703 840.853,1671.915 840.853,1706.429 
		838.792,1709.708 696.919,1679.891 	"/>
	<polyline class="st0" points="838.792,1709.708 838.792,1670.256 696.919,1640.449 696.919,1679.891 	"/>
	<polyline class="st0" points="838.792,1670.256 859.443,1637.496 717.57,1607.68 696.919,1640.449 	"/>
	<line class="st0" x1="859.443" y1="1637.496" x2="859.443" y2="1676.948"/>
	<line class="st0" x1="1156.711" y1="1911.188" x2="1115.85" y2="1902.598"/>
	<path class="st0" d="M1111.881,1899.314c0,1.465,1.587,2.774,3.971,3.275"/>
	<path class="st0" d="M1181.389,1882.224c0.241-0.382,0.364-0.786,0.364-1.192"/>
	<line class="st0" x1="1181.389" y1="1882.235" x2="1164.448" y2="1909.098"/>
	<path class="st0" d="M1156.713,1911.179c3.132,0.658,6.595-0.274,7.735-2.083"/>
	<line class="st0" x1="1111.872" y1="1899.319" x2="1111.872" y2="1844.029"/>
	<line class="st0" x1="1181.753" y1="1881.036" x2="1181.753" y2="1826.562"/>
	<line class="st0" x1="1112.754" y1="1903.432" x2="1158.149" y2="1912.972"/>
	<path class="st0" d="M1158.161,1912.963c3.132,0.659,6.595-0.274,7.735-2.083"/>
	<line class="st0" x1="1165.896" y1="1910.891" x2="1184.485" y2="1881.401"/>
	<path class="st0" d="M1184.486,1881.389c1.013-1.607-0.143-3.401-2.73-4.235"/>
	<line class="st0" x1="1111.872" y1="1894.631" x2="1109.139" y2="1898.965"/>
	<path class="st0" d="M1109.149,1898.957c-1.14,1.808,0.475,3.808,3.607,4.466"/>
	<line class="st0" x1="1108.775" y1="1900.153" x2="1108.775" y2="1914.947"/>
	<line class="st0" x1="1113.578" y1="1920.862" x2="1158.974" y2="1930.401"/>
	<line class="st0" x1="1184.85" y1="1880.202" x2="1184.85" y2="1894.996"/>
	<path class="st0" d="M1108.785,1914.942c0,2.855,2,5.319,4.794,5.906"/>
	<path class="st0" d="M1158.984,1930.387c2.469,0.519,5.001-0.553,6.346-2.688"/>
	<line class="st0" x1="1165.321" y1="1927.707" x2="1183.91" y2="1898.217"/>
	<path class="st0" d="M1183.92,1898.209c0.608-0.964,0.93-2.079,0.93-3.219"/>
	<line class="st0" x1="1112.754" y1="1844.26" x2="1158.149" y2="1853.799"/>
	<path class="st0" d="M1108.784,1840.976c0,1.465,1.587,2.774,3.971,3.275"/>
	<path class="st0" d="M1184.486,1822.217c0.241-0.382,0.364-0.785,0.364-1.192"/>
	<line class="st0" x1="1165.896" y1="1851.719" x2="1184.485" y2="1822.228"/>
	<path class="st0" d="M1158.161,1853.79c3.132,0.659,6.595-0.274,7.735-2.083"/>
	<line class="st0" x1="1108.775" y1="1840.981" x2="1108.775" y2="1826.188"/>
	<line class="st0" x1="1184.85" y1="1821.03" x2="1184.85" y2="1806.237"/>
	<path class="st0" d="M1109.714,1822.964c-0.607,0.964-0.93,2.08-0.93,3.219"/>
	<line class="st0" x1="1128.295" y1="1793.476" x2="1109.705" y2="1822.966"/>
	<path class="st0" d="M1134.65,1790.786c-2.469-0.519-5.001,0.553-6.346,2.688"/>
	<path class="st0" d="M1184.85,1806.232c0-2.855-2-5.319-4.794-5.906"/>
	<line class="st0" x1="1180.047" y1="1800.331" x2="1134.651" y2="1790.792"/>
	<line class="st0" x1="1163.259" y1="1751.866" x2="1122.398" y2="1743.276"/>
	<path class="st0" d="M1118.429,1739.992c0,1.465,1.587,2.774,3.971,3.275"/>
	<path class="st0" d="M1187.937,1722.902c0.241-0.382,0.364-0.786,0.364-1.192"/>
	<line class="st0" x1="1187.936" y1="1722.913" x2="1170.996" y2="1749.776"/>
	<path class="st0" d="M1163.26,1751.857c3.132,0.658,6.595-0.274,7.735-2.083"/>
	<line class="st0" x1="1118.419" y1="1739.997" x2="1118.419" y2="1684.707"/>
	<line class="st0" x1="1188.301" y1="1721.714" x2="1188.301" y2="1667.239"/>
	<line class="st0" x1="1119.301" y1="1744.11" x2="1164.697" y2="1753.65"/>
	<path class="st0" d="M1164.708,1753.641c3.132,0.659,6.595-0.274,7.735-2.083"/>
	<line class="st0" x1="1172.443" y1="1751.569" x2="1191.033" y2="1722.079"/>
	<path class="st0" d="M1191.033,1722.067c1.013-1.607-0.143-3.401-2.73-4.235"/>
	<line class="st0" x1="1118.419" y1="1735.309" x2="1115.687" y2="1739.642"/>
	<path class="st0" d="M1115.696,1739.635c-1.14,1.808,0.475,3.808,3.607,4.466"/>
	<line class="st0" x1="1115.322" y1="1740.831" x2="1115.322" y2="1755.625"/>
	<line class="st0" x1="1120.126" y1="1761.54" x2="1165.521" y2="1771.079"/>
	<line class="st0" x1="1191.397" y1="1720.88" x2="1191.397" y2="1735.673"/>
	<path class="st0" d="M1115.332,1755.62c0,2.855,2,5.319,4.794,5.906"/>
	<path class="st0" d="M1165.531,1771.065c2.469,0.519,5.001-0.553,6.346-2.688"/>
	<line class="st0" x1="1171.868" y1="1768.385" x2="1190.458" y2="1738.895"/>
	<path class="st0" d="M1190.467,1738.887c0.608-0.964,0.93-2.079,0.93-3.219"/>
	<line class="st0" x1="1119.301" y1="1684.938" x2="1164.697" y2="1694.477"/>
	<path class="st0" d="M1115.332,1681.654c0,1.465,1.587,2.774,3.971,3.275"/>
	<path class="st0" d="M1191.033,1662.895c0.241-0.382,0.364-0.785,0.364-1.192"/>
	<line class="st0" x1="1172.443" y1="1692.396" x2="1191.033" y2="1662.906"/>
	<path class="st0" d="M1164.708,1694.468c3.132,0.659,6.595-0.274,7.735-2.083"/>
	<line class="st0" x1="1115.322" y1="1681.659" x2="1115.322" y2="1666.865"/>
	<line class="st0" x1="1191.397" y1="1661.708" x2="1191.397" y2="1646.915"/>
	<path class="st0" d="M1116.262,1663.642c-0.607,0.964-0.93,2.08-0.93,3.219"/>
	<line class="st0" x1="1134.842" y1="1634.154" x2="1116.252" y2="1663.644"/>
	<path class="st0" d="M1141.198,1631.464c-2.469-0.519-5.001,0.553-6.346,2.688"/>
	<path class="st0" d="M1191.397,1646.91c0-2.855-2-5.319-4.794-5.906"/>
	<line class="st0" x1="1186.594" y1="1641.009" x2="1141.198" y2="1631.47"/>
	<line class="st0" x1="1246.003" y1="1904.131" x2="1246.003" y2="1943.583"/>
	<path class="st0" d="M1246.007,1943.574c-0.001,2.721,0.922,3.461,2.06,1.652"/>
	<line class="st0" x1="1248.065" y1="1945.232" x2="1249.301" y2="1943.276"/>
	<line class="st0" x1="1268.725" y1="1869.09" x2="1268.725" y2="1868.093"/>
	<path class="st0" d="M1268.721,1868.092c0.001-2.721-0.922-3.461-2.06-1.652"/>
	<line class="st0" x1="1266.654" y1="1866.434" x2="1248.065" y2="1895.925"/>
	<path class="st0" d="M1248.071,1895.92c-1.139,1.808-2.063,5.481-2.063,8.202"/>
	<line class="st0" x1="1246.828" y1="1946.219" x2="1229.801" y2="1942.634"/>
	<line class="st0" x1="1225.007" y1="1897.276" x2="1225.007" y2="1936.728"/>
	<line class="st0" x1="1267.901" y1="1865.456" x2="1250.873" y2="1861.88"/>
	<path class="st0" d="M1225.946,1894.053c-0.608,0.964-0.93,2.079-0.93,3.218"/>
	<path class="st0" d="M1225.017,1936.723c0,2.855,2,5.319,4.794,5.906"/>
	<line class="st0" x1="1244.527" y1="1864.574" x2="1225.937" y2="1894.055"/>
	<path class="st0" d="M1250.882,1861.875c-2.469-0.519-5.001,0.553-6.346,2.688"/>
	<line class="st0" x1="1246.828" y1="1940.294" x2="1246.828" y2="1904.793"/>
	<path class="st0" d="M1248.905,1896.582c-1.139,1.808-2.063,5.481-2.063,8.202"/>
	<line class="st0" x1="1248.899" y1="1896.586" x2="1265.83" y2="1869.722"/>
	<path class="st0" d="M1267.075,1868.739c-0.357-0.075-0.792,0.269-1.239,0.979"/>
	<path class="st0" d="M1246.842,1940.295c0,1.548,0.304,2.523,0.821,2.631"/>
	<line class="st0" x1="1247.652" y1="1942.931" x2="1314.101" y2="1956.899"/>
	<line class="st0" x1="1267.076" y1="1868.745" x2="1333.525" y2="1882.703"/>
	<line class="st0" x1="1314.101" y1="1918.445" x2="1314.101" y2="1957.887"/>
	<path class="st0" d="M1316.179,1910.234c-1.139,1.808-2.063,5.481-2.063,8.202"/>
	<line class="st0" x1="1334.762" y1="1880.748" x2="1316.172" y2="1910.238"/>
	<path class="st0" d="M1336.008,1879.765c-0.357-0.075-0.792,0.269-1.239,0.979"/>
	<path class="st0" d="M1314.115,1957.888c0,1.548,0.304,2.523,0.821,2.631"/>
	<line class="st0" x1="1314.926" y1="1960.523" x2="1331.953" y2="1964.099"/>
	<line class="st0" x1="1335.999" y1="1879.77" x2="1353.026" y2="1883.346"/>
	<path class="st0" d="M1331.954,1964.095c2.469,0.519,5.001-0.553,6.346-2.688"/>
	<line class="st0" x1="1338.3" y1="1961.415" x2="1356.889" y2="1931.925"/>
	<path class="st0" d="M1357.819,1889.247c0-2.855-2-5.319-4.794-5.906"/>
	<path class="st0" d="M1356.889,1931.917c0.608-0.964,0.93-2.079,0.93-3.219"/>
	<line class="st0" x1="1357.819" y1="1928.703" x2="1357.819" y2="1889.252"/>
	<line class="st0" x1="1252.551" y1="1777.546" x2="1252.551" y2="1816.998"/>
	<path class="st0" d="M1252.555,1816.989c-0.001,2.721,0.922,3.461,2.06,1.652"/>
	<line class="st0" x1="1254.612" y1="1818.647" x2="1255.849" y2="1816.691"/>
	<line class="st0" x1="1275.273" y1="1742.505" x2="1275.273" y2="1741.508"/>
	<path class="st0" d="M1275.268,1741.507c0.001-2.721-0.922-3.461-2.06-1.652"/>
	<line class="st0" x1="1273.202" y1="1739.849" x2="1254.612" y2="1769.34"/>
	<path class="st0" d="M1254.618,1769.336c-1.139,1.808-2.063,5.481-2.063,8.202"/>
	<line class="st0" x1="1253.375" y1="1819.635" x2="1236.348" y2="1816.049"/>
	<line class="st0" x1="1231.555" y1="1770.692" x2="1231.555" y2="1810.143"/>
	<line class="st0" x1="1274.448" y1="1738.872" x2="1257.421" y2="1735.295"/>
	<path class="st0" d="M1232.494,1767.468c-0.608,0.964-0.93,2.079-0.93,3.218"/>
	<path class="st0" d="M1231.564,1810.138c0,2.855,2,5.319,4.794,5.906"/>
	<line class="st0" x1="1251.074" y1="1737.989" x2="1232.484" y2="1767.47"/>
	<path class="st0" d="M1257.43,1735.29c-2.469-0.519-5.001,0.553-6.346,2.688"/>
	<line class="st0" x1="1253.375" y1="1813.71" x2="1253.375" y2="1778.208"/>
	<path class="st0" d="M1255.452,1769.997c-1.139,1.808-2.063,5.481-2.063,8.202"/>
	<line class="st0" x1="1255.446" y1="1770.001" x2="1272.377" y2="1743.138"/>
	<path class="st0" d="M1273.623,1742.155c-0.357-0.075-0.792,0.268-1.239,0.979"/>
	<path class="st0" d="M1253.389,1813.711c0,1.548,0.304,2.523,0.821,2.631"/>
	<line class="st0" x1="1254.2" y1="1816.346" x2="1320.649" y2="1830.315"/>
	<line class="st0" x1="1273.624" y1="1742.16" x2="1340.073" y2="1756.119"/>
	<line class="st0" x1="1320.649" y1="1791.86" x2="1320.649" y2="1831.302"/>
	<path class="st0" d="M1322.726,1783.65c-1.139,1.808-2.063,5.481-2.063,8.202"/>
	<line class="st0" x1="1341.309" y1="1754.163" x2="1322.72" y2="1783.653"/>
	<path class="st0" d="M1342.555,1753.18c-0.357-0.075-0.792,0.268-1.239,0.979"/>
	<path class="st0" d="M1320.663,1831.303c0,1.548,0.304,2.523,0.821,2.631"/>
	<line class="st0" x1="1321.474" y1="1833.938" x2="1338.5" y2="1837.515"/>
	<line class="st0" x1="1342.546" y1="1753.185" x2="1359.573" y2="1756.761"/>
	<path class="st0" d="M1338.501,1837.51c2.469,0.519,5.001-0.553,6.346-2.688"/>
	<line class="st0" x1="1344.847" y1="1834.83" x2="1363.437" y2="1805.34"/>
	<path class="st0" d="M1364.367,1762.662c0-2.855-2-5.319-4.794-5.906"/>
	<path class="st0" d="M1363.437,1805.332c0.608-0.964,0.93-2.079,0.93-3.219"/>
	<line class="st0" x1="1364.367" y1="1802.119" x2="1364.367" y2="1762.667"/>
	<polyline class="st0" points="830.561,551.154 830.561,738.527 847.09,712.316 847.09,524.943 830.561,551.154 	"/>
	<polyline class="st0" points="830.561,704.013 830.561,738.527 847.09,712.316 847.09,677.802 849.151,674.523 847.09,674.092 	"/>
	<polyline class="st0" points="830.561,704.013 828.5,707.292 686.618,677.476 686.618,716.928 828.5,746.734 828.5,707.292 	"/>
	<polyline class="st0" points="828.5,746.734 849.151,713.974 849.151,674.523 	"/>
	<polyline class="st0" points="849.151,556.178 847.09,559.457 847.09,524.943 830.561,551.154 830.561,585.668 828.5,588.947 
		686.618,559.131 	"/>
	<polyline class="st0" points="828.5,588.947 828.5,549.496 686.618,519.679 686.618,559.131 	"/>
	<polyline class="st0" points="828.5,549.496 849.151,516.736 707.279,486.92 686.618,519.679 	"/>
	<line class="st0" x1="849.151" y1="516.736" x2="849.151" y2="556.178"/>
	<polyline class="st0" points="828.5,588.947 830.561,585.668 830.561,704.013 828.5,707.292 828.5,588.947 686.618,559.131 
		686.618,677.476 828.5,707.292 	"/>
</g>
<g>
	<path class="st1" d="M453.514,3543.576h-77.937v410.226h-70.385v-410.226h-77.936v-62.529h226.258V3543.576z"/>
	<path class="st1" d="M775.229,3953.802h-67.967v-233.205c0-12.281,1.407-29.402,4.229-51.355l-61.02,241.364h-35.947
		l-61.322-241.364c2.818,22.356,4.229,39.475,4.229,51.355v233.205h-67.967v-472.755h66.759l74.312,261.298
		c0.802,2.822,1.407,9.97,1.812,21.45c0-5.034,0.604-12.183,1.813-21.45l74.311-261.298h66.76V3953.802z"/>
	<path class="st1" d="M1064.32,3910.606c0,28.799-14.4,43.196-43.197,43.196H873.708c-27.994,0-41.988-14.397-41.988-43.196
		v-386.059c0-29.001,13.994-43.501,41.988-43.501h147.415c28.797,0,43.197,14.5,43.197,43.501v110.561h-70.384v-93.344h-91.53
		v351.32h91.53V3793.7h70.384V3910.606z"/>
	<path class="st1" d="M1305.076,3953.802h-187.59v-22.354l144.695-300.57v-112.676h-96.362v106.333h-42.292v-109.958
		c0-9.864,3.12-17.92,9.365-24.165c6.24-6.241,14.297-9.365,24.167-9.365h113.884c9.864,0,17.92,3.125,24.165,9.365
		c6.241,6.245,9.365,14.301,9.365,24.165v100.292c0,12.08-3.728,25.879-11.177,41.382l-125.061,260.395h136.841V3953.802z"/>
	<path class="st1" d="M1417.754,3953.802h-42.292v-327.756h-18.428v-1.511l26.584-143.488h34.135V3953.802z"/>
	<path class="st1" d="M1650.959,3953.802h-40.781l-49.541-116.301l-50.146,116.301h-39.573v-1.208l68.574-149.831l-64.343-142.883
		h40.779l45.312,107.842l46.521-107.842h38.967v1.206l-64.343,140.468L1650.959,3953.802z"/>
	<path class="st1" d="M1894.132,3920.27c0,9.873-3.223,17.929-9.666,24.169c-6.447,6.243-14.604,9.363-24.47,9.363h-125.361
		c-9.87,0-17.927-3.12-24.167-9.363c-6.245-6.24-9.365-14.297-9.365-24.169v-405.692c0-9.864,3.12-17.92,9.365-24.165
		c6.241-6.241,14.297-9.365,24.167-9.365h125.361c9.866,0,18.023,3.125,24.47,9.365c6.443,6.245,9.666,14.301,9.666,24.165V3920.27z
		 M1852.143,3916.646v-398.444h-109.05v398.444H1852.143z"/>
</g>
</svg>
