<?xml version="1.0" encoding="utf-8"?>
<!-- Generator: Adobe Illustrator 22.1.0, SVG Export Plug-In . SVG Version: 6.00 Build 0)  -->
<svg version="1.1" id="Layer_1" xmlns="http://www.w3.org/2000/svg" xmlns:xlink="http://www.w3.org/1999/xlink" x="0px" y="0px"
	 viewBox="0 0 4000 3318.75" style="enable-background:new 0 0 4000 3318.75;" xml:space="preserve">
<style type="text/css">
	.st0{fill:none;stroke:#000000;stroke-width:17.0079;stroke-linecap:round;stroke-linejoin:round;stroke-miterlimit:10;}
	.st1{fill:none;stroke:#020203;stroke-width:17.0079;stroke-linecap:round;stroke-linejoin:round;stroke-miterlimit:10;}
	.st2{fill:#020203;}
	.st3{fill:#E52521;}
</style>
<g id="Left">
	<path class="st0" d="M1058.087,398.622c-11.92,46.247-58.883,94.115-104.895,106.914c-46.012,12.8-73.648-14.315-61.728-60.562
		c11.92-46.247,58.883-94.115,104.895-106.914C1042.37,325.259,1070.007,352.374,1058.087,398.622"/>
	<path class="st0" d="M1468.695,757.99c24.106,23.651,10.44,76.671-30.524,118.424c-40.964,41.753-93.714,56.427-117.821,32.776"/>
	<path class="st0" d="M1257.147,2145.051"/>
	<path class="st0" d="M1244.806,2132.941"/>
	<path class="st0" d="M1232.453,2120.825"/>
	<path class="st0" d="M1220.112,2108.716"/>
	<path class="st0" d="M1207.762,2096.609"/>
	<path class="st0" d="M1195.418,2084.491"/>
	<path class="st0" d="M1183.077,2072.382"/>
	<path class="st0" d="M1170.727,2060.275"/>
	<path class="st0" d="M1158.383,2048.156"/>
	<path class="st0" d="M1146.041,2036.047"/>
	<path class="st0" d="M1133.691,2023.94"/>
	<path class="st0" d="M1121.348,2011.822"/>
	<path class="st0" d="M1108.998,1999.715"/>
	<path class="st0" d="M1096.656,1987.606"/>
	<path class="st0" d="M1084.312,1975.488"/>
	<path class="st0" d="M1071.962,1963.381"/>
	<path class="st0" d="M1059.621,1951.271"/>
	<path class="st0" d="M1059.116,1937.414"/>
	<path class="st0" d="M641.521,1540.961"/>
	<path class="st0" d="M1733.46,513.316c102.519,50.222,125.075,184.625,57.226,340.988s-212.86,304.165-367.9,374.982
		s-289.849,50.828-342.017-50.715"/>
	<path class="st0" d="M1285.279,578.016c180.236-139.415,373.409-159.709,449.447-47.216
		c76.038,112.492,10.858,322.14-151.653,487.779c-162.51,165.638-370.878,234.804-484.799,160.924
		c-113.922-73.88-97.314-267.405,38.64-450.266"/>
	<polyline class="st0" points="2196.608,25.889 2187.183,28.511 1059.723,342.203 	"/>
	<line class="st0" x1="2196.608" y1="25.889" x2="2295.372" y2="122.783"/>
	<line class="st0" x1="896.817" y1="508.252" x2="904.104" y2="500.827"/>
	<line class="st0" x1="1052.435" y1="349.628" x2="1059.723" y2="342.203"/>
	<line class="st0" x1="2295.372" y1="122.783" x2="2001.875" y2="1261.58"/>
	<polyline class="st0" points="896.817,508.252 604.749,1641.514 602.31,1650.979 	"/>
	<line class="st0" x1="2001.875" y1="1261.58" x2="1834.054" y2="1432.646"/>
	<line class="st0" x1="701.074" y1="1747.873" x2="602.31" y2="1650.979"/>
	<line class="st0" x1="701.074" y1="1747.873" x2="1834.054" y2="1432.646"/>
	<line class="st0" x1="1545.044" y1="2563.986" x2="1530.68" y2="2561.766"/>
	<polyline class="st0" points="2830.468,2079.393 2831.481,2075.472 3124.975,936.667 	"/>
	<line class="st0" x1="2659.175" y1="2254.003" x2="2830.468" y2="2079.393"/>
	<path class="st0" d="M2144.197,205.263c-7.152,27.747-35.328,56.466-62.934,64.145c-27.606,7.679-44.187-8.589-37.035-36.336
		c7.152-27.747,35.328-56.466,62.934-64.145C2134.767,161.248,2151.348,177.516,2144.197,205.263"/>
	<path class="st0" d="M843.58,1530.993c-7.152,27.747-35.328,56.466-62.934,64.145c-27.606,7.679-44.187-8.589-37.035-36.336
		c7.152-27.747,35.328-56.466,62.934-64.145C834.151,1486.978,850.732,1503.245,843.58,1530.993"/>
	<path class="st0" d="M1876.595,1243.578c-7.152,27.747-35.328,56.466-62.934,64.145c-27.606,7.679-44.187-8.589-37.035-36.336
		c7.152-27.747,35.328-56.466,62.934-64.145C1867.165,1199.563,1883.746,1215.831,1876.595,1243.578"/>
	<line class="st0" x1="2295.372" y1="122.783" x2="2524.993" y2="348.054"/>
	<line class="st0" x1="701.074" y1="1747.873" x2="930.695" y2="1973.144"/>
	<line class="st0" x1="2831.481" y1="2075.472" x2="2601.86" y2="1850.202"/>
	<polyline class="st0" points="2601.86,1850.202 2434.036,2021.259 2663.659,2246.538 	"/>
	<polyline class="st0" points="2796.59,614.502 2895.354,711.396 3124.975,936.667 	"/>
	<polyline class="st0" points="1530.68,2561.766 1301.056,2336.486 1202.294,2239.601 	"/>
	<line class="st0" x1="1202.294" y1="2239.601" x2="1232.813" y2="2121.181"/>
	<polyline class="st0" points="2231.499,1486.859 2001.875,1261.58 1834.054,1432.646 2063.675,1657.917 	"/>
	<line class="st0" x1="2063.675" y1="1657.917" x2="2231.499" y2="1486.859"/>
	<line class="st0" x1="2678.777" y1="647.281" x2="2796.59" y2="614.502"/>
	<polyline class="st1" points="2434.036,2021.259 1301.056,2336.486 1418.775,2303.733 1048.508,1940.365 930.695,1973.144 
		2063.675,1657.917 2231.499,1486.859 2524.993,348.054 2494.483,466.437 2864.284,829.285 2895.354,711.396 2601.86,1850.202 
		2632.378,1731.784 2316.222,2054.038 	"/>
	<line class="st0" x1="1468.689" y1="757.991" x2="1048.943" y2="346.207"/>
	<line class="st0" x1="1320.349" y1="909.191" x2="900.612" y2="497.405"/>
	<line class="st0" x1="1034.629" y1="933.727" x2="1032.901" y2="940.426"/>
	<line class="st0" x1="1487.743" y1="471.852" x2="1494.412" y2="469.996"/>
	<line class="st0" x1="2659.175" y1="2254.003" x2="1545.044" y2="2563.986"/>
	<line class="st1" x1="2316.222" y1="2054.038" x2="1951.352" y2="1689.168"/>
	<line class="st1" x1="2632.378" y1="1731.784" x2="2263.456" y2="1362.861"/>
</g>
<g>
	<path d="M144.148,2884.936H88.365v332.392H56.324v-332.392H0.08v-28.353h144.067V2884.936z"/>
	<path d="M378.574,2993.044l-46.332,224.745h-27.43l-32.963-170.345l-32.963,170.345h-26.969l-46.332-224.745h28.813l31.579,172.88
		l32.732-172.88h26.739l32.732,172.88l31.58-172.88H378.574z"/>
	<path d="M545.231,3191.281c0,17.368-8.684,26.048-26.047,26.048h-76.989c-17.213,0-25.817-8.68-25.817-26.048v-172.189
		c0-17.364,8.604-26.047,25.817-26.047h76.989c17.364,0,26.047,8.684,26.047,26.047V3191.281z M514.574,3190.359v-170.346h-67.539
		v170.346H514.574z"/>
	<path class="st2" d="M938.246,3217.328h-52.325v-188.786l-49.559,0.921v187.864h-52.556v-188.786l-49.559,0.921v187.864h-52.786
		v-232.813h52.786v8.529c12.293-1.995,24.509-3.995,36.65-5.993c14.904-2.305,27.276-3.458,37.112-3.458
		c12.138,0,19.975,3.458,23.512,10.373c12.909-1.995,25.817-4.07,38.726-6.224c17.058-2.767,30.117-4.149,39.186-4.149
		c19.208,0,28.813,9.451,28.813,28.353V3217.328z"/>
	<path class="st2" d="M1029.758,2951.091h-52.786v-54.399h52.786V2951.091z M1029.297,3217.328h-51.864v-232.813h51.864V3217.328z"
		/>
	<path class="st2" d="M1219.005,3188.514c0,19.212-9.761,28.814-29.275,28.814h-91.511c-19.824,0-29.735-9.602-29.735-28.814
		v-175.186c0-19.208,9.912-28.813,29.735-28.813h91.511c19.514,0,29.275,9.605,29.275,28.813v55.322h-51.403v-40.108h-47.254
		v144.989h47.254v-44.488h51.403V3188.514z"/>
	<path class="st2" d="M1403.641,3081.79h-52.326v-53.248l-41.722,0.921v187.864h-52.786v-232.813h52.786v8.529
		c10.909-1.995,21.743-3.995,32.501-5.993c13.06-2.305,23.973-3.458,32.732-3.458c19.208,0,28.813,9.451,28.813,28.353V3081.79z"/>
	<path class="st2" d="M1586.895,3188.514c0,19.212-9.76,28.814-29.275,28.814h-94.508c-19.824,0-29.735-9.602-29.735-28.814
		v-175.186c0-19.208,9.912-28.813,29.735-28.813h94.508c19.514,0,29.275,9.605,29.275,28.813V3188.514z M1535.261,3173.531v-144.989
		h-50.02v144.989H1535.261z"/>
	<path d="M1751.938,3191.281c0,17.368-8.684,26.048-26.047,26.048h-70.305c-17.367,0-26.047-8.68-26.047-26.048v-50.942h30.197
		v50.481h62.006v-44.718l-80.216-65.695c-7.686-6.145-11.526-14.136-11.526-23.972v-37.342c0-17.364,8.68-26.047,26.047-26.047
		h69.382c17.364,0,26.047,8.684,26.047,26.047v44.718h-29.735v-44.257h-62.006v39.186l80.908,65.694
		c7.527,5.994,11.295,14.141,11.295,24.435V3191.281z"/>
	<path d="M1881.253,3217.328h-43.566c-17.213,0-25.816-8.68-25.816-26.048v-171.268h-26.97v-26.969h26.97V2923.2h30.196v69.844
		h39.186v26.969h-39.186v170.346h39.186V3217.328z"/>
	<path d="M2045.836,3191.281c0,17.368-8.608,26.048-25.817,26.048h-73.762c-17.212,0-25.817-8.68-25.817-26.048v-172.189
		c0-17.364,8.605-26.047,25.817-26.047h73.762c17.209,0,25.817,8.684,25.817,26.047v80.678l-10.373,10.833h-85.288v81.139h65.926
		v-41.03h29.735V3191.281z M2016.101,3086.169v-67.539h-65.926v67.539H2016.101z"/>
	<path d="M2225.401,3169.152c0,13.83-4.534,25.32-13.599,34.461c-9.069,9.144-20.44,13.715-34.116,13.715h-50.481v85.057h-30.658
		v-309.341h30.658v6.224c12.137-1.535,24.279-3.072,36.42-4.61c15.365-1.995,27.431-2.997,36.19-2.997
		c17.058,0,25.586,8.377,25.586,25.125V3169.152z M2194.744,3164.542v-144.067l-67.539,1.844v168.041h42.413
		C2186.366,3190.359,2194.744,3181.754,2194.744,3164.542z"/>
	<path d="M2395.286,3191.281c0,17.368-8.684,26.048-26.048,26.048h-70.304c-17.368,0-26.048-8.68-26.048-26.048v-50.942h30.197
		v50.481h62.006v-44.718l-80.216-65.695c-7.687-6.145-11.526-14.136-11.526-23.972v-37.342c0-17.364,8.681-26.047,26.048-26.047
		h69.383c17.364,0,26.048,8.684,26.048,26.047v44.718h-29.736v-44.257h-62.006v39.186l80.908,65.694
		c7.527,5.994,11.295,14.141,11.295,24.435V3191.281z"/>
	<path class="st3" d="M2621.182,2883.553h-43.335v109.491h38.265v26.969h-38.265v197.315h-30.197v-197.315h-26.048v-26.969h26.048
		v-110.413c0-17.364,8.605-26.048,25.817-26.048h47.715V2883.553z"/>
	<path class="st3" d="M2777.466,3191.281c0,17.368-8.683,26.048-26.046,26.048h-76.99c-17.212,0-25.817-8.68-25.817-26.048v-172.189
		c0-17.364,8.605-26.047,25.817-26.047h76.99c17.364,0,26.046,8.684,26.046,26.047V3191.281z M2746.809,3190.359v-170.346h-67.539
		v170.346H2746.809z"/>
	<path class="st3" d="M2944.816,3066.806h-30.197v-46.332l-56.474,1.844v195.01h-30.658v-224.284h30.658v6.224
		c10.142-1.535,20.36-3.148,30.658-4.842c12.292-1.844,22.51-2.765,30.657-2.765c16.904,0,25.356,8.377,25.356,25.125V3066.806z"/>
	<path class="st3" d="M3184.313,2993.044l-46.332,224.745h-27.43l-32.963-170.345l-32.962,170.345h-26.97l-46.332-224.745h28.814
		l31.579,172.88l32.732-172.88h26.739l32.733,172.88l31.579-172.88H3184.313z"/>
	<path class="st3" d="M3348.896,3217.328h-30.197v-6.223c-12.142,1.692-24.282,3.305-36.42,4.84
		c-15.062,1.844-27.124,2.765-36.19,2.765c-16.752,0-25.126-8.298-25.126-24.895v-81.83c0-17.208,8.681-25.816,26.048-25.816h72.149
		v-67.539h-65.925v38.265H3223.5v-37.803c0-17.364,8.604-26.047,25.816-26.047h73.762c17.209,0,25.817,8.684,25.817,26.047V3217.328
		z M3319.16,3189.437v-79.295h-68.46v80.678L3319.16,3189.437z"/>
	<path class="st3" d="M3516.474,3066.806h-30.197v-46.332l-56.474,1.844v195.01h-30.658v-224.284h30.658v6.224
		c10.142-1.535,20.36-3.148,30.658-4.842c12.292-1.844,22.51-2.765,30.657-2.765c16.903,0,25.356,8.377,25.356,25.125V3066.806z"/>
	<path class="st3" d="M3682.901,3217.328h-30.427v-6.223c-32.887,5.071-51.097,7.606-54.63,7.606
		c-13.063,0-23.591-4.416-31.579-13.254c-7.992-8.835-11.987-19.86-11.987-33.078V3041.22c0-13.83,4.531-25.316,13.6-34.461
		c9.065-9.141,20.436-13.715,34.115-13.715h50.481v-136.461h30.427V3217.328z M3652.475,3189.437v-169.424h-42.414
		c-16.905,0-25.355,8.684-25.355,26.048v119.864c0,17.213,8.45,25.817,25.355,25.817
		C3614.055,3191.742,3628.192,3190.975,3652.475,3189.437z"/>
	<path d="M3764.963,3217.328h-35.037v-40.569h35.037V3217.328z"/>
	<path d="M3843.335,3217.328h-35.037v-40.569h35.037V3217.328z"/>
	<path d="M3921.708,3217.328h-35.037v-40.569h35.037V3217.328z"/>
	<path d="M4000.08,3217.328h-35.037v-40.569h35.037V3217.328z"/>
</g>
</svg>
