<?xml version="1.0" encoding="utf-8"?>
<!-- Generator: Adobe Illustrator 22.1.0, SVG Export Plug-In . SVG Version: 6.00 Build 0)  -->
<svg version="1.1" id="Layer_1" xmlns="http://www.w3.org/2000/svg" xmlns:xlink="http://www.w3.org/1999/xlink" x="0px" y="0px"
	 viewBox="0 0 1491.6 4000" style="enable-background:new 0 0 1491.6 4000;" xml:space="preserve">
<style type="text/css">
	.st0{fill:none;stroke:#000000;stroke-width:11.3386;stroke-linecap:round;stroke-linejoin:round;stroke-miterlimit:10;}
</style>
<g>
	<path class="st0" d="M893.915,2894.032c6.799-6.888,4.081-15.599-6.455-20.684c-10.536-5.085-25.866-5.085-36.402,0
		c-10.536,5.085-13.254,13.796-6.455,20.684"/>
	<path class="st0" d="M952.981,2834.195c23.089-23.389,13.858-52.966-21.918-70.232c-35.776-17.266-87.832-17.266-123.608,0
		s-45.007,46.843-21.918,70.232"/>
	<polyline class="st0" points="724.349,2598.791 671.311,2713.069 671.311,2837.272 816.217,2920.93 1014.162,2890.31 	"/>
	<polyline class="st0" points="922.293,2568.163 724.349,2598.791 724.349,2722.986 671.311,2837.272 	"/>
	<polyline class="st0" points="922.293,2568.163 922.293,2692.366 724.349,2722.986 	"/>
	<polyline class="st0" points="1014.162,2890.31 1067.2,2776.032 1067.2,2651.829 922.293,2568.163 	"/>
	<line class="st0" x1="1067.2" y1="2776.032" x2="922.293" y2="2692.366"/>
	<path class="st0" d="M1020.004,2624.57c7.645-32.664-17.032-65.05-63.904-83.867c-46.873-18.817-108.048-20.897-158.422-5.386
		c-50.374,15.511-81.464,46-80.512,78.957"/>
	<polyline class="st0" points="952.978,2834.198 893.911,2894.037 893.613,2894.335 893.307,2894.625 892.993,2894.915 
		892.679,2895.196 892.035,2895.736 891.375,2896.259 890.707,2896.75 890.023,2897.225 889.323,2897.667 888.614,2898.094 
		887.89,2898.505 887.157,2898.891 886.417,2899.253 885.66,2899.607 884.903,2899.929 884.131,2900.243 883.35,2900.533 
		882.569,2900.807 881.772,2901.064 880.967,2901.306 880.162,2901.523 879.349,2901.732 878.528,2901.918 877.699,2902.087 
		876.87,2902.248 876.033,2902.385 875.196,2902.505 874.359,2902.61 873.505,2902.698 872.66,2902.771 871.815,2902.827 
		870.962,2902.867 870.109,2902.892 869.255,2902.9 868.402,2902.892 867.549,2902.867 866.695,2902.827 865.85,2902.771 
		864.997,2902.698 864.152,2902.61 863.315,2902.505 862.469,2902.385 861.64,2902.248 860.811,2902.087 859.982,2901.918 
		859.161,2901.732 858.348,2901.523 857.535,2901.306 856.738,2901.064 855.941,2900.807 855.153,2900.533 854.38,2900.243 
		853.607,2899.929 852.842,2899.607 852.094,2899.253 851.353,2898.891 850.621,2898.505 849.896,2898.094 849.188,2897.667 
		848.488,2897.225 847.803,2896.75 847.127,2896.259 846.475,2895.736 845.831,2895.196 845.517,2894.915 845.203,2894.625 
		844.898,2894.335 844.6,2894.037 785.533,2834.198 	"/>
	<line class="st0" x1="717.136" y1="2612.813" x2="717.136" y2="2612.064"/>
	<line class="st0" x1="1021.374" y1="2612.813" x2="1021.374" y2="2612.064"/>
	<path class="st0" d="M1407.065,2144.827c60.869-113.882,8.875-237.865-135.48-323.059s-357.904-117.927-556.441-85.293"/>
	<path class="st0" d="M1434.626,2046.94c0-102.808-83.891-199.608-226.405-261.246c-142.514-61.638-326.997-80.909-497.884-52.01"/>
	<path class="st0" d="M1434.626,2009.679c0-107.987-92.504-208.986-247.087-269.779c-154.583-60.793-351.238-73.511-525.287-33.971"
		/>
	<path class="st0" d="M1424.469,1947.813c1.854-148.888-174.101-278.913-424.772-313.891
		c-250.671-34.979-510.059,34.298-626.185,167.24"/>
	<path class="st0" d="M1427.019,1943.44c0-150.779-181.209-281.371-436.075-314.266S475.8,1669.89,364.594,1806.316"/>
	<path class="st0" d="M1427.019,1906.179c0-162.44-209.549-299.447-488.741-319.548s-540.601,82.999-609.697,240.464"/>
	<path class="st0" d="M1422.839,1866.662c15.544-116.337-79.631-228.362-248.485-292.479
		c-168.854-64.117-384.716-70.198-563.58-15.875c-178.863,54.322-292.475,160.465-296.621,277.124"/>
	<path class="st0" d="M1427.019,1839.94c0-177.264-248.139-321.195-555.166-322.019s-557.474,141.769-560.329,319.025"/>
	<path class="st0" d="M1427.019,1802.679c0-177.848-249.717-322.023-557.759-322.023S311.5,1624.83,311.5,1802.679"/>
	<path class="st0" d="M1422.839,1763.163c16.042-120.066-85.821-235.194-263.721-298.062c-177.899-62.867-401.818-62.867-579.717,0
		c-177.899,62.868-279.763,177.995-263.721,298.062"/>
	<path class="st0" d="M1427.019,1736.432c0-177.848-249.717-322.023-557.759-322.023S311.5,1558.583,311.5,1736.432"/>
	<path class="st0" d="M1427.019,1699.171c0-177.848-249.717-322.023-557.759-322.023S311.5,1521.322,311.5,1699.171"/>
	<path class="st0" d="M1422.839,1659.654c16.042-120.066-85.821-235.194-263.721-298.062c-177.899-62.867-401.818-62.867-579.717,0
		c-177.899,62.868-279.763,177.995-263.721,298.062"/>
	<path class="st0" d="M1427.019,1632.932c0-177.848-249.717-322.023-557.759-322.023S311.5,1455.083,311.5,1632.932"/>
	<path class="st0" d="M1427.019,1595.671c0-177.848-249.717-322.023-557.759-322.023S311.5,1417.822,311.5,1595.671"/>
	<path class="st0" d="M1422.839,1556.154c16.042-120.066-85.821-235.194-263.721-298.061c-177.899-62.868-401.818-62.868-579.717,0
		c-177.899,62.867-279.763,177.995-263.721,298.061"/>
	<path class="st0" d="M1427.019,1529.432c0-177.848-249.717-322.023-557.759-322.023S311.5,1351.583,311.5,1529.432"/>
	<path class="st0" d="M1427.019,1492.17c0-177.848-249.717-322.023-557.759-322.023S311.5,1314.322,311.5,1492.17"/>
	<path class="st0" d="M1422.839,1452.654c16.042-120.066-85.821-235.194-263.721-298.061c-177.899-62.867-401.818-62.867-579.717,0
		c-177.899,62.868-279.763,177.995-263.721,298.061"/>
	<path class="st0" d="M1427.019,1425.931c0-177.848-249.717-322.023-557.759-322.023S311.5,1248.083,311.5,1425.931"/>
	<path class="st0" d="M1427.019,1388.671c0-177.849-249.717-322.023-557.759-322.023S311.5,1210.822,311.5,1388.671"/>
	<path class="st0" d="M1422.839,1349.154c16.042-120.066-85.821-235.194-263.721-298.061c-177.899-62.868-401.818-62.868-579.717,0
		c-177.899,62.867-279.763,177.995-263.721,298.061"/>
	<path class="st0" d="M1427.019,1322.423c0-177.849-249.717-322.023-557.759-322.023S311.5,1144.575,311.5,1322.423"/>
	<path class="st0" d="M1427.019,1285.162c0-177.848-249.717-322.023-557.759-322.023S311.5,1107.314,311.5,1285.162"/>
	<path class="st0" d="M1422.839,1245.646c16.042-120.066-85.821-235.194-263.721-298.061c-177.899-62.868-401.818-62.868-579.717,0
		c-177.899,62.868-279.763,177.995-263.721,298.061"/>
	<path class="st0" d="M1427.019,1218.923c0-177.848-249.717-322.023-557.759-322.023S311.5,1041.075,311.5,1218.923"/>
	<path class="st0" d="M1427.019,1181.662c0-177.848-249.717-322.023-557.759-322.023S311.5,1003.814,311.5,1181.662"/>
	<path class="st0" d="M1422.839,1142.146c16.042-120.066-85.821-235.194-263.721-298.062c-177.899-62.867-401.818-62.867-579.717,0
		c-177.899,62.868-279.763,177.995-263.721,298.062"/>
	<path class="st0" d="M1427.019,1115.423c0-177.849-249.717-322.023-557.759-322.023S311.5,937.575,311.5,1115.423"/>
	<path class="st0" d="M1427.019,1078.162c0-177.849-249.717-322.023-557.759-322.023S311.5,900.314,311.5,1078.162"/>
	<path class="st0" d="M1422.839,1038.646c16.042-120.066-85.821-235.194-263.721-298.061c-177.899-62.868-401.818-62.868-579.717,0
		C401.502,803.452,299.638,918.58,315.68,1038.646"/>
	<path class="st0" d="M1427.019,1011.923c0-177.849-249.717-322.023-557.759-322.023S311.5,834.075,311.5,1011.923"/>
	<path class="st0" d="M1427.019,974.662c0-177.848-249.717-322.023-557.759-322.023S311.5,796.814,311.5,974.662"/>
	<path class="st0" d="M1113.36,684.109c-144.519-62.867-343.683-62.867-488.201,0"/>
	<path class="st0" d="M1248.846,737.832c-52.264-95.632-205.898-160.657-379.586-160.657S541.937,642.2,489.673,737.832"/>
	<path class="st0" d="M1274.9,688.995c0-129.342-181.612-234.195-405.641-234.195S463.619,559.652,463.619,688.995"/>
	<path class="st0" d="M1206.354,556.584c104.695-96.27,71.752-222.268-77.495-296.406c-149.248-74.138-369.952-74.138-519.199,0
		c-149.247,74.138-182.189,200.136-77.495,296.406"/>
	<path class="st0" d="M1173.493,434.382c0-97.01-136.21-175.652-304.234-175.652s-304.234,78.642-304.234,175.652"/>
	<polyline class="st0" points="1434.617,2009.683 1434.617,2046.944 1434.617,2048.553 1434.594,2050.164 1434.561,2051.765 
		1434.513,2053.375 1434.448,2054.977 1434.376,2056.587 1434.287,2058.197 1434.183,2059.799 1434.07,2061.408 1433.933,2063.01 
		1433.796,2064.612 1433.635,2066.222 1433.466,2067.824 1433.281,2069.426 1433.088,2071.028 1432.871,2072.63 1432.645,2074.231 
		1432.412,2075.833 1432.162,2077.435 1431.897,2079.029 1431.615,2080.631 1431.325,2082.233 1431.02,2083.826 1430.697,2085.42 
		1430.367,2087.014 1430.021,2088.608 1429.659,2090.201 1429.289,2091.795 1428.902,2093.381 1428.508,2094.975 1428.089,2096.561 
		1427.663,2098.146 1427.228,2099.732 1426.777,2101.318 1426.31,2102.904 1425.828,2104.481 1425.337,2106.067 1424.829,2107.645 
		1424.314,2109.222 1423.783,2110.792 1423.236,2112.37 1422.68,2113.939 1422.109,2115.509 1421.521,2117.079 1420.925,2118.648 
		1420.313,2120.21 1419.686,2121.78 1419.05,2123.341 1418.398,2124.895 1417.73,2126.456 1417.053,2128.01 1416.37,2129.563 
		1415.661,2131.117 1414.945,2132.662 1414.22,2134.216 1413.472,2135.753 1412.723,2137.299 1411.95,2138.844 1411.169,2140.382 
		1410.373,2141.911 1409.568,2143.449 1408.746,2144.978 1407.917,2146.508 1407.064,2148.037 	"/>
	<polyline class="st0" points="660.975,1705.204 664.976,1704.294 668.985,1703.409 673.009,1702.531 677.042,1701.678 
		681.091,1700.841 685.148,1700.028 689.213,1699.223 693.294,1698.442 697.383,1697.677 701.48,1696.929 705.585,1696.204 
		709.699,1695.496 713.828,1694.804 717.965,1694.128 722.103,1693.468 726.256,1692.832 730.418,1692.212 734.588,1691.616 
		738.765,1691.036 742.943,1690.465 747.137,1689.926 751.339,1689.395 755.54,1688.887 759.75,1688.396 763.968,1687.929 
		768.194,1687.471 772.42,1687.036 776.654,1686.625 780.896,1686.223 785.146,1685.845 789.396,1685.49 793.647,1685.144 
		797.905,1684.822 802.171,1684.516 806.437,1684.235 810.712,1683.969 814.986,1683.72 819.26,1683.486 823.542,1683.277 
		827.825,1683.084 832.107,1682.915 836.397,1682.754 840.688,1682.625 844.978,1682.504 849.268,1682.408 853.559,1682.327 
		857.857,1682.271 862.148,1682.222 866.446,1682.206 870.744,1682.198 875.035,1682.214 879.333,1682.255 883.624,1682.303 
		887.922,1682.375 892.212,1682.472 896.503,1682.577 900.793,1682.705 905.083,1682.858 909.366,1683.027 913.648,1683.212 
		917.93,1683.414 922.213,1683.639 926.487,1683.881 930.761,1684.146 935.027,1684.428 939.294,1684.726 943.552,1685.04 
		947.81,1685.378 952.06,1685.732 956.302,1686.11 960.544,1686.497 964.786,1686.907 969.012,1687.342 973.238,1687.785 
		977.456,1688.251 981.674,1688.734 985.876,1689.242 990.078,1689.765 994.271,1690.304 998.457,1690.859 1002.635,1691.439 
		1006.805,1692.035 1010.974,1692.646 1015.128,1693.274 1019.273,1693.926 1023.411,1694.594 1027.54,1695.279 1031.661,1695.987 
		1035.766,1696.711 1039.872,1697.452 1043.961,1698.209 1048.042,1698.981 1052.115,1699.778 1056.172,1700.591 1060.221,1701.42 
		1064.262,1702.266 1068.286,1703.135 1072.303,1704.02 1076.304,1704.922 1080.296,1705.84 1084.272,1706.781 1088.241,1707.731 
		1092.193,1708.705 1096.137,1709.695 1100.066,1710.701 1103.978,1711.724 1107.882,1712.762 1111.77,1713.825 1115.641,1714.895 
		1119.497,1715.99 1123.345,1717.101 1127.176,1718.228 1130.992,1719.371 1134.791,1720.53 1138.574,1721.705 1142.349,1722.896 
		1146.1,1724.104 1149.844,1725.335 1153.562,1726.575 1157.265,1727.831 1160.96,1729.111 1164.63,1730.398 1168.285,1731.702 
		1171.923,1733.031 1175.546,1734.367 1179.152,1735.719 1182.734,1737.088 1186.3,1738.48 1189.849,1739.881 1193.383,1741.297 
		1196.893,1742.73 1200.386,1744.179 1203.864,1745.644 1207.317,1747.117 1210.754,1748.614 1214.167,1750.128 1217.564,1751.649 
		1220.936,1753.187 1224.293,1754.74 1227.625,1756.31 1230.942,1757.895 1234.234,1759.497 1237.502,1761.107 1240.754,1762.741 
		1243.982,1764.383 1247.194,1766.042 1250.373,1767.708 1253.537,1769.39 1256.684,1771.089 1259.799,1772.803 1262.898,1774.534 
		1265.973,1776.272 1269.024,1778.027 1272.051,1779.79 1275.053,1781.569 1278.039,1783.364 1280.993,1785.167 1283.932,1786.986 
		1286.837,1788.821 1289.727,1790.665 1292.585,1792.524 1295.426,1794.392 1298.244,1796.275 1301.029,1798.175 1303.797,1800.083 
		1306.534,1801.998 1309.247,1803.93 1311.936,1805.878 1314.6,1807.834 1317.24,1809.798 1319.848,1811.779 1322.44,1813.767 
		1325,1815.771 1327.527,1817.783 1330.039,1819.812 1332.518,1821.848 1334.973,1823.893 1337.396,1825.954 1339.795,1828.022 
		1342.169,1830.099 1344.512,1832.192 1346.83,1834.293 1349.116,1836.402 1351.378,1838.527 1353.616,1840.652 1355.821,1842.793 
		1357.995,1844.95 1360.144,1847.108 1362.269,1849.281 1364.362,1851.462 1366.422,1853.652 1368.459,1855.849 1370.463,1858.055 
		1372.443,1860.277 1374.391,1862.498 1376.307,1864.736 1378.199,1866.974 1380.058,1869.228 1381.894,1871.489 1383.697,1873.751 
		1385.468,1876.029 1387.206,1878.316 1388.921,1880.609 1390.603,1882.904 1392.253,1885.214 1393.879,1887.524 1395.473,1889.85 
		1397.035,1892.177 1398.564,1894.511 1400.061,1896.853 1401.534,1899.204 1402.975,1901.562 1404.384,1903.921 1405.76,1906.295 
		1407.104,1908.67 1408.416,1911.053 1409.704,1913.435 1410.952,1915.826 1412.176,1918.225 1413.359,1920.631 1414.518,1923.046 
		1415.645,1925.461 1416.74,1927.876 1417.794,1930.307 1418.824,1932.738 1419.823,1935.169 1420.788,1937.608 1421.722,1940.055 
		1422.624,1942.502 1423.485,1944.957 1424.322,1947.412 1425.127,1949.875 1425.9,1952.338 1426.64,1954.809 1427.341,1957.281 
		1428.017,1959.752 1428.661,1962.231 1429.265,1964.71 1429.844,1967.198 1430.391,1969.677 1430.899,1972.164 1431.374,1974.66 
		1431.824,1977.155 1432.235,1979.642 1432.613,1982.145 1432.967,1984.641 1433.281,1987.144 1433.563,1989.64 1433.805,1992.143 
		1434.022,1994.646 1434.207,1997.15 1434.352,1999.661 1434.473,2002.165 1434.553,2004.668 1434.601,2007.179 1434.617,2009.683 	
		"/>
	<polyline class="st0" points="1427.011,1906.183 1427.011,1943.444 1427.011,1944.876 1426.995,1946.301 1426.962,1947.734 
		1426.93,1949.167 1426.882,1950.592 1426.818,1952.024 1426.745,1953.449 1426.665,1954.882 	"/>
	<polyline class="st0" points="328.371,1827.225 329.949,1823.676 331.599,1820.134 333.314,1816.6 335.101,1813.083 
		336.96,1809.581 338.884,1806.088 340.872,1802.602 342.933,1799.141 345.058,1795.688 347.255,1792.251 349.517,1788.829 
		351.844,1785.425 354.234,1782.036 356.697,1778.663 359.225,1775.306 361.809,1771.974 364.465,1768.649 367.186,1765.349 
		369.971,1762.065 372.821,1758.797 375.726,1755.553 378.697,1752.325 381.731,1749.113 384.83,1745.926 387.994,1742.762 
		391.214,1739.623 394.49,1736.5 397.83,1733.393 401.235,1730.318 404.696,1727.259 408.214,1724.233 411.788,1721.222 
		415.426,1718.236 419.121,1715.273 422.88,1712.343 426.688,1709.43 430.551,1706.548 434.479,1703.69 438.456,1700.857 
		442.489,1698.048 446.578,1695.271 450.715,1692.518 454.917,1689.789 459.159,1687.092 463.458,1684.428 467.812,1681.788 
		472.215,1679.172 476.667,1676.588 481.166,1674.036 485.722,1671.517 490.319,1669.021 494.963,1666.558 499.664,1664.127 
		504.405,1661.72 509.195,1659.354 514.024,1657.011 518.902,1654.701 523.829,1652.431 528.795,1650.185 533.81,1647.98 
		538.865,1645.799 543.96,1643.657 549.096,1641.548 554.28,1639.472 559.496,1637.427 564.752,1635.423 570.057,1633.451 
		575.393,1631.511 580.762,1629.611 586.172,1627.744 591.621,1625.908 597.103,1624.113 602.617,1622.359 608.163,1620.636 
		613.749,1618.946 619.368,1617.295 625.01,1615.677 630.693,1614.1 636.4,1612.562 642.14,1611.057 647.903,1609.592 
		653.699,1608.167 659.518,1606.775 665.37,1605.422 671.238,1604.11 677.139,1602.839 683.063,1601.599 689.012,1600.4 
		694.984,1599.24 700.981,1598.122 706.994,1597.043 713.031,1596.005 719.084,1595.006 725.162,1594.041 731.255,1593.123 
		737.365,1592.237 743.49,1591.4 749.632,1590.603 755.79,1589.839 761.964,1589.122 768.154,1588.438 774.352,1587.802 
		780.566,1587.198 786.788,1586.643 793.019,1586.128 799.265,1585.645 805.52,1585.21 811.774,1584.816 818.045,1584.462 
		824.315,1584.148 830.594,1583.866 836.88,1583.641 843.167,1583.447 849.462,1583.295 855.756,1583.182 862.051,1583.117 
		868.354,1583.093 874.648,1583.101 880.943,1583.158 887.238,1583.254 893.533,1583.391 899.819,1583.576 906.106,1583.794 
		912.392,1584.059 918.663,1584.357 924.933,1584.703 931.196,1585.089 937.45,1585.516 943.697,1585.983 949.935,1586.49 
		956.157,1587.037 962.371,1587.625 968.578,1588.253 974.768,1588.921 980.942,1589.629 987.107,1590.378 993.257,1591.167 
		999.383,1591.996 1005.501,1592.865 1011.602,1593.775 1017.679,1594.725 1023.741,1595.715 1029.786,1596.745 1035.807,1597.808 
		1041.804,1598.918 1047.784,1600.062 1053.741,1601.253 1059.673,1602.476 1065.582,1603.74 1071.458,1605.036 1077.318,1606.38 
		1083.146,1607.757 1088.949,1609.173 1094.721,1610.63 1100.468,1612.128 1106.183,1613.657 1111.874,1615.219 1117.525,1616.828 
		1123.151,1618.471 1128.738,1620.145 1134.3,1621.859 1139.822,1623.606 1145.32,1625.393 1150.769,1627.22 1156.195,1629.072 
		1161.58,1630.963 1166.925,1632.895 1172.229,1634.859 1177.502,1636.856 1182.734,1638.884 1187.926,1640.953 1193.077,1643.046 
		1198.189,1645.179 1203.252,1647.344 1208.275,1649.55 1213.257,1651.779 1218.2,1654.041 1223.094,1656.343 1227.939,1658.67 
		1232.737,1661.036 1237.494,1663.427 1242.203,1665.85 1246.864,1668.305 1251.476,1670.792 1256.04,1673.312 1260.556,1675.855 
		1265.023,1678.431 1269.434,1681.031 1273.805,1683.663 1278.112,1686.328 1282.378,1689.016 1286.588,1691.729 1290.741,1694.474 
		1294.847,1697.251 1298.896,1700.044 1302.888,1702.869 1306.824,1705.727 1310.712,1708.601 1314.536,1711.506 1318.311,1714.428 
		1322.022,1717.382 1325.676,1720.361 1329.274,1723.363 1332.816,1726.39 1336.293,1729.432 1339.714,1732.507 1343.071,1735.599 
		1346.371,1738.722 1349.607,1741.853 1352.779,1745.016 1355.894,1748.196 1358.944,1751.4 1361.939,1754.619 1364.861,1757.863 
		1367.726,1761.123 1370.528,1764.399 1373.264,1767.7 1375.937,1771.016 1378.545,1774.349 1381.089,1777.705 1383.568,1781.07 
		1385.983,1784.459 1388.325,1787.855 1390.603,1791.269 1392.825,1794.706 1394.966,1798.151 1397.051,1801.612 1399.063,1805.089 
		1401.003,1808.575 1402.878,1812.076 1404.69,1815.586 1406.428,1819.12 1408.095,1822.653 1409.696,1826.203 1411.226,1829.761 
		1412.683,1833.335 1414.075,1836.917 1415.395,1840.507 1416.643,1844.105 1417.818,1847.711 1418.929,1851.326 1419.967,1854.956 
		1420.933,1858.578 1421.835,1862.217 1422.656,1865.863 1423.413,1869.509 1424.097,1873.164 1424.709,1876.818 1425.248,1880.481 
		1425.715,1884.143 1426.109,1887.814 1426.439,1891.484 1426.689,1895.155 1426.866,1898.834 1426.979,1902.504 1427.011,1906.183 
			"/>
	<polyline class="st0" points="1427.011,1839.944 1427.003,1842.012 1426.971,1844.089 1426.914,1846.166 1426.834,1848.234 
		1426.729,1850.311 1426.6,1852.38 1426.455,1854.457 1426.278,1856.526 1426.085,1858.594 1425.868,1860.663 1425.626,1862.732 
		1425.369,1864.8 1425.079,1866.869 1424.773,1868.938 1424.435,1870.999 1424.081,1873.059 	"/>
	<line class="st0" x1="311.492" y1="1836.965" x2="311.492" y2="1802.683"/>
	<line class="st0" x1="1427.011" y1="1839.944" x2="1427.011" y2="1802.683"/>
	<polyline class="st0" points="311.492,1802.683 311.54,1798.69 311.669,1794.706 311.878,1790.721 312.176,1786.737 
		312.562,1782.76 313.029,1778.776 313.577,1774.807 314.212,1770.839 314.937,1766.871 315.742,1762.918 316.627,1758.966 
		317.601,1755.014 318.656,1751.078 319.791,1747.149 321.014,1743.229 322.318,1739.317 323.703,1735.421 325.168,1731.533 
		326.721,1727.654 328.347,1723.782 330.062,1719.926 331.857,1716.086 333.74,1712.263 335.696,1708.448 337.733,1704.648 
		339.85,1700.865 342.055,1697.098 344.333,1693.355 346.692,1689.62 349.131,1685.909 351.642,1682.206 354.242,1678.536 
		356.915,1674.873 359.66,1671.235 362.485,1667.621 365.391,1664.023 368.361,1660.449 371.412,1656.891 374.543,1653.357 
		377.739,1649.855 381.015,1646.37 384.363,1642.909 387.784,1639.472 391.27,1636.059 394.836,1632.67 398.466,1629.313 
		402.177,1625.981 405.944,1622.672 409.792,1619.388 413.704,1616.136 417.688,1612.917 421.737,1609.721 425.85,1606.557 
		430.036,1603.426 434.286,1600.319 438.601,1597.244 442.988,1594.21 447.431,1591.199 451.939,1588.221 456.503,1585.275 
		461.139,1582.361 465.832,1579.479 470.581,1576.63 475.395,1573.82 480.265,1571.043 485.191,1568.298 490.182,1565.594 
		495.221,1562.921 500.324,1560.281 505.476,1557.681 510.684,1555.121 515.94,1552.594 521.261,1550.106 526.622,1547.66 
		532.039,1545.245 537.513,1542.878 543.026,1540.544 548.597,1538.25 554.215,1535.996 559.874,1533.782 565.589,1531.609 
		571.345,1529.476 577.14,1527.383 582.984,1525.338 588.876,1523.326 594.801,1521.362 600.773,1519.438 606.778,1517.554 
		612.831,1515.719 618.917,1513.924 625.043,1512.169 631.2,1510.463 637.398,1508.797 643.629,1507.171 649.899,1505.593 
		656.194,1504.064 662.521,1502.574 668.888,1501.134 675.271,1499.733 681.695,1498.381 688.142,1497.069 694.614,1495.813 
		701.118,1494.597 707.646,1493.43 714.198,1492.303 720.767,1491.233 727.367,1490.202 733.984,1489.22 740.625,1488.287 
		747.282,1487.401 753.955,1486.564 760.652,1485.767 767.357,1485.026 774.078,1484.326 780.824,1483.674 787.569,1483.071 
		794.339,1482.515 801.109,1482.008 807.894,1481.549 814.688,1481.139 821.49,1480.776 828.3,1480.463 835.117,1480.197 
		841.943,1479.98 848.761,1479.811 855.595,1479.682 862.421,1479.609 869.255,1479.585 876.089,1479.609 882.915,1479.682 
		889.741,1479.802 896.567,1479.972 903.393,1480.189 910.203,1480.463 917.013,1480.776 923.823,1481.139 930.616,1481.549 
		937.402,1482.008 944.172,1482.515 950.933,1483.071 957.687,1483.674 964.424,1484.326 971.153,1485.026 977.859,1485.767 
		984.556,1486.564 991.229,1487.401 997.886,1488.295 1004.527,1489.228 1011.143,1490.202 1017.736,1491.233 1024.312,1492.311 
		1030.864,1493.43 1037.392,1494.597 1043.896,1495.813 1050.368,1497.069 1056.816,1498.381 1063.239,1499.725 1069.63,1501.125 
		1075.99,1502.566 1082.317,1504.056 1088.619,1505.593 1094.882,1507.171 1101.112,1508.789 1107.31,1510.455 1113.468,1512.169 
		1119.594,1513.924 1125.679,1515.719 1131.724,1517.554 1137.737,1519.438 1143.702,1521.362 1149.634,1523.334 1155.518,1525.338 
		1161.362,1527.391 1167.166,1529.476 1172.921,1531.609 1178.628,1533.782 1184.295,1535.996 1189.914,1538.25 1195.476,1540.544 
		1200.998,1542.878 1206.471,1545.245 1211.889,1547.66 1217.258,1550.106 1222.57,1552.594 1227.835,1555.121 1233.043,1557.681 
		1238.194,1560.281 1243.29,1562.921 1248.337,1565.594 1253.319,1568.298 1258.246,1571.043 1263.116,1573.82 1267.929,1576.63 
		1272.678,1579.479 1277.371,1582.361 1282,1585.275 1286.572,1588.221 1291.079,1591.199 1295.523,1594.21 1299.902,1597.252 
		1304.216,1600.327 1308.466,1603.426 1312.652,1606.557 1316.765,1609.721 1320.822,1612.917 1324.807,1616.136 1328.719,1619.388 
		1332.566,1622.672 1336.342,1625.973 1340.044,1629.305 1343.683,1632.67 1347.24,1636.059 1350.734,1639.464 1354.155,1642.901 
		1357.496,1646.362 1360.772,1649.847 1363.967,1653.357 1367.099,1656.891 1370.149,1660.449 1373.12,1664.023 1376.017,1667.621 
		1378.843,1671.235 1381.596,1674.873 1384.26,1678.536 1386.86,1682.214 1389.371,1685.909 1391.81,1689.62 1394.169,1693.355 
		1396.455,1697.106 1398.653,1700.873 1400.77,1704.648 1402.814,1708.448 1404.778,1712.263 1406.654,1716.086 1408.449,1719.926 
		1410.163,1723.782 1411.797,1727.646 1413.351,1731.525 1414.816,1735.413 1416.2,1739.317 1417.504,1743.229 1418.728,1747.149 
		1419.863,1751.078 1420.917,1755.014 1421.891,1758.958 1422.777,1762.91 1423.582,1766.871 1424.298,1770.839 1424.934,1774.807 
		1425.481,1778.776 1425.948,1782.752 1426.335,1786.737 1426.632,1790.721 1426.842,1794.706 1426.971,1798.69 1427.011,1802.683 	
		"/>
	<polyline class="st0" points="1427.011,1736.436 1427.003,1738.512 1426.971,1740.589 1426.914,1742.658 1426.834,1744.735 
		1426.729,1746.803 1426.6,1748.88 1426.455,1750.949 1426.278,1753.025 1426.085,1755.094 1425.868,1757.163 1425.626,1759.232 
		1425.369,1761.3 1425.079,1763.369 1424.773,1765.43 1424.435,1767.498 1424.081,1769.559 	"/>
	<polyline class="st0" points="314.43,1769.559 314.068,1767.498 313.737,1765.43 313.432,1763.369 313.142,1761.3 
		312.884,1759.232 312.643,1757.163 312.425,1755.094 312.232,1753.025 312.055,1750.949 311.91,1748.88 311.782,1746.803 
		311.677,1744.735 311.596,1742.658 311.54,1740.589 311.508,1738.512 311.492,1736.436 311.492,1699.175 	"/>
	<line class="st0" x1="1427.011" y1="1736.436" x2="1427.011" y2="1699.175"/>
	<polyline class="st0" points="311.492,1699.175 311.54,1695.19 311.669,1691.206 311.878,1687.221 312.176,1683.237 
		312.562,1679.252 313.029,1675.276 313.577,1671.307 314.212,1667.331 314.937,1663.371 315.742,1659.41 316.627,1655.458 
		317.601,1651.514 318.656,1647.578 319.791,1643.649 321.014,1639.729 322.318,1635.817 323.703,1631.921 325.168,1628.025 
		326.721,1624.146 328.347,1620.282 330.062,1616.426 331.857,1612.587 333.74,1608.755 335.696,1604.948 337.733,1601.148 
		339.85,1597.365 342.055,1593.598 344.333,1589.847 346.692,1586.12 349.131,1582.401 351.642,1578.706 354.242,1575.028 
		356.915,1571.373 359.66,1567.735 362.485,1564.113 365.391,1560.522 368.361,1556.94 371.412,1553.391 374.543,1549.857 
		377.739,1546.347 381.015,1542.862 384.363,1539.401 387.784,1535.964 391.27,1532.559 394.836,1529.17 398.466,1525.805 
		402.177,1522.473 405.944,1519.164 409.792,1515.888 413.704,1512.636 417.688,1509.417 421.737,1506.221 425.85,1503.057 
		430.036,1499.926 434.286,1496.819 438.601,1493.744 442.988,1490.701 447.431,1487.691 451.939,1484.713 456.503,1481.767 
		461.139,1478.861 465.832,1475.979 470.581,1473.129 475.395,1470.32 480.265,1467.543 485.191,1464.798 490.182,1462.094 
		495.221,1459.421 500.324,1456.781 505.476,1454.181 510.684,1451.621 515.94,1449.094 521.261,1446.606 526.622,1444.159 
		532.039,1441.745 537.513,1439.37 543.026,1437.036 548.597,1434.741 554.215,1432.488 559.874,1430.282 565.589,1428.109 
		571.345,1425.976 577.14,1423.883 582.984,1421.83 588.876,1419.826 594.801,1417.862 600.773,1415.938 606.778,1414.054 
		612.831,1412.219 618.917,1410.416 625.043,1408.669 631.2,1406.955 637.398,1405.289 643.629,1403.671 649.899,1402.093 
		656.194,1400.563 662.521,1399.074 668.888,1397.625 675.271,1396.233 681.695,1394.881 688.142,1393.568 694.614,1392.305 
		701.118,1391.097 707.646,1389.922 714.198,1388.803 720.767,1387.725 727.367,1386.702 733.984,1385.72 740.625,1384.787 
		747.282,1383.901 753.955,1383.056 760.652,1382.267 767.357,1381.519 774.078,1380.826 780.824,1380.174 787.569,1379.571 
		794.339,1379.015 801.109,1378.508 807.894,1378.049 814.688,1377.639 821.49,1377.276 828.3,1376.963 835.117,1376.697 
		841.943,1376.472 848.761,1376.302 855.595,1376.182 862.421,1376.109 869.255,1376.085 876.089,1376.109 882.915,1376.182 
		889.741,1376.302 896.567,1376.472 903.393,1376.689 910.203,1376.954 917.013,1377.268 923.823,1377.639 930.616,1378.049 
		937.402,1378.508 944.172,1379.015 950.933,1379.571 957.687,1380.174 964.424,1380.826 971.153,1381.519 977.859,1382.267 
		984.556,1383.064 991.229,1383.901 997.886,1384.787 1004.527,1385.72 1011.143,1386.702 1017.736,1387.733 1024.312,1388.803 
		1030.864,1389.93 1037.392,1391.097 1043.896,1392.305 1050.368,1393.568 1056.816,1394.873 1063.239,1396.225 1069.63,1397.625 
		1075.99,1399.066 1082.317,1400.555 1088.619,1402.093 1094.882,1403.671 1101.112,1405.289 1107.31,1406.955 1113.468,1408.669 
		1119.594,1410.416 1125.679,1412.219 1131.724,1414.054 1137.737,1415.938 1143.702,1417.862 1149.634,1419.826 1155.518,1421.838 
		1161.362,1423.883 1167.166,1425.976 1172.921,1428.109 1178.628,1430.282 1184.295,1432.496 1189.914,1434.75 1195.476,1437.044 
		1200.998,1439.37 1206.471,1441.745 1211.889,1444.151 1217.258,1446.606 1222.57,1449.094 1227.835,1451.613 1233.043,1454.181 
		1238.194,1456.781 1243.29,1459.413 1248.337,1462.086 1253.319,1464.798 1258.246,1467.543 1263.116,1470.32 1267.929,1473.129 
		1272.678,1475.979 1277.371,1478.861 1282,1481.775 1286.572,1484.721 1291.079,1487.699 1295.523,1490.709 1299.902,1493.752 
		1304.216,1496.819 1308.466,1499.926 1312.652,1503.057 1316.765,1506.221 1320.822,1509.417 1324.807,1512.636 1328.719,1515.888 
		1332.566,1519.164 1336.342,1522.473 1340.044,1525.805 1343.683,1529.17 1347.24,1532.551 1350.734,1535.964 1354.155,1539.401 
		1357.496,1542.862 1360.772,1546.347 1363.967,1549.857 1367.099,1553.391 1370.149,1556.94 1373.12,1560.522 1376.017,1564.121 
		1378.843,1567.735 1381.596,1571.373 1384.26,1575.036 1386.86,1578.706 1389.371,1582.409 1391.81,1586.12 1394.169,1589.855 
		1396.455,1593.598 1398.653,1597.365 1400.77,1601.148 1402.814,1604.948 1404.778,1608.755 1406.654,1612.587 1408.449,1616.426 
		1410.163,1620.282 1411.797,1624.146 1413.351,1628.025 1414.816,1631.913 1416.2,1635.817 1417.504,1639.729 1418.728,1643.649 
		1419.863,1647.578 1420.917,1651.514 1421.891,1655.458 1422.777,1659.41 1423.582,1663.371 1424.298,1667.331 1424.934,1671.299 
		1425.481,1675.276 1425.948,1679.252 1426.335,1683.237 1426.632,1687.221 1426.842,1691.206 1426.971,1695.19 1427.011,1699.175 	
		"/>
	<polyline class="st0" points="1427.011,1632.936 1427.003,1635.012 1426.971,1637.081 1426.914,1639.158 1426.834,1641.234 
		1426.729,1643.303 1426.6,1645.38 1426.455,1647.449 1426.278,1649.517 1426.085,1651.594 1425.868,1653.663 1425.626,1655.732 
		1425.369,1657.8 1425.079,1659.861 1424.773,1661.93 1424.435,1663.998 1424.081,1666.059 	"/>
	<polyline class="st0" points="314.43,1666.059 314.068,1663.998 313.737,1661.93 313.432,1659.861 313.142,1657.8 
		312.884,1655.732 312.643,1653.663 312.425,1651.594 312.232,1649.517 312.055,1647.449 311.91,1645.38 311.782,1643.303 
		311.677,1641.234 311.596,1639.158 311.54,1637.081 311.508,1635.012 311.492,1632.936 311.492,1595.675 	"/>
	<line class="st0" x1="1427.011" y1="1632.936" x2="1427.011" y2="1595.675"/>
	<polyline class="st0" points="311.492,1595.675 311.54,1591.69 311.669,1587.706 311.878,1583.713 312.176,1579.737 
		312.562,1575.752 313.029,1571.776 313.577,1567.799 314.212,1563.831 314.937,1559.87 315.742,1555.91 316.627,1551.958 
		317.601,1548.014 318.656,1544.077 319.791,1540.149 321.014,1536.229 322.318,1532.317 323.703,1528.413 325.168,1524.525 
		326.721,1520.646 328.347,1516.782 330.062,1512.926 331.857,1509.086 333.74,1505.255 335.696,1501.448 337.733,1497.648 
		339.85,1493.865 342.055,1490.098 344.333,1486.347 346.692,1482.612 349.131,1478.901 351.642,1475.206 354.242,1471.528 
		356.915,1467.873 359.66,1464.235 362.485,1460.613 365.391,1457.015 368.361,1453.441 371.412,1449.891 374.543,1446.357 
		377.739,1442.847 381.015,1439.362 384.363,1435.901 387.784,1432.464 391.27,1429.051 394.836,1425.67 398.466,1422.305 
		402.177,1418.973 405.944,1415.664 409.792,1412.388 413.704,1409.136 417.688,1405.908 421.737,1402.721 425.85,1399.557 
		430.036,1396.418 434.286,1393.319 438.601,1390.244 442.988,1387.201 447.431,1384.191 451.939,1381.213 456.503,1378.266 
		461.139,1375.353 465.832,1372.479 470.581,1369.63 475.395,1366.82 480.265,1364.035 485.191,1361.298 490.182,1358.586 
		495.221,1355.913 500.324,1353.281 505.476,1350.681 510.684,1348.121 515.94,1345.594 521.261,1343.106 526.622,1340.651 
		532.039,1338.245 537.513,1335.87 543.026,1333.536 548.597,1331.242 554.215,1328.988 559.874,1326.774 565.589,1324.601 
		571.345,1322.468 577.14,1320.383 582.984,1318.33 588.876,1316.326 594.801,1314.354 600.773,1312.43 606.778,1310.554 
		612.831,1308.711 618.917,1306.916 625.043,1305.161 631.2,1303.455 637.398,1301.789 643.629,1300.171 649.899,1298.593 
		656.194,1297.055 662.521,1295.566 668.888,1294.125 675.271,1292.725 681.695,1291.373 688.142,1290.069 694.614,1288.805 
		701.118,1287.589 707.646,1286.422 714.198,1285.303 720.767,1284.225 727.367,1283.194 733.984,1282.22 740.625,1281.286 
		747.282,1280.393 753.955,1279.556 760.652,1278.767 767.357,1278.018 774.078,1277.318 780.824,1276.674 787.569,1276.07 
		794.339,1275.515 801.109,1275.008 807.894,1274.549 814.688,1274.139 821.49,1273.776 828.3,1273.463 835.117,1273.189 
		841.943,1272.971 848.761,1272.802 855.595,1272.682 862.421,1272.609 869.255,1272.585 876.089,1272.609 882.915,1272.682 
		889.741,1272.802 896.567,1272.971 903.393,1273.189 910.203,1273.454 917.013,1273.768 923.823,1274.131 930.616,1274.541 
		937.402,1275.008 944.172,1275.515 950.933,1276.07 957.687,1276.674 964.424,1277.318 971.153,1278.018 977.859,1278.767 
		984.556,1279.556 991.229,1280.401 997.886,1281.286 1004.527,1282.22 1011.143,1283.202 1017.736,1284.233 1024.312,1285.303 
		1030.864,1286.422 1037.392,1287.589 1043.896,1288.805 1050.368,1290.069 1056.816,1291.373 1063.239,1292.725 1069.63,1294.125 
		1075.99,1295.566 1082.317,1297.055 1088.619,1298.585 1094.882,1300.163 1101.112,1301.789 1107.31,1303.455 1113.468,1305.161 
		1119.594,1306.916 1125.679,1308.711 1131.724,1310.554 1137.737,1312.438 1143.702,1314.362 1149.634,1316.326 1155.518,1318.338 
		1161.362,1320.383 1167.166,1322.476 1172.921,1324.609 1178.628,1326.782 1184.295,1328.996 1189.914,1331.25 1195.476,1333.536 
		1200.998,1335.87 1206.471,1338.245 1211.889,1340.651 1217.258,1343.098 1222.57,1345.586 1227.835,1348.113 1233.043,1350.681 
		1238.194,1353.281 1243.29,1355.913 1248.337,1358.586 1253.319,1361.29 1258.246,1364.035 1263.116,1366.812 1267.929,1369.63 
		1272.678,1372.479 1277.371,1375.353 1282,1378.266 1286.572,1381.213 1291.079,1384.191 1295.523,1387.201 1299.902,1390.244 
		1304.216,1393.319 1308.466,1396.426 1312.652,1399.557 1316.765,1402.721 1320.822,1405.916 1324.807,1409.136 1328.719,1412.388 
		1332.566,1415.664 1336.342,1418.973 1340.044,1422.305 1343.683,1425.662 1347.24,1429.051 1350.734,1432.464 1354.155,1435.901 
		1357.496,1439.362 1360.772,1442.847 1363.967,1446.357 1367.099,1449.891 1370.149,1453.441 1373.12,1457.015 1376.017,1460.613 
		1378.843,1464.235 1381.596,1467.873 1384.26,1471.528 1386.86,1475.206 1389.371,1478.901 1391.81,1482.62 1394.169,1486.347 
		1396.455,1490.098 1398.653,1493.865 1400.77,1497.648 1402.814,1501.448 1404.778,1505.255 1406.654,1509.086 1408.449,1512.926 
		1410.163,1516.774 1411.797,1520.646 1413.351,1524.525 1414.816,1528.413 1416.2,1532.317 1417.504,1536.221 1418.728,1540.141 
		1419.863,1544.077 1420.917,1548.014 1421.891,1551.958 1422.777,1555.91 1423.582,1559.87 1424.298,1563.831 1424.934,1567.799 
		1425.481,1571.776 1425.948,1575.752 1426.335,1579.737 1426.632,1583.713 1426.842,1587.706 1426.971,1591.69 1427.011,1595.675 	
		"/>
	<polyline class="st0" points="1427.011,1529.435 1427.003,1531.512 1426.971,1533.581 1426.914,1535.658 1426.834,1537.726 
		1426.729,1539.803 1426.6,1541.872 1426.455,1543.949 1426.278,1546.017 1426.085,1548.086 1425.868,1550.155 1425.626,1552.232 
		1425.369,1554.292 1425.079,1556.361 1424.773,1558.43 1424.435,1560.49 1424.081,1562.559 	"/>
	<polyline class="st0" points="314.43,1562.559 314.068,1560.49 313.737,1558.43 313.432,1556.361 313.142,1554.292 
		312.884,1552.232 312.643,1550.155 312.425,1548.086 312.232,1546.017 312.055,1543.949 311.91,1541.872 311.782,1539.803 
		311.677,1537.726 311.596,1535.658 311.54,1533.581 311.508,1531.512 311.492,1529.435 311.492,1492.175 	"/>
	<line class="st0" x1="1427.011" y1="1529.435" x2="1427.011" y2="1492.175"/>
	<polyline class="st0" points="311.492,1492.175 311.54,1488.19 311.669,1484.197 311.878,1480.213 312.176,1476.229 
		312.562,1472.252 313.029,1468.276 313.577,1464.299 314.212,1460.331 314.937,1456.362 315.742,1452.41 316.627,1448.458 
		317.601,1444.514 318.656,1440.578 319.791,1436.641 321.014,1432.721 322.318,1428.817 323.703,1424.913 325.168,1421.025 
		326.721,1417.146 328.347,1413.274 330.062,1409.426 331.857,1405.578 333.74,1401.755 335.696,1397.939 337.733,1394.14 
		339.85,1390.365 342.055,1386.598 344.333,1382.847 346.692,1379.112 349.131,1375.401 351.642,1371.706 354.242,1368.028 
		356.915,1364.365 359.66,1360.727 362.485,1357.113 365.391,1353.514 368.361,1349.94 371.412,1346.383 374.543,1342.857 
		377.739,1339.347 381.015,1335.862 384.363,1332.401 387.784,1328.964 391.27,1325.551 394.836,1322.162 398.466,1318.805 
		402.177,1315.473 405.944,1312.164 409.792,1308.888 413.704,1305.636 417.688,1302.408 421.737,1299.213 425.85,1296.049 
		430.036,1292.918 434.286,1289.811 438.601,1286.744 442.988,1283.701 447.431,1280.691 451.939,1277.713 456.503,1274.766 
		461.139,1271.853 465.832,1268.971 470.581,1266.129 475.395,1263.312 480.265,1260.535 485.191,1257.79 490.182,1255.085 
		495.221,1252.413 500.324,1249.781 505.476,1247.181 510.684,1244.613 515.94,1242.094 521.261,1239.598 526.622,1237.151 
		532.039,1234.745 537.513,1232.37 543.026,1230.036 548.597,1227.741 554.215,1225.488 559.874,1223.274 565.589,1221.101 
		571.345,1218.968 577.14,1216.875 582.984,1214.83 588.876,1212.818 594.801,1210.854 600.773,1208.93 606.778,1207.046 
		612.831,1205.211 618.917,1203.416 625.043,1201.661 631.2,1199.955 637.398,1198.288 643.629,1196.662 649.899,1195.093 
		656.194,1193.555 662.521,1192.066 668.888,1190.625 675.271,1189.225 681.695,1187.872 688.142,1186.568 694.614,1185.305 
		701.118,1184.089 707.646,1182.922 714.198,1181.795 720.767,1180.725 727.367,1179.694 733.984,1178.712 740.625,1177.778 
		747.282,1176.893 753.955,1176.056 760.652,1175.259 767.357,1174.518 774.078,1173.818 780.824,1173.166 787.569,1172.571 
		794.339,1172.015 801.109,1171.508 807.894,1171.049 814.688,1170.639 821.49,1170.268 828.3,1169.954 835.117,1169.689 
		841.943,1169.471 848.761,1169.302 855.595,1169.182 862.421,1169.109 869.255,1169.077 876.089,1169.101 882.915,1169.174 
		889.741,1169.294 896.567,1169.463 903.393,1169.689 910.203,1169.954 917.013,1170.268 923.823,1170.631 930.616,1171.041 
		937.402,1171.5 944.172,1172.007 950.933,1172.563 957.687,1173.166 964.424,1173.818 971.153,1174.518 977.859,1175.267 
		984.556,1176.056 991.229,1176.901 997.886,1177.786 1004.527,1178.72 1011.143,1179.702 1017.736,1180.725 1024.312,1181.803 
		1030.864,1182.922 1037.392,1184.089 1043.896,1185.305 1050.368,1186.568 1056.816,1187.872 1063.239,1189.225 1069.63,1190.617 
		1075.99,1192.066 1082.317,1193.555 1088.619,1195.085 1094.882,1196.662 1101.112,1198.288 1107.31,1199.955 1113.468,1201.661 
		1119.594,1203.416 1125.679,1205.211 1131.724,1207.054 1137.737,1208.93 1143.702,1210.854 1149.634,1212.826 1155.518,1214.83 
		1161.362,1216.883 1167.166,1218.976 1172.921,1221.109 1178.628,1223.274 1184.295,1225.488 1189.914,1227.741 1195.476,1230.036 
		1200.998,1232.37 1206.471,1234.737 1211.889,1237.151 1217.258,1239.598 1222.57,1242.086 1227.835,1244.613 1233.043,1247.173 
		1238.194,1249.773 1243.29,1252.413 1248.337,1255.085 1253.319,1257.79 1258.246,1260.535 1263.116,1263.312 1267.929,1266.129 
		1272.678,1268.971 1277.371,1271.853 1282,1274.766 1286.572,1277.713 1291.079,1280.691 1295.523,1283.701 1299.902,1286.744 
		1304.216,1289.819 1308.466,1292.918 1312.652,1296.057 1316.765,1299.221 1320.822,1302.408 1324.807,1305.636 1328.719,1308.88 
		1332.566,1312.164 1336.342,1315.473 1340.044,1318.805 1343.683,1322.162 1347.24,1325.551 1350.734,1328.964 1354.155,1332.401 
		1357.496,1335.862 1360.772,1339.347 1363.967,1342.857 1367.099,1346.383 1370.149,1349.94 1373.12,1353.514 1376.017,1357.113 
		1378.843,1360.735 1381.596,1364.373 1384.26,1368.028 1386.86,1371.706 1389.371,1375.401 1391.81,1379.12 1394.169,1382.847 
		1396.455,1386.598 1398.653,1390.365 1400.77,1394.148 1402.814,1397.939 1404.778,1401.755 1406.654,1405.578 1408.449,1409.418 
		1410.163,1413.274 1411.797,1417.146 1413.351,1421.017 1414.816,1424.913 1416.2,1428.809 1417.504,1432.721 1418.728,1436.641 
		1419.863,1440.569 1420.917,1444.506 1421.891,1448.458 1422.777,1452.41 1423.582,1456.362 1424.298,1460.331 1424.934,1464.299 
		1425.481,1468.276 1425.948,1472.252 1426.335,1476.229 1426.632,1480.213 1426.842,1484.197 1426.971,1488.19 1427.011,1492.175 	
		"/>
	<polyline class="st0" points="1427.011,1425.936 1427.003,1428.004 1426.971,1430.081 1426.914,1432.158 1426.834,1434.226 
		1426.729,1436.303 1426.6,1438.372 1426.455,1440.449 1426.278,1442.517 1426.085,1444.586 1425.868,1446.655 1425.626,1448.724 
		1425.369,1450.792 1425.079,1452.861 1424.773,1454.93 1424.435,1456.99 1424.081,1459.051 	"/>
	<polyline class="st0" points="314.43,1459.051 314.068,1456.99 313.737,1454.93 313.432,1452.861 313.142,1450.792 
		312.884,1448.724 312.643,1446.655 312.425,1444.586 312.232,1442.517 312.055,1440.449 311.91,1438.372 311.782,1436.303 
		311.677,1434.226 311.596,1432.158 311.54,1430.081 311.508,1428.004 311.492,1425.936 311.492,1388.674 	"/>
	<line class="st0" x1="1427.011" y1="1425.936" x2="1427.011" y2="1388.674"/>
	<polyline class="st0" points="311.492,1388.674 311.54,1384.682 311.669,1380.698 311.878,1376.713 312.176,1372.729 
		312.562,1368.752 313.029,1364.767 313.577,1360.799 314.212,1356.831 314.937,1352.862 315.742,1348.902 316.627,1344.958 
		317.601,1341.005 318.656,1337.069 319.791,1333.141 321.014,1329.221 322.318,1325.309 323.703,1321.413 325.168,1317.517 
		326.721,1313.645 328.347,1309.774 330.062,1305.918 331.857,1302.078 333.74,1298.255 335.696,1294.439 337.733,1290.64 
		339.85,1286.857 342.055,1283.09 344.333,1279.347 346.692,1275.612 349.131,1271.901 351.642,1268.198 354.242,1264.528 
		356.915,1260.865 359.66,1257.227 362.485,1253.612 365.391,1250.014 368.361,1246.44 371.412,1242.883 374.543,1239.349 
		377.739,1235.847 381.015,1232.362 384.363,1228.901 387.784,1225.464 391.27,1222.05 394.836,1218.662 398.466,1215.305 
		402.177,1211.965 405.944,1208.664 409.792,1205.38 413.704,1202.128 417.688,1198.908 421.737,1195.713 425.85,1192.549 
		430.036,1189.418 434.286,1186.311 438.601,1183.236 442.988,1180.201 447.431,1177.191 451.939,1174.213 456.503,1171.266 
		461.139,1168.353 465.832,1165.471 470.581,1162.621 475.395,1159.812 480.265,1157.035 485.191,1154.29 490.182,1151.586 
		495.221,1148.913 500.324,1146.273 505.476,1143.673 510.684,1141.113 515.94,1138.586 521.261,1136.098 526.622,1133.651 
		532.039,1131.236 537.513,1128.87 543.026,1126.536 548.597,1124.241 554.215,1121.988 559.874,1119.774 565.589,1117.601 
		571.345,1115.468 577.14,1113.375 582.984,1111.33 588.876,1109.318 594.801,1107.354 600.773,1105.43 606.778,1103.546 
		612.831,1101.711 618.917,1099.916 625.043,1098.161 631.2,1096.455 637.398,1094.789 643.629,1093.163 649.899,1091.585 
		656.194,1090.055 662.521,1088.566 668.888,1087.125 675.271,1085.725 681.695,1084.372 688.142,1083.06 694.614,1081.805 
		701.118,1080.589 707.646,1079.422 714.198,1078.295 720.767,1077.224 727.367,1076.194 733.984,1075.212 740.625,1074.278 
		747.282,1073.393 753.955,1072.556 760.652,1071.759 767.357,1071.018 774.078,1070.318 780.824,1069.666 787.569,1069.062 
		794.339,1068.507 801.109,1068 807.894,1067.541 814.688,1067.13 821.49,1066.768 828.3,1066.454 835.117,1066.189 
		841.943,1065.971 848.761,1065.802 855.595,1065.673 862.421,1065.601 869.255,1065.577 876.089,1065.601 882.915,1065.673 
		889.741,1065.794 896.567,1065.963 903.393,1066.181 910.203,1066.454 917.013,1066.768 923.823,1067.13 930.616,1067.541 
		937.402,1068 944.172,1068.507 950.933,1069.062 957.687,1069.666 964.424,1070.318 971.153,1071.018 977.859,1071.759 
		984.556,1072.556 991.229,1073.393 997.886,1074.286 1004.527,1075.22 1011.143,1076.194 1017.736,1077.224 1024.312,1078.303 
		1030.864,1079.422 1037.392,1080.589 1043.896,1081.805 1050.368,1083.06 1056.816,1084.372 1063.239,1085.717 1069.63,1087.117 
		1075.99,1088.558 1082.317,1090.047 1088.619,1091.585 1094.882,1093.163 1101.112,1094.78 1107.31,1096.447 1113.468,1098.161 
		1119.594,1099.916 1125.679,1101.711 1131.724,1103.546 1137.737,1105.43 1143.702,1107.354 1149.634,1109.326 1155.518,1111.33 
		1161.362,1113.383 1167.166,1115.468 1172.921,1117.601 1178.628,1119.774 1184.295,1121.988 1189.914,1124.241 1195.476,1126.536 
		1200.998,1128.87 1206.471,1131.236 1211.889,1133.651 1217.258,1136.098 1222.57,1138.586 1227.835,1141.113 1233.043,1143.673 
		1238.194,1146.273 1243.29,1148.913 1248.337,1151.586 1253.319,1154.29 1258.246,1157.035 1263.116,1159.812 1267.929,1162.621 
		1272.678,1165.471 1277.371,1168.353 1282,1171.266 1286.572,1174.213 1291.079,1177.191 1295.523,1180.201 1299.902,1183.244 
		1304.216,1186.319 1308.466,1189.418 1312.652,1192.549 1316.765,1195.713 1320.822,1198.908 1324.807,1202.128 1328.719,1205.38 
		1332.566,1208.664 1336.342,1211.965 1340.044,1215.297 1343.683,1218.662 1347.24,1222.05 1350.734,1225.455 1354.155,1228.893 
		1357.496,1232.354 1360.772,1235.839 1363.967,1239.349 1367.099,1242.883 1370.149,1246.44 1373.12,1250.014 1376.017,1253.612 
		1378.843,1257.227 1381.596,1260.865 1384.26,1264.528 1386.86,1268.206 1389.371,1271.901 1391.81,1275.612 1394.169,1279.347 
		1396.455,1283.098 1398.653,1286.865 1400.77,1290.64 1402.814,1294.439 1404.778,1298.255 1406.654,1302.078 1408.449,1305.918 
		1410.163,1309.774 1411.797,1313.637 1413.351,1317.517 1414.816,1321.405 1416.2,1325.309 1417.504,1329.221 1418.728,1333.141 
		1419.863,1337.069 1420.917,1341.005 1421.891,1344.95 1422.777,1348.902 1423.582,1352.862 1424.298,1356.823 1424.934,1360.799 
		1425.481,1364.767 1425.948,1368.744 1426.335,1372.729 1426.632,1376.713 1426.842,1380.698 1426.971,1384.682 1427.011,1388.674 
			"/>
	<polyline class="st0" points="1427.011,1322.427 1427.003,1324.504 1426.971,1326.581 1426.914,1328.65 1426.834,1330.726 
		1426.729,1332.795 1426.6,1334.872 1426.455,1336.941 1426.278,1339.017 1426.085,1341.086 1425.868,1343.155 1425.626,1345.223 
		1425.369,1347.292 1425.079,1349.361 1424.773,1351.422 1424.435,1353.49 1424.081,1355.551 	"/>
	<polyline class="st0" points="314.43,1355.551 314.068,1353.49 313.737,1351.422 313.432,1349.361 313.142,1347.292 
		312.884,1345.223 312.643,1343.155 312.425,1341.086 312.232,1339.017 312.055,1336.941 311.91,1334.872 311.782,1332.795 
		311.677,1330.726 311.596,1328.65 311.54,1326.581 311.508,1324.504 311.492,1322.427 311.492,1285.166 	"/>
	<line class="st0" x1="1427.011" y1="1322.427" x2="1427.011" y2="1285.166"/>
	<polyline class="st0" points="311.492,1285.166 311.54,1281.182 311.669,1277.197 311.878,1273.213 312.176,1269.228 
		312.562,1265.244 313.029,1261.268 313.577,1257.299 314.212,1253.323 314.937,1249.362 315.742,1245.402 316.627,1241.45 
		317.601,1237.505 318.656,1233.569 319.791,1229.641 321.014,1225.721 322.318,1221.809 323.703,1217.905 325.168,1214.017 
		326.721,1210.137 328.347,1206.274 330.062,1202.418 331.857,1198.578 333.74,1194.747 335.696,1190.939 337.733,1187.14 
		339.85,1183.357 342.055,1179.59 344.333,1175.839 346.692,1172.112 349.131,1168.393 351.642,1164.698 354.242,1161.02 
		356.915,1157.365 359.66,1153.727 362.485,1150.104 365.391,1146.514 368.361,1142.932 371.412,1139.382 374.543,1135.849 
		377.739,1132.339 381.015,1128.854 384.363,1125.392 387.784,1121.956 391.27,1118.551 394.836,1115.162 398.466,1111.797 
		402.177,1108.464 405.944,1105.156 409.792,1101.88 413.704,1098.628 417.688,1095.408 421.737,1092.213 425.85,1089.049 
		430.036,1085.918 434.286,1082.811 438.601,1079.736 442.988,1076.693 447.431,1073.683 451.939,1070.704 456.503,1067.758 
		461.139,1064.853 465.832,1061.971 470.581,1059.121 475.395,1056.312 480.265,1053.535 485.191,1050.79 490.182,1048.085 
		495.221,1045.413 500.324,1042.773 505.476,1040.173 510.684,1037.613 515.94,1035.086 521.261,1032.598 526.622,1030.151 
		532.039,1027.736 537.513,1025.362 543.026,1023.028 548.597,1020.733 554.215,1018.479 559.874,1016.266 565.589,1014.101 
		571.345,1011.968 577.14,1009.875 582.984,1007.822 588.876,1005.818 594.801,1003.854 600.773,1001.93 606.778,1000.046 
		612.831,998.211 618.917,996.408 625.043,994.661 631.2,992.947 637.398,991.281 643.629,989.663 649.899,988.085 656.194,986.555 
		662.521,985.066 668.888,983.617 675.271,982.225 681.695,980.872 688.142,979.56 694.614,978.297 701.118,977.081 
		707.646,975.914 714.198,974.795 720.767,973.717 727.367,972.694 733.984,971.712 740.625,970.778 747.282,969.893 
		753.955,969.048 760.652,968.259 767.357,967.51 774.078,966.818 780.824,966.166 787.569,965.562 794.339,965.007 801.109,964.5 
		807.894,964.041 814.688,963.63 821.49,963.268 828.3,962.954 835.117,962.689 841.943,962.463 848.761,962.294 855.595,962.173 
		862.421,962.101 869.255,962.077 876.089,962.101 882.915,962.173 889.741,962.294 896.567,962.463 903.393,962.681 
		910.203,962.946 917.013,963.26 923.823,963.63 930.616,964.041 937.402,964.5 944.172,965.007 950.933,965.562 957.687,966.166 
		964.424,966.818 971.153,967.51 977.859,968.259 984.556,969.056 991.229,969.893 997.886,970.778 1004.527,971.712 
		1011.143,972.694 1017.736,973.724 1024.312,974.795 1030.864,975.922 1037.392,977.089 1043.896,978.297 1050.368,979.56 
		1056.816,980.864 1063.239,982.217 1069.63,983.617 1075.99,985.058 1082.317,986.547 1088.619,988.085 1094.882,989.663 
		1101.112,991.281 1107.31,992.947 1113.468,994.653 1119.594,996.408 1125.679,998.211 1131.724,1000.046 1137.737,1001.93 
		1143.702,1003.854 1149.634,1005.818 1155.518,1007.83 1161.362,1009.875 1167.166,1011.968 1172.921,1014.101 1178.628,1016.274 
		1184.295,1018.488 1189.914,1020.741 1195.476,1023.035 1200.998,1025.362 1206.471,1027.736 1211.889,1030.143 1217.258,1032.598 
		1222.57,1035.086 1227.835,1037.605 1233.043,1040.173 1238.194,1042.773 1243.29,1045.405 1248.337,1048.077 1253.319,1050.79 
		1258.246,1053.535 1263.116,1056.312 1267.929,1059.121 1272.678,1061.971 1277.371,1064.853 1282,1067.766 1286.572,1070.713 
		1291.079,1073.691 1295.523,1076.701 1299.902,1079.736 1304.216,1082.811 1308.466,1085.918 1312.652,1089.049 1316.765,1092.213 
		1320.822,1095.408 1324.807,1098.628 1328.719,1101.88 1332.566,1105.156 1336.342,1108.464 1340.044,1111.797 1343.683,1115.162 
		1347.24,1118.542 1350.734,1121.956 1354.155,1125.392 1357.496,1128.854 1360.772,1132.339 1363.967,1135.849 1367.099,1139.382 
		1370.149,1142.932 1373.12,1146.514 1376.017,1150.113 1378.843,1153.727 1381.596,1157.365 1384.26,1161.028 1386.86,1164.698 
		1389.371,1168.401 1391.81,1172.112 1394.169,1175.847 1396.455,1179.59 1398.653,1183.357 1400.77,1187.14 1402.814,1190.939 
		1404.778,1194.747 1406.654,1198.578 1408.449,1202.418 1410.163,1206.274 1411.797,1210.137 1413.351,1214.017 1414.816,1217.905 
		1416.2,1221.809 1417.504,1225.721 1418.728,1229.641 1419.863,1233.569 1420.917,1237.505 1421.891,1241.45 1422.777,1245.402 
		1423.582,1249.362 1424.298,1253.323 1424.934,1257.291 1425.481,1261.268 1425.948,1265.244 1426.335,1269.228 1426.632,1273.213 
		1426.842,1277.197 1426.971,1281.182 1427.011,1285.166 	"/>
	<polyline class="st0" points="1427.011,1218.927 1427.003,1221.004 1426.971,1223.073 1426.914,1225.15 1426.834,1227.226 
		1426.729,1229.295 1426.6,1231.372 1426.455,1233.441 1426.278,1235.509 1426.085,1237.586 1425.868,1239.655 1425.626,1241.723 
		1425.369,1243.792 1425.079,1245.853 1424.773,1247.922 1424.435,1249.982 1424.081,1252.051 	"/>
	<polyline class="st0" points="314.43,1252.051 314.068,1249.982 313.737,1247.922 313.432,1245.853 313.142,1243.792 
		312.884,1241.723 312.643,1239.655 312.425,1237.586 312.232,1235.509 312.055,1233.441 311.91,1231.372 311.782,1229.295 
		311.677,1227.226 311.596,1225.15 311.54,1223.073 311.508,1221.004 311.492,1218.927 311.492,1181.666 	"/>
	<line class="st0" x1="1427.011" y1="1218.927" x2="1427.011" y2="1181.666"/>
	<polyline class="st0" points="311.492,1181.666 311.54,1177.682 311.669,1173.697 311.878,1169.705 312.176,1165.729 
		312.562,1161.744 313.029,1157.767 313.577,1153.791 314.212,1149.823 314.937,1145.862 315.742,1141.902 316.627,1137.95 
		317.601,1134.005 318.656,1130.069 319.791,1126.141 321.014,1122.221 322.318,1118.309 323.703,1114.405 325.168,1110.517 
		326.721,1106.637 328.347,1102.774 330.062,1098.918 331.857,1095.078 333.74,1091.247 335.696,1087.439 337.733,1083.64 
		339.85,1079.857 342.055,1076.09 344.333,1072.339 346.692,1068.604 349.131,1064.893 351.642,1061.198 354.242,1057.52 
		356.915,1053.865 359.66,1050.227 362.485,1046.604 365.391,1043.006 368.361,1039.432 371.412,1035.882 374.543,1032.349 
		377.739,1028.839 381.015,1025.354 384.363,1021.893 387.784,1018.455 391.27,1015.043 394.836,1011.662 398.466,1008.297 
		402.177,1004.965 405.944,1001.656 409.792,998.38 413.704,995.128 417.688,991.9 421.737,988.713 425.85,985.549 430.036,982.41 
		434.286,979.311 438.601,976.236 442.988,973.193 447.431,970.183 451.939,967.204 456.503,964.258 461.139,961.344 
		465.832,958.463 470.581,955.621 475.395,952.812 480.265,950.027 485.191,947.29 490.182,944.578 495.221,941.905 
		500.324,939.273 505.476,936.673 510.684,934.113 515.94,931.586 521.261,929.098 526.622,926.643 532.039,924.236 
		537.513,921.862 543.026,919.527 548.597,917.233 554.215,914.979 559.874,912.766 565.589,910.593 571.345,908.46 577.14,906.375 
		582.984,904.322 588.876,902.318 594.801,900.345 600.773,898.422 606.778,896.546 612.831,894.703 618.917,892.908 
		625.043,891.153 631.2,889.447 637.398,887.78 643.629,886.162 649.899,884.585 656.194,883.047 662.521,881.558 668.888,880.117 
		675.271,878.717 681.695,877.364 688.142,876.06 694.614,874.797 701.118,873.581 707.646,872.414 714.198,871.295 
		720.767,870.216 727.367,869.186 733.984,868.212 740.625,867.27 747.282,866.385 753.955,865.548 760.652,864.759 767.357,864.01 
		774.078,863.31 780.824,862.666 787.569,862.062 794.339,861.507 801.109,861 807.894,860.541 814.688,860.13 821.49,859.768 
		828.3,859.454 835.117,859.18 841.943,858.963 848.761,858.794 855.595,858.674 862.421,858.601 869.255,858.577 876.089,858.601 
		882.915,858.674 889.741,858.794 896.567,858.963 903.393,859.18 910.203,859.446 917.013,859.76 923.823,860.122 930.616,860.533 
		937.402,861 944.172,861.507 950.933,862.062 957.687,862.666 964.424,863.31 971.153,864.01 977.859,864.759 984.556,865.548 
		991.229,866.393 997.886,867.279 1004.527,868.212 1011.143,869.194 1017.736,870.224 1024.312,871.295 1030.864,872.414 
		1037.392,873.581 1043.896,874.797 1050.368,876.06 1056.816,877.364 1063.239,878.717 1069.63,880.117 1075.99,881.558 
		1082.317,883.047 1088.619,884.577 1094.882,886.154 1101.112,887.78 1107.31,889.447 1113.468,891.153 1119.594,892.908 
		1125.679,894.703 1131.724,896.546 1137.737,898.43 1143.702,900.354 1149.634,902.318 1155.518,904.322 1161.362,906.375 
		1167.166,908.467 1172.921,910.601 1178.628,912.774 1184.295,914.988 1189.914,917.233 1195.476,919.527 1200.998,921.862 
		1206.471,924.236 1211.889,926.643 1217.258,929.09 1222.57,931.577 1227.835,934.105 1233.043,936.673 1238.194,939.273 
		1243.29,941.905 1248.337,944.578 1253.319,947.282 1258.246,950.027 1263.116,952.804 1267.929,955.621 1272.678,958.471 
		1277.371,961.344 1282,964.258 1286.572,967.204 1291.079,970.183 1295.523,973.193 1299.902,976.236 1304.216,979.311 
		1308.466,982.418 1312.652,985.549 1316.765,988.713 1320.822,991.908 1324.807,995.128 1328.719,998.38 1332.566,1001.656 
		1336.342,1004.965 1340.044,1008.297 1343.683,1011.654 1347.24,1015.043 1350.734,1018.455 1354.155,1021.893 1357.496,1025.354 
		1360.772,1028.839 1363.967,1032.349 1367.099,1035.882 1370.149,1039.432 1373.12,1043.006 1376.017,1046.604 1378.843,1050.227 
		1381.596,1053.865 1384.26,1057.52 1386.86,1061.198 1389.371,1064.893 1391.81,1068.612 1394.169,1072.339 1396.455,1076.09 
		1398.653,1079.857 1400.77,1083.64 1402.814,1087.439 1404.778,1091.247 1406.654,1095.078 1408.449,1098.918 1410.163,1102.766 
		1411.797,1106.637 1413.351,1110.517 1414.816,1114.405 1416.2,1118.301 1417.504,1122.213 1418.728,1126.133 1419.863,1130.069 
		1420.917,1134.005 1421.891,1137.95 1422.777,1141.902 1423.582,1145.862 1424.298,1149.823 1424.934,1153.791 1425.481,1157.767 
		1425.948,1161.744 1426.335,1165.72 1426.632,1169.705 1426.842,1173.689 1426.971,1177.682 1427.011,1181.666 	"/>
	<polyline class="st0" points="1427.011,1115.427 1427.003,1117.504 1426.971,1119.573 1426.914,1121.65 1426.834,1123.718 
		1426.729,1125.795 1426.6,1127.864 1426.455,1129.941 1426.278,1132.009 1426.085,1134.078 1425.868,1136.147 1425.626,1138.223 
		1425.369,1140.284 1425.079,1142.353 1424.773,1144.422 1424.435,1146.482 1424.081,1148.551 	"/>
	<polyline class="st0" points="314.43,1148.551 314.068,1146.482 313.737,1144.422 313.432,1142.353 313.142,1140.284 
		312.884,1138.223 312.643,1136.147 312.425,1134.078 312.232,1132.009 312.055,1129.941 311.91,1127.864 311.782,1125.795 
		311.677,1123.718 311.596,1121.65 311.54,1119.573 311.508,1117.504 311.492,1115.427 311.492,1078.167 	"/>
	<line class="st0" x1="1427.011" y1="1115.427" x2="1427.011" y2="1078.167"/>
	<polyline class="st0" points="311.492,1078.167 311.54,1074.182 311.669,1070.189 311.878,1066.205 312.176,1062.22 
		312.562,1058.244 313.029,1054.267 313.577,1050.291 314.212,1046.323 314.937,1042.354 315.742,1038.402 316.627,1034.45 
		317.601,1030.505 318.656,1026.569 319.791,1022.633 321.014,1018.713 322.318,1014.809 323.703,1010.905 325.168,1007.017 
		326.721,1003.137 328.347,999.266 330.062,995.418 331.857,991.57 333.74,987.747 335.696,983.931 337.733,980.132 339.85,976.357 
		342.055,972.59 344.333,968.839 346.692,965.104 349.131,961.393 351.642,957.698 354.242,954.019 356.915,950.357 359.66,946.719 
		362.485,943.104 365.391,939.506 368.361,935.932 371.412,932.374 374.543,928.849 377.739,925.339 381.015,921.854 
		384.363,918.393 387.784,914.955 391.27,911.542 394.836,908.154 398.466,904.797 402.177,901.465 405.944,898.156 409.792,894.88 
		413.704,891.628 417.688,888.4 421.737,885.205 425.85,882.041 430.036,878.91 434.286,875.803 438.601,872.736 442.988,869.693 
		447.431,866.683 451.939,863.705 456.503,860.758 461.139,857.844 465.832,854.963 470.581,852.121 475.395,849.304 
		480.265,846.527 485.191,843.782 490.182,841.077 495.221,838.405 500.324,835.773 505.476,833.173 510.684,830.605 
		515.94,828.086 521.261,825.59 526.622,823.143 532.039,820.737 537.513,818.362 543.026,816.027 548.597,813.733 554.215,811.48 
		559.874,809.266 565.589,807.093 571.345,804.959 577.14,802.867 582.984,800.822 588.876,798.81 594.801,796.846 600.773,794.922 
		606.778,793.038 612.831,791.203 618.917,789.408 625.043,787.653 631.2,785.947 637.398,784.28 643.629,782.654 649.899,781.077 
		656.194,779.547 662.521,778.058 668.888,776.617 675.271,775.217 681.695,773.864 688.142,772.56 694.614,771.297 
		701.118,770.081 707.646,768.914 714.198,767.787 720.767,766.716 727.367,765.686 733.984,764.704 740.625,763.77 
		747.282,762.885 753.955,762.048 760.652,761.251 767.357,760.51 774.078,759.81 780.824,759.158 787.569,758.562 794.339,758.007 
		801.109,757.5 807.894,757.041 814.688,756.631 821.49,756.26 828.3,755.946 835.117,755.681 841.943,755.463 848.761,755.294 
		855.595,755.174 862.421,755.101 869.255,755.069 876.089,755.093 882.915,755.165 889.741,755.286 896.567,755.455 
		903.393,755.681 910.203,755.946 917.013,756.26 923.823,756.622 930.616,757.033 937.402,757.492 944.172,757.999 
		950.933,758.554 957.687,759.158 964.424,759.81 971.153,760.51 977.859,761.259 984.556,762.048 991.229,762.893 997.886,763.778 
		1004.527,764.712 1011.143,765.694 1017.736,766.716 1024.312,767.795 1030.864,768.914 1037.392,770.081 1043.896,771.297 
		1050.368,772.552 1056.816,773.864 1063.239,775.217 1069.63,776.609 1075.99,778.058 1082.317,779.547 1088.619,781.077 
		1094.882,782.654 1101.112,784.28 1107.31,785.947 1113.468,787.653 1119.594,789.408 1125.679,791.203 1131.724,793.046 
		1137.737,794.922 1143.702,796.846 1149.634,798.818 1155.518,800.822 1161.362,802.875 1167.166,804.967 1172.921,807.1 
		1178.628,809.266 1184.295,811.48 1189.914,813.733 1195.476,816.027 1200.998,818.362 1206.471,820.728 1211.889,823.143 
		1217.258,825.59 1222.57,828.077 1227.835,830.605 1233.043,833.165 1238.194,835.765 1243.29,838.405 1248.337,841.077 
		1253.319,843.782 1258.246,846.527 1263.116,849.304 1267.929,852.121 1272.678,854.963 1277.371,857.844 1282,860.758 
		1286.572,863.705 1291.079,866.683 1295.523,869.693 1299.902,872.736 1304.216,875.811 1308.466,878.91 1312.652,882.049 
		1316.765,885.213 1320.822,888.4 1324.807,891.628 1328.719,894.872 1332.566,898.156 1336.342,901.465 1340.044,904.797 
		1343.683,908.154 1347.24,911.542 1350.734,914.955 1354.155,918.393 1357.496,921.854 1360.772,925.339 1363.967,928.849 
		1367.099,932.374 1370.149,935.932 1373.12,939.506 1376.017,943.104 1378.843,946.727 1381.596,950.365 1384.26,954.019 
		1386.86,957.698 1389.371,961.393 1391.81,965.112 1394.169,968.839 1396.455,972.59 1398.653,976.357 1400.77,980.14 
		1402.814,983.931 1404.778,987.747 1406.654,991.57 1408.449,995.41 1410.163,999.266 1411.797,1003.137 1413.351,1007.009 
		1414.816,1010.905 1416.2,1014.801 1417.504,1018.713 1418.728,1022.633 1419.863,1026.561 1420.917,1030.497 1421.891,1034.45 
		1422.777,1038.394 1423.582,1042.354 1424.298,1046.323 1424.934,1050.291 1425.481,1054.267 1425.948,1058.244 1426.335,1062.22 
		1426.632,1066.205 1426.842,1070.189 1426.971,1074.182 1427.011,1078.167 	"/>
	<polyline class="st0" points="1427.011,1011.927 1427.003,1013.996 1426.971,1016.073 1426.914,1018.149 1426.834,1020.218 
		1426.729,1022.295 1426.6,1024.364 1426.455,1026.44 1426.278,1028.509 1426.085,1030.578 1425.868,1032.647 1425.626,1034.715 
		1425.369,1036.784 1425.079,1038.853 1424.773,1040.922 1424.435,1042.982 1424.081,1045.043 	"/>
	<polyline class="st0" points="314.43,1045.043 314.068,1042.982 313.737,1040.922 313.432,1038.853 313.142,1036.784 
		312.884,1034.715 312.643,1032.647 312.425,1030.578 312.232,1028.509 312.055,1026.44 311.91,1024.364 311.782,1022.295 
		311.677,1020.218 311.596,1018.149 311.54,1016.073 311.508,1013.996 311.492,1011.927 311.492,974.666 	"/>
	<line class="st0" x1="1427.011" y1="1011.927" x2="1427.011" y2="974.666"/>
	<polyline class="st0" points="311.492,974.666 311.54,970.674 311.669,966.689 311.878,962.705 312.176,958.72 312.562,954.744 
		313.029,950.759 313.577,946.791 314.212,942.823 314.937,938.854 315.742,934.894 316.627,930.95 317.601,926.997 
		318.656,923.061 319.791,919.133 321.014,915.213 322.318,911.301 323.703,907.405 325.168,903.509 326.721,899.637 
		328.347,895.765 330.062,891.91 331.857,888.07 333.74,884.247 335.696,880.431 337.733,876.632 339.85,872.849 342.055,869.082 
		344.333,865.338 346.692,861.603 349.131,857.893 351.642,854.19 354.242,850.519 356.915,846.857 359.66,843.218 362.485,839.604 
		365.391,836.006 368.361,832.432 371.412,828.874 374.543,825.341 377.739,821.839 381.015,818.354 384.363,814.893 
		387.784,811.455 391.27,808.042 394.836,804.654 398.466,801.297 402.177,797.956 405.944,794.656 409.792,791.372 413.704,788.12 
		417.688,784.9 421.737,781.705 425.85,778.541 430.036,775.41 434.286,772.303 438.601,769.228 442.988,766.193 447.431,763.183 
		451.939,760.204 456.503,757.258 461.139,754.344 465.832,751.463 470.581,748.613 475.395,745.804 480.265,743.027 
		485.191,740.282 490.182,737.577 495.221,734.905 500.324,732.265 505.476,729.665 510.684,727.105 515.94,724.578 521.261,722.09 
		526.622,719.643 532.039,717.228 537.513,714.862 543.026,712.527 548.597,710.233 554.215,707.98 559.874,705.766 
		565.589,703.592 571.345,701.459 577.14,699.366 582.984,697.322 588.876,695.31 594.801,693.346 600.773,691.422 606.778,689.538 
		612.831,687.703 618.917,685.908 625.043,684.153 631.2,682.447 637.398,680.78 643.629,679.154 649.899,677.577 656.194,676.047 
		662.521,674.558 668.888,673.117 675.271,671.717 681.695,670.364 688.142,669.052 694.614,667.797 701.118,666.581 
		707.646,665.414 714.198,664.287 720.767,663.216 727.367,662.186 733.984,661.204 740.625,660.27 747.282,659.385 753.955,658.54 
		760.652,657.751 767.357,657.01 774.078,656.31 780.824,655.658 787.569,655.054 794.339,654.499 801.109,653.992 807.894,653.533 
		814.688,653.122 821.49,652.76 828.3,652.446 835.117,652.181 841.943,651.963 848.761,651.794 855.595,651.665 862.421,651.593 
		869.255,651.569 876.089,651.593 882.915,651.665 889.741,651.786 896.567,651.955 903.393,652.172 910.203,652.438 
		917.013,652.76 923.823,653.122 930.616,653.533 937.402,653.992 944.172,654.499 950.933,655.054 957.687,655.658 964.424,656.31 
		971.153,657.01 977.859,657.751 984.556,658.548 991.229,659.385 997.886,660.27 1004.527,661.212 1011.143,662.186 
		1017.736,663.216 1024.312,664.295 1030.864,665.414 1037.392,666.581 1043.896,667.797 1050.368,669.052 1056.816,670.356 
		1063.239,671.708 1069.63,673.109 1075.99,674.55 1082.317,676.039 1088.619,677.577 1094.882,679.154 1101.112,680.772 
		1107.31,682.438 1113.468,684.153 1119.594,685.908 1125.679,687.703 1131.724,689.538 1137.737,691.422 1143.702,693.346 
		1149.634,695.31 1155.518,697.322 1161.362,699.375 1167.166,701.459 1172.921,703.592 1178.628,705.766 1184.295,707.98 
		1189.914,710.233 1195.476,712.527 1200.998,714.862 1206.471,717.228 1211.889,719.643 1217.258,722.09 1222.57,724.578 
		1227.835,727.105 1233.043,729.665 1238.194,732.265 1243.29,734.905 1248.337,737.577 1253.319,740.282 1258.246,743.027 
		1263.116,745.804 1267.929,748.613 1272.678,751.463 1277.371,754.344 1282,757.258 1286.572,760.204 1291.079,763.183 
		1295.523,766.193 1299.902,769.236 1304.216,772.311 1308.466,775.41 1312.652,778.541 1316.765,781.705 1320.822,784.9 
		1324.807,788.12 1328.719,791.372 1332.566,794.656 1336.342,797.956 1340.044,801.289 1343.683,804.654 1347.24,808.034 
		1350.734,811.447 1354.155,814.884 1357.496,818.346 1360.772,821.831 1363.967,825.341 1367.099,828.874 1370.149,832.432 
		1373.12,836.006 1376.017,839.604 1378.843,843.218 1381.596,846.857 1384.26,850.519 1386.86,854.198 1389.371,857.893 
		1391.81,861.603 1394.169,865.338 1396.455,869.089 1398.653,872.849 1400.77,876.632 1402.814,880.431 1404.778,884.247 
		1406.654,888.07 1408.449,891.91 1410.163,895.765 1411.797,899.629 1413.351,903.509 1414.816,907.397 1416.2,911.301 
		1417.504,915.213 1418.728,919.133 1419.863,923.061 1420.917,926.997 1421.891,930.942 1422.777,934.894 1423.582,938.854 
		1424.298,942.815 1424.934,946.791 1425.481,950.759 1425.948,954.736 1426.335,958.72 1426.632,962.705 1426.842,966.689 
		1426.971,970.674 1427.011,974.666 	"/>
	<polyline class="st0" points="619.295,685.787 620.961,685.039 622.628,684.29 624.302,683.557 625.984,682.817 627.675,682.092 
		629.365,681.368 631.063,680.651 632.77,679.935 634.485,679.227 636.207,678.526 637.93,677.826 639.66,677.134 641.399,676.45 
		643.146,675.766 644.901,675.089 646.655,674.421 648.418,673.753 650.181,673.093 651.96,672.433 653.739,671.789 
		655.526,671.137 657.321,670.501 659.116,669.865 660.919,669.237 662.722,668.618 664.541,667.998 666.36,667.386 
		668.188,666.782 670.015,666.179 671.85,665.583 673.693,664.995 675.537,664.408 677.388,663.828 679.248,663.257 
		681.107,662.685 682.975,662.13 684.85,661.566 686.726,661.019 688.609,660.472 690.493,659.932 692.384,659.401 694.276,658.87 
		696.176,658.346 698.083,657.831 699.991,657.316 701.907,656.817 703.831,656.318 705.746,655.819 707.678,655.328 
		709.61,654.853 711.542,654.37 713.49,653.903 715.43,653.436 717.378,652.977 719.334,652.527 721.29,652.076 723.246,651.633 
		725.21,651.199 727.182,650.772 729.154,650.345 731.135,649.927 733.107,649.516 735.095,649.106 737.083,648.711 
		739.071,648.317 741.068,647.93 743.064,647.544 745.068,647.166 747.072,646.795 749.077,646.433 751.089,646.079 
		753.102,645.725 755.122,645.379 757.142,645.041 759.163,644.703 761.191,644.381 763.22,644.059 765.248,643.745 
		767.285,643.431 769.321,643.133 771.366,642.835 773.402,642.545 775.447,642.256 777.499,641.982 779.552,641.708 
		781.605,641.443 783.657,641.185 785.718,640.927 787.771,640.678 789.839,640.445 791.9,640.203 793.969,639.978 796.037,639.752 
		798.106,639.535 800.175,639.326 802.251,639.124 804.328,638.923 806.405,638.73 808.482,638.545 810.567,638.368 
		812.643,638.199 814.728,638.03 816.813,637.868 818.898,637.716 820.991,637.563 823.076,637.426 825.168,637.289 827.261,637.16 
		829.354,637.04 831.447,636.919 833.54,636.806 835.641,636.701 837.734,636.605 839.834,636.516 841.927,636.428 844.028,636.347 
		846.129,636.275 848.23,636.21 850.331,636.154 852.432,636.098 854.533,636.049 856.634,636.009 858.735,635.969 860.844,635.945 
		862.944,635.921 865.045,635.905 867.154,635.896 869.255,635.889 871.356,635.896 873.465,635.905 875.566,635.921 
		877.667,635.945 879.768,635.969 881.877,636.001 883.978,636.049 886.079,636.09 888.18,636.146 890.281,636.21 892.381,636.275 
		894.482,636.347 896.583,636.428 898.676,636.508 900.777,636.605 902.87,636.701 904.971,636.806 907.064,636.919 
		909.156,637.031 911.249,637.16 913.342,637.289 915.435,637.426 917.52,637.563 919.605,637.716 921.698,637.868 923.782,638.03 
		925.867,638.199 927.944,638.368 930.029,638.545 932.105,638.73 934.182,638.923 936.259,639.124 938.336,639.326 
		940.404,639.535 942.473,639.752 944.542,639.978 946.611,640.203 948.671,640.445 950.732,640.686 952.793,640.927 
		954.853,641.185 956.906,641.443 958.958,641.708 961.011,641.982 963.056,642.264 965.1,642.545 967.145,642.835 969.189,643.133 
		971.226,643.439 973.262,643.745 975.291,644.059 977.319,644.381 979.348,644.711 981.368,645.041 983.389,645.379 
		985.409,645.725 987.421,646.079 989.434,646.433 991.438,646.795 993.442,647.166 995.447,647.544 997.443,647.922 
		999.439,648.317 1001.428,648.711 1003.416,649.106 1005.404,649.516 1007.376,649.927 1009.356,650.345 1011.328,650.764 
		1013.3,651.199 1015.264,651.633 1017.221,652.076 1019.177,652.519 1021.133,652.977 1023.081,653.436 1025.029,653.895 
		1026.969,654.37 1028.9,654.845 1030.832,655.328 1032.764,655.819 1034.688,656.31 1036.604,656.809 1038.519,657.316 
		1040.427,657.831 1042.335,658.346 1044.234,658.87 1046.126,659.401 1048.018,659.932 1049.901,660.472 1051.785,661.019 
		1053.66,661.566 1055.536,662.13 1057.403,662.685 1059.263,663.257 1061.114,663.828 1062.966,664.408 1064.817,664.995 
		1066.66,665.583 1068.496,666.179 1070.323,666.782 1072.15,667.386 1073.969,667.998 1075.78,668.618 1077.592,669.237 
		1079.395,669.873 1081.19,670.501 1082.985,671.145 1084.772,671.789 1086.551,672.441 1088.322,673.093 1090.092,673.753 
		1091.855,674.421 1093.61,675.089 1095.365,675.766 1097.103,676.45 1098.842,677.134 1100.573,677.826 1102.303,678.526 
		1104.026,679.227 1105.733,679.935 1107.439,680.651 1109.145,681.368 1110.836,682.092 1112.526,682.817 1114.208,683.557 
		1115.883,684.29 1117.549,685.039 1119.207,685.787 	"/>
	<line class="st0" x1="463.611" y1="752.807" x2="463.611" y2="688.999"/>
	<line class="st0" x1="1274.9" y1="752.807" x2="1274.9" y2="688.999"/>
	<polyline class="st0" points="463.611,688.999 463.643,686.012 463.739,683.034 463.9,680.056 464.126,677.078 464.407,674.107 
		464.762,671.129 465.172,668.167 465.647,665.197 466.186,662.242 466.782,659.288 467.45,656.334 468.175,653.396 
		468.955,650.458 469.809,647.528 470.718,644.606 471.684,641.692 472.714,638.794 473.809,635.896 474.96,633.007 
		476.176,630.133 477.447,627.276 478.776,624.418 480.168,621.576 481.625,618.751 483.138,615.934 484.708,613.133 
		486.334,610.347 488.016,607.571 489.763,604.809 491.566,602.065 493.426,599.336 495.341,596.623 497.314,593.927 
		499.334,591.246 501.419,588.574 503.552,585.925 505.741,583.293 507.987,580.677 510.289,578.085 512.64,575.501 
		515.047,572.942 517.502,570.406 520.013,567.878 522.573,565.375 525.189,562.896 527.845,560.433 530.566,557.994 
		533.327,555.571 536.136,553.172 539.002,550.79 541.916,548.431 544.878,546.097 547.888,543.786 550.939,541.5 554.046,539.23 
		557.194,536.993 560.389,534.771 563.633,532.574 566.917,530.4 570.25,528.259 573.622,526.134 577.036,524.033 580.497,521.964 
		584.006,519.92 587.548,517.891 591.13,515.895 594.76,513.931 598.431,511.983 602.134,510.067 605.877,508.184 609.668,506.316 
		613.492,504.481 617.347,502.678 621.243,500.899 625.179,499.144 629.148,497.422 633.156,495.731 637.197,494.065 
		641.27,492.431 645.383,490.821 649.521,489.251 653.699,487.706 657.9,486.184 662.134,484.703 666.409,483.246 670.699,481.822 
		675.03,480.429 679.384,479.061 683.763,477.733 688.174,476.429 692.61,475.157 697.069,473.925 701.561,472.718 706.068,471.543 
		710.608,470.399 715.164,469.289 719.745,468.21 724.349,467.172 728.977,466.157 733.622,465.175 738.29,464.234 742.975,463.316 
		747.676,462.439 752.401,461.593 757.134,460.78 761.891,460.008 766.665,459.259 771.454,458.551 776.252,457.875 
		781.065,457.239 785.895,456.627 790.733,456.055 795.587,455.516 800.448,455.009 805.318,454.542 810.204,454.107 
		815.09,453.705 819.992,453.335 824.895,453.005 829.813,452.707 834.731,452.449 839.649,452.216 844.576,452.023 849.51,451.87 
		854.444,451.741 859.379,451.652 864.313,451.604 869.255,451.588 874.19,451.604 879.132,451.652 884.066,451.741 
		889.001,451.862 893.935,452.023 898.861,452.216 903.779,452.441 908.698,452.707 913.616,453.005 918.518,453.335 
		923.412,453.705 928.306,454.107 933.184,454.542 938.062,455.009 942.924,455.516 947.77,456.055 952.615,456.627 
		957.445,457.239 962.259,457.883 967.056,458.551 971.846,459.267 976.619,460.008 981.368,460.789 986.109,461.593 
		990.834,462.439 995.535,463.316 1000.22,464.234 1004.889,465.175 1009.533,466.157 1014.162,467.164 1018.766,468.21 
		1023.346,469.289 1027.902,470.399 1032.442,471.543 1036.95,472.718 1041.441,473.917 1045.901,475.157 1050.336,476.429 
		1054.747,477.733 1059.126,479.061 1063.481,480.429 1067.803,481.822 1072.102,483.246 1076.368,484.703 1080.602,486.184 
		1084.812,487.706 1088.981,489.251 1093.127,490.829 1097.232,492.431 1101.313,494.065 1105.354,495.731 1109.363,497.422 
		1113.331,499.144 1117.267,500.899 1121.163,502.678 1125.027,504.481 1128.85,506.316 1132.634,508.176 1136.377,510.067 
		1140.088,511.983 1143.75,513.931 1147.38,515.895 1150.962,517.891 1154.504,519.912 1158.006,521.964 1161.467,524.033 
		1164.888,526.134 1168.261,528.259 1171.593,530.408 1174.877,532.574 1178.121,534.771 1181.317,536.993 1184.464,539.23 
		1187.563,541.5 1190.622,543.786 1193.633,546.105 1196.595,548.439 1199.509,550.79 1202.366,553.172 1205.184,555.571 
		1207.945,557.986 1210.665,560.433 1213.33,562.896 1215.938,565.375 1218.497,567.878 1221.009,570.398 1223.464,572.942 
		1225.871,575.501 1228.221,578.085 1230.523,580.677 1232.761,583.293 1234.959,585.925 1237.092,588.582 1239.168,591.246 
		1241.197,593.927 1243.169,596.623 1245.085,599.344 1246.944,602.073 1248.739,604.818 1250.486,607.578 1252.176,610.347 
		1253.802,613.141 1255.372,615.934 1256.885,618.751 1258.342,621.576 1259.735,624.418 1261.063,627.268 1262.343,630.133 
		1263.558,633.007 1264.709,635.889 1265.804,638.786 1266.834,641.692 1267.8,644.606 1268.71,647.52 1269.555,650.45 
		1270.344,653.388 1271.068,656.334 1271.729,659.28 1272.332,662.234 1272.864,665.197 1273.338,668.159 1273.757,671.129 
		1274.103,674.099 1274.385,677.078 1274.61,680.056 1274.771,683.034 1274.868,686.012 1274.9,688.999 	"/>
	<polyline class="st0" points="1274.9,428.172 1274.892,429.259 1274.884,430.353 1274.86,431.44 1274.828,432.527 
		1274.795,433.613 1274.747,434.708 1274.691,435.795 1274.626,436.882 1274.554,437.968 1274.474,439.055 1274.385,440.142 
		1274.288,441.228 1274.176,442.315 1274.063,443.402 1273.942,444.488 1273.805,445.575 1273.668,446.661 1273.524,447.748 
		1273.363,448.827 1273.202,449.914 1273.025,450.992 1272.847,452.079 1272.654,453.158 1272.453,454.236 1272.252,455.323 
		1272.034,456.402 1271.809,457.48 1271.576,458.559 1271.342,459.637 1271.093,460.708 1270.835,461.786 1270.569,462.865 
		1270.296,463.936 1270.014,465.006 1269.724,466.077 1269.426,467.156 1269.12,468.226 1268.807,469.289 1268.485,470.359 
		1268.155,471.43 1267.817,472.492 1267.47,473.555 1267.116,474.625 1266.754,475.688 1266.384,476.751 1265.997,477.805 
		1265.611,478.868 1265.217,479.922 1264.814,480.985 1264.404,482.039 1263.985,483.094 1263.558,484.14 1263.116,485.194 
		1262.673,486.241 1262.222,487.295 1261.763,488.342 1261.296,489.388 1260.821,490.427 1260.339,491.473 1259.848,492.511 
		1259.34,493.55 1258.833,494.588 1258.318,495.626 1257.795,496.657 1257.264,497.695 1256.724,498.726 1256.177,499.756 
		1255.622,500.778 1255.058,501.809 1254.487,502.831 1253.907,503.853 1253.319,504.875 1252.724,505.89 1252.128,506.912 
		1251.516,507.926 1250.896,508.94 1250.269,509.946 1249.641,510.953 1248.997,511.967 1248.353,512.965 1247.693,513.971 
		1247.033,514.969 1246.357,515.976 1245.68,516.966 1244.996,517.964 1244.304,518.954 1243.596,519.952 1242.887,520.934 
		1242.171,521.924 1241.454,522.906 1240.722,523.888 1239.981,524.87 1239.233,525.852 1238.484,526.826 1237.72,527.8 
		1236.955,528.774 1236.182,529.74 1235.393,530.706 1234.604,531.672 1233.807,532.638 1233.003,533.596 1232.19,534.554 
		1231.377,535.512 1230.547,536.461 1229.718,537.411 1228.873,538.361 1228.028,539.311 1227.175,540.253 1226.313,541.195 
		1225.444,542.128 1224.567,543.07 1223.681,544.004 1222.796,544.93 1221.894,545.863 1220.993,546.789 1220.083,547.707 
		1219.165,548.632 1218.24,549.55 1217.306,550.468 1216.372,551.377 1215.423,552.287 1214.473,553.196 1213.515,554.098 
		1212.549,555 1211.575,555.901 1210.593,556.803 1209.611,557.696 1208.621,558.581 	"/>
	<polyline class="st0" points="529.89,558.581 528.9,557.696 527.91,556.803 526.936,555.901 525.962,555 524.996,554.098 
		524.038,553.196 523.088,552.287 522.138,551.377 521.204,550.468 520.271,549.55 519.345,548.632 518.427,547.707 
		517.518,546.789 516.616,545.863 515.715,544.93 514.829,543.996 513.944,543.062 513.066,542.128 512.197,541.195 
		511.336,540.253 510.483,539.303 509.637,538.361 508.792,537.411 507.963,536.461 507.134,535.504 506.321,534.554 
		505.508,533.596 504.703,532.63 503.906,531.672 503.117,530.706 502.336,529.74 501.556,528.766 500.791,527.8 500.026,526.826 
		499.278,525.844 498.529,524.87 497.789,523.888 497.064,522.906 496.34,521.924 495.623,520.934 494.915,519.944 494.215,518.954 
		493.514,517.964 492.83,516.966 492.154,515.968 491.486,514.969 490.818,513.971 490.166,512.965 489.514,511.959 488.87,510.953 
		488.242,509.946 487.614,508.932 486.994,507.918 486.391,506.904 485.787,505.89 485.191,504.867 484.604,503.853 
		484.024,502.831 483.452,501.809 482.889,500.778 482.334,499.756 481.786,498.726 481.247,497.695 480.716,496.657 
		480.184,495.626 479.669,494.588 479.162,493.55 478.663,492.511 478.172,491.473 477.689,490.435 477.206,489.388 
		476.739,488.342 476.28,487.295 475.83,486.249 475.387,485.202 474.944,484.148 474.518,483.094 474.099,482.039 473.688,480.985 
		473.286,479.93 472.891,478.875 472.497,477.813 472.119,476.751 471.749,475.688 471.386,474.625 471.032,473.563 470.686,472.5 
		470.348,471.43 470.018,470.367 469.696,469.297 469.382,468.226 469.076,467.156 468.778,466.085 468.488,465.014 
		468.207,463.944 467.933,462.865 467.667,461.795 467.41,460.716 467.168,459.637 466.927,458.559 466.693,457.48 466.468,456.402 
		466.259,455.323 466.049,454.244 465.848,453.165 465.663,452.079 465.478,451 465.309,449.914 465.14,448.835 464.987,447.748 
		464.834,446.661 464.697,445.575 464.568,444.488 464.44,443.41 464.327,442.323 464.222,441.236 464.126,440.15 464.037,439.055 
		463.957,437.968 463.884,436.882 463.82,435.795 463.763,434.708 463.715,433.622 463.683,432.527 463.651,431.44 463.627,430.353 
		463.619,429.259 463.611,428.172 463.611,287.411 	"/>
	<line class="st0" x1="1274.9" y1="428.172" x2="1274.9" y2="287.411"/>
	<polyline class="st0" points="463.611,287.411 463.643,284.425 463.739,281.446 463.9,278.468 464.126,275.49 464.407,272.52 
		464.762,269.541 465.172,266.579 465.647,263.609 466.186,260.655 466.782,257.701 467.45,254.746 468.175,251.808 468.955,248.87 
		469.809,245.94 470.718,243.018 471.684,240.104 472.714,237.198 473.809,234.309 474.96,231.419 476.176,228.545 477.447,225.688 
		478.776,222.83 480.168,219.989 481.625,217.163 483.138,214.346 484.708,211.545 486.334,208.76 488.016,205.983 489.763,203.222 
		491.566,200.477 493.426,197.748 495.341,195.035 497.314,192.339 499.334,189.658 501.419,186.986 503.552,184.338 
		505.741,181.705 507.987,179.089 510.289,176.497 512.64,173.914 515.047,171.354 517.502,168.818 520.013,166.291 
		522.573,163.787 525.189,161.308 527.845,158.845 530.566,156.406 533.327,153.983 536.136,151.584 539.002,149.202 
		541.916,146.843 544.878,144.509 547.888,142.199 550.939,139.913 554.046,137.643 557.194,135.405 560.389,133.183 
		563.633,130.986 566.917,128.812 570.25,126.671 573.622,124.546 577.036,122.445 580.497,120.377 584.006,118.332 
		587.548,116.303 591.13,114.307 594.76,112.343 598.431,110.395 602.134,108.479 605.877,106.588 609.668,104.728 613.492,102.893 
		617.347,101.09 621.243,99.311 625.179,97.556 629.148,95.834 633.156,94.143 637.197,92.477 641.27,90.843 645.383,89.233 
		649.521,87.663 653.699,86.118 657.9,84.597 662.134,83.116 666.409,81.659 670.699,80.234 675.03,78.841 679.384,77.473 
		683.763,76.145 688.174,74.841 692.61,73.569 697.069,72.337 701.561,71.13 706.068,69.955 710.608,68.812 715.164,67.701 
		719.745,66.622 724.349,65.576 728.977,64.57 733.622,63.587 738.29,62.646 742.975,61.728 747.676,60.851 752.401,60.006 
		757.134,59.193 761.891,58.42 766.665,57.671 771.454,56.963 776.252,56.287 781.065,55.651 785.895,55.039 790.733,54.468 
		795.587,53.928 800.448,53.421 805.318,52.954 810.204,52.52 815.09,52.117 819.992,51.747 824.895,51.417 829.813,51.119 
		834.731,50.861 839.649,50.628 844.576,50.435 849.51,50.282 854.444,50.153 859.379,50.064 864.313,50.016 869.255,50 
		874.19,50.016 879.132,50.064 884.066,50.153 889.001,50.274 893.935,50.435 898.861,50.628 903.779,50.853 908.698,51.119 
		913.616,51.417 918.518,51.747 923.412,52.117 928.306,52.52 933.184,52.954 938.062,53.421 942.924,53.928 947.77,54.468 
		952.615,55.039 957.445,55.651 962.259,56.287 967.056,56.963 971.846,57.679 976.619,58.42 981.368,59.201 986.109,60.006 
		990.834,60.851 995.535,61.728 1000.22,62.646 1004.889,63.587 1009.533,64.57 1014.162,65.576 1018.766,66.622 1023.346,67.701 
		1027.902,68.812 1032.442,69.955 1036.95,71.13 1041.441,72.329 1045.901,73.569 1050.336,74.841 1054.747,76.145 1059.126,77.473 
		1063.481,78.841 1067.803,80.234 1072.102,81.659 1076.368,83.116 1080.602,84.597 1084.812,86.118 1088.981,87.663 
		1093.127,89.241 1097.232,90.843 1101.313,92.477 1105.354,94.143 1109.363,95.834 1113.331,97.556 1117.267,99.311 
		1121.163,101.09 1125.027,102.893 1128.85,104.728 1132.634,106.588 1136.377,108.479 1140.088,110.395 1143.75,112.343 
		1147.38,114.307 1150.962,116.303 1154.504,118.324 1158.006,120.377 1161.467,122.445 1164.888,124.546 1168.261,126.671 
		1171.593,128.82 1174.877,130.986 1178.121,133.183 1181.317,135.405 1184.464,137.643 1187.563,139.913 1190.622,142.199 
		1193.633,144.517 1196.595,146.843 1199.509,149.202 1202.366,151.584 1205.184,153.983 1207.945,156.398 1210.665,158.845 
		1213.33,161.308 1215.938,163.787 1218.497,166.291 1221.009,168.81 1223.464,171.354 1225.871,173.914 1228.221,176.497 
		1230.523,179.089 1232.761,181.705 1234.959,184.338 1237.092,186.994 1239.168,189.658 1241.197,192.339 1243.169,195.035 
		1245.085,197.756 1246.944,200.485 1248.739,203.23 1250.486,205.991 1252.176,208.76 1253.802,211.545 1255.372,214.346 
		1256.885,217.163 1258.342,219.989 1259.735,222.83 1261.063,225.68 1262.343,228.545 1263.558,231.419 1264.709,234.301 
		1265.804,237.198 1266.834,240.104 1267.8,243.018 1268.71,245.932 1269.555,248.862 1270.344,251.8 1271.068,254.746 
		1271.729,257.692 1272.332,260.646 1272.864,263.609 1273.338,266.571 1273.757,269.541 1274.103,272.511 1274.385,275.49 
		1274.61,278.468 1274.771,281.446 1274.868,284.425 1274.9,287.411 	"/>
	<line class="st0" x1="565.026" y1="531.648" x2="565.026" y2="434.386"/>
	<line class="st0" x1="1173.485" y1="531.648" x2="1173.485" y2="434.386"/>
	<polyline class="st0" points="44.612,2446.463 44.612,2425.76 62.538,2456.814 44.612,2446.463 	"/>
	<line class="st0" x1="44.612" y1="2425.76" x2="44.612" y2="2313.985"/>
	<polyline class="st0" points="582.421,2115.26 618.273,2115.26 600.347,2146.306 582.421,2115.26 	"/>
	<polyline class="st0" points="618.273,2115.26 618.273,2003.477 582.421,2003.477 582.421,2115.26 	"/>
	<line class="st0" x1="62.538" y1="2456.814" x2="600.347" y2="2146.306"/>
	<line class="st0" x1="582.421" y1="2115.26" x2="44.612" y2="2425.76"/>
	<polyline class="st0" points="600.347,1670.197 618.273,1680.548 582.421,1680.548 600.347,1670.197 	"/>
	<polyline class="st0" points="1407.064,2570.666 1407.064,2591.369 1389.138,2601.713 1407.064,2570.666 	"/>
	<line class="st0" x1="618.273" y1="1680.548" x2="1407.064" y2="2135.955"/>
	<polyline class="st0" points="1407.064,2135.955 1407.064,2337.143 1407.064,2338.463 1407.064,2339.775 1407.064,2341.071 
		1407.064,2342.351 1407.064,2343.615 1407.064,2344.863 1407.064,2346.102 1407.064,2347.318 1407.064,2348.525 1407.064,2349.708 
		1407.064,2350.875 1407.064,2352.034 1407.064,2353.169 1407.064,2354.28 1407.064,2355.383 1407.064,2356.462 1407.064,2357.524 
		1407.064,2358.563 1407.064,2359.585 1407.064,2360.591 1407.064,2361.573 1407.064,2362.539 1407.064,2363.481 1407.064,2364.398 
		1407.064,2365.3 1407.064,2366.186 1407.064,2367.039 1407.064,2367.876 1407.064,2368.689 1407.064,2369.478 1407.064,2570.666 	
		"/>
	<line class="st0" x1="600.347" y1="2146.306" x2="1389.138" y2="2601.713"/>
	<line class="st0" x1="1407.064" y1="2570.666" x2="618.273" y2="2115.26"/>
	<line class="st0" x1="1389.138" y1="2601.713" x2="1059.867" y2="2791.825"/>
	<line class="st0" x1="44.612" y1="1991.056" x2="582.421" y2="1680.548"/>
	<polyline class="st0" points="582.421,1680.548 582.421,1937.229 618.273,1937.229 618.273,1680.548 	"/>
	<line class="st0" x1="671.311" y1="2808.294" x2="62.538" y2="2456.814"/>
	<polyline class="st0" points="44.612,2268.441 44.612,2247.738 44.612,1991.056 	"/>
	<path class="st0" d="M1407.073,2337.141c-7.042-35.316-33.097-70.697-60.835-82.611c-27.738-11.914-48.52,3.35-48.522,35.64
		c-0.002,32.29,20.775,71.548,48.512,91.662c27.738,20.114,53.795,14.82,60.842-12.363"/>
	<line class="st0" x1="618.273" y1="1937.229" x2="801.439" y2="2042.983"/>
	<path class="st0" d="M801.448,2109.222c14.35,68.172,64.817,135.735,118.138,158.158c53.321,22.423,93.086-7.195,93.085-69.332
		c0-62.137-39.766-137.672-93.087-176.817c-53.321-39.145-103.788-29.855-118.136,21.748"/>
	<line class="st0" x1="801.439" y1="2109.222" x2="618.273" y2="2003.477"/>
	<line class="st0" x1="44.612" y1="2247.738" x2="582.421" y2="1937.229"/>
	<line class="st0" x1="84.046" y1="2291.213" x2="44.612" y2="2268.441"/>
	<line class="st0" x1="801.439" y1="2042.983" x2="744.078" y2="2076.107"/>
	<path class="st0" d="M413.911,2100.761c-23.698-1.955-47.608,2.647-64.535,12.421c-16.927,9.774-24.897,23.579-21.512,37.262"/>
	<path class="st0" d="M1021.374,2612.061c0-48.504-68.104-87.824-152.115-87.824s-152.115,39.32-152.115,87.824"/>
	<path class="st0" d="M345.79,2376.077c31.682,18.291,83.048,18.291,114.73,0c31.682-18.291,31.682-47.945,0-66.236
		c-31.682-18.291-83.048-18.291-114.73,0S314.108,2357.786,345.79,2376.077"/>
	<path class="st0" d="M1067.202,2762.506c34.713-0.236,62.638-16.551,62.638-36.594c0-20.044-27.925-36.358-62.638-36.594"/>
	<line class="st0" x1="582.421" y1="2003.477" x2="44.612" y2="2313.985"/>
</g>
<g>
	<path d="M749.354,3327.326L630.144,3950h-92.586l-118.813-622.674h93.381l69.539,426.374c0.528,12.189,1.323,29.94,2.385,53.248
		c-0.267-12.182,0.528-29.933,2.384-53.248l69.937-426.374H749.354z"/>
	<path d="M1060.492,3905.097c0,12.984-4.041,23.581-12.119,31.791c-8.086,8.213-18.615,12.318-31.591,12.318H858.233
		c-12.984,0-23.581-4.104-31.791-12.318c-8.215-8.209-12.318-18.807-12.318-31.791v-533.662c0-12.977,4.103-23.576,12.318-31.791
		c8.209-8.208,18.807-12.318,31.791-12.318h156.959c12.977,0,23.507,4.11,31.591,12.318c8.077,8.215,12.119,18.814,12.119,31.791
		v137.488h-55.233v-132.72H869.358v230.474h147.424c12.977,0,23.506,4.041,31.591,12.119c8.077,8.084,12.119,18.615,12.119,31.592
		V3905.097z M1005.259,3900.329v-245.573H869.358v245.573H1005.259z"/>
</g>
</svg>
